G04 (Genere par PCBNEW (2007-07-09)) le 26/3/2010-09:55:49*
G01*
G70*
G90*
%MOIN*%
G04 Gerber Fmt 3.4, Leading zero omitted, Abs format*
%FSLAX34Y34*%
G04 APERTURE LIST*
%ADD10C,0.015000*%
%ADD11C,0.060000*%
%ADD12C,0.070000*%
%ADD13R,0.070000X0.070000*%
%ADD14C,0.130000*%
%ADD15R,0.055000X0.055000*%
%ADD16C,0.055000*%
%ADD17R,0.030000X0.020000*%
%ADD18R,0.055000X0.035000*%
%ADD19R,0.035000X0.055000*%
%ADD20C,0.045000*%
%ADD21C,0.010000*%
%ADD22C,0.025000*%
%ADD23R,0.230000X0.006000*%
%ADD24R,0.060000X0.060000*%
%ADD25R,0.006000X0.230000*%
%ADD26R,0.098400X0.090600*%
%ADD27R,0.090000X0.006000*%
%ADD28R,0.090600X0.098400*%
%ADD29R,0.006000X0.090000*%
%ADD30R,0.045000X0.020000*%
%ADD31C,0.012000*%
%ADD32C,0.005000*%
%ADD33C,0.001000*%
%ADD34C,0.008000*%
%ADD35C,0.006000*%
%ADD36C,0.080000*%
%ADD37C,0.090000*%
%ADD38R,0.090000X0.090000*%
%ADD39C,0.150000*%
%ADD40R,0.075000X0.075000*%
%ADD41C,0.075000*%
%ADD42R,0.050000X0.040000*%
%ADD43R,0.075000X0.055000*%
%ADD44R,0.055000X0.075000*%
%ADD45R,0.080000X0.080000*%
%ADD46R,0.118400X0.110600*%
%ADD47R,0.110600X0.118400*%
%ADD48R,0.065000X0.040000*%
G04 APERTURE END LIST*
G54D10*
X21000Y-55000D02*
X64150Y-55000D01*
X64150Y-43250D02*
X21000Y-43250D01*
X64150Y-43250D02*
X64150Y-55000D01*
X54000Y-47500D02*
X48000Y-47500D01*
X31600Y-46500D02*
X31496Y-46511D01*
X31496Y-46511D02*
X31397Y-46543D01*
X31397Y-46543D02*
X31306Y-46595D01*
X31306Y-46595D02*
X31228Y-46665D01*
X31228Y-46665D02*
X31167Y-46750D01*
X31167Y-46750D02*
X31124Y-46845D01*
X31124Y-46845D02*
X31103Y-46948D01*
X31103Y-46948D02*
X31100Y-47000D01*
X31100Y-47000D02*
X31111Y-47104D01*
X31111Y-47104D02*
X31143Y-47203D01*
X31143Y-47203D02*
X31195Y-47294D01*
X31195Y-47294D02*
X31265Y-47372D01*
X31265Y-47372D02*
X31350Y-47433D01*
X31350Y-47433D02*
X31445Y-47476D01*
X31445Y-47476D02*
X31548Y-47497D01*
X31548Y-47497D02*
X31600Y-47500D01*
X37600Y-47500D02*
X37704Y-47489D01*
X37704Y-47489D02*
X37803Y-47457D01*
X37803Y-47457D02*
X37894Y-47405D01*
X37894Y-47405D02*
X37972Y-47335D01*
X37972Y-47335D02*
X38033Y-47250D01*
X38033Y-47250D02*
X38076Y-47155D01*
X38076Y-47155D02*
X38097Y-47052D01*
X38097Y-47052D02*
X38100Y-47000D01*
X38100Y-47000D02*
X38089Y-46896D01*
X38089Y-46896D02*
X38057Y-46797D01*
X38057Y-46797D02*
X38005Y-46706D01*
X38005Y-46706D02*
X37935Y-46628D01*
X37935Y-46628D02*
X37850Y-46567D01*
X37850Y-46567D02*
X37755Y-46524D01*
X37755Y-46524D02*
X37652Y-46503D01*
X37652Y-46503D02*
X37600Y-46500D01*
X39800Y-46500D02*
X39696Y-46511D01*
X39696Y-46511D02*
X39597Y-46543D01*
X39597Y-46543D02*
X39506Y-46595D01*
X39506Y-46595D02*
X39428Y-46665D01*
X39428Y-46665D02*
X39367Y-46750D01*
X39367Y-46750D02*
X39324Y-46845D01*
X39324Y-46845D02*
X39303Y-46948D01*
X39303Y-46948D02*
X39300Y-47000D01*
X39300Y-47000D02*
X39311Y-47104D01*
X39311Y-47104D02*
X39343Y-47203D01*
X39343Y-47203D02*
X39395Y-47294D01*
X39395Y-47294D02*
X39465Y-47372D01*
X39465Y-47372D02*
X39550Y-47433D01*
X39550Y-47433D02*
X39645Y-47476D01*
X39645Y-47476D02*
X39748Y-47497D01*
X39748Y-47497D02*
X39800Y-47500D01*
X45800Y-47500D02*
X45904Y-47489D01*
X45904Y-47489D02*
X46003Y-47457D01*
X46003Y-47457D02*
X46094Y-47405D01*
X46094Y-47405D02*
X46172Y-47335D01*
X46172Y-47335D02*
X46233Y-47250D01*
X46233Y-47250D02*
X46276Y-47155D01*
X46276Y-47155D02*
X46297Y-47052D01*
X46297Y-47052D02*
X46300Y-47000D01*
X46300Y-47000D02*
X46289Y-46896D01*
X46289Y-46896D02*
X46257Y-46797D01*
X46257Y-46797D02*
X46205Y-46706D01*
X46205Y-46706D02*
X46135Y-46628D01*
X46135Y-46628D02*
X46050Y-46567D01*
X46050Y-46567D02*
X45955Y-46524D01*
X45955Y-46524D02*
X45852Y-46503D01*
X45852Y-46503D02*
X45800Y-46500D01*
X48000Y-46500D02*
X47896Y-46511D01*
X47896Y-46511D02*
X47797Y-46543D01*
X47797Y-46543D02*
X47706Y-46595D01*
X47706Y-46595D02*
X47628Y-46665D01*
X47628Y-46665D02*
X47567Y-46750D01*
X47567Y-46750D02*
X47524Y-46845D01*
X47524Y-46845D02*
X47503Y-46948D01*
X47503Y-46948D02*
X47500Y-47000D01*
X47500Y-47000D02*
X47511Y-47104D01*
X47511Y-47104D02*
X47543Y-47203D01*
X47543Y-47203D02*
X47595Y-47294D01*
X47595Y-47294D02*
X47665Y-47372D01*
X47665Y-47372D02*
X47750Y-47433D01*
X47750Y-47433D02*
X47845Y-47476D01*
X47845Y-47476D02*
X47948Y-47497D01*
X47948Y-47497D02*
X48000Y-47500D01*
X54000Y-47500D02*
X54104Y-47489D01*
X54104Y-47489D02*
X54203Y-47457D01*
X54203Y-47457D02*
X54294Y-47405D01*
X54294Y-47405D02*
X54372Y-47335D01*
X54372Y-47335D02*
X54433Y-47250D01*
X54433Y-47250D02*
X54476Y-47155D01*
X54476Y-47155D02*
X54497Y-47052D01*
X54497Y-47052D02*
X54500Y-47000D01*
X54500Y-47000D02*
X54489Y-46896D01*
X54489Y-46896D02*
X54457Y-46797D01*
X54457Y-46797D02*
X54405Y-46706D01*
X54405Y-46706D02*
X54335Y-46628D01*
X54335Y-46628D02*
X54250Y-46567D01*
X54250Y-46567D02*
X54155Y-46524D01*
X54155Y-46524D02*
X54052Y-46503D01*
X54052Y-46503D02*
X54000Y-46500D01*
X55900Y-47000D02*
X55911Y-47104D01*
X55911Y-47104D02*
X55943Y-47203D01*
X55943Y-47203D02*
X55995Y-47294D01*
X55995Y-47294D02*
X56065Y-47372D01*
X56065Y-47372D02*
X56150Y-47433D01*
X56150Y-47433D02*
X56245Y-47476D01*
X56245Y-47476D02*
X56348Y-47497D01*
X56348Y-47497D02*
X56400Y-47500D01*
X56400Y-46500D02*
X56296Y-46511D01*
X56296Y-46511D02*
X56197Y-46543D01*
X56197Y-46543D02*
X56106Y-46595D01*
X56106Y-46595D02*
X56028Y-46665D01*
X56028Y-46665D02*
X55967Y-46750D01*
X55967Y-46750D02*
X55924Y-46845D01*
X55924Y-46845D02*
X55903Y-46948D01*
X55903Y-46948D02*
X55900Y-47000D01*
X62300Y-47500D02*
X62404Y-47489D01*
X62404Y-47489D02*
X62503Y-47457D01*
X62503Y-47457D02*
X62594Y-47405D01*
X62594Y-47405D02*
X62672Y-47335D01*
X62672Y-47335D02*
X62733Y-47250D01*
X62733Y-47250D02*
X62776Y-47155D01*
X62776Y-47155D02*
X62797Y-47052D01*
X62797Y-47052D02*
X62800Y-47000D01*
X62800Y-47000D02*
X62789Y-46896D01*
X62789Y-46896D02*
X62757Y-46797D01*
X62757Y-46797D02*
X62705Y-46706D01*
X62705Y-46706D02*
X62635Y-46628D01*
X62635Y-46628D02*
X62550Y-46567D01*
X62550Y-46567D02*
X62455Y-46524D01*
X62455Y-46524D02*
X62352Y-46503D01*
X62352Y-46503D02*
X62300Y-46500D01*
X31600Y-47500D02*
X37600Y-47500D01*
X37600Y-46500D02*
X31600Y-46500D01*
X39800Y-47500D02*
X45800Y-47500D01*
X45800Y-46500D02*
X39800Y-46500D01*
X54000Y-46500D02*
X48000Y-46500D01*
X56400Y-46500D02*
X62300Y-46500D01*
X62300Y-47500D02*
X56400Y-47500D01*
X21000Y-43250D02*
X21000Y-55000D01*
G54D24*
X25250Y-54250D03*
X24250Y-54250D03*
X23750Y-47250D03*
X23750Y-46250D03*
X24250Y-43750D03*
X23250Y-43750D03*
G54D18*
X28750Y-51125D03*
X28750Y-50375D03*
X51500Y-50875D03*
X51500Y-51625D03*
X32750Y-51625D03*
X32750Y-50875D03*
X39250Y-51625D03*
X39250Y-50875D03*
X31000Y-51625D03*
X31000Y-50875D03*
X41000Y-51625D03*
X41000Y-50875D03*
X43250Y-50875D03*
X43250Y-51625D03*
X35000Y-50875D03*
X35000Y-51625D03*
X47500Y-51625D03*
X47500Y-50875D03*
X26750Y-51875D03*
X26750Y-52625D03*
G54D19*
X23625Y-45000D03*
X22875Y-45000D03*
X26125Y-49750D03*
X26875Y-49750D03*
G54D18*
X28500Y-44125D03*
X28500Y-44875D03*
X55750Y-51625D03*
X55750Y-50875D03*
X57500Y-51625D03*
X57500Y-50875D03*
X28000Y-51125D03*
X28000Y-51875D03*
X49250Y-51625D03*
X49250Y-50875D03*
X59750Y-50875D03*
X59750Y-51625D03*
G54D30*
X29900Y-46400D03*
X27800Y-46400D03*
X29900Y-46900D03*
X29900Y-47400D03*
X29900Y-47900D03*
X27800Y-46900D03*
X27800Y-47400D03*
X27800Y-47900D03*
M02*
