G04 (created by PCBNEW-RS274X (20100406 SVN-R2508)-final) date 6/3/2010 9:59:44 PM*
G01*
G70*
G90*
%MOIN*%
G04 Gerber Fmt 3.4, Leading zero omitted, Abs format*
%FSLAX34Y34*%
G04 APERTURE LIST*
%ADD10C,0.006000*%
%ADD11C,0.012000*%
%ADD12C,0.015000*%
%ADD13C,0.070000*%
%ADD14R,0.070000X0.070000*%
%ADD15R,0.090600X0.098400*%
%ADD16R,0.006000X0.090000*%
%ADD17R,0.098400X0.090600*%
%ADD18R,0.090000X0.006000*%
%ADD19R,0.230000X0.006000*%
%ADD20C,0.060000*%
%ADD21R,0.060000X0.060000*%
%ADD22R,0.006000X0.230000*%
%ADD23C,0.130000*%
%ADD24R,0.055000X0.035000*%
%ADD25R,0.035000X0.055000*%
%ADD26R,0.075000X0.070000*%
%ADD27R,0.055000X0.055000*%
%ADD28C,0.055000*%
%ADD29R,0.045000X0.020000*%
%ADD30C,0.045000*%
%ADD31C,0.010000*%
%ADD32C,0.008000*%
%ADD33C,0.025000*%
G04 APERTURE END LIST*
G54D10*
G54D11*
X64250Y-43250D02*
X21000Y-43250D01*
X64250Y-55250D02*
X64250Y-43250D01*
X21000Y-55250D02*
X64250Y-55250D01*
G54D12*
X21000Y-55200D02*
X21000Y-55000D01*
X54000Y-47500D02*
X48000Y-47500D01*
X31600Y-46500D02*
X31557Y-46502D01*
X31514Y-46508D01*
X31471Y-46518D01*
X31429Y-46531D01*
X31389Y-46547D01*
X31351Y-46567D01*
X31314Y-46591D01*
X31279Y-46617D01*
X31247Y-46647D01*
X31217Y-46679D01*
X31191Y-46714D01*
X31167Y-46751D01*
X31147Y-46789D01*
X31131Y-46829D01*
X31118Y-46871D01*
X31108Y-46914D01*
X31102Y-46957D01*
X31100Y-47000D01*
X31100Y-47000D02*
X31102Y-47043D01*
X31108Y-47086D01*
X31118Y-47129D01*
X31131Y-47171D01*
X31147Y-47211D01*
X31167Y-47249D01*
X31191Y-47286D01*
X31217Y-47321D01*
X31247Y-47353D01*
X31279Y-47383D01*
X31314Y-47409D01*
X31351Y-47433D01*
X31389Y-47453D01*
X31429Y-47469D01*
X31471Y-47482D01*
X31514Y-47492D01*
X31557Y-47498D01*
X31600Y-47500D01*
X37600Y-47500D02*
X37643Y-47498D01*
X37686Y-47492D01*
X37729Y-47482D01*
X37771Y-47469D01*
X37811Y-47453D01*
X37850Y-47433D01*
X37886Y-47409D01*
X37921Y-47383D01*
X37953Y-47353D01*
X37983Y-47321D01*
X38009Y-47286D01*
X38033Y-47249D01*
X38053Y-47211D01*
X38069Y-47171D01*
X38082Y-47129D01*
X38092Y-47086D01*
X38098Y-47043D01*
X38100Y-47000D01*
X38100Y-47000D02*
X38098Y-46957D01*
X38092Y-46914D01*
X38082Y-46871D01*
X38069Y-46829D01*
X38053Y-46789D01*
X38033Y-46751D01*
X38009Y-46714D01*
X37983Y-46679D01*
X37953Y-46647D01*
X37921Y-46617D01*
X37886Y-46591D01*
X37850Y-46567D01*
X37811Y-46547D01*
X37771Y-46531D01*
X37729Y-46518D01*
X37686Y-46508D01*
X37643Y-46502D01*
X37600Y-46500D01*
X39800Y-46500D02*
X39757Y-46502D01*
X39714Y-46508D01*
X39671Y-46518D01*
X39629Y-46531D01*
X39589Y-46547D01*
X39551Y-46567D01*
X39514Y-46591D01*
X39479Y-46617D01*
X39447Y-46647D01*
X39417Y-46679D01*
X39391Y-46714D01*
X39367Y-46751D01*
X39347Y-46789D01*
X39331Y-46829D01*
X39318Y-46871D01*
X39308Y-46914D01*
X39302Y-46957D01*
X39300Y-47000D01*
X39300Y-47000D02*
X39302Y-47043D01*
X39308Y-47086D01*
X39318Y-47129D01*
X39331Y-47171D01*
X39347Y-47211D01*
X39367Y-47249D01*
X39391Y-47286D01*
X39417Y-47321D01*
X39447Y-47353D01*
X39479Y-47383D01*
X39514Y-47409D01*
X39551Y-47433D01*
X39589Y-47453D01*
X39629Y-47469D01*
X39671Y-47482D01*
X39714Y-47492D01*
X39757Y-47498D01*
X39800Y-47500D01*
X45800Y-47500D02*
X45843Y-47498D01*
X45886Y-47492D01*
X45929Y-47482D01*
X45971Y-47469D01*
X46011Y-47453D01*
X46050Y-47433D01*
X46086Y-47409D01*
X46121Y-47383D01*
X46153Y-47353D01*
X46183Y-47321D01*
X46209Y-47286D01*
X46233Y-47249D01*
X46253Y-47211D01*
X46269Y-47171D01*
X46282Y-47129D01*
X46292Y-47086D01*
X46298Y-47043D01*
X46300Y-47000D01*
X46300Y-47000D02*
X46298Y-46957D01*
X46292Y-46914D01*
X46282Y-46871D01*
X46269Y-46829D01*
X46253Y-46789D01*
X46233Y-46751D01*
X46209Y-46714D01*
X46183Y-46679D01*
X46153Y-46647D01*
X46121Y-46617D01*
X46086Y-46591D01*
X46050Y-46567D01*
X46011Y-46547D01*
X45971Y-46531D01*
X45929Y-46518D01*
X45886Y-46508D01*
X45843Y-46502D01*
X45800Y-46500D01*
X48000Y-46500D02*
X47957Y-46502D01*
X47914Y-46508D01*
X47871Y-46518D01*
X47829Y-46531D01*
X47789Y-46547D01*
X47751Y-46567D01*
X47714Y-46591D01*
X47679Y-46617D01*
X47647Y-46647D01*
X47617Y-46679D01*
X47591Y-46714D01*
X47567Y-46751D01*
X47547Y-46789D01*
X47531Y-46829D01*
X47518Y-46871D01*
X47508Y-46914D01*
X47502Y-46957D01*
X47500Y-47000D01*
X47500Y-47000D02*
X47502Y-47043D01*
X47508Y-47086D01*
X47518Y-47129D01*
X47531Y-47171D01*
X47547Y-47211D01*
X47567Y-47249D01*
X47591Y-47286D01*
X47617Y-47321D01*
X47647Y-47353D01*
X47679Y-47383D01*
X47714Y-47409D01*
X47751Y-47433D01*
X47789Y-47453D01*
X47829Y-47469D01*
X47871Y-47482D01*
X47914Y-47492D01*
X47957Y-47498D01*
X48000Y-47500D01*
X54000Y-47500D02*
X54043Y-47498D01*
X54086Y-47492D01*
X54129Y-47482D01*
X54171Y-47469D01*
X54211Y-47453D01*
X54250Y-47433D01*
X54286Y-47409D01*
X54321Y-47383D01*
X54353Y-47353D01*
X54383Y-47321D01*
X54409Y-47286D01*
X54433Y-47249D01*
X54453Y-47211D01*
X54469Y-47171D01*
X54482Y-47129D01*
X54492Y-47086D01*
X54498Y-47043D01*
X54500Y-47000D01*
X54500Y-47000D02*
X54498Y-46957D01*
X54492Y-46914D01*
X54482Y-46871D01*
X54469Y-46829D01*
X54453Y-46789D01*
X54433Y-46751D01*
X54409Y-46714D01*
X54383Y-46679D01*
X54353Y-46647D01*
X54321Y-46617D01*
X54286Y-46591D01*
X54250Y-46567D01*
X54211Y-46547D01*
X54171Y-46531D01*
X54129Y-46518D01*
X54086Y-46508D01*
X54043Y-46502D01*
X54000Y-46500D01*
X55900Y-47000D02*
X55902Y-47043D01*
X55908Y-47086D01*
X55918Y-47129D01*
X55931Y-47171D01*
X55947Y-47211D01*
X55967Y-47249D01*
X55991Y-47286D01*
X56017Y-47321D01*
X56047Y-47353D01*
X56079Y-47383D01*
X56114Y-47409D01*
X56151Y-47433D01*
X56189Y-47453D01*
X56229Y-47469D01*
X56271Y-47482D01*
X56314Y-47492D01*
X56357Y-47498D01*
X56400Y-47500D01*
X56400Y-46500D02*
X56357Y-46502D01*
X56314Y-46508D01*
X56271Y-46518D01*
X56229Y-46531D01*
X56189Y-46547D01*
X56151Y-46567D01*
X56114Y-46591D01*
X56079Y-46617D01*
X56047Y-46647D01*
X56017Y-46679D01*
X55991Y-46714D01*
X55967Y-46751D01*
X55947Y-46789D01*
X55931Y-46829D01*
X55918Y-46871D01*
X55908Y-46914D01*
X55902Y-46957D01*
X55900Y-47000D01*
X62300Y-47500D02*
X62343Y-47498D01*
X62386Y-47492D01*
X62429Y-47482D01*
X62471Y-47469D01*
X62511Y-47453D01*
X62550Y-47433D01*
X62586Y-47409D01*
X62621Y-47383D01*
X62653Y-47353D01*
X62683Y-47321D01*
X62709Y-47286D01*
X62733Y-47249D01*
X62753Y-47211D01*
X62769Y-47171D01*
X62782Y-47129D01*
X62792Y-47086D01*
X62798Y-47043D01*
X62800Y-47000D01*
X62800Y-47000D02*
X62798Y-46957D01*
X62792Y-46914D01*
X62782Y-46871D01*
X62769Y-46829D01*
X62753Y-46789D01*
X62733Y-46751D01*
X62709Y-46714D01*
X62683Y-46679D01*
X62653Y-46647D01*
X62621Y-46617D01*
X62586Y-46591D01*
X62550Y-46567D01*
X62511Y-46547D01*
X62471Y-46531D01*
X62429Y-46518D01*
X62386Y-46508D01*
X62343Y-46502D01*
X62300Y-46500D01*
X31600Y-47500D02*
X37600Y-47500D01*
X37600Y-46500D02*
X31600Y-46500D01*
X39800Y-47500D02*
X45800Y-47500D01*
X45800Y-46500D02*
X39800Y-46500D01*
X54000Y-46500D02*
X48000Y-46500D01*
X56400Y-46500D02*
X62300Y-46500D01*
X62300Y-47500D02*
X56400Y-47500D01*
X21000Y-43250D02*
X21000Y-55000D01*
G54D13*
X24750Y-53250D03*
G54D14*
X24750Y-49250D03*
G54D15*
X24750Y-50850D03*
X24750Y-52550D03*
G54D16*
X24500Y-49950D03*
G54D13*
X55000Y-53000D03*
G54D14*
X59000Y-53000D03*
G54D17*
X57400Y-53000D03*
X55700Y-53000D03*
G54D18*
X58300Y-52750D03*
G54D13*
X55000Y-54400D03*
G54D14*
X59000Y-54400D03*
G54D17*
X57400Y-54400D03*
X55700Y-54400D03*
G54D18*
X58300Y-54150D03*
G54D13*
X46750Y-53000D03*
G54D14*
X50750Y-53000D03*
G54D17*
X49150Y-53000D03*
X47450Y-53000D03*
G54D18*
X50050Y-52750D03*
G54D13*
X46750Y-54400D03*
G54D14*
X50750Y-54400D03*
G54D17*
X49150Y-54400D03*
X47450Y-54400D03*
G54D18*
X50050Y-54150D03*
G54D13*
X38500Y-53000D03*
G54D14*
X42500Y-53000D03*
G54D17*
X40900Y-53000D03*
X39200Y-53000D03*
G54D18*
X41800Y-52750D03*
G54D13*
X38500Y-54400D03*
G54D14*
X42500Y-54400D03*
G54D17*
X40900Y-54400D03*
X39200Y-54400D03*
G54D18*
X41800Y-54150D03*
G54D13*
X30000Y-53000D03*
G54D14*
X34000Y-53000D03*
G54D17*
X32400Y-53000D03*
X30700Y-53000D03*
G54D18*
X33300Y-52750D03*
G54D13*
X30000Y-54400D03*
G54D14*
X34000Y-54400D03*
G54D17*
X32400Y-54400D03*
X30700Y-54400D03*
G54D18*
X33300Y-54150D03*
G54D19*
X26550Y-54000D03*
G54D20*
X23750Y-54250D03*
X27750Y-54250D03*
G54D21*
X25250Y-54250D03*
X24250Y-54250D03*
G54D22*
X24000Y-48550D03*
G54D20*
X23750Y-45750D03*
X23750Y-49750D03*
G54D21*
X23750Y-47250D03*
X23750Y-46250D03*
G54D19*
X25550Y-43500D03*
G54D20*
X22750Y-43750D03*
X26750Y-43750D03*
G54D21*
X24250Y-43750D03*
X23250Y-43750D03*
G54D20*
X37300Y-52375D03*
X36452Y-52905D03*
X35604Y-53435D03*
X38148Y-51845D03*
G54D23*
X38361Y-44637D03*
X30729Y-49407D03*
G54D20*
X45550Y-52375D03*
X44702Y-52905D03*
X43854Y-53435D03*
X46398Y-51845D03*
G54D23*
X46611Y-44637D03*
X38979Y-49407D03*
G54D20*
X53800Y-52375D03*
X52952Y-52905D03*
X52104Y-53435D03*
X54648Y-51845D03*
G54D23*
X54861Y-44637D03*
X47229Y-49407D03*
G54D20*
X62050Y-52375D03*
X61202Y-52905D03*
X60354Y-53435D03*
X62898Y-51845D03*
G54D23*
X63111Y-44637D03*
X55479Y-49407D03*
G54D20*
X29050Y-52375D03*
X28202Y-52905D03*
X27354Y-53435D03*
X29898Y-51845D03*
G54D23*
X30111Y-44637D03*
X22479Y-49407D03*
G54D20*
X61520Y-51527D03*
X60672Y-52057D03*
X59824Y-52587D03*
X62368Y-50997D03*
G54D23*
X63111Y-44637D03*
X55479Y-49407D03*
G54D20*
X53270Y-51527D03*
X52422Y-52057D03*
X51574Y-52587D03*
X54118Y-50997D03*
G54D23*
X54861Y-44637D03*
X47229Y-49407D03*
G54D20*
X45020Y-51527D03*
X44172Y-52057D03*
X43324Y-52587D03*
X45868Y-50997D03*
G54D23*
X46611Y-44637D03*
X38979Y-49407D03*
G54D20*
X36770Y-51527D03*
X35922Y-52057D03*
X35074Y-52587D03*
X37618Y-50997D03*
G54D23*
X38361Y-44637D03*
X30729Y-49407D03*
G54D24*
X28750Y-51125D03*
X28750Y-50375D03*
G54D20*
X29250Y-51250D03*
X29250Y-50250D03*
G54D25*
X51675Y-51550D03*
X50925Y-51550D03*
G54D20*
X51800Y-51050D03*
X50800Y-51050D03*
G54D25*
X32675Y-51050D03*
X33425Y-51050D03*
G54D20*
X32550Y-51550D03*
X33550Y-51550D03*
G54D25*
X39725Y-51500D03*
X38975Y-51500D03*
G54D20*
X39850Y-51000D03*
X38850Y-51000D03*
G54D25*
X31575Y-51500D03*
X30825Y-51500D03*
G54D20*
X31700Y-51000D03*
X30700Y-51000D03*
G54D25*
X40875Y-51050D03*
X41625Y-51050D03*
G54D20*
X40750Y-51550D03*
X41750Y-51550D03*
G54D25*
X43425Y-51550D03*
X42675Y-51550D03*
G54D20*
X43550Y-51050D03*
X42550Y-51050D03*
G54D25*
X35175Y-51550D03*
X34425Y-51550D03*
G54D20*
X35300Y-51050D03*
X34300Y-51050D03*
G54D26*
X21750Y-43750D03*
G54D13*
X21750Y-44750D03*
X21750Y-45740D03*
X21750Y-46760D03*
X21750Y-47750D03*
G54D25*
X47975Y-51500D03*
X47225Y-51500D03*
G54D20*
X48100Y-51000D03*
X47100Y-51000D03*
G54D24*
X26750Y-51875D03*
X26750Y-52625D03*
G54D20*
X26250Y-51750D03*
X26250Y-52750D03*
X23250Y-52500D03*
X23250Y-51500D03*
G54D25*
X23625Y-45000D03*
X22875Y-45000D03*
G54D20*
X23750Y-44500D03*
X22750Y-44500D03*
X26000Y-50250D03*
X27000Y-50250D03*
G54D25*
X26125Y-49750D03*
X26875Y-49750D03*
G54D20*
X26000Y-50250D03*
X27000Y-50250D03*
X28000Y-44000D03*
X28000Y-45000D03*
G54D24*
X28500Y-44125D03*
X28500Y-44875D03*
G54D20*
X28000Y-44000D03*
X28000Y-45000D03*
G54D25*
X56275Y-51500D03*
X55525Y-51500D03*
G54D20*
X56400Y-51000D03*
X55400Y-51000D03*
G54D25*
X57425Y-51050D03*
X58175Y-51050D03*
G54D20*
X57300Y-51550D03*
X58300Y-51550D03*
G54D24*
X28000Y-51125D03*
X28000Y-51875D03*
G54D20*
X27500Y-51000D03*
X27500Y-52000D03*
G54D25*
X49125Y-51050D03*
X49875Y-51050D03*
G54D20*
X49000Y-51550D03*
X50000Y-51550D03*
G54D25*
X59975Y-51550D03*
X59225Y-51550D03*
G54D20*
X60100Y-51050D03*
X59100Y-51050D03*
G54D27*
X26250Y-45750D03*
G54D28*
X26250Y-46750D03*
X26250Y-47750D03*
X26250Y-48750D03*
X29250Y-48750D03*
X29250Y-47750D03*
X29250Y-46750D03*
X29250Y-45750D03*
G54D13*
X22000Y-51500D03*
X22000Y-52500D03*
G54D14*
X22000Y-53500D03*
G54D29*
X29900Y-46400D03*
X27800Y-46400D03*
X29900Y-46900D03*
X29900Y-47400D03*
X29900Y-47900D03*
X27800Y-46900D03*
X27800Y-47400D03*
X27800Y-47900D03*
G54D27*
X31150Y-43800D03*
G54D28*
X32150Y-43800D03*
G54D27*
X29100Y-53700D03*
G54D28*
X29100Y-54700D03*
G54D30*
X22350Y-46300D03*
X22100Y-50700D03*
X27900Y-49600D03*
X29100Y-54700D03*
G54D31*
X29250Y-45750D02*
X29250Y-44500D01*
X21200Y-53700D02*
X21200Y-46500D01*
X21300Y-53800D02*
X21200Y-53700D01*
X21750Y-54250D02*
X21300Y-53800D01*
X29250Y-44500D02*
X28750Y-44000D01*
X21450Y-46250D02*
X22300Y-46250D01*
X22300Y-46250D02*
X22350Y-46300D01*
X23750Y-54250D02*
X21750Y-54250D01*
X29900Y-46400D02*
X29250Y-45750D01*
X31150Y-43800D02*
X28200Y-43800D01*
X28750Y-44000D02*
X28000Y-44000D01*
X28200Y-43800D02*
X28000Y-44000D01*
X21200Y-46500D02*
X21450Y-46250D01*
X51800Y-51050D02*
X52793Y-51050D01*
X52793Y-51050D02*
X53270Y-51527D01*
X45550Y-52375D02*
X45550Y-52057D01*
X45550Y-52057D02*
X45020Y-51527D01*
X43550Y-51050D02*
X44543Y-51050D01*
X44543Y-51050D02*
X45020Y-51527D01*
X36293Y-51050D02*
X36770Y-51527D01*
X29100Y-53700D02*
X29100Y-52425D01*
X29100Y-52425D02*
X29050Y-52375D01*
X21600Y-50200D02*
X21600Y-47900D01*
X22100Y-50700D02*
X21600Y-50200D01*
X29050Y-51450D02*
X29250Y-51250D01*
X29050Y-52375D02*
X29050Y-51450D01*
X37300Y-52057D02*
X36770Y-51527D01*
X37300Y-52375D02*
X37300Y-52057D01*
X22000Y-52500D02*
X23250Y-52500D01*
X62050Y-52375D02*
X62050Y-52057D01*
X62050Y-52057D02*
X61520Y-51527D01*
X60100Y-51050D02*
X61043Y-51050D01*
X61043Y-51050D02*
X61520Y-51527D01*
X53800Y-52375D02*
X53800Y-52057D01*
X53800Y-52057D02*
X53270Y-51527D01*
X35300Y-51050D02*
X36293Y-51050D01*
X21600Y-47900D02*
X21750Y-47750D01*
X52415Y-52050D02*
X51425Y-52050D01*
X52952Y-52587D02*
X52415Y-52050D01*
X33300Y-50050D02*
X33650Y-50400D01*
X51425Y-52050D02*
X50925Y-51550D01*
X52952Y-52905D02*
X52952Y-52587D01*
X42550Y-51050D02*
X42250Y-51050D01*
X42250Y-51050D02*
X41750Y-51550D01*
X44702Y-52905D02*
X44702Y-52587D01*
X44702Y-52587D02*
X44172Y-52057D01*
X44172Y-52057D02*
X43157Y-52057D01*
X42675Y-51575D02*
X42675Y-51550D01*
X43157Y-52057D02*
X42675Y-51575D01*
X30700Y-51000D02*
X31650Y-50050D01*
X31650Y-50050D02*
X33300Y-50050D01*
X41900Y-50400D02*
X42550Y-51050D01*
X34300Y-51050D02*
X34050Y-51050D01*
X34050Y-51050D02*
X33550Y-51550D01*
X36452Y-52905D02*
X36452Y-52587D01*
X34925Y-52050D02*
X34425Y-51550D01*
X35915Y-52050D02*
X34925Y-52050D01*
X36452Y-52587D02*
X35915Y-52050D01*
X39700Y-50150D02*
X41650Y-50150D01*
X22000Y-51500D02*
X23250Y-51500D01*
X22750Y-44500D02*
X22750Y-43750D01*
X22750Y-44500D02*
X22750Y-45250D01*
X23250Y-45750D02*
X23750Y-45750D01*
X22750Y-45250D02*
X23250Y-45750D01*
X23750Y-45750D02*
X21750Y-45750D01*
X26250Y-48750D02*
X27750Y-48750D01*
X30450Y-50750D02*
X30700Y-51000D01*
X29750Y-50750D02*
X30450Y-50750D01*
X27750Y-48750D02*
X29750Y-50750D01*
X26250Y-52750D02*
X28047Y-52750D01*
X28047Y-52750D02*
X28202Y-52905D01*
X27500Y-52000D02*
X27500Y-52203D01*
X27500Y-52203D02*
X28202Y-52905D01*
X26250Y-52750D02*
X25250Y-51750D01*
X23500Y-51750D02*
X23250Y-51500D01*
X25250Y-51750D02*
X23500Y-51750D01*
X23750Y-45750D02*
X24250Y-45750D01*
X26800Y-46200D02*
X28000Y-45000D01*
X26800Y-47000D02*
X26800Y-46200D01*
X26500Y-47300D02*
X26800Y-47000D01*
X25800Y-47300D02*
X26500Y-47300D01*
X24250Y-45750D02*
X25800Y-47300D01*
X41650Y-50150D02*
X39500Y-48000D01*
X33650Y-50350D02*
X33650Y-50400D01*
X36000Y-48000D02*
X33650Y-50350D01*
X36000Y-48000D02*
X38750Y-48000D01*
X38750Y-48000D02*
X39500Y-48000D01*
X49600Y-49850D02*
X47750Y-48000D01*
X41900Y-50350D02*
X41900Y-50400D01*
X44250Y-48000D02*
X41900Y-50350D01*
X44250Y-48000D02*
X47000Y-48000D01*
X47000Y-48000D02*
X47750Y-48000D01*
X58150Y-50100D02*
X56050Y-48000D01*
X50150Y-50350D02*
X50150Y-50400D01*
X52500Y-48000D02*
X50150Y-50350D01*
X52500Y-48000D02*
X55250Y-48000D01*
X50500Y-51050D02*
X50000Y-51550D01*
X26250Y-48750D02*
X26950Y-48750D01*
X26950Y-48750D02*
X27800Y-47900D01*
X38850Y-51000D02*
X39700Y-50150D01*
X41650Y-50150D02*
X41900Y-50400D01*
X33650Y-50400D02*
X34300Y-51050D01*
X55400Y-51000D02*
X56300Y-50100D01*
X56300Y-50100D02*
X58150Y-50100D01*
X58150Y-50100D02*
X58400Y-50350D01*
X58400Y-50350D02*
X59100Y-51050D01*
X58300Y-51550D02*
X58600Y-51550D01*
X58600Y-51550D02*
X59100Y-51050D01*
X61202Y-52905D02*
X61202Y-52587D01*
X59725Y-52050D02*
X59225Y-51550D01*
X60665Y-52050D02*
X59725Y-52050D01*
X61202Y-52587D02*
X60665Y-52050D01*
X47100Y-51000D02*
X48250Y-49850D01*
X48250Y-49850D02*
X49600Y-49850D01*
X49600Y-49850D02*
X50150Y-50400D01*
X50150Y-50400D02*
X50800Y-51050D01*
X50800Y-51050D02*
X50500Y-51050D01*
X55250Y-48000D02*
X56050Y-48000D01*
X31550Y-53550D02*
X31550Y-51525D01*
X31550Y-51525D02*
X31575Y-51500D01*
X34000Y-54250D02*
X34789Y-54250D01*
X34789Y-54250D02*
X35604Y-53435D01*
X32400Y-54400D02*
X31550Y-53550D01*
X34000Y-53000D02*
X34661Y-53000D01*
X34661Y-53000D02*
X35074Y-52587D01*
X32550Y-51550D02*
X32550Y-52850D01*
X32550Y-52850D02*
X32400Y-53000D01*
X43039Y-54250D02*
X43854Y-53435D01*
X42500Y-54250D02*
X43039Y-54250D01*
X40900Y-54400D02*
X40050Y-53550D01*
X40050Y-53550D02*
X40050Y-51825D01*
X40050Y-51825D02*
X39725Y-51500D01*
X42911Y-53000D02*
X43324Y-52587D01*
X40750Y-52850D02*
X40900Y-53000D01*
X40750Y-51550D02*
X40750Y-52850D01*
X42500Y-53000D02*
X42911Y-53000D01*
X51289Y-54250D02*
X52104Y-53435D01*
X48300Y-51825D02*
X47975Y-51500D01*
X48300Y-53600D02*
X48300Y-51825D01*
X49100Y-54400D02*
X48300Y-53600D01*
X50750Y-54250D02*
X51289Y-54250D01*
X49150Y-54400D02*
X49100Y-54400D01*
X49000Y-52850D02*
X49150Y-53000D01*
X49000Y-51550D02*
X49000Y-52850D01*
X51161Y-53000D02*
X51574Y-52587D01*
X50750Y-53000D02*
X51161Y-53000D01*
X56550Y-53550D02*
X56550Y-51775D01*
X56550Y-51775D02*
X56275Y-51500D01*
X59000Y-54250D02*
X59539Y-54250D01*
X57400Y-54400D02*
X56550Y-53550D01*
X59539Y-54250D02*
X60354Y-53435D01*
X59000Y-53000D02*
X59411Y-53000D01*
X57300Y-51550D02*
X57550Y-51550D01*
X59411Y-53000D02*
X59824Y-52587D01*
X57550Y-51550D02*
X59000Y-53000D01*
X28500Y-51625D02*
X28000Y-51125D01*
X28500Y-52500D02*
X28500Y-51625D01*
X28750Y-52750D02*
X28500Y-52500D01*
X28750Y-53250D02*
X28750Y-52750D01*
X28500Y-53500D02*
X28750Y-53250D01*
X28000Y-53500D02*
X28500Y-53500D01*
X27935Y-53435D02*
X28000Y-53500D01*
X27354Y-53435D02*
X27935Y-53435D01*
X27250Y-50250D02*
X27000Y-50250D01*
X27900Y-49600D02*
X27250Y-50250D01*
X38500Y-54400D02*
X38500Y-53000D01*
X25250Y-54250D02*
X25250Y-53750D01*
X29850Y-54250D02*
X30000Y-54100D01*
X46750Y-54400D02*
X46750Y-53000D01*
X55000Y-54400D02*
X55000Y-53000D01*
X30000Y-53000D02*
X30000Y-54400D01*
X25250Y-53750D02*
X24750Y-53250D01*
X30000Y-54100D02*
X30000Y-53000D01*
X27750Y-54250D02*
X29850Y-54250D01*
X24250Y-49750D02*
X24750Y-49250D01*
X24750Y-49250D02*
X26250Y-47750D01*
X27800Y-47400D02*
X27550Y-47400D01*
X27200Y-47750D02*
X26250Y-47750D01*
X27550Y-47400D02*
X27200Y-47750D01*
X23750Y-49750D02*
X24250Y-49750D01*
X26750Y-43750D02*
X26750Y-44500D01*
X26750Y-44500D02*
X26750Y-45250D01*
X26750Y-45250D02*
X26250Y-45750D01*
X28950Y-45250D02*
X28950Y-44600D01*
X23750Y-44500D02*
X23750Y-44250D01*
X23750Y-44250D02*
X24250Y-43750D01*
X27800Y-46400D02*
X27800Y-46900D01*
X27800Y-46400D02*
X28950Y-45250D01*
X28850Y-44500D02*
X26750Y-44500D01*
X26250Y-45750D02*
X26250Y-46750D01*
X28950Y-44600D02*
X28850Y-44500D01*
G54D32*
X27800Y-47900D02*
X27800Y-48400D01*
X27800Y-47900D02*
X28425Y-47900D01*
X26250Y-48750D02*
X26925Y-48750D01*
X59100Y-51050D02*
X59100Y-50350D01*
X49875Y-51050D02*
X49875Y-50375D01*
X58175Y-51050D02*
X58175Y-50375D01*
X55400Y-51000D02*
X54700Y-51000D01*
X28000Y-45000D02*
X27300Y-45000D01*
X28000Y-45000D02*
X27300Y-45000D01*
X22875Y-45000D02*
X22875Y-45675D01*
X23250Y-51500D02*
X23250Y-50800D01*
X23250Y-51500D02*
X23950Y-51500D01*
X26250Y-52750D02*
X26250Y-53450D01*
X26250Y-52750D02*
X25550Y-52750D01*
X26750Y-52625D02*
X26750Y-53200D01*
X47100Y-51000D02*
X46400Y-51000D01*
X21750Y-45740D02*
X22500Y-45740D01*
X34300Y-51050D02*
X34300Y-50350D01*
X42550Y-51050D02*
X42550Y-50350D01*
X41625Y-51050D02*
X41625Y-50375D01*
X30700Y-51000D02*
X30000Y-51000D01*
X38850Y-51000D02*
X38150Y-51000D01*
X33425Y-51050D02*
X33425Y-50375D01*
X50800Y-51050D02*
X50800Y-50350D01*
X29250Y-50250D02*
X29250Y-49550D01*
X29250Y-50250D02*
X29950Y-50250D01*
X28750Y-50375D02*
X28750Y-49800D01*
X61202Y-52905D02*
X61573Y-53499D01*
X36452Y-52905D02*
X36823Y-53499D01*
X23750Y-46250D02*
X23050Y-46250D01*
X23750Y-46250D02*
X24450Y-46250D01*
X23750Y-45750D02*
X23050Y-45750D01*
X23750Y-45750D02*
X24450Y-45750D01*
G54D33*
X63750Y-45500D02*
X63750Y-54750D01*
X63500Y-45500D02*
X63500Y-54750D01*
X63250Y-52500D02*
X63250Y-54750D01*
X63250Y-45750D02*
X63250Y-51250D01*
X63000Y-52500D02*
X63000Y-54750D01*
X63000Y-47500D02*
X63000Y-51250D01*
X63000Y-45750D02*
X63000Y-46500D01*
X62750Y-52500D02*
X62750Y-54750D01*
X62750Y-47750D02*
X62750Y-50500D01*
X62750Y-45500D02*
X62750Y-46250D01*
X62500Y-52750D02*
X62500Y-54750D01*
X62500Y-48000D02*
X62500Y-50250D01*
X62500Y-45500D02*
X62500Y-46000D01*
X62250Y-53000D02*
X62250Y-54750D01*
X62250Y-48000D02*
X62250Y-50250D01*
X62250Y-45000D02*
X62250Y-46000D01*
X62250Y-43750D02*
X62250Y-44250D01*
X62000Y-53000D02*
X62000Y-54750D01*
X62000Y-48000D02*
X62000Y-50500D01*
X62000Y-43750D02*
X62000Y-46000D01*
X61750Y-53250D02*
X61750Y-54750D01*
X61750Y-48000D02*
X61750Y-51000D01*
X61750Y-43750D02*
X61750Y-46000D01*
X61500Y-53500D02*
X61500Y-54750D01*
X61500Y-48000D02*
X61500Y-50750D01*
X61500Y-43750D02*
X61500Y-46000D01*
X61250Y-53500D02*
X61250Y-54750D01*
X61250Y-48000D02*
X61250Y-50750D01*
X61250Y-43750D02*
X61250Y-46000D01*
X61000Y-53500D02*
X61000Y-54750D01*
X61000Y-48000D02*
X61000Y-50500D01*
X61000Y-43750D02*
X61000Y-46000D01*
X60750Y-54000D02*
X60750Y-54750D01*
X60750Y-48000D02*
X60750Y-50500D01*
X60750Y-43750D02*
X60750Y-46000D01*
X60500Y-54000D02*
X60500Y-54750D01*
X60500Y-48000D02*
X60500Y-50500D01*
X60500Y-43750D02*
X60500Y-46000D01*
X60250Y-54250D02*
X60250Y-54750D01*
X60250Y-48000D02*
X60250Y-50250D01*
X60250Y-43750D02*
X60250Y-46000D01*
X60000Y-54250D02*
X60000Y-54750D01*
X60000Y-48000D02*
X60000Y-50250D01*
X60000Y-43750D02*
X60000Y-46000D01*
X59750Y-54500D02*
X59750Y-54750D01*
X59750Y-48000D02*
X59750Y-50500D01*
X59750Y-43750D02*
X59750Y-46000D01*
X59500Y-48000D02*
X59500Y-50500D01*
X59500Y-43750D02*
X59500Y-46000D01*
X59250Y-48000D02*
X59250Y-50250D01*
X59250Y-43750D02*
X59250Y-46000D01*
X59000Y-48000D02*
X59000Y-50250D01*
X59000Y-43750D02*
X59000Y-46000D01*
X58750Y-48000D02*
X58750Y-50500D01*
X58750Y-43750D02*
X58750Y-46000D01*
X58500Y-48000D02*
X58500Y-50250D01*
X58500Y-43750D02*
X58500Y-46000D01*
X58250Y-48000D02*
X58250Y-50250D01*
X58250Y-43750D02*
X58250Y-46000D01*
X58000Y-48000D02*
X58000Y-50250D01*
X58000Y-43750D02*
X58000Y-46000D01*
X57750Y-48000D02*
X57750Y-50250D01*
X57750Y-43750D02*
X57750Y-46000D01*
X57500Y-48000D02*
X57500Y-50250D01*
X57500Y-43750D02*
X57500Y-46000D01*
X57250Y-48000D02*
X57250Y-50250D01*
X57250Y-43750D02*
X57250Y-46000D01*
X57000Y-48000D02*
X57000Y-50250D01*
X57000Y-43750D02*
X57000Y-46000D01*
X56750Y-48000D02*
X56750Y-50500D01*
X56750Y-43750D02*
X56750Y-46000D01*
X56500Y-48000D02*
X56500Y-50250D01*
X56500Y-43750D02*
X56500Y-46000D01*
X56250Y-50000D02*
X56250Y-50250D01*
X56250Y-48000D02*
X56250Y-48750D01*
X56250Y-43750D02*
X56250Y-46000D01*
X56000Y-50250D02*
X56000Y-50500D01*
X56000Y-47750D02*
X56000Y-48500D01*
X56000Y-43750D02*
X56000Y-46250D01*
X55750Y-47750D02*
X55750Y-48500D01*
X55750Y-45000D02*
X55750Y-46250D01*
X55750Y-43750D02*
X55750Y-44250D01*
X55500Y-45500D02*
X55500Y-48250D01*
X55250Y-45500D02*
X55250Y-48500D01*
X55000Y-50250D02*
X55000Y-50500D01*
X55000Y-45750D02*
X55000Y-48500D01*
X54750Y-50000D02*
X54750Y-51250D01*
X54750Y-47500D02*
X54750Y-48750D01*
X54750Y-45750D02*
X54750Y-46500D01*
X54500Y-47750D02*
X54500Y-50500D01*
X54500Y-45500D02*
X54500Y-46250D01*
X54250Y-48000D02*
X54250Y-50250D01*
X54250Y-45500D02*
X54250Y-46000D01*
X54000Y-48000D02*
X54000Y-50250D01*
X54000Y-45000D02*
X54000Y-46000D01*
X54000Y-43750D02*
X54000Y-44250D01*
X53750Y-48000D02*
X53750Y-50500D01*
X53750Y-43750D02*
X53750Y-46000D01*
X53500Y-48000D02*
X53500Y-51000D01*
X53500Y-43750D02*
X53500Y-46000D01*
X53250Y-48000D02*
X53250Y-50750D01*
X53250Y-43750D02*
X53250Y-46000D01*
X53000Y-48000D02*
X53000Y-50750D01*
X53000Y-43750D02*
X53000Y-46000D01*
X52750Y-48000D02*
X52750Y-50500D01*
X52750Y-43750D02*
X52750Y-46000D01*
X52500Y-48000D02*
X52500Y-50500D01*
X52500Y-43750D02*
X52500Y-46000D01*
X52250Y-48000D02*
X52250Y-50500D01*
X52250Y-43750D02*
X52250Y-46000D01*
X52000Y-48000D02*
X52000Y-50500D01*
X52000Y-43750D02*
X52000Y-46000D01*
X51750Y-48000D02*
X51750Y-50250D01*
X51750Y-43750D02*
X51750Y-46000D01*
X51500Y-48000D02*
X51500Y-50500D01*
X51500Y-43750D02*
X51500Y-46000D01*
X51250Y-48000D02*
X51250Y-50500D01*
X51250Y-43750D02*
X51250Y-46000D01*
X51000Y-48000D02*
X51000Y-50500D01*
X51000Y-43750D02*
X51000Y-46000D01*
X50750Y-48000D02*
X50750Y-50250D01*
X50750Y-43750D02*
X50750Y-46000D01*
X50500Y-48000D02*
X50500Y-50500D01*
X50500Y-43750D02*
X50500Y-46000D01*
X50250Y-48000D02*
X50250Y-50250D01*
X50250Y-43750D02*
X50250Y-46000D01*
X50000Y-48000D02*
X50000Y-50250D01*
X50000Y-43750D02*
X50000Y-46000D01*
X49750Y-48000D02*
X49750Y-50250D01*
X49750Y-43750D02*
X49750Y-46000D01*
X49500Y-48000D02*
X49500Y-50250D01*
X49500Y-43750D02*
X49500Y-46000D01*
X49250Y-48000D02*
X49250Y-50250D01*
X49250Y-43750D02*
X49250Y-46000D01*
X49000Y-48000D02*
X49000Y-50250D01*
X49000Y-43750D02*
X49000Y-46000D01*
X48750Y-48000D02*
X48750Y-50250D01*
X48750Y-43750D02*
X48750Y-46000D01*
X48500Y-48000D02*
X48500Y-50500D01*
X48500Y-43750D02*
X48500Y-46000D01*
X48250Y-48000D02*
X48250Y-50250D01*
X48250Y-43750D02*
X48250Y-46000D01*
X48000Y-50000D02*
X48000Y-50250D01*
X48000Y-48000D02*
X48000Y-48750D01*
X48000Y-43750D02*
X48000Y-46000D01*
X47750Y-50250D02*
X47750Y-50500D01*
X47750Y-48000D02*
X47750Y-48500D01*
X47750Y-43750D02*
X47750Y-46000D01*
X47500Y-47750D02*
X47500Y-48500D01*
X47500Y-45000D02*
X47500Y-46250D01*
X47500Y-43750D02*
X47500Y-44250D01*
X47250Y-47500D02*
X47250Y-48250D01*
X47250Y-45500D02*
X47250Y-46500D01*
X47000Y-45500D02*
X47000Y-48500D01*
X46750Y-50250D02*
X46750Y-50500D01*
X46750Y-45750D02*
X46750Y-48500D01*
X46500Y-50000D02*
X46500Y-51250D01*
X46500Y-47500D02*
X46500Y-48750D01*
X46500Y-45750D02*
X46500Y-46500D01*
X46250Y-47750D02*
X46250Y-50500D01*
X46250Y-45500D02*
X46250Y-46250D01*
X46000Y-48000D02*
X46000Y-50250D01*
X46000Y-45500D02*
X46000Y-46000D01*
X45750Y-48000D02*
X45750Y-50250D01*
X45750Y-45000D02*
X45750Y-46000D01*
X45750Y-43750D02*
X45750Y-44250D01*
X45500Y-48000D02*
X45500Y-50500D01*
X45500Y-43750D02*
X45500Y-46000D01*
X45250Y-48000D02*
X45250Y-51000D01*
X45250Y-43750D02*
X45250Y-46000D01*
X45000Y-48000D02*
X45000Y-50750D01*
X45000Y-43750D02*
X45000Y-46000D01*
X44750Y-48000D02*
X44750Y-50750D01*
X44750Y-43750D02*
X44750Y-46000D01*
X44500Y-48000D02*
X44500Y-50500D01*
X44500Y-43750D02*
X44500Y-46000D01*
X44250Y-48000D02*
X44250Y-50500D01*
X44250Y-43750D02*
X44250Y-46000D01*
X44000Y-48000D02*
X44000Y-50500D01*
X44000Y-43750D02*
X44000Y-46000D01*
X43750Y-48000D02*
X43750Y-50500D01*
X43750Y-43750D02*
X43750Y-46000D01*
X43500Y-48000D02*
X43500Y-50250D01*
X43500Y-43750D02*
X43500Y-46000D01*
X43250Y-48000D02*
X43250Y-50500D01*
X43250Y-43750D02*
X43250Y-46000D01*
X43000Y-48000D02*
X43000Y-50500D01*
X43000Y-43750D02*
X43000Y-46000D01*
X42750Y-48000D02*
X42750Y-50500D01*
X42750Y-43750D02*
X42750Y-46000D01*
X42500Y-48000D02*
X42500Y-50250D01*
X42500Y-43750D02*
X42500Y-46000D01*
X42250Y-48000D02*
X42250Y-50500D01*
X42250Y-43750D02*
X42250Y-46000D01*
X42000Y-48000D02*
X42000Y-50250D01*
X42000Y-43750D02*
X42000Y-46000D01*
X41750Y-48000D02*
X41750Y-50250D01*
X41750Y-43750D02*
X41750Y-46000D01*
X41500Y-48000D02*
X41500Y-50250D01*
X41500Y-43750D02*
X41500Y-46000D01*
X41250Y-48000D02*
X41250Y-50250D01*
X41250Y-43750D02*
X41250Y-46000D01*
X41000Y-48000D02*
X41000Y-50250D01*
X41000Y-43750D02*
X41000Y-46000D01*
X40750Y-48000D02*
X40750Y-50250D01*
X40750Y-43750D02*
X40750Y-46000D01*
X40500Y-48000D02*
X40500Y-50250D01*
X40500Y-43750D02*
X40500Y-46000D01*
X40250Y-48000D02*
X40250Y-50500D01*
X40250Y-43750D02*
X40250Y-46000D01*
X40000Y-48000D02*
X40000Y-50250D01*
X40000Y-43750D02*
X40000Y-46000D01*
X39750Y-50000D02*
X39750Y-50250D01*
X39750Y-48000D02*
X39750Y-48750D01*
X39750Y-43750D02*
X39750Y-46000D01*
X39500Y-50250D02*
X39500Y-50500D01*
X39500Y-48000D02*
X39500Y-48500D01*
X39500Y-43750D02*
X39500Y-46000D01*
X39250Y-47750D02*
X39250Y-48500D01*
X39250Y-45000D02*
X39250Y-46250D01*
X39250Y-43750D02*
X39250Y-44250D01*
X39000Y-47500D02*
X39000Y-48250D01*
X39000Y-45500D02*
X39000Y-46500D01*
X38750Y-45500D02*
X38750Y-48500D01*
X38500Y-50250D02*
X38500Y-50500D01*
X38500Y-45750D02*
X38500Y-48500D01*
X38250Y-50000D02*
X38250Y-51250D01*
X38250Y-47750D02*
X38250Y-48750D01*
X38250Y-45750D02*
X38250Y-46250D01*
X38000Y-53500D02*
X38000Y-54000D01*
X38000Y-47750D02*
X38000Y-50500D01*
X38000Y-45500D02*
X38000Y-46250D01*
X37750Y-52750D02*
X37750Y-54750D01*
X37750Y-48000D02*
X37750Y-50250D01*
X37750Y-45500D02*
X37750Y-46000D01*
X37500Y-53000D02*
X37500Y-54750D01*
X37500Y-48000D02*
X37500Y-50250D01*
X37500Y-45000D02*
X37500Y-46000D01*
X37500Y-43750D02*
X37500Y-44250D01*
X37250Y-53000D02*
X37250Y-54750D01*
X37250Y-48000D02*
X37250Y-50500D01*
X37250Y-43750D02*
X37250Y-46000D01*
X37000Y-53250D02*
X37000Y-54750D01*
X37000Y-48000D02*
X37000Y-51000D01*
X37000Y-43750D02*
X37000Y-46000D01*
X36750Y-53500D02*
X36750Y-54750D01*
X36750Y-48000D02*
X36750Y-50750D01*
X36750Y-43750D02*
X36750Y-46000D01*
X36500Y-53500D02*
X36500Y-54750D01*
X36500Y-48000D02*
X36500Y-50750D01*
X36500Y-43750D02*
X36500Y-46000D01*
X36250Y-53500D02*
X36250Y-54750D01*
X36250Y-48000D02*
X36250Y-50500D01*
X36250Y-43750D02*
X36250Y-46000D01*
X36000Y-54000D02*
X36000Y-54750D01*
X36000Y-48000D02*
X36000Y-50500D01*
X36000Y-43750D02*
X36000Y-46000D01*
X35750Y-54000D02*
X35750Y-54750D01*
X35750Y-48000D02*
X35750Y-50500D01*
X35750Y-43750D02*
X35750Y-46000D01*
X35500Y-54250D02*
X35500Y-54750D01*
X35500Y-48000D02*
X35500Y-50500D01*
X35500Y-43750D02*
X35500Y-46000D01*
X35250Y-54250D02*
X35250Y-54750D01*
X35250Y-48000D02*
X35250Y-50250D01*
X35250Y-43750D02*
X35250Y-46000D01*
X35000Y-54500D02*
X35000Y-54750D01*
X35000Y-48000D02*
X35000Y-50500D01*
X35000Y-43750D02*
X35000Y-46000D01*
X34750Y-48000D02*
X34750Y-50500D01*
X34750Y-43750D02*
X34750Y-46000D01*
X34500Y-48000D02*
X34500Y-50500D01*
X34500Y-43750D02*
X34500Y-46000D01*
X34250Y-48000D02*
X34250Y-50250D01*
X34250Y-43750D02*
X34250Y-46000D01*
X34000Y-48000D02*
X34000Y-50500D01*
X34000Y-43750D02*
X34000Y-46000D01*
X33750Y-48000D02*
X33750Y-50250D01*
X33750Y-43750D02*
X33750Y-46000D01*
X33500Y-48000D02*
X33500Y-50250D01*
X33500Y-43750D02*
X33500Y-46000D01*
X33250Y-48000D02*
X33250Y-50250D01*
X33250Y-43750D02*
X33250Y-46000D01*
X33000Y-48000D02*
X33000Y-50250D01*
X33000Y-43750D02*
X33000Y-46000D01*
X32750Y-48000D02*
X32750Y-50250D01*
X32750Y-43750D02*
X32750Y-46000D01*
X32500Y-48000D02*
X32500Y-50250D01*
X32500Y-44250D02*
X32500Y-46000D01*
X32250Y-48000D02*
X32250Y-50250D01*
X32250Y-44500D02*
X32250Y-46000D01*
X32000Y-48000D02*
X32000Y-50500D01*
X32000Y-44500D02*
X32000Y-46000D01*
X31750Y-48000D02*
X31750Y-50250D01*
X31750Y-44250D02*
X31750Y-46000D01*
X31500Y-50000D02*
X31500Y-50250D01*
X31500Y-48000D02*
X31500Y-48750D01*
X31500Y-44500D02*
X31500Y-46000D01*
X31250Y-50250D02*
X31250Y-50500D01*
X31250Y-48000D02*
X31250Y-48500D01*
X31250Y-44500D02*
X31250Y-46000D01*
X31000Y-47750D02*
X31000Y-48500D01*
X31000Y-45000D02*
X31000Y-46250D01*
X30750Y-47250D02*
X30750Y-48250D01*
X30750Y-45500D02*
X30750Y-46750D01*
X30500Y-45500D02*
X30500Y-48500D01*
X30250Y-50250D02*
X30250Y-50500D01*
X30250Y-45750D02*
X30250Y-46000D01*
X30000Y-50000D02*
X30000Y-51250D01*
X30000Y-48500D02*
X30000Y-48750D01*
X30000Y-45750D02*
X30000Y-46000D01*
X29750Y-49000D02*
X29750Y-49750D01*
X29500Y-49250D02*
X29500Y-49500D01*
X29000Y-49250D02*
X29000Y-49500D01*
X28750Y-49000D02*
X28750Y-49750D01*
X28750Y-48000D02*
X28750Y-48500D01*
X28750Y-47000D02*
X28750Y-47500D01*
X28750Y-46000D02*
X28750Y-46500D01*
X28500Y-46250D02*
X28500Y-49750D01*
X28250Y-48500D02*
X28250Y-49000D01*
X28000Y-48500D02*
X28000Y-49000D01*
X27750Y-48500D02*
X27750Y-49000D01*
X27500Y-48500D02*
X27500Y-49250D01*
X27500Y-45500D02*
X27500Y-46000D01*
X27250Y-48250D02*
X27250Y-49000D01*
X27250Y-45000D02*
X27250Y-47000D01*
X27000Y-48250D02*
X27000Y-49000D01*
X27000Y-45500D02*
X27000Y-47250D01*
X26750Y-53250D02*
X26750Y-53500D01*
X26750Y-51000D02*
X26750Y-51250D01*
X26750Y-48250D02*
X26750Y-48500D01*
X26750Y-47000D02*
X26750Y-47250D01*
X26500Y-50750D02*
X26500Y-51000D01*
X26250Y-44250D02*
X26250Y-45000D01*
X26000Y-44000D02*
X26000Y-45000D01*
X25750Y-53250D02*
X25750Y-53500D01*
X25750Y-51000D02*
X25750Y-51250D01*
X25750Y-47000D02*
X25750Y-47500D01*
X25750Y-44000D02*
X25750Y-45000D01*
X25500Y-50750D02*
X25500Y-53500D01*
X25500Y-44000D02*
X25500Y-48000D01*
X25250Y-44000D02*
X25250Y-48250D01*
X25000Y-44000D02*
X25000Y-48500D01*
X24750Y-44500D02*
X24750Y-48500D01*
X24500Y-44500D02*
X24500Y-48500D01*
X24250Y-45000D02*
X24250Y-45250D01*
X24000Y-50500D02*
X24000Y-53500D01*
X23750Y-53000D02*
X23750Y-53500D01*
X23750Y-50500D02*
X23750Y-51000D01*
X23500Y-53250D02*
X23500Y-53500D01*
X23500Y-50500D02*
X23500Y-50750D01*
X23500Y-48000D02*
X23500Y-49000D01*
X23250Y-53250D02*
X23250Y-53750D01*
X23250Y-50250D02*
X23250Y-50750D01*
X23250Y-48000D02*
X23250Y-48750D01*
X23000Y-53250D02*
X23000Y-53750D01*
X23000Y-50250D02*
X23000Y-50750D01*
X23000Y-45750D02*
X23000Y-48500D01*
X22750Y-53000D02*
X22750Y-53750D01*
X22750Y-50500D02*
X22750Y-51000D01*
X22750Y-46750D02*
X22750Y-48500D01*
X22750Y-45750D02*
X22750Y-46000D01*
X22500Y-47000D02*
X22500Y-48250D01*
X22250Y-48250D02*
X22250Y-48500D01*
X59750Y-54750D02*
X63750Y-54750D01*
X34750Y-54750D02*
X37750Y-54750D01*
X59750Y-54500D02*
X63750Y-54500D01*
X35000Y-54500D02*
X37750Y-54500D01*
X60000Y-54250D02*
X63750Y-54250D01*
X35250Y-54250D02*
X37750Y-54250D01*
X60500Y-54000D02*
X63750Y-54000D01*
X35750Y-54000D02*
X38000Y-54000D01*
X61000Y-53750D02*
X63750Y-53750D01*
X36250Y-53750D02*
X38000Y-53750D01*
X22750Y-53750D02*
X23250Y-53750D01*
X61000Y-53500D02*
X63750Y-53500D01*
X36250Y-53500D02*
X38000Y-53500D01*
X25500Y-53500D02*
X26750Y-53500D01*
X22750Y-53500D02*
X24000Y-53500D01*
X61750Y-53250D02*
X63750Y-53250D01*
X37000Y-53250D02*
X37750Y-53250D01*
X25500Y-53250D02*
X25750Y-53250D01*
X22750Y-53250D02*
X24000Y-53250D01*
X62000Y-53000D02*
X63750Y-53000D01*
X37250Y-53000D02*
X37750Y-53000D01*
X23750Y-53000D02*
X24000Y-53000D01*
X62500Y-52750D02*
X63750Y-52750D01*
X62750Y-52500D02*
X63750Y-52500D01*
X63500Y-52250D02*
X63750Y-52250D01*
X25500Y-52250D02*
X25750Y-52250D01*
X63500Y-52000D02*
X63750Y-52000D01*
X23750Y-52000D02*
X24000Y-52000D01*
X63500Y-51750D02*
X63750Y-51750D01*
X24000Y-51750D02*
X25500Y-51750D01*
X63500Y-51500D02*
X63750Y-51500D01*
X63000Y-51250D02*
X63750Y-51250D01*
X25500Y-51250D02*
X25750Y-51250D01*
X63000Y-51000D02*
X63750Y-51000D01*
X25500Y-51000D02*
X26750Y-51000D01*
X23750Y-51000D02*
X24000Y-51000D01*
X22500Y-51000D02*
X22750Y-51000D01*
X63000Y-50750D02*
X63750Y-50750D01*
X61250Y-50750D02*
X61750Y-50750D01*
X53000Y-50750D02*
X53500Y-50750D01*
X44750Y-50750D02*
X45250Y-50750D01*
X36500Y-50750D02*
X37000Y-50750D01*
X29750Y-50750D02*
X30000Y-50750D01*
X22750Y-50750D02*
X24000Y-50750D01*
X62750Y-50500D02*
X63750Y-50500D01*
X60500Y-50500D02*
X62000Y-50500D01*
X59500Y-50500D02*
X59750Y-50500D01*
X55750Y-50500D02*
X56000Y-50500D01*
X54500Y-50500D02*
X55000Y-50500D01*
X52000Y-50500D02*
X53750Y-50500D01*
X51000Y-50500D02*
X51500Y-50500D01*
X47500Y-50500D02*
X47750Y-50500D01*
X46250Y-50500D02*
X46750Y-50500D01*
X43750Y-50500D02*
X45500Y-50500D01*
X42750Y-50500D02*
X43250Y-50500D01*
X39250Y-50500D02*
X39500Y-50500D01*
X38000Y-50500D02*
X38500Y-50500D01*
X35500Y-50500D02*
X37250Y-50500D01*
X34500Y-50500D02*
X35000Y-50500D01*
X31000Y-50500D02*
X31250Y-50500D01*
X30000Y-50500D02*
X30250Y-50500D01*
X22750Y-50500D02*
X24000Y-50500D01*
X56000Y-50250D02*
X63750Y-50250D01*
X47750Y-50250D02*
X55000Y-50250D01*
X39500Y-50250D02*
X46750Y-50250D01*
X31250Y-50250D02*
X38500Y-50250D01*
X30000Y-50250D02*
X30250Y-50250D01*
X23000Y-50250D02*
X23250Y-50250D01*
X56250Y-50000D02*
X63750Y-50000D01*
X48000Y-50000D02*
X54750Y-50000D01*
X39750Y-50000D02*
X46500Y-50000D01*
X31500Y-50000D02*
X38250Y-50000D01*
X56500Y-49750D02*
X63750Y-49750D01*
X48250Y-49750D02*
X54500Y-49750D01*
X40000Y-49750D02*
X46250Y-49750D01*
X31750Y-49750D02*
X38000Y-49750D01*
X28500Y-49750D02*
X28750Y-49750D01*
X56500Y-49500D02*
X63750Y-49500D01*
X48250Y-49500D02*
X54500Y-49500D01*
X40000Y-49500D02*
X46250Y-49500D01*
X31750Y-49500D02*
X38000Y-49500D01*
X28500Y-49500D02*
X29750Y-49500D01*
X56500Y-49250D02*
X63750Y-49250D01*
X48250Y-49250D02*
X54500Y-49250D01*
X40000Y-49250D02*
X46250Y-49250D01*
X31750Y-49250D02*
X38000Y-49250D01*
X29500Y-49250D02*
X29750Y-49250D01*
X28500Y-49250D02*
X29000Y-49250D01*
X56500Y-49000D02*
X63750Y-49000D01*
X48250Y-49000D02*
X54500Y-49000D01*
X40000Y-49000D02*
X46250Y-49000D01*
X31750Y-49000D02*
X38000Y-49000D01*
X26750Y-49000D02*
X28750Y-49000D01*
X56250Y-48750D02*
X63750Y-48750D01*
X48000Y-48750D02*
X54750Y-48750D01*
X39750Y-48750D02*
X46500Y-48750D01*
X31500Y-48750D02*
X38250Y-48750D01*
X27000Y-48750D02*
X28500Y-48750D01*
X23250Y-48750D02*
X23500Y-48750D01*
X55750Y-48500D02*
X63750Y-48500D01*
X47500Y-48500D02*
X55250Y-48500D01*
X39250Y-48500D02*
X47000Y-48500D01*
X31000Y-48500D02*
X38750Y-48500D01*
X29750Y-48500D02*
X30500Y-48500D01*
X26750Y-48500D02*
X28750Y-48500D01*
X24500Y-48500D02*
X25000Y-48500D01*
X22750Y-48500D02*
X23500Y-48500D01*
X22000Y-48500D02*
X22250Y-48500D01*
X30500Y-48250D02*
X63750Y-48250D01*
X28500Y-48250D02*
X29000Y-48250D01*
X26500Y-48250D02*
X27250Y-48250D01*
X24500Y-48250D02*
X25250Y-48250D01*
X22250Y-48250D02*
X23500Y-48250D01*
X30500Y-48000D02*
X63750Y-48000D01*
X28500Y-48000D02*
X28750Y-48000D01*
X24500Y-48000D02*
X25500Y-48000D01*
X22500Y-48000D02*
X23500Y-48000D01*
X62750Y-47750D02*
X63750Y-47750D01*
X54500Y-47750D02*
X56000Y-47750D01*
X46250Y-47750D02*
X47500Y-47750D01*
X38000Y-47750D02*
X39250Y-47750D01*
X30500Y-47750D02*
X31000Y-47750D01*
X24500Y-47750D02*
X25500Y-47750D01*
X22500Y-47750D02*
X23000Y-47750D01*
X63000Y-47500D02*
X63750Y-47500D01*
X54750Y-47500D02*
X55500Y-47500D01*
X46500Y-47500D02*
X47250Y-47500D01*
X38500Y-47500D02*
X39000Y-47500D01*
X30500Y-47500D02*
X30750Y-47500D01*
X28500Y-47500D02*
X28750Y-47500D01*
X24500Y-47500D02*
X25750Y-47500D01*
X22500Y-47500D02*
X23000Y-47500D01*
X63250Y-47250D02*
X63750Y-47250D01*
X55000Y-47250D02*
X55500Y-47250D01*
X46750Y-47250D02*
X47000Y-47250D01*
X38500Y-47250D02*
X38750Y-47250D01*
X30500Y-47250D02*
X30750Y-47250D01*
X28500Y-47250D02*
X29000Y-47250D01*
X26500Y-47250D02*
X27000Y-47250D01*
X24500Y-47250D02*
X26000Y-47250D01*
X22250Y-47250D02*
X23000Y-47250D01*
X63250Y-47000D02*
X63750Y-47000D01*
X55000Y-47000D02*
X55500Y-47000D01*
X46750Y-47000D02*
X47000Y-47000D01*
X38500Y-47000D02*
X38750Y-47000D01*
X28500Y-47000D02*
X28750Y-47000D01*
X26750Y-47000D02*
X27250Y-47000D01*
X24500Y-47000D02*
X25750Y-47000D01*
X22500Y-47000D02*
X23000Y-47000D01*
X63250Y-46750D02*
X63750Y-46750D01*
X55000Y-46750D02*
X55500Y-46750D01*
X46750Y-46750D02*
X47000Y-46750D01*
X38500Y-46750D02*
X38750Y-46750D01*
X30500Y-46750D02*
X30750Y-46750D01*
X27000Y-46750D02*
X27250Y-46750D01*
X24500Y-46750D02*
X25500Y-46750D01*
X22750Y-46750D02*
X23000Y-46750D01*
X63000Y-46500D02*
X63750Y-46500D01*
X54750Y-46500D02*
X55500Y-46500D01*
X46500Y-46500D02*
X47250Y-46500D01*
X38500Y-46500D02*
X39000Y-46500D01*
X30500Y-46500D02*
X30750Y-46500D01*
X28500Y-46500D02*
X28750Y-46500D01*
X26750Y-46500D02*
X27250Y-46500D01*
X24500Y-46500D02*
X25750Y-46500D01*
X62750Y-46250D02*
X63750Y-46250D01*
X54500Y-46250D02*
X56000Y-46250D01*
X46250Y-46250D02*
X47500Y-46250D01*
X38000Y-46250D02*
X39250Y-46250D01*
X30500Y-46250D02*
X31000Y-46250D01*
X28500Y-46250D02*
X29000Y-46250D01*
X27000Y-46250D02*
X27250Y-46250D01*
X24500Y-46250D02*
X25500Y-46250D01*
X30000Y-46000D02*
X63750Y-46000D01*
X27000Y-46000D02*
X27500Y-46000D01*
X24500Y-46000D02*
X25500Y-46000D01*
X22750Y-46000D02*
X23000Y-46000D01*
X30000Y-45750D02*
X63750Y-45750D01*
X27000Y-45750D02*
X27750Y-45750D01*
X24500Y-45750D02*
X25500Y-45750D01*
X22500Y-45750D02*
X23000Y-45750D01*
X63500Y-45500D02*
X63750Y-45500D01*
X55250Y-45500D02*
X62750Y-45500D01*
X47000Y-45500D02*
X54500Y-45500D01*
X38750Y-45500D02*
X46250Y-45500D01*
X30500Y-45500D02*
X38000Y-45500D01*
X27000Y-45500D02*
X27500Y-45500D01*
X24500Y-45500D02*
X25500Y-45500D01*
X55750Y-45250D02*
X62250Y-45250D01*
X47500Y-45250D02*
X54000Y-45250D01*
X39250Y-45250D02*
X45750Y-45250D01*
X31000Y-45250D02*
X37500Y-45250D01*
X24250Y-45250D02*
X25500Y-45250D01*
X55750Y-45000D02*
X62250Y-45000D01*
X47500Y-45000D02*
X54000Y-45000D01*
X39250Y-45000D02*
X45750Y-45000D01*
X31000Y-45000D02*
X37500Y-45000D01*
X24250Y-45000D02*
X26250Y-45000D01*
X56000Y-44750D02*
X62000Y-44750D01*
X47750Y-44750D02*
X53750Y-44750D01*
X39500Y-44750D02*
X45500Y-44750D01*
X31250Y-44750D02*
X37250Y-44750D01*
X24500Y-44750D02*
X26250Y-44750D01*
X56000Y-44500D02*
X62000Y-44500D01*
X47750Y-44500D02*
X53750Y-44500D01*
X39500Y-44500D02*
X45500Y-44500D01*
X31250Y-44500D02*
X37250Y-44500D01*
X24500Y-44500D02*
X26250Y-44500D01*
X55750Y-44250D02*
X62250Y-44250D01*
X47500Y-44250D02*
X54000Y-44250D01*
X39250Y-44250D02*
X45750Y-44250D01*
X32500Y-44250D02*
X37500Y-44250D01*
X25000Y-44250D02*
X26250Y-44250D01*
X55750Y-44000D02*
X62250Y-44000D01*
X47500Y-44000D02*
X54000Y-44000D01*
X39250Y-44000D02*
X45750Y-44000D01*
X32750Y-44000D02*
X37500Y-44000D01*
X25000Y-44000D02*
X26000Y-44000D01*
X55250Y-43750D02*
X62750Y-43750D01*
X47000Y-43750D02*
X54500Y-43750D01*
X38750Y-43750D02*
X46250Y-43750D01*
X32750Y-43750D02*
X38000Y-43750D01*
G54D32*
X27800Y-47900D02*
X27800Y-48400D01*
X27800Y-47900D02*
X28425Y-47900D01*
X26250Y-48750D02*
X26925Y-48750D01*
X59100Y-51050D02*
X59100Y-50350D01*
X49875Y-51050D02*
X49875Y-50375D01*
X58175Y-51050D02*
X58175Y-50375D01*
X55400Y-51000D02*
X54700Y-51000D01*
X28000Y-45000D02*
X27300Y-45000D01*
X28000Y-45000D02*
X27300Y-45000D01*
X22875Y-45000D02*
X22875Y-45675D01*
X23250Y-51500D02*
X23250Y-50800D01*
X23250Y-51500D02*
X23950Y-51500D01*
X26250Y-52750D02*
X26250Y-53450D01*
X26250Y-52750D02*
X25550Y-52750D01*
X26750Y-52625D02*
X26750Y-53200D01*
X47100Y-51000D02*
X46400Y-51000D01*
X21750Y-45740D02*
X22500Y-45740D01*
X34300Y-51050D02*
X34300Y-50350D01*
X42550Y-51050D02*
X42550Y-50350D01*
X41625Y-51050D02*
X41625Y-50375D01*
X30700Y-51000D02*
X30000Y-51000D01*
X38850Y-51000D02*
X38150Y-51000D01*
X33425Y-51050D02*
X33425Y-50375D01*
X50800Y-51050D02*
X50800Y-50350D01*
X29250Y-50250D02*
X29250Y-49550D01*
X29250Y-50250D02*
X29950Y-50250D01*
X28750Y-50375D02*
X28750Y-49800D01*
X61202Y-52905D02*
X61573Y-53499D01*
X44702Y-52905D02*
X45073Y-53499D01*
X23750Y-46250D02*
X23050Y-46250D01*
X23750Y-46250D02*
X24450Y-46250D01*
X23750Y-45750D02*
X23050Y-45750D01*
X23750Y-45750D02*
X24450Y-45750D01*
G54D33*
X63750Y-45500D02*
X63750Y-54750D01*
X63500Y-45500D02*
X63500Y-54750D01*
X63250Y-52500D02*
X63250Y-54750D01*
X63250Y-45750D02*
X63250Y-51250D01*
X63000Y-52500D02*
X63000Y-54750D01*
X63000Y-47500D02*
X63000Y-51250D01*
X63000Y-45750D02*
X63000Y-46500D01*
X62750Y-52500D02*
X62750Y-54750D01*
X62750Y-47750D02*
X62750Y-50500D01*
X62750Y-45500D02*
X62750Y-46250D01*
X62500Y-52750D02*
X62500Y-54750D01*
X62500Y-48000D02*
X62500Y-50250D01*
X62500Y-45500D02*
X62500Y-46000D01*
X62250Y-53000D02*
X62250Y-54750D01*
X62250Y-48000D02*
X62250Y-50250D01*
X62250Y-45000D02*
X62250Y-46000D01*
X62250Y-43750D02*
X62250Y-44250D01*
X62000Y-53000D02*
X62000Y-54750D01*
X62000Y-48000D02*
X62000Y-50500D01*
X62000Y-43750D02*
X62000Y-46000D01*
X61750Y-53250D02*
X61750Y-54750D01*
X61750Y-48000D02*
X61750Y-51000D01*
X61750Y-43750D02*
X61750Y-46000D01*
X61500Y-53500D02*
X61500Y-54750D01*
X61500Y-48000D02*
X61500Y-50750D01*
X61500Y-43750D02*
X61500Y-46000D01*
X61250Y-53500D02*
X61250Y-54750D01*
X61250Y-48000D02*
X61250Y-50750D01*
X61250Y-43750D02*
X61250Y-46000D01*
X61000Y-53500D02*
X61000Y-54750D01*
X61000Y-48000D02*
X61000Y-50500D01*
X61000Y-43750D02*
X61000Y-46000D01*
X60750Y-54000D02*
X60750Y-54750D01*
X60750Y-48000D02*
X60750Y-50500D01*
X60750Y-43750D02*
X60750Y-46000D01*
X60500Y-54000D02*
X60500Y-54750D01*
X60500Y-48000D02*
X60500Y-50500D01*
X60500Y-43750D02*
X60500Y-46000D01*
X60250Y-54250D02*
X60250Y-54750D01*
X60250Y-48000D02*
X60250Y-50250D01*
X60250Y-43750D02*
X60250Y-46000D01*
X60000Y-54250D02*
X60000Y-54750D01*
X60000Y-48000D02*
X60000Y-50250D01*
X60000Y-43750D02*
X60000Y-46000D01*
X59750Y-54500D02*
X59750Y-54750D01*
X59750Y-48000D02*
X59750Y-50500D01*
X59750Y-43750D02*
X59750Y-46000D01*
X59500Y-48000D02*
X59500Y-50500D01*
X59500Y-43750D02*
X59500Y-46000D01*
X59250Y-48000D02*
X59250Y-50250D01*
X59250Y-43750D02*
X59250Y-46000D01*
X59000Y-48000D02*
X59000Y-50250D01*
X59000Y-43750D02*
X59000Y-46000D01*
X58750Y-48000D02*
X58750Y-50500D01*
X58750Y-43750D02*
X58750Y-46000D01*
X58500Y-48000D02*
X58500Y-50250D01*
X58500Y-43750D02*
X58500Y-46000D01*
X58250Y-48000D02*
X58250Y-50250D01*
X58250Y-43750D02*
X58250Y-46000D01*
X58000Y-48000D02*
X58000Y-50250D01*
X58000Y-43750D02*
X58000Y-46000D01*
X57750Y-48000D02*
X57750Y-50250D01*
X57750Y-43750D02*
X57750Y-46000D01*
X57500Y-48000D02*
X57500Y-50250D01*
X57500Y-43750D02*
X57500Y-46000D01*
X57250Y-48000D02*
X57250Y-50250D01*
X57250Y-43750D02*
X57250Y-46000D01*
X57000Y-48000D02*
X57000Y-50250D01*
X57000Y-43750D02*
X57000Y-46000D01*
X56750Y-48000D02*
X56750Y-50500D01*
X56750Y-43750D02*
X56750Y-46000D01*
X56500Y-48000D02*
X56500Y-50250D01*
X56500Y-43750D02*
X56500Y-46000D01*
X56250Y-50000D02*
X56250Y-50250D01*
X56250Y-48000D02*
X56250Y-48750D01*
X56250Y-43750D02*
X56250Y-46000D01*
X56000Y-50250D02*
X56000Y-50500D01*
X56000Y-47750D02*
X56000Y-48500D01*
X56000Y-43750D02*
X56000Y-46250D01*
X55750Y-47750D02*
X55750Y-48500D01*
X55750Y-45000D02*
X55750Y-46250D01*
X55750Y-43750D02*
X55750Y-44250D01*
X55500Y-45500D02*
X55500Y-48250D01*
X55250Y-45500D02*
X55250Y-48500D01*
X55000Y-50250D02*
X55000Y-50500D01*
X55000Y-45750D02*
X55000Y-48500D01*
X54750Y-50000D02*
X54750Y-51250D01*
X54750Y-47500D02*
X54750Y-48750D01*
X54750Y-45750D02*
X54750Y-46500D01*
X54500Y-47750D02*
X54500Y-50500D01*
X54500Y-45500D02*
X54500Y-46250D01*
X54250Y-48000D02*
X54250Y-50250D01*
X54250Y-45500D02*
X54250Y-46000D01*
X54000Y-48000D02*
X54000Y-50250D01*
X54000Y-45000D02*
X54000Y-46000D01*
X54000Y-43750D02*
X54000Y-44250D01*
X53750Y-48000D02*
X53750Y-50500D01*
X53750Y-43750D02*
X53750Y-46000D01*
X53500Y-48000D02*
X53500Y-51000D01*
X53500Y-43750D02*
X53500Y-46000D01*
X53250Y-48000D02*
X53250Y-50750D01*
X53250Y-43750D02*
X53250Y-46000D01*
X53000Y-48000D02*
X53000Y-50750D01*
X53000Y-43750D02*
X53000Y-46000D01*
X52750Y-48000D02*
X52750Y-50500D01*
X52750Y-43750D02*
X52750Y-46000D01*
X52500Y-48000D02*
X52500Y-50500D01*
X52500Y-43750D02*
X52500Y-46000D01*
X52250Y-48000D02*
X52250Y-50500D01*
X52250Y-43750D02*
X52250Y-46000D01*
X52000Y-48000D02*
X52000Y-50500D01*
X52000Y-43750D02*
X52000Y-46000D01*
X51750Y-48000D02*
X51750Y-50250D01*
X51750Y-43750D02*
X51750Y-46000D01*
X51500Y-48000D02*
X51500Y-50500D01*
X51500Y-43750D02*
X51500Y-46000D01*
X51250Y-48000D02*
X51250Y-50500D01*
X51250Y-43750D02*
X51250Y-46000D01*
X51000Y-48000D02*
X51000Y-50500D01*
X51000Y-43750D02*
X51000Y-46000D01*
X50750Y-48000D02*
X50750Y-50250D01*
X50750Y-43750D02*
X50750Y-46000D01*
X50500Y-48000D02*
X50500Y-50500D01*
X50500Y-43750D02*
X50500Y-46000D01*
X50250Y-48000D02*
X50250Y-50250D01*
X50250Y-43750D02*
X50250Y-46000D01*
X50000Y-48000D02*
X50000Y-50250D01*
X50000Y-43750D02*
X50000Y-46000D01*
X49750Y-48000D02*
X49750Y-50250D01*
X49750Y-43750D02*
X49750Y-46000D01*
X49500Y-48000D02*
X49500Y-50250D01*
X49500Y-43750D02*
X49500Y-46000D01*
X49250Y-48000D02*
X49250Y-50250D01*
X49250Y-43750D02*
X49250Y-46000D01*
X49000Y-48000D02*
X49000Y-50250D01*
X49000Y-43750D02*
X49000Y-46000D01*
X48750Y-48000D02*
X48750Y-50250D01*
X48750Y-43750D02*
X48750Y-46000D01*
X48500Y-48000D02*
X48500Y-50500D01*
X48500Y-43750D02*
X48500Y-46000D01*
X48250Y-48000D02*
X48250Y-50250D01*
X48250Y-43750D02*
X48250Y-46000D01*
X48000Y-50000D02*
X48000Y-50250D01*
X48000Y-48000D02*
X48000Y-48750D01*
X48000Y-43750D02*
X48000Y-46000D01*
X47750Y-50250D02*
X47750Y-50500D01*
X47750Y-48000D02*
X47750Y-48500D01*
X47750Y-43750D02*
X47750Y-46000D01*
X47500Y-47750D02*
X47500Y-48500D01*
X47500Y-45000D02*
X47500Y-46250D01*
X47500Y-43750D02*
X47500Y-44250D01*
X47250Y-47500D02*
X47250Y-48250D01*
X47250Y-45500D02*
X47250Y-46500D01*
X47000Y-45500D02*
X47000Y-48500D01*
X46750Y-50250D02*
X46750Y-50500D01*
X46750Y-45750D02*
X46750Y-48500D01*
X46500Y-50000D02*
X46500Y-51250D01*
X46500Y-47500D02*
X46500Y-48750D01*
X46500Y-45750D02*
X46500Y-46500D01*
X46250Y-53500D02*
X46250Y-54000D01*
X46250Y-47750D02*
X46250Y-50500D01*
X46250Y-45500D02*
X46250Y-46250D01*
X46000Y-52750D02*
X46000Y-54750D01*
X46000Y-48000D02*
X46000Y-50250D01*
X46000Y-45500D02*
X46000Y-46000D01*
X45750Y-53000D02*
X45750Y-54750D01*
X45750Y-48000D02*
X45750Y-50250D01*
X45750Y-45000D02*
X45750Y-46000D01*
X45750Y-43750D02*
X45750Y-44250D01*
X45500Y-53000D02*
X45500Y-54750D01*
X45500Y-48000D02*
X45500Y-50500D01*
X45500Y-43750D02*
X45500Y-46000D01*
X45250Y-53250D02*
X45250Y-54750D01*
X45250Y-48000D02*
X45250Y-51000D01*
X45250Y-43750D02*
X45250Y-46000D01*
X45000Y-53500D02*
X45000Y-54750D01*
X45000Y-48000D02*
X45000Y-50750D01*
X45000Y-43750D02*
X45000Y-46000D01*
X44750Y-53500D02*
X44750Y-54750D01*
X44750Y-48000D02*
X44750Y-50750D01*
X44750Y-43750D02*
X44750Y-46000D01*
X44500Y-53500D02*
X44500Y-54750D01*
X44500Y-48000D02*
X44500Y-50500D01*
X44500Y-43750D02*
X44500Y-46000D01*
X44250Y-54000D02*
X44250Y-54750D01*
X44250Y-48000D02*
X44250Y-50500D01*
X44250Y-43750D02*
X44250Y-46000D01*
X44000Y-54000D02*
X44000Y-54750D01*
X44000Y-48000D02*
X44000Y-50500D01*
X44000Y-43750D02*
X44000Y-46000D01*
X43750Y-54250D02*
X43750Y-54750D01*
X43750Y-48000D02*
X43750Y-50500D01*
X43750Y-43750D02*
X43750Y-46000D01*
X43500Y-54250D02*
X43500Y-54750D01*
X43500Y-48000D02*
X43500Y-50250D01*
X43500Y-43750D02*
X43500Y-46000D01*
X43250Y-54500D02*
X43250Y-54750D01*
X43250Y-48000D02*
X43250Y-50500D01*
X43250Y-43750D02*
X43250Y-46000D01*
X43000Y-48000D02*
X43000Y-50500D01*
X43000Y-43750D02*
X43000Y-46000D01*
X42750Y-48000D02*
X42750Y-50500D01*
X42750Y-43750D02*
X42750Y-46000D01*
X42500Y-48000D02*
X42500Y-50250D01*
X42500Y-43750D02*
X42500Y-46000D01*
X42250Y-48000D02*
X42250Y-50500D01*
X42250Y-43750D02*
X42250Y-46000D01*
X42000Y-48000D02*
X42000Y-50250D01*
X42000Y-43750D02*
X42000Y-46000D01*
X41750Y-48000D02*
X41750Y-50250D01*
X41750Y-43750D02*
X41750Y-46000D01*
X41500Y-48000D02*
X41500Y-50250D01*
X41500Y-43750D02*
X41500Y-46000D01*
X41250Y-48000D02*
X41250Y-50250D01*
X41250Y-43750D02*
X41250Y-46000D01*
X41000Y-48000D02*
X41000Y-50250D01*
X41000Y-43750D02*
X41000Y-46000D01*
X40750Y-48000D02*
X40750Y-50250D01*
X40750Y-43750D02*
X40750Y-46000D01*
X40500Y-48000D02*
X40500Y-50250D01*
X40500Y-43750D02*
X40500Y-46000D01*
X40250Y-48000D02*
X40250Y-50500D01*
X40250Y-43750D02*
X40250Y-46000D01*
X40000Y-48000D02*
X40000Y-50250D01*
X40000Y-43750D02*
X40000Y-46000D01*
X39750Y-50000D02*
X39750Y-50250D01*
X39750Y-48000D02*
X39750Y-48750D01*
X39750Y-43750D02*
X39750Y-46000D01*
X39500Y-50250D02*
X39500Y-50500D01*
X39500Y-48000D02*
X39500Y-48500D01*
X39500Y-43750D02*
X39500Y-46000D01*
X39250Y-47750D02*
X39250Y-48500D01*
X39250Y-45000D02*
X39250Y-46250D01*
X39250Y-43750D02*
X39250Y-44250D01*
X39000Y-47500D02*
X39000Y-48250D01*
X39000Y-45500D02*
X39000Y-46500D01*
X38750Y-45500D02*
X38750Y-48500D01*
X38500Y-50250D02*
X38500Y-50500D01*
X38500Y-45750D02*
X38500Y-48500D01*
X38250Y-50000D02*
X38250Y-51250D01*
X38250Y-47750D02*
X38250Y-48750D01*
X38250Y-45750D02*
X38250Y-46250D01*
X38000Y-47750D02*
X38000Y-50500D01*
X38000Y-45500D02*
X38000Y-46250D01*
X37750Y-48000D02*
X37750Y-50250D01*
X37750Y-45500D02*
X37750Y-46000D01*
X37500Y-48000D02*
X37500Y-50250D01*
X37500Y-45000D02*
X37500Y-46000D01*
X37500Y-43750D02*
X37500Y-44250D01*
X37250Y-48000D02*
X37250Y-50500D01*
X37250Y-43750D02*
X37250Y-46000D01*
X37000Y-48000D02*
X37000Y-51000D01*
X37000Y-43750D02*
X37000Y-46000D01*
X36750Y-48000D02*
X36750Y-50750D01*
X36750Y-43750D02*
X36750Y-46000D01*
X36500Y-48000D02*
X36500Y-50750D01*
X36500Y-43750D02*
X36500Y-46000D01*
X36250Y-48000D02*
X36250Y-50500D01*
X36250Y-43750D02*
X36250Y-46000D01*
X36000Y-48000D02*
X36000Y-50500D01*
X36000Y-43750D02*
X36000Y-46000D01*
X35750Y-48000D02*
X35750Y-50500D01*
X35750Y-43750D02*
X35750Y-46000D01*
X35500Y-48000D02*
X35500Y-50500D01*
X35500Y-43750D02*
X35500Y-46000D01*
X35250Y-48000D02*
X35250Y-50250D01*
X35250Y-43750D02*
X35250Y-46000D01*
X35000Y-48000D02*
X35000Y-50500D01*
X35000Y-43750D02*
X35000Y-46000D01*
X34750Y-48000D02*
X34750Y-50500D01*
X34750Y-43750D02*
X34750Y-46000D01*
X34500Y-48000D02*
X34500Y-50500D01*
X34500Y-43750D02*
X34500Y-46000D01*
X34250Y-48000D02*
X34250Y-50250D01*
X34250Y-43750D02*
X34250Y-46000D01*
X34000Y-48000D02*
X34000Y-50500D01*
X34000Y-43750D02*
X34000Y-46000D01*
X33750Y-48000D02*
X33750Y-50250D01*
X33750Y-43750D02*
X33750Y-46000D01*
X33500Y-48000D02*
X33500Y-50250D01*
X33500Y-43750D02*
X33500Y-46000D01*
X33250Y-48000D02*
X33250Y-50250D01*
X33250Y-43750D02*
X33250Y-46000D01*
X33000Y-48000D02*
X33000Y-50250D01*
X33000Y-43750D02*
X33000Y-46000D01*
X32750Y-48000D02*
X32750Y-50250D01*
X32750Y-43750D02*
X32750Y-46000D01*
X32500Y-48000D02*
X32500Y-50250D01*
X32500Y-44250D02*
X32500Y-46000D01*
X32250Y-48000D02*
X32250Y-50250D01*
X32250Y-44500D02*
X32250Y-46000D01*
X32000Y-48000D02*
X32000Y-50500D01*
X32000Y-44500D02*
X32000Y-46000D01*
X31750Y-48000D02*
X31750Y-50250D01*
X31750Y-44250D02*
X31750Y-46000D01*
X31500Y-50000D02*
X31500Y-50250D01*
X31500Y-48000D02*
X31500Y-48750D01*
X31500Y-44500D02*
X31500Y-46000D01*
X31250Y-50250D02*
X31250Y-50500D01*
X31250Y-48000D02*
X31250Y-48500D01*
X31250Y-44500D02*
X31250Y-46000D01*
X31000Y-47750D02*
X31000Y-48500D01*
X31000Y-45000D02*
X31000Y-46250D01*
X30750Y-47250D02*
X30750Y-48250D01*
X30750Y-45500D02*
X30750Y-46750D01*
X30500Y-45500D02*
X30500Y-48500D01*
X30250Y-50250D02*
X30250Y-50500D01*
X30250Y-45750D02*
X30250Y-46000D01*
X30000Y-50000D02*
X30000Y-51250D01*
X30000Y-48500D02*
X30000Y-48750D01*
X30000Y-45750D02*
X30000Y-46000D01*
X29750Y-49000D02*
X29750Y-49750D01*
X29500Y-49250D02*
X29500Y-49500D01*
X29000Y-49250D02*
X29000Y-49500D01*
X28750Y-49000D02*
X28750Y-49750D01*
X28750Y-48000D02*
X28750Y-48500D01*
X28750Y-47000D02*
X28750Y-47500D01*
X28750Y-46000D02*
X28750Y-46500D01*
X28500Y-46250D02*
X28500Y-49750D01*
X28250Y-48500D02*
X28250Y-49000D01*
X28000Y-48500D02*
X28000Y-49000D01*
X27750Y-48500D02*
X27750Y-49000D01*
X27500Y-48500D02*
X27500Y-49250D01*
X27500Y-45500D02*
X27500Y-46000D01*
X27250Y-48250D02*
X27250Y-49000D01*
X27250Y-45000D02*
X27250Y-47000D01*
X27000Y-48250D02*
X27000Y-49000D01*
X27000Y-45500D02*
X27000Y-47250D01*
X26750Y-53250D02*
X26750Y-53500D01*
X26750Y-51000D02*
X26750Y-51250D01*
X26750Y-48250D02*
X26750Y-48500D01*
X26750Y-47000D02*
X26750Y-47250D01*
X26500Y-50750D02*
X26500Y-51000D01*
X26250Y-44250D02*
X26250Y-45000D01*
X26000Y-44000D02*
X26000Y-45000D01*
X25750Y-53250D02*
X25750Y-53500D01*
X25750Y-51000D02*
X25750Y-51250D01*
X25750Y-47000D02*
X25750Y-47500D01*
X25750Y-44000D02*
X25750Y-45000D01*
X25500Y-50750D02*
X25500Y-53500D01*
X25500Y-44000D02*
X25500Y-48000D01*
X25250Y-44000D02*
X25250Y-48250D01*
X25000Y-44000D02*
X25000Y-48500D01*
X24750Y-44500D02*
X24750Y-48500D01*
X24500Y-44500D02*
X24500Y-48500D01*
X24250Y-45000D02*
X24250Y-45250D01*
X24000Y-50500D02*
X24000Y-53500D01*
X23750Y-53000D02*
X23750Y-53500D01*
X23750Y-50500D02*
X23750Y-51000D01*
X23500Y-53250D02*
X23500Y-53500D01*
X23500Y-50500D02*
X23500Y-50750D01*
X23500Y-48000D02*
X23500Y-49000D01*
X23250Y-53250D02*
X23250Y-53750D01*
X23250Y-50250D02*
X23250Y-50750D01*
X23250Y-48000D02*
X23250Y-48750D01*
X23000Y-53250D02*
X23000Y-53750D01*
X23000Y-50250D02*
X23000Y-50750D01*
X23000Y-45750D02*
X23000Y-48500D01*
X22750Y-53000D02*
X22750Y-53750D01*
X22750Y-50500D02*
X22750Y-51000D01*
X22750Y-46750D02*
X22750Y-48500D01*
X22750Y-45750D02*
X22750Y-46000D01*
X22500Y-47000D02*
X22500Y-48250D01*
X22250Y-48250D02*
X22250Y-48500D01*
X59750Y-54750D02*
X63750Y-54750D01*
X43250Y-54750D02*
X46000Y-54750D01*
X59750Y-54500D02*
X63750Y-54500D01*
X43250Y-54500D02*
X46000Y-54500D01*
X60000Y-54250D02*
X63750Y-54250D01*
X43500Y-54250D02*
X46000Y-54250D01*
X60500Y-54000D02*
X63750Y-54000D01*
X44000Y-54000D02*
X46250Y-54000D01*
X61000Y-53750D02*
X63750Y-53750D01*
X44500Y-53750D02*
X46250Y-53750D01*
X22750Y-53750D02*
X23250Y-53750D01*
X61000Y-53500D02*
X63750Y-53500D01*
X44500Y-53500D02*
X46250Y-53500D01*
X25500Y-53500D02*
X26750Y-53500D01*
X22750Y-53500D02*
X24000Y-53500D01*
X61750Y-53250D02*
X63750Y-53250D01*
X45250Y-53250D02*
X46000Y-53250D01*
X25500Y-53250D02*
X25750Y-53250D01*
X22750Y-53250D02*
X24000Y-53250D01*
X62000Y-53000D02*
X63750Y-53000D01*
X45500Y-53000D02*
X46000Y-53000D01*
X23750Y-53000D02*
X24000Y-53000D01*
X62500Y-52750D02*
X63750Y-52750D01*
X62750Y-52500D02*
X63750Y-52500D01*
X63500Y-52250D02*
X63750Y-52250D01*
X25500Y-52250D02*
X25750Y-52250D01*
X63500Y-52000D02*
X63750Y-52000D01*
X23750Y-52000D02*
X24000Y-52000D01*
X63500Y-51750D02*
X63750Y-51750D01*
X24000Y-51750D02*
X25500Y-51750D01*
X63500Y-51500D02*
X63750Y-51500D01*
X63000Y-51250D02*
X63750Y-51250D01*
X25500Y-51250D02*
X25750Y-51250D01*
X63000Y-51000D02*
X63750Y-51000D01*
X25500Y-51000D02*
X26750Y-51000D01*
X23750Y-51000D02*
X24000Y-51000D01*
X22500Y-51000D02*
X22750Y-51000D01*
X63000Y-50750D02*
X63750Y-50750D01*
X61250Y-50750D02*
X61750Y-50750D01*
X53000Y-50750D02*
X53500Y-50750D01*
X44750Y-50750D02*
X45250Y-50750D01*
X36500Y-50750D02*
X37000Y-50750D01*
X29750Y-50750D02*
X30000Y-50750D01*
X22750Y-50750D02*
X24000Y-50750D01*
X62750Y-50500D02*
X63750Y-50500D01*
X60500Y-50500D02*
X62000Y-50500D01*
X59500Y-50500D02*
X59750Y-50500D01*
X55750Y-50500D02*
X56000Y-50500D01*
X54500Y-50500D02*
X55000Y-50500D01*
X52000Y-50500D02*
X53750Y-50500D01*
X51000Y-50500D02*
X51500Y-50500D01*
X47500Y-50500D02*
X47750Y-50500D01*
X46250Y-50500D02*
X46750Y-50500D01*
X43750Y-50500D02*
X45500Y-50500D01*
X42750Y-50500D02*
X43250Y-50500D01*
X39250Y-50500D02*
X39500Y-50500D01*
X38000Y-50500D02*
X38500Y-50500D01*
X35500Y-50500D02*
X37250Y-50500D01*
X34500Y-50500D02*
X35000Y-50500D01*
X31000Y-50500D02*
X31250Y-50500D01*
X30000Y-50500D02*
X30250Y-50500D01*
X22750Y-50500D02*
X24000Y-50500D01*
X56000Y-50250D02*
X63750Y-50250D01*
X47750Y-50250D02*
X55000Y-50250D01*
X39500Y-50250D02*
X46750Y-50250D01*
X31250Y-50250D02*
X38500Y-50250D01*
X30000Y-50250D02*
X30250Y-50250D01*
X23000Y-50250D02*
X23250Y-50250D01*
X56250Y-50000D02*
X63750Y-50000D01*
X48000Y-50000D02*
X54750Y-50000D01*
X39750Y-50000D02*
X46500Y-50000D01*
X31500Y-50000D02*
X38250Y-50000D01*
X56500Y-49750D02*
X63750Y-49750D01*
X48250Y-49750D02*
X54500Y-49750D01*
X40000Y-49750D02*
X46250Y-49750D01*
X31750Y-49750D02*
X38000Y-49750D01*
X28500Y-49750D02*
X28750Y-49750D01*
X56500Y-49500D02*
X63750Y-49500D01*
X48250Y-49500D02*
X54500Y-49500D01*
X40000Y-49500D02*
X46250Y-49500D01*
X31750Y-49500D02*
X38000Y-49500D01*
X28500Y-49500D02*
X29750Y-49500D01*
X56500Y-49250D02*
X63750Y-49250D01*
X48250Y-49250D02*
X54500Y-49250D01*
X40000Y-49250D02*
X46250Y-49250D01*
X31750Y-49250D02*
X38000Y-49250D01*
X29500Y-49250D02*
X29750Y-49250D01*
X28500Y-49250D02*
X29000Y-49250D01*
X56500Y-49000D02*
X63750Y-49000D01*
X48250Y-49000D02*
X54500Y-49000D01*
X40000Y-49000D02*
X46250Y-49000D01*
X31750Y-49000D02*
X38000Y-49000D01*
X26750Y-49000D02*
X28750Y-49000D01*
X56250Y-48750D02*
X63750Y-48750D01*
X48000Y-48750D02*
X54750Y-48750D01*
X39750Y-48750D02*
X46500Y-48750D01*
X31500Y-48750D02*
X38250Y-48750D01*
X27000Y-48750D02*
X28500Y-48750D01*
X23250Y-48750D02*
X23500Y-48750D01*
X55750Y-48500D02*
X63750Y-48500D01*
X47500Y-48500D02*
X55250Y-48500D01*
X39250Y-48500D02*
X47000Y-48500D01*
X31000Y-48500D02*
X38750Y-48500D01*
X29750Y-48500D02*
X30500Y-48500D01*
X26750Y-48500D02*
X28750Y-48500D01*
X24500Y-48500D02*
X25000Y-48500D01*
X22750Y-48500D02*
X23500Y-48500D01*
X22000Y-48500D02*
X22250Y-48500D01*
X30500Y-48250D02*
X63750Y-48250D01*
X28500Y-48250D02*
X29000Y-48250D01*
X26500Y-48250D02*
X27250Y-48250D01*
X24500Y-48250D02*
X25250Y-48250D01*
X22250Y-48250D02*
X23500Y-48250D01*
X30500Y-48000D02*
X63750Y-48000D01*
X28500Y-48000D02*
X28750Y-48000D01*
X24500Y-48000D02*
X25500Y-48000D01*
X22500Y-48000D02*
X23500Y-48000D01*
X62750Y-47750D02*
X63750Y-47750D01*
X54500Y-47750D02*
X56000Y-47750D01*
X46250Y-47750D02*
X47500Y-47750D01*
X38000Y-47750D02*
X39250Y-47750D01*
X30500Y-47750D02*
X31000Y-47750D01*
X24500Y-47750D02*
X25500Y-47750D01*
X22500Y-47750D02*
X23000Y-47750D01*
X63000Y-47500D02*
X63750Y-47500D01*
X54750Y-47500D02*
X55500Y-47500D01*
X46500Y-47500D02*
X47250Y-47500D01*
X38500Y-47500D02*
X39000Y-47500D01*
X30500Y-47500D02*
X30750Y-47500D01*
X28500Y-47500D02*
X28750Y-47500D01*
X24500Y-47500D02*
X25750Y-47500D01*
X22500Y-47500D02*
X23000Y-47500D01*
X63250Y-47250D02*
X63750Y-47250D01*
X55000Y-47250D02*
X55500Y-47250D01*
X46750Y-47250D02*
X47000Y-47250D01*
X38500Y-47250D02*
X38750Y-47250D01*
X30500Y-47250D02*
X30750Y-47250D01*
X28500Y-47250D02*
X29000Y-47250D01*
X26500Y-47250D02*
X27000Y-47250D01*
X24500Y-47250D02*
X26000Y-47250D01*
X22250Y-47250D02*
X23000Y-47250D01*
X63250Y-47000D02*
X63750Y-47000D01*
X55000Y-47000D02*
X55500Y-47000D01*
X46750Y-47000D02*
X47000Y-47000D01*
X38500Y-47000D02*
X38750Y-47000D01*
X28500Y-47000D02*
X28750Y-47000D01*
X26750Y-47000D02*
X27250Y-47000D01*
X24500Y-47000D02*
X25750Y-47000D01*
X22500Y-47000D02*
X23000Y-47000D01*
X63250Y-46750D02*
X63750Y-46750D01*
X55000Y-46750D02*
X55500Y-46750D01*
X46750Y-46750D02*
X47000Y-46750D01*
X38500Y-46750D02*
X38750Y-46750D01*
X30500Y-46750D02*
X30750Y-46750D01*
X27000Y-46750D02*
X27250Y-46750D01*
X24500Y-46750D02*
X25500Y-46750D01*
X22750Y-46750D02*
X23000Y-46750D01*
X63000Y-46500D02*
X63750Y-46500D01*
X54750Y-46500D02*
X55500Y-46500D01*
X46500Y-46500D02*
X47250Y-46500D01*
X38500Y-46500D02*
X39000Y-46500D01*
X30500Y-46500D02*
X30750Y-46500D01*
X28500Y-46500D02*
X28750Y-46500D01*
X26750Y-46500D02*
X27250Y-46500D01*
X24500Y-46500D02*
X25750Y-46500D01*
X62750Y-46250D02*
X63750Y-46250D01*
X54500Y-46250D02*
X56000Y-46250D01*
X46250Y-46250D02*
X47500Y-46250D01*
X38000Y-46250D02*
X39250Y-46250D01*
X30500Y-46250D02*
X31000Y-46250D01*
X28500Y-46250D02*
X29000Y-46250D01*
X27000Y-46250D02*
X27250Y-46250D01*
X24500Y-46250D02*
X25500Y-46250D01*
X30000Y-46000D02*
X63750Y-46000D01*
X27000Y-46000D02*
X27500Y-46000D01*
X24500Y-46000D02*
X25500Y-46000D01*
X22750Y-46000D02*
X23000Y-46000D01*
X30000Y-45750D02*
X63750Y-45750D01*
X27000Y-45750D02*
X27750Y-45750D01*
X24500Y-45750D02*
X25500Y-45750D01*
X22500Y-45750D02*
X23000Y-45750D01*
X63500Y-45500D02*
X63750Y-45500D01*
X55250Y-45500D02*
X62750Y-45500D01*
X47000Y-45500D02*
X54500Y-45500D01*
X38750Y-45500D02*
X46250Y-45500D01*
X30500Y-45500D02*
X38000Y-45500D01*
X27000Y-45500D02*
X27500Y-45500D01*
X24500Y-45500D02*
X25500Y-45500D01*
X55750Y-45250D02*
X62250Y-45250D01*
X47500Y-45250D02*
X54000Y-45250D01*
X39250Y-45250D02*
X45750Y-45250D01*
X31000Y-45250D02*
X37500Y-45250D01*
X24250Y-45250D02*
X25500Y-45250D01*
X55750Y-45000D02*
X62250Y-45000D01*
X47500Y-45000D02*
X54000Y-45000D01*
X39250Y-45000D02*
X45750Y-45000D01*
X31000Y-45000D02*
X37500Y-45000D01*
X24250Y-45000D02*
X26250Y-45000D01*
X56000Y-44750D02*
X62000Y-44750D01*
X47750Y-44750D02*
X53750Y-44750D01*
X39500Y-44750D02*
X45500Y-44750D01*
X31250Y-44750D02*
X37250Y-44750D01*
X24500Y-44750D02*
X26250Y-44750D01*
X56000Y-44500D02*
X62000Y-44500D01*
X47750Y-44500D02*
X53750Y-44500D01*
X39500Y-44500D02*
X45500Y-44500D01*
X31250Y-44500D02*
X37250Y-44500D01*
X24500Y-44500D02*
X26250Y-44500D01*
X55750Y-44250D02*
X62250Y-44250D01*
X47500Y-44250D02*
X54000Y-44250D01*
X39250Y-44250D02*
X45750Y-44250D01*
X32500Y-44250D02*
X37500Y-44250D01*
X25000Y-44250D02*
X26250Y-44250D01*
X55750Y-44000D02*
X62250Y-44000D01*
X47500Y-44000D02*
X54000Y-44000D01*
X39250Y-44000D02*
X45750Y-44000D01*
X32750Y-44000D02*
X37500Y-44000D01*
X25000Y-44000D02*
X26000Y-44000D01*
X55250Y-43750D02*
X62750Y-43750D01*
X47000Y-43750D02*
X54500Y-43750D01*
X38750Y-43750D02*
X46250Y-43750D01*
X32750Y-43750D02*
X38000Y-43750D01*
G54D32*
X27800Y-47900D02*
X27800Y-48400D01*
X27800Y-47900D02*
X28425Y-47900D01*
X26250Y-48750D02*
X26925Y-48750D01*
X59100Y-51050D02*
X59100Y-50350D01*
X49875Y-51050D02*
X49875Y-50375D01*
X58175Y-51050D02*
X58175Y-50375D01*
X55400Y-51000D02*
X54700Y-51000D01*
X28000Y-45000D02*
X27300Y-45000D01*
X28000Y-45000D02*
X27300Y-45000D01*
X22875Y-45000D02*
X22875Y-45675D01*
X23250Y-51500D02*
X23250Y-50800D01*
X23250Y-51500D02*
X23950Y-51500D01*
X26250Y-52750D02*
X26250Y-53450D01*
X26250Y-52750D02*
X25550Y-52750D01*
X26750Y-52625D02*
X26750Y-53200D01*
X47100Y-51000D02*
X46400Y-51000D01*
X21750Y-45740D02*
X22500Y-45740D01*
X34300Y-51050D02*
X34300Y-50350D01*
X42550Y-51050D02*
X42550Y-50350D01*
X41625Y-51050D02*
X41625Y-50375D01*
X30700Y-51000D02*
X30000Y-51000D01*
X38850Y-51000D02*
X38150Y-51000D01*
X33425Y-51050D02*
X33425Y-50375D01*
X50800Y-51050D02*
X50800Y-50350D01*
X29250Y-50250D02*
X29250Y-49550D01*
X29250Y-50250D02*
X29950Y-50250D01*
X28750Y-50375D02*
X28750Y-49800D01*
X61202Y-52905D02*
X61573Y-53499D01*
X52952Y-52905D02*
X53323Y-53499D01*
X23750Y-46250D02*
X23050Y-46250D01*
X23750Y-46250D02*
X24450Y-46250D01*
X23750Y-45750D02*
X23050Y-45750D01*
X23750Y-45750D02*
X24450Y-45750D01*
G54D33*
X63750Y-45500D02*
X63750Y-54750D01*
X63500Y-45500D02*
X63500Y-54750D01*
X63250Y-52500D02*
X63250Y-54750D01*
X63250Y-45750D02*
X63250Y-51250D01*
X63000Y-52500D02*
X63000Y-54750D01*
X63000Y-47500D02*
X63000Y-51250D01*
X63000Y-45750D02*
X63000Y-46500D01*
X62750Y-52500D02*
X62750Y-54750D01*
X62750Y-47750D02*
X62750Y-50500D01*
X62750Y-45500D02*
X62750Y-46250D01*
X62500Y-52750D02*
X62500Y-54750D01*
X62500Y-48000D02*
X62500Y-50250D01*
X62500Y-45500D02*
X62500Y-46000D01*
X62250Y-53000D02*
X62250Y-54750D01*
X62250Y-48000D02*
X62250Y-50250D01*
X62250Y-45000D02*
X62250Y-46000D01*
X62250Y-43750D02*
X62250Y-44250D01*
X62000Y-53000D02*
X62000Y-54750D01*
X62000Y-48000D02*
X62000Y-50500D01*
X62000Y-43750D02*
X62000Y-46000D01*
X61750Y-53250D02*
X61750Y-54750D01*
X61750Y-48000D02*
X61750Y-51000D01*
X61750Y-43750D02*
X61750Y-46000D01*
X61500Y-53500D02*
X61500Y-54750D01*
X61500Y-48000D02*
X61500Y-50750D01*
X61500Y-43750D02*
X61500Y-46000D01*
X61250Y-53500D02*
X61250Y-54750D01*
X61250Y-48000D02*
X61250Y-50750D01*
X61250Y-43750D02*
X61250Y-46000D01*
X61000Y-53500D02*
X61000Y-54750D01*
X61000Y-48000D02*
X61000Y-50500D01*
X61000Y-43750D02*
X61000Y-46000D01*
X60750Y-54000D02*
X60750Y-54750D01*
X60750Y-48000D02*
X60750Y-50500D01*
X60750Y-43750D02*
X60750Y-46000D01*
X60500Y-54000D02*
X60500Y-54750D01*
X60500Y-48000D02*
X60500Y-50500D01*
X60500Y-43750D02*
X60500Y-46000D01*
X60250Y-54250D02*
X60250Y-54750D01*
X60250Y-48000D02*
X60250Y-50250D01*
X60250Y-43750D02*
X60250Y-46000D01*
X60000Y-54250D02*
X60000Y-54750D01*
X60000Y-48000D02*
X60000Y-50250D01*
X60000Y-43750D02*
X60000Y-46000D01*
X59750Y-54500D02*
X59750Y-54750D01*
X59750Y-48000D02*
X59750Y-50500D01*
X59750Y-43750D02*
X59750Y-46000D01*
X59500Y-48000D02*
X59500Y-50500D01*
X59500Y-43750D02*
X59500Y-46000D01*
X59250Y-48000D02*
X59250Y-50250D01*
X59250Y-43750D02*
X59250Y-46000D01*
X59000Y-48000D02*
X59000Y-50250D01*
X59000Y-43750D02*
X59000Y-46000D01*
X58750Y-48000D02*
X58750Y-50500D01*
X58750Y-43750D02*
X58750Y-46000D01*
X58500Y-48000D02*
X58500Y-50250D01*
X58500Y-43750D02*
X58500Y-46000D01*
X58250Y-48000D02*
X58250Y-50250D01*
X58250Y-43750D02*
X58250Y-46000D01*
X58000Y-48000D02*
X58000Y-50250D01*
X58000Y-43750D02*
X58000Y-46000D01*
X57750Y-48000D02*
X57750Y-50250D01*
X57750Y-43750D02*
X57750Y-46000D01*
X57500Y-48000D02*
X57500Y-50250D01*
X57500Y-43750D02*
X57500Y-46000D01*
X57250Y-48000D02*
X57250Y-50250D01*
X57250Y-43750D02*
X57250Y-46000D01*
X57000Y-48000D02*
X57000Y-50250D01*
X57000Y-43750D02*
X57000Y-46000D01*
X56750Y-48000D02*
X56750Y-50500D01*
X56750Y-43750D02*
X56750Y-46000D01*
X56500Y-48000D02*
X56500Y-50250D01*
X56500Y-43750D02*
X56500Y-46000D01*
X56250Y-50000D02*
X56250Y-50250D01*
X56250Y-48000D02*
X56250Y-48750D01*
X56250Y-43750D02*
X56250Y-46000D01*
X56000Y-50250D02*
X56000Y-50500D01*
X56000Y-47750D02*
X56000Y-48500D01*
X56000Y-43750D02*
X56000Y-46250D01*
X55750Y-47750D02*
X55750Y-48500D01*
X55750Y-45000D02*
X55750Y-46250D01*
X55750Y-43750D02*
X55750Y-44250D01*
X55500Y-45500D02*
X55500Y-48250D01*
X55250Y-45500D02*
X55250Y-48500D01*
X55000Y-50250D02*
X55000Y-50500D01*
X55000Y-45750D02*
X55000Y-48500D01*
X54750Y-50000D02*
X54750Y-51250D01*
X54750Y-47500D02*
X54750Y-48750D01*
X54750Y-45750D02*
X54750Y-46500D01*
X54500Y-53500D02*
X54500Y-54000D01*
X54500Y-47750D02*
X54500Y-50500D01*
X54500Y-45500D02*
X54500Y-46250D01*
X54250Y-52750D02*
X54250Y-54750D01*
X54250Y-48000D02*
X54250Y-50250D01*
X54250Y-45500D02*
X54250Y-46000D01*
X54000Y-53000D02*
X54000Y-54750D01*
X54000Y-48000D02*
X54000Y-50250D01*
X54000Y-45000D02*
X54000Y-46000D01*
X54000Y-43750D02*
X54000Y-44250D01*
X53750Y-53000D02*
X53750Y-54750D01*
X53750Y-48000D02*
X53750Y-50500D01*
X53750Y-43750D02*
X53750Y-46000D01*
X53500Y-53250D02*
X53500Y-54750D01*
X53500Y-48000D02*
X53500Y-51000D01*
X53500Y-43750D02*
X53500Y-46000D01*
X53250Y-53500D02*
X53250Y-54750D01*
X53250Y-48000D02*
X53250Y-50750D01*
X53250Y-43750D02*
X53250Y-46000D01*
X53000Y-53500D02*
X53000Y-54750D01*
X53000Y-48000D02*
X53000Y-50750D01*
X53000Y-43750D02*
X53000Y-46000D01*
X52750Y-53500D02*
X52750Y-54750D01*
X52750Y-48000D02*
X52750Y-50500D01*
X52750Y-43750D02*
X52750Y-46000D01*
X52500Y-54000D02*
X52500Y-54750D01*
X52500Y-48000D02*
X52500Y-50500D01*
X52500Y-43750D02*
X52500Y-46000D01*
X52250Y-54000D02*
X52250Y-54750D01*
X52250Y-48000D02*
X52250Y-50500D01*
X52250Y-43750D02*
X52250Y-46000D01*
X52000Y-54250D02*
X52000Y-54750D01*
X52000Y-48000D02*
X52000Y-50500D01*
X52000Y-43750D02*
X52000Y-46000D01*
X51750Y-54250D02*
X51750Y-54750D01*
X51750Y-48000D02*
X51750Y-50250D01*
X51750Y-43750D02*
X51750Y-46000D01*
X51500Y-54500D02*
X51500Y-54750D01*
X51500Y-48000D02*
X51500Y-50500D01*
X51500Y-43750D02*
X51500Y-46000D01*
X51250Y-48000D02*
X51250Y-50500D01*
X51250Y-43750D02*
X51250Y-46000D01*
X51000Y-48000D02*
X51000Y-50500D01*
X51000Y-43750D02*
X51000Y-46000D01*
X50750Y-48000D02*
X50750Y-50250D01*
X50750Y-43750D02*
X50750Y-46000D01*
X50500Y-48000D02*
X50500Y-50500D01*
X50500Y-43750D02*
X50500Y-46000D01*
X50250Y-48000D02*
X50250Y-50250D01*
X50250Y-43750D02*
X50250Y-46000D01*
X50000Y-48000D02*
X50000Y-50250D01*
X50000Y-43750D02*
X50000Y-46000D01*
X49750Y-48000D02*
X49750Y-50250D01*
X49750Y-43750D02*
X49750Y-46000D01*
X49500Y-48000D02*
X49500Y-50250D01*
X49500Y-43750D02*
X49500Y-46000D01*
X49250Y-48000D02*
X49250Y-50250D01*
X49250Y-43750D02*
X49250Y-46000D01*
X49000Y-48000D02*
X49000Y-50250D01*
X49000Y-43750D02*
X49000Y-46000D01*
X48750Y-48000D02*
X48750Y-50250D01*
X48750Y-43750D02*
X48750Y-46000D01*
X48500Y-48000D02*
X48500Y-50500D01*
X48500Y-43750D02*
X48500Y-46000D01*
X48250Y-48000D02*
X48250Y-50250D01*
X48250Y-43750D02*
X48250Y-46000D01*
X48000Y-50000D02*
X48000Y-50250D01*
X48000Y-48000D02*
X48000Y-48750D01*
X48000Y-43750D02*
X48000Y-46000D01*
X47750Y-50250D02*
X47750Y-50500D01*
X47750Y-48000D02*
X47750Y-48500D01*
X47750Y-43750D02*
X47750Y-46000D01*
X47500Y-47750D02*
X47500Y-48500D01*
X47500Y-45000D02*
X47500Y-46250D01*
X47500Y-43750D02*
X47500Y-44250D01*
X47250Y-47500D02*
X47250Y-48250D01*
X47250Y-45500D02*
X47250Y-46500D01*
X47000Y-45500D02*
X47000Y-48500D01*
X46750Y-50250D02*
X46750Y-50500D01*
X46750Y-45750D02*
X46750Y-48500D01*
X46500Y-50000D02*
X46500Y-51250D01*
X46500Y-47500D02*
X46500Y-48750D01*
X46500Y-45750D02*
X46500Y-46500D01*
X46250Y-47750D02*
X46250Y-50500D01*
X46250Y-45500D02*
X46250Y-46250D01*
X46000Y-48000D02*
X46000Y-50250D01*
X46000Y-45500D02*
X46000Y-46000D01*
X45750Y-48000D02*
X45750Y-50250D01*
X45750Y-45000D02*
X45750Y-46000D01*
X45750Y-43750D02*
X45750Y-44250D01*
X45500Y-48000D02*
X45500Y-50500D01*
X45500Y-43750D02*
X45500Y-46000D01*
X45250Y-48000D02*
X45250Y-51000D01*
X45250Y-43750D02*
X45250Y-46000D01*
X45000Y-48000D02*
X45000Y-50750D01*
X45000Y-43750D02*
X45000Y-46000D01*
X44750Y-48000D02*
X44750Y-50750D01*
X44750Y-43750D02*
X44750Y-46000D01*
X44500Y-48000D02*
X44500Y-50500D01*
X44500Y-43750D02*
X44500Y-46000D01*
X44250Y-48000D02*
X44250Y-50500D01*
X44250Y-43750D02*
X44250Y-46000D01*
X44000Y-48000D02*
X44000Y-50500D01*
X44000Y-43750D02*
X44000Y-46000D01*
X43750Y-48000D02*
X43750Y-50500D01*
X43750Y-43750D02*
X43750Y-46000D01*
X43500Y-48000D02*
X43500Y-50250D01*
X43500Y-43750D02*
X43500Y-46000D01*
X43250Y-48000D02*
X43250Y-50500D01*
X43250Y-43750D02*
X43250Y-46000D01*
X43000Y-48000D02*
X43000Y-50500D01*
X43000Y-43750D02*
X43000Y-46000D01*
X42750Y-48000D02*
X42750Y-50500D01*
X42750Y-43750D02*
X42750Y-46000D01*
X42500Y-48000D02*
X42500Y-50250D01*
X42500Y-43750D02*
X42500Y-46000D01*
X42250Y-48000D02*
X42250Y-50500D01*
X42250Y-43750D02*
X42250Y-46000D01*
X42000Y-48000D02*
X42000Y-50250D01*
X42000Y-43750D02*
X42000Y-46000D01*
X41750Y-48000D02*
X41750Y-50250D01*
X41750Y-43750D02*
X41750Y-46000D01*
X41500Y-48000D02*
X41500Y-50250D01*
X41500Y-43750D02*
X41500Y-46000D01*
X41250Y-48000D02*
X41250Y-50250D01*
X41250Y-43750D02*
X41250Y-46000D01*
X41000Y-48000D02*
X41000Y-50250D01*
X41000Y-43750D02*
X41000Y-46000D01*
X40750Y-48000D02*
X40750Y-50250D01*
X40750Y-43750D02*
X40750Y-46000D01*
X40500Y-48000D02*
X40500Y-50250D01*
X40500Y-43750D02*
X40500Y-46000D01*
X40250Y-48000D02*
X40250Y-50500D01*
X40250Y-43750D02*
X40250Y-46000D01*
X40000Y-48000D02*
X40000Y-50250D01*
X40000Y-43750D02*
X40000Y-46000D01*
X39750Y-50000D02*
X39750Y-50250D01*
X39750Y-48000D02*
X39750Y-48750D01*
X39750Y-43750D02*
X39750Y-46000D01*
X39500Y-50250D02*
X39500Y-50500D01*
X39500Y-48000D02*
X39500Y-48500D01*
X39500Y-43750D02*
X39500Y-46000D01*
X39250Y-47750D02*
X39250Y-48500D01*
X39250Y-45000D02*
X39250Y-46250D01*
X39250Y-43750D02*
X39250Y-44250D01*
X39000Y-47500D02*
X39000Y-48250D01*
X39000Y-45500D02*
X39000Y-46500D01*
X38750Y-45500D02*
X38750Y-48500D01*
X38500Y-50250D02*
X38500Y-50500D01*
X38500Y-45750D02*
X38500Y-48500D01*
X38250Y-50000D02*
X38250Y-51250D01*
X38250Y-47750D02*
X38250Y-48750D01*
X38250Y-45750D02*
X38250Y-46250D01*
X38000Y-47750D02*
X38000Y-50500D01*
X38000Y-45500D02*
X38000Y-46250D01*
X37750Y-48000D02*
X37750Y-50250D01*
X37750Y-45500D02*
X37750Y-46000D01*
X37500Y-48000D02*
X37500Y-50250D01*
X37500Y-45000D02*
X37500Y-46000D01*
X37500Y-43750D02*
X37500Y-44250D01*
X37250Y-48000D02*
X37250Y-50500D01*
X37250Y-43750D02*
X37250Y-46000D01*
X37000Y-48000D02*
X37000Y-51000D01*
X37000Y-43750D02*
X37000Y-46000D01*
X36750Y-48000D02*
X36750Y-50750D01*
X36750Y-43750D02*
X36750Y-46000D01*
X36500Y-48000D02*
X36500Y-50750D01*
X36500Y-43750D02*
X36500Y-46000D01*
X36250Y-48000D02*
X36250Y-50500D01*
X36250Y-43750D02*
X36250Y-46000D01*
X36000Y-48000D02*
X36000Y-50500D01*
X36000Y-43750D02*
X36000Y-46000D01*
X35750Y-48000D02*
X35750Y-50500D01*
X35750Y-43750D02*
X35750Y-46000D01*
X35500Y-48000D02*
X35500Y-50500D01*
X35500Y-43750D02*
X35500Y-46000D01*
X35250Y-48000D02*
X35250Y-50250D01*
X35250Y-43750D02*
X35250Y-46000D01*
X35000Y-48000D02*
X35000Y-50500D01*
X35000Y-43750D02*
X35000Y-46000D01*
X34750Y-48000D02*
X34750Y-50500D01*
X34750Y-43750D02*
X34750Y-46000D01*
X34500Y-48000D02*
X34500Y-50500D01*
X34500Y-43750D02*
X34500Y-46000D01*
X34250Y-48000D02*
X34250Y-50250D01*
X34250Y-43750D02*
X34250Y-46000D01*
X34000Y-48000D02*
X34000Y-50500D01*
X34000Y-43750D02*
X34000Y-46000D01*
X33750Y-48000D02*
X33750Y-50250D01*
X33750Y-43750D02*
X33750Y-46000D01*
X33500Y-48000D02*
X33500Y-50250D01*
X33500Y-43750D02*
X33500Y-46000D01*
X33250Y-48000D02*
X33250Y-50250D01*
X33250Y-43750D02*
X33250Y-46000D01*
X33000Y-48000D02*
X33000Y-50250D01*
X33000Y-43750D02*
X33000Y-46000D01*
X32750Y-48000D02*
X32750Y-50250D01*
X32750Y-43750D02*
X32750Y-46000D01*
X32500Y-48000D02*
X32500Y-50250D01*
X32500Y-44250D02*
X32500Y-46000D01*
X32250Y-48000D02*
X32250Y-50250D01*
X32250Y-44500D02*
X32250Y-46000D01*
X32000Y-48000D02*
X32000Y-50500D01*
X32000Y-44500D02*
X32000Y-46000D01*
X31750Y-48000D02*
X31750Y-50250D01*
X31750Y-44250D02*
X31750Y-46000D01*
X31500Y-50000D02*
X31500Y-50250D01*
X31500Y-48000D02*
X31500Y-48750D01*
X31500Y-44500D02*
X31500Y-46000D01*
X31250Y-50250D02*
X31250Y-50500D01*
X31250Y-48000D02*
X31250Y-48500D01*
X31250Y-44500D02*
X31250Y-46000D01*
X31000Y-47750D02*
X31000Y-48500D01*
X31000Y-45000D02*
X31000Y-46250D01*
X30750Y-47250D02*
X30750Y-48250D01*
X30750Y-45500D02*
X30750Y-46750D01*
X30500Y-45500D02*
X30500Y-48500D01*
X30250Y-50250D02*
X30250Y-50500D01*
X30250Y-45750D02*
X30250Y-46000D01*
X30000Y-50000D02*
X30000Y-51250D01*
X30000Y-48500D02*
X30000Y-48750D01*
X30000Y-45750D02*
X30000Y-46000D01*
X29750Y-49000D02*
X29750Y-49750D01*
X29500Y-49250D02*
X29500Y-49500D01*
X29000Y-49250D02*
X29000Y-49500D01*
X28750Y-49000D02*
X28750Y-49750D01*
X28750Y-48000D02*
X28750Y-48500D01*
X28750Y-47000D02*
X28750Y-47500D01*
X28750Y-46000D02*
X28750Y-46500D01*
X28500Y-46250D02*
X28500Y-49750D01*
X28250Y-48500D02*
X28250Y-49000D01*
X28000Y-48500D02*
X28000Y-49000D01*
X27750Y-48500D02*
X27750Y-49000D01*
X27500Y-48500D02*
X27500Y-49250D01*
X27500Y-45500D02*
X27500Y-46000D01*
X27250Y-48250D02*
X27250Y-49000D01*
X27250Y-45000D02*
X27250Y-47000D01*
X27000Y-48250D02*
X27000Y-49000D01*
X27000Y-45500D02*
X27000Y-47250D01*
X26750Y-53250D02*
X26750Y-53500D01*
X26750Y-51000D02*
X26750Y-51250D01*
X26750Y-48250D02*
X26750Y-48500D01*
X26750Y-47000D02*
X26750Y-47250D01*
X26500Y-50750D02*
X26500Y-51000D01*
X26250Y-44250D02*
X26250Y-45000D01*
X26000Y-44000D02*
X26000Y-45000D01*
X25750Y-53250D02*
X25750Y-53500D01*
X25750Y-51000D02*
X25750Y-51250D01*
X25750Y-47000D02*
X25750Y-47500D01*
X25750Y-44000D02*
X25750Y-45000D01*
X25500Y-50750D02*
X25500Y-53500D01*
X25500Y-44000D02*
X25500Y-48000D01*
X25250Y-44000D02*
X25250Y-48250D01*
X25000Y-44000D02*
X25000Y-48500D01*
X24750Y-44500D02*
X24750Y-48500D01*
X24500Y-44500D02*
X24500Y-48500D01*
X24250Y-45000D02*
X24250Y-45250D01*
X24000Y-50500D02*
X24000Y-53500D01*
X23750Y-53000D02*
X23750Y-53500D01*
X23750Y-50500D02*
X23750Y-51000D01*
X23500Y-53250D02*
X23500Y-53500D01*
X23500Y-50500D02*
X23500Y-50750D01*
X23500Y-48000D02*
X23500Y-49000D01*
X23250Y-53250D02*
X23250Y-53750D01*
X23250Y-50250D02*
X23250Y-50750D01*
X23250Y-48000D02*
X23250Y-48750D01*
X23000Y-53250D02*
X23000Y-53750D01*
X23000Y-50250D02*
X23000Y-50750D01*
X23000Y-45750D02*
X23000Y-48500D01*
X22750Y-53000D02*
X22750Y-53750D01*
X22750Y-50500D02*
X22750Y-51000D01*
X22750Y-46750D02*
X22750Y-48500D01*
X22750Y-45750D02*
X22750Y-46000D01*
X22500Y-47000D02*
X22500Y-48250D01*
X22250Y-48250D02*
X22250Y-48500D01*
X59750Y-54750D02*
X63750Y-54750D01*
X51500Y-54750D02*
X54250Y-54750D01*
X59750Y-54500D02*
X63750Y-54500D01*
X51500Y-54500D02*
X54250Y-54500D01*
X60000Y-54250D02*
X63750Y-54250D01*
X51750Y-54250D02*
X54250Y-54250D01*
X60500Y-54000D02*
X63750Y-54000D01*
X52250Y-54000D02*
X54500Y-54000D01*
X61000Y-53750D02*
X63750Y-53750D01*
X52750Y-53750D02*
X54500Y-53750D01*
X22750Y-53750D02*
X23250Y-53750D01*
X61000Y-53500D02*
X63750Y-53500D01*
X52750Y-53500D02*
X54500Y-53500D01*
X25500Y-53500D02*
X26750Y-53500D01*
X22750Y-53500D02*
X24000Y-53500D01*
X61750Y-53250D02*
X63750Y-53250D01*
X53500Y-53250D02*
X54250Y-53250D01*
X25500Y-53250D02*
X25750Y-53250D01*
X22750Y-53250D02*
X24000Y-53250D01*
X62000Y-53000D02*
X63750Y-53000D01*
X53750Y-53000D02*
X54250Y-53000D01*
X23750Y-53000D02*
X24000Y-53000D01*
X62500Y-52750D02*
X63750Y-52750D01*
X62750Y-52500D02*
X63750Y-52500D01*
X63500Y-52250D02*
X63750Y-52250D01*
X25500Y-52250D02*
X25750Y-52250D01*
X63500Y-52000D02*
X63750Y-52000D01*
X23750Y-52000D02*
X24000Y-52000D01*
X63500Y-51750D02*
X63750Y-51750D01*
X24000Y-51750D02*
X25500Y-51750D01*
X63500Y-51500D02*
X63750Y-51500D01*
X63000Y-51250D02*
X63750Y-51250D01*
X25500Y-51250D02*
X25750Y-51250D01*
X63000Y-51000D02*
X63750Y-51000D01*
X25500Y-51000D02*
X26750Y-51000D01*
X23750Y-51000D02*
X24000Y-51000D01*
X22500Y-51000D02*
X22750Y-51000D01*
X63000Y-50750D02*
X63750Y-50750D01*
X61250Y-50750D02*
X61750Y-50750D01*
X53000Y-50750D02*
X53500Y-50750D01*
X44750Y-50750D02*
X45250Y-50750D01*
X36500Y-50750D02*
X37000Y-50750D01*
X29750Y-50750D02*
X30000Y-50750D01*
X22750Y-50750D02*
X24000Y-50750D01*
X62750Y-50500D02*
X63750Y-50500D01*
X60500Y-50500D02*
X62000Y-50500D01*
X59500Y-50500D02*
X59750Y-50500D01*
X55750Y-50500D02*
X56000Y-50500D01*
X54500Y-50500D02*
X55000Y-50500D01*
X52000Y-50500D02*
X53750Y-50500D01*
X51000Y-50500D02*
X51500Y-50500D01*
X47500Y-50500D02*
X47750Y-50500D01*
X46250Y-50500D02*
X46750Y-50500D01*
X43750Y-50500D02*
X45500Y-50500D01*
X42750Y-50500D02*
X43250Y-50500D01*
X39250Y-50500D02*
X39500Y-50500D01*
X38000Y-50500D02*
X38500Y-50500D01*
X35500Y-50500D02*
X37250Y-50500D01*
X34500Y-50500D02*
X35000Y-50500D01*
X31000Y-50500D02*
X31250Y-50500D01*
X30000Y-50500D02*
X30250Y-50500D01*
X22750Y-50500D02*
X24000Y-50500D01*
X56000Y-50250D02*
X63750Y-50250D01*
X47750Y-50250D02*
X55000Y-50250D01*
X39500Y-50250D02*
X46750Y-50250D01*
X31250Y-50250D02*
X38500Y-50250D01*
X30000Y-50250D02*
X30250Y-50250D01*
X23000Y-50250D02*
X23250Y-50250D01*
X56250Y-50000D02*
X63750Y-50000D01*
X48000Y-50000D02*
X54750Y-50000D01*
X39750Y-50000D02*
X46500Y-50000D01*
X31500Y-50000D02*
X38250Y-50000D01*
X56500Y-49750D02*
X63750Y-49750D01*
X48250Y-49750D02*
X54500Y-49750D01*
X40000Y-49750D02*
X46250Y-49750D01*
X31750Y-49750D02*
X38000Y-49750D01*
X28500Y-49750D02*
X28750Y-49750D01*
X56500Y-49500D02*
X63750Y-49500D01*
X48250Y-49500D02*
X54500Y-49500D01*
X40000Y-49500D02*
X46250Y-49500D01*
X31750Y-49500D02*
X38000Y-49500D01*
X28500Y-49500D02*
X29750Y-49500D01*
X56500Y-49250D02*
X63750Y-49250D01*
X48250Y-49250D02*
X54500Y-49250D01*
X40000Y-49250D02*
X46250Y-49250D01*
X31750Y-49250D02*
X38000Y-49250D01*
X29500Y-49250D02*
X29750Y-49250D01*
X28500Y-49250D02*
X29000Y-49250D01*
X56500Y-49000D02*
X63750Y-49000D01*
X48250Y-49000D02*
X54500Y-49000D01*
X40000Y-49000D02*
X46250Y-49000D01*
X31750Y-49000D02*
X38000Y-49000D01*
X26750Y-49000D02*
X28750Y-49000D01*
X56250Y-48750D02*
X63750Y-48750D01*
X48000Y-48750D02*
X54750Y-48750D01*
X39750Y-48750D02*
X46500Y-48750D01*
X31500Y-48750D02*
X38250Y-48750D01*
X27000Y-48750D02*
X28500Y-48750D01*
X23250Y-48750D02*
X23500Y-48750D01*
X55750Y-48500D02*
X63750Y-48500D01*
X47500Y-48500D02*
X55250Y-48500D01*
X39250Y-48500D02*
X47000Y-48500D01*
X31000Y-48500D02*
X38750Y-48500D01*
X29750Y-48500D02*
X30500Y-48500D01*
X26750Y-48500D02*
X28750Y-48500D01*
X24500Y-48500D02*
X25000Y-48500D01*
X22750Y-48500D02*
X23500Y-48500D01*
X22000Y-48500D02*
X22250Y-48500D01*
X30500Y-48250D02*
X63750Y-48250D01*
X28500Y-48250D02*
X29000Y-48250D01*
X26500Y-48250D02*
X27250Y-48250D01*
X24500Y-48250D02*
X25250Y-48250D01*
X22250Y-48250D02*
X23500Y-48250D01*
X30500Y-48000D02*
X63750Y-48000D01*
X28500Y-48000D02*
X28750Y-48000D01*
X24500Y-48000D02*
X25500Y-48000D01*
X22500Y-48000D02*
X23500Y-48000D01*
X62750Y-47750D02*
X63750Y-47750D01*
X54500Y-47750D02*
X56000Y-47750D01*
X46250Y-47750D02*
X47500Y-47750D01*
X38000Y-47750D02*
X39250Y-47750D01*
X30500Y-47750D02*
X31000Y-47750D01*
X24500Y-47750D02*
X25500Y-47750D01*
X22500Y-47750D02*
X23000Y-47750D01*
X63000Y-47500D02*
X63750Y-47500D01*
X54750Y-47500D02*
X55500Y-47500D01*
X46500Y-47500D02*
X47250Y-47500D01*
X38500Y-47500D02*
X39000Y-47500D01*
X30500Y-47500D02*
X30750Y-47500D01*
X28500Y-47500D02*
X28750Y-47500D01*
X24500Y-47500D02*
X25750Y-47500D01*
X22500Y-47500D02*
X23000Y-47500D01*
X63250Y-47250D02*
X63750Y-47250D01*
X55000Y-47250D02*
X55500Y-47250D01*
X46750Y-47250D02*
X47000Y-47250D01*
X38500Y-47250D02*
X38750Y-47250D01*
X30500Y-47250D02*
X30750Y-47250D01*
X28500Y-47250D02*
X29000Y-47250D01*
X26500Y-47250D02*
X27000Y-47250D01*
X24500Y-47250D02*
X26000Y-47250D01*
X22250Y-47250D02*
X23000Y-47250D01*
X63250Y-47000D02*
X63750Y-47000D01*
X55000Y-47000D02*
X55500Y-47000D01*
X46750Y-47000D02*
X47000Y-47000D01*
X38500Y-47000D02*
X38750Y-47000D01*
X28500Y-47000D02*
X28750Y-47000D01*
X26750Y-47000D02*
X27250Y-47000D01*
X24500Y-47000D02*
X25750Y-47000D01*
X22500Y-47000D02*
X23000Y-47000D01*
X63250Y-46750D02*
X63750Y-46750D01*
X55000Y-46750D02*
X55500Y-46750D01*
X46750Y-46750D02*
X47000Y-46750D01*
X38500Y-46750D02*
X38750Y-46750D01*
X30500Y-46750D02*
X30750Y-46750D01*
X27000Y-46750D02*
X27250Y-46750D01*
X24500Y-46750D02*
X25500Y-46750D01*
X22750Y-46750D02*
X23000Y-46750D01*
X63000Y-46500D02*
X63750Y-46500D01*
X54750Y-46500D02*
X55500Y-46500D01*
X46500Y-46500D02*
X47250Y-46500D01*
X38500Y-46500D02*
X39000Y-46500D01*
X30500Y-46500D02*
X30750Y-46500D01*
X28500Y-46500D02*
X28750Y-46500D01*
X26750Y-46500D02*
X27250Y-46500D01*
X24500Y-46500D02*
X25750Y-46500D01*
X62750Y-46250D02*
X63750Y-46250D01*
X54500Y-46250D02*
X56000Y-46250D01*
X46250Y-46250D02*
X47500Y-46250D01*
X38000Y-46250D02*
X39250Y-46250D01*
X30500Y-46250D02*
X31000Y-46250D01*
X28500Y-46250D02*
X29000Y-46250D01*
X27000Y-46250D02*
X27250Y-46250D01*
X24500Y-46250D02*
X25500Y-46250D01*
X30000Y-46000D02*
X63750Y-46000D01*
X27000Y-46000D02*
X27500Y-46000D01*
X24500Y-46000D02*
X25500Y-46000D01*
X22750Y-46000D02*
X23000Y-46000D01*
X30000Y-45750D02*
X63750Y-45750D01*
X27000Y-45750D02*
X27750Y-45750D01*
X24500Y-45750D02*
X25500Y-45750D01*
X22500Y-45750D02*
X23000Y-45750D01*
X63500Y-45500D02*
X63750Y-45500D01*
X55250Y-45500D02*
X62750Y-45500D01*
X47000Y-45500D02*
X54500Y-45500D01*
X38750Y-45500D02*
X46250Y-45500D01*
X30500Y-45500D02*
X38000Y-45500D01*
X27000Y-45500D02*
X27500Y-45500D01*
X24500Y-45500D02*
X25500Y-45500D01*
X55750Y-45250D02*
X62250Y-45250D01*
X47500Y-45250D02*
X54000Y-45250D01*
X39250Y-45250D02*
X45750Y-45250D01*
X31000Y-45250D02*
X37500Y-45250D01*
X24250Y-45250D02*
X25500Y-45250D01*
X55750Y-45000D02*
X62250Y-45000D01*
X47500Y-45000D02*
X54000Y-45000D01*
X39250Y-45000D02*
X45750Y-45000D01*
X31000Y-45000D02*
X37500Y-45000D01*
X24250Y-45000D02*
X26250Y-45000D01*
X56000Y-44750D02*
X62000Y-44750D01*
X47750Y-44750D02*
X53750Y-44750D01*
X39500Y-44750D02*
X45500Y-44750D01*
X31250Y-44750D02*
X37250Y-44750D01*
X24500Y-44750D02*
X26250Y-44750D01*
X56000Y-44500D02*
X62000Y-44500D01*
X47750Y-44500D02*
X53750Y-44500D01*
X39500Y-44500D02*
X45500Y-44500D01*
X31250Y-44500D02*
X37250Y-44500D01*
X24500Y-44500D02*
X26250Y-44500D01*
X55750Y-44250D02*
X62250Y-44250D01*
X47500Y-44250D02*
X54000Y-44250D01*
X39250Y-44250D02*
X45750Y-44250D01*
X32500Y-44250D02*
X37500Y-44250D01*
X25000Y-44250D02*
X26250Y-44250D01*
X55750Y-44000D02*
X62250Y-44000D01*
X47500Y-44000D02*
X54000Y-44000D01*
X39250Y-44000D02*
X45750Y-44000D01*
X32750Y-44000D02*
X37500Y-44000D01*
X25000Y-44000D02*
X26000Y-44000D01*
X55250Y-43750D02*
X62750Y-43750D01*
X47000Y-43750D02*
X54500Y-43750D01*
X38750Y-43750D02*
X46250Y-43750D01*
X32750Y-43750D02*
X38000Y-43750D01*
G54D32*
X27800Y-47900D02*
X27800Y-48400D01*
X27800Y-47900D02*
X28425Y-47900D01*
X26250Y-48750D02*
X26925Y-48750D01*
X59100Y-51050D02*
X59100Y-50350D01*
X49875Y-51050D02*
X49875Y-50375D01*
X58175Y-51050D02*
X58175Y-50375D01*
X55400Y-51000D02*
X54700Y-51000D01*
X28000Y-45000D02*
X27300Y-45000D01*
X28000Y-45000D02*
X27300Y-45000D01*
X22875Y-45000D02*
X22875Y-45675D01*
X23250Y-51500D02*
X23250Y-50800D01*
X23250Y-51500D02*
X23950Y-51500D01*
X26250Y-52750D02*
X26250Y-53450D01*
X26250Y-52750D02*
X25550Y-52750D01*
X26750Y-52625D02*
X26750Y-53200D01*
X47100Y-51000D02*
X46400Y-51000D01*
X21750Y-45740D02*
X22500Y-45740D01*
X34300Y-51050D02*
X34300Y-50350D01*
X42550Y-51050D02*
X42550Y-50350D01*
X41625Y-51050D02*
X41625Y-50375D01*
X30700Y-51000D02*
X30000Y-51000D01*
X38850Y-51000D02*
X38150Y-51000D01*
X33425Y-51050D02*
X33425Y-50375D01*
X50800Y-51050D02*
X50800Y-50350D01*
X29250Y-50250D02*
X29250Y-49550D01*
X29250Y-50250D02*
X29950Y-50250D01*
X28750Y-50375D02*
X28750Y-49800D01*
X61202Y-52905D02*
X61573Y-53499D01*
X23750Y-46250D02*
X23050Y-46250D01*
X23750Y-46250D02*
X24450Y-46250D01*
X23750Y-45750D02*
X23050Y-45750D01*
X23750Y-45750D02*
X24450Y-45750D01*
G54D33*
X63750Y-45500D02*
X63750Y-54750D01*
X63500Y-45500D02*
X63500Y-54750D01*
X63250Y-52500D02*
X63250Y-54750D01*
X63250Y-45750D02*
X63250Y-51250D01*
X63000Y-52500D02*
X63000Y-54750D01*
X63000Y-47500D02*
X63000Y-51250D01*
X63000Y-45750D02*
X63000Y-46500D01*
X62750Y-52500D02*
X62750Y-54750D01*
X62750Y-47750D02*
X62750Y-50500D01*
X62750Y-45500D02*
X62750Y-46250D01*
X62500Y-52750D02*
X62500Y-54750D01*
X62500Y-48000D02*
X62500Y-50250D01*
X62500Y-45500D02*
X62500Y-46000D01*
X62250Y-53000D02*
X62250Y-54750D01*
X62250Y-48000D02*
X62250Y-50250D01*
X62250Y-45000D02*
X62250Y-46000D01*
X62250Y-43750D02*
X62250Y-44250D01*
X62000Y-53000D02*
X62000Y-54750D01*
X62000Y-48000D02*
X62000Y-50500D01*
X62000Y-43750D02*
X62000Y-46000D01*
X61750Y-53250D02*
X61750Y-54750D01*
X61750Y-48000D02*
X61750Y-51000D01*
X61750Y-43750D02*
X61750Y-46000D01*
X61500Y-53500D02*
X61500Y-54750D01*
X61500Y-48000D02*
X61500Y-50750D01*
X61500Y-43750D02*
X61500Y-46000D01*
X61250Y-53500D02*
X61250Y-54750D01*
X61250Y-48000D02*
X61250Y-50750D01*
X61250Y-43750D02*
X61250Y-46000D01*
X61000Y-53500D02*
X61000Y-54750D01*
X61000Y-48000D02*
X61000Y-50500D01*
X61000Y-43750D02*
X61000Y-46000D01*
X60750Y-54000D02*
X60750Y-54750D01*
X60750Y-48000D02*
X60750Y-50500D01*
X60750Y-43750D02*
X60750Y-46000D01*
X60500Y-54000D02*
X60500Y-54750D01*
X60500Y-48000D02*
X60500Y-50500D01*
X60500Y-43750D02*
X60500Y-46000D01*
X60250Y-54250D02*
X60250Y-54750D01*
X60250Y-48000D02*
X60250Y-50250D01*
X60250Y-43750D02*
X60250Y-46000D01*
X60000Y-54250D02*
X60000Y-54750D01*
X60000Y-48000D02*
X60000Y-50250D01*
X60000Y-43750D02*
X60000Y-46000D01*
X59750Y-54500D02*
X59750Y-54750D01*
X59750Y-48000D02*
X59750Y-50500D01*
X59750Y-43750D02*
X59750Y-46000D01*
X59500Y-48000D02*
X59500Y-50500D01*
X59500Y-43750D02*
X59500Y-46000D01*
X59250Y-48000D02*
X59250Y-50250D01*
X59250Y-43750D02*
X59250Y-46000D01*
X59000Y-48000D02*
X59000Y-50250D01*
X59000Y-43750D02*
X59000Y-46000D01*
X58750Y-48000D02*
X58750Y-50500D01*
X58750Y-43750D02*
X58750Y-46000D01*
X58500Y-48000D02*
X58500Y-50250D01*
X58500Y-43750D02*
X58500Y-46000D01*
X58250Y-48000D02*
X58250Y-50250D01*
X58250Y-43750D02*
X58250Y-46000D01*
X58000Y-48000D02*
X58000Y-50250D01*
X58000Y-43750D02*
X58000Y-46000D01*
X57750Y-48000D02*
X57750Y-50250D01*
X57750Y-43750D02*
X57750Y-46000D01*
X57500Y-48000D02*
X57500Y-50250D01*
X57500Y-43750D02*
X57500Y-46000D01*
X57250Y-48000D02*
X57250Y-50250D01*
X57250Y-43750D02*
X57250Y-46000D01*
X57000Y-48000D02*
X57000Y-50250D01*
X57000Y-43750D02*
X57000Y-46000D01*
X56750Y-48000D02*
X56750Y-50500D01*
X56750Y-43750D02*
X56750Y-46000D01*
X56500Y-48000D02*
X56500Y-50250D01*
X56500Y-43750D02*
X56500Y-46000D01*
X56250Y-50000D02*
X56250Y-50250D01*
X56250Y-48000D02*
X56250Y-48750D01*
X56250Y-43750D02*
X56250Y-46000D01*
X56000Y-50250D02*
X56000Y-50500D01*
X56000Y-47750D02*
X56000Y-48500D01*
X56000Y-43750D02*
X56000Y-46250D01*
X55750Y-47750D02*
X55750Y-48500D01*
X55750Y-45000D02*
X55750Y-46250D01*
X55750Y-43750D02*
X55750Y-44250D01*
X55500Y-45500D02*
X55500Y-48250D01*
X55250Y-45500D02*
X55250Y-48500D01*
X55000Y-50250D02*
X55000Y-50500D01*
X55000Y-45750D02*
X55000Y-48500D01*
X54750Y-50000D02*
X54750Y-51250D01*
X54750Y-47500D02*
X54750Y-48750D01*
X54750Y-45750D02*
X54750Y-46500D01*
X54500Y-47750D02*
X54500Y-50500D01*
X54500Y-45500D02*
X54500Y-46250D01*
X54250Y-48000D02*
X54250Y-50250D01*
X54250Y-45500D02*
X54250Y-46000D01*
X54000Y-48000D02*
X54000Y-50250D01*
X54000Y-45000D02*
X54000Y-46000D01*
X54000Y-43750D02*
X54000Y-44250D01*
X53750Y-48000D02*
X53750Y-50500D01*
X53750Y-43750D02*
X53750Y-46000D01*
X53500Y-48000D02*
X53500Y-51000D01*
X53500Y-43750D02*
X53500Y-46000D01*
X53250Y-48000D02*
X53250Y-50750D01*
X53250Y-43750D02*
X53250Y-46000D01*
X53000Y-48000D02*
X53000Y-50750D01*
X53000Y-43750D02*
X53000Y-46000D01*
X52750Y-48000D02*
X52750Y-50500D01*
X52750Y-43750D02*
X52750Y-46000D01*
X52500Y-48000D02*
X52500Y-50500D01*
X52500Y-43750D02*
X52500Y-46000D01*
X52250Y-48000D02*
X52250Y-50500D01*
X52250Y-43750D02*
X52250Y-46000D01*
X52000Y-48000D02*
X52000Y-50500D01*
X52000Y-43750D02*
X52000Y-46000D01*
X51750Y-48000D02*
X51750Y-50250D01*
X51750Y-43750D02*
X51750Y-46000D01*
X51500Y-48000D02*
X51500Y-50500D01*
X51500Y-43750D02*
X51500Y-46000D01*
X51250Y-48000D02*
X51250Y-50500D01*
X51250Y-43750D02*
X51250Y-46000D01*
X51000Y-48000D02*
X51000Y-50500D01*
X51000Y-43750D02*
X51000Y-46000D01*
X50750Y-48000D02*
X50750Y-50250D01*
X50750Y-43750D02*
X50750Y-46000D01*
X50500Y-48000D02*
X50500Y-50500D01*
X50500Y-43750D02*
X50500Y-46000D01*
X50250Y-48000D02*
X50250Y-50250D01*
X50250Y-43750D02*
X50250Y-46000D01*
X50000Y-48000D02*
X50000Y-50250D01*
X50000Y-43750D02*
X50000Y-46000D01*
X49750Y-48000D02*
X49750Y-50250D01*
X49750Y-43750D02*
X49750Y-46000D01*
X49500Y-48000D02*
X49500Y-50250D01*
X49500Y-43750D02*
X49500Y-46000D01*
X49250Y-48000D02*
X49250Y-50250D01*
X49250Y-43750D02*
X49250Y-46000D01*
X49000Y-48000D02*
X49000Y-50250D01*
X49000Y-43750D02*
X49000Y-46000D01*
X48750Y-48000D02*
X48750Y-50250D01*
X48750Y-43750D02*
X48750Y-46000D01*
X48500Y-48000D02*
X48500Y-50500D01*
X48500Y-43750D02*
X48500Y-46000D01*
X48250Y-48000D02*
X48250Y-50250D01*
X48250Y-43750D02*
X48250Y-46000D01*
X48000Y-50000D02*
X48000Y-50250D01*
X48000Y-48000D02*
X48000Y-48750D01*
X48000Y-43750D02*
X48000Y-46000D01*
X47750Y-50250D02*
X47750Y-50500D01*
X47750Y-48000D02*
X47750Y-48500D01*
X47750Y-43750D02*
X47750Y-46000D01*
X47500Y-47750D02*
X47500Y-48500D01*
X47500Y-45000D02*
X47500Y-46250D01*
X47500Y-43750D02*
X47500Y-44250D01*
X47250Y-47500D02*
X47250Y-48250D01*
X47250Y-45500D02*
X47250Y-46500D01*
X47000Y-45500D02*
X47000Y-48500D01*
X46750Y-50250D02*
X46750Y-50500D01*
X46750Y-45750D02*
X46750Y-48500D01*
X46500Y-50000D02*
X46500Y-51250D01*
X46500Y-47500D02*
X46500Y-48750D01*
X46500Y-45750D02*
X46500Y-46500D01*
X46250Y-47750D02*
X46250Y-50500D01*
X46250Y-45500D02*
X46250Y-46250D01*
X46000Y-48000D02*
X46000Y-50250D01*
X46000Y-45500D02*
X46000Y-46000D01*
X45750Y-48000D02*
X45750Y-50250D01*
X45750Y-45000D02*
X45750Y-46000D01*
X45750Y-43750D02*
X45750Y-44250D01*
X45500Y-48000D02*
X45500Y-50500D01*
X45500Y-43750D02*
X45500Y-46000D01*
X45250Y-48000D02*
X45250Y-51000D01*
X45250Y-43750D02*
X45250Y-46000D01*
X45000Y-48000D02*
X45000Y-50750D01*
X45000Y-43750D02*
X45000Y-46000D01*
X44750Y-48000D02*
X44750Y-50750D01*
X44750Y-43750D02*
X44750Y-46000D01*
X44500Y-48000D02*
X44500Y-50500D01*
X44500Y-43750D02*
X44500Y-46000D01*
X44250Y-48000D02*
X44250Y-50500D01*
X44250Y-43750D02*
X44250Y-46000D01*
X44000Y-48000D02*
X44000Y-50500D01*
X44000Y-43750D02*
X44000Y-46000D01*
X43750Y-48000D02*
X43750Y-50500D01*
X43750Y-43750D02*
X43750Y-46000D01*
X43500Y-48000D02*
X43500Y-50250D01*
X43500Y-43750D02*
X43500Y-46000D01*
X43250Y-48000D02*
X43250Y-50500D01*
X43250Y-43750D02*
X43250Y-46000D01*
X43000Y-48000D02*
X43000Y-50500D01*
X43000Y-43750D02*
X43000Y-46000D01*
X42750Y-48000D02*
X42750Y-50500D01*
X42750Y-43750D02*
X42750Y-46000D01*
X42500Y-48000D02*
X42500Y-50250D01*
X42500Y-43750D02*
X42500Y-46000D01*
X42250Y-48000D02*
X42250Y-50500D01*
X42250Y-43750D02*
X42250Y-46000D01*
X42000Y-48000D02*
X42000Y-50250D01*
X42000Y-43750D02*
X42000Y-46000D01*
X41750Y-48000D02*
X41750Y-50250D01*
X41750Y-43750D02*
X41750Y-46000D01*
X41500Y-48000D02*
X41500Y-50250D01*
X41500Y-43750D02*
X41500Y-46000D01*
X41250Y-48000D02*
X41250Y-50250D01*
X41250Y-43750D02*
X41250Y-46000D01*
X41000Y-48000D02*
X41000Y-50250D01*
X41000Y-43750D02*
X41000Y-46000D01*
X40750Y-48000D02*
X40750Y-50250D01*
X40750Y-43750D02*
X40750Y-46000D01*
X40500Y-48000D02*
X40500Y-50250D01*
X40500Y-43750D02*
X40500Y-46000D01*
X40250Y-48000D02*
X40250Y-50500D01*
X40250Y-43750D02*
X40250Y-46000D01*
X40000Y-48000D02*
X40000Y-50250D01*
X40000Y-43750D02*
X40000Y-46000D01*
X39750Y-50000D02*
X39750Y-50250D01*
X39750Y-48000D02*
X39750Y-48750D01*
X39750Y-43750D02*
X39750Y-46000D01*
X39500Y-50250D02*
X39500Y-50500D01*
X39500Y-48000D02*
X39500Y-48500D01*
X39500Y-43750D02*
X39500Y-46000D01*
X39250Y-47750D02*
X39250Y-48500D01*
X39250Y-45000D02*
X39250Y-46250D01*
X39250Y-43750D02*
X39250Y-44250D01*
X39000Y-47500D02*
X39000Y-48250D01*
X39000Y-45500D02*
X39000Y-46500D01*
X38750Y-45500D02*
X38750Y-48500D01*
X38500Y-50250D02*
X38500Y-50500D01*
X38500Y-45750D02*
X38500Y-48500D01*
X38250Y-50000D02*
X38250Y-51250D01*
X38250Y-47750D02*
X38250Y-48750D01*
X38250Y-45750D02*
X38250Y-46250D01*
X38000Y-47750D02*
X38000Y-50500D01*
X38000Y-45500D02*
X38000Y-46250D01*
X37750Y-48000D02*
X37750Y-50250D01*
X37750Y-45500D02*
X37750Y-46000D01*
X37500Y-48000D02*
X37500Y-50250D01*
X37500Y-45000D02*
X37500Y-46000D01*
X37500Y-43750D02*
X37500Y-44250D01*
X37250Y-48000D02*
X37250Y-50500D01*
X37250Y-43750D02*
X37250Y-46000D01*
X37000Y-48000D02*
X37000Y-51000D01*
X37000Y-43750D02*
X37000Y-46000D01*
X36750Y-48000D02*
X36750Y-50750D01*
X36750Y-43750D02*
X36750Y-46000D01*
X36500Y-48000D02*
X36500Y-50750D01*
X36500Y-43750D02*
X36500Y-46000D01*
X36250Y-48000D02*
X36250Y-50500D01*
X36250Y-43750D02*
X36250Y-46000D01*
X36000Y-48000D02*
X36000Y-50500D01*
X36000Y-43750D02*
X36000Y-46000D01*
X35750Y-48000D02*
X35750Y-50500D01*
X35750Y-43750D02*
X35750Y-46000D01*
X35500Y-48000D02*
X35500Y-50500D01*
X35500Y-43750D02*
X35500Y-46000D01*
X35250Y-48000D02*
X35250Y-50250D01*
X35250Y-43750D02*
X35250Y-46000D01*
X35000Y-48000D02*
X35000Y-50500D01*
X35000Y-43750D02*
X35000Y-46000D01*
X34750Y-48000D02*
X34750Y-50500D01*
X34750Y-43750D02*
X34750Y-46000D01*
X34500Y-48000D02*
X34500Y-50500D01*
X34500Y-43750D02*
X34500Y-46000D01*
X34250Y-48000D02*
X34250Y-50250D01*
X34250Y-43750D02*
X34250Y-46000D01*
X34000Y-48000D02*
X34000Y-50500D01*
X34000Y-43750D02*
X34000Y-46000D01*
X33750Y-48000D02*
X33750Y-50250D01*
X33750Y-43750D02*
X33750Y-46000D01*
X33500Y-48000D02*
X33500Y-50250D01*
X33500Y-43750D02*
X33500Y-46000D01*
X33250Y-48000D02*
X33250Y-50250D01*
X33250Y-43750D02*
X33250Y-46000D01*
X33000Y-48000D02*
X33000Y-50250D01*
X33000Y-43750D02*
X33000Y-46000D01*
X32750Y-48000D02*
X32750Y-50250D01*
X32750Y-43750D02*
X32750Y-46000D01*
X32500Y-48000D02*
X32500Y-50250D01*
X32500Y-44250D02*
X32500Y-46000D01*
X32250Y-48000D02*
X32250Y-50250D01*
X32250Y-44500D02*
X32250Y-46000D01*
X32000Y-48000D02*
X32000Y-50500D01*
X32000Y-44500D02*
X32000Y-46000D01*
X31750Y-48000D02*
X31750Y-50250D01*
X31750Y-44250D02*
X31750Y-46000D01*
X31500Y-50000D02*
X31500Y-50250D01*
X31500Y-48000D02*
X31500Y-48750D01*
X31500Y-44500D02*
X31500Y-46000D01*
X31250Y-50250D02*
X31250Y-50500D01*
X31250Y-48000D02*
X31250Y-48500D01*
X31250Y-44500D02*
X31250Y-46000D01*
X31000Y-47750D02*
X31000Y-48500D01*
X31000Y-45000D02*
X31000Y-46250D01*
X30750Y-47250D02*
X30750Y-48250D01*
X30750Y-45500D02*
X30750Y-46750D01*
X30500Y-45500D02*
X30500Y-48500D01*
X30250Y-50250D02*
X30250Y-50500D01*
X30250Y-45750D02*
X30250Y-46000D01*
X30000Y-50000D02*
X30000Y-51250D01*
X30000Y-48500D02*
X30000Y-48750D01*
X30000Y-45750D02*
X30000Y-46000D01*
X29750Y-49000D02*
X29750Y-49750D01*
X29500Y-49250D02*
X29500Y-49500D01*
X29000Y-49250D02*
X29000Y-49500D01*
X28750Y-49000D02*
X28750Y-49750D01*
X28750Y-48000D02*
X28750Y-48500D01*
X28750Y-47000D02*
X28750Y-47500D01*
X28750Y-46000D02*
X28750Y-46500D01*
X28500Y-46250D02*
X28500Y-49750D01*
X28250Y-48500D02*
X28250Y-49000D01*
X28000Y-48500D02*
X28000Y-49000D01*
X27750Y-48500D02*
X27750Y-49000D01*
X27500Y-48500D02*
X27500Y-49250D01*
X27500Y-45500D02*
X27500Y-46000D01*
X27250Y-48250D02*
X27250Y-49000D01*
X27250Y-45000D02*
X27250Y-47000D01*
X27000Y-48250D02*
X27000Y-49000D01*
X27000Y-45500D02*
X27000Y-47250D01*
X26750Y-53250D02*
X26750Y-53500D01*
X26750Y-51000D02*
X26750Y-51250D01*
X26750Y-48250D02*
X26750Y-48500D01*
X26750Y-47000D02*
X26750Y-47250D01*
X26500Y-50750D02*
X26500Y-51000D01*
X26250Y-44250D02*
X26250Y-45000D01*
X26000Y-44000D02*
X26000Y-45000D01*
X25750Y-53250D02*
X25750Y-53500D01*
X25750Y-51000D02*
X25750Y-51250D01*
X25750Y-47000D02*
X25750Y-47500D01*
X25750Y-44000D02*
X25750Y-45000D01*
X25500Y-50750D02*
X25500Y-53500D01*
X25500Y-44000D02*
X25500Y-48000D01*
X25250Y-44000D02*
X25250Y-48250D01*
X25000Y-44000D02*
X25000Y-48500D01*
X24750Y-44500D02*
X24750Y-48500D01*
X24500Y-44500D02*
X24500Y-48500D01*
X24250Y-45000D02*
X24250Y-45250D01*
X24000Y-50500D02*
X24000Y-53500D01*
X23750Y-53000D02*
X23750Y-53500D01*
X23750Y-50500D02*
X23750Y-51000D01*
X23500Y-53250D02*
X23500Y-53500D01*
X23500Y-50500D02*
X23500Y-50750D01*
X23500Y-48000D02*
X23500Y-49000D01*
X23250Y-53250D02*
X23250Y-53750D01*
X23250Y-50250D02*
X23250Y-50750D01*
X23250Y-48000D02*
X23250Y-48750D01*
X23000Y-53250D02*
X23000Y-53750D01*
X23000Y-50250D02*
X23000Y-50750D01*
X23000Y-45750D02*
X23000Y-48500D01*
X22750Y-53000D02*
X22750Y-53750D01*
X22750Y-50500D02*
X22750Y-51000D01*
X22750Y-46750D02*
X22750Y-48500D01*
X22750Y-45750D02*
X22750Y-46000D01*
X22500Y-47000D02*
X22500Y-48250D01*
X22250Y-48250D02*
X22250Y-48500D01*
X59750Y-54750D02*
X63750Y-54750D01*
X59750Y-54500D02*
X63750Y-54500D01*
X60000Y-54250D02*
X63750Y-54250D01*
X60500Y-54000D02*
X63750Y-54000D01*
X61000Y-53750D02*
X63750Y-53750D01*
X22750Y-53750D02*
X23250Y-53750D01*
X61000Y-53500D02*
X63750Y-53500D01*
X25500Y-53500D02*
X26750Y-53500D01*
X22750Y-53500D02*
X24000Y-53500D01*
X61750Y-53250D02*
X63750Y-53250D01*
X25500Y-53250D02*
X25750Y-53250D01*
X22750Y-53250D02*
X24000Y-53250D01*
X62000Y-53000D02*
X63750Y-53000D01*
X23750Y-53000D02*
X24000Y-53000D01*
X62500Y-52750D02*
X63750Y-52750D01*
X62750Y-52500D02*
X63750Y-52500D01*
X63500Y-52250D02*
X63750Y-52250D01*
X25500Y-52250D02*
X25750Y-52250D01*
X63500Y-52000D02*
X63750Y-52000D01*
X23750Y-52000D02*
X24000Y-52000D01*
X63500Y-51750D02*
X63750Y-51750D01*
X24000Y-51750D02*
X25500Y-51750D01*
X63500Y-51500D02*
X63750Y-51500D01*
X63000Y-51250D02*
X63750Y-51250D01*
X25500Y-51250D02*
X25750Y-51250D01*
X63000Y-51000D02*
X63750Y-51000D01*
X25500Y-51000D02*
X26750Y-51000D01*
X23750Y-51000D02*
X24000Y-51000D01*
X22500Y-51000D02*
X22750Y-51000D01*
X63000Y-50750D02*
X63750Y-50750D01*
X61250Y-50750D02*
X61750Y-50750D01*
X53000Y-50750D02*
X53500Y-50750D01*
X44750Y-50750D02*
X45250Y-50750D01*
X36500Y-50750D02*
X37000Y-50750D01*
X29750Y-50750D02*
X30000Y-50750D01*
X22750Y-50750D02*
X24000Y-50750D01*
X62750Y-50500D02*
X63750Y-50500D01*
X60500Y-50500D02*
X62000Y-50500D01*
X59500Y-50500D02*
X59750Y-50500D01*
X55750Y-50500D02*
X56000Y-50500D01*
X54500Y-50500D02*
X55000Y-50500D01*
X52000Y-50500D02*
X53750Y-50500D01*
X51000Y-50500D02*
X51500Y-50500D01*
X47500Y-50500D02*
X47750Y-50500D01*
X46250Y-50500D02*
X46750Y-50500D01*
X43750Y-50500D02*
X45500Y-50500D01*
X42750Y-50500D02*
X43250Y-50500D01*
X39250Y-50500D02*
X39500Y-50500D01*
X38000Y-50500D02*
X38500Y-50500D01*
X35500Y-50500D02*
X37250Y-50500D01*
X34500Y-50500D02*
X35000Y-50500D01*
X31000Y-50500D02*
X31250Y-50500D01*
X30000Y-50500D02*
X30250Y-50500D01*
X22750Y-50500D02*
X24000Y-50500D01*
X56000Y-50250D02*
X63750Y-50250D01*
X47750Y-50250D02*
X55000Y-50250D01*
X39500Y-50250D02*
X46750Y-50250D01*
X31250Y-50250D02*
X38500Y-50250D01*
X30000Y-50250D02*
X30250Y-50250D01*
X23000Y-50250D02*
X23250Y-50250D01*
X56250Y-50000D02*
X63750Y-50000D01*
X48000Y-50000D02*
X54750Y-50000D01*
X39750Y-50000D02*
X46500Y-50000D01*
X31500Y-50000D02*
X38250Y-50000D01*
X56500Y-49750D02*
X63750Y-49750D01*
X48250Y-49750D02*
X54500Y-49750D01*
X40000Y-49750D02*
X46250Y-49750D01*
X31750Y-49750D02*
X38000Y-49750D01*
X28500Y-49750D02*
X28750Y-49750D01*
X56500Y-49500D02*
X63750Y-49500D01*
X48250Y-49500D02*
X54500Y-49500D01*
X40000Y-49500D02*
X46250Y-49500D01*
X31750Y-49500D02*
X38000Y-49500D01*
X28500Y-49500D02*
X29750Y-49500D01*
X56500Y-49250D02*
X63750Y-49250D01*
X48250Y-49250D02*
X54500Y-49250D01*
X40000Y-49250D02*
X46250Y-49250D01*
X31750Y-49250D02*
X38000Y-49250D01*
X29500Y-49250D02*
X29750Y-49250D01*
X28500Y-49250D02*
X29000Y-49250D01*
X56500Y-49000D02*
X63750Y-49000D01*
X48250Y-49000D02*
X54500Y-49000D01*
X40000Y-49000D02*
X46250Y-49000D01*
X31750Y-49000D02*
X38000Y-49000D01*
X26750Y-49000D02*
X28750Y-49000D01*
X56250Y-48750D02*
X63750Y-48750D01*
X48000Y-48750D02*
X54750Y-48750D01*
X39750Y-48750D02*
X46500Y-48750D01*
X31500Y-48750D02*
X38250Y-48750D01*
X27000Y-48750D02*
X28500Y-48750D01*
X23250Y-48750D02*
X23500Y-48750D01*
X55750Y-48500D02*
X63750Y-48500D01*
X47500Y-48500D02*
X55250Y-48500D01*
X39250Y-48500D02*
X47000Y-48500D01*
X31000Y-48500D02*
X38750Y-48500D01*
X29750Y-48500D02*
X30500Y-48500D01*
X26750Y-48500D02*
X28750Y-48500D01*
X24500Y-48500D02*
X25000Y-48500D01*
X22750Y-48500D02*
X23500Y-48500D01*
X22000Y-48500D02*
X22250Y-48500D01*
X30500Y-48250D02*
X63750Y-48250D01*
X28500Y-48250D02*
X29000Y-48250D01*
X26500Y-48250D02*
X27250Y-48250D01*
X24500Y-48250D02*
X25250Y-48250D01*
X22250Y-48250D02*
X23500Y-48250D01*
X30500Y-48000D02*
X63750Y-48000D01*
X28500Y-48000D02*
X28750Y-48000D01*
X24500Y-48000D02*
X25500Y-48000D01*
X22500Y-48000D02*
X23500Y-48000D01*
X62750Y-47750D02*
X63750Y-47750D01*
X54500Y-47750D02*
X56000Y-47750D01*
X46250Y-47750D02*
X47500Y-47750D01*
X38000Y-47750D02*
X39250Y-47750D01*
X30500Y-47750D02*
X31000Y-47750D01*
X24500Y-47750D02*
X25500Y-47750D01*
X22500Y-47750D02*
X23000Y-47750D01*
X63000Y-47500D02*
X63750Y-47500D01*
X54750Y-47500D02*
X55500Y-47500D01*
X46500Y-47500D02*
X47250Y-47500D01*
X38500Y-47500D02*
X39000Y-47500D01*
X30500Y-47500D02*
X30750Y-47500D01*
X28500Y-47500D02*
X28750Y-47500D01*
X24500Y-47500D02*
X25750Y-47500D01*
X22500Y-47500D02*
X23000Y-47500D01*
X63250Y-47250D02*
X63750Y-47250D01*
X55000Y-47250D02*
X55500Y-47250D01*
X46750Y-47250D02*
X47000Y-47250D01*
X38500Y-47250D02*
X38750Y-47250D01*
X30500Y-47250D02*
X30750Y-47250D01*
X28500Y-47250D02*
X29000Y-47250D01*
X26500Y-47250D02*
X27000Y-47250D01*
X24500Y-47250D02*
X26000Y-47250D01*
X22250Y-47250D02*
X23000Y-47250D01*
X63250Y-47000D02*
X63750Y-47000D01*
X55000Y-47000D02*
X55500Y-47000D01*
X46750Y-47000D02*
X47000Y-47000D01*
X38500Y-47000D02*
X38750Y-47000D01*
X28500Y-47000D02*
X28750Y-47000D01*
X26750Y-47000D02*
X27250Y-47000D01*
X24500Y-47000D02*
X25750Y-47000D01*
X22500Y-47000D02*
X23000Y-47000D01*
X63250Y-46750D02*
X63750Y-46750D01*
X55000Y-46750D02*
X55500Y-46750D01*
X46750Y-46750D02*
X47000Y-46750D01*
X38500Y-46750D02*
X38750Y-46750D01*
X30500Y-46750D02*
X30750Y-46750D01*
X27000Y-46750D02*
X27250Y-46750D01*
X24500Y-46750D02*
X25500Y-46750D01*
X22750Y-46750D02*
X23000Y-46750D01*
X63000Y-46500D02*
X63750Y-46500D01*
X54750Y-46500D02*
X55500Y-46500D01*
X46500Y-46500D02*
X47250Y-46500D01*
X38500Y-46500D02*
X39000Y-46500D01*
X30500Y-46500D02*
X30750Y-46500D01*
X28500Y-46500D02*
X28750Y-46500D01*
X26750Y-46500D02*
X27250Y-46500D01*
X24500Y-46500D02*
X25750Y-46500D01*
X62750Y-46250D02*
X63750Y-46250D01*
X54500Y-46250D02*
X56000Y-46250D01*
X46250Y-46250D02*
X47500Y-46250D01*
X38000Y-46250D02*
X39250Y-46250D01*
X30500Y-46250D02*
X31000Y-46250D01*
X28500Y-46250D02*
X29000Y-46250D01*
X27000Y-46250D02*
X27250Y-46250D01*
X24500Y-46250D02*
X25500Y-46250D01*
X30000Y-46000D02*
X63750Y-46000D01*
X27000Y-46000D02*
X27500Y-46000D01*
X24500Y-46000D02*
X25500Y-46000D01*
X22750Y-46000D02*
X23000Y-46000D01*
X30000Y-45750D02*
X63750Y-45750D01*
X27000Y-45750D02*
X27750Y-45750D01*
X24500Y-45750D02*
X25500Y-45750D01*
X22500Y-45750D02*
X23000Y-45750D01*
X63500Y-45500D02*
X63750Y-45500D01*
X55250Y-45500D02*
X62750Y-45500D01*
X47000Y-45500D02*
X54500Y-45500D01*
X38750Y-45500D02*
X46250Y-45500D01*
X30500Y-45500D02*
X38000Y-45500D01*
X27000Y-45500D02*
X27500Y-45500D01*
X24500Y-45500D02*
X25500Y-45500D01*
X55750Y-45250D02*
X62250Y-45250D01*
X47500Y-45250D02*
X54000Y-45250D01*
X39250Y-45250D02*
X45750Y-45250D01*
X31000Y-45250D02*
X37500Y-45250D01*
X24250Y-45250D02*
X25500Y-45250D01*
X55750Y-45000D02*
X62250Y-45000D01*
X47500Y-45000D02*
X54000Y-45000D01*
X39250Y-45000D02*
X45750Y-45000D01*
X31000Y-45000D02*
X37500Y-45000D01*
X24250Y-45000D02*
X26250Y-45000D01*
X56000Y-44750D02*
X62000Y-44750D01*
X47750Y-44750D02*
X53750Y-44750D01*
X39500Y-44750D02*
X45500Y-44750D01*
X31250Y-44750D02*
X37250Y-44750D01*
X24500Y-44750D02*
X26250Y-44750D01*
X56000Y-44500D02*
X62000Y-44500D01*
X47750Y-44500D02*
X53750Y-44500D01*
X39500Y-44500D02*
X45500Y-44500D01*
X31250Y-44500D02*
X37250Y-44500D01*
X24500Y-44500D02*
X26250Y-44500D01*
X55750Y-44250D02*
X62250Y-44250D01*
X47500Y-44250D02*
X54000Y-44250D01*
X39250Y-44250D02*
X45750Y-44250D01*
X32500Y-44250D02*
X37500Y-44250D01*
X25000Y-44250D02*
X26250Y-44250D01*
X55750Y-44000D02*
X62250Y-44000D01*
X47500Y-44000D02*
X54000Y-44000D01*
X39250Y-44000D02*
X45750Y-44000D01*
X32750Y-44000D02*
X37500Y-44000D01*
X25000Y-44000D02*
X26000Y-44000D01*
X55250Y-43750D02*
X62750Y-43750D01*
X47000Y-43750D02*
X54500Y-43750D01*
X38750Y-43750D02*
X46250Y-43750D01*
X32750Y-43750D02*
X38000Y-43750D01*
M02*
