G04 (created by PCBNEW-RS274X (20100406 SVN-R2508)-final) date 6/3/2010 10:02:14 PM*
G01*
G70*
G90*
%MOIN*%
G04 Gerber Fmt 3.4, Leading zero omitted, Abs format*
%FSLAX34Y34*%
G04 APERTURE LIST*
%ADD10C,0.006000*%
%ADD11C,0.012000*%
%ADD12C,0.015000*%
%ADD13C,0.070000*%
%ADD14R,0.070000X0.070000*%
%ADD15R,0.090600X0.098400*%
%ADD16R,0.006000X0.090000*%
%ADD17R,0.098400X0.090600*%
%ADD18R,0.090000X0.006000*%
%ADD19R,0.230000X0.006000*%
%ADD20C,0.060000*%
%ADD21R,0.060000X0.060000*%
%ADD22R,0.006000X0.230000*%
%ADD23C,0.130000*%
%ADD24R,0.055000X0.035000*%
%ADD25R,0.035000X0.055000*%
%ADD26R,0.075000X0.070000*%
%ADD27R,0.055000X0.055000*%
%ADD28C,0.055000*%
%ADD29R,0.045000X0.020000*%
%ADD30C,0.045000*%
%ADD31C,0.010000*%
%ADD32C,0.008000*%
%ADD33C,0.025000*%
G04 APERTURE END LIST*
G54D10*
G54D11*
X39500Y-43250D02*
X21000Y-43250D01*
X39500Y-55250D02*
X39500Y-43250D01*
X21000Y-55250D02*
X39500Y-55250D01*
G54D12*
X21000Y-55200D02*
X21000Y-55000D01*
X31600Y-46500D02*
X31557Y-46502D01*
X31514Y-46508D01*
X31471Y-46518D01*
X31429Y-46531D01*
X31389Y-46547D01*
X31351Y-46567D01*
X31314Y-46591D01*
X31279Y-46617D01*
X31247Y-46647D01*
X31217Y-46679D01*
X31191Y-46714D01*
X31167Y-46751D01*
X31147Y-46789D01*
X31131Y-46829D01*
X31118Y-46871D01*
X31108Y-46914D01*
X31102Y-46957D01*
X31100Y-47000D01*
X31100Y-47000D02*
X31102Y-47043D01*
X31108Y-47086D01*
X31118Y-47129D01*
X31131Y-47171D01*
X31147Y-47211D01*
X31167Y-47249D01*
X31191Y-47286D01*
X31217Y-47321D01*
X31247Y-47353D01*
X31279Y-47383D01*
X31314Y-47409D01*
X31351Y-47433D01*
X31389Y-47453D01*
X31429Y-47469D01*
X31471Y-47482D01*
X31514Y-47492D01*
X31557Y-47498D01*
X31600Y-47500D01*
X37600Y-47500D02*
X37643Y-47498D01*
X37686Y-47492D01*
X37729Y-47482D01*
X37771Y-47469D01*
X37811Y-47453D01*
X37850Y-47433D01*
X37886Y-47409D01*
X37921Y-47383D01*
X37953Y-47353D01*
X37983Y-47321D01*
X38009Y-47286D01*
X38033Y-47249D01*
X38053Y-47211D01*
X38069Y-47171D01*
X38082Y-47129D01*
X38092Y-47086D01*
X38098Y-47043D01*
X38100Y-47000D01*
X38100Y-47000D02*
X38098Y-46957D01*
X38092Y-46914D01*
X38082Y-46871D01*
X38069Y-46829D01*
X38053Y-46789D01*
X38033Y-46751D01*
X38009Y-46714D01*
X37983Y-46679D01*
X37953Y-46647D01*
X37921Y-46617D01*
X37886Y-46591D01*
X37850Y-46567D01*
X37811Y-46547D01*
X37771Y-46531D01*
X37729Y-46518D01*
X37686Y-46508D01*
X37643Y-46502D01*
X37600Y-46500D01*
X31600Y-47500D02*
X37600Y-47500D01*
X37600Y-46500D02*
X31600Y-46500D01*
X21000Y-43250D02*
X21000Y-55000D01*
G54D13*
X24750Y-53250D03*
G54D14*
X24750Y-49250D03*
G54D15*
X24750Y-50850D03*
X24750Y-52550D03*
G54D16*
X24500Y-49950D03*
G54D13*
X30000Y-53000D03*
G54D14*
X34000Y-53000D03*
G54D17*
X32400Y-53000D03*
X30700Y-53000D03*
G54D18*
X33300Y-52750D03*
G54D13*
X30000Y-54400D03*
G54D14*
X34000Y-54400D03*
G54D17*
X32400Y-54400D03*
X30700Y-54400D03*
G54D18*
X33300Y-54150D03*
G54D19*
X26550Y-54000D03*
G54D20*
X23750Y-54250D03*
X27750Y-54250D03*
G54D21*
X25250Y-54250D03*
X24250Y-54250D03*
G54D22*
X24000Y-48550D03*
G54D20*
X23750Y-45750D03*
X23750Y-49750D03*
G54D21*
X23750Y-47250D03*
X23750Y-46250D03*
G54D19*
X25550Y-43500D03*
G54D20*
X22750Y-43750D03*
X26750Y-43750D03*
G54D21*
X24250Y-43750D03*
X23250Y-43750D03*
G54D20*
X37300Y-52375D03*
X36452Y-52905D03*
X35604Y-53435D03*
X38148Y-51845D03*
G54D23*
X38361Y-44637D03*
X30729Y-49407D03*
G54D20*
X29050Y-52375D03*
X28202Y-52905D03*
X27354Y-53435D03*
X29898Y-51845D03*
G54D23*
X30111Y-44637D03*
X22479Y-49407D03*
G54D20*
X36770Y-51527D03*
X35922Y-52057D03*
X35074Y-52587D03*
X37618Y-50997D03*
G54D23*
X38361Y-44637D03*
X30729Y-49407D03*
G54D24*
X28750Y-51125D03*
X28750Y-50375D03*
G54D20*
X29250Y-51250D03*
X29250Y-50250D03*
G54D25*
X32675Y-51050D03*
X33425Y-51050D03*
G54D20*
X32550Y-51550D03*
X33550Y-51550D03*
G54D25*
X31575Y-51500D03*
X30825Y-51500D03*
G54D20*
X31700Y-51000D03*
X30700Y-51000D03*
G54D25*
X35175Y-51550D03*
X34425Y-51550D03*
G54D20*
X35300Y-51050D03*
X34300Y-51050D03*
G54D26*
X21750Y-43750D03*
G54D13*
X21750Y-44750D03*
X21750Y-45740D03*
X21750Y-46760D03*
X21750Y-47750D03*
G54D24*
X26750Y-51875D03*
X26750Y-52625D03*
G54D20*
X26250Y-51750D03*
X26250Y-52750D03*
X23250Y-52500D03*
X23250Y-51500D03*
G54D25*
X23625Y-45000D03*
X22875Y-45000D03*
G54D20*
X23750Y-44500D03*
X22750Y-44500D03*
X26000Y-50250D03*
X27000Y-50250D03*
G54D25*
X26125Y-49750D03*
X26875Y-49750D03*
G54D20*
X26000Y-50250D03*
X27000Y-50250D03*
X28000Y-44000D03*
X28000Y-45000D03*
G54D24*
X28500Y-44125D03*
X28500Y-44875D03*
G54D20*
X28000Y-44000D03*
X28000Y-45000D03*
G54D24*
X28000Y-51125D03*
X28000Y-51875D03*
G54D20*
X27500Y-51000D03*
X27500Y-52000D03*
G54D27*
X26250Y-45750D03*
G54D28*
X26250Y-46750D03*
X26250Y-47750D03*
X26250Y-48750D03*
X29250Y-48750D03*
X29250Y-47750D03*
X29250Y-46750D03*
X29250Y-45750D03*
G54D13*
X22000Y-51500D03*
X22000Y-52500D03*
G54D14*
X22000Y-53500D03*
G54D29*
X29900Y-46400D03*
X27800Y-46400D03*
X29900Y-46900D03*
X29900Y-47400D03*
X29900Y-47900D03*
X27800Y-46900D03*
X27800Y-47400D03*
X27800Y-47900D03*
G54D27*
X31150Y-43800D03*
G54D28*
X32150Y-43800D03*
G54D27*
X29100Y-53700D03*
G54D28*
X29100Y-54700D03*
G54D30*
X22350Y-46300D03*
X22100Y-50700D03*
X27900Y-49600D03*
X29100Y-54700D03*
G54D31*
X28200Y-43800D02*
X28000Y-44000D01*
X28750Y-44000D02*
X28000Y-44000D01*
X31150Y-43800D02*
X28200Y-43800D01*
X29900Y-46400D02*
X29250Y-45750D01*
X21200Y-46500D02*
X21450Y-46250D01*
X21200Y-53700D02*
X21200Y-46500D01*
X21300Y-53800D02*
X21200Y-53700D01*
X21750Y-54250D02*
X21300Y-53800D01*
X29250Y-44500D02*
X28750Y-44000D01*
X21450Y-46250D02*
X22300Y-46250D01*
X22300Y-46250D02*
X22350Y-46300D01*
X23750Y-54250D02*
X21750Y-54250D01*
X29250Y-45750D02*
X29250Y-44500D01*
X22000Y-52500D02*
X23250Y-52500D01*
X21600Y-47900D02*
X21750Y-47750D01*
X21600Y-50200D02*
X21600Y-47900D01*
X22100Y-50700D02*
X21600Y-50200D01*
X29100Y-53700D02*
X29100Y-52425D01*
X36293Y-51050D02*
X36770Y-51527D01*
X35300Y-51050D02*
X36293Y-51050D01*
X29050Y-51450D02*
X29250Y-51250D01*
X29050Y-52375D02*
X29050Y-51450D01*
X37300Y-52057D02*
X36770Y-51527D01*
X29100Y-52425D02*
X29050Y-52375D01*
X37300Y-52375D02*
X37300Y-52057D01*
X27750Y-48750D02*
X29750Y-50750D01*
X26250Y-52750D02*
X28047Y-52750D01*
X28047Y-52750D02*
X28202Y-52905D01*
X27500Y-52000D02*
X27500Y-52203D01*
X27500Y-52203D02*
X28202Y-52905D01*
X26250Y-52750D02*
X25250Y-51750D01*
X23500Y-51750D02*
X23250Y-51500D01*
X25250Y-51750D02*
X23500Y-51750D01*
X23750Y-45750D02*
X24250Y-45750D01*
X26800Y-46200D02*
X28000Y-45000D01*
X26800Y-47000D02*
X26800Y-46200D01*
X26500Y-47300D02*
X26800Y-47000D01*
X25800Y-47300D02*
X26500Y-47300D01*
X24250Y-45750D02*
X25800Y-47300D01*
X29750Y-50750D02*
X30450Y-50750D01*
X26250Y-48750D02*
X26950Y-48750D01*
X26950Y-48750D02*
X27800Y-47900D01*
X33650Y-50400D02*
X34300Y-51050D01*
X33300Y-50050D02*
X33650Y-50400D01*
X30450Y-50750D02*
X30700Y-51000D01*
X26250Y-48750D02*
X27750Y-48750D01*
X23750Y-45750D02*
X21750Y-45750D01*
X22750Y-45250D02*
X23250Y-45750D01*
X22750Y-44500D02*
X22750Y-45250D01*
X22750Y-44500D02*
X22750Y-43750D01*
X22000Y-51500D02*
X23250Y-51500D01*
X36452Y-52587D02*
X35915Y-52050D01*
X35915Y-52050D02*
X34925Y-52050D01*
X34925Y-52050D02*
X34425Y-51550D01*
X36452Y-52905D02*
X36452Y-52587D01*
X34050Y-51050D02*
X33550Y-51550D01*
X34300Y-51050D02*
X34050Y-51050D01*
X31650Y-50050D02*
X33300Y-50050D01*
X30700Y-51000D02*
X31650Y-50050D01*
X23250Y-45750D02*
X23750Y-45750D01*
X32400Y-54400D02*
X31550Y-53550D01*
X31550Y-53550D02*
X31550Y-51525D01*
X31550Y-51525D02*
X31575Y-51500D01*
X34000Y-54250D02*
X34789Y-54250D01*
X34789Y-54250D02*
X35604Y-53435D01*
X34000Y-53000D02*
X34661Y-53000D01*
X34661Y-53000D02*
X35074Y-52587D01*
X32550Y-52850D02*
X32400Y-53000D01*
X32550Y-51550D02*
X32550Y-52850D01*
X27354Y-53435D02*
X27935Y-53435D01*
X28500Y-51625D02*
X28000Y-51125D01*
X28500Y-52500D02*
X28500Y-51625D01*
X28750Y-52750D02*
X28500Y-52500D01*
X28750Y-53250D02*
X28750Y-52750D01*
X28500Y-53500D02*
X28750Y-53250D01*
X28000Y-53500D02*
X28500Y-53500D01*
X27935Y-53435D02*
X28000Y-53500D01*
X27250Y-50250D02*
X27000Y-50250D01*
X27900Y-49600D02*
X27250Y-50250D01*
X30000Y-54100D02*
X30000Y-53000D01*
X29850Y-54250D02*
X30000Y-54100D01*
X30000Y-53000D02*
X30000Y-54400D01*
X25250Y-54250D02*
X25250Y-53750D01*
X27750Y-54250D02*
X29850Y-54250D01*
X25250Y-53750D02*
X24750Y-53250D01*
X23750Y-49750D02*
X24250Y-49750D01*
X27200Y-47750D02*
X26250Y-47750D01*
X27800Y-47400D02*
X27550Y-47400D01*
X24750Y-49250D02*
X26250Y-47750D01*
X24250Y-49750D02*
X24750Y-49250D01*
X27550Y-47400D02*
X27200Y-47750D01*
X27800Y-46400D02*
X28950Y-45250D01*
X23750Y-44250D02*
X24250Y-43750D01*
X23750Y-44500D02*
X23750Y-44250D01*
X28950Y-45250D02*
X28950Y-44600D01*
X27800Y-46400D02*
X27800Y-46900D01*
X26250Y-45750D02*
X26250Y-46750D01*
X26750Y-43750D02*
X26750Y-44500D01*
X26750Y-44500D02*
X26750Y-45250D01*
X28950Y-44600D02*
X28850Y-44500D01*
X26750Y-45250D02*
X26250Y-45750D01*
X28850Y-44500D02*
X26750Y-44500D01*
G54D32*
X27800Y-47900D02*
X27800Y-48400D01*
X27800Y-47900D02*
X28425Y-47900D01*
X26250Y-48750D02*
X26925Y-48750D01*
X28000Y-45000D02*
X27300Y-45000D01*
X28000Y-45000D02*
X27300Y-45000D01*
X22875Y-45000D02*
X22875Y-45675D01*
X23250Y-51500D02*
X23250Y-50800D01*
X23250Y-51500D02*
X23950Y-51500D01*
X26250Y-52750D02*
X26250Y-53450D01*
X26250Y-52750D02*
X25550Y-52750D01*
X26750Y-52625D02*
X26750Y-53200D01*
X21750Y-45740D02*
X22500Y-45740D01*
X34300Y-51050D02*
X34300Y-50350D01*
X30700Y-51000D02*
X30000Y-51000D01*
X33425Y-51050D02*
X33425Y-50375D01*
X29250Y-50250D02*
X29250Y-49550D01*
X29250Y-50250D02*
X29950Y-50250D01*
X28750Y-50375D02*
X28750Y-49800D01*
X36452Y-52905D02*
X36823Y-53499D01*
X23750Y-46250D02*
X23050Y-46250D01*
X23750Y-46250D02*
X24450Y-46250D01*
X23750Y-45750D02*
X23050Y-45750D01*
X23750Y-45750D02*
X24450Y-45750D01*
G54D33*
X39000Y-45500D02*
X39000Y-54750D01*
X38750Y-45500D02*
X38750Y-54750D01*
X38500Y-52500D02*
X38500Y-54750D01*
X38500Y-45750D02*
X38500Y-51250D01*
X38250Y-52500D02*
X38250Y-54750D01*
X38250Y-47750D02*
X38250Y-51250D01*
X38250Y-45750D02*
X38250Y-46250D01*
X38000Y-52500D02*
X38000Y-54750D01*
X38000Y-47750D02*
X38000Y-50500D01*
X38000Y-45500D02*
X38000Y-46250D01*
X37750Y-52750D02*
X37750Y-54750D01*
X37750Y-48000D02*
X37750Y-50250D01*
X37750Y-45500D02*
X37750Y-46000D01*
X37500Y-53000D02*
X37500Y-54750D01*
X37500Y-48000D02*
X37500Y-50250D01*
X37500Y-45000D02*
X37500Y-46000D01*
X37500Y-43750D02*
X37500Y-44250D01*
X37250Y-53000D02*
X37250Y-54750D01*
X37250Y-48000D02*
X37250Y-50500D01*
X37250Y-43750D02*
X37250Y-46000D01*
X37000Y-53250D02*
X37000Y-54750D01*
X37000Y-48000D02*
X37000Y-51000D01*
X37000Y-43750D02*
X37000Y-46000D01*
X36750Y-53500D02*
X36750Y-54750D01*
X36750Y-48000D02*
X36750Y-50750D01*
X36750Y-43750D02*
X36750Y-46000D01*
X36500Y-53500D02*
X36500Y-54750D01*
X36500Y-48000D02*
X36500Y-50750D01*
X36500Y-43750D02*
X36500Y-46000D01*
X36250Y-53500D02*
X36250Y-54750D01*
X36250Y-48000D02*
X36250Y-50500D01*
X36250Y-43750D02*
X36250Y-46000D01*
X36000Y-54000D02*
X36000Y-54750D01*
X36000Y-48000D02*
X36000Y-50500D01*
X36000Y-43750D02*
X36000Y-46000D01*
X35750Y-54000D02*
X35750Y-54750D01*
X35750Y-48000D02*
X35750Y-50500D01*
X35750Y-43750D02*
X35750Y-46000D01*
X35500Y-54250D02*
X35500Y-54750D01*
X35500Y-48000D02*
X35500Y-50500D01*
X35500Y-43750D02*
X35500Y-46000D01*
X35250Y-54250D02*
X35250Y-54750D01*
X35250Y-48000D02*
X35250Y-50250D01*
X35250Y-43750D02*
X35250Y-46000D01*
X35000Y-54500D02*
X35000Y-54750D01*
X35000Y-48000D02*
X35000Y-50500D01*
X35000Y-43750D02*
X35000Y-46000D01*
X34750Y-48000D02*
X34750Y-50500D01*
X34750Y-43750D02*
X34750Y-46000D01*
X34500Y-48000D02*
X34500Y-50500D01*
X34500Y-43750D02*
X34500Y-46000D01*
X34250Y-48000D02*
X34250Y-50250D01*
X34250Y-43750D02*
X34250Y-46000D01*
X34000Y-48000D02*
X34000Y-50500D01*
X34000Y-43750D02*
X34000Y-46000D01*
X33750Y-48000D02*
X33750Y-50250D01*
X33750Y-43750D02*
X33750Y-46000D01*
X33500Y-48000D02*
X33500Y-50250D01*
X33500Y-43750D02*
X33500Y-46000D01*
X33250Y-48000D02*
X33250Y-50250D01*
X33250Y-43750D02*
X33250Y-46000D01*
X33000Y-48000D02*
X33000Y-50250D01*
X33000Y-43750D02*
X33000Y-46000D01*
X32750Y-48000D02*
X32750Y-50250D01*
X32750Y-43750D02*
X32750Y-46000D01*
X32500Y-48000D02*
X32500Y-50250D01*
X32500Y-44250D02*
X32500Y-46000D01*
X32250Y-48000D02*
X32250Y-50250D01*
X32250Y-44500D02*
X32250Y-46000D01*
X32000Y-48000D02*
X32000Y-50500D01*
X32000Y-44500D02*
X32000Y-46000D01*
X31750Y-48000D02*
X31750Y-50250D01*
X31750Y-44250D02*
X31750Y-46000D01*
X31500Y-50000D02*
X31500Y-50250D01*
X31500Y-48000D02*
X31500Y-48750D01*
X31500Y-44500D02*
X31500Y-46000D01*
X31250Y-50250D02*
X31250Y-50500D01*
X31250Y-48000D02*
X31250Y-48500D01*
X31250Y-44500D02*
X31250Y-46000D01*
X31000Y-47750D02*
X31000Y-48500D01*
X31000Y-45000D02*
X31000Y-46250D01*
X30750Y-47250D02*
X30750Y-48250D01*
X30750Y-45500D02*
X30750Y-46750D01*
X30500Y-45500D02*
X30500Y-48500D01*
X30250Y-50250D02*
X30250Y-50500D01*
X30250Y-45750D02*
X30250Y-46000D01*
X30000Y-50000D02*
X30000Y-51250D01*
X30000Y-48500D02*
X30000Y-48750D01*
X30000Y-45750D02*
X30000Y-46000D01*
X29750Y-49000D02*
X29750Y-49750D01*
X29500Y-49250D02*
X29500Y-49500D01*
X29000Y-49250D02*
X29000Y-49500D01*
X28750Y-49000D02*
X28750Y-49750D01*
X28750Y-48000D02*
X28750Y-48500D01*
X28750Y-47000D02*
X28750Y-47500D01*
X28750Y-46000D02*
X28750Y-46500D01*
X28500Y-46250D02*
X28500Y-49750D01*
X28250Y-48500D02*
X28250Y-49000D01*
X28000Y-48500D02*
X28000Y-49000D01*
X27750Y-48500D02*
X27750Y-49000D01*
X27500Y-48500D02*
X27500Y-49250D01*
X27500Y-45500D02*
X27500Y-46000D01*
X27250Y-48250D02*
X27250Y-49000D01*
X27250Y-45000D02*
X27250Y-47000D01*
X27000Y-48250D02*
X27000Y-49000D01*
X27000Y-45500D02*
X27000Y-47250D01*
X26750Y-53250D02*
X26750Y-53500D01*
X26750Y-51000D02*
X26750Y-51250D01*
X26750Y-48250D02*
X26750Y-48500D01*
X26750Y-47000D02*
X26750Y-47250D01*
X26500Y-50750D02*
X26500Y-51000D01*
X26250Y-44250D02*
X26250Y-45000D01*
X26000Y-44000D02*
X26000Y-45000D01*
X25750Y-53250D02*
X25750Y-53500D01*
X25750Y-51000D02*
X25750Y-51250D01*
X25750Y-47000D02*
X25750Y-47500D01*
X25750Y-44000D02*
X25750Y-45000D01*
X25500Y-50750D02*
X25500Y-53500D01*
X25500Y-44000D02*
X25500Y-48000D01*
X25250Y-44000D02*
X25250Y-48250D01*
X25000Y-44000D02*
X25000Y-48500D01*
X24750Y-44500D02*
X24750Y-48500D01*
X24500Y-44500D02*
X24500Y-48500D01*
X24250Y-45000D02*
X24250Y-45250D01*
X24000Y-50500D02*
X24000Y-53500D01*
X23750Y-53000D02*
X23750Y-53500D01*
X23750Y-50500D02*
X23750Y-51000D01*
X23500Y-53250D02*
X23500Y-53500D01*
X23500Y-50500D02*
X23500Y-50750D01*
X23500Y-48000D02*
X23500Y-49000D01*
X23250Y-53250D02*
X23250Y-53750D01*
X23250Y-50250D02*
X23250Y-50750D01*
X23250Y-48000D02*
X23250Y-48750D01*
X23000Y-53250D02*
X23000Y-53750D01*
X23000Y-50250D02*
X23000Y-50750D01*
X23000Y-45750D02*
X23000Y-48500D01*
X22750Y-53000D02*
X22750Y-53750D01*
X22750Y-50500D02*
X22750Y-51000D01*
X22750Y-46750D02*
X22750Y-48500D01*
X22750Y-45750D02*
X22750Y-46000D01*
X22500Y-47000D02*
X22500Y-48250D01*
X22250Y-48250D02*
X22250Y-48500D01*
X34750Y-54750D02*
X39000Y-54750D01*
X35000Y-54500D02*
X39000Y-54500D01*
X35250Y-54250D02*
X39000Y-54250D01*
X35750Y-54000D02*
X39000Y-54000D01*
X36250Y-53750D02*
X39000Y-53750D01*
X22750Y-53750D02*
X23250Y-53750D01*
X36250Y-53500D02*
X39000Y-53500D01*
X25500Y-53500D02*
X26750Y-53500D01*
X22750Y-53500D02*
X24000Y-53500D01*
X37000Y-53250D02*
X39000Y-53250D01*
X25500Y-53250D02*
X25750Y-53250D01*
X22750Y-53250D02*
X24000Y-53250D01*
X37250Y-53000D02*
X39000Y-53000D01*
X23750Y-53000D02*
X24000Y-53000D01*
X37750Y-52750D02*
X39000Y-52750D01*
X38000Y-52500D02*
X39000Y-52500D01*
X38750Y-52250D02*
X39000Y-52250D01*
X25500Y-52250D02*
X25750Y-52250D01*
X38750Y-52000D02*
X39000Y-52000D01*
X23750Y-52000D02*
X24000Y-52000D01*
X38750Y-51750D02*
X39000Y-51750D01*
X24000Y-51750D02*
X25500Y-51750D01*
X38750Y-51500D02*
X39000Y-51500D01*
X38250Y-51250D02*
X39000Y-51250D01*
X25500Y-51250D02*
X25750Y-51250D01*
X38250Y-51000D02*
X39000Y-51000D01*
X25500Y-51000D02*
X26750Y-51000D01*
X23750Y-51000D02*
X24000Y-51000D01*
X22500Y-51000D02*
X22750Y-51000D01*
X38250Y-50750D02*
X39000Y-50750D01*
X36500Y-50750D02*
X37000Y-50750D01*
X29750Y-50750D02*
X30000Y-50750D01*
X22750Y-50750D02*
X24000Y-50750D01*
X38000Y-50500D02*
X39000Y-50500D01*
X35500Y-50500D02*
X37250Y-50500D01*
X34500Y-50500D02*
X35000Y-50500D01*
X31000Y-50500D02*
X31250Y-50500D01*
X30000Y-50500D02*
X30250Y-50500D01*
X22750Y-50500D02*
X24000Y-50500D01*
X31250Y-50250D02*
X39000Y-50250D01*
X30000Y-50250D02*
X30250Y-50250D01*
X23000Y-50250D02*
X23250Y-50250D01*
X31500Y-50000D02*
X39000Y-50000D01*
X31750Y-49750D02*
X39000Y-49750D01*
X28500Y-49750D02*
X28750Y-49750D01*
X31750Y-49500D02*
X39000Y-49500D01*
X28500Y-49500D02*
X29750Y-49500D01*
X31750Y-49250D02*
X39000Y-49250D01*
X29500Y-49250D02*
X29750Y-49250D01*
X28500Y-49250D02*
X29000Y-49250D01*
X31750Y-49000D02*
X39000Y-49000D01*
X26750Y-49000D02*
X28750Y-49000D01*
X31500Y-48750D02*
X39000Y-48750D01*
X27000Y-48750D02*
X28500Y-48750D01*
X23250Y-48750D02*
X23500Y-48750D01*
X31000Y-48500D02*
X39000Y-48500D01*
X29750Y-48500D02*
X30500Y-48500D01*
X26750Y-48500D02*
X28750Y-48500D01*
X24500Y-48500D02*
X25000Y-48500D01*
X22750Y-48500D02*
X23500Y-48500D01*
X22000Y-48500D02*
X22250Y-48500D01*
X30500Y-48250D02*
X39000Y-48250D01*
X28500Y-48250D02*
X29000Y-48250D01*
X26500Y-48250D02*
X27250Y-48250D01*
X24500Y-48250D02*
X25250Y-48250D01*
X22250Y-48250D02*
X23500Y-48250D01*
X30500Y-48000D02*
X39000Y-48000D01*
X28500Y-48000D02*
X28750Y-48000D01*
X24500Y-48000D02*
X25500Y-48000D01*
X22500Y-48000D02*
X23500Y-48000D01*
X38000Y-47750D02*
X39000Y-47750D01*
X30500Y-47750D02*
X31000Y-47750D01*
X24500Y-47750D02*
X25500Y-47750D01*
X22500Y-47750D02*
X23000Y-47750D01*
X38500Y-47500D02*
X39000Y-47500D01*
X30500Y-47500D02*
X30750Y-47500D01*
X28500Y-47500D02*
X28750Y-47500D01*
X24500Y-47500D02*
X25750Y-47500D01*
X22500Y-47500D02*
X23000Y-47500D01*
X38500Y-47250D02*
X39000Y-47250D01*
X30500Y-47250D02*
X30750Y-47250D01*
X28500Y-47250D02*
X29000Y-47250D01*
X26500Y-47250D02*
X27000Y-47250D01*
X24500Y-47250D02*
X26000Y-47250D01*
X22250Y-47250D02*
X23000Y-47250D01*
X38500Y-47000D02*
X39000Y-47000D01*
X28500Y-47000D02*
X28750Y-47000D01*
X26750Y-47000D02*
X27250Y-47000D01*
X24500Y-47000D02*
X25750Y-47000D01*
X22500Y-47000D02*
X23000Y-47000D01*
X38500Y-46750D02*
X39000Y-46750D01*
X30500Y-46750D02*
X30750Y-46750D01*
X27000Y-46750D02*
X27250Y-46750D01*
X24500Y-46750D02*
X25500Y-46750D01*
X22750Y-46750D02*
X23000Y-46750D01*
X38500Y-46500D02*
X39000Y-46500D01*
X30500Y-46500D02*
X30750Y-46500D01*
X28500Y-46500D02*
X28750Y-46500D01*
X26750Y-46500D02*
X27250Y-46500D01*
X24500Y-46500D02*
X25750Y-46500D01*
X38000Y-46250D02*
X39000Y-46250D01*
X30500Y-46250D02*
X31000Y-46250D01*
X28500Y-46250D02*
X29000Y-46250D01*
X27000Y-46250D02*
X27250Y-46250D01*
X24500Y-46250D02*
X25500Y-46250D01*
X30000Y-46000D02*
X39000Y-46000D01*
X27000Y-46000D02*
X27500Y-46000D01*
X24500Y-46000D02*
X25500Y-46000D01*
X22750Y-46000D02*
X23000Y-46000D01*
X30000Y-45750D02*
X39000Y-45750D01*
X27000Y-45750D02*
X27750Y-45750D01*
X24500Y-45750D02*
X25500Y-45750D01*
X22500Y-45750D02*
X23000Y-45750D01*
X38750Y-45500D02*
X39000Y-45500D01*
X30500Y-45500D02*
X38000Y-45500D01*
X27000Y-45500D02*
X27500Y-45500D01*
X24500Y-45500D02*
X25500Y-45500D01*
X31000Y-45250D02*
X37500Y-45250D01*
X24250Y-45250D02*
X25500Y-45250D01*
X31000Y-45000D02*
X37500Y-45000D01*
X24250Y-45000D02*
X26250Y-45000D01*
X31250Y-44750D02*
X37250Y-44750D01*
X24500Y-44750D02*
X26250Y-44750D01*
X31250Y-44500D02*
X37250Y-44500D01*
X24500Y-44500D02*
X26250Y-44500D01*
X32500Y-44250D02*
X37500Y-44250D01*
X25000Y-44250D02*
X26250Y-44250D01*
X32750Y-44000D02*
X37500Y-44000D01*
X25000Y-44000D02*
X26000Y-44000D01*
X32750Y-43750D02*
X38000Y-43750D01*
M02*
