G04 (Genere par PCBNEW (2007-07-09)) le 26/3/2010-10:00:50*
G01*
G70*
G90*
%MOIN*%
G04 Gerber Fmt 3.4, Leading zero omitted, Abs format*
%FSLAX34Y34*%
G04 APERTURE LIST*
%ADD10C,0.015000*%
%ADD11C,0.060000*%
%ADD12C,0.070000*%
%ADD13R,0.070000X0.070000*%
%ADD14C,0.130000*%
%ADD15R,0.055000X0.055000*%
%ADD16C,0.055000*%
%ADD17R,0.030000X0.020000*%
%ADD18R,0.055000X0.035000*%
%ADD19R,0.035000X0.055000*%
%ADD20C,0.045000*%
%ADD21C,0.010000*%
%ADD22C,0.025000*%
%ADD23R,0.230000X0.006000*%
%ADD24R,0.060000X0.060000*%
%ADD25R,0.006000X0.230000*%
%ADD26R,0.098400X0.090600*%
%ADD27R,0.090000X0.006000*%
%ADD28R,0.090600X0.098400*%
%ADD29R,0.006000X0.090000*%
%ADD30R,0.045000X0.020000*%
%ADD31C,0.012000*%
%ADD32C,0.005000*%
%ADD33C,0.001000*%
%ADD34C,0.008000*%
%ADD35C,0.006000*%
%ADD36C,0.080000*%
%ADD37C,0.090000*%
%ADD38R,0.090000X0.090000*%
%ADD39C,0.150000*%
%ADD40R,0.075000X0.075000*%
%ADD41C,0.075000*%
%ADD42R,0.050000X0.040000*%
%ADD43R,0.075000X0.055000*%
%ADD44R,0.055000X0.075000*%
%ADD45R,0.080000X0.080000*%
%ADD46R,0.118400X0.110600*%
%ADD47R,0.110600X0.118400*%
%ADD48R,0.065000X0.040000*%
G04 APERTURE END LIST*
G54D10*
X21000Y-55000D02*
X56000Y-55000D01*
X56000Y-43250D02*
X21000Y-43250D01*
X56000Y-43250D02*
X56000Y-55000D01*
X54000Y-47500D02*
X48000Y-47500D01*
X31600Y-46500D02*
X31496Y-46511D01*
X31496Y-46511D02*
X31397Y-46543D01*
X31397Y-46543D02*
X31306Y-46595D01*
X31306Y-46595D02*
X31228Y-46665D01*
X31228Y-46665D02*
X31167Y-46750D01*
X31167Y-46750D02*
X31124Y-46845D01*
X31124Y-46845D02*
X31103Y-46948D01*
X31103Y-46948D02*
X31100Y-47000D01*
X31100Y-47000D02*
X31111Y-47104D01*
X31111Y-47104D02*
X31143Y-47203D01*
X31143Y-47203D02*
X31195Y-47294D01*
X31195Y-47294D02*
X31265Y-47372D01*
X31265Y-47372D02*
X31350Y-47433D01*
X31350Y-47433D02*
X31445Y-47476D01*
X31445Y-47476D02*
X31548Y-47497D01*
X31548Y-47497D02*
X31600Y-47500D01*
X37600Y-47500D02*
X37704Y-47489D01*
X37704Y-47489D02*
X37803Y-47457D01*
X37803Y-47457D02*
X37894Y-47405D01*
X37894Y-47405D02*
X37972Y-47335D01*
X37972Y-47335D02*
X38033Y-47250D01*
X38033Y-47250D02*
X38076Y-47155D01*
X38076Y-47155D02*
X38097Y-47052D01*
X38097Y-47052D02*
X38100Y-47000D01*
X38100Y-47000D02*
X38089Y-46896D01*
X38089Y-46896D02*
X38057Y-46797D01*
X38057Y-46797D02*
X38005Y-46706D01*
X38005Y-46706D02*
X37935Y-46628D01*
X37935Y-46628D02*
X37850Y-46567D01*
X37850Y-46567D02*
X37755Y-46524D01*
X37755Y-46524D02*
X37652Y-46503D01*
X37652Y-46503D02*
X37600Y-46500D01*
X39800Y-46500D02*
X39696Y-46511D01*
X39696Y-46511D02*
X39597Y-46543D01*
X39597Y-46543D02*
X39506Y-46595D01*
X39506Y-46595D02*
X39428Y-46665D01*
X39428Y-46665D02*
X39367Y-46750D01*
X39367Y-46750D02*
X39324Y-46845D01*
X39324Y-46845D02*
X39303Y-46948D01*
X39303Y-46948D02*
X39300Y-47000D01*
X39300Y-47000D02*
X39311Y-47104D01*
X39311Y-47104D02*
X39343Y-47203D01*
X39343Y-47203D02*
X39395Y-47294D01*
X39395Y-47294D02*
X39465Y-47372D01*
X39465Y-47372D02*
X39550Y-47433D01*
X39550Y-47433D02*
X39645Y-47476D01*
X39645Y-47476D02*
X39748Y-47497D01*
X39748Y-47497D02*
X39800Y-47500D01*
X45800Y-47500D02*
X45904Y-47489D01*
X45904Y-47489D02*
X46003Y-47457D01*
X46003Y-47457D02*
X46094Y-47405D01*
X46094Y-47405D02*
X46172Y-47335D01*
X46172Y-47335D02*
X46233Y-47250D01*
X46233Y-47250D02*
X46276Y-47155D01*
X46276Y-47155D02*
X46297Y-47052D01*
X46297Y-47052D02*
X46300Y-47000D01*
X46300Y-47000D02*
X46289Y-46896D01*
X46289Y-46896D02*
X46257Y-46797D01*
X46257Y-46797D02*
X46205Y-46706D01*
X46205Y-46706D02*
X46135Y-46628D01*
X46135Y-46628D02*
X46050Y-46567D01*
X46050Y-46567D02*
X45955Y-46524D01*
X45955Y-46524D02*
X45852Y-46503D01*
X45852Y-46503D02*
X45800Y-46500D01*
X48000Y-46500D02*
X47896Y-46511D01*
X47896Y-46511D02*
X47797Y-46543D01*
X47797Y-46543D02*
X47706Y-46595D01*
X47706Y-46595D02*
X47628Y-46665D01*
X47628Y-46665D02*
X47567Y-46750D01*
X47567Y-46750D02*
X47524Y-46845D01*
X47524Y-46845D02*
X47503Y-46948D01*
X47503Y-46948D02*
X47500Y-47000D01*
X47500Y-47000D02*
X47511Y-47104D01*
X47511Y-47104D02*
X47543Y-47203D01*
X47543Y-47203D02*
X47595Y-47294D01*
X47595Y-47294D02*
X47665Y-47372D01*
X47665Y-47372D02*
X47750Y-47433D01*
X47750Y-47433D02*
X47845Y-47476D01*
X47845Y-47476D02*
X47948Y-47497D01*
X47948Y-47497D02*
X48000Y-47500D01*
X54000Y-47500D02*
X54104Y-47489D01*
X54104Y-47489D02*
X54203Y-47457D01*
X54203Y-47457D02*
X54294Y-47405D01*
X54294Y-47405D02*
X54372Y-47335D01*
X54372Y-47335D02*
X54433Y-47250D01*
X54433Y-47250D02*
X54476Y-47155D01*
X54476Y-47155D02*
X54497Y-47052D01*
X54497Y-47052D02*
X54500Y-47000D01*
X54500Y-47000D02*
X54489Y-46896D01*
X54489Y-46896D02*
X54457Y-46797D01*
X54457Y-46797D02*
X54405Y-46706D01*
X54405Y-46706D02*
X54335Y-46628D01*
X54335Y-46628D02*
X54250Y-46567D01*
X54250Y-46567D02*
X54155Y-46524D01*
X54155Y-46524D02*
X54052Y-46503D01*
X54052Y-46503D02*
X54000Y-46500D01*
X31600Y-47500D02*
X37600Y-47500D01*
X37600Y-46500D02*
X31600Y-46500D01*
X39800Y-47500D02*
X45800Y-47500D01*
X45800Y-46500D02*
X39800Y-46500D01*
X54000Y-46500D02*
X48000Y-46500D01*
X21000Y-43250D02*
X21000Y-55000D01*
G54D31*
X22417Y-45803D02*
X22417Y-45775D01*
X22417Y-45775D02*
X22261Y-45775D01*
X22261Y-45775D02*
X22230Y-45803D01*
X22230Y-45803D02*
X22230Y-45998D01*
X22230Y-45998D02*
X22261Y-46025D01*
X22261Y-46025D02*
X22417Y-46025D01*
X22417Y-46025D02*
X22449Y-45998D01*
X22449Y-45998D02*
X22449Y-45914D01*
X22449Y-45914D02*
X22355Y-45914D01*
X22627Y-46025D02*
X22627Y-45775D01*
X22627Y-45775D02*
X22846Y-46025D01*
X22846Y-46025D02*
X22846Y-45775D01*
X23055Y-46025D02*
X23055Y-45775D01*
X23024Y-45775D02*
X23211Y-45775D01*
X23211Y-45775D02*
X23243Y-45803D01*
X23243Y-45803D02*
X23243Y-45998D01*
X23243Y-45998D02*
X23211Y-46025D01*
X23211Y-46025D02*
X23024Y-46025D01*
X22230Y-46875D02*
X22230Y-46625D01*
X22230Y-46625D02*
X22417Y-46625D01*
X22417Y-46625D02*
X22449Y-46653D01*
X22449Y-46653D02*
X22449Y-46709D01*
X22449Y-46709D02*
X22417Y-46737D01*
X22417Y-46737D02*
X22230Y-46737D01*
X22417Y-46737D02*
X22449Y-46792D01*
X22449Y-46792D02*
X22449Y-46848D01*
X22449Y-46848D02*
X22417Y-46875D01*
X22417Y-46875D02*
X22230Y-46875D01*
X22627Y-46875D02*
X22627Y-46681D01*
X22627Y-46681D02*
X22689Y-46625D01*
X22689Y-46625D02*
X22783Y-46625D01*
X22783Y-46625D02*
X22846Y-46681D01*
X22846Y-46681D02*
X22846Y-46875D01*
X22627Y-46737D02*
X22846Y-46737D01*
X23024Y-46625D02*
X23274Y-46625D01*
X23149Y-46625D02*
X23149Y-46875D01*
X22230Y-47764D02*
X22417Y-47764D01*
X22324Y-47848D02*
X22324Y-47681D01*
X22627Y-47820D02*
X22627Y-47848D01*
X22627Y-47848D02*
X22658Y-47875D01*
X22658Y-47875D02*
X22814Y-47875D01*
X22814Y-47875D02*
X22846Y-47848D01*
X22846Y-47848D02*
X22846Y-47764D01*
X22846Y-47764D02*
X22783Y-47709D01*
X22783Y-47709D02*
X22627Y-47709D01*
X22627Y-47709D02*
X22627Y-47625D01*
X22627Y-47625D02*
X22846Y-47625D01*
X23024Y-47709D02*
X23024Y-47792D01*
X23024Y-47792D02*
X23118Y-47875D01*
X23118Y-47875D02*
X23211Y-47792D01*
X23211Y-47792D02*
X23211Y-47709D01*
X23750Y-54250D02*
X24150Y-54250D01*
X24150Y-54250D02*
X24150Y-53850D01*
X24150Y-53850D02*
X27350Y-53850D01*
X27350Y-53850D02*
X27350Y-54650D01*
X27350Y-54650D02*
X24150Y-54650D01*
X24150Y-54650D02*
X24150Y-54250D01*
X24150Y-54050D02*
X24350Y-53850D01*
X27750Y-54250D02*
X27350Y-54250D01*
X23750Y-45750D02*
X23750Y-46150D01*
X23750Y-46150D02*
X24150Y-46150D01*
X24150Y-46150D02*
X24150Y-49350D01*
X24150Y-49350D02*
X23350Y-49350D01*
X23350Y-49350D02*
X23350Y-46150D01*
X23350Y-46150D02*
X23750Y-46150D01*
X23950Y-46150D02*
X24150Y-46350D01*
X23750Y-49750D02*
X23750Y-49350D01*
X22750Y-43750D02*
X23150Y-43750D01*
X23150Y-43750D02*
X23150Y-43350D01*
X23150Y-43350D02*
X26350Y-43350D01*
X26350Y-43350D02*
X26350Y-44150D01*
X26350Y-44150D02*
X23150Y-44150D01*
X23150Y-44150D02*
X23150Y-43750D01*
X23150Y-43550D02*
X23350Y-43350D01*
X26750Y-43750D02*
X26350Y-43750D01*
X30500Y-53750D02*
X33500Y-53750D01*
X33500Y-53750D02*
X33500Y-54750D01*
X33500Y-54750D02*
X30500Y-54750D01*
X30500Y-54750D02*
X30500Y-53750D01*
X33250Y-53750D02*
X33250Y-54750D01*
X33000Y-54750D02*
X33000Y-53750D01*
X30500Y-54250D02*
X30000Y-54250D01*
X33500Y-54250D02*
X34000Y-54250D01*
X30500Y-52500D02*
X33500Y-52500D01*
X33500Y-52500D02*
X33500Y-53500D01*
X33500Y-53500D02*
X30500Y-53500D01*
X30500Y-53500D02*
X30500Y-52500D01*
X33250Y-52500D02*
X33250Y-53500D01*
X33000Y-53500D02*
X33000Y-52500D01*
X30500Y-53000D02*
X30000Y-53000D01*
X33500Y-53000D02*
X34000Y-53000D01*
X39000Y-53750D02*
X42000Y-53750D01*
X42000Y-53750D02*
X42000Y-54750D01*
X42000Y-54750D02*
X39000Y-54750D01*
X39000Y-54750D02*
X39000Y-53750D01*
X41750Y-53750D02*
X41750Y-54750D01*
X41500Y-54750D02*
X41500Y-53750D01*
X39000Y-54250D02*
X38500Y-54250D01*
X42000Y-54250D02*
X42500Y-54250D01*
X39000Y-52500D02*
X42000Y-52500D01*
X42000Y-52500D02*
X42000Y-53500D01*
X42000Y-53500D02*
X39000Y-53500D01*
X39000Y-53500D02*
X39000Y-52500D01*
X41750Y-52500D02*
X41750Y-53500D01*
X41500Y-53500D02*
X41500Y-52500D01*
X39000Y-53000D02*
X38500Y-53000D01*
X42000Y-53000D02*
X42500Y-53000D01*
X47250Y-53750D02*
X50250Y-53750D01*
X50250Y-53750D02*
X50250Y-54750D01*
X50250Y-54750D02*
X47250Y-54750D01*
X47250Y-54750D02*
X47250Y-53750D01*
X50000Y-53750D02*
X50000Y-54750D01*
X49750Y-54750D02*
X49750Y-53750D01*
X47250Y-54250D02*
X46750Y-54250D01*
X50250Y-54250D02*
X50750Y-54250D01*
X47250Y-52500D02*
X50250Y-52500D01*
X50250Y-52500D02*
X50250Y-53500D01*
X50250Y-53500D02*
X47250Y-53500D01*
X47250Y-53500D02*
X47250Y-52500D01*
X50000Y-52500D02*
X50000Y-53500D01*
X49750Y-53500D02*
X49750Y-52500D01*
X47250Y-53000D02*
X46750Y-53000D01*
X50250Y-53000D02*
X50750Y-53000D01*
X24250Y-52750D02*
X24250Y-49750D01*
X24250Y-49750D02*
X25250Y-49750D01*
X25250Y-49750D02*
X25250Y-52750D01*
X25250Y-52750D02*
X24250Y-52750D01*
X24250Y-50000D02*
X25250Y-50000D01*
X25250Y-50250D02*
X24250Y-50250D01*
X24750Y-52750D02*
X24750Y-53250D01*
X24750Y-49750D02*
X24750Y-49250D01*
G54D10*
X33326Y-43656D02*
X32664Y-42596D01*
X32664Y-42596D02*
X33512Y-42066D01*
X33512Y-42066D02*
X34439Y-43551D01*
X29987Y-48691D02*
X31763Y-44928D01*
X34651Y-50494D02*
X31047Y-50387D01*
X37619Y-48639D02*
X39103Y-45353D01*
X34439Y-43551D02*
X38043Y-43657D01*
X39360Y-44637D02*
X39283Y-45019D01*
X39283Y-45019D02*
X39067Y-45343D01*
X39067Y-45343D02*
X38743Y-45559D01*
X38743Y-45559D02*
X38361Y-45636D01*
X38361Y-45636D02*
X37979Y-45559D01*
X37979Y-45559D02*
X37655Y-45343D01*
X37655Y-45343D02*
X37439Y-45019D01*
X37439Y-45019D02*
X37362Y-44637D01*
X37362Y-44637D02*
X37439Y-44255D01*
X37439Y-44255D02*
X37655Y-43931D01*
X37655Y-43931D02*
X37979Y-43715D01*
X37979Y-43715D02*
X38361Y-43638D01*
X38361Y-43638D02*
X38743Y-43715D01*
X38743Y-43715D02*
X39067Y-43931D01*
X39067Y-43931D02*
X39283Y-44255D01*
X39283Y-44255D02*
X39360Y-44637D01*
X31729Y-49407D02*
X31652Y-49789D01*
X31652Y-49789D02*
X31436Y-50114D01*
X31436Y-50114D02*
X31111Y-50330D01*
X31111Y-50330D02*
X30729Y-50407D01*
X30729Y-50407D02*
X30347Y-50330D01*
X30347Y-50330D02*
X30022Y-50114D01*
X30022Y-50114D02*
X29806Y-49789D01*
X29806Y-49789D02*
X29729Y-49407D01*
X29729Y-49407D02*
X29806Y-49025D01*
X29806Y-49025D02*
X30022Y-48700D01*
X30022Y-48700D02*
X30347Y-48484D01*
X30347Y-48484D02*
X30729Y-48407D01*
X30729Y-48407D02*
X31111Y-48484D01*
X31111Y-48484D02*
X31436Y-48700D01*
X31436Y-48700D02*
X31652Y-49025D01*
X31652Y-49025D02*
X31729Y-49407D01*
X38045Y-47022D02*
X37968Y-47749D01*
X37968Y-47749D02*
X37742Y-48445D01*
X37742Y-48445D02*
X37376Y-49079D01*
X37376Y-49079D02*
X36886Y-49623D01*
X36886Y-49623D02*
X36295Y-50053D01*
X36295Y-50053D02*
X35626Y-50350D01*
X35626Y-50350D02*
X34910Y-50502D01*
X34910Y-50502D02*
X34180Y-50502D01*
X34180Y-50502D02*
X33464Y-50350D01*
X33464Y-50350D02*
X32795Y-50053D01*
X32795Y-50053D02*
X32204Y-49623D01*
X32204Y-49623D02*
X31714Y-49079D01*
X31714Y-49079D02*
X31348Y-48445D01*
X31348Y-48445D02*
X31122Y-47749D01*
X31122Y-47749D02*
X31045Y-47022D01*
X31045Y-47022D02*
X31122Y-46295D01*
X31122Y-46295D02*
X31348Y-45599D01*
X31348Y-45599D02*
X31714Y-44965D01*
X31714Y-44965D02*
X32204Y-44421D01*
X32204Y-44421D02*
X32795Y-43991D01*
X32795Y-43991D02*
X33464Y-43694D01*
X33464Y-43694D02*
X34180Y-43542D01*
X34180Y-43542D02*
X34910Y-43542D01*
X34910Y-43542D02*
X35626Y-43694D01*
X35626Y-43694D02*
X36295Y-43991D01*
X36295Y-43991D02*
X36886Y-44421D01*
X36886Y-44421D02*
X37376Y-44965D01*
X37376Y-44965D02*
X37742Y-45599D01*
X37742Y-45599D02*
X37968Y-46295D01*
X37968Y-46295D02*
X38045Y-47022D01*
X41576Y-43656D02*
X40914Y-42596D01*
X40914Y-42596D02*
X41762Y-42066D01*
X41762Y-42066D02*
X42689Y-43551D01*
X38237Y-48691D02*
X40013Y-44928D01*
X42901Y-50494D02*
X39297Y-50387D01*
X45869Y-48639D02*
X47353Y-45353D01*
X42689Y-43551D02*
X46293Y-43657D01*
X47610Y-44637D02*
X47533Y-45019D01*
X47533Y-45019D02*
X47317Y-45343D01*
X47317Y-45343D02*
X46993Y-45559D01*
X46993Y-45559D02*
X46611Y-45636D01*
X46611Y-45636D02*
X46229Y-45559D01*
X46229Y-45559D02*
X45905Y-45343D01*
X45905Y-45343D02*
X45689Y-45019D01*
X45689Y-45019D02*
X45612Y-44637D01*
X45612Y-44637D02*
X45689Y-44255D01*
X45689Y-44255D02*
X45905Y-43931D01*
X45905Y-43931D02*
X46229Y-43715D01*
X46229Y-43715D02*
X46611Y-43638D01*
X46611Y-43638D02*
X46993Y-43715D01*
X46993Y-43715D02*
X47317Y-43931D01*
X47317Y-43931D02*
X47533Y-44255D01*
X47533Y-44255D02*
X47610Y-44637D01*
X39979Y-49407D02*
X39902Y-49789D01*
X39902Y-49789D02*
X39686Y-50114D01*
X39686Y-50114D02*
X39361Y-50330D01*
X39361Y-50330D02*
X38979Y-50407D01*
X38979Y-50407D02*
X38597Y-50330D01*
X38597Y-50330D02*
X38272Y-50114D01*
X38272Y-50114D02*
X38056Y-49789D01*
X38056Y-49789D02*
X37979Y-49407D01*
X37979Y-49407D02*
X38056Y-49025D01*
X38056Y-49025D02*
X38272Y-48700D01*
X38272Y-48700D02*
X38597Y-48484D01*
X38597Y-48484D02*
X38979Y-48407D01*
X38979Y-48407D02*
X39361Y-48484D01*
X39361Y-48484D02*
X39686Y-48700D01*
X39686Y-48700D02*
X39902Y-49025D01*
X39902Y-49025D02*
X39979Y-49407D01*
X46295Y-47022D02*
X46218Y-47749D01*
X46218Y-47749D02*
X45992Y-48445D01*
X45992Y-48445D02*
X45626Y-49079D01*
X45626Y-49079D02*
X45136Y-49623D01*
X45136Y-49623D02*
X44545Y-50053D01*
X44545Y-50053D02*
X43876Y-50350D01*
X43876Y-50350D02*
X43160Y-50502D01*
X43160Y-50502D02*
X42430Y-50502D01*
X42430Y-50502D02*
X41714Y-50350D01*
X41714Y-50350D02*
X41045Y-50053D01*
X41045Y-50053D02*
X40454Y-49623D01*
X40454Y-49623D02*
X39964Y-49079D01*
X39964Y-49079D02*
X39598Y-48445D01*
X39598Y-48445D02*
X39372Y-47749D01*
X39372Y-47749D02*
X39295Y-47022D01*
X39295Y-47022D02*
X39372Y-46295D01*
X39372Y-46295D02*
X39598Y-45599D01*
X39598Y-45599D02*
X39964Y-44965D01*
X39964Y-44965D02*
X40454Y-44421D01*
X40454Y-44421D02*
X41045Y-43991D01*
X41045Y-43991D02*
X41714Y-43694D01*
X41714Y-43694D02*
X42430Y-43542D01*
X42430Y-43542D02*
X43160Y-43542D01*
X43160Y-43542D02*
X43876Y-43694D01*
X43876Y-43694D02*
X44545Y-43991D01*
X44545Y-43991D02*
X45136Y-44421D01*
X45136Y-44421D02*
X45626Y-44965D01*
X45626Y-44965D02*
X45992Y-45599D01*
X45992Y-45599D02*
X46218Y-46295D01*
X46218Y-46295D02*
X46295Y-47022D01*
X49826Y-43656D02*
X49164Y-42596D01*
X49164Y-42596D02*
X50012Y-42066D01*
X50012Y-42066D02*
X50939Y-43551D01*
X46487Y-48691D02*
X48263Y-44928D01*
X51151Y-50494D02*
X47547Y-50387D01*
X54119Y-48639D02*
X55603Y-45353D01*
X50939Y-43551D02*
X54543Y-43657D01*
X55860Y-44637D02*
X55783Y-45019D01*
X55783Y-45019D02*
X55567Y-45343D01*
X55567Y-45343D02*
X55243Y-45559D01*
X55243Y-45559D02*
X54861Y-45636D01*
X54861Y-45636D02*
X54479Y-45559D01*
X54479Y-45559D02*
X54155Y-45343D01*
X54155Y-45343D02*
X53939Y-45019D01*
X53939Y-45019D02*
X53862Y-44637D01*
X53862Y-44637D02*
X53939Y-44255D01*
X53939Y-44255D02*
X54155Y-43931D01*
X54155Y-43931D02*
X54479Y-43715D01*
X54479Y-43715D02*
X54861Y-43638D01*
X54861Y-43638D02*
X55243Y-43715D01*
X55243Y-43715D02*
X55567Y-43931D01*
X55567Y-43931D02*
X55783Y-44255D01*
X55783Y-44255D02*
X55860Y-44637D01*
X48229Y-49407D02*
X48152Y-49789D01*
X48152Y-49789D02*
X47936Y-50114D01*
X47936Y-50114D02*
X47611Y-50330D01*
X47611Y-50330D02*
X47229Y-50407D01*
X47229Y-50407D02*
X46847Y-50330D01*
X46847Y-50330D02*
X46522Y-50114D01*
X46522Y-50114D02*
X46306Y-49789D01*
X46306Y-49789D02*
X46229Y-49407D01*
X46229Y-49407D02*
X46306Y-49025D01*
X46306Y-49025D02*
X46522Y-48700D01*
X46522Y-48700D02*
X46847Y-48484D01*
X46847Y-48484D02*
X47229Y-48407D01*
X47229Y-48407D02*
X47611Y-48484D01*
X47611Y-48484D02*
X47936Y-48700D01*
X47936Y-48700D02*
X48152Y-49025D01*
X48152Y-49025D02*
X48229Y-49407D01*
X54545Y-47022D02*
X54468Y-47749D01*
X54468Y-47749D02*
X54242Y-48445D01*
X54242Y-48445D02*
X53876Y-49079D01*
X53876Y-49079D02*
X53386Y-49623D01*
X53386Y-49623D02*
X52795Y-50053D01*
X52795Y-50053D02*
X52126Y-50350D01*
X52126Y-50350D02*
X51410Y-50502D01*
X51410Y-50502D02*
X50680Y-50502D01*
X50680Y-50502D02*
X49964Y-50350D01*
X49964Y-50350D02*
X49295Y-50053D01*
X49295Y-50053D02*
X48704Y-49623D01*
X48704Y-49623D02*
X48214Y-49079D01*
X48214Y-49079D02*
X47848Y-48445D01*
X47848Y-48445D02*
X47622Y-47749D01*
X47622Y-47749D02*
X47545Y-47022D01*
X47545Y-47022D02*
X47622Y-46295D01*
X47622Y-46295D02*
X47848Y-45599D01*
X47848Y-45599D02*
X48214Y-44965D01*
X48214Y-44965D02*
X48704Y-44421D01*
X48704Y-44421D02*
X49295Y-43991D01*
X49295Y-43991D02*
X49964Y-43694D01*
X49964Y-43694D02*
X50680Y-43542D01*
X50680Y-43542D02*
X51410Y-43542D01*
X51410Y-43542D02*
X52126Y-43694D01*
X52126Y-43694D02*
X52795Y-43991D01*
X52795Y-43991D02*
X53386Y-44421D01*
X53386Y-44421D02*
X53876Y-44965D01*
X53876Y-44965D02*
X54242Y-45599D01*
X54242Y-45599D02*
X54468Y-46295D01*
X54468Y-46295D02*
X54545Y-47022D01*
X25076Y-43656D02*
X24414Y-42596D01*
X24414Y-42596D02*
X25262Y-42066D01*
X25262Y-42066D02*
X26189Y-43551D01*
X21737Y-48691D02*
X23513Y-44928D01*
X26401Y-50494D02*
X22797Y-50387D01*
X29369Y-48639D02*
X30853Y-45353D01*
X26189Y-43551D02*
X29793Y-43657D01*
X31110Y-44637D02*
X31033Y-45019D01*
X31033Y-45019D02*
X30817Y-45343D01*
X30817Y-45343D02*
X30493Y-45559D01*
X30493Y-45559D02*
X30111Y-45636D01*
X30111Y-45636D02*
X29729Y-45559D01*
X29729Y-45559D02*
X29405Y-45343D01*
X29405Y-45343D02*
X29189Y-45019D01*
X29189Y-45019D02*
X29112Y-44637D01*
X29112Y-44637D02*
X29189Y-44255D01*
X29189Y-44255D02*
X29405Y-43931D01*
X29405Y-43931D02*
X29729Y-43715D01*
X29729Y-43715D02*
X30111Y-43638D01*
X30111Y-43638D02*
X30493Y-43715D01*
X30493Y-43715D02*
X30817Y-43931D01*
X30817Y-43931D02*
X31033Y-44255D01*
X31033Y-44255D02*
X31110Y-44637D01*
X23479Y-49407D02*
X23402Y-49789D01*
X23402Y-49789D02*
X23186Y-50114D01*
X23186Y-50114D02*
X22861Y-50330D01*
X22861Y-50330D02*
X22479Y-50407D01*
X22479Y-50407D02*
X22097Y-50330D01*
X22097Y-50330D02*
X21772Y-50114D01*
X21772Y-50114D02*
X21556Y-49789D01*
X21556Y-49789D02*
X21479Y-49407D01*
X21479Y-49407D02*
X21556Y-49025D01*
X21556Y-49025D02*
X21772Y-48700D01*
X21772Y-48700D02*
X22097Y-48484D01*
X22097Y-48484D02*
X22479Y-48407D01*
X22479Y-48407D02*
X22861Y-48484D01*
X22861Y-48484D02*
X23186Y-48700D01*
X23186Y-48700D02*
X23402Y-49025D01*
X23402Y-49025D02*
X23479Y-49407D01*
X29795Y-47022D02*
X29718Y-47749D01*
X29718Y-47749D02*
X29492Y-48445D01*
X29492Y-48445D02*
X29126Y-49079D01*
X29126Y-49079D02*
X28636Y-49623D01*
X28636Y-49623D02*
X28045Y-50053D01*
X28045Y-50053D02*
X27376Y-50350D01*
X27376Y-50350D02*
X26660Y-50502D01*
X26660Y-50502D02*
X25930Y-50502D01*
X25930Y-50502D02*
X25214Y-50350D01*
X25214Y-50350D02*
X24545Y-50053D01*
X24545Y-50053D02*
X23954Y-49623D01*
X23954Y-49623D02*
X23464Y-49079D01*
X23464Y-49079D02*
X23098Y-48445D01*
X23098Y-48445D02*
X22872Y-47749D01*
X22872Y-47749D02*
X22795Y-47022D01*
X22795Y-47022D02*
X22872Y-46295D01*
X22872Y-46295D02*
X23098Y-45599D01*
X23098Y-45599D02*
X23464Y-44965D01*
X23464Y-44965D02*
X23954Y-44421D01*
X23954Y-44421D02*
X24545Y-43991D01*
X24545Y-43991D02*
X25214Y-43694D01*
X25214Y-43694D02*
X25930Y-43542D01*
X25930Y-43542D02*
X26660Y-43542D01*
X26660Y-43542D02*
X27376Y-43694D01*
X27376Y-43694D02*
X28045Y-43991D01*
X28045Y-43991D02*
X28636Y-44421D01*
X28636Y-44421D02*
X29126Y-44965D01*
X29126Y-44965D02*
X29492Y-45599D01*
X29492Y-45599D02*
X29718Y-46295D01*
X29718Y-46295D02*
X29795Y-47022D01*
X49826Y-43656D02*
X49164Y-42596D01*
X49164Y-42596D02*
X50012Y-42066D01*
X50012Y-42066D02*
X50939Y-43551D01*
X46487Y-48691D02*
X48263Y-44928D01*
X51151Y-50494D02*
X47547Y-50387D01*
X54119Y-48639D02*
X55603Y-45353D01*
X50939Y-43551D02*
X54543Y-43657D01*
X55860Y-44637D02*
X55783Y-45019D01*
X55783Y-45019D02*
X55567Y-45343D01*
X55567Y-45343D02*
X55243Y-45559D01*
X55243Y-45559D02*
X54861Y-45636D01*
X54861Y-45636D02*
X54479Y-45559D01*
X54479Y-45559D02*
X54155Y-45343D01*
X54155Y-45343D02*
X53939Y-45019D01*
X53939Y-45019D02*
X53862Y-44637D01*
X53862Y-44637D02*
X53939Y-44255D01*
X53939Y-44255D02*
X54155Y-43931D01*
X54155Y-43931D02*
X54479Y-43715D01*
X54479Y-43715D02*
X54861Y-43638D01*
X54861Y-43638D02*
X55243Y-43715D01*
X55243Y-43715D02*
X55567Y-43931D01*
X55567Y-43931D02*
X55783Y-44255D01*
X55783Y-44255D02*
X55860Y-44637D01*
X48229Y-49407D02*
X48152Y-49789D01*
X48152Y-49789D02*
X47936Y-50114D01*
X47936Y-50114D02*
X47611Y-50330D01*
X47611Y-50330D02*
X47229Y-50407D01*
X47229Y-50407D02*
X46847Y-50330D01*
X46847Y-50330D02*
X46522Y-50114D01*
X46522Y-50114D02*
X46306Y-49789D01*
X46306Y-49789D02*
X46229Y-49407D01*
X46229Y-49407D02*
X46306Y-49025D01*
X46306Y-49025D02*
X46522Y-48700D01*
X46522Y-48700D02*
X46847Y-48484D01*
X46847Y-48484D02*
X47229Y-48407D01*
X47229Y-48407D02*
X47611Y-48484D01*
X47611Y-48484D02*
X47936Y-48700D01*
X47936Y-48700D02*
X48152Y-49025D01*
X48152Y-49025D02*
X48229Y-49407D01*
X54545Y-47022D02*
X54468Y-47749D01*
X54468Y-47749D02*
X54242Y-48445D01*
X54242Y-48445D02*
X53876Y-49079D01*
X53876Y-49079D02*
X53386Y-49623D01*
X53386Y-49623D02*
X52795Y-50053D01*
X52795Y-50053D02*
X52126Y-50350D01*
X52126Y-50350D02*
X51410Y-50502D01*
X51410Y-50502D02*
X50680Y-50502D01*
X50680Y-50502D02*
X49964Y-50350D01*
X49964Y-50350D02*
X49295Y-50053D01*
X49295Y-50053D02*
X48704Y-49623D01*
X48704Y-49623D02*
X48214Y-49079D01*
X48214Y-49079D02*
X47848Y-48445D01*
X47848Y-48445D02*
X47622Y-47749D01*
X47622Y-47749D02*
X47545Y-47022D01*
X47545Y-47022D02*
X47622Y-46295D01*
X47622Y-46295D02*
X47848Y-45599D01*
X47848Y-45599D02*
X48214Y-44965D01*
X48214Y-44965D02*
X48704Y-44421D01*
X48704Y-44421D02*
X49295Y-43991D01*
X49295Y-43991D02*
X49964Y-43694D01*
X49964Y-43694D02*
X50680Y-43542D01*
X50680Y-43542D02*
X51410Y-43542D01*
X51410Y-43542D02*
X52126Y-43694D01*
X52126Y-43694D02*
X52795Y-43991D01*
X52795Y-43991D02*
X53386Y-44421D01*
X53386Y-44421D02*
X53876Y-44965D01*
X53876Y-44965D02*
X54242Y-45599D01*
X54242Y-45599D02*
X54468Y-46295D01*
X54468Y-46295D02*
X54545Y-47022D01*
X41576Y-43656D02*
X40914Y-42596D01*
X40914Y-42596D02*
X41762Y-42066D01*
X41762Y-42066D02*
X42689Y-43551D01*
X38237Y-48691D02*
X40013Y-44928D01*
X42901Y-50494D02*
X39297Y-50387D01*
X45869Y-48639D02*
X47353Y-45353D01*
X42689Y-43551D02*
X46293Y-43657D01*
X47610Y-44637D02*
X47533Y-45019D01*
X47533Y-45019D02*
X47317Y-45343D01*
X47317Y-45343D02*
X46993Y-45559D01*
X46993Y-45559D02*
X46611Y-45636D01*
X46611Y-45636D02*
X46229Y-45559D01*
X46229Y-45559D02*
X45905Y-45343D01*
X45905Y-45343D02*
X45689Y-45019D01*
X45689Y-45019D02*
X45612Y-44637D01*
X45612Y-44637D02*
X45689Y-44255D01*
X45689Y-44255D02*
X45905Y-43931D01*
X45905Y-43931D02*
X46229Y-43715D01*
X46229Y-43715D02*
X46611Y-43638D01*
X46611Y-43638D02*
X46993Y-43715D01*
X46993Y-43715D02*
X47317Y-43931D01*
X47317Y-43931D02*
X47533Y-44255D01*
X47533Y-44255D02*
X47610Y-44637D01*
X39979Y-49407D02*
X39902Y-49789D01*
X39902Y-49789D02*
X39686Y-50114D01*
X39686Y-50114D02*
X39361Y-50330D01*
X39361Y-50330D02*
X38979Y-50407D01*
X38979Y-50407D02*
X38597Y-50330D01*
X38597Y-50330D02*
X38272Y-50114D01*
X38272Y-50114D02*
X38056Y-49789D01*
X38056Y-49789D02*
X37979Y-49407D01*
X37979Y-49407D02*
X38056Y-49025D01*
X38056Y-49025D02*
X38272Y-48700D01*
X38272Y-48700D02*
X38597Y-48484D01*
X38597Y-48484D02*
X38979Y-48407D01*
X38979Y-48407D02*
X39361Y-48484D01*
X39361Y-48484D02*
X39686Y-48700D01*
X39686Y-48700D02*
X39902Y-49025D01*
X39902Y-49025D02*
X39979Y-49407D01*
X46295Y-47022D02*
X46218Y-47749D01*
X46218Y-47749D02*
X45992Y-48445D01*
X45992Y-48445D02*
X45626Y-49079D01*
X45626Y-49079D02*
X45136Y-49623D01*
X45136Y-49623D02*
X44545Y-50053D01*
X44545Y-50053D02*
X43876Y-50350D01*
X43876Y-50350D02*
X43160Y-50502D01*
X43160Y-50502D02*
X42430Y-50502D01*
X42430Y-50502D02*
X41714Y-50350D01*
X41714Y-50350D02*
X41045Y-50053D01*
X41045Y-50053D02*
X40454Y-49623D01*
X40454Y-49623D02*
X39964Y-49079D01*
X39964Y-49079D02*
X39598Y-48445D01*
X39598Y-48445D02*
X39372Y-47749D01*
X39372Y-47749D02*
X39295Y-47022D01*
X39295Y-47022D02*
X39372Y-46295D01*
X39372Y-46295D02*
X39598Y-45599D01*
X39598Y-45599D02*
X39964Y-44965D01*
X39964Y-44965D02*
X40454Y-44421D01*
X40454Y-44421D02*
X41045Y-43991D01*
X41045Y-43991D02*
X41714Y-43694D01*
X41714Y-43694D02*
X42430Y-43542D01*
X42430Y-43542D02*
X43160Y-43542D01*
X43160Y-43542D02*
X43876Y-43694D01*
X43876Y-43694D02*
X44545Y-43991D01*
X44545Y-43991D02*
X45136Y-44421D01*
X45136Y-44421D02*
X45626Y-44965D01*
X45626Y-44965D02*
X45992Y-45599D01*
X45992Y-45599D02*
X46218Y-46295D01*
X46218Y-46295D02*
X46295Y-47022D01*
X33326Y-43656D02*
X32664Y-42596D01*
X32664Y-42596D02*
X33512Y-42066D01*
X33512Y-42066D02*
X34439Y-43551D01*
X29987Y-48691D02*
X31763Y-44928D01*
X34651Y-50494D02*
X31047Y-50387D01*
X37619Y-48639D02*
X39103Y-45353D01*
X34439Y-43551D02*
X38043Y-43657D01*
X39360Y-44637D02*
X39283Y-45019D01*
X39283Y-45019D02*
X39067Y-45343D01*
X39067Y-45343D02*
X38743Y-45559D01*
X38743Y-45559D02*
X38361Y-45636D01*
X38361Y-45636D02*
X37979Y-45559D01*
X37979Y-45559D02*
X37655Y-45343D01*
X37655Y-45343D02*
X37439Y-45019D01*
X37439Y-45019D02*
X37362Y-44637D01*
X37362Y-44637D02*
X37439Y-44255D01*
X37439Y-44255D02*
X37655Y-43931D01*
X37655Y-43931D02*
X37979Y-43715D01*
X37979Y-43715D02*
X38361Y-43638D01*
X38361Y-43638D02*
X38743Y-43715D01*
X38743Y-43715D02*
X39067Y-43931D01*
X39067Y-43931D02*
X39283Y-44255D01*
X39283Y-44255D02*
X39360Y-44637D01*
X31729Y-49407D02*
X31652Y-49789D01*
X31652Y-49789D02*
X31436Y-50114D01*
X31436Y-50114D02*
X31111Y-50330D01*
X31111Y-50330D02*
X30729Y-50407D01*
X30729Y-50407D02*
X30347Y-50330D01*
X30347Y-50330D02*
X30022Y-50114D01*
X30022Y-50114D02*
X29806Y-49789D01*
X29806Y-49789D02*
X29729Y-49407D01*
X29729Y-49407D02*
X29806Y-49025D01*
X29806Y-49025D02*
X30022Y-48700D01*
X30022Y-48700D02*
X30347Y-48484D01*
X30347Y-48484D02*
X30729Y-48407D01*
X30729Y-48407D02*
X31111Y-48484D01*
X31111Y-48484D02*
X31436Y-48700D01*
X31436Y-48700D02*
X31652Y-49025D01*
X31652Y-49025D02*
X31729Y-49407D01*
X38045Y-47022D02*
X37968Y-47749D01*
X37968Y-47749D02*
X37742Y-48445D01*
X37742Y-48445D02*
X37376Y-49079D01*
X37376Y-49079D02*
X36886Y-49623D01*
X36886Y-49623D02*
X36295Y-50053D01*
X36295Y-50053D02*
X35626Y-50350D01*
X35626Y-50350D02*
X34910Y-50502D01*
X34910Y-50502D02*
X34180Y-50502D01*
X34180Y-50502D02*
X33464Y-50350D01*
X33464Y-50350D02*
X32795Y-50053D01*
X32795Y-50053D02*
X32204Y-49623D01*
X32204Y-49623D02*
X31714Y-49079D01*
X31714Y-49079D02*
X31348Y-48445D01*
X31348Y-48445D02*
X31122Y-47749D01*
X31122Y-47749D02*
X31045Y-47022D01*
X31045Y-47022D02*
X31122Y-46295D01*
X31122Y-46295D02*
X31348Y-45599D01*
X31348Y-45599D02*
X31714Y-44965D01*
X31714Y-44965D02*
X32204Y-44421D01*
X32204Y-44421D02*
X32795Y-43991D01*
X32795Y-43991D02*
X33464Y-43694D01*
X33464Y-43694D02*
X34180Y-43542D01*
X34180Y-43542D02*
X34910Y-43542D01*
X34910Y-43542D02*
X35626Y-43694D01*
X35626Y-43694D02*
X36295Y-43991D01*
X36295Y-43991D02*
X36886Y-44421D01*
X36886Y-44421D02*
X37376Y-44965D01*
X37376Y-44965D02*
X37742Y-45599D01*
X37742Y-45599D02*
X37968Y-46295D01*
X37968Y-46295D02*
X38045Y-47022D01*
G54D32*
X29100Y-51400D02*
X29075Y-51443D01*
X29075Y-51443D02*
X29025Y-51443D01*
X29025Y-51443D02*
X29000Y-51400D01*
X29000Y-51400D02*
X29025Y-51357D01*
X29025Y-51357D02*
X29075Y-51357D01*
X29075Y-51357D02*
X29100Y-51400D01*
X29050Y-50950D02*
X29050Y-51350D01*
X29050Y-51350D02*
X28450Y-51350D01*
X28450Y-51350D02*
X28450Y-50950D01*
X28450Y-50550D02*
X28450Y-50150D01*
X28450Y-50150D02*
X29050Y-50150D01*
X29050Y-50150D02*
X29050Y-50550D01*
X51250Y-50600D02*
X51225Y-50643D01*
X51225Y-50643D02*
X51175Y-50643D01*
X51175Y-50643D02*
X51150Y-50600D01*
X51150Y-50600D02*
X51175Y-50557D01*
X51175Y-50557D02*
X51225Y-50557D01*
X51225Y-50557D02*
X51250Y-50600D01*
X51200Y-51050D02*
X51200Y-50650D01*
X51200Y-50650D02*
X51800Y-50650D01*
X51800Y-50650D02*
X51800Y-51050D01*
X51800Y-51450D02*
X51800Y-51850D01*
X51800Y-51850D02*
X51200Y-51850D01*
X51200Y-51850D02*
X51200Y-51450D01*
X33100Y-51900D02*
X33075Y-51943D01*
X33075Y-51943D02*
X33025Y-51943D01*
X33025Y-51943D02*
X33000Y-51900D01*
X33000Y-51900D02*
X33025Y-51857D01*
X33025Y-51857D02*
X33075Y-51857D01*
X33075Y-51857D02*
X33100Y-51900D01*
X33050Y-51450D02*
X33050Y-51850D01*
X33050Y-51850D02*
X32450Y-51850D01*
X32450Y-51850D02*
X32450Y-51450D01*
X32450Y-51050D02*
X32450Y-50650D01*
X32450Y-50650D02*
X33050Y-50650D01*
X33050Y-50650D02*
X33050Y-51050D01*
X39600Y-51900D02*
X39575Y-51943D01*
X39575Y-51943D02*
X39525Y-51943D01*
X39525Y-51943D02*
X39500Y-51900D01*
X39500Y-51900D02*
X39525Y-51857D01*
X39525Y-51857D02*
X39575Y-51857D01*
X39575Y-51857D02*
X39600Y-51900D01*
X39550Y-51450D02*
X39550Y-51850D01*
X39550Y-51850D02*
X38950Y-51850D01*
X38950Y-51850D02*
X38950Y-51450D01*
X38950Y-51050D02*
X38950Y-50650D01*
X38950Y-50650D02*
X39550Y-50650D01*
X39550Y-50650D02*
X39550Y-51050D01*
X31350Y-51900D02*
X31325Y-51943D01*
X31325Y-51943D02*
X31275Y-51943D01*
X31275Y-51943D02*
X31250Y-51900D01*
X31250Y-51900D02*
X31275Y-51857D01*
X31275Y-51857D02*
X31325Y-51857D01*
X31325Y-51857D02*
X31350Y-51900D01*
X31300Y-51450D02*
X31300Y-51850D01*
X31300Y-51850D02*
X30700Y-51850D01*
X30700Y-51850D02*
X30700Y-51450D01*
X30700Y-51050D02*
X30700Y-50650D01*
X30700Y-50650D02*
X31300Y-50650D01*
X31300Y-50650D02*
X31300Y-51050D01*
X41350Y-51900D02*
X41325Y-51943D01*
X41325Y-51943D02*
X41275Y-51943D01*
X41275Y-51943D02*
X41250Y-51900D01*
X41250Y-51900D02*
X41275Y-51857D01*
X41275Y-51857D02*
X41325Y-51857D01*
X41325Y-51857D02*
X41350Y-51900D01*
X41300Y-51450D02*
X41300Y-51850D01*
X41300Y-51850D02*
X40700Y-51850D01*
X40700Y-51850D02*
X40700Y-51450D01*
X40700Y-51050D02*
X40700Y-50650D01*
X40700Y-50650D02*
X41300Y-50650D01*
X41300Y-50650D02*
X41300Y-51050D01*
X43000Y-50600D02*
X42975Y-50643D01*
X42975Y-50643D02*
X42925Y-50643D01*
X42925Y-50643D02*
X42900Y-50600D01*
X42900Y-50600D02*
X42925Y-50557D01*
X42925Y-50557D02*
X42975Y-50557D01*
X42975Y-50557D02*
X43000Y-50600D01*
X42950Y-51050D02*
X42950Y-50650D01*
X42950Y-50650D02*
X43550Y-50650D01*
X43550Y-50650D02*
X43550Y-51050D01*
X43550Y-51450D02*
X43550Y-51850D01*
X43550Y-51850D02*
X42950Y-51850D01*
X42950Y-51850D02*
X42950Y-51450D01*
X34750Y-50600D02*
X34725Y-50643D01*
X34725Y-50643D02*
X34675Y-50643D01*
X34675Y-50643D02*
X34650Y-50600D01*
X34650Y-50600D02*
X34675Y-50557D01*
X34675Y-50557D02*
X34725Y-50557D01*
X34725Y-50557D02*
X34750Y-50600D01*
X34700Y-51050D02*
X34700Y-50650D01*
X34700Y-50650D02*
X35300Y-50650D01*
X35300Y-50650D02*
X35300Y-51050D01*
X35300Y-51450D02*
X35300Y-51850D01*
X35300Y-51850D02*
X34700Y-51850D01*
X34700Y-51850D02*
X34700Y-51450D01*
G54D31*
X21250Y-43250D02*
X22250Y-43250D01*
X22250Y-43250D02*
X22250Y-48250D01*
X22250Y-48250D02*
X21250Y-48250D01*
X21250Y-48250D02*
X21250Y-43250D01*
X21250Y-44250D02*
X22250Y-44250D01*
G54D32*
X47850Y-51900D02*
X47825Y-51943D01*
X47825Y-51943D02*
X47775Y-51943D01*
X47775Y-51943D02*
X47750Y-51900D01*
X47750Y-51900D02*
X47775Y-51857D01*
X47775Y-51857D02*
X47825Y-51857D01*
X47825Y-51857D02*
X47850Y-51900D01*
X47800Y-51450D02*
X47800Y-51850D01*
X47800Y-51850D02*
X47200Y-51850D01*
X47200Y-51850D02*
X47200Y-51450D01*
X47200Y-51050D02*
X47200Y-50650D01*
X47200Y-50650D02*
X47800Y-50650D01*
X47800Y-50650D02*
X47800Y-51050D01*
X26500Y-51600D02*
X26475Y-51643D01*
X26475Y-51643D02*
X26425Y-51643D01*
X26425Y-51643D02*
X26400Y-51600D01*
X26400Y-51600D02*
X26425Y-51557D01*
X26425Y-51557D02*
X26475Y-51557D01*
X26475Y-51557D02*
X26500Y-51600D01*
X26450Y-52050D02*
X26450Y-51650D01*
X26450Y-51650D02*
X27050Y-51650D01*
X27050Y-51650D02*
X27050Y-52050D01*
X27050Y-52450D02*
X27050Y-52850D01*
X27050Y-52850D02*
X26450Y-52850D01*
X26450Y-52850D02*
X26450Y-52450D01*
X23950Y-44700D02*
X23925Y-44743D01*
X23925Y-44743D02*
X23875Y-44743D01*
X23875Y-44743D02*
X23850Y-44700D01*
X23850Y-44700D02*
X23875Y-44657D01*
X23875Y-44657D02*
X23925Y-44657D01*
X23925Y-44657D02*
X23950Y-44700D01*
X23450Y-44700D02*
X23850Y-44700D01*
X23850Y-44700D02*
X23850Y-45300D01*
X23850Y-45300D02*
X23450Y-45300D01*
X23050Y-45300D02*
X22650Y-45300D01*
X22650Y-45300D02*
X22650Y-44700D01*
X22650Y-44700D02*
X23050Y-44700D01*
X25900Y-50050D02*
X25875Y-50093D01*
X25875Y-50093D02*
X25825Y-50093D01*
X25825Y-50093D02*
X25800Y-50050D01*
X25800Y-50050D02*
X25825Y-50007D01*
X25825Y-50007D02*
X25875Y-50007D01*
X25875Y-50007D02*
X25900Y-50050D01*
X26300Y-50050D02*
X25900Y-50050D01*
X25900Y-50050D02*
X25900Y-49450D01*
X25900Y-49450D02*
X26300Y-49450D01*
X26700Y-49450D02*
X27100Y-49450D01*
X27100Y-49450D02*
X27100Y-50050D01*
X27100Y-50050D02*
X26700Y-50050D01*
X28250Y-43850D02*
X28225Y-43893D01*
X28225Y-43893D02*
X28175Y-43893D01*
X28175Y-43893D02*
X28150Y-43850D01*
X28150Y-43850D02*
X28175Y-43807D01*
X28175Y-43807D02*
X28225Y-43807D01*
X28225Y-43807D02*
X28250Y-43850D01*
X28200Y-44300D02*
X28200Y-43900D01*
X28200Y-43900D02*
X28800Y-43900D01*
X28800Y-43900D02*
X28800Y-44300D01*
X28800Y-44700D02*
X28800Y-45100D01*
X28800Y-45100D02*
X28200Y-45100D01*
X28200Y-45100D02*
X28200Y-44700D01*
X27750Y-50850D02*
X27725Y-50893D01*
X27725Y-50893D02*
X27675Y-50893D01*
X27675Y-50893D02*
X27650Y-50850D01*
X27650Y-50850D02*
X27675Y-50807D01*
X27675Y-50807D02*
X27725Y-50807D01*
X27725Y-50807D02*
X27750Y-50850D01*
X27700Y-51300D02*
X27700Y-50900D01*
X27700Y-50900D02*
X28300Y-50900D01*
X28300Y-50900D02*
X28300Y-51300D01*
X28300Y-51700D02*
X28300Y-52100D01*
X28300Y-52100D02*
X27700Y-52100D01*
X27700Y-52100D02*
X27700Y-51700D01*
X49600Y-51900D02*
X49575Y-51943D01*
X49575Y-51943D02*
X49525Y-51943D01*
X49525Y-51943D02*
X49500Y-51900D01*
X49500Y-51900D02*
X49525Y-51857D01*
X49525Y-51857D02*
X49575Y-51857D01*
X49575Y-51857D02*
X49600Y-51900D01*
X49550Y-51450D02*
X49550Y-51850D01*
X49550Y-51850D02*
X48950Y-51850D01*
X48950Y-51850D02*
X48950Y-51450D01*
X48950Y-51050D02*
X48950Y-50650D01*
X48950Y-50650D02*
X49550Y-50650D01*
X49550Y-50650D02*
X49550Y-51050D01*
G54D21*
X28250Y-45250D02*
X28250Y-45750D01*
X28250Y-45750D02*
X27250Y-45750D01*
X27250Y-45750D02*
X27250Y-45250D01*
X28750Y-45250D02*
X28750Y-49250D01*
X28750Y-49250D02*
X26750Y-49250D01*
X26750Y-49250D02*
X26750Y-45250D01*
X26750Y-45250D02*
X28750Y-45250D01*
G54D10*
X22750Y-50500D02*
X23000Y-50500D01*
X23000Y-50500D02*
X23000Y-54500D01*
X23000Y-54500D02*
X22750Y-54500D01*
X21250Y-50500D02*
X22750Y-50500D01*
X22750Y-50500D02*
X22750Y-54500D01*
X22750Y-54500D02*
X21250Y-54500D01*
X21250Y-54500D02*
X21250Y-50500D01*
G54D32*
X28150Y-46100D02*
X28100Y-46100D01*
X28100Y-46100D02*
X28100Y-48200D01*
X29600Y-48200D02*
X29600Y-46100D01*
X29600Y-46100D02*
X28150Y-46100D01*
X29050Y-46100D02*
X29050Y-46300D01*
X29050Y-46300D02*
X28650Y-46300D01*
X28650Y-46300D02*
X28650Y-46100D01*
X29600Y-48200D02*
X28100Y-48200D01*
G54D33*
X24050Y-54250D02*
X24043Y-54312D01*
X24043Y-54312D02*
X24024Y-54372D01*
X24024Y-54372D02*
X23992Y-54426D01*
X23992Y-54426D02*
X23950Y-54472D01*
X23950Y-54472D02*
X23900Y-54509D01*
X23900Y-54509D02*
X23842Y-54535D01*
X23842Y-54535D02*
X23781Y-54548D01*
X23781Y-54548D02*
X23719Y-54548D01*
X23719Y-54548D02*
X23658Y-54535D01*
X23658Y-54535D02*
X23600Y-54509D01*
X23600Y-54509D02*
X23550Y-54472D01*
X23550Y-54472D02*
X23508Y-54426D01*
X23508Y-54426D02*
X23476Y-54372D01*
X23476Y-54372D02*
X23457Y-54312D01*
X23457Y-54312D02*
X23450Y-54250D01*
X23450Y-54250D02*
X23457Y-54188D01*
X23457Y-54188D02*
X23476Y-54128D01*
X23476Y-54128D02*
X23508Y-54074D01*
X23508Y-54074D02*
X23550Y-54028D01*
X23550Y-54028D02*
X23600Y-53991D01*
X23600Y-53991D02*
X23658Y-53965D01*
X23658Y-53965D02*
X23719Y-53952D01*
X23719Y-53952D02*
X23781Y-53952D01*
X23781Y-53952D02*
X23842Y-53965D01*
X23842Y-53965D02*
X23900Y-53991D01*
X23900Y-53991D02*
X23950Y-54028D01*
X23950Y-54028D02*
X23992Y-54074D01*
X23992Y-54074D02*
X24024Y-54128D01*
X24024Y-54128D02*
X24043Y-54188D01*
X24043Y-54188D02*
X24050Y-54250D01*
X28050Y-54250D02*
X28043Y-54312D01*
X28043Y-54312D02*
X28024Y-54372D01*
X28024Y-54372D02*
X27992Y-54426D01*
X27992Y-54426D02*
X27950Y-54472D01*
X27950Y-54472D02*
X27900Y-54509D01*
X27900Y-54509D02*
X27842Y-54535D01*
X27842Y-54535D02*
X27781Y-54548D01*
X27781Y-54548D02*
X27719Y-54548D01*
X27719Y-54548D02*
X27658Y-54535D01*
X27658Y-54535D02*
X27600Y-54509D01*
X27600Y-54509D02*
X27550Y-54472D01*
X27550Y-54472D02*
X27508Y-54426D01*
X27508Y-54426D02*
X27476Y-54372D01*
X27476Y-54372D02*
X27457Y-54312D01*
X27457Y-54312D02*
X27450Y-54250D01*
X27450Y-54250D02*
X27457Y-54188D01*
X27457Y-54188D02*
X27476Y-54128D01*
X27476Y-54128D02*
X27508Y-54074D01*
X27508Y-54074D02*
X27550Y-54028D01*
X27550Y-54028D02*
X27600Y-53991D01*
X27600Y-53991D02*
X27658Y-53965D01*
X27658Y-53965D02*
X27719Y-53952D01*
X27719Y-53952D02*
X27781Y-53952D01*
X27781Y-53952D02*
X27842Y-53965D01*
X27842Y-53965D02*
X27900Y-53991D01*
X27900Y-53991D02*
X27950Y-54028D01*
X27950Y-54028D02*
X27992Y-54074D01*
X27992Y-54074D02*
X28024Y-54128D01*
X28024Y-54128D02*
X28043Y-54188D01*
X28043Y-54188D02*
X28050Y-54250D01*
X24050Y-45750D02*
X24043Y-45812D01*
X24043Y-45812D02*
X24024Y-45872D01*
X24024Y-45872D02*
X23992Y-45926D01*
X23992Y-45926D02*
X23950Y-45972D01*
X23950Y-45972D02*
X23900Y-46009D01*
X23900Y-46009D02*
X23842Y-46035D01*
X23842Y-46035D02*
X23781Y-46048D01*
X23781Y-46048D02*
X23719Y-46048D01*
X23719Y-46048D02*
X23658Y-46035D01*
X23658Y-46035D02*
X23600Y-46009D01*
X23600Y-46009D02*
X23550Y-45972D01*
X23550Y-45972D02*
X23508Y-45926D01*
X23508Y-45926D02*
X23476Y-45872D01*
X23476Y-45872D02*
X23457Y-45812D01*
X23457Y-45812D02*
X23450Y-45750D01*
X23450Y-45750D02*
X23457Y-45688D01*
X23457Y-45688D02*
X23476Y-45628D01*
X23476Y-45628D02*
X23508Y-45574D01*
X23508Y-45574D02*
X23550Y-45528D01*
X23550Y-45528D02*
X23600Y-45491D01*
X23600Y-45491D02*
X23658Y-45465D01*
X23658Y-45465D02*
X23719Y-45452D01*
X23719Y-45452D02*
X23781Y-45452D01*
X23781Y-45452D02*
X23842Y-45465D01*
X23842Y-45465D02*
X23900Y-45491D01*
X23900Y-45491D02*
X23950Y-45528D01*
X23950Y-45528D02*
X23992Y-45574D01*
X23992Y-45574D02*
X24024Y-45628D01*
X24024Y-45628D02*
X24043Y-45688D01*
X24043Y-45688D02*
X24050Y-45750D01*
X24050Y-49750D02*
X24043Y-49812D01*
X24043Y-49812D02*
X24024Y-49872D01*
X24024Y-49872D02*
X23992Y-49926D01*
X23992Y-49926D02*
X23950Y-49972D01*
X23950Y-49972D02*
X23900Y-50009D01*
X23900Y-50009D02*
X23842Y-50035D01*
X23842Y-50035D02*
X23781Y-50048D01*
X23781Y-50048D02*
X23719Y-50048D01*
X23719Y-50048D02*
X23658Y-50035D01*
X23658Y-50035D02*
X23600Y-50009D01*
X23600Y-50009D02*
X23550Y-49972D01*
X23550Y-49972D02*
X23508Y-49926D01*
X23508Y-49926D02*
X23476Y-49872D01*
X23476Y-49872D02*
X23457Y-49812D01*
X23457Y-49812D02*
X23450Y-49750D01*
X23450Y-49750D02*
X23457Y-49688D01*
X23457Y-49688D02*
X23476Y-49628D01*
X23476Y-49628D02*
X23508Y-49574D01*
X23508Y-49574D02*
X23550Y-49528D01*
X23550Y-49528D02*
X23600Y-49491D01*
X23600Y-49491D02*
X23658Y-49465D01*
X23658Y-49465D02*
X23719Y-49452D01*
X23719Y-49452D02*
X23781Y-49452D01*
X23781Y-49452D02*
X23842Y-49465D01*
X23842Y-49465D02*
X23900Y-49491D01*
X23900Y-49491D02*
X23950Y-49528D01*
X23950Y-49528D02*
X23992Y-49574D01*
X23992Y-49574D02*
X24024Y-49628D01*
X24024Y-49628D02*
X24043Y-49688D01*
X24043Y-49688D02*
X24050Y-49750D01*
X23050Y-43750D02*
X23043Y-43812D01*
X23043Y-43812D02*
X23024Y-43872D01*
X23024Y-43872D02*
X22992Y-43926D01*
X22992Y-43926D02*
X22950Y-43972D01*
X22950Y-43972D02*
X22900Y-44009D01*
X22900Y-44009D02*
X22842Y-44035D01*
X22842Y-44035D02*
X22781Y-44048D01*
X22781Y-44048D02*
X22719Y-44048D01*
X22719Y-44048D02*
X22658Y-44035D01*
X22658Y-44035D02*
X22600Y-44009D01*
X22600Y-44009D02*
X22550Y-43972D01*
X22550Y-43972D02*
X22508Y-43926D01*
X22508Y-43926D02*
X22476Y-43872D01*
X22476Y-43872D02*
X22457Y-43812D01*
X22457Y-43812D02*
X22450Y-43750D01*
X22450Y-43750D02*
X22457Y-43688D01*
X22457Y-43688D02*
X22476Y-43628D01*
X22476Y-43628D02*
X22508Y-43574D01*
X22508Y-43574D02*
X22550Y-43528D01*
X22550Y-43528D02*
X22600Y-43491D01*
X22600Y-43491D02*
X22658Y-43465D01*
X22658Y-43465D02*
X22719Y-43452D01*
X22719Y-43452D02*
X22781Y-43452D01*
X22781Y-43452D02*
X22842Y-43465D01*
X22842Y-43465D02*
X22900Y-43491D01*
X22900Y-43491D02*
X22950Y-43528D01*
X22950Y-43528D02*
X22992Y-43574D01*
X22992Y-43574D02*
X23024Y-43628D01*
X23024Y-43628D02*
X23043Y-43688D01*
X23043Y-43688D02*
X23050Y-43750D01*
X27050Y-43750D02*
X27043Y-43812D01*
X27043Y-43812D02*
X27024Y-43872D01*
X27024Y-43872D02*
X26992Y-43926D01*
X26992Y-43926D02*
X26950Y-43972D01*
X26950Y-43972D02*
X26900Y-44009D01*
X26900Y-44009D02*
X26842Y-44035D01*
X26842Y-44035D02*
X26781Y-44048D01*
X26781Y-44048D02*
X26719Y-44048D01*
X26719Y-44048D02*
X26658Y-44035D01*
X26658Y-44035D02*
X26600Y-44009D01*
X26600Y-44009D02*
X26550Y-43972D01*
X26550Y-43972D02*
X26508Y-43926D01*
X26508Y-43926D02*
X26476Y-43872D01*
X26476Y-43872D02*
X26457Y-43812D01*
X26457Y-43812D02*
X26450Y-43750D01*
X26450Y-43750D02*
X26457Y-43688D01*
X26457Y-43688D02*
X26476Y-43628D01*
X26476Y-43628D02*
X26508Y-43574D01*
X26508Y-43574D02*
X26550Y-43528D01*
X26550Y-43528D02*
X26600Y-43491D01*
X26600Y-43491D02*
X26658Y-43465D01*
X26658Y-43465D02*
X26719Y-43452D01*
X26719Y-43452D02*
X26781Y-43452D01*
X26781Y-43452D02*
X26842Y-43465D01*
X26842Y-43465D02*
X26900Y-43491D01*
X26900Y-43491D02*
X26950Y-43528D01*
X26950Y-43528D02*
X26992Y-43574D01*
X26992Y-43574D02*
X27024Y-43628D01*
X27024Y-43628D02*
X27043Y-43688D01*
X27043Y-43688D02*
X27050Y-43750D01*
X30350Y-54250D02*
X30342Y-54322D01*
X30342Y-54322D02*
X30319Y-54392D01*
X30319Y-54392D02*
X30283Y-54455D01*
X30283Y-54455D02*
X30234Y-54510D01*
X30234Y-54510D02*
X30175Y-54553D01*
X30175Y-54553D02*
X30108Y-54582D01*
X30108Y-54582D02*
X30036Y-54598D01*
X30036Y-54598D02*
X29964Y-54598D01*
X29964Y-54598D02*
X29892Y-54582D01*
X29892Y-54582D02*
X29825Y-54553D01*
X29825Y-54553D02*
X29766Y-54510D01*
X29766Y-54510D02*
X29717Y-54455D01*
X29717Y-54455D02*
X29681Y-54392D01*
X29681Y-54392D02*
X29658Y-54322D01*
X29658Y-54322D02*
X29650Y-54250D01*
X29650Y-54250D02*
X29658Y-54178D01*
X29658Y-54178D02*
X29681Y-54108D01*
X29681Y-54108D02*
X29717Y-54045D01*
X29717Y-54045D02*
X29766Y-53990D01*
X29766Y-53990D02*
X29825Y-53947D01*
X29825Y-53947D02*
X29892Y-53918D01*
X29892Y-53918D02*
X29964Y-53902D01*
X29964Y-53902D02*
X30036Y-53902D01*
X30036Y-53902D02*
X30108Y-53918D01*
X30108Y-53918D02*
X30175Y-53947D01*
X30175Y-53947D02*
X30234Y-53990D01*
X30234Y-53990D02*
X30283Y-54045D01*
X30283Y-54045D02*
X30319Y-54108D01*
X30319Y-54108D02*
X30342Y-54178D01*
X30342Y-54178D02*
X30350Y-54250D01*
X33650Y-54600D02*
X33650Y-53900D01*
X33650Y-53900D02*
X34350Y-53900D01*
X34350Y-53900D02*
X34350Y-54600D01*
X34350Y-54600D02*
X33650Y-54600D01*
X31908Y-54703D02*
X31908Y-53797D01*
X31908Y-53797D02*
X32892Y-53797D01*
X32892Y-53797D02*
X32892Y-54703D01*
X32892Y-54703D02*
X31908Y-54703D01*
X30208Y-54703D02*
X30208Y-53797D01*
X30208Y-53797D02*
X31192Y-53797D01*
X31192Y-53797D02*
X31192Y-54703D01*
X31192Y-54703D02*
X30208Y-54703D01*
X30350Y-53000D02*
X30342Y-53072D01*
X30342Y-53072D02*
X30319Y-53142D01*
X30319Y-53142D02*
X30283Y-53205D01*
X30283Y-53205D02*
X30234Y-53260D01*
X30234Y-53260D02*
X30175Y-53303D01*
X30175Y-53303D02*
X30108Y-53332D01*
X30108Y-53332D02*
X30036Y-53348D01*
X30036Y-53348D02*
X29964Y-53348D01*
X29964Y-53348D02*
X29892Y-53332D01*
X29892Y-53332D02*
X29825Y-53303D01*
X29825Y-53303D02*
X29766Y-53260D01*
X29766Y-53260D02*
X29717Y-53205D01*
X29717Y-53205D02*
X29681Y-53142D01*
X29681Y-53142D02*
X29658Y-53072D01*
X29658Y-53072D02*
X29650Y-53000D01*
X29650Y-53000D02*
X29658Y-52928D01*
X29658Y-52928D02*
X29681Y-52858D01*
X29681Y-52858D02*
X29717Y-52795D01*
X29717Y-52795D02*
X29766Y-52740D01*
X29766Y-52740D02*
X29825Y-52697D01*
X29825Y-52697D02*
X29892Y-52668D01*
X29892Y-52668D02*
X29964Y-52652D01*
X29964Y-52652D02*
X30036Y-52652D01*
X30036Y-52652D02*
X30108Y-52668D01*
X30108Y-52668D02*
X30175Y-52697D01*
X30175Y-52697D02*
X30234Y-52740D01*
X30234Y-52740D02*
X30283Y-52795D01*
X30283Y-52795D02*
X30319Y-52858D01*
X30319Y-52858D02*
X30342Y-52928D01*
X30342Y-52928D02*
X30350Y-53000D01*
X33650Y-53350D02*
X33650Y-52650D01*
X33650Y-52650D02*
X34350Y-52650D01*
X34350Y-52650D02*
X34350Y-53350D01*
X34350Y-53350D02*
X33650Y-53350D01*
X31908Y-53453D02*
X31908Y-52547D01*
X31908Y-52547D02*
X32892Y-52547D01*
X32892Y-52547D02*
X32892Y-53453D01*
X32892Y-53453D02*
X31908Y-53453D01*
X30208Y-53453D02*
X30208Y-52547D01*
X30208Y-52547D02*
X31192Y-52547D01*
X31192Y-52547D02*
X31192Y-53453D01*
X31192Y-53453D02*
X30208Y-53453D01*
X38850Y-54250D02*
X38842Y-54322D01*
X38842Y-54322D02*
X38819Y-54392D01*
X38819Y-54392D02*
X38783Y-54455D01*
X38783Y-54455D02*
X38734Y-54510D01*
X38734Y-54510D02*
X38675Y-54553D01*
X38675Y-54553D02*
X38608Y-54582D01*
X38608Y-54582D02*
X38536Y-54598D01*
X38536Y-54598D02*
X38464Y-54598D01*
X38464Y-54598D02*
X38392Y-54582D01*
X38392Y-54582D02*
X38325Y-54553D01*
X38325Y-54553D02*
X38266Y-54510D01*
X38266Y-54510D02*
X38217Y-54455D01*
X38217Y-54455D02*
X38181Y-54392D01*
X38181Y-54392D02*
X38158Y-54322D01*
X38158Y-54322D02*
X38150Y-54250D01*
X38150Y-54250D02*
X38158Y-54178D01*
X38158Y-54178D02*
X38181Y-54108D01*
X38181Y-54108D02*
X38217Y-54045D01*
X38217Y-54045D02*
X38266Y-53990D01*
X38266Y-53990D02*
X38325Y-53947D01*
X38325Y-53947D02*
X38392Y-53918D01*
X38392Y-53918D02*
X38464Y-53902D01*
X38464Y-53902D02*
X38536Y-53902D01*
X38536Y-53902D02*
X38608Y-53918D01*
X38608Y-53918D02*
X38675Y-53947D01*
X38675Y-53947D02*
X38734Y-53990D01*
X38734Y-53990D02*
X38783Y-54045D01*
X38783Y-54045D02*
X38819Y-54108D01*
X38819Y-54108D02*
X38842Y-54178D01*
X38842Y-54178D02*
X38850Y-54250D01*
X42150Y-54600D02*
X42150Y-53900D01*
X42150Y-53900D02*
X42850Y-53900D01*
X42850Y-53900D02*
X42850Y-54600D01*
X42850Y-54600D02*
X42150Y-54600D01*
X40408Y-54703D02*
X40408Y-53797D01*
X40408Y-53797D02*
X41392Y-53797D01*
X41392Y-53797D02*
X41392Y-54703D01*
X41392Y-54703D02*
X40408Y-54703D01*
X38708Y-54703D02*
X38708Y-53797D01*
X38708Y-53797D02*
X39692Y-53797D01*
X39692Y-53797D02*
X39692Y-54703D01*
X39692Y-54703D02*
X38708Y-54703D01*
X38850Y-53000D02*
X38842Y-53072D01*
X38842Y-53072D02*
X38819Y-53142D01*
X38819Y-53142D02*
X38783Y-53205D01*
X38783Y-53205D02*
X38734Y-53260D01*
X38734Y-53260D02*
X38675Y-53303D01*
X38675Y-53303D02*
X38608Y-53332D01*
X38608Y-53332D02*
X38536Y-53348D01*
X38536Y-53348D02*
X38464Y-53348D01*
X38464Y-53348D02*
X38392Y-53332D01*
X38392Y-53332D02*
X38325Y-53303D01*
X38325Y-53303D02*
X38266Y-53260D01*
X38266Y-53260D02*
X38217Y-53205D01*
X38217Y-53205D02*
X38181Y-53142D01*
X38181Y-53142D02*
X38158Y-53072D01*
X38158Y-53072D02*
X38150Y-53000D01*
X38150Y-53000D02*
X38158Y-52928D01*
X38158Y-52928D02*
X38181Y-52858D01*
X38181Y-52858D02*
X38217Y-52795D01*
X38217Y-52795D02*
X38266Y-52740D01*
X38266Y-52740D02*
X38325Y-52697D01*
X38325Y-52697D02*
X38392Y-52668D01*
X38392Y-52668D02*
X38464Y-52652D01*
X38464Y-52652D02*
X38536Y-52652D01*
X38536Y-52652D02*
X38608Y-52668D01*
X38608Y-52668D02*
X38675Y-52697D01*
X38675Y-52697D02*
X38734Y-52740D01*
X38734Y-52740D02*
X38783Y-52795D01*
X38783Y-52795D02*
X38819Y-52858D01*
X38819Y-52858D02*
X38842Y-52928D01*
X38842Y-52928D02*
X38850Y-53000D01*
X42150Y-53350D02*
X42150Y-52650D01*
X42150Y-52650D02*
X42850Y-52650D01*
X42850Y-52650D02*
X42850Y-53350D01*
X42850Y-53350D02*
X42150Y-53350D01*
X40408Y-53453D02*
X40408Y-52547D01*
X40408Y-52547D02*
X41392Y-52547D01*
X41392Y-52547D02*
X41392Y-53453D01*
X41392Y-53453D02*
X40408Y-53453D01*
X38708Y-53453D02*
X38708Y-52547D01*
X38708Y-52547D02*
X39692Y-52547D01*
X39692Y-52547D02*
X39692Y-53453D01*
X39692Y-53453D02*
X38708Y-53453D01*
X47100Y-54250D02*
X47092Y-54322D01*
X47092Y-54322D02*
X47069Y-54392D01*
X47069Y-54392D02*
X47033Y-54455D01*
X47033Y-54455D02*
X46984Y-54510D01*
X46984Y-54510D02*
X46925Y-54553D01*
X46925Y-54553D02*
X46858Y-54582D01*
X46858Y-54582D02*
X46786Y-54598D01*
X46786Y-54598D02*
X46714Y-54598D01*
X46714Y-54598D02*
X46642Y-54582D01*
X46642Y-54582D02*
X46575Y-54553D01*
X46575Y-54553D02*
X46516Y-54510D01*
X46516Y-54510D02*
X46467Y-54455D01*
X46467Y-54455D02*
X46431Y-54392D01*
X46431Y-54392D02*
X46408Y-54322D01*
X46408Y-54322D02*
X46400Y-54250D01*
X46400Y-54250D02*
X46408Y-54178D01*
X46408Y-54178D02*
X46431Y-54108D01*
X46431Y-54108D02*
X46467Y-54045D01*
X46467Y-54045D02*
X46516Y-53990D01*
X46516Y-53990D02*
X46575Y-53947D01*
X46575Y-53947D02*
X46642Y-53918D01*
X46642Y-53918D02*
X46714Y-53902D01*
X46714Y-53902D02*
X46786Y-53902D01*
X46786Y-53902D02*
X46858Y-53918D01*
X46858Y-53918D02*
X46925Y-53947D01*
X46925Y-53947D02*
X46984Y-53990D01*
X46984Y-53990D02*
X47033Y-54045D01*
X47033Y-54045D02*
X47069Y-54108D01*
X47069Y-54108D02*
X47092Y-54178D01*
X47092Y-54178D02*
X47100Y-54250D01*
X50400Y-54600D02*
X50400Y-53900D01*
X50400Y-53900D02*
X51100Y-53900D01*
X51100Y-53900D02*
X51100Y-54600D01*
X51100Y-54600D02*
X50400Y-54600D01*
X48658Y-54703D02*
X48658Y-53797D01*
X48658Y-53797D02*
X49642Y-53797D01*
X49642Y-53797D02*
X49642Y-54703D01*
X49642Y-54703D02*
X48658Y-54703D01*
X46958Y-54703D02*
X46958Y-53797D01*
X46958Y-53797D02*
X47942Y-53797D01*
X47942Y-53797D02*
X47942Y-54703D01*
X47942Y-54703D02*
X46958Y-54703D01*
X47100Y-53000D02*
X47092Y-53072D01*
X47092Y-53072D02*
X47069Y-53142D01*
X47069Y-53142D02*
X47033Y-53205D01*
X47033Y-53205D02*
X46984Y-53260D01*
X46984Y-53260D02*
X46925Y-53303D01*
X46925Y-53303D02*
X46858Y-53332D01*
X46858Y-53332D02*
X46786Y-53348D01*
X46786Y-53348D02*
X46714Y-53348D01*
X46714Y-53348D02*
X46642Y-53332D01*
X46642Y-53332D02*
X46575Y-53303D01*
X46575Y-53303D02*
X46516Y-53260D01*
X46516Y-53260D02*
X46467Y-53205D01*
X46467Y-53205D02*
X46431Y-53142D01*
X46431Y-53142D02*
X46408Y-53072D01*
X46408Y-53072D02*
X46400Y-53000D01*
X46400Y-53000D02*
X46408Y-52928D01*
X46408Y-52928D02*
X46431Y-52858D01*
X46431Y-52858D02*
X46467Y-52795D01*
X46467Y-52795D02*
X46516Y-52740D01*
X46516Y-52740D02*
X46575Y-52697D01*
X46575Y-52697D02*
X46642Y-52668D01*
X46642Y-52668D02*
X46714Y-52652D01*
X46714Y-52652D02*
X46786Y-52652D01*
X46786Y-52652D02*
X46858Y-52668D01*
X46858Y-52668D02*
X46925Y-52697D01*
X46925Y-52697D02*
X46984Y-52740D01*
X46984Y-52740D02*
X47033Y-52795D01*
X47033Y-52795D02*
X47069Y-52858D01*
X47069Y-52858D02*
X47092Y-52928D01*
X47092Y-52928D02*
X47100Y-53000D01*
X50400Y-53350D02*
X50400Y-52650D01*
X50400Y-52650D02*
X51100Y-52650D01*
X51100Y-52650D02*
X51100Y-53350D01*
X51100Y-53350D02*
X50400Y-53350D01*
X48658Y-53453D02*
X48658Y-52547D01*
X48658Y-52547D02*
X49642Y-52547D01*
X49642Y-52547D02*
X49642Y-53453D01*
X49642Y-53453D02*
X48658Y-53453D01*
X46958Y-53453D02*
X46958Y-52547D01*
X46958Y-52547D02*
X47942Y-52547D01*
X47942Y-52547D02*
X47942Y-53453D01*
X47942Y-53453D02*
X46958Y-53453D01*
X25100Y-53250D02*
X25092Y-53322D01*
X25092Y-53322D02*
X25069Y-53392D01*
X25069Y-53392D02*
X25033Y-53455D01*
X25033Y-53455D02*
X24984Y-53510D01*
X24984Y-53510D02*
X24925Y-53553D01*
X24925Y-53553D02*
X24858Y-53582D01*
X24858Y-53582D02*
X24786Y-53598D01*
X24786Y-53598D02*
X24714Y-53598D01*
X24714Y-53598D02*
X24642Y-53582D01*
X24642Y-53582D02*
X24575Y-53553D01*
X24575Y-53553D02*
X24516Y-53510D01*
X24516Y-53510D02*
X24467Y-53455D01*
X24467Y-53455D02*
X24431Y-53392D01*
X24431Y-53392D02*
X24408Y-53322D01*
X24408Y-53322D02*
X24400Y-53250D01*
X24400Y-53250D02*
X24408Y-53178D01*
X24408Y-53178D02*
X24431Y-53108D01*
X24431Y-53108D02*
X24467Y-53045D01*
X24467Y-53045D02*
X24516Y-52990D01*
X24516Y-52990D02*
X24575Y-52947D01*
X24575Y-52947D02*
X24642Y-52918D01*
X24642Y-52918D02*
X24714Y-52902D01*
X24714Y-52902D02*
X24786Y-52902D01*
X24786Y-52902D02*
X24858Y-52918D01*
X24858Y-52918D02*
X24925Y-52947D01*
X24925Y-52947D02*
X24984Y-52990D01*
X24984Y-52990D02*
X25033Y-53045D01*
X25033Y-53045D02*
X25069Y-53108D01*
X25069Y-53108D02*
X25092Y-53178D01*
X25092Y-53178D02*
X25100Y-53250D01*
X25100Y-49600D02*
X24400Y-49600D01*
X24400Y-49600D02*
X24400Y-48900D01*
X24400Y-48900D02*
X25100Y-48900D01*
X25100Y-48900D02*
X25100Y-49600D01*
X25203Y-51342D02*
X24297Y-51342D01*
X24297Y-51342D02*
X24297Y-50358D01*
X24297Y-50358D02*
X25203Y-50358D01*
X25203Y-50358D02*
X25203Y-51342D01*
X25203Y-53042D02*
X24297Y-53042D01*
X24297Y-53042D02*
X24297Y-52058D01*
X24297Y-52058D02*
X25203Y-52058D01*
X25203Y-52058D02*
X25203Y-53042D01*
X37600Y-52375D02*
X37593Y-52437D01*
X37593Y-52437D02*
X37574Y-52497D01*
X37574Y-52497D02*
X37542Y-52551D01*
X37542Y-52551D02*
X37500Y-52597D01*
X37500Y-52597D02*
X37450Y-52634D01*
X37450Y-52634D02*
X37392Y-52660D01*
X37392Y-52660D02*
X37331Y-52673D01*
X37331Y-52673D02*
X37269Y-52673D01*
X37269Y-52673D02*
X37208Y-52660D01*
X37208Y-52660D02*
X37150Y-52634D01*
X37150Y-52634D02*
X37100Y-52597D01*
X37100Y-52597D02*
X37058Y-52551D01*
X37058Y-52551D02*
X37026Y-52497D01*
X37026Y-52497D02*
X37007Y-52437D01*
X37007Y-52437D02*
X37000Y-52375D01*
X37000Y-52375D02*
X37007Y-52313D01*
X37007Y-52313D02*
X37026Y-52253D01*
X37026Y-52253D02*
X37058Y-52199D01*
X37058Y-52199D02*
X37100Y-52153D01*
X37100Y-52153D02*
X37150Y-52116D01*
X37150Y-52116D02*
X37208Y-52090D01*
X37208Y-52090D02*
X37269Y-52077D01*
X37269Y-52077D02*
X37331Y-52077D01*
X37331Y-52077D02*
X37392Y-52090D01*
X37392Y-52090D02*
X37450Y-52116D01*
X37450Y-52116D02*
X37500Y-52153D01*
X37500Y-52153D02*
X37542Y-52199D01*
X37542Y-52199D02*
X37574Y-52253D01*
X37574Y-52253D02*
X37593Y-52313D01*
X37593Y-52313D02*
X37600Y-52375D01*
X36752Y-52905D02*
X36745Y-52967D01*
X36745Y-52967D02*
X36726Y-53027D01*
X36726Y-53027D02*
X36694Y-53081D01*
X36694Y-53081D02*
X36652Y-53127D01*
X36652Y-53127D02*
X36602Y-53164D01*
X36602Y-53164D02*
X36544Y-53190D01*
X36544Y-53190D02*
X36483Y-53203D01*
X36483Y-53203D02*
X36421Y-53203D01*
X36421Y-53203D02*
X36360Y-53190D01*
X36360Y-53190D02*
X36302Y-53164D01*
X36302Y-53164D02*
X36252Y-53127D01*
X36252Y-53127D02*
X36210Y-53081D01*
X36210Y-53081D02*
X36178Y-53027D01*
X36178Y-53027D02*
X36159Y-52967D01*
X36159Y-52967D02*
X36152Y-52905D01*
X36152Y-52905D02*
X36159Y-52843D01*
X36159Y-52843D02*
X36178Y-52783D01*
X36178Y-52783D02*
X36210Y-52729D01*
X36210Y-52729D02*
X36252Y-52683D01*
X36252Y-52683D02*
X36302Y-52646D01*
X36302Y-52646D02*
X36360Y-52620D01*
X36360Y-52620D02*
X36421Y-52607D01*
X36421Y-52607D02*
X36483Y-52607D01*
X36483Y-52607D02*
X36544Y-52620D01*
X36544Y-52620D02*
X36602Y-52646D01*
X36602Y-52646D02*
X36652Y-52683D01*
X36652Y-52683D02*
X36694Y-52729D01*
X36694Y-52729D02*
X36726Y-52783D01*
X36726Y-52783D02*
X36745Y-52843D01*
X36745Y-52843D02*
X36752Y-52905D01*
X35904Y-53435D02*
X35897Y-53497D01*
X35897Y-53497D02*
X35878Y-53557D01*
X35878Y-53557D02*
X35846Y-53611D01*
X35846Y-53611D02*
X35804Y-53657D01*
X35804Y-53657D02*
X35754Y-53694D01*
X35754Y-53694D02*
X35696Y-53720D01*
X35696Y-53720D02*
X35635Y-53733D01*
X35635Y-53733D02*
X35573Y-53733D01*
X35573Y-53733D02*
X35512Y-53720D01*
X35512Y-53720D02*
X35454Y-53694D01*
X35454Y-53694D02*
X35404Y-53657D01*
X35404Y-53657D02*
X35362Y-53611D01*
X35362Y-53611D02*
X35330Y-53557D01*
X35330Y-53557D02*
X35311Y-53497D01*
X35311Y-53497D02*
X35304Y-53435D01*
X35304Y-53435D02*
X35311Y-53373D01*
X35311Y-53373D02*
X35330Y-53313D01*
X35330Y-53313D02*
X35362Y-53259D01*
X35362Y-53259D02*
X35404Y-53213D01*
X35404Y-53213D02*
X35454Y-53176D01*
X35454Y-53176D02*
X35512Y-53150D01*
X35512Y-53150D02*
X35573Y-53137D01*
X35573Y-53137D02*
X35635Y-53137D01*
X35635Y-53137D02*
X35696Y-53150D01*
X35696Y-53150D02*
X35754Y-53176D01*
X35754Y-53176D02*
X35804Y-53213D01*
X35804Y-53213D02*
X35846Y-53259D01*
X35846Y-53259D02*
X35878Y-53313D01*
X35878Y-53313D02*
X35897Y-53373D01*
X35897Y-53373D02*
X35904Y-53435D01*
X38448Y-51845D02*
X38441Y-51907D01*
X38441Y-51907D02*
X38422Y-51967D01*
X38422Y-51967D02*
X38390Y-52021D01*
X38390Y-52021D02*
X38348Y-52067D01*
X38348Y-52067D02*
X38298Y-52104D01*
X38298Y-52104D02*
X38240Y-52130D01*
X38240Y-52130D02*
X38179Y-52143D01*
X38179Y-52143D02*
X38117Y-52143D01*
X38117Y-52143D02*
X38056Y-52130D01*
X38056Y-52130D02*
X37998Y-52104D01*
X37998Y-52104D02*
X37948Y-52067D01*
X37948Y-52067D02*
X37906Y-52021D01*
X37906Y-52021D02*
X37874Y-51967D01*
X37874Y-51967D02*
X37855Y-51907D01*
X37855Y-51907D02*
X37848Y-51845D01*
X37848Y-51845D02*
X37855Y-51783D01*
X37855Y-51783D02*
X37874Y-51723D01*
X37874Y-51723D02*
X37906Y-51669D01*
X37906Y-51669D02*
X37948Y-51623D01*
X37948Y-51623D02*
X37998Y-51586D01*
X37998Y-51586D02*
X38056Y-51560D01*
X38056Y-51560D02*
X38117Y-51547D01*
X38117Y-51547D02*
X38179Y-51547D01*
X38179Y-51547D02*
X38240Y-51560D01*
X38240Y-51560D02*
X38298Y-51586D01*
X38298Y-51586D02*
X38348Y-51623D01*
X38348Y-51623D02*
X38390Y-51669D01*
X38390Y-51669D02*
X38422Y-51723D01*
X38422Y-51723D02*
X38441Y-51783D01*
X38441Y-51783D02*
X38448Y-51845D01*
X39011Y-44637D02*
X38996Y-44772D01*
X38996Y-44772D02*
X38954Y-44901D01*
X38954Y-44901D02*
X38886Y-45019D01*
X38886Y-45019D02*
X38795Y-45120D01*
X38795Y-45120D02*
X38686Y-45199D01*
X38686Y-45199D02*
X38561Y-45255D01*
X38561Y-45255D02*
X38428Y-45283D01*
X38428Y-45283D02*
X38294Y-45283D01*
X38294Y-45283D02*
X38161Y-45255D01*
X38161Y-45255D02*
X38036Y-45199D01*
X38036Y-45199D02*
X37927Y-45120D01*
X37927Y-45120D02*
X37836Y-45019D01*
X37836Y-45019D02*
X37768Y-44901D01*
X37768Y-44901D02*
X37726Y-44772D01*
X37726Y-44772D02*
X37711Y-44637D01*
X37711Y-44637D02*
X37726Y-44502D01*
X37726Y-44502D02*
X37768Y-44373D01*
X37768Y-44373D02*
X37836Y-44255D01*
X37836Y-44255D02*
X37927Y-44154D01*
X37927Y-44154D02*
X38036Y-44075D01*
X38036Y-44075D02*
X38161Y-44019D01*
X38161Y-44019D02*
X38294Y-43991D01*
X38294Y-43991D02*
X38428Y-43991D01*
X38428Y-43991D02*
X38561Y-44019D01*
X38561Y-44019D02*
X38686Y-44075D01*
X38686Y-44075D02*
X38795Y-44154D01*
X38795Y-44154D02*
X38886Y-44255D01*
X38886Y-44255D02*
X38954Y-44373D01*
X38954Y-44373D02*
X38996Y-44502D01*
X38996Y-44502D02*
X39011Y-44637D01*
X31379Y-49407D02*
X31364Y-49542D01*
X31364Y-49542D02*
X31322Y-49671D01*
X31322Y-49671D02*
X31254Y-49789D01*
X31254Y-49789D02*
X31163Y-49890D01*
X31163Y-49890D02*
X31054Y-49969D01*
X31054Y-49969D02*
X30929Y-50025D01*
X30929Y-50025D02*
X30796Y-50053D01*
X30796Y-50053D02*
X30662Y-50053D01*
X30662Y-50053D02*
X30529Y-50025D01*
X30529Y-50025D02*
X30404Y-49969D01*
X30404Y-49969D02*
X30295Y-49890D01*
X30295Y-49890D02*
X30204Y-49789D01*
X30204Y-49789D02*
X30136Y-49671D01*
X30136Y-49671D02*
X30094Y-49542D01*
X30094Y-49542D02*
X30079Y-49407D01*
X30079Y-49407D02*
X30094Y-49272D01*
X30094Y-49272D02*
X30136Y-49143D01*
X30136Y-49143D02*
X30204Y-49025D01*
X30204Y-49025D02*
X30295Y-48924D01*
X30295Y-48924D02*
X30404Y-48845D01*
X30404Y-48845D02*
X30529Y-48789D01*
X30529Y-48789D02*
X30662Y-48761D01*
X30662Y-48761D02*
X30796Y-48761D01*
X30796Y-48761D02*
X30929Y-48789D01*
X30929Y-48789D02*
X31054Y-48845D01*
X31054Y-48845D02*
X31163Y-48924D01*
X31163Y-48924D02*
X31254Y-49025D01*
X31254Y-49025D02*
X31322Y-49143D01*
X31322Y-49143D02*
X31364Y-49272D01*
X31364Y-49272D02*
X31379Y-49407D01*
X45850Y-52375D02*
X45843Y-52437D01*
X45843Y-52437D02*
X45824Y-52497D01*
X45824Y-52497D02*
X45792Y-52551D01*
X45792Y-52551D02*
X45750Y-52597D01*
X45750Y-52597D02*
X45700Y-52634D01*
X45700Y-52634D02*
X45642Y-52660D01*
X45642Y-52660D02*
X45581Y-52673D01*
X45581Y-52673D02*
X45519Y-52673D01*
X45519Y-52673D02*
X45458Y-52660D01*
X45458Y-52660D02*
X45400Y-52634D01*
X45400Y-52634D02*
X45350Y-52597D01*
X45350Y-52597D02*
X45308Y-52551D01*
X45308Y-52551D02*
X45276Y-52497D01*
X45276Y-52497D02*
X45257Y-52437D01*
X45257Y-52437D02*
X45250Y-52375D01*
X45250Y-52375D02*
X45257Y-52313D01*
X45257Y-52313D02*
X45276Y-52253D01*
X45276Y-52253D02*
X45308Y-52199D01*
X45308Y-52199D02*
X45350Y-52153D01*
X45350Y-52153D02*
X45400Y-52116D01*
X45400Y-52116D02*
X45458Y-52090D01*
X45458Y-52090D02*
X45519Y-52077D01*
X45519Y-52077D02*
X45581Y-52077D01*
X45581Y-52077D02*
X45642Y-52090D01*
X45642Y-52090D02*
X45700Y-52116D01*
X45700Y-52116D02*
X45750Y-52153D01*
X45750Y-52153D02*
X45792Y-52199D01*
X45792Y-52199D02*
X45824Y-52253D01*
X45824Y-52253D02*
X45843Y-52313D01*
X45843Y-52313D02*
X45850Y-52375D01*
X45002Y-52905D02*
X44995Y-52967D01*
X44995Y-52967D02*
X44976Y-53027D01*
X44976Y-53027D02*
X44944Y-53081D01*
X44944Y-53081D02*
X44902Y-53127D01*
X44902Y-53127D02*
X44852Y-53164D01*
X44852Y-53164D02*
X44794Y-53190D01*
X44794Y-53190D02*
X44733Y-53203D01*
X44733Y-53203D02*
X44671Y-53203D01*
X44671Y-53203D02*
X44610Y-53190D01*
X44610Y-53190D02*
X44552Y-53164D01*
X44552Y-53164D02*
X44502Y-53127D01*
X44502Y-53127D02*
X44460Y-53081D01*
X44460Y-53081D02*
X44428Y-53027D01*
X44428Y-53027D02*
X44409Y-52967D01*
X44409Y-52967D02*
X44402Y-52905D01*
X44402Y-52905D02*
X44409Y-52843D01*
X44409Y-52843D02*
X44428Y-52783D01*
X44428Y-52783D02*
X44460Y-52729D01*
X44460Y-52729D02*
X44502Y-52683D01*
X44502Y-52683D02*
X44552Y-52646D01*
X44552Y-52646D02*
X44610Y-52620D01*
X44610Y-52620D02*
X44671Y-52607D01*
X44671Y-52607D02*
X44733Y-52607D01*
X44733Y-52607D02*
X44794Y-52620D01*
X44794Y-52620D02*
X44852Y-52646D01*
X44852Y-52646D02*
X44902Y-52683D01*
X44902Y-52683D02*
X44944Y-52729D01*
X44944Y-52729D02*
X44976Y-52783D01*
X44976Y-52783D02*
X44995Y-52843D01*
X44995Y-52843D02*
X45002Y-52905D01*
X44154Y-53435D02*
X44147Y-53497D01*
X44147Y-53497D02*
X44128Y-53557D01*
X44128Y-53557D02*
X44096Y-53611D01*
X44096Y-53611D02*
X44054Y-53657D01*
X44054Y-53657D02*
X44004Y-53694D01*
X44004Y-53694D02*
X43946Y-53720D01*
X43946Y-53720D02*
X43885Y-53733D01*
X43885Y-53733D02*
X43823Y-53733D01*
X43823Y-53733D02*
X43762Y-53720D01*
X43762Y-53720D02*
X43704Y-53694D01*
X43704Y-53694D02*
X43654Y-53657D01*
X43654Y-53657D02*
X43612Y-53611D01*
X43612Y-53611D02*
X43580Y-53557D01*
X43580Y-53557D02*
X43561Y-53497D01*
X43561Y-53497D02*
X43554Y-53435D01*
X43554Y-53435D02*
X43561Y-53373D01*
X43561Y-53373D02*
X43580Y-53313D01*
X43580Y-53313D02*
X43612Y-53259D01*
X43612Y-53259D02*
X43654Y-53213D01*
X43654Y-53213D02*
X43704Y-53176D01*
X43704Y-53176D02*
X43762Y-53150D01*
X43762Y-53150D02*
X43823Y-53137D01*
X43823Y-53137D02*
X43885Y-53137D01*
X43885Y-53137D02*
X43946Y-53150D01*
X43946Y-53150D02*
X44004Y-53176D01*
X44004Y-53176D02*
X44054Y-53213D01*
X44054Y-53213D02*
X44096Y-53259D01*
X44096Y-53259D02*
X44128Y-53313D01*
X44128Y-53313D02*
X44147Y-53373D01*
X44147Y-53373D02*
X44154Y-53435D01*
X46698Y-51845D02*
X46691Y-51907D01*
X46691Y-51907D02*
X46672Y-51967D01*
X46672Y-51967D02*
X46640Y-52021D01*
X46640Y-52021D02*
X46598Y-52067D01*
X46598Y-52067D02*
X46548Y-52104D01*
X46548Y-52104D02*
X46490Y-52130D01*
X46490Y-52130D02*
X46429Y-52143D01*
X46429Y-52143D02*
X46367Y-52143D01*
X46367Y-52143D02*
X46306Y-52130D01*
X46306Y-52130D02*
X46248Y-52104D01*
X46248Y-52104D02*
X46198Y-52067D01*
X46198Y-52067D02*
X46156Y-52021D01*
X46156Y-52021D02*
X46124Y-51967D01*
X46124Y-51967D02*
X46105Y-51907D01*
X46105Y-51907D02*
X46098Y-51845D01*
X46098Y-51845D02*
X46105Y-51783D01*
X46105Y-51783D02*
X46124Y-51723D01*
X46124Y-51723D02*
X46156Y-51669D01*
X46156Y-51669D02*
X46198Y-51623D01*
X46198Y-51623D02*
X46248Y-51586D01*
X46248Y-51586D02*
X46306Y-51560D01*
X46306Y-51560D02*
X46367Y-51547D01*
X46367Y-51547D02*
X46429Y-51547D01*
X46429Y-51547D02*
X46490Y-51560D01*
X46490Y-51560D02*
X46548Y-51586D01*
X46548Y-51586D02*
X46598Y-51623D01*
X46598Y-51623D02*
X46640Y-51669D01*
X46640Y-51669D02*
X46672Y-51723D01*
X46672Y-51723D02*
X46691Y-51783D01*
X46691Y-51783D02*
X46698Y-51845D01*
X47261Y-44637D02*
X47246Y-44772D01*
X47246Y-44772D02*
X47204Y-44901D01*
X47204Y-44901D02*
X47136Y-45019D01*
X47136Y-45019D02*
X47045Y-45120D01*
X47045Y-45120D02*
X46936Y-45199D01*
X46936Y-45199D02*
X46811Y-45255D01*
X46811Y-45255D02*
X46678Y-45283D01*
X46678Y-45283D02*
X46544Y-45283D01*
X46544Y-45283D02*
X46411Y-45255D01*
X46411Y-45255D02*
X46286Y-45199D01*
X46286Y-45199D02*
X46177Y-45120D01*
X46177Y-45120D02*
X46086Y-45019D01*
X46086Y-45019D02*
X46018Y-44901D01*
X46018Y-44901D02*
X45976Y-44772D01*
X45976Y-44772D02*
X45961Y-44637D01*
X45961Y-44637D02*
X45976Y-44502D01*
X45976Y-44502D02*
X46018Y-44373D01*
X46018Y-44373D02*
X46086Y-44255D01*
X46086Y-44255D02*
X46177Y-44154D01*
X46177Y-44154D02*
X46286Y-44075D01*
X46286Y-44075D02*
X46411Y-44019D01*
X46411Y-44019D02*
X46544Y-43991D01*
X46544Y-43991D02*
X46678Y-43991D01*
X46678Y-43991D02*
X46811Y-44019D01*
X46811Y-44019D02*
X46936Y-44075D01*
X46936Y-44075D02*
X47045Y-44154D01*
X47045Y-44154D02*
X47136Y-44255D01*
X47136Y-44255D02*
X47204Y-44373D01*
X47204Y-44373D02*
X47246Y-44502D01*
X47246Y-44502D02*
X47261Y-44637D01*
X39629Y-49407D02*
X39614Y-49542D01*
X39614Y-49542D02*
X39572Y-49671D01*
X39572Y-49671D02*
X39504Y-49789D01*
X39504Y-49789D02*
X39413Y-49890D01*
X39413Y-49890D02*
X39304Y-49969D01*
X39304Y-49969D02*
X39179Y-50025D01*
X39179Y-50025D02*
X39046Y-50053D01*
X39046Y-50053D02*
X38912Y-50053D01*
X38912Y-50053D02*
X38779Y-50025D01*
X38779Y-50025D02*
X38654Y-49969D01*
X38654Y-49969D02*
X38545Y-49890D01*
X38545Y-49890D02*
X38454Y-49789D01*
X38454Y-49789D02*
X38386Y-49671D01*
X38386Y-49671D02*
X38344Y-49542D01*
X38344Y-49542D02*
X38329Y-49407D01*
X38329Y-49407D02*
X38344Y-49272D01*
X38344Y-49272D02*
X38386Y-49143D01*
X38386Y-49143D02*
X38454Y-49025D01*
X38454Y-49025D02*
X38545Y-48924D01*
X38545Y-48924D02*
X38654Y-48845D01*
X38654Y-48845D02*
X38779Y-48789D01*
X38779Y-48789D02*
X38912Y-48761D01*
X38912Y-48761D02*
X39046Y-48761D01*
X39046Y-48761D02*
X39179Y-48789D01*
X39179Y-48789D02*
X39304Y-48845D01*
X39304Y-48845D02*
X39413Y-48924D01*
X39413Y-48924D02*
X39504Y-49025D01*
X39504Y-49025D02*
X39572Y-49143D01*
X39572Y-49143D02*
X39614Y-49272D01*
X39614Y-49272D02*
X39629Y-49407D01*
X54100Y-52375D02*
X54093Y-52437D01*
X54093Y-52437D02*
X54074Y-52497D01*
X54074Y-52497D02*
X54042Y-52551D01*
X54042Y-52551D02*
X54000Y-52597D01*
X54000Y-52597D02*
X53950Y-52634D01*
X53950Y-52634D02*
X53892Y-52660D01*
X53892Y-52660D02*
X53831Y-52673D01*
X53831Y-52673D02*
X53769Y-52673D01*
X53769Y-52673D02*
X53708Y-52660D01*
X53708Y-52660D02*
X53650Y-52634D01*
X53650Y-52634D02*
X53600Y-52597D01*
X53600Y-52597D02*
X53558Y-52551D01*
X53558Y-52551D02*
X53526Y-52497D01*
X53526Y-52497D02*
X53507Y-52437D01*
X53507Y-52437D02*
X53500Y-52375D01*
X53500Y-52375D02*
X53507Y-52313D01*
X53507Y-52313D02*
X53526Y-52253D01*
X53526Y-52253D02*
X53558Y-52199D01*
X53558Y-52199D02*
X53600Y-52153D01*
X53600Y-52153D02*
X53650Y-52116D01*
X53650Y-52116D02*
X53708Y-52090D01*
X53708Y-52090D02*
X53769Y-52077D01*
X53769Y-52077D02*
X53831Y-52077D01*
X53831Y-52077D02*
X53892Y-52090D01*
X53892Y-52090D02*
X53950Y-52116D01*
X53950Y-52116D02*
X54000Y-52153D01*
X54000Y-52153D02*
X54042Y-52199D01*
X54042Y-52199D02*
X54074Y-52253D01*
X54074Y-52253D02*
X54093Y-52313D01*
X54093Y-52313D02*
X54100Y-52375D01*
X53252Y-52905D02*
X53245Y-52967D01*
X53245Y-52967D02*
X53226Y-53027D01*
X53226Y-53027D02*
X53194Y-53081D01*
X53194Y-53081D02*
X53152Y-53127D01*
X53152Y-53127D02*
X53102Y-53164D01*
X53102Y-53164D02*
X53044Y-53190D01*
X53044Y-53190D02*
X52983Y-53203D01*
X52983Y-53203D02*
X52921Y-53203D01*
X52921Y-53203D02*
X52860Y-53190D01*
X52860Y-53190D02*
X52802Y-53164D01*
X52802Y-53164D02*
X52752Y-53127D01*
X52752Y-53127D02*
X52710Y-53081D01*
X52710Y-53081D02*
X52678Y-53027D01*
X52678Y-53027D02*
X52659Y-52967D01*
X52659Y-52967D02*
X52652Y-52905D01*
X52652Y-52905D02*
X52659Y-52843D01*
X52659Y-52843D02*
X52678Y-52783D01*
X52678Y-52783D02*
X52710Y-52729D01*
X52710Y-52729D02*
X52752Y-52683D01*
X52752Y-52683D02*
X52802Y-52646D01*
X52802Y-52646D02*
X52860Y-52620D01*
X52860Y-52620D02*
X52921Y-52607D01*
X52921Y-52607D02*
X52983Y-52607D01*
X52983Y-52607D02*
X53044Y-52620D01*
X53044Y-52620D02*
X53102Y-52646D01*
X53102Y-52646D02*
X53152Y-52683D01*
X53152Y-52683D02*
X53194Y-52729D01*
X53194Y-52729D02*
X53226Y-52783D01*
X53226Y-52783D02*
X53245Y-52843D01*
X53245Y-52843D02*
X53252Y-52905D01*
X52404Y-53435D02*
X52397Y-53497D01*
X52397Y-53497D02*
X52378Y-53557D01*
X52378Y-53557D02*
X52346Y-53611D01*
X52346Y-53611D02*
X52304Y-53657D01*
X52304Y-53657D02*
X52254Y-53694D01*
X52254Y-53694D02*
X52196Y-53720D01*
X52196Y-53720D02*
X52135Y-53733D01*
X52135Y-53733D02*
X52073Y-53733D01*
X52073Y-53733D02*
X52012Y-53720D01*
X52012Y-53720D02*
X51954Y-53694D01*
X51954Y-53694D02*
X51904Y-53657D01*
X51904Y-53657D02*
X51862Y-53611D01*
X51862Y-53611D02*
X51830Y-53557D01*
X51830Y-53557D02*
X51811Y-53497D01*
X51811Y-53497D02*
X51804Y-53435D01*
X51804Y-53435D02*
X51811Y-53373D01*
X51811Y-53373D02*
X51830Y-53313D01*
X51830Y-53313D02*
X51862Y-53259D01*
X51862Y-53259D02*
X51904Y-53213D01*
X51904Y-53213D02*
X51954Y-53176D01*
X51954Y-53176D02*
X52012Y-53150D01*
X52012Y-53150D02*
X52073Y-53137D01*
X52073Y-53137D02*
X52135Y-53137D01*
X52135Y-53137D02*
X52196Y-53150D01*
X52196Y-53150D02*
X52254Y-53176D01*
X52254Y-53176D02*
X52304Y-53213D01*
X52304Y-53213D02*
X52346Y-53259D01*
X52346Y-53259D02*
X52378Y-53313D01*
X52378Y-53313D02*
X52397Y-53373D01*
X52397Y-53373D02*
X52404Y-53435D01*
X54948Y-51845D02*
X54941Y-51907D01*
X54941Y-51907D02*
X54922Y-51967D01*
X54922Y-51967D02*
X54890Y-52021D01*
X54890Y-52021D02*
X54848Y-52067D01*
X54848Y-52067D02*
X54798Y-52104D01*
X54798Y-52104D02*
X54740Y-52130D01*
X54740Y-52130D02*
X54679Y-52143D01*
X54679Y-52143D02*
X54617Y-52143D01*
X54617Y-52143D02*
X54556Y-52130D01*
X54556Y-52130D02*
X54498Y-52104D01*
X54498Y-52104D02*
X54448Y-52067D01*
X54448Y-52067D02*
X54406Y-52021D01*
X54406Y-52021D02*
X54374Y-51967D01*
X54374Y-51967D02*
X54355Y-51907D01*
X54355Y-51907D02*
X54348Y-51845D01*
X54348Y-51845D02*
X54355Y-51783D01*
X54355Y-51783D02*
X54374Y-51723D01*
X54374Y-51723D02*
X54406Y-51669D01*
X54406Y-51669D02*
X54448Y-51623D01*
X54448Y-51623D02*
X54498Y-51586D01*
X54498Y-51586D02*
X54556Y-51560D01*
X54556Y-51560D02*
X54617Y-51547D01*
X54617Y-51547D02*
X54679Y-51547D01*
X54679Y-51547D02*
X54740Y-51560D01*
X54740Y-51560D02*
X54798Y-51586D01*
X54798Y-51586D02*
X54848Y-51623D01*
X54848Y-51623D02*
X54890Y-51669D01*
X54890Y-51669D02*
X54922Y-51723D01*
X54922Y-51723D02*
X54941Y-51783D01*
X54941Y-51783D02*
X54948Y-51845D01*
X55511Y-44637D02*
X55496Y-44772D01*
X55496Y-44772D02*
X55454Y-44901D01*
X55454Y-44901D02*
X55386Y-45019D01*
X55386Y-45019D02*
X55295Y-45120D01*
X55295Y-45120D02*
X55186Y-45199D01*
X55186Y-45199D02*
X55061Y-45255D01*
X55061Y-45255D02*
X54928Y-45283D01*
X54928Y-45283D02*
X54794Y-45283D01*
X54794Y-45283D02*
X54661Y-45255D01*
X54661Y-45255D02*
X54536Y-45199D01*
X54536Y-45199D02*
X54427Y-45120D01*
X54427Y-45120D02*
X54336Y-45019D01*
X54336Y-45019D02*
X54268Y-44901D01*
X54268Y-44901D02*
X54226Y-44772D01*
X54226Y-44772D02*
X54211Y-44637D01*
X54211Y-44637D02*
X54226Y-44502D01*
X54226Y-44502D02*
X54268Y-44373D01*
X54268Y-44373D02*
X54336Y-44255D01*
X54336Y-44255D02*
X54427Y-44154D01*
X54427Y-44154D02*
X54536Y-44075D01*
X54536Y-44075D02*
X54661Y-44019D01*
X54661Y-44019D02*
X54794Y-43991D01*
X54794Y-43991D02*
X54928Y-43991D01*
X54928Y-43991D02*
X55061Y-44019D01*
X55061Y-44019D02*
X55186Y-44075D01*
X55186Y-44075D02*
X55295Y-44154D01*
X55295Y-44154D02*
X55386Y-44255D01*
X55386Y-44255D02*
X55454Y-44373D01*
X55454Y-44373D02*
X55496Y-44502D01*
X55496Y-44502D02*
X55511Y-44637D01*
X47879Y-49407D02*
X47864Y-49542D01*
X47864Y-49542D02*
X47822Y-49671D01*
X47822Y-49671D02*
X47754Y-49789D01*
X47754Y-49789D02*
X47663Y-49890D01*
X47663Y-49890D02*
X47554Y-49969D01*
X47554Y-49969D02*
X47429Y-50025D01*
X47429Y-50025D02*
X47296Y-50053D01*
X47296Y-50053D02*
X47162Y-50053D01*
X47162Y-50053D02*
X47029Y-50025D01*
X47029Y-50025D02*
X46904Y-49969D01*
X46904Y-49969D02*
X46795Y-49890D01*
X46795Y-49890D02*
X46704Y-49789D01*
X46704Y-49789D02*
X46636Y-49671D01*
X46636Y-49671D02*
X46594Y-49542D01*
X46594Y-49542D02*
X46579Y-49407D01*
X46579Y-49407D02*
X46594Y-49272D01*
X46594Y-49272D02*
X46636Y-49143D01*
X46636Y-49143D02*
X46704Y-49025D01*
X46704Y-49025D02*
X46795Y-48924D01*
X46795Y-48924D02*
X46904Y-48845D01*
X46904Y-48845D02*
X47029Y-48789D01*
X47029Y-48789D02*
X47162Y-48761D01*
X47162Y-48761D02*
X47296Y-48761D01*
X47296Y-48761D02*
X47429Y-48789D01*
X47429Y-48789D02*
X47554Y-48845D01*
X47554Y-48845D02*
X47663Y-48924D01*
X47663Y-48924D02*
X47754Y-49025D01*
X47754Y-49025D02*
X47822Y-49143D01*
X47822Y-49143D02*
X47864Y-49272D01*
X47864Y-49272D02*
X47879Y-49407D01*
X29350Y-52375D02*
X29343Y-52437D01*
X29343Y-52437D02*
X29324Y-52497D01*
X29324Y-52497D02*
X29292Y-52551D01*
X29292Y-52551D02*
X29250Y-52597D01*
X29250Y-52597D02*
X29200Y-52634D01*
X29200Y-52634D02*
X29142Y-52660D01*
X29142Y-52660D02*
X29081Y-52673D01*
X29081Y-52673D02*
X29019Y-52673D01*
X29019Y-52673D02*
X28958Y-52660D01*
X28958Y-52660D02*
X28900Y-52634D01*
X28900Y-52634D02*
X28850Y-52597D01*
X28850Y-52597D02*
X28808Y-52551D01*
X28808Y-52551D02*
X28776Y-52497D01*
X28776Y-52497D02*
X28757Y-52437D01*
X28757Y-52437D02*
X28750Y-52375D01*
X28750Y-52375D02*
X28757Y-52313D01*
X28757Y-52313D02*
X28776Y-52253D01*
X28776Y-52253D02*
X28808Y-52199D01*
X28808Y-52199D02*
X28850Y-52153D01*
X28850Y-52153D02*
X28900Y-52116D01*
X28900Y-52116D02*
X28958Y-52090D01*
X28958Y-52090D02*
X29019Y-52077D01*
X29019Y-52077D02*
X29081Y-52077D01*
X29081Y-52077D02*
X29142Y-52090D01*
X29142Y-52090D02*
X29200Y-52116D01*
X29200Y-52116D02*
X29250Y-52153D01*
X29250Y-52153D02*
X29292Y-52199D01*
X29292Y-52199D02*
X29324Y-52253D01*
X29324Y-52253D02*
X29343Y-52313D01*
X29343Y-52313D02*
X29350Y-52375D01*
X28502Y-52905D02*
X28495Y-52967D01*
X28495Y-52967D02*
X28476Y-53027D01*
X28476Y-53027D02*
X28444Y-53081D01*
X28444Y-53081D02*
X28402Y-53127D01*
X28402Y-53127D02*
X28352Y-53164D01*
X28352Y-53164D02*
X28294Y-53190D01*
X28294Y-53190D02*
X28233Y-53203D01*
X28233Y-53203D02*
X28171Y-53203D01*
X28171Y-53203D02*
X28110Y-53190D01*
X28110Y-53190D02*
X28052Y-53164D01*
X28052Y-53164D02*
X28002Y-53127D01*
X28002Y-53127D02*
X27960Y-53081D01*
X27960Y-53081D02*
X27928Y-53027D01*
X27928Y-53027D02*
X27909Y-52967D01*
X27909Y-52967D02*
X27902Y-52905D01*
X27902Y-52905D02*
X27909Y-52843D01*
X27909Y-52843D02*
X27928Y-52783D01*
X27928Y-52783D02*
X27960Y-52729D01*
X27960Y-52729D02*
X28002Y-52683D01*
X28002Y-52683D02*
X28052Y-52646D01*
X28052Y-52646D02*
X28110Y-52620D01*
X28110Y-52620D02*
X28171Y-52607D01*
X28171Y-52607D02*
X28233Y-52607D01*
X28233Y-52607D02*
X28294Y-52620D01*
X28294Y-52620D02*
X28352Y-52646D01*
X28352Y-52646D02*
X28402Y-52683D01*
X28402Y-52683D02*
X28444Y-52729D01*
X28444Y-52729D02*
X28476Y-52783D01*
X28476Y-52783D02*
X28495Y-52843D01*
X28495Y-52843D02*
X28502Y-52905D01*
X27654Y-53435D02*
X27647Y-53497D01*
X27647Y-53497D02*
X27628Y-53557D01*
X27628Y-53557D02*
X27596Y-53611D01*
X27596Y-53611D02*
X27554Y-53657D01*
X27554Y-53657D02*
X27504Y-53694D01*
X27504Y-53694D02*
X27446Y-53720D01*
X27446Y-53720D02*
X27385Y-53733D01*
X27385Y-53733D02*
X27323Y-53733D01*
X27323Y-53733D02*
X27262Y-53720D01*
X27262Y-53720D02*
X27204Y-53694D01*
X27204Y-53694D02*
X27154Y-53657D01*
X27154Y-53657D02*
X27112Y-53611D01*
X27112Y-53611D02*
X27080Y-53557D01*
X27080Y-53557D02*
X27061Y-53497D01*
X27061Y-53497D02*
X27054Y-53435D01*
X27054Y-53435D02*
X27061Y-53373D01*
X27061Y-53373D02*
X27080Y-53313D01*
X27080Y-53313D02*
X27112Y-53259D01*
X27112Y-53259D02*
X27154Y-53213D01*
X27154Y-53213D02*
X27204Y-53176D01*
X27204Y-53176D02*
X27262Y-53150D01*
X27262Y-53150D02*
X27323Y-53137D01*
X27323Y-53137D02*
X27385Y-53137D01*
X27385Y-53137D02*
X27446Y-53150D01*
X27446Y-53150D02*
X27504Y-53176D01*
X27504Y-53176D02*
X27554Y-53213D01*
X27554Y-53213D02*
X27596Y-53259D01*
X27596Y-53259D02*
X27628Y-53313D01*
X27628Y-53313D02*
X27647Y-53373D01*
X27647Y-53373D02*
X27654Y-53435D01*
X30198Y-51845D02*
X30191Y-51907D01*
X30191Y-51907D02*
X30172Y-51967D01*
X30172Y-51967D02*
X30140Y-52021D01*
X30140Y-52021D02*
X30098Y-52067D01*
X30098Y-52067D02*
X30048Y-52104D01*
X30048Y-52104D02*
X29990Y-52130D01*
X29990Y-52130D02*
X29929Y-52143D01*
X29929Y-52143D02*
X29867Y-52143D01*
X29867Y-52143D02*
X29806Y-52130D01*
X29806Y-52130D02*
X29748Y-52104D01*
X29748Y-52104D02*
X29698Y-52067D01*
X29698Y-52067D02*
X29656Y-52021D01*
X29656Y-52021D02*
X29624Y-51967D01*
X29624Y-51967D02*
X29605Y-51907D01*
X29605Y-51907D02*
X29598Y-51845D01*
X29598Y-51845D02*
X29605Y-51783D01*
X29605Y-51783D02*
X29624Y-51723D01*
X29624Y-51723D02*
X29656Y-51669D01*
X29656Y-51669D02*
X29698Y-51623D01*
X29698Y-51623D02*
X29748Y-51586D01*
X29748Y-51586D02*
X29806Y-51560D01*
X29806Y-51560D02*
X29867Y-51547D01*
X29867Y-51547D02*
X29929Y-51547D01*
X29929Y-51547D02*
X29990Y-51560D01*
X29990Y-51560D02*
X30048Y-51586D01*
X30048Y-51586D02*
X30098Y-51623D01*
X30098Y-51623D02*
X30140Y-51669D01*
X30140Y-51669D02*
X30172Y-51723D01*
X30172Y-51723D02*
X30191Y-51783D01*
X30191Y-51783D02*
X30198Y-51845D01*
X30761Y-44637D02*
X30746Y-44772D01*
X30746Y-44772D02*
X30704Y-44901D01*
X30704Y-44901D02*
X30636Y-45019D01*
X30636Y-45019D02*
X30545Y-45120D01*
X30545Y-45120D02*
X30436Y-45199D01*
X30436Y-45199D02*
X30311Y-45255D01*
X30311Y-45255D02*
X30178Y-45283D01*
X30178Y-45283D02*
X30044Y-45283D01*
X30044Y-45283D02*
X29911Y-45255D01*
X29911Y-45255D02*
X29786Y-45199D01*
X29786Y-45199D02*
X29677Y-45120D01*
X29677Y-45120D02*
X29586Y-45019D01*
X29586Y-45019D02*
X29518Y-44901D01*
X29518Y-44901D02*
X29476Y-44772D01*
X29476Y-44772D02*
X29461Y-44637D01*
X29461Y-44637D02*
X29476Y-44502D01*
X29476Y-44502D02*
X29518Y-44373D01*
X29518Y-44373D02*
X29586Y-44255D01*
X29586Y-44255D02*
X29677Y-44154D01*
X29677Y-44154D02*
X29786Y-44075D01*
X29786Y-44075D02*
X29911Y-44019D01*
X29911Y-44019D02*
X30044Y-43991D01*
X30044Y-43991D02*
X30178Y-43991D01*
X30178Y-43991D02*
X30311Y-44019D01*
X30311Y-44019D02*
X30436Y-44075D01*
X30436Y-44075D02*
X30545Y-44154D01*
X30545Y-44154D02*
X30636Y-44255D01*
X30636Y-44255D02*
X30704Y-44373D01*
X30704Y-44373D02*
X30746Y-44502D01*
X30746Y-44502D02*
X30761Y-44637D01*
X23129Y-49407D02*
X23114Y-49542D01*
X23114Y-49542D02*
X23072Y-49671D01*
X23072Y-49671D02*
X23004Y-49789D01*
X23004Y-49789D02*
X22913Y-49890D01*
X22913Y-49890D02*
X22804Y-49969D01*
X22804Y-49969D02*
X22679Y-50025D01*
X22679Y-50025D02*
X22546Y-50053D01*
X22546Y-50053D02*
X22412Y-50053D01*
X22412Y-50053D02*
X22279Y-50025D01*
X22279Y-50025D02*
X22154Y-49969D01*
X22154Y-49969D02*
X22045Y-49890D01*
X22045Y-49890D02*
X21954Y-49789D01*
X21954Y-49789D02*
X21886Y-49671D01*
X21886Y-49671D02*
X21844Y-49542D01*
X21844Y-49542D02*
X21829Y-49407D01*
X21829Y-49407D02*
X21844Y-49272D01*
X21844Y-49272D02*
X21886Y-49143D01*
X21886Y-49143D02*
X21954Y-49025D01*
X21954Y-49025D02*
X22045Y-48924D01*
X22045Y-48924D02*
X22154Y-48845D01*
X22154Y-48845D02*
X22279Y-48789D01*
X22279Y-48789D02*
X22412Y-48761D01*
X22412Y-48761D02*
X22546Y-48761D01*
X22546Y-48761D02*
X22679Y-48789D01*
X22679Y-48789D02*
X22804Y-48845D01*
X22804Y-48845D02*
X22913Y-48924D01*
X22913Y-48924D02*
X23004Y-49025D01*
X23004Y-49025D02*
X23072Y-49143D01*
X23072Y-49143D02*
X23114Y-49272D01*
X23114Y-49272D02*
X23129Y-49407D01*
X53570Y-51527D02*
X53563Y-51589D01*
X53563Y-51589D02*
X53544Y-51649D01*
X53544Y-51649D02*
X53512Y-51703D01*
X53512Y-51703D02*
X53470Y-51749D01*
X53470Y-51749D02*
X53420Y-51786D01*
X53420Y-51786D02*
X53362Y-51812D01*
X53362Y-51812D02*
X53301Y-51825D01*
X53301Y-51825D02*
X53239Y-51825D01*
X53239Y-51825D02*
X53178Y-51812D01*
X53178Y-51812D02*
X53120Y-51786D01*
X53120Y-51786D02*
X53070Y-51749D01*
X53070Y-51749D02*
X53028Y-51703D01*
X53028Y-51703D02*
X52996Y-51649D01*
X52996Y-51649D02*
X52977Y-51589D01*
X52977Y-51589D02*
X52970Y-51527D01*
X52970Y-51527D02*
X52977Y-51465D01*
X52977Y-51465D02*
X52996Y-51405D01*
X52996Y-51405D02*
X53028Y-51351D01*
X53028Y-51351D02*
X53070Y-51305D01*
X53070Y-51305D02*
X53120Y-51268D01*
X53120Y-51268D02*
X53178Y-51242D01*
X53178Y-51242D02*
X53239Y-51229D01*
X53239Y-51229D02*
X53301Y-51229D01*
X53301Y-51229D02*
X53362Y-51242D01*
X53362Y-51242D02*
X53420Y-51268D01*
X53420Y-51268D02*
X53470Y-51305D01*
X53470Y-51305D02*
X53512Y-51351D01*
X53512Y-51351D02*
X53544Y-51405D01*
X53544Y-51405D02*
X53563Y-51465D01*
X53563Y-51465D02*
X53570Y-51527D01*
X52722Y-52057D02*
X52715Y-52119D01*
X52715Y-52119D02*
X52696Y-52179D01*
X52696Y-52179D02*
X52664Y-52233D01*
X52664Y-52233D02*
X52622Y-52279D01*
X52622Y-52279D02*
X52572Y-52316D01*
X52572Y-52316D02*
X52514Y-52342D01*
X52514Y-52342D02*
X52453Y-52355D01*
X52453Y-52355D02*
X52391Y-52355D01*
X52391Y-52355D02*
X52330Y-52342D01*
X52330Y-52342D02*
X52272Y-52316D01*
X52272Y-52316D02*
X52222Y-52279D01*
X52222Y-52279D02*
X52180Y-52233D01*
X52180Y-52233D02*
X52148Y-52179D01*
X52148Y-52179D02*
X52129Y-52119D01*
X52129Y-52119D02*
X52122Y-52057D01*
X52122Y-52057D02*
X52129Y-51995D01*
X52129Y-51995D02*
X52148Y-51935D01*
X52148Y-51935D02*
X52180Y-51881D01*
X52180Y-51881D02*
X52222Y-51835D01*
X52222Y-51835D02*
X52272Y-51798D01*
X52272Y-51798D02*
X52330Y-51772D01*
X52330Y-51772D02*
X52391Y-51759D01*
X52391Y-51759D02*
X52453Y-51759D01*
X52453Y-51759D02*
X52514Y-51772D01*
X52514Y-51772D02*
X52572Y-51798D01*
X52572Y-51798D02*
X52622Y-51835D01*
X52622Y-51835D02*
X52664Y-51881D01*
X52664Y-51881D02*
X52696Y-51935D01*
X52696Y-51935D02*
X52715Y-51995D01*
X52715Y-51995D02*
X52722Y-52057D01*
X51874Y-52587D02*
X51867Y-52649D01*
X51867Y-52649D02*
X51848Y-52709D01*
X51848Y-52709D02*
X51816Y-52763D01*
X51816Y-52763D02*
X51774Y-52809D01*
X51774Y-52809D02*
X51724Y-52846D01*
X51724Y-52846D02*
X51666Y-52872D01*
X51666Y-52872D02*
X51605Y-52885D01*
X51605Y-52885D02*
X51543Y-52885D01*
X51543Y-52885D02*
X51482Y-52872D01*
X51482Y-52872D02*
X51424Y-52846D01*
X51424Y-52846D02*
X51374Y-52809D01*
X51374Y-52809D02*
X51332Y-52763D01*
X51332Y-52763D02*
X51300Y-52709D01*
X51300Y-52709D02*
X51281Y-52649D01*
X51281Y-52649D02*
X51274Y-52587D01*
X51274Y-52587D02*
X51281Y-52525D01*
X51281Y-52525D02*
X51300Y-52465D01*
X51300Y-52465D02*
X51332Y-52411D01*
X51332Y-52411D02*
X51374Y-52365D01*
X51374Y-52365D02*
X51424Y-52328D01*
X51424Y-52328D02*
X51482Y-52302D01*
X51482Y-52302D02*
X51543Y-52289D01*
X51543Y-52289D02*
X51605Y-52289D01*
X51605Y-52289D02*
X51666Y-52302D01*
X51666Y-52302D02*
X51724Y-52328D01*
X51724Y-52328D02*
X51774Y-52365D01*
X51774Y-52365D02*
X51816Y-52411D01*
X51816Y-52411D02*
X51848Y-52465D01*
X51848Y-52465D02*
X51867Y-52525D01*
X51867Y-52525D02*
X51874Y-52587D01*
X54418Y-50997D02*
X54411Y-51059D01*
X54411Y-51059D02*
X54392Y-51119D01*
X54392Y-51119D02*
X54360Y-51173D01*
X54360Y-51173D02*
X54318Y-51219D01*
X54318Y-51219D02*
X54268Y-51256D01*
X54268Y-51256D02*
X54210Y-51282D01*
X54210Y-51282D02*
X54149Y-51295D01*
X54149Y-51295D02*
X54087Y-51295D01*
X54087Y-51295D02*
X54026Y-51282D01*
X54026Y-51282D02*
X53968Y-51256D01*
X53968Y-51256D02*
X53918Y-51219D01*
X53918Y-51219D02*
X53876Y-51173D01*
X53876Y-51173D02*
X53844Y-51119D01*
X53844Y-51119D02*
X53825Y-51059D01*
X53825Y-51059D02*
X53818Y-50997D01*
X53818Y-50997D02*
X53825Y-50935D01*
X53825Y-50935D02*
X53844Y-50875D01*
X53844Y-50875D02*
X53876Y-50821D01*
X53876Y-50821D02*
X53918Y-50775D01*
X53918Y-50775D02*
X53968Y-50738D01*
X53968Y-50738D02*
X54026Y-50712D01*
X54026Y-50712D02*
X54087Y-50699D01*
X54087Y-50699D02*
X54149Y-50699D01*
X54149Y-50699D02*
X54210Y-50712D01*
X54210Y-50712D02*
X54268Y-50738D01*
X54268Y-50738D02*
X54318Y-50775D01*
X54318Y-50775D02*
X54360Y-50821D01*
X54360Y-50821D02*
X54392Y-50875D01*
X54392Y-50875D02*
X54411Y-50935D01*
X54411Y-50935D02*
X54418Y-50997D01*
X55511Y-44637D02*
X55496Y-44772D01*
X55496Y-44772D02*
X55454Y-44901D01*
X55454Y-44901D02*
X55386Y-45019D01*
X55386Y-45019D02*
X55295Y-45120D01*
X55295Y-45120D02*
X55186Y-45199D01*
X55186Y-45199D02*
X55061Y-45255D01*
X55061Y-45255D02*
X54928Y-45283D01*
X54928Y-45283D02*
X54794Y-45283D01*
X54794Y-45283D02*
X54661Y-45255D01*
X54661Y-45255D02*
X54536Y-45199D01*
X54536Y-45199D02*
X54427Y-45120D01*
X54427Y-45120D02*
X54336Y-45019D01*
X54336Y-45019D02*
X54268Y-44901D01*
X54268Y-44901D02*
X54226Y-44772D01*
X54226Y-44772D02*
X54211Y-44637D01*
X54211Y-44637D02*
X54226Y-44502D01*
X54226Y-44502D02*
X54268Y-44373D01*
X54268Y-44373D02*
X54336Y-44255D01*
X54336Y-44255D02*
X54427Y-44154D01*
X54427Y-44154D02*
X54536Y-44075D01*
X54536Y-44075D02*
X54661Y-44019D01*
X54661Y-44019D02*
X54794Y-43991D01*
X54794Y-43991D02*
X54928Y-43991D01*
X54928Y-43991D02*
X55061Y-44019D01*
X55061Y-44019D02*
X55186Y-44075D01*
X55186Y-44075D02*
X55295Y-44154D01*
X55295Y-44154D02*
X55386Y-44255D01*
X55386Y-44255D02*
X55454Y-44373D01*
X55454Y-44373D02*
X55496Y-44502D01*
X55496Y-44502D02*
X55511Y-44637D01*
X47879Y-49407D02*
X47864Y-49542D01*
X47864Y-49542D02*
X47822Y-49671D01*
X47822Y-49671D02*
X47754Y-49789D01*
X47754Y-49789D02*
X47663Y-49890D01*
X47663Y-49890D02*
X47554Y-49969D01*
X47554Y-49969D02*
X47429Y-50025D01*
X47429Y-50025D02*
X47296Y-50053D01*
X47296Y-50053D02*
X47162Y-50053D01*
X47162Y-50053D02*
X47029Y-50025D01*
X47029Y-50025D02*
X46904Y-49969D01*
X46904Y-49969D02*
X46795Y-49890D01*
X46795Y-49890D02*
X46704Y-49789D01*
X46704Y-49789D02*
X46636Y-49671D01*
X46636Y-49671D02*
X46594Y-49542D01*
X46594Y-49542D02*
X46579Y-49407D01*
X46579Y-49407D02*
X46594Y-49272D01*
X46594Y-49272D02*
X46636Y-49143D01*
X46636Y-49143D02*
X46704Y-49025D01*
X46704Y-49025D02*
X46795Y-48924D01*
X46795Y-48924D02*
X46904Y-48845D01*
X46904Y-48845D02*
X47029Y-48789D01*
X47029Y-48789D02*
X47162Y-48761D01*
X47162Y-48761D02*
X47296Y-48761D01*
X47296Y-48761D02*
X47429Y-48789D01*
X47429Y-48789D02*
X47554Y-48845D01*
X47554Y-48845D02*
X47663Y-48924D01*
X47663Y-48924D02*
X47754Y-49025D01*
X47754Y-49025D02*
X47822Y-49143D01*
X47822Y-49143D02*
X47864Y-49272D01*
X47864Y-49272D02*
X47879Y-49407D01*
X45320Y-51527D02*
X45313Y-51589D01*
X45313Y-51589D02*
X45294Y-51649D01*
X45294Y-51649D02*
X45262Y-51703D01*
X45262Y-51703D02*
X45220Y-51749D01*
X45220Y-51749D02*
X45170Y-51786D01*
X45170Y-51786D02*
X45112Y-51812D01*
X45112Y-51812D02*
X45051Y-51825D01*
X45051Y-51825D02*
X44989Y-51825D01*
X44989Y-51825D02*
X44928Y-51812D01*
X44928Y-51812D02*
X44870Y-51786D01*
X44870Y-51786D02*
X44820Y-51749D01*
X44820Y-51749D02*
X44778Y-51703D01*
X44778Y-51703D02*
X44746Y-51649D01*
X44746Y-51649D02*
X44727Y-51589D01*
X44727Y-51589D02*
X44720Y-51527D01*
X44720Y-51527D02*
X44727Y-51465D01*
X44727Y-51465D02*
X44746Y-51405D01*
X44746Y-51405D02*
X44778Y-51351D01*
X44778Y-51351D02*
X44820Y-51305D01*
X44820Y-51305D02*
X44870Y-51268D01*
X44870Y-51268D02*
X44928Y-51242D01*
X44928Y-51242D02*
X44989Y-51229D01*
X44989Y-51229D02*
X45051Y-51229D01*
X45051Y-51229D02*
X45112Y-51242D01*
X45112Y-51242D02*
X45170Y-51268D01*
X45170Y-51268D02*
X45220Y-51305D01*
X45220Y-51305D02*
X45262Y-51351D01*
X45262Y-51351D02*
X45294Y-51405D01*
X45294Y-51405D02*
X45313Y-51465D01*
X45313Y-51465D02*
X45320Y-51527D01*
X44472Y-52057D02*
X44465Y-52119D01*
X44465Y-52119D02*
X44446Y-52179D01*
X44446Y-52179D02*
X44414Y-52233D01*
X44414Y-52233D02*
X44372Y-52279D01*
X44372Y-52279D02*
X44322Y-52316D01*
X44322Y-52316D02*
X44264Y-52342D01*
X44264Y-52342D02*
X44203Y-52355D01*
X44203Y-52355D02*
X44141Y-52355D01*
X44141Y-52355D02*
X44080Y-52342D01*
X44080Y-52342D02*
X44022Y-52316D01*
X44022Y-52316D02*
X43972Y-52279D01*
X43972Y-52279D02*
X43930Y-52233D01*
X43930Y-52233D02*
X43898Y-52179D01*
X43898Y-52179D02*
X43879Y-52119D01*
X43879Y-52119D02*
X43872Y-52057D01*
X43872Y-52057D02*
X43879Y-51995D01*
X43879Y-51995D02*
X43898Y-51935D01*
X43898Y-51935D02*
X43930Y-51881D01*
X43930Y-51881D02*
X43972Y-51835D01*
X43972Y-51835D02*
X44022Y-51798D01*
X44022Y-51798D02*
X44080Y-51772D01*
X44080Y-51772D02*
X44141Y-51759D01*
X44141Y-51759D02*
X44203Y-51759D01*
X44203Y-51759D02*
X44264Y-51772D01*
X44264Y-51772D02*
X44322Y-51798D01*
X44322Y-51798D02*
X44372Y-51835D01*
X44372Y-51835D02*
X44414Y-51881D01*
X44414Y-51881D02*
X44446Y-51935D01*
X44446Y-51935D02*
X44465Y-51995D01*
X44465Y-51995D02*
X44472Y-52057D01*
X43624Y-52587D02*
X43617Y-52649D01*
X43617Y-52649D02*
X43598Y-52709D01*
X43598Y-52709D02*
X43566Y-52763D01*
X43566Y-52763D02*
X43524Y-52809D01*
X43524Y-52809D02*
X43474Y-52846D01*
X43474Y-52846D02*
X43416Y-52872D01*
X43416Y-52872D02*
X43355Y-52885D01*
X43355Y-52885D02*
X43293Y-52885D01*
X43293Y-52885D02*
X43232Y-52872D01*
X43232Y-52872D02*
X43174Y-52846D01*
X43174Y-52846D02*
X43124Y-52809D01*
X43124Y-52809D02*
X43082Y-52763D01*
X43082Y-52763D02*
X43050Y-52709D01*
X43050Y-52709D02*
X43031Y-52649D01*
X43031Y-52649D02*
X43024Y-52587D01*
X43024Y-52587D02*
X43031Y-52525D01*
X43031Y-52525D02*
X43050Y-52465D01*
X43050Y-52465D02*
X43082Y-52411D01*
X43082Y-52411D02*
X43124Y-52365D01*
X43124Y-52365D02*
X43174Y-52328D01*
X43174Y-52328D02*
X43232Y-52302D01*
X43232Y-52302D02*
X43293Y-52289D01*
X43293Y-52289D02*
X43355Y-52289D01*
X43355Y-52289D02*
X43416Y-52302D01*
X43416Y-52302D02*
X43474Y-52328D01*
X43474Y-52328D02*
X43524Y-52365D01*
X43524Y-52365D02*
X43566Y-52411D01*
X43566Y-52411D02*
X43598Y-52465D01*
X43598Y-52465D02*
X43617Y-52525D01*
X43617Y-52525D02*
X43624Y-52587D01*
X46168Y-50997D02*
X46161Y-51059D01*
X46161Y-51059D02*
X46142Y-51119D01*
X46142Y-51119D02*
X46110Y-51173D01*
X46110Y-51173D02*
X46068Y-51219D01*
X46068Y-51219D02*
X46018Y-51256D01*
X46018Y-51256D02*
X45960Y-51282D01*
X45960Y-51282D02*
X45899Y-51295D01*
X45899Y-51295D02*
X45837Y-51295D01*
X45837Y-51295D02*
X45776Y-51282D01*
X45776Y-51282D02*
X45718Y-51256D01*
X45718Y-51256D02*
X45668Y-51219D01*
X45668Y-51219D02*
X45626Y-51173D01*
X45626Y-51173D02*
X45594Y-51119D01*
X45594Y-51119D02*
X45575Y-51059D01*
X45575Y-51059D02*
X45568Y-50997D01*
X45568Y-50997D02*
X45575Y-50935D01*
X45575Y-50935D02*
X45594Y-50875D01*
X45594Y-50875D02*
X45626Y-50821D01*
X45626Y-50821D02*
X45668Y-50775D01*
X45668Y-50775D02*
X45718Y-50738D01*
X45718Y-50738D02*
X45776Y-50712D01*
X45776Y-50712D02*
X45837Y-50699D01*
X45837Y-50699D02*
X45899Y-50699D01*
X45899Y-50699D02*
X45960Y-50712D01*
X45960Y-50712D02*
X46018Y-50738D01*
X46018Y-50738D02*
X46068Y-50775D01*
X46068Y-50775D02*
X46110Y-50821D01*
X46110Y-50821D02*
X46142Y-50875D01*
X46142Y-50875D02*
X46161Y-50935D01*
X46161Y-50935D02*
X46168Y-50997D01*
X47261Y-44637D02*
X47246Y-44772D01*
X47246Y-44772D02*
X47204Y-44901D01*
X47204Y-44901D02*
X47136Y-45019D01*
X47136Y-45019D02*
X47045Y-45120D01*
X47045Y-45120D02*
X46936Y-45199D01*
X46936Y-45199D02*
X46811Y-45255D01*
X46811Y-45255D02*
X46678Y-45283D01*
X46678Y-45283D02*
X46544Y-45283D01*
X46544Y-45283D02*
X46411Y-45255D01*
X46411Y-45255D02*
X46286Y-45199D01*
X46286Y-45199D02*
X46177Y-45120D01*
X46177Y-45120D02*
X46086Y-45019D01*
X46086Y-45019D02*
X46018Y-44901D01*
X46018Y-44901D02*
X45976Y-44772D01*
X45976Y-44772D02*
X45961Y-44637D01*
X45961Y-44637D02*
X45976Y-44502D01*
X45976Y-44502D02*
X46018Y-44373D01*
X46018Y-44373D02*
X46086Y-44255D01*
X46086Y-44255D02*
X46177Y-44154D01*
X46177Y-44154D02*
X46286Y-44075D01*
X46286Y-44075D02*
X46411Y-44019D01*
X46411Y-44019D02*
X46544Y-43991D01*
X46544Y-43991D02*
X46678Y-43991D01*
X46678Y-43991D02*
X46811Y-44019D01*
X46811Y-44019D02*
X46936Y-44075D01*
X46936Y-44075D02*
X47045Y-44154D01*
X47045Y-44154D02*
X47136Y-44255D01*
X47136Y-44255D02*
X47204Y-44373D01*
X47204Y-44373D02*
X47246Y-44502D01*
X47246Y-44502D02*
X47261Y-44637D01*
X39629Y-49407D02*
X39614Y-49542D01*
X39614Y-49542D02*
X39572Y-49671D01*
X39572Y-49671D02*
X39504Y-49789D01*
X39504Y-49789D02*
X39413Y-49890D01*
X39413Y-49890D02*
X39304Y-49969D01*
X39304Y-49969D02*
X39179Y-50025D01*
X39179Y-50025D02*
X39046Y-50053D01*
X39046Y-50053D02*
X38912Y-50053D01*
X38912Y-50053D02*
X38779Y-50025D01*
X38779Y-50025D02*
X38654Y-49969D01*
X38654Y-49969D02*
X38545Y-49890D01*
X38545Y-49890D02*
X38454Y-49789D01*
X38454Y-49789D02*
X38386Y-49671D01*
X38386Y-49671D02*
X38344Y-49542D01*
X38344Y-49542D02*
X38329Y-49407D01*
X38329Y-49407D02*
X38344Y-49272D01*
X38344Y-49272D02*
X38386Y-49143D01*
X38386Y-49143D02*
X38454Y-49025D01*
X38454Y-49025D02*
X38545Y-48924D01*
X38545Y-48924D02*
X38654Y-48845D01*
X38654Y-48845D02*
X38779Y-48789D01*
X38779Y-48789D02*
X38912Y-48761D01*
X38912Y-48761D02*
X39046Y-48761D01*
X39046Y-48761D02*
X39179Y-48789D01*
X39179Y-48789D02*
X39304Y-48845D01*
X39304Y-48845D02*
X39413Y-48924D01*
X39413Y-48924D02*
X39504Y-49025D01*
X39504Y-49025D02*
X39572Y-49143D01*
X39572Y-49143D02*
X39614Y-49272D01*
X39614Y-49272D02*
X39629Y-49407D01*
X37070Y-51527D02*
X37063Y-51589D01*
X37063Y-51589D02*
X37044Y-51649D01*
X37044Y-51649D02*
X37012Y-51703D01*
X37012Y-51703D02*
X36970Y-51749D01*
X36970Y-51749D02*
X36920Y-51786D01*
X36920Y-51786D02*
X36862Y-51812D01*
X36862Y-51812D02*
X36801Y-51825D01*
X36801Y-51825D02*
X36739Y-51825D01*
X36739Y-51825D02*
X36678Y-51812D01*
X36678Y-51812D02*
X36620Y-51786D01*
X36620Y-51786D02*
X36570Y-51749D01*
X36570Y-51749D02*
X36528Y-51703D01*
X36528Y-51703D02*
X36496Y-51649D01*
X36496Y-51649D02*
X36477Y-51589D01*
X36477Y-51589D02*
X36470Y-51527D01*
X36470Y-51527D02*
X36477Y-51465D01*
X36477Y-51465D02*
X36496Y-51405D01*
X36496Y-51405D02*
X36528Y-51351D01*
X36528Y-51351D02*
X36570Y-51305D01*
X36570Y-51305D02*
X36620Y-51268D01*
X36620Y-51268D02*
X36678Y-51242D01*
X36678Y-51242D02*
X36739Y-51229D01*
X36739Y-51229D02*
X36801Y-51229D01*
X36801Y-51229D02*
X36862Y-51242D01*
X36862Y-51242D02*
X36920Y-51268D01*
X36920Y-51268D02*
X36970Y-51305D01*
X36970Y-51305D02*
X37012Y-51351D01*
X37012Y-51351D02*
X37044Y-51405D01*
X37044Y-51405D02*
X37063Y-51465D01*
X37063Y-51465D02*
X37070Y-51527D01*
X36222Y-52057D02*
X36215Y-52119D01*
X36215Y-52119D02*
X36196Y-52179D01*
X36196Y-52179D02*
X36164Y-52233D01*
X36164Y-52233D02*
X36122Y-52279D01*
X36122Y-52279D02*
X36072Y-52316D01*
X36072Y-52316D02*
X36014Y-52342D01*
X36014Y-52342D02*
X35953Y-52355D01*
X35953Y-52355D02*
X35891Y-52355D01*
X35891Y-52355D02*
X35830Y-52342D01*
X35830Y-52342D02*
X35772Y-52316D01*
X35772Y-52316D02*
X35722Y-52279D01*
X35722Y-52279D02*
X35680Y-52233D01*
X35680Y-52233D02*
X35648Y-52179D01*
X35648Y-52179D02*
X35629Y-52119D01*
X35629Y-52119D02*
X35622Y-52057D01*
X35622Y-52057D02*
X35629Y-51995D01*
X35629Y-51995D02*
X35648Y-51935D01*
X35648Y-51935D02*
X35680Y-51881D01*
X35680Y-51881D02*
X35722Y-51835D01*
X35722Y-51835D02*
X35772Y-51798D01*
X35772Y-51798D02*
X35830Y-51772D01*
X35830Y-51772D02*
X35891Y-51759D01*
X35891Y-51759D02*
X35953Y-51759D01*
X35953Y-51759D02*
X36014Y-51772D01*
X36014Y-51772D02*
X36072Y-51798D01*
X36072Y-51798D02*
X36122Y-51835D01*
X36122Y-51835D02*
X36164Y-51881D01*
X36164Y-51881D02*
X36196Y-51935D01*
X36196Y-51935D02*
X36215Y-51995D01*
X36215Y-51995D02*
X36222Y-52057D01*
X35374Y-52587D02*
X35367Y-52649D01*
X35367Y-52649D02*
X35348Y-52709D01*
X35348Y-52709D02*
X35316Y-52763D01*
X35316Y-52763D02*
X35274Y-52809D01*
X35274Y-52809D02*
X35224Y-52846D01*
X35224Y-52846D02*
X35166Y-52872D01*
X35166Y-52872D02*
X35105Y-52885D01*
X35105Y-52885D02*
X35043Y-52885D01*
X35043Y-52885D02*
X34982Y-52872D01*
X34982Y-52872D02*
X34924Y-52846D01*
X34924Y-52846D02*
X34874Y-52809D01*
X34874Y-52809D02*
X34832Y-52763D01*
X34832Y-52763D02*
X34800Y-52709D01*
X34800Y-52709D02*
X34781Y-52649D01*
X34781Y-52649D02*
X34774Y-52587D01*
X34774Y-52587D02*
X34781Y-52525D01*
X34781Y-52525D02*
X34800Y-52465D01*
X34800Y-52465D02*
X34832Y-52411D01*
X34832Y-52411D02*
X34874Y-52365D01*
X34874Y-52365D02*
X34924Y-52328D01*
X34924Y-52328D02*
X34982Y-52302D01*
X34982Y-52302D02*
X35043Y-52289D01*
X35043Y-52289D02*
X35105Y-52289D01*
X35105Y-52289D02*
X35166Y-52302D01*
X35166Y-52302D02*
X35224Y-52328D01*
X35224Y-52328D02*
X35274Y-52365D01*
X35274Y-52365D02*
X35316Y-52411D01*
X35316Y-52411D02*
X35348Y-52465D01*
X35348Y-52465D02*
X35367Y-52525D01*
X35367Y-52525D02*
X35374Y-52587D01*
X37918Y-50997D02*
X37911Y-51059D01*
X37911Y-51059D02*
X37892Y-51119D01*
X37892Y-51119D02*
X37860Y-51173D01*
X37860Y-51173D02*
X37818Y-51219D01*
X37818Y-51219D02*
X37768Y-51256D01*
X37768Y-51256D02*
X37710Y-51282D01*
X37710Y-51282D02*
X37649Y-51295D01*
X37649Y-51295D02*
X37587Y-51295D01*
X37587Y-51295D02*
X37526Y-51282D01*
X37526Y-51282D02*
X37468Y-51256D01*
X37468Y-51256D02*
X37418Y-51219D01*
X37418Y-51219D02*
X37376Y-51173D01*
X37376Y-51173D02*
X37344Y-51119D01*
X37344Y-51119D02*
X37325Y-51059D01*
X37325Y-51059D02*
X37318Y-50997D01*
X37318Y-50997D02*
X37325Y-50935D01*
X37325Y-50935D02*
X37344Y-50875D01*
X37344Y-50875D02*
X37376Y-50821D01*
X37376Y-50821D02*
X37418Y-50775D01*
X37418Y-50775D02*
X37468Y-50738D01*
X37468Y-50738D02*
X37526Y-50712D01*
X37526Y-50712D02*
X37587Y-50699D01*
X37587Y-50699D02*
X37649Y-50699D01*
X37649Y-50699D02*
X37710Y-50712D01*
X37710Y-50712D02*
X37768Y-50738D01*
X37768Y-50738D02*
X37818Y-50775D01*
X37818Y-50775D02*
X37860Y-50821D01*
X37860Y-50821D02*
X37892Y-50875D01*
X37892Y-50875D02*
X37911Y-50935D01*
X37911Y-50935D02*
X37918Y-50997D01*
X39011Y-44637D02*
X38996Y-44772D01*
X38996Y-44772D02*
X38954Y-44901D01*
X38954Y-44901D02*
X38886Y-45019D01*
X38886Y-45019D02*
X38795Y-45120D01*
X38795Y-45120D02*
X38686Y-45199D01*
X38686Y-45199D02*
X38561Y-45255D01*
X38561Y-45255D02*
X38428Y-45283D01*
X38428Y-45283D02*
X38294Y-45283D01*
X38294Y-45283D02*
X38161Y-45255D01*
X38161Y-45255D02*
X38036Y-45199D01*
X38036Y-45199D02*
X37927Y-45120D01*
X37927Y-45120D02*
X37836Y-45019D01*
X37836Y-45019D02*
X37768Y-44901D01*
X37768Y-44901D02*
X37726Y-44772D01*
X37726Y-44772D02*
X37711Y-44637D01*
X37711Y-44637D02*
X37726Y-44502D01*
X37726Y-44502D02*
X37768Y-44373D01*
X37768Y-44373D02*
X37836Y-44255D01*
X37836Y-44255D02*
X37927Y-44154D01*
X37927Y-44154D02*
X38036Y-44075D01*
X38036Y-44075D02*
X38161Y-44019D01*
X38161Y-44019D02*
X38294Y-43991D01*
X38294Y-43991D02*
X38428Y-43991D01*
X38428Y-43991D02*
X38561Y-44019D01*
X38561Y-44019D02*
X38686Y-44075D01*
X38686Y-44075D02*
X38795Y-44154D01*
X38795Y-44154D02*
X38886Y-44255D01*
X38886Y-44255D02*
X38954Y-44373D01*
X38954Y-44373D02*
X38996Y-44502D01*
X38996Y-44502D02*
X39011Y-44637D01*
X31379Y-49407D02*
X31364Y-49542D01*
X31364Y-49542D02*
X31322Y-49671D01*
X31322Y-49671D02*
X31254Y-49789D01*
X31254Y-49789D02*
X31163Y-49890D01*
X31163Y-49890D02*
X31054Y-49969D01*
X31054Y-49969D02*
X30929Y-50025D01*
X30929Y-50025D02*
X30796Y-50053D01*
X30796Y-50053D02*
X30662Y-50053D01*
X30662Y-50053D02*
X30529Y-50025D01*
X30529Y-50025D02*
X30404Y-49969D01*
X30404Y-49969D02*
X30295Y-49890D01*
X30295Y-49890D02*
X30204Y-49789D01*
X30204Y-49789D02*
X30136Y-49671D01*
X30136Y-49671D02*
X30094Y-49542D01*
X30094Y-49542D02*
X30079Y-49407D01*
X30079Y-49407D02*
X30094Y-49272D01*
X30094Y-49272D02*
X30136Y-49143D01*
X30136Y-49143D02*
X30204Y-49025D01*
X30204Y-49025D02*
X30295Y-48924D01*
X30295Y-48924D02*
X30404Y-48845D01*
X30404Y-48845D02*
X30529Y-48789D01*
X30529Y-48789D02*
X30662Y-48761D01*
X30662Y-48761D02*
X30796Y-48761D01*
X30796Y-48761D02*
X30929Y-48789D01*
X30929Y-48789D02*
X31054Y-48845D01*
X31054Y-48845D02*
X31163Y-48924D01*
X31163Y-48924D02*
X31254Y-49025D01*
X31254Y-49025D02*
X31322Y-49143D01*
X31322Y-49143D02*
X31364Y-49272D01*
X31364Y-49272D02*
X31379Y-49407D01*
X29550Y-51250D02*
X29543Y-51312D01*
X29543Y-51312D02*
X29524Y-51372D01*
X29524Y-51372D02*
X29492Y-51426D01*
X29492Y-51426D02*
X29450Y-51472D01*
X29450Y-51472D02*
X29400Y-51509D01*
X29400Y-51509D02*
X29342Y-51535D01*
X29342Y-51535D02*
X29281Y-51548D01*
X29281Y-51548D02*
X29219Y-51548D01*
X29219Y-51548D02*
X29158Y-51535D01*
X29158Y-51535D02*
X29100Y-51509D01*
X29100Y-51509D02*
X29050Y-51472D01*
X29050Y-51472D02*
X29008Y-51426D01*
X29008Y-51426D02*
X28976Y-51372D01*
X28976Y-51372D02*
X28957Y-51312D01*
X28957Y-51312D02*
X28950Y-51250D01*
X28950Y-51250D02*
X28957Y-51188D01*
X28957Y-51188D02*
X28976Y-51128D01*
X28976Y-51128D02*
X29008Y-51074D01*
X29008Y-51074D02*
X29050Y-51028D01*
X29050Y-51028D02*
X29100Y-50991D01*
X29100Y-50991D02*
X29158Y-50965D01*
X29158Y-50965D02*
X29219Y-50952D01*
X29219Y-50952D02*
X29281Y-50952D01*
X29281Y-50952D02*
X29342Y-50965D01*
X29342Y-50965D02*
X29400Y-50991D01*
X29400Y-50991D02*
X29450Y-51028D01*
X29450Y-51028D02*
X29492Y-51074D01*
X29492Y-51074D02*
X29524Y-51128D01*
X29524Y-51128D02*
X29543Y-51188D01*
X29543Y-51188D02*
X29550Y-51250D01*
X29550Y-50250D02*
X29543Y-50312D01*
X29543Y-50312D02*
X29524Y-50372D01*
X29524Y-50372D02*
X29492Y-50426D01*
X29492Y-50426D02*
X29450Y-50472D01*
X29450Y-50472D02*
X29400Y-50509D01*
X29400Y-50509D02*
X29342Y-50535D01*
X29342Y-50535D02*
X29281Y-50548D01*
X29281Y-50548D02*
X29219Y-50548D01*
X29219Y-50548D02*
X29158Y-50535D01*
X29158Y-50535D02*
X29100Y-50509D01*
X29100Y-50509D02*
X29050Y-50472D01*
X29050Y-50472D02*
X29008Y-50426D01*
X29008Y-50426D02*
X28976Y-50372D01*
X28976Y-50372D02*
X28957Y-50312D01*
X28957Y-50312D02*
X28950Y-50250D01*
X28950Y-50250D02*
X28957Y-50188D01*
X28957Y-50188D02*
X28976Y-50128D01*
X28976Y-50128D02*
X29008Y-50074D01*
X29008Y-50074D02*
X29050Y-50028D01*
X29050Y-50028D02*
X29100Y-49991D01*
X29100Y-49991D02*
X29158Y-49965D01*
X29158Y-49965D02*
X29219Y-49952D01*
X29219Y-49952D02*
X29281Y-49952D01*
X29281Y-49952D02*
X29342Y-49965D01*
X29342Y-49965D02*
X29400Y-49991D01*
X29400Y-49991D02*
X29450Y-50028D01*
X29450Y-50028D02*
X29492Y-50074D01*
X29492Y-50074D02*
X29524Y-50128D01*
X29524Y-50128D02*
X29543Y-50188D01*
X29543Y-50188D02*
X29550Y-50250D01*
X51300Y-50750D02*
X51293Y-50812D01*
X51293Y-50812D02*
X51274Y-50872D01*
X51274Y-50872D02*
X51242Y-50926D01*
X51242Y-50926D02*
X51200Y-50972D01*
X51200Y-50972D02*
X51150Y-51009D01*
X51150Y-51009D02*
X51092Y-51035D01*
X51092Y-51035D02*
X51031Y-51048D01*
X51031Y-51048D02*
X50969Y-51048D01*
X50969Y-51048D02*
X50908Y-51035D01*
X50908Y-51035D02*
X50850Y-51009D01*
X50850Y-51009D02*
X50800Y-50972D01*
X50800Y-50972D02*
X50758Y-50926D01*
X50758Y-50926D02*
X50726Y-50872D01*
X50726Y-50872D02*
X50707Y-50812D01*
X50707Y-50812D02*
X50700Y-50750D01*
X50700Y-50750D02*
X50707Y-50688D01*
X50707Y-50688D02*
X50726Y-50628D01*
X50726Y-50628D02*
X50758Y-50574D01*
X50758Y-50574D02*
X50800Y-50528D01*
X50800Y-50528D02*
X50850Y-50491D01*
X50850Y-50491D02*
X50908Y-50465D01*
X50908Y-50465D02*
X50969Y-50452D01*
X50969Y-50452D02*
X51031Y-50452D01*
X51031Y-50452D02*
X51092Y-50465D01*
X51092Y-50465D02*
X51150Y-50491D01*
X51150Y-50491D02*
X51200Y-50528D01*
X51200Y-50528D02*
X51242Y-50574D01*
X51242Y-50574D02*
X51274Y-50628D01*
X51274Y-50628D02*
X51293Y-50688D01*
X51293Y-50688D02*
X51300Y-50750D01*
X51300Y-51750D02*
X51293Y-51812D01*
X51293Y-51812D02*
X51274Y-51872D01*
X51274Y-51872D02*
X51242Y-51926D01*
X51242Y-51926D02*
X51200Y-51972D01*
X51200Y-51972D02*
X51150Y-52009D01*
X51150Y-52009D02*
X51092Y-52035D01*
X51092Y-52035D02*
X51031Y-52048D01*
X51031Y-52048D02*
X50969Y-52048D01*
X50969Y-52048D02*
X50908Y-52035D01*
X50908Y-52035D02*
X50850Y-52009D01*
X50850Y-52009D02*
X50800Y-51972D01*
X50800Y-51972D02*
X50758Y-51926D01*
X50758Y-51926D02*
X50726Y-51872D01*
X50726Y-51872D02*
X50707Y-51812D01*
X50707Y-51812D02*
X50700Y-51750D01*
X50700Y-51750D02*
X50707Y-51688D01*
X50707Y-51688D02*
X50726Y-51628D01*
X50726Y-51628D02*
X50758Y-51574D01*
X50758Y-51574D02*
X50800Y-51528D01*
X50800Y-51528D02*
X50850Y-51491D01*
X50850Y-51491D02*
X50908Y-51465D01*
X50908Y-51465D02*
X50969Y-51452D01*
X50969Y-51452D02*
X51031Y-51452D01*
X51031Y-51452D02*
X51092Y-51465D01*
X51092Y-51465D02*
X51150Y-51491D01*
X51150Y-51491D02*
X51200Y-51528D01*
X51200Y-51528D02*
X51242Y-51574D01*
X51242Y-51574D02*
X51274Y-51628D01*
X51274Y-51628D02*
X51293Y-51688D01*
X51293Y-51688D02*
X51300Y-51750D01*
X33550Y-51750D02*
X33543Y-51812D01*
X33543Y-51812D02*
X33524Y-51872D01*
X33524Y-51872D02*
X33492Y-51926D01*
X33492Y-51926D02*
X33450Y-51972D01*
X33450Y-51972D02*
X33400Y-52009D01*
X33400Y-52009D02*
X33342Y-52035D01*
X33342Y-52035D02*
X33281Y-52048D01*
X33281Y-52048D02*
X33219Y-52048D01*
X33219Y-52048D02*
X33158Y-52035D01*
X33158Y-52035D02*
X33100Y-52009D01*
X33100Y-52009D02*
X33050Y-51972D01*
X33050Y-51972D02*
X33008Y-51926D01*
X33008Y-51926D02*
X32976Y-51872D01*
X32976Y-51872D02*
X32957Y-51812D01*
X32957Y-51812D02*
X32950Y-51750D01*
X32950Y-51750D02*
X32957Y-51688D01*
X32957Y-51688D02*
X32976Y-51628D01*
X32976Y-51628D02*
X33008Y-51574D01*
X33008Y-51574D02*
X33050Y-51528D01*
X33050Y-51528D02*
X33100Y-51491D01*
X33100Y-51491D02*
X33158Y-51465D01*
X33158Y-51465D02*
X33219Y-51452D01*
X33219Y-51452D02*
X33281Y-51452D01*
X33281Y-51452D02*
X33342Y-51465D01*
X33342Y-51465D02*
X33400Y-51491D01*
X33400Y-51491D02*
X33450Y-51528D01*
X33450Y-51528D02*
X33492Y-51574D01*
X33492Y-51574D02*
X33524Y-51628D01*
X33524Y-51628D02*
X33543Y-51688D01*
X33543Y-51688D02*
X33550Y-51750D01*
X33550Y-50750D02*
X33543Y-50812D01*
X33543Y-50812D02*
X33524Y-50872D01*
X33524Y-50872D02*
X33492Y-50926D01*
X33492Y-50926D02*
X33450Y-50972D01*
X33450Y-50972D02*
X33400Y-51009D01*
X33400Y-51009D02*
X33342Y-51035D01*
X33342Y-51035D02*
X33281Y-51048D01*
X33281Y-51048D02*
X33219Y-51048D01*
X33219Y-51048D02*
X33158Y-51035D01*
X33158Y-51035D02*
X33100Y-51009D01*
X33100Y-51009D02*
X33050Y-50972D01*
X33050Y-50972D02*
X33008Y-50926D01*
X33008Y-50926D02*
X32976Y-50872D01*
X32976Y-50872D02*
X32957Y-50812D01*
X32957Y-50812D02*
X32950Y-50750D01*
X32950Y-50750D02*
X32957Y-50688D01*
X32957Y-50688D02*
X32976Y-50628D01*
X32976Y-50628D02*
X33008Y-50574D01*
X33008Y-50574D02*
X33050Y-50528D01*
X33050Y-50528D02*
X33100Y-50491D01*
X33100Y-50491D02*
X33158Y-50465D01*
X33158Y-50465D02*
X33219Y-50452D01*
X33219Y-50452D02*
X33281Y-50452D01*
X33281Y-50452D02*
X33342Y-50465D01*
X33342Y-50465D02*
X33400Y-50491D01*
X33400Y-50491D02*
X33450Y-50528D01*
X33450Y-50528D02*
X33492Y-50574D01*
X33492Y-50574D02*
X33524Y-50628D01*
X33524Y-50628D02*
X33543Y-50688D01*
X33543Y-50688D02*
X33550Y-50750D01*
X40050Y-51750D02*
X40043Y-51812D01*
X40043Y-51812D02*
X40024Y-51872D01*
X40024Y-51872D02*
X39992Y-51926D01*
X39992Y-51926D02*
X39950Y-51972D01*
X39950Y-51972D02*
X39900Y-52009D01*
X39900Y-52009D02*
X39842Y-52035D01*
X39842Y-52035D02*
X39781Y-52048D01*
X39781Y-52048D02*
X39719Y-52048D01*
X39719Y-52048D02*
X39658Y-52035D01*
X39658Y-52035D02*
X39600Y-52009D01*
X39600Y-52009D02*
X39550Y-51972D01*
X39550Y-51972D02*
X39508Y-51926D01*
X39508Y-51926D02*
X39476Y-51872D01*
X39476Y-51872D02*
X39457Y-51812D01*
X39457Y-51812D02*
X39450Y-51750D01*
X39450Y-51750D02*
X39457Y-51688D01*
X39457Y-51688D02*
X39476Y-51628D01*
X39476Y-51628D02*
X39508Y-51574D01*
X39508Y-51574D02*
X39550Y-51528D01*
X39550Y-51528D02*
X39600Y-51491D01*
X39600Y-51491D02*
X39658Y-51465D01*
X39658Y-51465D02*
X39719Y-51452D01*
X39719Y-51452D02*
X39781Y-51452D01*
X39781Y-51452D02*
X39842Y-51465D01*
X39842Y-51465D02*
X39900Y-51491D01*
X39900Y-51491D02*
X39950Y-51528D01*
X39950Y-51528D02*
X39992Y-51574D01*
X39992Y-51574D02*
X40024Y-51628D01*
X40024Y-51628D02*
X40043Y-51688D01*
X40043Y-51688D02*
X40050Y-51750D01*
X40050Y-50750D02*
X40043Y-50812D01*
X40043Y-50812D02*
X40024Y-50872D01*
X40024Y-50872D02*
X39992Y-50926D01*
X39992Y-50926D02*
X39950Y-50972D01*
X39950Y-50972D02*
X39900Y-51009D01*
X39900Y-51009D02*
X39842Y-51035D01*
X39842Y-51035D02*
X39781Y-51048D01*
X39781Y-51048D02*
X39719Y-51048D01*
X39719Y-51048D02*
X39658Y-51035D01*
X39658Y-51035D02*
X39600Y-51009D01*
X39600Y-51009D02*
X39550Y-50972D01*
X39550Y-50972D02*
X39508Y-50926D01*
X39508Y-50926D02*
X39476Y-50872D01*
X39476Y-50872D02*
X39457Y-50812D01*
X39457Y-50812D02*
X39450Y-50750D01*
X39450Y-50750D02*
X39457Y-50688D01*
X39457Y-50688D02*
X39476Y-50628D01*
X39476Y-50628D02*
X39508Y-50574D01*
X39508Y-50574D02*
X39550Y-50528D01*
X39550Y-50528D02*
X39600Y-50491D01*
X39600Y-50491D02*
X39658Y-50465D01*
X39658Y-50465D02*
X39719Y-50452D01*
X39719Y-50452D02*
X39781Y-50452D01*
X39781Y-50452D02*
X39842Y-50465D01*
X39842Y-50465D02*
X39900Y-50491D01*
X39900Y-50491D02*
X39950Y-50528D01*
X39950Y-50528D02*
X39992Y-50574D01*
X39992Y-50574D02*
X40024Y-50628D01*
X40024Y-50628D02*
X40043Y-50688D01*
X40043Y-50688D02*
X40050Y-50750D01*
X31800Y-51750D02*
X31793Y-51812D01*
X31793Y-51812D02*
X31774Y-51872D01*
X31774Y-51872D02*
X31742Y-51926D01*
X31742Y-51926D02*
X31700Y-51972D01*
X31700Y-51972D02*
X31650Y-52009D01*
X31650Y-52009D02*
X31592Y-52035D01*
X31592Y-52035D02*
X31531Y-52048D01*
X31531Y-52048D02*
X31469Y-52048D01*
X31469Y-52048D02*
X31408Y-52035D01*
X31408Y-52035D02*
X31350Y-52009D01*
X31350Y-52009D02*
X31300Y-51972D01*
X31300Y-51972D02*
X31258Y-51926D01*
X31258Y-51926D02*
X31226Y-51872D01*
X31226Y-51872D02*
X31207Y-51812D01*
X31207Y-51812D02*
X31200Y-51750D01*
X31200Y-51750D02*
X31207Y-51688D01*
X31207Y-51688D02*
X31226Y-51628D01*
X31226Y-51628D02*
X31258Y-51574D01*
X31258Y-51574D02*
X31300Y-51528D01*
X31300Y-51528D02*
X31350Y-51491D01*
X31350Y-51491D02*
X31408Y-51465D01*
X31408Y-51465D02*
X31469Y-51452D01*
X31469Y-51452D02*
X31531Y-51452D01*
X31531Y-51452D02*
X31592Y-51465D01*
X31592Y-51465D02*
X31650Y-51491D01*
X31650Y-51491D02*
X31700Y-51528D01*
X31700Y-51528D02*
X31742Y-51574D01*
X31742Y-51574D02*
X31774Y-51628D01*
X31774Y-51628D02*
X31793Y-51688D01*
X31793Y-51688D02*
X31800Y-51750D01*
X31800Y-50750D02*
X31793Y-50812D01*
X31793Y-50812D02*
X31774Y-50872D01*
X31774Y-50872D02*
X31742Y-50926D01*
X31742Y-50926D02*
X31700Y-50972D01*
X31700Y-50972D02*
X31650Y-51009D01*
X31650Y-51009D02*
X31592Y-51035D01*
X31592Y-51035D02*
X31531Y-51048D01*
X31531Y-51048D02*
X31469Y-51048D01*
X31469Y-51048D02*
X31408Y-51035D01*
X31408Y-51035D02*
X31350Y-51009D01*
X31350Y-51009D02*
X31300Y-50972D01*
X31300Y-50972D02*
X31258Y-50926D01*
X31258Y-50926D02*
X31226Y-50872D01*
X31226Y-50872D02*
X31207Y-50812D01*
X31207Y-50812D02*
X31200Y-50750D01*
X31200Y-50750D02*
X31207Y-50688D01*
X31207Y-50688D02*
X31226Y-50628D01*
X31226Y-50628D02*
X31258Y-50574D01*
X31258Y-50574D02*
X31300Y-50528D01*
X31300Y-50528D02*
X31350Y-50491D01*
X31350Y-50491D02*
X31408Y-50465D01*
X31408Y-50465D02*
X31469Y-50452D01*
X31469Y-50452D02*
X31531Y-50452D01*
X31531Y-50452D02*
X31592Y-50465D01*
X31592Y-50465D02*
X31650Y-50491D01*
X31650Y-50491D02*
X31700Y-50528D01*
X31700Y-50528D02*
X31742Y-50574D01*
X31742Y-50574D02*
X31774Y-50628D01*
X31774Y-50628D02*
X31793Y-50688D01*
X31793Y-50688D02*
X31800Y-50750D01*
X41800Y-51750D02*
X41793Y-51812D01*
X41793Y-51812D02*
X41774Y-51872D01*
X41774Y-51872D02*
X41742Y-51926D01*
X41742Y-51926D02*
X41700Y-51972D01*
X41700Y-51972D02*
X41650Y-52009D01*
X41650Y-52009D02*
X41592Y-52035D01*
X41592Y-52035D02*
X41531Y-52048D01*
X41531Y-52048D02*
X41469Y-52048D01*
X41469Y-52048D02*
X41408Y-52035D01*
X41408Y-52035D02*
X41350Y-52009D01*
X41350Y-52009D02*
X41300Y-51972D01*
X41300Y-51972D02*
X41258Y-51926D01*
X41258Y-51926D02*
X41226Y-51872D01*
X41226Y-51872D02*
X41207Y-51812D01*
X41207Y-51812D02*
X41200Y-51750D01*
X41200Y-51750D02*
X41207Y-51688D01*
X41207Y-51688D02*
X41226Y-51628D01*
X41226Y-51628D02*
X41258Y-51574D01*
X41258Y-51574D02*
X41300Y-51528D01*
X41300Y-51528D02*
X41350Y-51491D01*
X41350Y-51491D02*
X41408Y-51465D01*
X41408Y-51465D02*
X41469Y-51452D01*
X41469Y-51452D02*
X41531Y-51452D01*
X41531Y-51452D02*
X41592Y-51465D01*
X41592Y-51465D02*
X41650Y-51491D01*
X41650Y-51491D02*
X41700Y-51528D01*
X41700Y-51528D02*
X41742Y-51574D01*
X41742Y-51574D02*
X41774Y-51628D01*
X41774Y-51628D02*
X41793Y-51688D01*
X41793Y-51688D02*
X41800Y-51750D01*
X41800Y-50750D02*
X41793Y-50812D01*
X41793Y-50812D02*
X41774Y-50872D01*
X41774Y-50872D02*
X41742Y-50926D01*
X41742Y-50926D02*
X41700Y-50972D01*
X41700Y-50972D02*
X41650Y-51009D01*
X41650Y-51009D02*
X41592Y-51035D01*
X41592Y-51035D02*
X41531Y-51048D01*
X41531Y-51048D02*
X41469Y-51048D01*
X41469Y-51048D02*
X41408Y-51035D01*
X41408Y-51035D02*
X41350Y-51009D01*
X41350Y-51009D02*
X41300Y-50972D01*
X41300Y-50972D02*
X41258Y-50926D01*
X41258Y-50926D02*
X41226Y-50872D01*
X41226Y-50872D02*
X41207Y-50812D01*
X41207Y-50812D02*
X41200Y-50750D01*
X41200Y-50750D02*
X41207Y-50688D01*
X41207Y-50688D02*
X41226Y-50628D01*
X41226Y-50628D02*
X41258Y-50574D01*
X41258Y-50574D02*
X41300Y-50528D01*
X41300Y-50528D02*
X41350Y-50491D01*
X41350Y-50491D02*
X41408Y-50465D01*
X41408Y-50465D02*
X41469Y-50452D01*
X41469Y-50452D02*
X41531Y-50452D01*
X41531Y-50452D02*
X41592Y-50465D01*
X41592Y-50465D02*
X41650Y-50491D01*
X41650Y-50491D02*
X41700Y-50528D01*
X41700Y-50528D02*
X41742Y-50574D01*
X41742Y-50574D02*
X41774Y-50628D01*
X41774Y-50628D02*
X41793Y-50688D01*
X41793Y-50688D02*
X41800Y-50750D01*
X43050Y-50750D02*
X43043Y-50812D01*
X43043Y-50812D02*
X43024Y-50872D01*
X43024Y-50872D02*
X42992Y-50926D01*
X42992Y-50926D02*
X42950Y-50972D01*
X42950Y-50972D02*
X42900Y-51009D01*
X42900Y-51009D02*
X42842Y-51035D01*
X42842Y-51035D02*
X42781Y-51048D01*
X42781Y-51048D02*
X42719Y-51048D01*
X42719Y-51048D02*
X42658Y-51035D01*
X42658Y-51035D02*
X42600Y-51009D01*
X42600Y-51009D02*
X42550Y-50972D01*
X42550Y-50972D02*
X42508Y-50926D01*
X42508Y-50926D02*
X42476Y-50872D01*
X42476Y-50872D02*
X42457Y-50812D01*
X42457Y-50812D02*
X42450Y-50750D01*
X42450Y-50750D02*
X42457Y-50688D01*
X42457Y-50688D02*
X42476Y-50628D01*
X42476Y-50628D02*
X42508Y-50574D01*
X42508Y-50574D02*
X42550Y-50528D01*
X42550Y-50528D02*
X42600Y-50491D01*
X42600Y-50491D02*
X42658Y-50465D01*
X42658Y-50465D02*
X42719Y-50452D01*
X42719Y-50452D02*
X42781Y-50452D01*
X42781Y-50452D02*
X42842Y-50465D01*
X42842Y-50465D02*
X42900Y-50491D01*
X42900Y-50491D02*
X42950Y-50528D01*
X42950Y-50528D02*
X42992Y-50574D01*
X42992Y-50574D02*
X43024Y-50628D01*
X43024Y-50628D02*
X43043Y-50688D01*
X43043Y-50688D02*
X43050Y-50750D01*
X43050Y-51750D02*
X43043Y-51812D01*
X43043Y-51812D02*
X43024Y-51872D01*
X43024Y-51872D02*
X42992Y-51926D01*
X42992Y-51926D02*
X42950Y-51972D01*
X42950Y-51972D02*
X42900Y-52009D01*
X42900Y-52009D02*
X42842Y-52035D01*
X42842Y-52035D02*
X42781Y-52048D01*
X42781Y-52048D02*
X42719Y-52048D01*
X42719Y-52048D02*
X42658Y-52035D01*
X42658Y-52035D02*
X42600Y-52009D01*
X42600Y-52009D02*
X42550Y-51972D01*
X42550Y-51972D02*
X42508Y-51926D01*
X42508Y-51926D02*
X42476Y-51872D01*
X42476Y-51872D02*
X42457Y-51812D01*
X42457Y-51812D02*
X42450Y-51750D01*
X42450Y-51750D02*
X42457Y-51688D01*
X42457Y-51688D02*
X42476Y-51628D01*
X42476Y-51628D02*
X42508Y-51574D01*
X42508Y-51574D02*
X42550Y-51528D01*
X42550Y-51528D02*
X42600Y-51491D01*
X42600Y-51491D02*
X42658Y-51465D01*
X42658Y-51465D02*
X42719Y-51452D01*
X42719Y-51452D02*
X42781Y-51452D01*
X42781Y-51452D02*
X42842Y-51465D01*
X42842Y-51465D02*
X42900Y-51491D01*
X42900Y-51491D02*
X42950Y-51528D01*
X42950Y-51528D02*
X42992Y-51574D01*
X42992Y-51574D02*
X43024Y-51628D01*
X43024Y-51628D02*
X43043Y-51688D01*
X43043Y-51688D02*
X43050Y-51750D01*
X34800Y-50750D02*
X34793Y-50812D01*
X34793Y-50812D02*
X34774Y-50872D01*
X34774Y-50872D02*
X34742Y-50926D01*
X34742Y-50926D02*
X34700Y-50972D01*
X34700Y-50972D02*
X34650Y-51009D01*
X34650Y-51009D02*
X34592Y-51035D01*
X34592Y-51035D02*
X34531Y-51048D01*
X34531Y-51048D02*
X34469Y-51048D01*
X34469Y-51048D02*
X34408Y-51035D01*
X34408Y-51035D02*
X34350Y-51009D01*
X34350Y-51009D02*
X34300Y-50972D01*
X34300Y-50972D02*
X34258Y-50926D01*
X34258Y-50926D02*
X34226Y-50872D01*
X34226Y-50872D02*
X34207Y-50812D01*
X34207Y-50812D02*
X34200Y-50750D01*
X34200Y-50750D02*
X34207Y-50688D01*
X34207Y-50688D02*
X34226Y-50628D01*
X34226Y-50628D02*
X34258Y-50574D01*
X34258Y-50574D02*
X34300Y-50528D01*
X34300Y-50528D02*
X34350Y-50491D01*
X34350Y-50491D02*
X34408Y-50465D01*
X34408Y-50465D02*
X34469Y-50452D01*
X34469Y-50452D02*
X34531Y-50452D01*
X34531Y-50452D02*
X34592Y-50465D01*
X34592Y-50465D02*
X34650Y-50491D01*
X34650Y-50491D02*
X34700Y-50528D01*
X34700Y-50528D02*
X34742Y-50574D01*
X34742Y-50574D02*
X34774Y-50628D01*
X34774Y-50628D02*
X34793Y-50688D01*
X34793Y-50688D02*
X34800Y-50750D01*
X34800Y-51750D02*
X34793Y-51812D01*
X34793Y-51812D02*
X34774Y-51872D01*
X34774Y-51872D02*
X34742Y-51926D01*
X34742Y-51926D02*
X34700Y-51972D01*
X34700Y-51972D02*
X34650Y-52009D01*
X34650Y-52009D02*
X34592Y-52035D01*
X34592Y-52035D02*
X34531Y-52048D01*
X34531Y-52048D02*
X34469Y-52048D01*
X34469Y-52048D02*
X34408Y-52035D01*
X34408Y-52035D02*
X34350Y-52009D01*
X34350Y-52009D02*
X34300Y-51972D01*
X34300Y-51972D02*
X34258Y-51926D01*
X34258Y-51926D02*
X34226Y-51872D01*
X34226Y-51872D02*
X34207Y-51812D01*
X34207Y-51812D02*
X34200Y-51750D01*
X34200Y-51750D02*
X34207Y-51688D01*
X34207Y-51688D02*
X34226Y-51628D01*
X34226Y-51628D02*
X34258Y-51574D01*
X34258Y-51574D02*
X34300Y-51528D01*
X34300Y-51528D02*
X34350Y-51491D01*
X34350Y-51491D02*
X34408Y-51465D01*
X34408Y-51465D02*
X34469Y-51452D01*
X34469Y-51452D02*
X34531Y-51452D01*
X34531Y-51452D02*
X34592Y-51465D01*
X34592Y-51465D02*
X34650Y-51491D01*
X34650Y-51491D02*
X34700Y-51528D01*
X34700Y-51528D02*
X34742Y-51574D01*
X34742Y-51574D02*
X34774Y-51628D01*
X34774Y-51628D02*
X34793Y-51688D01*
X34793Y-51688D02*
X34800Y-51750D01*
X21475Y-43475D02*
X22025Y-43475D01*
X22025Y-43475D02*
X22025Y-44025D01*
X22025Y-44025D02*
X21475Y-44025D01*
X21475Y-44025D02*
X21475Y-43475D01*
X22025Y-44750D02*
X22018Y-44807D01*
X22018Y-44807D02*
X22001Y-44861D01*
X22001Y-44861D02*
X21972Y-44911D01*
X21972Y-44911D02*
X21934Y-44954D01*
X21934Y-44954D02*
X21887Y-44988D01*
X21887Y-44988D02*
X21834Y-45011D01*
X21834Y-45011D02*
X21778Y-45023D01*
X21778Y-45023D02*
X21722Y-45023D01*
X21722Y-45023D02*
X21666Y-45011D01*
X21666Y-45011D02*
X21613Y-44988D01*
X21613Y-44988D02*
X21566Y-44954D01*
X21566Y-44954D02*
X21528Y-44911D01*
X21528Y-44911D02*
X21499Y-44861D01*
X21499Y-44861D02*
X21482Y-44807D01*
X21482Y-44807D02*
X21475Y-44750D01*
X21475Y-44750D02*
X21482Y-44693D01*
X21482Y-44693D02*
X21499Y-44639D01*
X21499Y-44639D02*
X21528Y-44589D01*
X21528Y-44589D02*
X21566Y-44546D01*
X21566Y-44546D02*
X21613Y-44512D01*
X21613Y-44512D02*
X21666Y-44489D01*
X21666Y-44489D02*
X21722Y-44477D01*
X21722Y-44477D02*
X21778Y-44477D01*
X21778Y-44477D02*
X21834Y-44489D01*
X21834Y-44489D02*
X21887Y-44512D01*
X21887Y-44512D02*
X21934Y-44546D01*
X21934Y-44546D02*
X21972Y-44589D01*
X21972Y-44589D02*
X22001Y-44639D01*
X22001Y-44639D02*
X22018Y-44693D01*
X22018Y-44693D02*
X22025Y-44750D01*
X22025Y-45750D02*
X22018Y-45807D01*
X22018Y-45807D02*
X22001Y-45861D01*
X22001Y-45861D02*
X21972Y-45911D01*
X21972Y-45911D02*
X21934Y-45954D01*
X21934Y-45954D02*
X21887Y-45988D01*
X21887Y-45988D02*
X21834Y-46011D01*
X21834Y-46011D02*
X21778Y-46023D01*
X21778Y-46023D02*
X21722Y-46023D01*
X21722Y-46023D02*
X21666Y-46011D01*
X21666Y-46011D02*
X21613Y-45988D01*
X21613Y-45988D02*
X21566Y-45954D01*
X21566Y-45954D02*
X21528Y-45911D01*
X21528Y-45911D02*
X21499Y-45861D01*
X21499Y-45861D02*
X21482Y-45807D01*
X21482Y-45807D02*
X21475Y-45750D01*
X21475Y-45750D02*
X21482Y-45693D01*
X21482Y-45693D02*
X21499Y-45639D01*
X21499Y-45639D02*
X21528Y-45589D01*
X21528Y-45589D02*
X21566Y-45546D01*
X21566Y-45546D02*
X21613Y-45512D01*
X21613Y-45512D02*
X21666Y-45489D01*
X21666Y-45489D02*
X21722Y-45477D01*
X21722Y-45477D02*
X21778Y-45477D01*
X21778Y-45477D02*
X21834Y-45489D01*
X21834Y-45489D02*
X21887Y-45512D01*
X21887Y-45512D02*
X21934Y-45546D01*
X21934Y-45546D02*
X21972Y-45589D01*
X21972Y-45589D02*
X22001Y-45639D01*
X22001Y-45639D02*
X22018Y-45693D01*
X22018Y-45693D02*
X22025Y-45750D01*
X22025Y-46750D02*
X22018Y-46807D01*
X22018Y-46807D02*
X22001Y-46861D01*
X22001Y-46861D02*
X21972Y-46911D01*
X21972Y-46911D02*
X21934Y-46954D01*
X21934Y-46954D02*
X21887Y-46988D01*
X21887Y-46988D02*
X21834Y-47011D01*
X21834Y-47011D02*
X21778Y-47023D01*
X21778Y-47023D02*
X21722Y-47023D01*
X21722Y-47023D02*
X21666Y-47011D01*
X21666Y-47011D02*
X21613Y-46988D01*
X21613Y-46988D02*
X21566Y-46954D01*
X21566Y-46954D02*
X21528Y-46911D01*
X21528Y-46911D02*
X21499Y-46861D01*
X21499Y-46861D02*
X21482Y-46807D01*
X21482Y-46807D02*
X21475Y-46750D01*
X21475Y-46750D02*
X21482Y-46693D01*
X21482Y-46693D02*
X21499Y-46639D01*
X21499Y-46639D02*
X21528Y-46589D01*
X21528Y-46589D02*
X21566Y-46546D01*
X21566Y-46546D02*
X21613Y-46512D01*
X21613Y-46512D02*
X21666Y-46489D01*
X21666Y-46489D02*
X21722Y-46477D01*
X21722Y-46477D02*
X21778Y-46477D01*
X21778Y-46477D02*
X21834Y-46489D01*
X21834Y-46489D02*
X21887Y-46512D01*
X21887Y-46512D02*
X21934Y-46546D01*
X21934Y-46546D02*
X21972Y-46589D01*
X21972Y-46589D02*
X22001Y-46639D01*
X22001Y-46639D02*
X22018Y-46693D01*
X22018Y-46693D02*
X22025Y-46750D01*
X22025Y-47750D02*
X22018Y-47807D01*
X22018Y-47807D02*
X22001Y-47861D01*
X22001Y-47861D02*
X21972Y-47911D01*
X21972Y-47911D02*
X21934Y-47954D01*
X21934Y-47954D02*
X21887Y-47988D01*
X21887Y-47988D02*
X21834Y-48011D01*
X21834Y-48011D02*
X21778Y-48023D01*
X21778Y-48023D02*
X21722Y-48023D01*
X21722Y-48023D02*
X21666Y-48011D01*
X21666Y-48011D02*
X21613Y-47988D01*
X21613Y-47988D02*
X21566Y-47954D01*
X21566Y-47954D02*
X21528Y-47911D01*
X21528Y-47911D02*
X21499Y-47861D01*
X21499Y-47861D02*
X21482Y-47807D01*
X21482Y-47807D02*
X21475Y-47750D01*
X21475Y-47750D02*
X21482Y-47693D01*
X21482Y-47693D02*
X21499Y-47639D01*
X21499Y-47639D02*
X21528Y-47589D01*
X21528Y-47589D02*
X21566Y-47546D01*
X21566Y-47546D02*
X21613Y-47512D01*
X21613Y-47512D02*
X21666Y-47489D01*
X21666Y-47489D02*
X21722Y-47477D01*
X21722Y-47477D02*
X21778Y-47477D01*
X21778Y-47477D02*
X21834Y-47489D01*
X21834Y-47489D02*
X21887Y-47512D01*
X21887Y-47512D02*
X21934Y-47546D01*
X21934Y-47546D02*
X21972Y-47589D01*
X21972Y-47589D02*
X22001Y-47639D01*
X22001Y-47639D02*
X22018Y-47693D01*
X22018Y-47693D02*
X22025Y-47750D01*
X48300Y-51750D02*
X48293Y-51812D01*
X48293Y-51812D02*
X48274Y-51872D01*
X48274Y-51872D02*
X48242Y-51926D01*
X48242Y-51926D02*
X48200Y-51972D01*
X48200Y-51972D02*
X48150Y-52009D01*
X48150Y-52009D02*
X48092Y-52035D01*
X48092Y-52035D02*
X48031Y-52048D01*
X48031Y-52048D02*
X47969Y-52048D01*
X47969Y-52048D02*
X47908Y-52035D01*
X47908Y-52035D02*
X47850Y-52009D01*
X47850Y-52009D02*
X47800Y-51972D01*
X47800Y-51972D02*
X47758Y-51926D01*
X47758Y-51926D02*
X47726Y-51872D01*
X47726Y-51872D02*
X47707Y-51812D01*
X47707Y-51812D02*
X47700Y-51750D01*
X47700Y-51750D02*
X47707Y-51688D01*
X47707Y-51688D02*
X47726Y-51628D01*
X47726Y-51628D02*
X47758Y-51574D01*
X47758Y-51574D02*
X47800Y-51528D01*
X47800Y-51528D02*
X47850Y-51491D01*
X47850Y-51491D02*
X47908Y-51465D01*
X47908Y-51465D02*
X47969Y-51452D01*
X47969Y-51452D02*
X48031Y-51452D01*
X48031Y-51452D02*
X48092Y-51465D01*
X48092Y-51465D02*
X48150Y-51491D01*
X48150Y-51491D02*
X48200Y-51528D01*
X48200Y-51528D02*
X48242Y-51574D01*
X48242Y-51574D02*
X48274Y-51628D01*
X48274Y-51628D02*
X48293Y-51688D01*
X48293Y-51688D02*
X48300Y-51750D01*
X48300Y-50750D02*
X48293Y-50812D01*
X48293Y-50812D02*
X48274Y-50872D01*
X48274Y-50872D02*
X48242Y-50926D01*
X48242Y-50926D02*
X48200Y-50972D01*
X48200Y-50972D02*
X48150Y-51009D01*
X48150Y-51009D02*
X48092Y-51035D01*
X48092Y-51035D02*
X48031Y-51048D01*
X48031Y-51048D02*
X47969Y-51048D01*
X47969Y-51048D02*
X47908Y-51035D01*
X47908Y-51035D02*
X47850Y-51009D01*
X47850Y-51009D02*
X47800Y-50972D01*
X47800Y-50972D02*
X47758Y-50926D01*
X47758Y-50926D02*
X47726Y-50872D01*
X47726Y-50872D02*
X47707Y-50812D01*
X47707Y-50812D02*
X47700Y-50750D01*
X47700Y-50750D02*
X47707Y-50688D01*
X47707Y-50688D02*
X47726Y-50628D01*
X47726Y-50628D02*
X47758Y-50574D01*
X47758Y-50574D02*
X47800Y-50528D01*
X47800Y-50528D02*
X47850Y-50491D01*
X47850Y-50491D02*
X47908Y-50465D01*
X47908Y-50465D02*
X47969Y-50452D01*
X47969Y-50452D02*
X48031Y-50452D01*
X48031Y-50452D02*
X48092Y-50465D01*
X48092Y-50465D02*
X48150Y-50491D01*
X48150Y-50491D02*
X48200Y-50528D01*
X48200Y-50528D02*
X48242Y-50574D01*
X48242Y-50574D02*
X48274Y-50628D01*
X48274Y-50628D02*
X48293Y-50688D01*
X48293Y-50688D02*
X48300Y-50750D01*
X26550Y-51750D02*
X26543Y-51812D01*
X26543Y-51812D02*
X26524Y-51872D01*
X26524Y-51872D02*
X26492Y-51926D01*
X26492Y-51926D02*
X26450Y-51972D01*
X26450Y-51972D02*
X26400Y-52009D01*
X26400Y-52009D02*
X26342Y-52035D01*
X26342Y-52035D02*
X26281Y-52048D01*
X26281Y-52048D02*
X26219Y-52048D01*
X26219Y-52048D02*
X26158Y-52035D01*
X26158Y-52035D02*
X26100Y-52009D01*
X26100Y-52009D02*
X26050Y-51972D01*
X26050Y-51972D02*
X26008Y-51926D01*
X26008Y-51926D02*
X25976Y-51872D01*
X25976Y-51872D02*
X25957Y-51812D01*
X25957Y-51812D02*
X25950Y-51750D01*
X25950Y-51750D02*
X25957Y-51688D01*
X25957Y-51688D02*
X25976Y-51628D01*
X25976Y-51628D02*
X26008Y-51574D01*
X26008Y-51574D02*
X26050Y-51528D01*
X26050Y-51528D02*
X26100Y-51491D01*
X26100Y-51491D02*
X26158Y-51465D01*
X26158Y-51465D02*
X26219Y-51452D01*
X26219Y-51452D02*
X26281Y-51452D01*
X26281Y-51452D02*
X26342Y-51465D01*
X26342Y-51465D02*
X26400Y-51491D01*
X26400Y-51491D02*
X26450Y-51528D01*
X26450Y-51528D02*
X26492Y-51574D01*
X26492Y-51574D02*
X26524Y-51628D01*
X26524Y-51628D02*
X26543Y-51688D01*
X26543Y-51688D02*
X26550Y-51750D01*
X26550Y-52750D02*
X26543Y-52812D01*
X26543Y-52812D02*
X26524Y-52872D01*
X26524Y-52872D02*
X26492Y-52926D01*
X26492Y-52926D02*
X26450Y-52972D01*
X26450Y-52972D02*
X26400Y-53009D01*
X26400Y-53009D02*
X26342Y-53035D01*
X26342Y-53035D02*
X26281Y-53048D01*
X26281Y-53048D02*
X26219Y-53048D01*
X26219Y-53048D02*
X26158Y-53035D01*
X26158Y-53035D02*
X26100Y-53009D01*
X26100Y-53009D02*
X26050Y-52972D01*
X26050Y-52972D02*
X26008Y-52926D01*
X26008Y-52926D02*
X25976Y-52872D01*
X25976Y-52872D02*
X25957Y-52812D01*
X25957Y-52812D02*
X25950Y-52750D01*
X25950Y-52750D02*
X25957Y-52688D01*
X25957Y-52688D02*
X25976Y-52628D01*
X25976Y-52628D02*
X26008Y-52574D01*
X26008Y-52574D02*
X26050Y-52528D01*
X26050Y-52528D02*
X26100Y-52491D01*
X26100Y-52491D02*
X26158Y-52465D01*
X26158Y-52465D02*
X26219Y-52452D01*
X26219Y-52452D02*
X26281Y-52452D01*
X26281Y-52452D02*
X26342Y-52465D01*
X26342Y-52465D02*
X26400Y-52491D01*
X26400Y-52491D02*
X26450Y-52528D01*
X26450Y-52528D02*
X26492Y-52574D01*
X26492Y-52574D02*
X26524Y-52628D01*
X26524Y-52628D02*
X26543Y-52688D01*
X26543Y-52688D02*
X26550Y-52750D01*
X24050Y-44500D02*
X24043Y-44562D01*
X24043Y-44562D02*
X24024Y-44622D01*
X24024Y-44622D02*
X23992Y-44676D01*
X23992Y-44676D02*
X23950Y-44722D01*
X23950Y-44722D02*
X23900Y-44759D01*
X23900Y-44759D02*
X23842Y-44785D01*
X23842Y-44785D02*
X23781Y-44798D01*
X23781Y-44798D02*
X23719Y-44798D01*
X23719Y-44798D02*
X23658Y-44785D01*
X23658Y-44785D02*
X23600Y-44759D01*
X23600Y-44759D02*
X23550Y-44722D01*
X23550Y-44722D02*
X23508Y-44676D01*
X23508Y-44676D02*
X23476Y-44622D01*
X23476Y-44622D02*
X23457Y-44562D01*
X23457Y-44562D02*
X23450Y-44500D01*
X23450Y-44500D02*
X23457Y-44438D01*
X23457Y-44438D02*
X23476Y-44378D01*
X23476Y-44378D02*
X23508Y-44324D01*
X23508Y-44324D02*
X23550Y-44278D01*
X23550Y-44278D02*
X23600Y-44241D01*
X23600Y-44241D02*
X23658Y-44215D01*
X23658Y-44215D02*
X23719Y-44202D01*
X23719Y-44202D02*
X23781Y-44202D01*
X23781Y-44202D02*
X23842Y-44215D01*
X23842Y-44215D02*
X23900Y-44241D01*
X23900Y-44241D02*
X23950Y-44278D01*
X23950Y-44278D02*
X23992Y-44324D01*
X23992Y-44324D02*
X24024Y-44378D01*
X24024Y-44378D02*
X24043Y-44438D01*
X24043Y-44438D02*
X24050Y-44500D01*
X23050Y-44500D02*
X23043Y-44562D01*
X23043Y-44562D02*
X23024Y-44622D01*
X23024Y-44622D02*
X22992Y-44676D01*
X22992Y-44676D02*
X22950Y-44722D01*
X22950Y-44722D02*
X22900Y-44759D01*
X22900Y-44759D02*
X22842Y-44785D01*
X22842Y-44785D02*
X22781Y-44798D01*
X22781Y-44798D02*
X22719Y-44798D01*
X22719Y-44798D02*
X22658Y-44785D01*
X22658Y-44785D02*
X22600Y-44759D01*
X22600Y-44759D02*
X22550Y-44722D01*
X22550Y-44722D02*
X22508Y-44676D01*
X22508Y-44676D02*
X22476Y-44622D01*
X22476Y-44622D02*
X22457Y-44562D01*
X22457Y-44562D02*
X22450Y-44500D01*
X22450Y-44500D02*
X22457Y-44438D01*
X22457Y-44438D02*
X22476Y-44378D01*
X22476Y-44378D02*
X22508Y-44324D01*
X22508Y-44324D02*
X22550Y-44278D01*
X22550Y-44278D02*
X22600Y-44241D01*
X22600Y-44241D02*
X22658Y-44215D01*
X22658Y-44215D02*
X22719Y-44202D01*
X22719Y-44202D02*
X22781Y-44202D01*
X22781Y-44202D02*
X22842Y-44215D01*
X22842Y-44215D02*
X22900Y-44241D01*
X22900Y-44241D02*
X22950Y-44278D01*
X22950Y-44278D02*
X22992Y-44324D01*
X22992Y-44324D02*
X23024Y-44378D01*
X23024Y-44378D02*
X23043Y-44438D01*
X23043Y-44438D02*
X23050Y-44500D01*
X26300Y-50250D02*
X26293Y-50312D01*
X26293Y-50312D02*
X26274Y-50372D01*
X26274Y-50372D02*
X26242Y-50426D01*
X26242Y-50426D02*
X26200Y-50472D01*
X26200Y-50472D02*
X26150Y-50509D01*
X26150Y-50509D02*
X26092Y-50535D01*
X26092Y-50535D02*
X26031Y-50548D01*
X26031Y-50548D02*
X25969Y-50548D01*
X25969Y-50548D02*
X25908Y-50535D01*
X25908Y-50535D02*
X25850Y-50509D01*
X25850Y-50509D02*
X25800Y-50472D01*
X25800Y-50472D02*
X25758Y-50426D01*
X25758Y-50426D02*
X25726Y-50372D01*
X25726Y-50372D02*
X25707Y-50312D01*
X25707Y-50312D02*
X25700Y-50250D01*
X25700Y-50250D02*
X25707Y-50188D01*
X25707Y-50188D02*
X25726Y-50128D01*
X25726Y-50128D02*
X25758Y-50074D01*
X25758Y-50074D02*
X25800Y-50028D01*
X25800Y-50028D02*
X25850Y-49991D01*
X25850Y-49991D02*
X25908Y-49965D01*
X25908Y-49965D02*
X25969Y-49952D01*
X25969Y-49952D02*
X26031Y-49952D01*
X26031Y-49952D02*
X26092Y-49965D01*
X26092Y-49965D02*
X26150Y-49991D01*
X26150Y-49991D02*
X26200Y-50028D01*
X26200Y-50028D02*
X26242Y-50074D01*
X26242Y-50074D02*
X26274Y-50128D01*
X26274Y-50128D02*
X26293Y-50188D01*
X26293Y-50188D02*
X26300Y-50250D01*
X27300Y-50250D02*
X27293Y-50312D01*
X27293Y-50312D02*
X27274Y-50372D01*
X27274Y-50372D02*
X27242Y-50426D01*
X27242Y-50426D02*
X27200Y-50472D01*
X27200Y-50472D02*
X27150Y-50509D01*
X27150Y-50509D02*
X27092Y-50535D01*
X27092Y-50535D02*
X27031Y-50548D01*
X27031Y-50548D02*
X26969Y-50548D01*
X26969Y-50548D02*
X26908Y-50535D01*
X26908Y-50535D02*
X26850Y-50509D01*
X26850Y-50509D02*
X26800Y-50472D01*
X26800Y-50472D02*
X26758Y-50426D01*
X26758Y-50426D02*
X26726Y-50372D01*
X26726Y-50372D02*
X26707Y-50312D01*
X26707Y-50312D02*
X26700Y-50250D01*
X26700Y-50250D02*
X26707Y-50188D01*
X26707Y-50188D02*
X26726Y-50128D01*
X26726Y-50128D02*
X26758Y-50074D01*
X26758Y-50074D02*
X26800Y-50028D01*
X26800Y-50028D02*
X26850Y-49991D01*
X26850Y-49991D02*
X26908Y-49965D01*
X26908Y-49965D02*
X26969Y-49952D01*
X26969Y-49952D02*
X27031Y-49952D01*
X27031Y-49952D02*
X27092Y-49965D01*
X27092Y-49965D02*
X27150Y-49991D01*
X27150Y-49991D02*
X27200Y-50028D01*
X27200Y-50028D02*
X27242Y-50074D01*
X27242Y-50074D02*
X27274Y-50128D01*
X27274Y-50128D02*
X27293Y-50188D01*
X27293Y-50188D02*
X27300Y-50250D01*
X28300Y-44000D02*
X28293Y-44062D01*
X28293Y-44062D02*
X28274Y-44122D01*
X28274Y-44122D02*
X28242Y-44176D01*
X28242Y-44176D02*
X28200Y-44222D01*
X28200Y-44222D02*
X28150Y-44259D01*
X28150Y-44259D02*
X28092Y-44285D01*
X28092Y-44285D02*
X28031Y-44298D01*
X28031Y-44298D02*
X27969Y-44298D01*
X27969Y-44298D02*
X27908Y-44285D01*
X27908Y-44285D02*
X27850Y-44259D01*
X27850Y-44259D02*
X27800Y-44222D01*
X27800Y-44222D02*
X27758Y-44176D01*
X27758Y-44176D02*
X27726Y-44122D01*
X27726Y-44122D02*
X27707Y-44062D01*
X27707Y-44062D02*
X27700Y-44000D01*
X27700Y-44000D02*
X27707Y-43938D01*
X27707Y-43938D02*
X27726Y-43878D01*
X27726Y-43878D02*
X27758Y-43824D01*
X27758Y-43824D02*
X27800Y-43778D01*
X27800Y-43778D02*
X27850Y-43741D01*
X27850Y-43741D02*
X27908Y-43715D01*
X27908Y-43715D02*
X27969Y-43702D01*
X27969Y-43702D02*
X28031Y-43702D01*
X28031Y-43702D02*
X28092Y-43715D01*
X28092Y-43715D02*
X28150Y-43741D01*
X28150Y-43741D02*
X28200Y-43778D01*
X28200Y-43778D02*
X28242Y-43824D01*
X28242Y-43824D02*
X28274Y-43878D01*
X28274Y-43878D02*
X28293Y-43938D01*
X28293Y-43938D02*
X28300Y-44000D01*
X28300Y-45000D02*
X28293Y-45062D01*
X28293Y-45062D02*
X28274Y-45122D01*
X28274Y-45122D02*
X28242Y-45176D01*
X28242Y-45176D02*
X28200Y-45222D01*
X28200Y-45222D02*
X28150Y-45259D01*
X28150Y-45259D02*
X28092Y-45285D01*
X28092Y-45285D02*
X28031Y-45298D01*
X28031Y-45298D02*
X27969Y-45298D01*
X27969Y-45298D02*
X27908Y-45285D01*
X27908Y-45285D02*
X27850Y-45259D01*
X27850Y-45259D02*
X27800Y-45222D01*
X27800Y-45222D02*
X27758Y-45176D01*
X27758Y-45176D02*
X27726Y-45122D01*
X27726Y-45122D02*
X27707Y-45062D01*
X27707Y-45062D02*
X27700Y-45000D01*
X27700Y-45000D02*
X27707Y-44938D01*
X27707Y-44938D02*
X27726Y-44878D01*
X27726Y-44878D02*
X27758Y-44824D01*
X27758Y-44824D02*
X27800Y-44778D01*
X27800Y-44778D02*
X27850Y-44741D01*
X27850Y-44741D02*
X27908Y-44715D01*
X27908Y-44715D02*
X27969Y-44702D01*
X27969Y-44702D02*
X28031Y-44702D01*
X28031Y-44702D02*
X28092Y-44715D01*
X28092Y-44715D02*
X28150Y-44741D01*
X28150Y-44741D02*
X28200Y-44778D01*
X28200Y-44778D02*
X28242Y-44824D01*
X28242Y-44824D02*
X28274Y-44878D01*
X28274Y-44878D02*
X28293Y-44938D01*
X28293Y-44938D02*
X28300Y-45000D01*
X27800Y-51000D02*
X27793Y-51062D01*
X27793Y-51062D02*
X27774Y-51122D01*
X27774Y-51122D02*
X27742Y-51176D01*
X27742Y-51176D02*
X27700Y-51222D01*
X27700Y-51222D02*
X27650Y-51259D01*
X27650Y-51259D02*
X27592Y-51285D01*
X27592Y-51285D02*
X27531Y-51298D01*
X27531Y-51298D02*
X27469Y-51298D01*
X27469Y-51298D02*
X27408Y-51285D01*
X27408Y-51285D02*
X27350Y-51259D01*
X27350Y-51259D02*
X27300Y-51222D01*
X27300Y-51222D02*
X27258Y-51176D01*
X27258Y-51176D02*
X27226Y-51122D01*
X27226Y-51122D02*
X27207Y-51062D01*
X27207Y-51062D02*
X27200Y-51000D01*
X27200Y-51000D02*
X27207Y-50938D01*
X27207Y-50938D02*
X27226Y-50878D01*
X27226Y-50878D02*
X27258Y-50824D01*
X27258Y-50824D02*
X27300Y-50778D01*
X27300Y-50778D02*
X27350Y-50741D01*
X27350Y-50741D02*
X27408Y-50715D01*
X27408Y-50715D02*
X27469Y-50702D01*
X27469Y-50702D02*
X27531Y-50702D01*
X27531Y-50702D02*
X27592Y-50715D01*
X27592Y-50715D02*
X27650Y-50741D01*
X27650Y-50741D02*
X27700Y-50778D01*
X27700Y-50778D02*
X27742Y-50824D01*
X27742Y-50824D02*
X27774Y-50878D01*
X27774Y-50878D02*
X27793Y-50938D01*
X27793Y-50938D02*
X27800Y-51000D01*
X27800Y-52000D02*
X27793Y-52062D01*
X27793Y-52062D02*
X27774Y-52122D01*
X27774Y-52122D02*
X27742Y-52176D01*
X27742Y-52176D02*
X27700Y-52222D01*
X27700Y-52222D02*
X27650Y-52259D01*
X27650Y-52259D02*
X27592Y-52285D01*
X27592Y-52285D02*
X27531Y-52298D01*
X27531Y-52298D02*
X27469Y-52298D01*
X27469Y-52298D02*
X27408Y-52285D01*
X27408Y-52285D02*
X27350Y-52259D01*
X27350Y-52259D02*
X27300Y-52222D01*
X27300Y-52222D02*
X27258Y-52176D01*
X27258Y-52176D02*
X27226Y-52122D01*
X27226Y-52122D02*
X27207Y-52062D01*
X27207Y-52062D02*
X27200Y-52000D01*
X27200Y-52000D02*
X27207Y-51938D01*
X27207Y-51938D02*
X27226Y-51878D01*
X27226Y-51878D02*
X27258Y-51824D01*
X27258Y-51824D02*
X27300Y-51778D01*
X27300Y-51778D02*
X27350Y-51741D01*
X27350Y-51741D02*
X27408Y-51715D01*
X27408Y-51715D02*
X27469Y-51702D01*
X27469Y-51702D02*
X27531Y-51702D01*
X27531Y-51702D02*
X27592Y-51715D01*
X27592Y-51715D02*
X27650Y-51741D01*
X27650Y-51741D02*
X27700Y-51778D01*
X27700Y-51778D02*
X27742Y-51824D01*
X27742Y-51824D02*
X27774Y-51878D01*
X27774Y-51878D02*
X27793Y-51938D01*
X27793Y-51938D02*
X27800Y-52000D01*
X50050Y-51750D02*
X50043Y-51812D01*
X50043Y-51812D02*
X50024Y-51872D01*
X50024Y-51872D02*
X49992Y-51926D01*
X49992Y-51926D02*
X49950Y-51972D01*
X49950Y-51972D02*
X49900Y-52009D01*
X49900Y-52009D02*
X49842Y-52035D01*
X49842Y-52035D02*
X49781Y-52048D01*
X49781Y-52048D02*
X49719Y-52048D01*
X49719Y-52048D02*
X49658Y-52035D01*
X49658Y-52035D02*
X49600Y-52009D01*
X49600Y-52009D02*
X49550Y-51972D01*
X49550Y-51972D02*
X49508Y-51926D01*
X49508Y-51926D02*
X49476Y-51872D01*
X49476Y-51872D02*
X49457Y-51812D01*
X49457Y-51812D02*
X49450Y-51750D01*
X49450Y-51750D02*
X49457Y-51688D01*
X49457Y-51688D02*
X49476Y-51628D01*
X49476Y-51628D02*
X49508Y-51574D01*
X49508Y-51574D02*
X49550Y-51528D01*
X49550Y-51528D02*
X49600Y-51491D01*
X49600Y-51491D02*
X49658Y-51465D01*
X49658Y-51465D02*
X49719Y-51452D01*
X49719Y-51452D02*
X49781Y-51452D01*
X49781Y-51452D02*
X49842Y-51465D01*
X49842Y-51465D02*
X49900Y-51491D01*
X49900Y-51491D02*
X49950Y-51528D01*
X49950Y-51528D02*
X49992Y-51574D01*
X49992Y-51574D02*
X50024Y-51628D01*
X50024Y-51628D02*
X50043Y-51688D01*
X50043Y-51688D02*
X50050Y-51750D01*
X50050Y-50750D02*
X50043Y-50812D01*
X50043Y-50812D02*
X50024Y-50872D01*
X50024Y-50872D02*
X49992Y-50926D01*
X49992Y-50926D02*
X49950Y-50972D01*
X49950Y-50972D02*
X49900Y-51009D01*
X49900Y-51009D02*
X49842Y-51035D01*
X49842Y-51035D02*
X49781Y-51048D01*
X49781Y-51048D02*
X49719Y-51048D01*
X49719Y-51048D02*
X49658Y-51035D01*
X49658Y-51035D02*
X49600Y-51009D01*
X49600Y-51009D02*
X49550Y-50972D01*
X49550Y-50972D02*
X49508Y-50926D01*
X49508Y-50926D02*
X49476Y-50872D01*
X49476Y-50872D02*
X49457Y-50812D01*
X49457Y-50812D02*
X49450Y-50750D01*
X49450Y-50750D02*
X49457Y-50688D01*
X49457Y-50688D02*
X49476Y-50628D01*
X49476Y-50628D02*
X49508Y-50574D01*
X49508Y-50574D02*
X49550Y-50528D01*
X49550Y-50528D02*
X49600Y-50491D01*
X49600Y-50491D02*
X49658Y-50465D01*
X49658Y-50465D02*
X49719Y-50452D01*
X49719Y-50452D02*
X49781Y-50452D01*
X49781Y-50452D02*
X49842Y-50465D01*
X49842Y-50465D02*
X49900Y-50491D01*
X49900Y-50491D02*
X49950Y-50528D01*
X49950Y-50528D02*
X49992Y-50574D01*
X49992Y-50574D02*
X50024Y-50628D01*
X50024Y-50628D02*
X50043Y-50688D01*
X50043Y-50688D02*
X50050Y-50750D01*
X25975Y-45475D02*
X26525Y-45475D01*
X26525Y-45475D02*
X26525Y-46025D01*
X26525Y-46025D02*
X25975Y-46025D01*
X25975Y-46025D02*
X25975Y-45475D01*
X26525Y-46750D02*
X26518Y-46807D01*
X26518Y-46807D02*
X26501Y-46861D01*
X26501Y-46861D02*
X26472Y-46911D01*
X26472Y-46911D02*
X26434Y-46954D01*
X26434Y-46954D02*
X26387Y-46988D01*
X26387Y-46988D02*
X26334Y-47011D01*
X26334Y-47011D02*
X26278Y-47023D01*
X26278Y-47023D02*
X26222Y-47023D01*
X26222Y-47023D02*
X26166Y-47011D01*
X26166Y-47011D02*
X26113Y-46988D01*
X26113Y-46988D02*
X26066Y-46954D01*
X26066Y-46954D02*
X26028Y-46911D01*
X26028Y-46911D02*
X25999Y-46861D01*
X25999Y-46861D02*
X25982Y-46807D01*
X25982Y-46807D02*
X25975Y-46750D01*
X25975Y-46750D02*
X25982Y-46693D01*
X25982Y-46693D02*
X25999Y-46639D01*
X25999Y-46639D02*
X26028Y-46589D01*
X26028Y-46589D02*
X26066Y-46546D01*
X26066Y-46546D02*
X26113Y-46512D01*
X26113Y-46512D02*
X26166Y-46489D01*
X26166Y-46489D02*
X26222Y-46477D01*
X26222Y-46477D02*
X26278Y-46477D01*
X26278Y-46477D02*
X26334Y-46489D01*
X26334Y-46489D02*
X26387Y-46512D01*
X26387Y-46512D02*
X26434Y-46546D01*
X26434Y-46546D02*
X26472Y-46589D01*
X26472Y-46589D02*
X26501Y-46639D01*
X26501Y-46639D02*
X26518Y-46693D01*
X26518Y-46693D02*
X26525Y-46750D01*
X26525Y-47750D02*
X26518Y-47807D01*
X26518Y-47807D02*
X26501Y-47861D01*
X26501Y-47861D02*
X26472Y-47911D01*
X26472Y-47911D02*
X26434Y-47954D01*
X26434Y-47954D02*
X26387Y-47988D01*
X26387Y-47988D02*
X26334Y-48011D01*
X26334Y-48011D02*
X26278Y-48023D01*
X26278Y-48023D02*
X26222Y-48023D01*
X26222Y-48023D02*
X26166Y-48011D01*
X26166Y-48011D02*
X26113Y-47988D01*
X26113Y-47988D02*
X26066Y-47954D01*
X26066Y-47954D02*
X26028Y-47911D01*
X26028Y-47911D02*
X25999Y-47861D01*
X25999Y-47861D02*
X25982Y-47807D01*
X25982Y-47807D02*
X25975Y-47750D01*
X25975Y-47750D02*
X25982Y-47693D01*
X25982Y-47693D02*
X25999Y-47639D01*
X25999Y-47639D02*
X26028Y-47589D01*
X26028Y-47589D02*
X26066Y-47546D01*
X26066Y-47546D02*
X26113Y-47512D01*
X26113Y-47512D02*
X26166Y-47489D01*
X26166Y-47489D02*
X26222Y-47477D01*
X26222Y-47477D02*
X26278Y-47477D01*
X26278Y-47477D02*
X26334Y-47489D01*
X26334Y-47489D02*
X26387Y-47512D01*
X26387Y-47512D02*
X26434Y-47546D01*
X26434Y-47546D02*
X26472Y-47589D01*
X26472Y-47589D02*
X26501Y-47639D01*
X26501Y-47639D02*
X26518Y-47693D01*
X26518Y-47693D02*
X26525Y-47750D01*
X26525Y-48750D02*
X26518Y-48807D01*
X26518Y-48807D02*
X26501Y-48861D01*
X26501Y-48861D02*
X26472Y-48911D01*
X26472Y-48911D02*
X26434Y-48954D01*
X26434Y-48954D02*
X26387Y-48988D01*
X26387Y-48988D02*
X26334Y-49011D01*
X26334Y-49011D02*
X26278Y-49023D01*
X26278Y-49023D02*
X26222Y-49023D01*
X26222Y-49023D02*
X26166Y-49011D01*
X26166Y-49011D02*
X26113Y-48988D01*
X26113Y-48988D02*
X26066Y-48954D01*
X26066Y-48954D02*
X26028Y-48911D01*
X26028Y-48911D02*
X25999Y-48861D01*
X25999Y-48861D02*
X25982Y-48807D01*
X25982Y-48807D02*
X25975Y-48750D01*
X25975Y-48750D02*
X25982Y-48693D01*
X25982Y-48693D02*
X25999Y-48639D01*
X25999Y-48639D02*
X26028Y-48589D01*
X26028Y-48589D02*
X26066Y-48546D01*
X26066Y-48546D02*
X26113Y-48512D01*
X26113Y-48512D02*
X26166Y-48489D01*
X26166Y-48489D02*
X26222Y-48477D01*
X26222Y-48477D02*
X26278Y-48477D01*
X26278Y-48477D02*
X26334Y-48489D01*
X26334Y-48489D02*
X26387Y-48512D01*
X26387Y-48512D02*
X26434Y-48546D01*
X26434Y-48546D02*
X26472Y-48589D01*
X26472Y-48589D02*
X26501Y-48639D01*
X26501Y-48639D02*
X26518Y-48693D01*
X26518Y-48693D02*
X26525Y-48750D01*
X29525Y-48750D02*
X29518Y-48807D01*
X29518Y-48807D02*
X29501Y-48861D01*
X29501Y-48861D02*
X29472Y-48911D01*
X29472Y-48911D02*
X29434Y-48954D01*
X29434Y-48954D02*
X29387Y-48988D01*
X29387Y-48988D02*
X29334Y-49011D01*
X29334Y-49011D02*
X29278Y-49023D01*
X29278Y-49023D02*
X29222Y-49023D01*
X29222Y-49023D02*
X29166Y-49011D01*
X29166Y-49011D02*
X29113Y-48988D01*
X29113Y-48988D02*
X29066Y-48954D01*
X29066Y-48954D02*
X29028Y-48911D01*
X29028Y-48911D02*
X28999Y-48861D01*
X28999Y-48861D02*
X28982Y-48807D01*
X28982Y-48807D02*
X28975Y-48750D01*
X28975Y-48750D02*
X28982Y-48693D01*
X28982Y-48693D02*
X28999Y-48639D01*
X28999Y-48639D02*
X29028Y-48589D01*
X29028Y-48589D02*
X29066Y-48546D01*
X29066Y-48546D02*
X29113Y-48512D01*
X29113Y-48512D02*
X29166Y-48489D01*
X29166Y-48489D02*
X29222Y-48477D01*
X29222Y-48477D02*
X29278Y-48477D01*
X29278Y-48477D02*
X29334Y-48489D01*
X29334Y-48489D02*
X29387Y-48512D01*
X29387Y-48512D02*
X29434Y-48546D01*
X29434Y-48546D02*
X29472Y-48589D01*
X29472Y-48589D02*
X29501Y-48639D01*
X29501Y-48639D02*
X29518Y-48693D01*
X29518Y-48693D02*
X29525Y-48750D01*
X29525Y-47750D02*
X29518Y-47807D01*
X29518Y-47807D02*
X29501Y-47861D01*
X29501Y-47861D02*
X29472Y-47911D01*
X29472Y-47911D02*
X29434Y-47954D01*
X29434Y-47954D02*
X29387Y-47988D01*
X29387Y-47988D02*
X29334Y-48011D01*
X29334Y-48011D02*
X29278Y-48023D01*
X29278Y-48023D02*
X29222Y-48023D01*
X29222Y-48023D02*
X29166Y-48011D01*
X29166Y-48011D02*
X29113Y-47988D01*
X29113Y-47988D02*
X29066Y-47954D01*
X29066Y-47954D02*
X29028Y-47911D01*
X29028Y-47911D02*
X28999Y-47861D01*
X28999Y-47861D02*
X28982Y-47807D01*
X28982Y-47807D02*
X28975Y-47750D01*
X28975Y-47750D02*
X28982Y-47693D01*
X28982Y-47693D02*
X28999Y-47639D01*
X28999Y-47639D02*
X29028Y-47589D01*
X29028Y-47589D02*
X29066Y-47546D01*
X29066Y-47546D02*
X29113Y-47512D01*
X29113Y-47512D02*
X29166Y-47489D01*
X29166Y-47489D02*
X29222Y-47477D01*
X29222Y-47477D02*
X29278Y-47477D01*
X29278Y-47477D02*
X29334Y-47489D01*
X29334Y-47489D02*
X29387Y-47512D01*
X29387Y-47512D02*
X29434Y-47546D01*
X29434Y-47546D02*
X29472Y-47589D01*
X29472Y-47589D02*
X29501Y-47639D01*
X29501Y-47639D02*
X29518Y-47693D01*
X29518Y-47693D02*
X29525Y-47750D01*
X29525Y-46750D02*
X29518Y-46807D01*
X29518Y-46807D02*
X29501Y-46861D01*
X29501Y-46861D02*
X29472Y-46911D01*
X29472Y-46911D02*
X29434Y-46954D01*
X29434Y-46954D02*
X29387Y-46988D01*
X29387Y-46988D02*
X29334Y-47011D01*
X29334Y-47011D02*
X29278Y-47023D01*
X29278Y-47023D02*
X29222Y-47023D01*
X29222Y-47023D02*
X29166Y-47011D01*
X29166Y-47011D02*
X29113Y-46988D01*
X29113Y-46988D02*
X29066Y-46954D01*
X29066Y-46954D02*
X29028Y-46911D01*
X29028Y-46911D02*
X28999Y-46861D01*
X28999Y-46861D02*
X28982Y-46807D01*
X28982Y-46807D02*
X28975Y-46750D01*
X28975Y-46750D02*
X28982Y-46693D01*
X28982Y-46693D02*
X28999Y-46639D01*
X28999Y-46639D02*
X29028Y-46589D01*
X29028Y-46589D02*
X29066Y-46546D01*
X29066Y-46546D02*
X29113Y-46512D01*
X29113Y-46512D02*
X29166Y-46489D01*
X29166Y-46489D02*
X29222Y-46477D01*
X29222Y-46477D02*
X29278Y-46477D01*
X29278Y-46477D02*
X29334Y-46489D01*
X29334Y-46489D02*
X29387Y-46512D01*
X29387Y-46512D02*
X29434Y-46546D01*
X29434Y-46546D02*
X29472Y-46589D01*
X29472Y-46589D02*
X29501Y-46639D01*
X29501Y-46639D02*
X29518Y-46693D01*
X29518Y-46693D02*
X29525Y-46750D01*
X29525Y-45750D02*
X29518Y-45807D01*
X29518Y-45807D02*
X29501Y-45861D01*
X29501Y-45861D02*
X29472Y-45911D01*
X29472Y-45911D02*
X29434Y-45954D01*
X29434Y-45954D02*
X29387Y-45988D01*
X29387Y-45988D02*
X29334Y-46011D01*
X29334Y-46011D02*
X29278Y-46023D01*
X29278Y-46023D02*
X29222Y-46023D01*
X29222Y-46023D02*
X29166Y-46011D01*
X29166Y-46011D02*
X29113Y-45988D01*
X29113Y-45988D02*
X29066Y-45954D01*
X29066Y-45954D02*
X29028Y-45911D01*
X29028Y-45911D02*
X28999Y-45861D01*
X28999Y-45861D02*
X28982Y-45807D01*
X28982Y-45807D02*
X28975Y-45750D01*
X28975Y-45750D02*
X28982Y-45693D01*
X28982Y-45693D02*
X28999Y-45639D01*
X28999Y-45639D02*
X29028Y-45589D01*
X29028Y-45589D02*
X29066Y-45546D01*
X29066Y-45546D02*
X29113Y-45512D01*
X29113Y-45512D02*
X29166Y-45489D01*
X29166Y-45489D02*
X29222Y-45477D01*
X29222Y-45477D02*
X29278Y-45477D01*
X29278Y-45477D02*
X29334Y-45489D01*
X29334Y-45489D02*
X29387Y-45512D01*
X29387Y-45512D02*
X29434Y-45546D01*
X29434Y-45546D02*
X29472Y-45589D01*
X29472Y-45589D02*
X29501Y-45639D01*
X29501Y-45639D02*
X29518Y-45693D01*
X29518Y-45693D02*
X29525Y-45750D01*
X22350Y-51500D02*
X22342Y-51572D01*
X22342Y-51572D02*
X22319Y-51642D01*
X22319Y-51642D02*
X22283Y-51705D01*
X22283Y-51705D02*
X22234Y-51760D01*
X22234Y-51760D02*
X22175Y-51803D01*
X22175Y-51803D02*
X22108Y-51832D01*
X22108Y-51832D02*
X22036Y-51848D01*
X22036Y-51848D02*
X21964Y-51848D01*
X21964Y-51848D02*
X21892Y-51832D01*
X21892Y-51832D02*
X21825Y-51803D01*
X21825Y-51803D02*
X21766Y-51760D01*
X21766Y-51760D02*
X21717Y-51705D01*
X21717Y-51705D02*
X21681Y-51642D01*
X21681Y-51642D02*
X21658Y-51572D01*
X21658Y-51572D02*
X21650Y-51500D01*
X21650Y-51500D02*
X21658Y-51428D01*
X21658Y-51428D02*
X21681Y-51358D01*
X21681Y-51358D02*
X21717Y-51295D01*
X21717Y-51295D02*
X21766Y-51240D01*
X21766Y-51240D02*
X21825Y-51197D01*
X21825Y-51197D02*
X21892Y-51168D01*
X21892Y-51168D02*
X21964Y-51152D01*
X21964Y-51152D02*
X22036Y-51152D01*
X22036Y-51152D02*
X22108Y-51168D01*
X22108Y-51168D02*
X22175Y-51197D01*
X22175Y-51197D02*
X22234Y-51240D01*
X22234Y-51240D02*
X22283Y-51295D01*
X22283Y-51295D02*
X22319Y-51358D01*
X22319Y-51358D02*
X22342Y-51428D01*
X22342Y-51428D02*
X22350Y-51500D01*
X22350Y-52500D02*
X22342Y-52572D01*
X22342Y-52572D02*
X22319Y-52642D01*
X22319Y-52642D02*
X22283Y-52705D01*
X22283Y-52705D02*
X22234Y-52760D01*
X22234Y-52760D02*
X22175Y-52803D01*
X22175Y-52803D02*
X22108Y-52832D01*
X22108Y-52832D02*
X22036Y-52848D01*
X22036Y-52848D02*
X21964Y-52848D01*
X21964Y-52848D02*
X21892Y-52832D01*
X21892Y-52832D02*
X21825Y-52803D01*
X21825Y-52803D02*
X21766Y-52760D01*
X21766Y-52760D02*
X21717Y-52705D01*
X21717Y-52705D02*
X21681Y-52642D01*
X21681Y-52642D02*
X21658Y-52572D01*
X21658Y-52572D02*
X21650Y-52500D01*
X21650Y-52500D02*
X21658Y-52428D01*
X21658Y-52428D02*
X21681Y-52358D01*
X21681Y-52358D02*
X21717Y-52295D01*
X21717Y-52295D02*
X21766Y-52240D01*
X21766Y-52240D02*
X21825Y-52197D01*
X21825Y-52197D02*
X21892Y-52168D01*
X21892Y-52168D02*
X21964Y-52152D01*
X21964Y-52152D02*
X22036Y-52152D01*
X22036Y-52152D02*
X22108Y-52168D01*
X22108Y-52168D02*
X22175Y-52197D01*
X22175Y-52197D02*
X22234Y-52240D01*
X22234Y-52240D02*
X22283Y-52295D01*
X22283Y-52295D02*
X22319Y-52358D01*
X22319Y-52358D02*
X22342Y-52428D01*
X22342Y-52428D02*
X22350Y-52500D01*
X21650Y-53850D02*
X21650Y-53150D01*
X21650Y-53150D02*
X22350Y-53150D01*
X22350Y-53150D02*
X22350Y-53850D01*
X22350Y-53850D02*
X21650Y-53850D01*
G54D34*
X25713Y-54327D02*
X25713Y-54072D01*
X25713Y-54072D02*
X25900Y-54072D01*
X25900Y-54072D02*
X25932Y-54101D01*
X25932Y-54101D02*
X25932Y-54186D01*
X25932Y-54186D02*
X25900Y-54214D01*
X25900Y-54214D02*
X25713Y-54214D01*
X25807Y-54214D02*
X25932Y-54327D01*
X26132Y-54327D02*
X26257Y-54327D01*
X26195Y-54327D02*
X26195Y-54072D01*
X26195Y-54101D02*
X26132Y-54157D01*
X26156Y-54372D02*
X26375Y-54372D01*
X26375Y-54372D02*
X26375Y-54401D01*
X26375Y-54401D02*
X26250Y-54486D01*
X26250Y-54486D02*
X26343Y-54486D01*
X26343Y-54486D02*
X26375Y-54514D01*
X26375Y-54514D02*
X26375Y-54599D01*
X26375Y-54599D02*
X26343Y-54627D01*
X26343Y-54627D02*
X26187Y-54627D01*
X26187Y-54627D02*
X26156Y-54599D01*
X26544Y-54627D02*
X26513Y-54599D01*
X26513Y-54599D02*
X26513Y-54514D01*
X26513Y-54514D02*
X26544Y-54486D01*
X26544Y-54486D02*
X26700Y-54486D01*
X26700Y-54486D02*
X26732Y-54457D01*
X26732Y-54457D02*
X26732Y-54401D01*
X26732Y-54401D02*
X26700Y-54372D01*
X26700Y-54372D02*
X26544Y-54372D01*
X26544Y-54372D02*
X26513Y-54401D01*
X26513Y-54401D02*
X26513Y-54457D01*
X26513Y-54457D02*
X26544Y-54486D01*
X26700Y-54486D02*
X26732Y-54514D01*
X26732Y-54514D02*
X26732Y-54599D01*
X26732Y-54599D02*
X26700Y-54627D01*
X26700Y-54627D02*
X26544Y-54627D01*
X26870Y-54372D02*
X27089Y-54372D01*
X27089Y-54372D02*
X27089Y-54401D01*
X27089Y-54401D02*
X26964Y-54486D01*
X26964Y-54486D02*
X27057Y-54486D01*
X27057Y-54486D02*
X27089Y-54514D01*
X27089Y-54514D02*
X27089Y-54599D01*
X27089Y-54599D02*
X27057Y-54627D01*
X27057Y-54627D02*
X26901Y-54627D01*
X26901Y-54627D02*
X26870Y-54599D01*
X27258Y-54627D02*
X27258Y-54372D01*
X27258Y-54542D02*
X27289Y-54542D01*
X27289Y-54542D02*
X27446Y-54457D01*
X27289Y-54542D02*
X27446Y-54627D01*
X23927Y-48287D02*
X23672Y-48287D01*
X23672Y-48287D02*
X23672Y-48100D01*
X23672Y-48100D02*
X23701Y-48068D01*
X23701Y-48068D02*
X23786Y-48068D01*
X23786Y-48068D02*
X23814Y-48100D01*
X23814Y-48100D02*
X23814Y-48287D01*
X23814Y-48193D02*
X23927Y-48068D01*
X23927Y-47711D02*
X23927Y-47930D01*
X23927Y-47930D02*
X23842Y-47930D01*
X23842Y-47930D02*
X23814Y-47899D01*
X23814Y-47899D02*
X23814Y-47743D01*
X23814Y-47743D02*
X23786Y-47711D01*
X23786Y-47711D02*
X23701Y-47711D01*
X23701Y-47711D02*
X23672Y-47743D01*
X23672Y-47743D02*
X23672Y-47899D01*
X23672Y-47899D02*
X23701Y-47930D01*
X23401Y-49225D02*
X23372Y-49257D01*
X23372Y-49257D02*
X23372Y-49413D01*
X23372Y-49413D02*
X23401Y-49444D01*
X23401Y-49444D02*
X23599Y-49444D01*
X23599Y-49444D02*
X23627Y-49413D01*
X23627Y-49413D02*
X23627Y-49257D01*
X23627Y-49257D02*
X23599Y-49225D01*
X23599Y-49225D02*
X23514Y-49225D01*
X23514Y-49225D02*
X23486Y-49257D01*
X23486Y-49257D02*
X23486Y-49413D01*
X23486Y-49413D02*
X23514Y-49444D01*
X23627Y-49087D02*
X23372Y-48868D01*
X23599Y-49087D02*
X23401Y-49087D01*
X23401Y-49087D02*
X23372Y-49056D01*
X23372Y-49056D02*
X23372Y-48900D01*
X23372Y-48900D02*
X23401Y-48868D01*
X23401Y-48868D02*
X23599Y-48868D01*
X23599Y-48868D02*
X23627Y-48900D01*
X23627Y-48900D02*
X23627Y-49056D01*
X23627Y-49056D02*
X23599Y-49087D01*
X23627Y-48574D02*
X23372Y-48574D01*
X23372Y-48574D02*
X23571Y-48730D01*
X23571Y-48730D02*
X23571Y-48511D01*
X23627Y-48342D02*
X23372Y-48342D01*
X23542Y-48342D02*
X23542Y-48311D01*
X23542Y-48311D02*
X23457Y-48154D01*
X23542Y-48311D02*
X23627Y-48154D01*
X24713Y-43827D02*
X24713Y-43572D01*
X24713Y-43572D02*
X24900Y-43572D01*
X24900Y-43572D02*
X24932Y-43601D01*
X24932Y-43601D02*
X24932Y-43686D01*
X24932Y-43686D02*
X24900Y-43714D01*
X24900Y-43714D02*
X24713Y-43714D01*
X24807Y-43714D02*
X24932Y-43827D01*
X25070Y-43572D02*
X25289Y-43572D01*
X25289Y-43572D02*
X25289Y-43601D01*
X25289Y-43601D02*
X25164Y-43686D01*
X25164Y-43686D02*
X25257Y-43686D01*
X25257Y-43686D02*
X25289Y-43714D01*
X25289Y-43714D02*
X25289Y-43799D01*
X25289Y-43799D02*
X25257Y-43827D01*
X25257Y-43827D02*
X25101Y-43827D01*
X25101Y-43827D02*
X25070Y-43799D01*
X25732Y-44127D02*
X25513Y-44127D01*
X25513Y-44127D02*
X25513Y-44042D01*
X25513Y-44042D02*
X25544Y-44014D01*
X25544Y-44014D02*
X25700Y-44014D01*
X25700Y-44014D02*
X25732Y-43986D01*
X25732Y-43986D02*
X25732Y-43901D01*
X25732Y-43901D02*
X25700Y-43872D01*
X25700Y-43872D02*
X25544Y-43872D01*
X25544Y-43872D02*
X25513Y-43901D01*
X25901Y-44127D02*
X25901Y-43872D01*
X25901Y-44042D02*
X25932Y-44042D01*
X25932Y-44042D02*
X26089Y-43957D01*
X25932Y-44042D02*
X26089Y-44127D01*
X31750Y-54616D02*
X31250Y-54616D01*
X31250Y-54666D02*
X31250Y-54366D01*
X31250Y-54366D02*
X31306Y-54316D01*
X31306Y-54316D02*
X31695Y-54316D01*
X31695Y-54316D02*
X31750Y-54366D01*
X31750Y-54366D02*
X31750Y-54666D01*
X31750Y-54042D02*
X31750Y-53842D01*
X31750Y-53942D02*
X31250Y-53942D01*
X31306Y-53942D02*
X31417Y-54042D01*
X31750Y-53366D02*
X31250Y-53366D01*
X31250Y-53416D02*
X31250Y-53116D01*
X31250Y-53116D02*
X31306Y-53066D01*
X31306Y-53066D02*
X31695Y-53066D01*
X31695Y-53066D02*
X31750Y-53116D01*
X31750Y-53116D02*
X31750Y-53416D01*
X31750Y-52542D02*
X31750Y-52892D01*
X31750Y-52892D02*
X31584Y-52892D01*
X31584Y-52892D02*
X31528Y-52842D01*
X31528Y-52842D02*
X31528Y-52592D01*
X31528Y-52592D02*
X31473Y-52542D01*
X31473Y-52542D02*
X31306Y-52542D01*
X31306Y-52542D02*
X31250Y-52592D01*
X31250Y-52592D02*
X31250Y-52842D01*
X31250Y-52842D02*
X31306Y-52892D01*
X40250Y-54616D02*
X39750Y-54616D01*
X39750Y-54666D02*
X39750Y-54366D01*
X39750Y-54366D02*
X39806Y-54316D01*
X39806Y-54316D02*
X40195Y-54316D01*
X40195Y-54316D02*
X40250Y-54366D01*
X40250Y-54366D02*
X40250Y-54666D01*
X39750Y-54142D02*
X39750Y-53792D01*
X39750Y-53792D02*
X39806Y-53792D01*
X39806Y-53792D02*
X39973Y-53992D01*
X39973Y-53992D02*
X39973Y-53842D01*
X39973Y-53842D02*
X40028Y-53792D01*
X40028Y-53792D02*
X40195Y-53792D01*
X40195Y-53792D02*
X40250Y-53842D01*
X40250Y-53842D02*
X40250Y-54092D01*
X40250Y-54092D02*
X40195Y-54142D01*
X40250Y-53366D02*
X39750Y-53366D01*
X39750Y-53416D02*
X39750Y-53116D01*
X39750Y-53116D02*
X39806Y-53066D01*
X39806Y-53066D02*
X40195Y-53066D01*
X40195Y-53066D02*
X40250Y-53116D01*
X40250Y-53116D02*
X40250Y-53416D01*
X40250Y-52642D02*
X39750Y-52642D01*
X39750Y-52642D02*
X40139Y-52892D01*
X40139Y-52892D02*
X40139Y-52542D01*
X48500Y-54616D02*
X48000Y-54616D01*
X48000Y-54666D02*
X48000Y-54366D01*
X48000Y-54366D02*
X48056Y-54316D01*
X48056Y-54316D02*
X48445Y-54316D01*
X48445Y-54316D02*
X48500Y-54366D01*
X48500Y-54366D02*
X48500Y-54666D01*
X48389Y-54142D02*
X48445Y-54142D01*
X48445Y-54142D02*
X48500Y-54092D01*
X48500Y-54092D02*
X48500Y-53842D01*
X48500Y-53842D02*
X48445Y-53792D01*
X48445Y-53792D02*
X48278Y-53792D01*
X48278Y-53792D02*
X48167Y-53892D01*
X48167Y-53892D02*
X48167Y-54142D01*
X48167Y-54142D02*
X48000Y-54142D01*
X48000Y-54142D02*
X48000Y-53792D01*
X48500Y-53366D02*
X48000Y-53366D01*
X48000Y-53416D02*
X48000Y-53116D01*
X48000Y-53116D02*
X48056Y-53066D01*
X48056Y-53066D02*
X48445Y-53066D01*
X48445Y-53066D02*
X48500Y-53116D01*
X48500Y-53116D02*
X48500Y-53416D01*
X48056Y-52542D02*
X48000Y-52592D01*
X48000Y-52592D02*
X48000Y-52842D01*
X48000Y-52842D02*
X48056Y-52892D01*
X48056Y-52892D02*
X48445Y-52892D01*
X48445Y-52892D02*
X48500Y-52842D01*
X48500Y-52842D02*
X48500Y-52592D01*
X48500Y-52592D02*
X48445Y-52542D01*
X48445Y-52542D02*
X48278Y-52542D01*
X48278Y-52542D02*
X48223Y-52592D01*
X48223Y-52592D02*
X48223Y-52842D01*
X48223Y-52842D02*
X48278Y-52892D01*
X24122Y-52000D02*
X24122Y-51500D01*
X24072Y-51500D02*
X24372Y-51500D01*
X24372Y-51500D02*
X24422Y-51556D01*
X24422Y-51556D02*
X24422Y-51945D01*
X24422Y-51945D02*
X24372Y-52000D01*
X24372Y-52000D02*
X24072Y-52000D01*
X24696Y-52000D02*
X24896Y-52000D01*
X24796Y-52000D02*
X24796Y-51500D01*
X24796Y-51556D02*
X24696Y-51667D01*
X25120Y-51500D02*
X25470Y-51500D01*
X25470Y-51500D02*
X25470Y-51556D01*
X25470Y-51556D02*
X25270Y-51723D01*
X25270Y-51723D02*
X25420Y-51723D01*
X25420Y-51723D02*
X25470Y-51778D01*
X25470Y-51778D02*
X25470Y-51945D01*
X25470Y-51945D02*
X25420Y-52000D01*
X25420Y-52000D02*
X25170Y-52000D01*
X25170Y-52000D02*
X25120Y-51945D01*
G54D31*
X32585Y-47893D02*
X32868Y-48346D01*
X32868Y-48346D02*
X32966Y-48362D01*
X32966Y-48362D02*
X33284Y-48164D01*
X33284Y-48164D02*
X33313Y-48068D01*
X33313Y-48068D02*
X33030Y-47615D01*
X33697Y-47906D02*
X33951Y-47747D01*
X33824Y-47827D02*
X33506Y-47318D01*
X33541Y-47375D02*
X33485Y-47567D01*
X32705Y-49705D02*
X32387Y-49196D01*
X32387Y-49196D02*
X32783Y-49263D01*
X32783Y-49263D02*
X32896Y-48878D01*
X32896Y-48878D02*
X33214Y-49387D01*
X33372Y-49288D02*
X33054Y-48779D01*
X33054Y-48779D02*
X33435Y-48541D01*
X33435Y-48541D02*
X33534Y-48558D01*
X33534Y-48558D02*
X33640Y-48728D01*
X33640Y-48728D02*
X33612Y-48824D01*
X33612Y-48824D02*
X33231Y-49063D01*
X34038Y-48872D02*
X34166Y-48085D01*
X33720Y-48363D02*
X34483Y-48593D01*
X35023Y-48256D02*
X34705Y-47748D01*
X34705Y-47748D02*
X34634Y-48342D01*
X34634Y-48342D02*
X35080Y-48064D01*
X35371Y-48039D02*
X35817Y-47760D01*
X36038Y-47622D02*
X35720Y-47113D01*
X35720Y-47113D02*
X36116Y-47181D01*
X36116Y-47181D02*
X36229Y-46795D01*
X36229Y-46795D02*
X36547Y-47304D01*
X36704Y-47206D02*
X36458Y-46810D01*
X36458Y-46810D02*
X36514Y-46617D01*
X36514Y-46617D02*
X36705Y-46498D01*
X36705Y-46498D02*
X36903Y-46532D01*
X36903Y-46532D02*
X37150Y-46927D01*
X36528Y-46923D02*
X36973Y-46645D01*
X37371Y-46789D02*
X37053Y-46280D01*
X37053Y-46280D02*
X37435Y-46042D01*
X37435Y-46042D02*
X37534Y-46059D01*
X37534Y-46059D02*
X37640Y-46228D01*
X37640Y-46228D02*
X37612Y-46325D01*
X37612Y-46325D02*
X37230Y-46563D01*
X40835Y-47893D02*
X41118Y-48346D01*
X41118Y-48346D02*
X41216Y-48362D01*
X41216Y-48362D02*
X41534Y-48164D01*
X41534Y-48164D02*
X41563Y-48068D01*
X41563Y-48068D02*
X41280Y-47615D01*
X41501Y-47477D02*
X41947Y-47199D01*
X41947Y-47199D02*
X41982Y-47255D01*
X41982Y-47255D02*
X41834Y-47584D01*
X41834Y-47584D02*
X42025Y-47465D01*
X42025Y-47465D02*
X42124Y-47482D01*
X42124Y-47482D02*
X42230Y-47651D01*
X42230Y-47651D02*
X42201Y-47747D01*
X42201Y-47747D02*
X41883Y-47946D01*
X41883Y-47946D02*
X41784Y-47930D01*
X40955Y-49705D02*
X40637Y-49196D01*
X40637Y-49196D02*
X41033Y-49263D01*
X41033Y-49263D02*
X41146Y-48878D01*
X41146Y-48878D02*
X41464Y-49387D01*
X41622Y-49288D02*
X41304Y-48779D01*
X41304Y-48779D02*
X41685Y-48541D01*
X41685Y-48541D02*
X41784Y-48558D01*
X41784Y-48558D02*
X41890Y-48728D01*
X41890Y-48728D02*
X41862Y-48824D01*
X41862Y-48824D02*
X41481Y-49063D01*
X42288Y-48872D02*
X42416Y-48085D01*
X41970Y-48363D02*
X42733Y-48593D01*
X43273Y-48256D02*
X42955Y-47748D01*
X42955Y-47748D02*
X42884Y-48342D01*
X42884Y-48342D02*
X43330Y-48064D01*
X43621Y-48039D02*
X44067Y-47760D01*
X44288Y-47622D02*
X43970Y-47113D01*
X43970Y-47113D02*
X44366Y-47181D01*
X44366Y-47181D02*
X44479Y-46795D01*
X44479Y-46795D02*
X44797Y-47304D01*
X44954Y-47206D02*
X44708Y-46810D01*
X44708Y-46810D02*
X44764Y-46617D01*
X44764Y-46617D02*
X44955Y-46498D01*
X44955Y-46498D02*
X45153Y-46532D01*
X45153Y-46532D02*
X45400Y-46927D01*
X44778Y-46923D02*
X45223Y-46645D01*
X45621Y-46789D02*
X45303Y-46280D01*
X45303Y-46280D02*
X45685Y-46042D01*
X45685Y-46042D02*
X45784Y-46059D01*
X45784Y-46059D02*
X45890Y-46228D01*
X45890Y-46228D02*
X45862Y-46325D01*
X45862Y-46325D02*
X45480Y-46563D01*
X49085Y-47893D02*
X49368Y-48346D01*
X49368Y-48346D02*
X49466Y-48362D01*
X49466Y-48362D02*
X49784Y-48164D01*
X49784Y-48164D02*
X49813Y-48068D01*
X49813Y-48068D02*
X49530Y-47615D01*
X49999Y-47873D02*
X50034Y-47930D01*
X50034Y-47930D02*
X50133Y-47946D01*
X50133Y-47946D02*
X50451Y-47747D01*
X50451Y-47747D02*
X50480Y-47651D01*
X50480Y-47651D02*
X50374Y-47482D01*
X50374Y-47482D02*
X50175Y-47448D01*
X50175Y-47448D02*
X49857Y-47646D01*
X49857Y-47646D02*
X49751Y-47477D01*
X49751Y-47477D02*
X50197Y-47199D01*
X49205Y-49705D02*
X48887Y-49196D01*
X48887Y-49196D02*
X49283Y-49263D01*
X49283Y-49263D02*
X49396Y-48878D01*
X49396Y-48878D02*
X49714Y-49387D01*
X49872Y-49288D02*
X49554Y-48779D01*
X49554Y-48779D02*
X49935Y-48541D01*
X49935Y-48541D02*
X50034Y-48558D01*
X50034Y-48558D02*
X50140Y-48728D01*
X50140Y-48728D02*
X50112Y-48824D01*
X50112Y-48824D02*
X49731Y-49063D01*
X50538Y-48872D02*
X50666Y-48085D01*
X50220Y-48363D02*
X50983Y-48593D01*
X51523Y-48256D02*
X51205Y-47748D01*
X51205Y-47748D02*
X51134Y-48342D01*
X51134Y-48342D02*
X51580Y-48064D01*
X51871Y-48039D02*
X52317Y-47760D01*
X52538Y-47622D02*
X52220Y-47113D01*
X52220Y-47113D02*
X52616Y-47181D01*
X52616Y-47181D02*
X52729Y-46795D01*
X52729Y-46795D02*
X53047Y-47304D01*
X53204Y-47206D02*
X52958Y-46810D01*
X52958Y-46810D02*
X53014Y-46617D01*
X53014Y-46617D02*
X53205Y-46498D01*
X53205Y-46498D02*
X53403Y-46532D01*
X53403Y-46532D02*
X53650Y-46927D01*
X53028Y-46923D02*
X53473Y-46645D01*
X53871Y-46789D02*
X53553Y-46280D01*
X53553Y-46280D02*
X53935Y-46042D01*
X53935Y-46042D02*
X54034Y-46059D01*
X54034Y-46059D02*
X54140Y-46228D01*
X54140Y-46228D02*
X54112Y-46325D01*
X54112Y-46325D02*
X53730Y-46563D01*
X24002Y-48102D02*
X24285Y-48554D01*
X24285Y-48554D02*
X24383Y-48571D01*
X24383Y-48571D02*
X24701Y-48372D01*
X24701Y-48372D02*
X24730Y-48276D01*
X24730Y-48276D02*
X24447Y-47823D01*
X25113Y-48114D02*
X25368Y-47955D01*
X25240Y-48035D02*
X24923Y-47526D01*
X24958Y-47583D02*
X24901Y-47775D01*
X25335Y-47268D02*
X25780Y-46990D01*
X25780Y-46990D02*
X25815Y-47047D01*
X25815Y-47047D02*
X25667Y-47376D01*
X25667Y-47376D02*
X25858Y-47256D01*
X25858Y-47256D02*
X25957Y-47274D01*
X25957Y-47274D02*
X26063Y-47443D01*
X26063Y-47443D02*
X26034Y-47539D01*
X26034Y-47539D02*
X25716Y-47738D01*
X25716Y-47738D02*
X25618Y-47721D01*
X24455Y-49705D02*
X24137Y-49196D01*
X24137Y-49196D02*
X24533Y-49263D01*
X24533Y-49263D02*
X24646Y-48878D01*
X24646Y-48878D02*
X24964Y-49387D01*
X25122Y-49288D02*
X24804Y-48779D01*
X24804Y-48779D02*
X25185Y-48541D01*
X25185Y-48541D02*
X25284Y-48558D01*
X25284Y-48558D02*
X25390Y-48728D01*
X25390Y-48728D02*
X25362Y-48824D01*
X25362Y-48824D02*
X24981Y-49063D01*
X25788Y-48872D02*
X25916Y-48085D01*
X25470Y-48363D02*
X26233Y-48593D01*
X26773Y-48256D02*
X26455Y-47748D01*
X26455Y-47748D02*
X26384Y-48342D01*
X26384Y-48342D02*
X26830Y-48064D01*
X27121Y-48039D02*
X27567Y-47760D01*
X27788Y-47622D02*
X27470Y-47113D01*
X27470Y-47113D02*
X27866Y-47181D01*
X27866Y-47181D02*
X27979Y-46795D01*
X27979Y-46795D02*
X28297Y-47304D01*
X28454Y-47206D02*
X28208Y-46810D01*
X28208Y-46810D02*
X28264Y-46617D01*
X28264Y-46617D02*
X28455Y-46498D01*
X28455Y-46498D02*
X28653Y-46532D01*
X28653Y-46532D02*
X28900Y-46927D01*
X28278Y-46923D02*
X28723Y-46645D01*
X29121Y-46789D02*
X28803Y-46280D01*
X28803Y-46280D02*
X29185Y-46042D01*
X29185Y-46042D02*
X29284Y-46059D01*
X29284Y-46059D02*
X29390Y-46228D01*
X29390Y-46228D02*
X29362Y-46325D01*
X29362Y-46325D02*
X28980Y-46563D01*
X51629Y-46303D02*
X51912Y-46756D01*
X51912Y-46756D02*
X52010Y-46772D01*
X52010Y-46772D02*
X52328Y-46574D01*
X52328Y-46574D02*
X52357Y-46478D01*
X52357Y-46478D02*
X52074Y-46025D01*
X52776Y-45665D02*
X52677Y-45648D01*
X52677Y-45648D02*
X52359Y-45847D01*
X52359Y-45847D02*
X52331Y-45944D01*
X52331Y-45944D02*
X52578Y-46340D01*
X52578Y-46340D02*
X52677Y-46356D01*
X52677Y-46356D02*
X52995Y-46157D01*
X52995Y-46157D02*
X53024Y-46061D01*
X53024Y-46061D02*
X52918Y-45892D01*
X52918Y-45892D02*
X52819Y-45875D01*
X52819Y-45875D02*
X52501Y-46073D01*
X52501Y-46073D02*
X52472Y-46170D01*
X49205Y-49705D02*
X48887Y-49196D01*
X48887Y-49196D02*
X49283Y-49263D01*
X49283Y-49263D02*
X49396Y-48878D01*
X49396Y-48878D02*
X49714Y-49387D01*
X49872Y-49288D02*
X49554Y-48779D01*
X49554Y-48779D02*
X49935Y-48541D01*
X49935Y-48541D02*
X50034Y-48558D01*
X50034Y-48558D02*
X50140Y-48728D01*
X50140Y-48728D02*
X50112Y-48824D01*
X50112Y-48824D02*
X49731Y-49063D01*
X50538Y-48872D02*
X50666Y-48085D01*
X50220Y-48363D02*
X50983Y-48593D01*
X51523Y-48256D02*
X51205Y-47748D01*
X51205Y-47748D02*
X51134Y-48342D01*
X51134Y-48342D02*
X51580Y-48064D01*
X51871Y-48039D02*
X52317Y-47760D01*
X52538Y-47622D02*
X52220Y-47113D01*
X52220Y-47113D02*
X52616Y-47181D01*
X52616Y-47181D02*
X52729Y-46795D01*
X52729Y-46795D02*
X53047Y-47304D01*
X53204Y-47206D02*
X52958Y-46810D01*
X52958Y-46810D02*
X53014Y-46617D01*
X53014Y-46617D02*
X53205Y-46498D01*
X53205Y-46498D02*
X53403Y-46532D01*
X53403Y-46532D02*
X53650Y-46927D01*
X53028Y-46923D02*
X53473Y-46645D01*
X53871Y-46789D02*
X53553Y-46280D01*
X53553Y-46280D02*
X53935Y-46042D01*
X53935Y-46042D02*
X54034Y-46059D01*
X54034Y-46059D02*
X54140Y-46228D01*
X54140Y-46228D02*
X54112Y-46325D01*
X54112Y-46325D02*
X53730Y-46563D01*
X43379Y-46303D02*
X43662Y-46756D01*
X43662Y-46756D02*
X43760Y-46772D01*
X43760Y-46772D02*
X44078Y-46574D01*
X44078Y-46574D02*
X44107Y-46478D01*
X44107Y-46478D02*
X43824Y-46025D01*
X44681Y-46197D02*
X44363Y-45688D01*
X44363Y-45688D02*
X44293Y-46283D01*
X44293Y-46283D02*
X44738Y-46005D01*
X40955Y-49705D02*
X40637Y-49196D01*
X40637Y-49196D02*
X41033Y-49263D01*
X41033Y-49263D02*
X41146Y-48878D01*
X41146Y-48878D02*
X41464Y-49387D01*
X41622Y-49288D02*
X41304Y-48779D01*
X41304Y-48779D02*
X41685Y-48541D01*
X41685Y-48541D02*
X41784Y-48558D01*
X41784Y-48558D02*
X41890Y-48728D01*
X41890Y-48728D02*
X41862Y-48824D01*
X41862Y-48824D02*
X41481Y-49063D01*
X42288Y-48872D02*
X42416Y-48085D01*
X41970Y-48363D02*
X42733Y-48593D01*
X43273Y-48256D02*
X42955Y-47748D01*
X42955Y-47748D02*
X42884Y-48342D01*
X42884Y-48342D02*
X43330Y-48064D01*
X43621Y-48039D02*
X44067Y-47760D01*
X44288Y-47622D02*
X43970Y-47113D01*
X43970Y-47113D02*
X44366Y-47181D01*
X44366Y-47181D02*
X44479Y-46795D01*
X44479Y-46795D02*
X44797Y-47304D01*
X44954Y-47206D02*
X44708Y-46810D01*
X44708Y-46810D02*
X44764Y-46617D01*
X44764Y-46617D02*
X44955Y-46498D01*
X44955Y-46498D02*
X45153Y-46532D01*
X45153Y-46532D02*
X45400Y-46927D01*
X44778Y-46923D02*
X45223Y-46645D01*
X45621Y-46789D02*
X45303Y-46280D01*
X45303Y-46280D02*
X45685Y-46042D01*
X45685Y-46042D02*
X45784Y-46059D01*
X45784Y-46059D02*
X45890Y-46228D01*
X45890Y-46228D02*
X45862Y-46325D01*
X45862Y-46325D02*
X45480Y-46563D01*
X35129Y-46303D02*
X35412Y-46756D01*
X35412Y-46756D02*
X35510Y-46772D01*
X35510Y-46772D02*
X35828Y-46574D01*
X35828Y-46574D02*
X35857Y-46478D01*
X35857Y-46478D02*
X35574Y-46025D01*
X36559Y-46117D02*
X36113Y-46396D01*
X36113Y-46396D02*
X36007Y-46226D01*
X36007Y-46226D02*
X36036Y-46130D01*
X36036Y-46130D02*
X36354Y-45932D01*
X36354Y-45932D02*
X36382Y-45835D01*
X36382Y-45835D02*
X36276Y-45665D01*
X36276Y-45665D02*
X36177Y-45648D01*
X36177Y-45648D02*
X35859Y-45847D01*
X35859Y-45847D02*
X35831Y-45944D01*
X32705Y-49705D02*
X32387Y-49196D01*
X32387Y-49196D02*
X32783Y-49263D01*
X32783Y-49263D02*
X32896Y-48878D01*
X32896Y-48878D02*
X33214Y-49387D01*
X33372Y-49288D02*
X33054Y-48779D01*
X33054Y-48779D02*
X33435Y-48541D01*
X33435Y-48541D02*
X33534Y-48558D01*
X33534Y-48558D02*
X33640Y-48728D01*
X33640Y-48728D02*
X33612Y-48824D01*
X33612Y-48824D02*
X33231Y-49063D01*
X34038Y-48872D02*
X34166Y-48085D01*
X33720Y-48363D02*
X34483Y-48593D01*
X35023Y-48256D02*
X34705Y-47748D01*
X34705Y-47748D02*
X34634Y-48342D01*
X34634Y-48342D02*
X35080Y-48064D01*
X35371Y-48039D02*
X35817Y-47760D01*
X36038Y-47622D02*
X35720Y-47113D01*
X35720Y-47113D02*
X36116Y-47181D01*
X36116Y-47181D02*
X36229Y-46795D01*
X36229Y-46795D02*
X36547Y-47304D01*
X36704Y-47206D02*
X36458Y-46810D01*
X36458Y-46810D02*
X36514Y-46617D01*
X36514Y-46617D02*
X36705Y-46498D01*
X36705Y-46498D02*
X36903Y-46532D01*
X36903Y-46532D02*
X37150Y-46927D01*
X36528Y-46923D02*
X36973Y-46645D01*
X37371Y-46789D02*
X37053Y-46280D01*
X37053Y-46280D02*
X37435Y-46042D01*
X37435Y-46042D02*
X37534Y-46059D01*
X37534Y-46059D02*
X37640Y-46228D01*
X37640Y-46228D02*
X37612Y-46325D01*
X37612Y-46325D02*
X37230Y-46563D01*
G54D32*
X28546Y-51848D02*
X28514Y-51875D01*
X28514Y-51875D02*
X28358Y-51875D01*
X28358Y-51875D02*
X28327Y-51848D01*
X28327Y-51848D02*
X28327Y-51653D01*
X28327Y-51653D02*
X28358Y-51625D01*
X28358Y-51625D02*
X28514Y-51625D01*
X28514Y-51625D02*
X28546Y-51653D01*
X28873Y-51875D02*
X28654Y-51875D01*
X28654Y-51875D02*
X28654Y-51792D01*
X28654Y-51792D02*
X28685Y-51764D01*
X28685Y-51764D02*
X28841Y-51764D01*
X28841Y-51764D02*
X28873Y-51737D01*
X28873Y-51737D02*
X28873Y-51653D01*
X28873Y-51653D02*
X28841Y-51625D01*
X28841Y-51625D02*
X28685Y-51625D01*
X28685Y-51625D02*
X28654Y-51653D01*
X28981Y-51820D02*
X28981Y-51848D01*
X28981Y-51848D02*
X29012Y-51875D01*
X29012Y-51875D02*
X29168Y-51875D01*
X29168Y-51875D02*
X29200Y-51848D01*
X29200Y-51848D02*
X29200Y-51764D01*
X29200Y-51764D02*
X29137Y-51709D01*
X29137Y-51709D02*
X28981Y-51709D01*
X28981Y-51709D02*
X28981Y-51625D01*
X28981Y-51625D02*
X29200Y-51625D01*
X28594Y-50875D02*
X28594Y-50848D01*
X28827Y-50875D02*
X29046Y-50625D01*
X28827Y-50848D02*
X28827Y-50653D01*
X28827Y-50653D02*
X28858Y-50625D01*
X28858Y-50625D02*
X29014Y-50625D01*
X29014Y-50625D02*
X29046Y-50653D01*
X29046Y-50653D02*
X29046Y-50848D01*
X29046Y-50848D02*
X29014Y-50875D01*
X29014Y-50875D02*
X28858Y-50875D01*
X28858Y-50875D02*
X28827Y-50848D01*
X29373Y-50875D02*
X29154Y-50875D01*
X29154Y-50875D02*
X29154Y-50792D01*
X29154Y-50792D02*
X29185Y-50764D01*
X29185Y-50764D02*
X29341Y-50764D01*
X29341Y-50764D02*
X29373Y-50737D01*
X29373Y-50737D02*
X29373Y-50653D01*
X29373Y-50653D02*
X29341Y-50625D01*
X29341Y-50625D02*
X29185Y-50625D01*
X29185Y-50625D02*
X29154Y-50653D01*
X29481Y-50709D02*
X29481Y-50820D01*
X29481Y-50820D02*
X29543Y-50875D01*
X29543Y-50875D02*
X29637Y-50875D01*
X29637Y-50875D02*
X29700Y-50820D01*
X29700Y-50820D02*
X29700Y-50709D01*
X29839Y-50875D02*
X29839Y-50653D01*
X29839Y-50653D02*
X29870Y-50625D01*
X29870Y-50625D02*
X29995Y-50625D01*
X29995Y-50625D02*
X30027Y-50653D01*
X29808Y-50737D02*
X29902Y-50737D01*
X50509Y-52348D02*
X50477Y-52375D01*
X50477Y-52375D02*
X50321Y-52375D01*
X50321Y-52375D02*
X50290Y-52348D01*
X50290Y-52348D02*
X50290Y-52153D01*
X50290Y-52153D02*
X50321Y-52125D01*
X50321Y-52125D02*
X50477Y-52125D01*
X50477Y-52125D02*
X50509Y-52153D01*
X50648Y-52375D02*
X50804Y-52375D01*
X50804Y-52375D02*
X50836Y-52348D01*
X50836Y-52348D02*
X50836Y-52153D01*
X50836Y-52153D02*
X50804Y-52125D01*
X50804Y-52125D02*
X50648Y-52125D01*
X50648Y-52125D02*
X50617Y-52153D01*
X50617Y-52153D02*
X50617Y-52237D01*
X50617Y-52237D02*
X50648Y-52264D01*
X50648Y-52264D02*
X50804Y-52264D01*
X50804Y-52264D02*
X50836Y-52237D01*
X50344Y-51375D02*
X50344Y-51348D01*
X50577Y-51375D02*
X50796Y-51125D01*
X50577Y-51348D02*
X50577Y-51153D01*
X50577Y-51153D02*
X50608Y-51125D01*
X50608Y-51125D02*
X50764Y-51125D01*
X50764Y-51125D02*
X50796Y-51153D01*
X50796Y-51153D02*
X50796Y-51348D01*
X50796Y-51348D02*
X50764Y-51375D01*
X50764Y-51375D02*
X50608Y-51375D01*
X50608Y-51375D02*
X50577Y-51348D01*
X51123Y-51375D02*
X50904Y-51375D01*
X50904Y-51375D02*
X50904Y-51292D01*
X50904Y-51292D02*
X50935Y-51264D01*
X50935Y-51264D02*
X51091Y-51264D01*
X51091Y-51264D02*
X51123Y-51237D01*
X51123Y-51237D02*
X51123Y-51153D01*
X51123Y-51153D02*
X51091Y-51125D01*
X51091Y-51125D02*
X50935Y-51125D01*
X50935Y-51125D02*
X50904Y-51153D01*
X51231Y-51209D02*
X51231Y-51320D01*
X51231Y-51320D02*
X51293Y-51375D01*
X51293Y-51375D02*
X51387Y-51375D01*
X51387Y-51375D02*
X51450Y-51320D01*
X51450Y-51320D02*
X51450Y-51209D01*
X51589Y-51375D02*
X51589Y-51153D01*
X51589Y-51153D02*
X51620Y-51125D01*
X51620Y-51125D02*
X51745Y-51125D01*
X51745Y-51125D02*
X51777Y-51153D01*
X51558Y-51237D02*
X51652Y-51237D01*
X32709Y-52348D02*
X32677Y-52375D01*
X32677Y-52375D02*
X32521Y-52375D01*
X32521Y-52375D02*
X32490Y-52348D01*
X32490Y-52348D02*
X32490Y-52153D01*
X32490Y-52153D02*
X32521Y-52125D01*
X32521Y-52125D02*
X32677Y-52125D01*
X32677Y-52125D02*
X32709Y-52153D01*
X32973Y-52375D02*
X32973Y-52125D01*
X32973Y-52125D02*
X32817Y-52320D01*
X32817Y-52320D02*
X33036Y-52320D01*
X32656Y-51375D02*
X32656Y-51125D01*
X32656Y-51125D02*
X32500Y-51320D01*
X32500Y-51320D02*
X32719Y-51320D01*
X32827Y-51125D02*
X33046Y-51125D01*
X33046Y-51125D02*
X32827Y-51375D01*
X33154Y-51375D02*
X33373Y-51125D01*
X33154Y-51348D02*
X33154Y-51153D01*
X33154Y-51153D02*
X33185Y-51125D01*
X33185Y-51125D02*
X33341Y-51125D01*
X33341Y-51125D02*
X33373Y-51153D01*
X33373Y-51153D02*
X33373Y-51348D01*
X33373Y-51348D02*
X33341Y-51375D01*
X33341Y-51375D02*
X33185Y-51375D01*
X33185Y-51375D02*
X33154Y-51348D01*
X33481Y-51458D02*
X33481Y-51209D01*
X33481Y-51237D02*
X33512Y-51209D01*
X33512Y-51209D02*
X33668Y-51209D01*
X33668Y-51209D02*
X33700Y-51237D01*
X33700Y-51237D02*
X33700Y-51348D01*
X33700Y-51348D02*
X33668Y-51375D01*
X33668Y-51375D02*
X33512Y-51375D01*
X33512Y-51375D02*
X33481Y-51348D01*
X33839Y-51375D02*
X33839Y-51153D01*
X33839Y-51153D02*
X33870Y-51125D01*
X33870Y-51125D02*
X33995Y-51125D01*
X33995Y-51125D02*
X34027Y-51153D01*
X33808Y-51237D02*
X33902Y-51237D01*
X39209Y-52348D02*
X39177Y-52375D01*
X39177Y-52375D02*
X39021Y-52375D01*
X39021Y-52375D02*
X38990Y-52348D01*
X38990Y-52348D02*
X38990Y-52153D01*
X38990Y-52153D02*
X39021Y-52125D01*
X39021Y-52125D02*
X39177Y-52125D01*
X39177Y-52125D02*
X39209Y-52153D01*
X39536Y-52153D02*
X39504Y-52125D01*
X39504Y-52125D02*
X39348Y-52125D01*
X39348Y-52125D02*
X39317Y-52153D01*
X39317Y-52153D02*
X39317Y-52348D01*
X39317Y-52348D02*
X39348Y-52375D01*
X39348Y-52375D02*
X39504Y-52375D01*
X39504Y-52375D02*
X39536Y-52348D01*
X39536Y-52348D02*
X39536Y-52264D01*
X39536Y-52264D02*
X39504Y-52237D01*
X39504Y-52237D02*
X39348Y-52237D01*
X39348Y-52237D02*
X39317Y-52264D01*
X39156Y-51375D02*
X39156Y-51125D01*
X39156Y-51125D02*
X39000Y-51320D01*
X39000Y-51320D02*
X39219Y-51320D01*
X39327Y-51125D02*
X39546Y-51125D01*
X39546Y-51125D02*
X39327Y-51375D01*
X39654Y-51375D02*
X39873Y-51125D01*
X39654Y-51348D02*
X39654Y-51153D01*
X39654Y-51153D02*
X39685Y-51125D01*
X39685Y-51125D02*
X39841Y-51125D01*
X39841Y-51125D02*
X39873Y-51153D01*
X39873Y-51153D02*
X39873Y-51348D01*
X39873Y-51348D02*
X39841Y-51375D01*
X39841Y-51375D02*
X39685Y-51375D01*
X39685Y-51375D02*
X39654Y-51348D01*
X39981Y-51458D02*
X39981Y-51209D01*
X39981Y-51237D02*
X40012Y-51209D01*
X40012Y-51209D02*
X40168Y-51209D01*
X40168Y-51209D02*
X40200Y-51237D01*
X40200Y-51237D02*
X40200Y-51348D01*
X40200Y-51348D02*
X40168Y-51375D01*
X40168Y-51375D02*
X40012Y-51375D01*
X40012Y-51375D02*
X39981Y-51348D01*
X40339Y-51375D02*
X40339Y-51153D01*
X40339Y-51153D02*
X40370Y-51125D01*
X40370Y-51125D02*
X40495Y-51125D01*
X40495Y-51125D02*
X40527Y-51153D01*
X40308Y-51237D02*
X40402Y-51237D01*
X30959Y-52348D02*
X30927Y-52375D01*
X30927Y-52375D02*
X30771Y-52375D01*
X30771Y-52375D02*
X30740Y-52348D01*
X30740Y-52348D02*
X30740Y-52153D01*
X30740Y-52153D02*
X30771Y-52125D01*
X30771Y-52125D02*
X30927Y-52125D01*
X30927Y-52125D02*
X30959Y-52153D01*
X31286Y-52375D02*
X31067Y-52375D01*
X31067Y-52375D02*
X31067Y-52292D01*
X31067Y-52292D02*
X31098Y-52264D01*
X31098Y-52264D02*
X31254Y-52264D01*
X31254Y-52264D02*
X31286Y-52237D01*
X31286Y-52237D02*
X31286Y-52153D01*
X31286Y-52153D02*
X31254Y-52125D01*
X31254Y-52125D02*
X31098Y-52125D01*
X31098Y-52125D02*
X31067Y-52153D01*
X30906Y-51375D02*
X30906Y-51125D01*
X30906Y-51125D02*
X30750Y-51320D01*
X30750Y-51320D02*
X30969Y-51320D01*
X31077Y-51125D02*
X31296Y-51125D01*
X31296Y-51125D02*
X31077Y-51375D01*
X31404Y-51375D02*
X31623Y-51125D01*
X31404Y-51348D02*
X31404Y-51153D01*
X31404Y-51153D02*
X31435Y-51125D01*
X31435Y-51125D02*
X31591Y-51125D01*
X31591Y-51125D02*
X31623Y-51153D01*
X31623Y-51153D02*
X31623Y-51348D01*
X31623Y-51348D02*
X31591Y-51375D01*
X31591Y-51375D02*
X31435Y-51375D01*
X31435Y-51375D02*
X31404Y-51348D01*
X31731Y-51458D02*
X31731Y-51209D01*
X31731Y-51237D02*
X31762Y-51209D01*
X31762Y-51209D02*
X31918Y-51209D01*
X31918Y-51209D02*
X31950Y-51237D01*
X31950Y-51237D02*
X31950Y-51348D01*
X31950Y-51348D02*
X31918Y-51375D01*
X31918Y-51375D02*
X31762Y-51375D01*
X31762Y-51375D02*
X31731Y-51348D01*
X32089Y-51375D02*
X32089Y-51153D01*
X32089Y-51153D02*
X32120Y-51125D01*
X32120Y-51125D02*
X32245Y-51125D01*
X32245Y-51125D02*
X32277Y-51153D01*
X32058Y-51237D02*
X32152Y-51237D01*
X40959Y-52348D02*
X40927Y-52375D01*
X40927Y-52375D02*
X40771Y-52375D01*
X40771Y-52375D02*
X40740Y-52348D01*
X40740Y-52348D02*
X40740Y-52153D01*
X40740Y-52153D02*
X40771Y-52125D01*
X40771Y-52125D02*
X40927Y-52125D01*
X40927Y-52125D02*
X40959Y-52153D01*
X41098Y-52375D02*
X41067Y-52348D01*
X41067Y-52348D02*
X41067Y-52264D01*
X41067Y-52264D02*
X41098Y-52237D01*
X41098Y-52237D02*
X41254Y-52237D01*
X41254Y-52237D02*
X41286Y-52209D01*
X41286Y-52209D02*
X41286Y-52153D01*
X41286Y-52153D02*
X41254Y-52125D01*
X41254Y-52125D02*
X41098Y-52125D01*
X41098Y-52125D02*
X41067Y-52153D01*
X41067Y-52153D02*
X41067Y-52209D01*
X41067Y-52209D02*
X41098Y-52237D01*
X41254Y-52237D02*
X41286Y-52264D01*
X41286Y-52264D02*
X41286Y-52348D01*
X41286Y-52348D02*
X41254Y-52375D01*
X41254Y-52375D02*
X41098Y-52375D01*
X40906Y-51375D02*
X40906Y-51125D01*
X40906Y-51125D02*
X40750Y-51320D01*
X40750Y-51320D02*
X40969Y-51320D01*
X41077Y-51125D02*
X41296Y-51125D01*
X41296Y-51125D02*
X41077Y-51375D01*
X41404Y-51375D02*
X41623Y-51125D01*
X41404Y-51348D02*
X41404Y-51153D01*
X41404Y-51153D02*
X41435Y-51125D01*
X41435Y-51125D02*
X41591Y-51125D01*
X41591Y-51125D02*
X41623Y-51153D01*
X41623Y-51153D02*
X41623Y-51348D01*
X41623Y-51348D02*
X41591Y-51375D01*
X41591Y-51375D02*
X41435Y-51375D01*
X41435Y-51375D02*
X41404Y-51348D01*
X41731Y-51458D02*
X41731Y-51209D01*
X41731Y-51237D02*
X41762Y-51209D01*
X41762Y-51209D02*
X41918Y-51209D01*
X41918Y-51209D02*
X41950Y-51237D01*
X41950Y-51237D02*
X41950Y-51348D01*
X41950Y-51348D02*
X41918Y-51375D01*
X41918Y-51375D02*
X41762Y-51375D01*
X41762Y-51375D02*
X41731Y-51348D01*
X42089Y-51375D02*
X42089Y-51153D01*
X42089Y-51153D02*
X42120Y-51125D01*
X42120Y-51125D02*
X42245Y-51125D01*
X42245Y-51125D02*
X42277Y-51153D01*
X42058Y-51237D02*
X42152Y-51237D01*
X42259Y-52348D02*
X42227Y-52375D01*
X42227Y-52375D02*
X42071Y-52375D01*
X42071Y-52375D02*
X42040Y-52348D01*
X42040Y-52348D02*
X42040Y-52153D01*
X42040Y-52153D02*
X42071Y-52125D01*
X42071Y-52125D02*
X42227Y-52125D01*
X42227Y-52125D02*
X42259Y-52153D01*
X42367Y-52320D02*
X42367Y-52348D01*
X42367Y-52348D02*
X42398Y-52375D01*
X42398Y-52375D02*
X42554Y-52375D01*
X42554Y-52375D02*
X42586Y-52348D01*
X42586Y-52348D02*
X42586Y-52264D01*
X42586Y-52264D02*
X42523Y-52209D01*
X42523Y-52209D02*
X42367Y-52209D01*
X42367Y-52209D02*
X42367Y-52125D01*
X42367Y-52125D02*
X42586Y-52125D01*
X42094Y-51375D02*
X42094Y-51348D01*
X42327Y-51375D02*
X42546Y-51125D01*
X42327Y-51348D02*
X42327Y-51153D01*
X42327Y-51153D02*
X42358Y-51125D01*
X42358Y-51125D02*
X42514Y-51125D01*
X42514Y-51125D02*
X42546Y-51153D01*
X42546Y-51153D02*
X42546Y-51348D01*
X42546Y-51348D02*
X42514Y-51375D01*
X42514Y-51375D02*
X42358Y-51375D01*
X42358Y-51375D02*
X42327Y-51348D01*
X42873Y-51375D02*
X42654Y-51375D01*
X42654Y-51375D02*
X42654Y-51292D01*
X42654Y-51292D02*
X42685Y-51264D01*
X42685Y-51264D02*
X42841Y-51264D01*
X42841Y-51264D02*
X42873Y-51237D01*
X42873Y-51237D02*
X42873Y-51153D01*
X42873Y-51153D02*
X42841Y-51125D01*
X42841Y-51125D02*
X42685Y-51125D01*
X42685Y-51125D02*
X42654Y-51153D01*
X42981Y-51209D02*
X42981Y-51320D01*
X42981Y-51320D02*
X43043Y-51375D01*
X43043Y-51375D02*
X43137Y-51375D01*
X43137Y-51375D02*
X43200Y-51320D01*
X43200Y-51320D02*
X43200Y-51209D01*
X43339Y-51375D02*
X43339Y-51153D01*
X43339Y-51153D02*
X43370Y-51125D01*
X43370Y-51125D02*
X43495Y-51125D01*
X43495Y-51125D02*
X43527Y-51153D01*
X43308Y-51237D02*
X43402Y-51237D01*
X34059Y-52348D02*
X34027Y-52375D01*
X34027Y-52375D02*
X33871Y-52375D01*
X33871Y-52375D02*
X33840Y-52348D01*
X33840Y-52348D02*
X33840Y-52153D01*
X33840Y-52153D02*
X33871Y-52125D01*
X33871Y-52125D02*
X34027Y-52125D01*
X34027Y-52125D02*
X34059Y-52153D01*
X34229Y-52375D02*
X34354Y-52375D01*
X34292Y-52375D02*
X34292Y-52125D01*
X34292Y-52153D02*
X34229Y-52209D01*
X33844Y-51375D02*
X33844Y-51348D01*
X34077Y-51375D02*
X34296Y-51125D01*
X34077Y-51348D02*
X34077Y-51153D01*
X34077Y-51153D02*
X34108Y-51125D01*
X34108Y-51125D02*
X34264Y-51125D01*
X34264Y-51125D02*
X34296Y-51153D01*
X34296Y-51153D02*
X34296Y-51348D01*
X34296Y-51348D02*
X34264Y-51375D01*
X34264Y-51375D02*
X34108Y-51375D01*
X34108Y-51375D02*
X34077Y-51348D01*
X34623Y-51375D02*
X34404Y-51375D01*
X34404Y-51375D02*
X34404Y-51292D01*
X34404Y-51292D02*
X34435Y-51264D01*
X34435Y-51264D02*
X34591Y-51264D01*
X34591Y-51264D02*
X34623Y-51237D01*
X34623Y-51237D02*
X34623Y-51153D01*
X34623Y-51153D02*
X34591Y-51125D01*
X34591Y-51125D02*
X34435Y-51125D01*
X34435Y-51125D02*
X34404Y-51153D01*
X34731Y-51209D02*
X34731Y-51320D01*
X34731Y-51320D02*
X34793Y-51375D01*
X34793Y-51375D02*
X34887Y-51375D01*
X34887Y-51375D02*
X34950Y-51320D01*
X34950Y-51320D02*
X34950Y-51209D01*
X35089Y-51375D02*
X35089Y-51153D01*
X35089Y-51153D02*
X35120Y-51125D01*
X35120Y-51125D02*
X35245Y-51125D01*
X35245Y-51125D02*
X35277Y-51153D01*
X35058Y-51237D02*
X35152Y-51237D01*
G54D31*
X23090Y-46476D02*
X22409Y-46476D01*
X22409Y-46476D02*
X22409Y-46155D01*
X22409Y-46155D02*
X22485Y-46101D01*
X22485Y-46101D02*
X22712Y-46101D01*
X22712Y-46101D02*
X22788Y-46155D01*
X22788Y-46155D02*
X22788Y-46476D01*
X23090Y-45774D02*
X23090Y-45560D01*
X23090Y-45667D02*
X22409Y-45667D01*
X22485Y-45667D02*
X22636Y-45774D01*
G54D32*
X47296Y-52348D02*
X47264Y-52375D01*
X47264Y-52375D02*
X47108Y-52375D01*
X47108Y-52375D02*
X47077Y-52348D01*
X47077Y-52348D02*
X47077Y-52153D01*
X47077Y-52153D02*
X47108Y-52125D01*
X47108Y-52125D02*
X47264Y-52125D01*
X47264Y-52125D02*
X47296Y-52153D01*
X47466Y-52375D02*
X47591Y-52375D01*
X47529Y-52375D02*
X47529Y-52125D01*
X47529Y-52153D02*
X47466Y-52209D01*
X47731Y-52375D02*
X47950Y-52125D01*
X47731Y-52348D02*
X47731Y-52153D01*
X47731Y-52153D02*
X47762Y-52125D01*
X47762Y-52125D02*
X47918Y-52125D01*
X47918Y-52125D02*
X47950Y-52153D01*
X47950Y-52153D02*
X47950Y-52348D01*
X47950Y-52348D02*
X47918Y-52375D01*
X47918Y-52375D02*
X47762Y-52375D01*
X47762Y-52375D02*
X47731Y-52348D01*
X47406Y-51375D02*
X47406Y-51125D01*
X47406Y-51125D02*
X47250Y-51320D01*
X47250Y-51320D02*
X47469Y-51320D01*
X47577Y-51125D02*
X47796Y-51125D01*
X47796Y-51125D02*
X47577Y-51375D01*
X47904Y-51375D02*
X48123Y-51125D01*
X47904Y-51348D02*
X47904Y-51153D01*
X47904Y-51153D02*
X47935Y-51125D01*
X47935Y-51125D02*
X48091Y-51125D01*
X48091Y-51125D02*
X48123Y-51153D01*
X48123Y-51153D02*
X48123Y-51348D01*
X48123Y-51348D02*
X48091Y-51375D01*
X48091Y-51375D02*
X47935Y-51375D01*
X47935Y-51375D02*
X47904Y-51348D01*
X48231Y-51458D02*
X48231Y-51209D01*
X48231Y-51237D02*
X48262Y-51209D01*
X48262Y-51209D02*
X48418Y-51209D01*
X48418Y-51209D02*
X48450Y-51237D01*
X48450Y-51237D02*
X48450Y-51348D01*
X48450Y-51348D02*
X48418Y-51375D01*
X48418Y-51375D02*
X48262Y-51375D01*
X48262Y-51375D02*
X48231Y-51348D01*
X48589Y-51375D02*
X48589Y-51153D01*
X48589Y-51153D02*
X48620Y-51125D01*
X48620Y-51125D02*
X48745Y-51125D01*
X48745Y-51125D02*
X48777Y-51153D01*
X48558Y-51237D02*
X48652Y-51237D01*
X26196Y-53398D02*
X26164Y-53425D01*
X26164Y-53425D02*
X26008Y-53425D01*
X26008Y-53425D02*
X25977Y-53398D01*
X25977Y-53398D02*
X25977Y-53203D01*
X25977Y-53203D02*
X26008Y-53175D01*
X26008Y-53175D02*
X26164Y-53175D01*
X26164Y-53175D02*
X26196Y-53203D01*
X26523Y-53425D02*
X26304Y-53425D01*
X26304Y-53425D02*
X26304Y-53342D01*
X26304Y-53342D02*
X26335Y-53314D01*
X26335Y-53314D02*
X26491Y-53314D01*
X26491Y-53314D02*
X26523Y-53287D01*
X26523Y-53287D02*
X26523Y-53203D01*
X26523Y-53203D02*
X26491Y-53175D01*
X26491Y-53175D02*
X26335Y-53175D01*
X26335Y-53175D02*
X26304Y-53203D01*
X26631Y-53175D02*
X26850Y-53175D01*
X26850Y-53175D02*
X26631Y-53425D01*
X25889Y-52375D02*
X26014Y-52375D01*
X25952Y-52375D02*
X25952Y-52125D01*
X25952Y-52153D02*
X25889Y-52209D01*
X26154Y-52209D02*
X26154Y-52320D01*
X26154Y-52320D02*
X26216Y-52375D01*
X26216Y-52375D02*
X26310Y-52375D01*
X26310Y-52375D02*
X26373Y-52320D01*
X26373Y-52320D02*
X26373Y-52209D01*
X26512Y-52375D02*
X26512Y-52153D01*
X26512Y-52153D02*
X26543Y-52125D01*
X26543Y-52125D02*
X26668Y-52125D01*
X26668Y-52125D02*
X26700Y-52153D01*
X26481Y-52237D02*
X26575Y-52237D01*
X24348Y-45204D02*
X24375Y-45236D01*
X24375Y-45236D02*
X24375Y-45392D01*
X24375Y-45392D02*
X24348Y-45423D01*
X24348Y-45423D02*
X24153Y-45423D01*
X24153Y-45423D02*
X24125Y-45392D01*
X24125Y-45392D02*
X24125Y-45236D01*
X24125Y-45236D02*
X24153Y-45204D01*
X24125Y-45096D02*
X24125Y-44877D01*
X24125Y-44877D02*
X24153Y-44877D01*
X24153Y-44877D02*
X24237Y-45002D01*
X24237Y-45002D02*
X24237Y-44909D01*
X24237Y-44909D02*
X24264Y-44877D01*
X24264Y-44877D02*
X24348Y-44877D01*
X24348Y-44877D02*
X24375Y-44909D01*
X24375Y-44909D02*
X24375Y-45065D01*
X24375Y-45065D02*
X24348Y-45096D01*
X24375Y-44707D02*
X24375Y-44582D01*
X24375Y-44644D02*
X24125Y-44644D01*
X24153Y-44644D02*
X24209Y-44707D01*
X23325Y-45988D02*
X23325Y-45863D01*
X23325Y-45925D02*
X23075Y-45925D01*
X23103Y-45925D02*
X23159Y-45988D01*
X23325Y-45723D02*
X23075Y-45504D01*
X23298Y-45723D02*
X23103Y-45723D01*
X23103Y-45723D02*
X23075Y-45692D01*
X23075Y-45692D02*
X23075Y-45536D01*
X23075Y-45536D02*
X23103Y-45504D01*
X23103Y-45504D02*
X23298Y-45504D01*
X23298Y-45504D02*
X23325Y-45536D01*
X23325Y-45536D02*
X23325Y-45692D01*
X23325Y-45692D02*
X23298Y-45723D01*
X23325Y-45396D02*
X23075Y-45177D01*
X23298Y-45396D02*
X23103Y-45396D01*
X23103Y-45396D02*
X23075Y-45365D01*
X23075Y-45365D02*
X23075Y-45209D01*
X23075Y-45209D02*
X23103Y-45177D01*
X23103Y-45177D02*
X23298Y-45177D01*
X23298Y-45177D02*
X23325Y-45209D01*
X23325Y-45209D02*
X23325Y-45365D01*
X23325Y-45365D02*
X23298Y-45396D01*
X23408Y-45069D02*
X23159Y-45069D01*
X23187Y-45069D02*
X23159Y-45038D01*
X23159Y-45038D02*
X23159Y-44882D01*
X23159Y-44882D02*
X23187Y-44850D01*
X23187Y-44850D02*
X23298Y-44850D01*
X23298Y-44850D02*
X23325Y-44882D01*
X23325Y-44882D02*
X23325Y-45038D01*
X23325Y-45038D02*
X23298Y-45069D01*
X23325Y-44711D02*
X23103Y-44711D01*
X23103Y-44711D02*
X23075Y-44680D01*
X23075Y-44680D02*
X23075Y-44555D01*
X23075Y-44555D02*
X23103Y-44523D01*
X23187Y-44742D02*
X23187Y-44648D01*
X25598Y-49954D02*
X25625Y-49986D01*
X25625Y-49986D02*
X25625Y-50142D01*
X25625Y-50142D02*
X25598Y-50173D01*
X25598Y-50173D02*
X25403Y-50173D01*
X25403Y-50173D02*
X25375Y-50142D01*
X25375Y-50142D02*
X25375Y-49986D01*
X25375Y-49986D02*
X25403Y-49954D01*
X25375Y-49846D02*
X25375Y-49627D01*
X25375Y-49627D02*
X25403Y-49627D01*
X25403Y-49627D02*
X25487Y-49752D01*
X25487Y-49752D02*
X25487Y-49659D01*
X25487Y-49659D02*
X25514Y-49627D01*
X25514Y-49627D02*
X25598Y-49627D01*
X25598Y-49627D02*
X25625Y-49659D01*
X25625Y-49659D02*
X25625Y-49815D01*
X25625Y-49815D02*
X25598Y-49846D01*
X25375Y-49519D02*
X25375Y-49300D01*
X25375Y-49300D02*
X25403Y-49300D01*
X25403Y-49300D02*
X25487Y-49425D01*
X25487Y-49425D02*
X25487Y-49332D01*
X25487Y-49332D02*
X25514Y-49300D01*
X25514Y-49300D02*
X25598Y-49300D01*
X25598Y-49300D02*
X25625Y-49332D01*
X25625Y-49332D02*
X25625Y-49488D01*
X25625Y-49488D02*
X25598Y-49519D01*
X26625Y-50775D02*
X26625Y-50650D01*
X26625Y-50712D02*
X26375Y-50712D01*
X26403Y-50712D02*
X26459Y-50775D01*
X26625Y-50510D02*
X26375Y-50291D01*
X26598Y-50510D02*
X26403Y-50510D01*
X26403Y-50510D02*
X26375Y-50479D01*
X26375Y-50479D02*
X26375Y-50323D01*
X26375Y-50323D02*
X26403Y-50291D01*
X26403Y-50291D02*
X26598Y-50291D01*
X26598Y-50291D02*
X26625Y-50323D01*
X26625Y-50323D02*
X26625Y-50479D01*
X26625Y-50479D02*
X26598Y-50510D01*
X26459Y-50183D02*
X26570Y-50183D01*
X26570Y-50183D02*
X26625Y-50121D01*
X26625Y-50121D02*
X26625Y-50027D01*
X26625Y-50027D02*
X26570Y-49964D01*
X26570Y-49964D02*
X26459Y-49964D01*
X26625Y-49825D02*
X26403Y-49825D01*
X26403Y-49825D02*
X26375Y-49794D01*
X26375Y-49794D02*
X26375Y-49669D01*
X26375Y-49669D02*
X26403Y-49637D01*
X26487Y-49856D02*
X26487Y-49762D01*
X28296Y-43598D02*
X28264Y-43625D01*
X28264Y-43625D02*
X28108Y-43625D01*
X28108Y-43625D02*
X28077Y-43598D01*
X28077Y-43598D02*
X28077Y-43403D01*
X28077Y-43403D02*
X28108Y-43375D01*
X28108Y-43375D02*
X28264Y-43375D01*
X28264Y-43375D02*
X28296Y-43403D01*
X28623Y-43625D02*
X28404Y-43625D01*
X28404Y-43625D02*
X28404Y-43542D01*
X28404Y-43542D02*
X28435Y-43514D01*
X28435Y-43514D02*
X28591Y-43514D01*
X28591Y-43514D02*
X28623Y-43487D01*
X28623Y-43487D02*
X28623Y-43403D01*
X28623Y-43403D02*
X28591Y-43375D01*
X28591Y-43375D02*
X28435Y-43375D01*
X28435Y-43375D02*
X28404Y-43403D01*
X28762Y-43625D02*
X28731Y-43598D01*
X28731Y-43598D02*
X28731Y-43514D01*
X28731Y-43514D02*
X28762Y-43487D01*
X28762Y-43487D02*
X28918Y-43487D01*
X28918Y-43487D02*
X28950Y-43459D01*
X28950Y-43459D02*
X28950Y-43403D01*
X28950Y-43403D02*
X28918Y-43375D01*
X28918Y-43375D02*
X28762Y-43375D01*
X28762Y-43375D02*
X28731Y-43403D01*
X28731Y-43403D02*
X28731Y-43459D01*
X28731Y-43459D02*
X28762Y-43487D01*
X28918Y-43487D02*
X28950Y-43514D01*
X28950Y-43514D02*
X28950Y-43598D01*
X28950Y-43598D02*
X28918Y-43625D01*
X28918Y-43625D02*
X28762Y-43625D01*
X27475Y-44625D02*
X27600Y-44625D01*
X27538Y-44625D02*
X27538Y-44375D01*
X27538Y-44403D02*
X27475Y-44459D01*
X27740Y-44625D02*
X27959Y-44375D01*
X27740Y-44598D02*
X27740Y-44403D01*
X27740Y-44403D02*
X27771Y-44375D01*
X27771Y-44375D02*
X27927Y-44375D01*
X27927Y-44375D02*
X27959Y-44403D01*
X27959Y-44403D02*
X27959Y-44598D01*
X27959Y-44598D02*
X27927Y-44625D01*
X27927Y-44625D02*
X27771Y-44625D01*
X27771Y-44625D02*
X27740Y-44598D01*
X28067Y-44459D02*
X28067Y-44570D01*
X28067Y-44570D02*
X28129Y-44625D01*
X28129Y-44625D02*
X28223Y-44625D01*
X28223Y-44625D02*
X28286Y-44570D01*
X28286Y-44570D02*
X28286Y-44459D01*
X28425Y-44625D02*
X28425Y-44403D01*
X28425Y-44403D02*
X28456Y-44375D01*
X28456Y-44375D02*
X28581Y-44375D01*
X28581Y-44375D02*
X28613Y-44403D01*
X28394Y-44487D02*
X28488Y-44487D01*
X28046Y-52398D02*
X28014Y-52425D01*
X28014Y-52425D02*
X27858Y-52425D01*
X27858Y-52425D02*
X27827Y-52398D01*
X27827Y-52398D02*
X27827Y-52203D01*
X27827Y-52203D02*
X27858Y-52175D01*
X27858Y-52175D02*
X28014Y-52175D01*
X28014Y-52175D02*
X28046Y-52203D01*
X28373Y-52425D02*
X28154Y-52425D01*
X28154Y-52425D02*
X28154Y-52342D01*
X28154Y-52342D02*
X28185Y-52314D01*
X28185Y-52314D02*
X28341Y-52314D01*
X28341Y-52314D02*
X28373Y-52287D01*
X28373Y-52287D02*
X28373Y-52203D01*
X28373Y-52203D02*
X28341Y-52175D01*
X28341Y-52175D02*
X28185Y-52175D01*
X28185Y-52175D02*
X28154Y-52203D01*
X28700Y-52203D02*
X28668Y-52175D01*
X28668Y-52175D02*
X28512Y-52175D01*
X28512Y-52175D02*
X28481Y-52203D01*
X28481Y-52203D02*
X28481Y-52398D01*
X28481Y-52398D02*
X28512Y-52425D01*
X28512Y-52425D02*
X28668Y-52425D01*
X28668Y-52425D02*
X28700Y-52398D01*
X28700Y-52398D02*
X28700Y-52314D01*
X28700Y-52314D02*
X28668Y-52287D01*
X28668Y-52287D02*
X28512Y-52287D01*
X28512Y-52287D02*
X28481Y-52314D01*
X26906Y-51625D02*
X26906Y-51375D01*
X26906Y-51375D02*
X26750Y-51570D01*
X26750Y-51570D02*
X26969Y-51570D01*
X27077Y-51375D02*
X27296Y-51375D01*
X27296Y-51375D02*
X27077Y-51625D01*
X27404Y-51625D02*
X27623Y-51375D01*
X27404Y-51598D02*
X27404Y-51403D01*
X27404Y-51403D02*
X27435Y-51375D01*
X27435Y-51375D02*
X27591Y-51375D01*
X27591Y-51375D02*
X27623Y-51403D01*
X27623Y-51403D02*
X27623Y-51598D01*
X27623Y-51598D02*
X27591Y-51625D01*
X27591Y-51625D02*
X27435Y-51625D01*
X27435Y-51625D02*
X27404Y-51598D01*
X27731Y-51708D02*
X27731Y-51459D01*
X27731Y-51487D02*
X27762Y-51459D01*
X27762Y-51459D02*
X27918Y-51459D01*
X27918Y-51459D02*
X27950Y-51487D01*
X27950Y-51487D02*
X27950Y-51598D01*
X27950Y-51598D02*
X27918Y-51625D01*
X27918Y-51625D02*
X27762Y-51625D01*
X27762Y-51625D02*
X27731Y-51598D01*
X28089Y-51625D02*
X28089Y-51403D01*
X28089Y-51403D02*
X28120Y-51375D01*
X28120Y-51375D02*
X28245Y-51375D01*
X28245Y-51375D02*
X28277Y-51403D01*
X28058Y-51487D02*
X28152Y-51487D01*
X49046Y-52348D02*
X49014Y-52375D01*
X49014Y-52375D02*
X48858Y-52375D01*
X48858Y-52375D02*
X48827Y-52348D01*
X48827Y-52348D02*
X48827Y-52153D01*
X48827Y-52153D02*
X48858Y-52125D01*
X48858Y-52125D02*
X49014Y-52125D01*
X49014Y-52125D02*
X49046Y-52153D01*
X49216Y-52375D02*
X49341Y-52375D01*
X49279Y-52375D02*
X49279Y-52125D01*
X49279Y-52153D02*
X49216Y-52209D01*
X49700Y-52375D02*
X49481Y-52375D01*
X49481Y-52375D02*
X49481Y-52292D01*
X49481Y-52292D02*
X49512Y-52264D01*
X49512Y-52264D02*
X49668Y-52264D01*
X49668Y-52264D02*
X49700Y-52237D01*
X49700Y-52237D02*
X49700Y-52153D01*
X49700Y-52153D02*
X49668Y-52125D01*
X49668Y-52125D02*
X49512Y-52125D01*
X49512Y-52125D02*
X49481Y-52153D01*
X49156Y-51375D02*
X49156Y-51125D01*
X49156Y-51125D02*
X49000Y-51320D01*
X49000Y-51320D02*
X49219Y-51320D01*
X49327Y-51125D02*
X49546Y-51125D01*
X49546Y-51125D02*
X49327Y-51375D01*
X49654Y-51375D02*
X49873Y-51125D01*
X49654Y-51348D02*
X49654Y-51153D01*
X49654Y-51153D02*
X49685Y-51125D01*
X49685Y-51125D02*
X49841Y-51125D01*
X49841Y-51125D02*
X49873Y-51153D01*
X49873Y-51153D02*
X49873Y-51348D01*
X49873Y-51348D02*
X49841Y-51375D01*
X49841Y-51375D02*
X49685Y-51375D01*
X49685Y-51375D02*
X49654Y-51348D01*
X49981Y-51458D02*
X49981Y-51209D01*
X49981Y-51237D02*
X50012Y-51209D01*
X50012Y-51209D02*
X50168Y-51209D01*
X50168Y-51209D02*
X50200Y-51237D01*
X50200Y-51237D02*
X50200Y-51348D01*
X50200Y-51348D02*
X50168Y-51375D01*
X50168Y-51375D02*
X50012Y-51375D01*
X50012Y-51375D02*
X49981Y-51348D01*
X50339Y-51375D02*
X50339Y-51153D01*
X50339Y-51153D02*
X50370Y-51125D01*
X50370Y-51125D02*
X50495Y-51125D01*
X50495Y-51125D02*
X50527Y-51153D01*
X50308Y-51237D02*
X50402Y-51237D01*
G54D34*
X25650Y-44650D02*
X25650Y-45095D01*
X25650Y-45095D02*
X25706Y-45150D01*
X25706Y-45150D02*
X25987Y-45150D01*
X25987Y-45150D02*
X26044Y-45095D01*
X26044Y-45095D02*
X26044Y-44650D01*
X26342Y-45150D02*
X26567Y-45150D01*
X26455Y-45150D02*
X26455Y-44650D01*
X26455Y-44706D02*
X26342Y-44817D01*
X27091Y-45150D02*
X27091Y-44650D01*
X27091Y-44650D02*
X26810Y-45039D01*
X26810Y-45039D02*
X27204Y-45039D01*
X29850Y-48926D02*
X29850Y-48526D01*
X29850Y-48726D02*
X30350Y-48726D01*
X29850Y-48402D02*
X30350Y-48402D01*
X30350Y-48402D02*
X30350Y-48002D01*
X30350Y-47878D02*
X29850Y-47528D01*
X30295Y-47878D02*
X29906Y-47878D01*
X29906Y-47878D02*
X29850Y-47828D01*
X29850Y-47828D02*
X29850Y-47578D01*
X29850Y-47578D02*
X29906Y-47528D01*
X29906Y-47528D02*
X30295Y-47528D01*
X30295Y-47528D02*
X30350Y-47578D01*
X30350Y-47578D02*
X30350Y-47828D01*
X30350Y-47828D02*
X30295Y-47878D01*
X30350Y-47304D02*
X30295Y-47354D01*
X30295Y-47354D02*
X30128Y-47354D01*
X30128Y-47354D02*
X30073Y-47304D01*
X30073Y-47304D02*
X30073Y-47054D01*
X30073Y-47054D02*
X30017Y-47004D01*
X30017Y-47004D02*
X29906Y-47004D01*
X29906Y-47004D02*
X29850Y-47054D01*
X29850Y-47054D02*
X29850Y-47304D01*
X29850Y-47304D02*
X29906Y-47354D01*
X29906Y-47354D02*
X30017Y-47354D01*
X30017Y-47354D02*
X30073Y-47304D01*
X30073Y-47054D02*
X30128Y-47004D01*
X30128Y-47004D02*
X30295Y-47004D01*
X30295Y-47004D02*
X30350Y-47054D01*
X30350Y-47054D02*
X30350Y-47304D01*
X30350Y-46480D02*
X30350Y-46830D01*
X30350Y-46830D02*
X30184Y-46830D01*
X30184Y-46830D02*
X30128Y-46780D01*
X30128Y-46780D02*
X30128Y-46530D01*
X30128Y-46530D02*
X30073Y-46480D01*
X30073Y-46480D02*
X29906Y-46480D01*
X29906Y-46480D02*
X29850Y-46530D01*
X29850Y-46530D02*
X29850Y-46780D01*
X29850Y-46780D02*
X29906Y-46830D01*
X30295Y-45956D02*
X30350Y-46006D01*
X30350Y-46006D02*
X30350Y-46256D01*
X30350Y-46256D02*
X30295Y-46306D01*
X30295Y-46306D02*
X29906Y-46306D01*
X29906Y-46306D02*
X29850Y-46256D01*
X29850Y-46256D02*
X29850Y-46006D01*
X29850Y-46006D02*
X29906Y-45956D01*
X30350Y-45782D02*
X29850Y-45782D01*
X29850Y-45782D02*
X30350Y-45432D01*
X30350Y-45432D02*
X29850Y-45432D01*
X21572Y-53950D02*
X21572Y-54484D01*
X21572Y-54484D02*
X21622Y-54550D01*
X21622Y-54550D02*
X21872Y-54550D01*
X21872Y-54550D02*
X21922Y-54484D01*
X21922Y-54484D02*
X21922Y-53950D01*
X22196Y-54550D02*
X22396Y-54550D01*
X22296Y-54550D02*
X22296Y-53950D01*
X22296Y-54017D02*
X22196Y-54150D01*
X22620Y-54417D02*
X22620Y-54484D01*
X22620Y-54484D02*
X22670Y-54550D01*
X22670Y-54550D02*
X22920Y-54550D01*
X22920Y-54550D02*
X22970Y-54484D01*
X22970Y-54484D02*
X22970Y-54284D01*
X22970Y-54284D02*
X22870Y-54150D01*
X22870Y-54150D02*
X22620Y-54150D01*
X22620Y-54150D02*
X22620Y-53950D01*
X22620Y-53950D02*
X22970Y-53950D01*
X21298Y-50500D02*
X21648Y-50500D01*
X21648Y-50500D02*
X21298Y-51100D01*
X21872Y-51100D02*
X21822Y-51034D01*
X21822Y-51034D02*
X21822Y-50834D01*
X21822Y-50834D02*
X21872Y-50767D01*
X21872Y-50767D02*
X22122Y-50767D01*
X22122Y-50767D02*
X22172Y-50700D01*
X22172Y-50700D02*
X22172Y-50567D01*
X22172Y-50567D02*
X22122Y-50500D01*
X22122Y-50500D02*
X21872Y-50500D01*
X21872Y-50500D02*
X21822Y-50567D01*
X21822Y-50567D02*
X21822Y-50700D01*
X21822Y-50700D02*
X21872Y-50767D01*
X22122Y-50767D02*
X22172Y-50834D01*
X22172Y-50834D02*
X22172Y-51034D01*
X22172Y-51034D02*
X22122Y-51100D01*
X22122Y-51100D02*
X21872Y-51100D01*
X22346Y-50500D02*
X22346Y-51100D01*
X22346Y-51100D02*
X22746Y-51100D01*
X22870Y-51100D02*
X23220Y-50500D01*
X22870Y-51034D02*
X22870Y-50567D01*
X22870Y-50567D02*
X22920Y-50500D01*
X22920Y-50500D02*
X23170Y-50500D01*
X23170Y-50500D02*
X23220Y-50567D01*
X23220Y-50567D02*
X23220Y-51034D01*
X23220Y-51034D02*
X23170Y-51100D01*
X23170Y-51100D02*
X22920Y-51100D01*
X22920Y-51100D02*
X22870Y-51034D01*
X23394Y-50967D02*
X23394Y-51034D01*
X23394Y-51034D02*
X23444Y-51100D01*
X23444Y-51100D02*
X23694Y-51100D01*
X23694Y-51100D02*
X23744Y-51034D01*
X23744Y-51034D02*
X23744Y-50834D01*
X23744Y-50834D02*
X23644Y-50700D01*
X23644Y-50700D02*
X23394Y-50700D01*
X23394Y-50700D02*
X23394Y-50500D01*
X23394Y-50500D02*
X23744Y-50500D01*
G54D35*
X28975Y-47592D02*
X29375Y-47592D01*
X29375Y-47592D02*
X29425Y-47536D01*
X29425Y-47536D02*
X29425Y-47255D01*
X29425Y-47255D02*
X29375Y-47198D01*
X29375Y-47198D02*
X28975Y-47198D01*
X29425Y-46863D02*
X29375Y-46863D01*
X29275Y-46863D02*
X29225Y-46863D01*
X29225Y-46863D02*
X29175Y-46751D01*
X29175Y-46751D02*
X29125Y-46695D01*
X29125Y-46695D02*
X29025Y-46695D01*
X29025Y-46695D02*
X28975Y-46751D01*
X28975Y-46751D02*
X28975Y-46976D01*
X28975Y-46976D02*
X29025Y-47032D01*
X28275Y-48626D02*
X28275Y-48276D01*
X28275Y-48451D02*
X28625Y-48451D01*
X28275Y-48178D02*
X28625Y-48178D01*
X28625Y-48178D02*
X28625Y-47828D01*
X28625Y-47730D02*
X28275Y-47423D01*
X28587Y-47730D02*
X28314Y-47730D01*
X28314Y-47730D02*
X28275Y-47686D01*
X28275Y-47686D02*
X28275Y-47467D01*
X28275Y-47467D02*
X28314Y-47423D01*
X28314Y-47423D02*
X28587Y-47423D01*
X28587Y-47423D02*
X28625Y-47467D01*
X28625Y-47467D02*
X28625Y-47686D01*
X28625Y-47686D02*
X28587Y-47730D01*
X28625Y-47238D02*
X28587Y-47282D01*
X28587Y-47282D02*
X28470Y-47282D01*
X28470Y-47282D02*
X28431Y-47238D01*
X28431Y-47238D02*
X28431Y-47019D01*
X28431Y-47019D02*
X28392Y-46975D01*
X28392Y-46975D02*
X28314Y-46975D01*
X28314Y-46975D02*
X28275Y-47019D01*
X28275Y-47019D02*
X28275Y-47238D01*
X28275Y-47238D02*
X28314Y-47282D01*
X28314Y-47282D02*
X28392Y-47282D01*
X28392Y-47282D02*
X28431Y-47238D01*
X28431Y-47019D02*
X28470Y-46975D01*
X28470Y-46975D02*
X28587Y-46975D01*
X28587Y-46975D02*
X28625Y-47019D01*
X28625Y-47019D02*
X28625Y-47238D01*
X28625Y-46527D02*
X28625Y-46834D01*
X28625Y-46834D02*
X28509Y-46834D01*
X28509Y-46834D02*
X28470Y-46790D01*
X28470Y-46790D02*
X28470Y-46571D01*
X28470Y-46571D02*
X28431Y-46527D01*
X28431Y-46527D02*
X28314Y-46527D01*
X28314Y-46527D02*
X28275Y-46571D01*
X28275Y-46571D02*
X28275Y-46790D01*
X28275Y-46790D02*
X28314Y-46834D01*
X28587Y-46079D02*
X28625Y-46123D01*
X28625Y-46123D02*
X28625Y-46342D01*
X28625Y-46342D02*
X28587Y-46386D01*
X28587Y-46386D02*
X28314Y-46386D01*
X28314Y-46386D02*
X28275Y-46342D01*
X28275Y-46342D02*
X28275Y-46123D01*
X28275Y-46123D02*
X28314Y-46079D01*
X28625Y-45938D02*
X28275Y-45938D01*
X28275Y-45938D02*
X28625Y-45631D01*
X28625Y-45631D02*
X28275Y-45631D01*
M02*
