M48
;DRILL file {PCBnew (20100406 SVN-R2508)-final} date 6/3/2010 9:59:50 PM
;FORMAT={-.-/ absolute / inch / decimal}
R,T
VER,1
FMAT,2
INCH,TZ
TCST,OFF
ICI,OFF
ATC,ON
T1C0.025
T2C0.032
T3C0.040
T4C0.050
T5C0.120
%
M47
G05
M72
T1
X2.210Y5.070
X2.235Y4.630
X2.790Y4.960
X2.910Y5.470
T2
X2.275Y4.375
X2.275Y4.450
X2.325Y5.150
X2.325Y5.250
X2.375Y4.450
X2.375Y4.575
X2.375Y4.975
X2.375Y5.425
X2.600Y5.025
X2.600Y5.025
X2.625Y4.575
X2.625Y4.675
X2.625Y4.775
X2.625Y4.875
X2.625Y5.175
X2.625Y5.275
X2.675Y4.375
X2.700Y5.025
X2.700Y5.025
X2.735Y5.343
X2.750Y5.100
X2.750Y5.200
X2.775Y5.425
X2.800Y4.400
X2.800Y4.400
X2.800Y4.500
X2.800Y4.500
X2.820Y5.290
X2.905Y5.237
X2.910Y5.370
X2.910Y5.470
X2.925Y4.575
X2.925Y4.675
X2.925Y4.775
X2.925Y4.875
X2.925Y5.025
X2.925Y5.125
X2.990Y5.184
X3.070Y5.100
X3.115Y4.380
X3.170Y5.100
X3.215Y4.380
X3.255Y5.155
X3.355Y5.155
X3.430Y5.105
X3.507Y5.259
X3.530Y5.105
X3.560Y5.343
X3.592Y5.206
X3.645Y5.290
X3.677Y5.153
X3.730Y5.237
X3.762Y5.100
X3.815Y5.184
X3.885Y5.100
X3.985Y5.100
X4.075Y5.155
X4.175Y5.155
X4.255Y5.105
X4.332Y5.259
X4.355Y5.105
X4.385Y5.343
X4.417Y5.206
X4.470Y5.290
X4.502Y5.153
X4.555Y5.237
X4.587Y5.100
X4.640Y5.184
X4.710Y5.100
X4.810Y5.100
X4.900Y5.155
X5.000Y5.155
X5.080Y5.105
X5.157Y5.259
X5.180Y5.105
X5.210Y5.343
X5.242Y5.206
X5.295Y5.290
X5.327Y5.153
X5.380Y5.237
X5.412Y5.100
X5.465Y5.184
X5.540Y5.100
X5.640Y5.100
X5.730Y5.155
X5.830Y5.155
X5.910Y5.105
X5.982Y5.259
X6.010Y5.105
X6.035Y5.343
X6.067Y5.206
X6.120Y5.290
X6.152Y5.153
X6.205Y5.237
X6.237Y5.100
X6.290Y5.184
T3
X2.200Y5.150
X2.200Y5.250
X2.200Y5.350
X2.475Y4.925
X2.475Y5.325
X3.000Y5.300
X3.000Y5.440
X3.400Y5.300
X3.400Y5.440
X3.850Y5.300
X3.850Y5.440
X4.250Y5.300
X4.250Y5.440
X4.675Y5.300
X4.675Y5.440
X5.075Y5.300
X5.075Y5.440
X5.500Y5.300
X5.500Y5.440
X5.900Y5.300
X5.900Y5.440
T4
X2.175Y4.375
X2.175Y4.475
X2.175Y4.574
X2.175Y4.676
X2.175Y4.775
T5
X2.248Y4.941
X3.011Y4.464
X3.073Y4.941
X3.073Y4.941
X3.836Y4.464
X3.836Y4.464
X3.898Y4.941
X3.898Y4.941
X4.661Y4.464
X4.661Y4.464
X4.723Y4.941
X4.723Y4.941
X5.486Y4.464
X5.486Y4.464
X5.548Y4.941
X5.548Y4.941
X6.311Y4.464
X6.311Y4.464
T0
M30
