G04 (Genere par PCBNEW (2007-07-09)) le 26/3/2010-09:55:49*
G01*
G70*
G90*
%MOIN*%
G04 Gerber Fmt 3.4, Leading zero omitted, Abs format*
%FSLAX34Y34*%
G04 APERTURE LIST*
%ADD10C,0.015000*%
%ADD11C,0.060000*%
%ADD12C,0.070000*%
%ADD13R,0.070000X0.070000*%
%ADD14C,0.130000*%
%ADD15R,0.055000X0.055000*%
%ADD16C,0.055000*%
%ADD17R,0.030000X0.020000*%
%ADD18R,0.055000X0.035000*%
%ADD19R,0.035000X0.055000*%
%ADD20C,0.045000*%
%ADD21C,0.010000*%
%ADD22C,0.025000*%
%ADD23R,0.230000X0.006000*%
%ADD24R,0.060000X0.060000*%
%ADD25R,0.006000X0.230000*%
%ADD26R,0.098400X0.090600*%
%ADD27R,0.090000X0.006000*%
%ADD28R,0.090600X0.098400*%
%ADD29R,0.006000X0.090000*%
%ADD30R,0.045000X0.020000*%
%ADD31C,0.012000*%
%ADD32C,0.005000*%
%ADD33C,0.001000*%
%ADD34C,0.008000*%
%ADD35C,0.006000*%
%ADD36C,0.080000*%
%ADD37C,0.090000*%
%ADD38R,0.090000X0.090000*%
%ADD39C,0.150000*%
%ADD40R,0.075000X0.075000*%
%ADD41C,0.075000*%
%ADD42R,0.050000X0.040000*%
%ADD43R,0.075000X0.055000*%
%ADD44R,0.055000X0.075000*%
%ADD45R,0.080000X0.080000*%
%ADD46R,0.118400X0.110600*%
%ADD47R,0.110600X0.118400*%
%ADD48R,0.065000X0.040000*%
G04 APERTURE END LIST*
G54D10*
X21000Y-55000D02*
X64150Y-55000D01*
X64150Y-43250D02*
X21000Y-43250D01*
X64150Y-43250D02*
X64150Y-55000D01*
X54000Y-47500D02*
X48000Y-47500D01*
X31600Y-46500D02*
X31496Y-46511D01*
X31496Y-46511D02*
X31397Y-46543D01*
X31397Y-46543D02*
X31306Y-46595D01*
X31306Y-46595D02*
X31228Y-46665D01*
X31228Y-46665D02*
X31167Y-46750D01*
X31167Y-46750D02*
X31124Y-46845D01*
X31124Y-46845D02*
X31103Y-46948D01*
X31103Y-46948D02*
X31100Y-47000D01*
X31100Y-47000D02*
X31111Y-47104D01*
X31111Y-47104D02*
X31143Y-47203D01*
X31143Y-47203D02*
X31195Y-47294D01*
X31195Y-47294D02*
X31265Y-47372D01*
X31265Y-47372D02*
X31350Y-47433D01*
X31350Y-47433D02*
X31445Y-47476D01*
X31445Y-47476D02*
X31548Y-47497D01*
X31548Y-47497D02*
X31600Y-47500D01*
X37600Y-47500D02*
X37704Y-47489D01*
X37704Y-47489D02*
X37803Y-47457D01*
X37803Y-47457D02*
X37894Y-47405D01*
X37894Y-47405D02*
X37972Y-47335D01*
X37972Y-47335D02*
X38033Y-47250D01*
X38033Y-47250D02*
X38076Y-47155D01*
X38076Y-47155D02*
X38097Y-47052D01*
X38097Y-47052D02*
X38100Y-47000D01*
X38100Y-47000D02*
X38089Y-46896D01*
X38089Y-46896D02*
X38057Y-46797D01*
X38057Y-46797D02*
X38005Y-46706D01*
X38005Y-46706D02*
X37935Y-46628D01*
X37935Y-46628D02*
X37850Y-46567D01*
X37850Y-46567D02*
X37755Y-46524D01*
X37755Y-46524D02*
X37652Y-46503D01*
X37652Y-46503D02*
X37600Y-46500D01*
X39800Y-46500D02*
X39696Y-46511D01*
X39696Y-46511D02*
X39597Y-46543D01*
X39597Y-46543D02*
X39506Y-46595D01*
X39506Y-46595D02*
X39428Y-46665D01*
X39428Y-46665D02*
X39367Y-46750D01*
X39367Y-46750D02*
X39324Y-46845D01*
X39324Y-46845D02*
X39303Y-46948D01*
X39303Y-46948D02*
X39300Y-47000D01*
X39300Y-47000D02*
X39311Y-47104D01*
X39311Y-47104D02*
X39343Y-47203D01*
X39343Y-47203D02*
X39395Y-47294D01*
X39395Y-47294D02*
X39465Y-47372D01*
X39465Y-47372D02*
X39550Y-47433D01*
X39550Y-47433D02*
X39645Y-47476D01*
X39645Y-47476D02*
X39748Y-47497D01*
X39748Y-47497D02*
X39800Y-47500D01*
X45800Y-47500D02*
X45904Y-47489D01*
X45904Y-47489D02*
X46003Y-47457D01*
X46003Y-47457D02*
X46094Y-47405D01*
X46094Y-47405D02*
X46172Y-47335D01*
X46172Y-47335D02*
X46233Y-47250D01*
X46233Y-47250D02*
X46276Y-47155D01*
X46276Y-47155D02*
X46297Y-47052D01*
X46297Y-47052D02*
X46300Y-47000D01*
X46300Y-47000D02*
X46289Y-46896D01*
X46289Y-46896D02*
X46257Y-46797D01*
X46257Y-46797D02*
X46205Y-46706D01*
X46205Y-46706D02*
X46135Y-46628D01*
X46135Y-46628D02*
X46050Y-46567D01*
X46050Y-46567D02*
X45955Y-46524D01*
X45955Y-46524D02*
X45852Y-46503D01*
X45852Y-46503D02*
X45800Y-46500D01*
X48000Y-46500D02*
X47896Y-46511D01*
X47896Y-46511D02*
X47797Y-46543D01*
X47797Y-46543D02*
X47706Y-46595D01*
X47706Y-46595D02*
X47628Y-46665D01*
X47628Y-46665D02*
X47567Y-46750D01*
X47567Y-46750D02*
X47524Y-46845D01*
X47524Y-46845D02*
X47503Y-46948D01*
X47503Y-46948D02*
X47500Y-47000D01*
X47500Y-47000D02*
X47511Y-47104D01*
X47511Y-47104D02*
X47543Y-47203D01*
X47543Y-47203D02*
X47595Y-47294D01*
X47595Y-47294D02*
X47665Y-47372D01*
X47665Y-47372D02*
X47750Y-47433D01*
X47750Y-47433D02*
X47845Y-47476D01*
X47845Y-47476D02*
X47948Y-47497D01*
X47948Y-47497D02*
X48000Y-47500D01*
X54000Y-47500D02*
X54104Y-47489D01*
X54104Y-47489D02*
X54203Y-47457D01*
X54203Y-47457D02*
X54294Y-47405D01*
X54294Y-47405D02*
X54372Y-47335D01*
X54372Y-47335D02*
X54433Y-47250D01*
X54433Y-47250D02*
X54476Y-47155D01*
X54476Y-47155D02*
X54497Y-47052D01*
X54497Y-47052D02*
X54500Y-47000D01*
X54500Y-47000D02*
X54489Y-46896D01*
X54489Y-46896D02*
X54457Y-46797D01*
X54457Y-46797D02*
X54405Y-46706D01*
X54405Y-46706D02*
X54335Y-46628D01*
X54335Y-46628D02*
X54250Y-46567D01*
X54250Y-46567D02*
X54155Y-46524D01*
X54155Y-46524D02*
X54052Y-46503D01*
X54052Y-46503D02*
X54000Y-46500D01*
X55900Y-47000D02*
X55911Y-47104D01*
X55911Y-47104D02*
X55943Y-47203D01*
X55943Y-47203D02*
X55995Y-47294D01*
X55995Y-47294D02*
X56065Y-47372D01*
X56065Y-47372D02*
X56150Y-47433D01*
X56150Y-47433D02*
X56245Y-47476D01*
X56245Y-47476D02*
X56348Y-47497D01*
X56348Y-47497D02*
X56400Y-47500D01*
X56400Y-46500D02*
X56296Y-46511D01*
X56296Y-46511D02*
X56197Y-46543D01*
X56197Y-46543D02*
X56106Y-46595D01*
X56106Y-46595D02*
X56028Y-46665D01*
X56028Y-46665D02*
X55967Y-46750D01*
X55967Y-46750D02*
X55924Y-46845D01*
X55924Y-46845D02*
X55903Y-46948D01*
X55903Y-46948D02*
X55900Y-47000D01*
X62300Y-47500D02*
X62404Y-47489D01*
X62404Y-47489D02*
X62503Y-47457D01*
X62503Y-47457D02*
X62594Y-47405D01*
X62594Y-47405D02*
X62672Y-47335D01*
X62672Y-47335D02*
X62733Y-47250D01*
X62733Y-47250D02*
X62776Y-47155D01*
X62776Y-47155D02*
X62797Y-47052D01*
X62797Y-47052D02*
X62800Y-47000D01*
X62800Y-47000D02*
X62789Y-46896D01*
X62789Y-46896D02*
X62757Y-46797D01*
X62757Y-46797D02*
X62705Y-46706D01*
X62705Y-46706D02*
X62635Y-46628D01*
X62635Y-46628D02*
X62550Y-46567D01*
X62550Y-46567D02*
X62455Y-46524D01*
X62455Y-46524D02*
X62352Y-46503D01*
X62352Y-46503D02*
X62300Y-46500D01*
X31600Y-47500D02*
X37600Y-47500D01*
X37600Y-46500D02*
X31600Y-46500D01*
X39800Y-47500D02*
X45800Y-47500D01*
X45800Y-46500D02*
X39800Y-46500D01*
X54000Y-46500D02*
X48000Y-46500D01*
X56400Y-46500D02*
X62300Y-46500D01*
X62300Y-47500D02*
X56400Y-47500D01*
G54D31*
X24567Y-47695D02*
X24117Y-47695D01*
X24342Y-47962D02*
X24342Y-47428D01*
X23781Y-47873D02*
X23781Y-47962D01*
X23781Y-47962D02*
X23706Y-48050D01*
X23706Y-48050D02*
X23331Y-48050D01*
X23331Y-48050D02*
X23256Y-47962D01*
X23256Y-47962D02*
X23256Y-47695D01*
X23256Y-47695D02*
X23406Y-47517D01*
X23406Y-47517D02*
X23781Y-47517D01*
X23781Y-47517D02*
X23781Y-47250D01*
X23781Y-47250D02*
X23256Y-47250D01*
X22995Y-47250D02*
X22695Y-48050D01*
X22695Y-48050D02*
X22395Y-47250D01*
X25710Y-46300D02*
X25410Y-47100D01*
X25410Y-47100D02*
X25110Y-46300D01*
X24924Y-47100D02*
X24924Y-46300D01*
X24924Y-46300D02*
X24474Y-46300D01*
X24474Y-46300D02*
X24399Y-46389D01*
X24399Y-46389D02*
X24399Y-46567D01*
X24399Y-46567D02*
X24474Y-46656D01*
X24474Y-46656D02*
X24924Y-46656D01*
X24474Y-46656D02*
X24399Y-46834D01*
X24399Y-46834D02*
X24399Y-47012D01*
X24399Y-47012D02*
X24474Y-47100D01*
X24474Y-47100D02*
X24924Y-47100D01*
X24138Y-47100D02*
X24138Y-46478D01*
X24138Y-46478D02*
X23988Y-46300D01*
X23988Y-46300D02*
X23763Y-46300D01*
X23763Y-46300D02*
X23613Y-46478D01*
X23613Y-46478D02*
X23613Y-47100D01*
X24138Y-46656D02*
X23613Y-46656D01*
X23352Y-46300D02*
X22752Y-46300D01*
X23052Y-46300D02*
X23052Y-47100D01*
X25917Y-45439D02*
X25917Y-45350D01*
X25917Y-45350D02*
X26292Y-45350D01*
X26292Y-45350D02*
X26367Y-45439D01*
X26367Y-45439D02*
X26367Y-46062D01*
X26367Y-46062D02*
X26292Y-46150D01*
X26292Y-46150D02*
X25917Y-46150D01*
X25917Y-46150D02*
X25842Y-46062D01*
X25842Y-46062D02*
X25842Y-45795D01*
X25842Y-45795D02*
X26067Y-45795D01*
X25581Y-46150D02*
X25581Y-45350D01*
X25581Y-45350D02*
X25056Y-46150D01*
X25056Y-46150D02*
X25056Y-45350D01*
X24720Y-46150D02*
X24720Y-45350D01*
X24795Y-45350D02*
X24345Y-45350D01*
X24345Y-45350D02*
X24270Y-45439D01*
X24270Y-45439D02*
X24270Y-46062D01*
X24270Y-46062D02*
X24345Y-46150D01*
X24345Y-46150D02*
X24795Y-46150D01*
X26317Y-45100D02*
X26317Y-44300D01*
X26317Y-44300D02*
X26017Y-44656D01*
X26017Y-44656D02*
X25717Y-44300D01*
X25717Y-44300D02*
X25717Y-45100D01*
X25531Y-45100D02*
X25531Y-44478D01*
X25531Y-44478D02*
X25381Y-44300D01*
X25381Y-44300D02*
X25156Y-44300D01*
X25156Y-44300D02*
X25006Y-44478D01*
X25006Y-44478D02*
X25006Y-45100D01*
X25531Y-44656D02*
X25006Y-44656D01*
X24745Y-45100D02*
X24745Y-44300D01*
X24745Y-44300D02*
X24295Y-44300D01*
X24295Y-44300D02*
X24220Y-44389D01*
X24220Y-44389D02*
X24220Y-44656D01*
X24220Y-44656D02*
X24295Y-44745D01*
X24295Y-44745D02*
X24745Y-44745D01*
X26110Y-44200D02*
X26110Y-43400D01*
X26110Y-43400D02*
X25810Y-43756D01*
X25810Y-43756D02*
X25510Y-43400D01*
X25510Y-43400D02*
X25510Y-44200D01*
X25324Y-44200D02*
X25324Y-43578D01*
X25324Y-43578D02*
X25174Y-43400D01*
X25174Y-43400D02*
X24949Y-43400D01*
X24949Y-43400D02*
X24799Y-43578D01*
X24799Y-43578D02*
X24799Y-44200D01*
X25324Y-43756D02*
X24799Y-43756D01*
X24538Y-44200D02*
X24538Y-43400D01*
X24538Y-43400D02*
X24088Y-43400D01*
X24088Y-43400D02*
X24013Y-43489D01*
X24013Y-43489D02*
X24013Y-43756D01*
X24013Y-43756D02*
X24088Y-43845D01*
X24088Y-43845D02*
X24538Y-43845D01*
X23752Y-44200D02*
X23752Y-43400D01*
X23752Y-43400D02*
X23302Y-43400D01*
X23302Y-43400D02*
X23227Y-43489D01*
X23227Y-43489D02*
X23227Y-43667D01*
X23227Y-43667D02*
X23302Y-43756D01*
X23302Y-43756D02*
X23752Y-43756D01*
X23302Y-43756D02*
X23227Y-43934D01*
X23227Y-43934D02*
X23227Y-44112D01*
X23227Y-44112D02*
X23302Y-44200D01*
X23302Y-44200D02*
X23752Y-44200D01*
G54D10*
X21000Y-43250D02*
X21000Y-55000D01*
G54D32*
X27400Y-47850D02*
X28100Y-47850D01*
X28100Y-47850D02*
X28100Y-46650D01*
X28100Y-46650D02*
X27400Y-46650D01*
X27400Y-46650D02*
X27400Y-47850D01*
X23500Y-52650D02*
X23475Y-52693D01*
X23475Y-52693D02*
X23425Y-52693D01*
X23425Y-52693D02*
X23400Y-52650D01*
X23400Y-52650D02*
X23425Y-52607D01*
X23425Y-52607D02*
X23475Y-52607D01*
X23475Y-52607D02*
X23500Y-52650D01*
X23450Y-52200D02*
X23450Y-52600D01*
X23450Y-52600D02*
X24050Y-52600D01*
X24050Y-52600D02*
X24050Y-52200D01*
X24050Y-51800D02*
X24050Y-51400D01*
X24050Y-51400D02*
X23450Y-51400D01*
X23450Y-51400D02*
X23450Y-51800D01*
X25900Y-50450D02*
X25875Y-50493D01*
X25875Y-50493D02*
X25825Y-50493D01*
X25825Y-50493D02*
X25800Y-50450D01*
X25800Y-50450D02*
X25825Y-50407D01*
X25825Y-50407D02*
X25875Y-50407D01*
X25875Y-50407D02*
X25900Y-50450D01*
X26300Y-50450D02*
X25900Y-50450D01*
X25900Y-50450D02*
X25900Y-51050D01*
X25900Y-51050D02*
X26300Y-51050D01*
X26700Y-51050D02*
X27100Y-51050D01*
X27100Y-51050D02*
X27100Y-50450D01*
X27100Y-50450D02*
X26700Y-50450D01*
X27850Y-43850D02*
X27825Y-43893D01*
X27825Y-43893D02*
X27775Y-43893D01*
X27775Y-43893D02*
X27750Y-43850D01*
X27750Y-43850D02*
X27775Y-43807D01*
X27775Y-43807D02*
X27825Y-43807D01*
X27825Y-43807D02*
X27850Y-43850D01*
X27800Y-44300D02*
X27800Y-43900D01*
X27800Y-43900D02*
X27200Y-43900D01*
X27200Y-43900D02*
X27200Y-44300D01*
X27200Y-44700D02*
X27200Y-45100D01*
X27200Y-45100D02*
X27800Y-45100D01*
X27800Y-45100D02*
X27800Y-44700D01*
G54D33*
X23550Y-52500D02*
X23543Y-52562D01*
X23543Y-52562D02*
X23524Y-52622D01*
X23524Y-52622D02*
X23492Y-52676D01*
X23492Y-52676D02*
X23450Y-52722D01*
X23450Y-52722D02*
X23400Y-52759D01*
X23400Y-52759D02*
X23342Y-52785D01*
X23342Y-52785D02*
X23281Y-52798D01*
X23281Y-52798D02*
X23219Y-52798D01*
X23219Y-52798D02*
X23158Y-52785D01*
X23158Y-52785D02*
X23100Y-52759D01*
X23100Y-52759D02*
X23050Y-52722D01*
X23050Y-52722D02*
X23008Y-52676D01*
X23008Y-52676D02*
X22976Y-52622D01*
X22976Y-52622D02*
X22957Y-52562D01*
X22957Y-52562D02*
X22950Y-52500D01*
X22950Y-52500D02*
X22957Y-52438D01*
X22957Y-52438D02*
X22976Y-52378D01*
X22976Y-52378D02*
X23008Y-52324D01*
X23008Y-52324D02*
X23050Y-52278D01*
X23050Y-52278D02*
X23100Y-52241D01*
X23100Y-52241D02*
X23158Y-52215D01*
X23158Y-52215D02*
X23219Y-52202D01*
X23219Y-52202D02*
X23281Y-52202D01*
X23281Y-52202D02*
X23342Y-52215D01*
X23342Y-52215D02*
X23400Y-52241D01*
X23400Y-52241D02*
X23450Y-52278D01*
X23450Y-52278D02*
X23492Y-52324D01*
X23492Y-52324D02*
X23524Y-52378D01*
X23524Y-52378D02*
X23543Y-52438D01*
X23543Y-52438D02*
X23550Y-52500D01*
X23550Y-51500D02*
X23543Y-51562D01*
X23543Y-51562D02*
X23524Y-51622D01*
X23524Y-51622D02*
X23492Y-51676D01*
X23492Y-51676D02*
X23450Y-51722D01*
X23450Y-51722D02*
X23400Y-51759D01*
X23400Y-51759D02*
X23342Y-51785D01*
X23342Y-51785D02*
X23281Y-51798D01*
X23281Y-51798D02*
X23219Y-51798D01*
X23219Y-51798D02*
X23158Y-51785D01*
X23158Y-51785D02*
X23100Y-51759D01*
X23100Y-51759D02*
X23050Y-51722D01*
X23050Y-51722D02*
X23008Y-51676D01*
X23008Y-51676D02*
X22976Y-51622D01*
X22976Y-51622D02*
X22957Y-51562D01*
X22957Y-51562D02*
X22950Y-51500D01*
X22950Y-51500D02*
X22957Y-51438D01*
X22957Y-51438D02*
X22976Y-51378D01*
X22976Y-51378D02*
X23008Y-51324D01*
X23008Y-51324D02*
X23050Y-51278D01*
X23050Y-51278D02*
X23100Y-51241D01*
X23100Y-51241D02*
X23158Y-51215D01*
X23158Y-51215D02*
X23219Y-51202D01*
X23219Y-51202D02*
X23281Y-51202D01*
X23281Y-51202D02*
X23342Y-51215D01*
X23342Y-51215D02*
X23400Y-51241D01*
X23400Y-51241D02*
X23450Y-51278D01*
X23450Y-51278D02*
X23492Y-51324D01*
X23492Y-51324D02*
X23524Y-51378D01*
X23524Y-51378D02*
X23543Y-51438D01*
X23543Y-51438D02*
X23550Y-51500D01*
X26300Y-50250D02*
X26293Y-50312D01*
X26293Y-50312D02*
X26274Y-50372D01*
X26274Y-50372D02*
X26242Y-50426D01*
X26242Y-50426D02*
X26200Y-50472D01*
X26200Y-50472D02*
X26150Y-50509D01*
X26150Y-50509D02*
X26092Y-50535D01*
X26092Y-50535D02*
X26031Y-50548D01*
X26031Y-50548D02*
X25969Y-50548D01*
X25969Y-50548D02*
X25908Y-50535D01*
X25908Y-50535D02*
X25850Y-50509D01*
X25850Y-50509D02*
X25800Y-50472D01*
X25800Y-50472D02*
X25758Y-50426D01*
X25758Y-50426D02*
X25726Y-50372D01*
X25726Y-50372D02*
X25707Y-50312D01*
X25707Y-50312D02*
X25700Y-50250D01*
X25700Y-50250D02*
X25707Y-50188D01*
X25707Y-50188D02*
X25726Y-50128D01*
X25726Y-50128D02*
X25758Y-50074D01*
X25758Y-50074D02*
X25800Y-50028D01*
X25800Y-50028D02*
X25850Y-49991D01*
X25850Y-49991D02*
X25908Y-49965D01*
X25908Y-49965D02*
X25969Y-49952D01*
X25969Y-49952D02*
X26031Y-49952D01*
X26031Y-49952D02*
X26092Y-49965D01*
X26092Y-49965D02*
X26150Y-49991D01*
X26150Y-49991D02*
X26200Y-50028D01*
X26200Y-50028D02*
X26242Y-50074D01*
X26242Y-50074D02*
X26274Y-50128D01*
X26274Y-50128D02*
X26293Y-50188D01*
X26293Y-50188D02*
X26300Y-50250D01*
X27300Y-50250D02*
X27293Y-50312D01*
X27293Y-50312D02*
X27274Y-50372D01*
X27274Y-50372D02*
X27242Y-50426D01*
X27242Y-50426D02*
X27200Y-50472D01*
X27200Y-50472D02*
X27150Y-50509D01*
X27150Y-50509D02*
X27092Y-50535D01*
X27092Y-50535D02*
X27031Y-50548D01*
X27031Y-50548D02*
X26969Y-50548D01*
X26969Y-50548D02*
X26908Y-50535D01*
X26908Y-50535D02*
X26850Y-50509D01*
X26850Y-50509D02*
X26800Y-50472D01*
X26800Y-50472D02*
X26758Y-50426D01*
X26758Y-50426D02*
X26726Y-50372D01*
X26726Y-50372D02*
X26707Y-50312D01*
X26707Y-50312D02*
X26700Y-50250D01*
X26700Y-50250D02*
X26707Y-50188D01*
X26707Y-50188D02*
X26726Y-50128D01*
X26726Y-50128D02*
X26758Y-50074D01*
X26758Y-50074D02*
X26800Y-50028D01*
X26800Y-50028D02*
X26850Y-49991D01*
X26850Y-49991D02*
X26908Y-49965D01*
X26908Y-49965D02*
X26969Y-49952D01*
X26969Y-49952D02*
X27031Y-49952D01*
X27031Y-49952D02*
X27092Y-49965D01*
X27092Y-49965D02*
X27150Y-49991D01*
X27150Y-49991D02*
X27200Y-50028D01*
X27200Y-50028D02*
X27242Y-50074D01*
X27242Y-50074D02*
X27274Y-50128D01*
X27274Y-50128D02*
X27293Y-50188D01*
X27293Y-50188D02*
X27300Y-50250D01*
X28300Y-44000D02*
X28293Y-44062D01*
X28293Y-44062D02*
X28274Y-44122D01*
X28274Y-44122D02*
X28242Y-44176D01*
X28242Y-44176D02*
X28200Y-44222D01*
X28200Y-44222D02*
X28150Y-44259D01*
X28150Y-44259D02*
X28092Y-44285D01*
X28092Y-44285D02*
X28031Y-44298D01*
X28031Y-44298D02*
X27969Y-44298D01*
X27969Y-44298D02*
X27908Y-44285D01*
X27908Y-44285D02*
X27850Y-44259D01*
X27850Y-44259D02*
X27800Y-44222D01*
X27800Y-44222D02*
X27758Y-44176D01*
X27758Y-44176D02*
X27726Y-44122D01*
X27726Y-44122D02*
X27707Y-44062D01*
X27707Y-44062D02*
X27700Y-44000D01*
X27700Y-44000D02*
X27707Y-43938D01*
X27707Y-43938D02*
X27726Y-43878D01*
X27726Y-43878D02*
X27758Y-43824D01*
X27758Y-43824D02*
X27800Y-43778D01*
X27800Y-43778D02*
X27850Y-43741D01*
X27850Y-43741D02*
X27908Y-43715D01*
X27908Y-43715D02*
X27969Y-43702D01*
X27969Y-43702D02*
X28031Y-43702D01*
X28031Y-43702D02*
X28092Y-43715D01*
X28092Y-43715D02*
X28150Y-43741D01*
X28150Y-43741D02*
X28200Y-43778D01*
X28200Y-43778D02*
X28242Y-43824D01*
X28242Y-43824D02*
X28274Y-43878D01*
X28274Y-43878D02*
X28293Y-43938D01*
X28293Y-43938D02*
X28300Y-44000D01*
X28300Y-45000D02*
X28293Y-45062D01*
X28293Y-45062D02*
X28274Y-45122D01*
X28274Y-45122D02*
X28242Y-45176D01*
X28242Y-45176D02*
X28200Y-45222D01*
X28200Y-45222D02*
X28150Y-45259D01*
X28150Y-45259D02*
X28092Y-45285D01*
X28092Y-45285D02*
X28031Y-45298D01*
X28031Y-45298D02*
X27969Y-45298D01*
X27969Y-45298D02*
X27908Y-45285D01*
X27908Y-45285D02*
X27850Y-45259D01*
X27850Y-45259D02*
X27800Y-45222D01*
X27800Y-45222D02*
X27758Y-45176D01*
X27758Y-45176D02*
X27726Y-45122D01*
X27726Y-45122D02*
X27707Y-45062D01*
X27707Y-45062D02*
X27700Y-45000D01*
X27700Y-45000D02*
X27707Y-44938D01*
X27707Y-44938D02*
X27726Y-44878D01*
X27726Y-44878D02*
X27758Y-44824D01*
X27758Y-44824D02*
X27800Y-44778D01*
X27800Y-44778D02*
X27850Y-44741D01*
X27850Y-44741D02*
X27908Y-44715D01*
X27908Y-44715D02*
X27969Y-44702D01*
X27969Y-44702D02*
X28031Y-44702D01*
X28031Y-44702D02*
X28092Y-44715D01*
X28092Y-44715D02*
X28150Y-44741D01*
X28150Y-44741D02*
X28200Y-44778D01*
X28200Y-44778D02*
X28242Y-44824D01*
X28242Y-44824D02*
X28274Y-44878D01*
X28274Y-44878D02*
X28293Y-44938D01*
X28293Y-44938D02*
X28300Y-45000D01*
G54D32*
X27750Y-47673D02*
X27483Y-47673D01*
X27483Y-47673D02*
X27450Y-47642D01*
X27450Y-47642D02*
X27450Y-47486D01*
X27450Y-47486D02*
X27483Y-47454D01*
X27483Y-47454D02*
X27750Y-47454D01*
X27450Y-47284D02*
X27450Y-47159D01*
X27450Y-47221D02*
X27750Y-47221D01*
X27716Y-47221D02*
X27650Y-47284D01*
X27716Y-46800D02*
X27750Y-46832D01*
X27750Y-46832D02*
X27750Y-46988D01*
X27750Y-46988D02*
X27716Y-47019D01*
X27716Y-47019D02*
X27483Y-47019D01*
X27483Y-47019D02*
X27450Y-46988D01*
X27450Y-46988D02*
X27450Y-46832D01*
X27450Y-46832D02*
X27483Y-46800D01*
X27483Y-46800D02*
X27583Y-46800D01*
X27583Y-46800D02*
X27616Y-46832D01*
X27616Y-46832D02*
X27616Y-46988D01*
X27616Y-46988D02*
X27583Y-47019D01*
X23546Y-52902D02*
X23514Y-52875D01*
X23514Y-52875D02*
X23358Y-52875D01*
X23358Y-52875D02*
X23327Y-52902D01*
X23327Y-52902D02*
X23327Y-53097D01*
X23327Y-53097D02*
X23358Y-53125D01*
X23358Y-53125D02*
X23514Y-53125D01*
X23514Y-53125D02*
X23546Y-53097D01*
X23654Y-53125D02*
X23873Y-53125D01*
X23873Y-53125D02*
X23873Y-53097D01*
X23873Y-53097D02*
X23748Y-53013D01*
X23748Y-53013D02*
X23841Y-53013D01*
X23841Y-53013D02*
X23873Y-52986D01*
X23873Y-52986D02*
X23873Y-52902D01*
X23873Y-52902D02*
X23841Y-52875D01*
X23841Y-52875D02*
X23685Y-52875D01*
X23685Y-52875D02*
X23654Y-52902D01*
X23981Y-52875D02*
X24200Y-53125D01*
X23981Y-52902D02*
X23981Y-53097D01*
X23981Y-53097D02*
X24012Y-53125D01*
X24012Y-53125D02*
X24168Y-53125D01*
X24168Y-53125D02*
X24200Y-53097D01*
X24200Y-53097D02*
X24200Y-52902D01*
X24200Y-52902D02*
X24168Y-52875D01*
X24168Y-52875D02*
X24012Y-52875D01*
X24012Y-52875D02*
X23981Y-52902D01*
X23882Y-51875D02*
X23663Y-51875D01*
X23663Y-51875D02*
X23663Y-51958D01*
X23663Y-51958D02*
X23694Y-51986D01*
X23694Y-51986D02*
X23850Y-51986D01*
X23850Y-51986D02*
X23882Y-52013D01*
X23882Y-52013D02*
X23882Y-52097D01*
X23882Y-52097D02*
X23850Y-52125D01*
X23850Y-52125D02*
X23694Y-52125D01*
X23694Y-52125D02*
X23663Y-52097D01*
X24209Y-51875D02*
X23990Y-51875D01*
X23990Y-51875D02*
X23990Y-51958D01*
X23990Y-51958D02*
X24021Y-51986D01*
X24021Y-51986D02*
X24177Y-51986D01*
X24177Y-51986D02*
X24209Y-52013D01*
X24209Y-52013D02*
X24209Y-52097D01*
X24209Y-52097D02*
X24177Y-52125D01*
X24177Y-52125D02*
X24021Y-52125D01*
X24021Y-52125D02*
X23990Y-52097D01*
X24317Y-52041D02*
X24317Y-51930D01*
X24317Y-51930D02*
X24379Y-51875D01*
X24379Y-51875D02*
X24473Y-51875D01*
X24473Y-51875D02*
X24536Y-51930D01*
X24536Y-51930D02*
X24536Y-52041D01*
X24675Y-51875D02*
X24675Y-52097D01*
X24675Y-52097D02*
X24706Y-52125D01*
X24706Y-52125D02*
X24831Y-52125D01*
X24831Y-52125D02*
X24863Y-52097D01*
X24644Y-52013D02*
X24738Y-52013D01*
X25402Y-50954D02*
X25375Y-50986D01*
X25375Y-50986D02*
X25375Y-51142D01*
X25375Y-51142D02*
X25402Y-51173D01*
X25402Y-51173D02*
X25597Y-51173D01*
X25597Y-51173D02*
X25625Y-51142D01*
X25625Y-51142D02*
X25625Y-50986D01*
X25625Y-50986D02*
X25597Y-50954D01*
X25625Y-50846D02*
X25625Y-50627D01*
X25625Y-50627D02*
X25597Y-50627D01*
X25597Y-50627D02*
X25513Y-50752D01*
X25513Y-50752D02*
X25513Y-50659D01*
X25513Y-50659D02*
X25486Y-50627D01*
X25486Y-50627D02*
X25402Y-50627D01*
X25402Y-50627D02*
X25375Y-50659D01*
X25375Y-50659D02*
X25375Y-50815D01*
X25375Y-50815D02*
X25402Y-50846D01*
X25375Y-50300D02*
X25375Y-50519D01*
X25375Y-50519D02*
X25458Y-50519D01*
X25458Y-50519D02*
X25486Y-50488D01*
X25486Y-50488D02*
X25486Y-50332D01*
X25486Y-50332D02*
X25513Y-50300D01*
X25513Y-50300D02*
X25597Y-50300D01*
X25597Y-50300D02*
X25625Y-50332D01*
X25625Y-50332D02*
X25625Y-50488D01*
X25625Y-50488D02*
X25597Y-50519D01*
X26486Y-51642D02*
X26486Y-51486D01*
X26541Y-51346D02*
X26430Y-51346D01*
X26430Y-51346D02*
X26375Y-51284D01*
X26375Y-51284D02*
X26375Y-51190D01*
X26375Y-51190D02*
X26430Y-51127D01*
X26430Y-51127D02*
X26541Y-51127D01*
X26375Y-50988D02*
X26597Y-50988D01*
X26597Y-50988D02*
X26625Y-50957D01*
X26625Y-50957D02*
X26625Y-50832D01*
X26625Y-50832D02*
X26597Y-50800D01*
X26513Y-51019D02*
X26513Y-50925D01*
X27296Y-43402D02*
X27264Y-43375D01*
X27264Y-43375D02*
X27108Y-43375D01*
X27108Y-43375D02*
X27077Y-43402D01*
X27077Y-43402D02*
X27077Y-43597D01*
X27077Y-43597D02*
X27108Y-43625D01*
X27108Y-43625D02*
X27264Y-43625D01*
X27264Y-43625D02*
X27296Y-43597D01*
X27623Y-43375D02*
X27404Y-43375D01*
X27404Y-43375D02*
X27404Y-43458D01*
X27404Y-43458D02*
X27435Y-43486D01*
X27435Y-43486D02*
X27591Y-43486D01*
X27591Y-43486D02*
X27623Y-43513D01*
X27623Y-43513D02*
X27623Y-43597D01*
X27623Y-43597D02*
X27591Y-43625D01*
X27591Y-43625D02*
X27435Y-43625D01*
X27435Y-43625D02*
X27404Y-43597D01*
X27762Y-43375D02*
X27918Y-43375D01*
X27918Y-43375D02*
X27950Y-43402D01*
X27950Y-43402D02*
X27950Y-43597D01*
X27950Y-43597D02*
X27918Y-43625D01*
X27918Y-43625D02*
X27762Y-43625D01*
X27762Y-43625D02*
X27731Y-43597D01*
X27731Y-43597D02*
X27731Y-43513D01*
X27731Y-43513D02*
X27762Y-43486D01*
X27762Y-43486D02*
X27918Y-43486D01*
X27918Y-43486D02*
X27950Y-43513D01*
X26608Y-44486D02*
X26764Y-44486D01*
X26904Y-44541D02*
X26904Y-44430D01*
X26904Y-44430D02*
X26966Y-44375D01*
X26966Y-44375D02*
X27060Y-44375D01*
X27060Y-44375D02*
X27123Y-44430D01*
X27123Y-44430D02*
X27123Y-44541D01*
X27262Y-44375D02*
X27262Y-44597D01*
X27262Y-44597D02*
X27293Y-44625D01*
X27293Y-44625D02*
X27418Y-44625D01*
X27418Y-44625D02*
X27450Y-44597D01*
X27231Y-44513D02*
X27325Y-44513D01*
M02*
