G04 (created by PCBNEW-RS274X (20100406 SVN-R2508)-final) date 6/3/2010 9:59:45 PM*
G01*
G70*
G90*
%MOIN*%
G04 Gerber Fmt 3.4, Leading zero omitted, Abs format*
%FSLAX34Y34*%
G04 APERTURE LIST*
%ADD10C,0.006000*%
%ADD11C,0.012000*%
%ADD12C,0.015000*%
%ADD13R,0.030000X0.020000*%
%ADD14R,0.055000X0.035000*%
%ADD15R,0.035000X0.055000*%
G04 APERTURE END LIST*
G54D10*
G54D11*
X64250Y-43250D02*
X21000Y-43250D01*
X64250Y-55250D02*
X64250Y-43250D01*
X21000Y-55250D02*
X64250Y-55250D01*
G54D12*
X21000Y-55200D02*
X21000Y-55000D01*
X54000Y-47500D02*
X48000Y-47500D01*
X31600Y-46500D02*
X31557Y-46502D01*
X31514Y-46508D01*
X31471Y-46518D01*
X31429Y-46531D01*
X31389Y-46547D01*
X31351Y-46567D01*
X31314Y-46591D01*
X31279Y-46617D01*
X31247Y-46647D01*
X31217Y-46679D01*
X31191Y-46714D01*
X31167Y-46751D01*
X31147Y-46789D01*
X31131Y-46829D01*
X31118Y-46871D01*
X31108Y-46914D01*
X31102Y-46957D01*
X31100Y-47000D01*
X31100Y-47000D02*
X31102Y-47043D01*
X31108Y-47086D01*
X31118Y-47129D01*
X31131Y-47171D01*
X31147Y-47211D01*
X31167Y-47249D01*
X31191Y-47286D01*
X31217Y-47321D01*
X31247Y-47353D01*
X31279Y-47383D01*
X31314Y-47409D01*
X31351Y-47433D01*
X31389Y-47453D01*
X31429Y-47469D01*
X31471Y-47482D01*
X31514Y-47492D01*
X31557Y-47498D01*
X31600Y-47500D01*
X37600Y-47500D02*
X37643Y-47498D01*
X37686Y-47492D01*
X37729Y-47482D01*
X37771Y-47469D01*
X37811Y-47453D01*
X37850Y-47433D01*
X37886Y-47409D01*
X37921Y-47383D01*
X37953Y-47353D01*
X37983Y-47321D01*
X38009Y-47286D01*
X38033Y-47249D01*
X38053Y-47211D01*
X38069Y-47171D01*
X38082Y-47129D01*
X38092Y-47086D01*
X38098Y-47043D01*
X38100Y-47000D01*
X38100Y-47000D02*
X38098Y-46957D01*
X38092Y-46914D01*
X38082Y-46871D01*
X38069Y-46829D01*
X38053Y-46789D01*
X38033Y-46751D01*
X38009Y-46714D01*
X37983Y-46679D01*
X37953Y-46647D01*
X37921Y-46617D01*
X37886Y-46591D01*
X37850Y-46567D01*
X37811Y-46547D01*
X37771Y-46531D01*
X37729Y-46518D01*
X37686Y-46508D01*
X37643Y-46502D01*
X37600Y-46500D01*
X39800Y-46500D02*
X39757Y-46502D01*
X39714Y-46508D01*
X39671Y-46518D01*
X39629Y-46531D01*
X39589Y-46547D01*
X39551Y-46567D01*
X39514Y-46591D01*
X39479Y-46617D01*
X39447Y-46647D01*
X39417Y-46679D01*
X39391Y-46714D01*
X39367Y-46751D01*
X39347Y-46789D01*
X39331Y-46829D01*
X39318Y-46871D01*
X39308Y-46914D01*
X39302Y-46957D01*
X39300Y-47000D01*
X39300Y-47000D02*
X39302Y-47043D01*
X39308Y-47086D01*
X39318Y-47129D01*
X39331Y-47171D01*
X39347Y-47211D01*
X39367Y-47249D01*
X39391Y-47286D01*
X39417Y-47321D01*
X39447Y-47353D01*
X39479Y-47383D01*
X39514Y-47409D01*
X39551Y-47433D01*
X39589Y-47453D01*
X39629Y-47469D01*
X39671Y-47482D01*
X39714Y-47492D01*
X39757Y-47498D01*
X39800Y-47500D01*
X45800Y-47500D02*
X45843Y-47498D01*
X45886Y-47492D01*
X45929Y-47482D01*
X45971Y-47469D01*
X46011Y-47453D01*
X46050Y-47433D01*
X46086Y-47409D01*
X46121Y-47383D01*
X46153Y-47353D01*
X46183Y-47321D01*
X46209Y-47286D01*
X46233Y-47249D01*
X46253Y-47211D01*
X46269Y-47171D01*
X46282Y-47129D01*
X46292Y-47086D01*
X46298Y-47043D01*
X46300Y-47000D01*
X46300Y-47000D02*
X46298Y-46957D01*
X46292Y-46914D01*
X46282Y-46871D01*
X46269Y-46829D01*
X46253Y-46789D01*
X46233Y-46751D01*
X46209Y-46714D01*
X46183Y-46679D01*
X46153Y-46647D01*
X46121Y-46617D01*
X46086Y-46591D01*
X46050Y-46567D01*
X46011Y-46547D01*
X45971Y-46531D01*
X45929Y-46518D01*
X45886Y-46508D01*
X45843Y-46502D01*
X45800Y-46500D01*
X48000Y-46500D02*
X47957Y-46502D01*
X47914Y-46508D01*
X47871Y-46518D01*
X47829Y-46531D01*
X47789Y-46547D01*
X47751Y-46567D01*
X47714Y-46591D01*
X47679Y-46617D01*
X47647Y-46647D01*
X47617Y-46679D01*
X47591Y-46714D01*
X47567Y-46751D01*
X47547Y-46789D01*
X47531Y-46829D01*
X47518Y-46871D01*
X47508Y-46914D01*
X47502Y-46957D01*
X47500Y-47000D01*
X47500Y-47000D02*
X47502Y-47043D01*
X47508Y-47086D01*
X47518Y-47129D01*
X47531Y-47171D01*
X47547Y-47211D01*
X47567Y-47249D01*
X47591Y-47286D01*
X47617Y-47321D01*
X47647Y-47353D01*
X47679Y-47383D01*
X47714Y-47409D01*
X47751Y-47433D01*
X47789Y-47453D01*
X47829Y-47469D01*
X47871Y-47482D01*
X47914Y-47492D01*
X47957Y-47498D01*
X48000Y-47500D01*
X54000Y-47500D02*
X54043Y-47498D01*
X54086Y-47492D01*
X54129Y-47482D01*
X54171Y-47469D01*
X54211Y-47453D01*
X54250Y-47433D01*
X54286Y-47409D01*
X54321Y-47383D01*
X54353Y-47353D01*
X54383Y-47321D01*
X54409Y-47286D01*
X54433Y-47249D01*
X54453Y-47211D01*
X54469Y-47171D01*
X54482Y-47129D01*
X54492Y-47086D01*
X54498Y-47043D01*
X54500Y-47000D01*
X54500Y-47000D02*
X54498Y-46957D01*
X54492Y-46914D01*
X54482Y-46871D01*
X54469Y-46829D01*
X54453Y-46789D01*
X54433Y-46751D01*
X54409Y-46714D01*
X54383Y-46679D01*
X54353Y-46647D01*
X54321Y-46617D01*
X54286Y-46591D01*
X54250Y-46567D01*
X54211Y-46547D01*
X54171Y-46531D01*
X54129Y-46518D01*
X54086Y-46508D01*
X54043Y-46502D01*
X54000Y-46500D01*
X55900Y-47000D02*
X55902Y-47043D01*
X55908Y-47086D01*
X55918Y-47129D01*
X55931Y-47171D01*
X55947Y-47211D01*
X55967Y-47249D01*
X55991Y-47286D01*
X56017Y-47321D01*
X56047Y-47353D01*
X56079Y-47383D01*
X56114Y-47409D01*
X56151Y-47433D01*
X56189Y-47453D01*
X56229Y-47469D01*
X56271Y-47482D01*
X56314Y-47492D01*
X56357Y-47498D01*
X56400Y-47500D01*
X56400Y-46500D02*
X56357Y-46502D01*
X56314Y-46508D01*
X56271Y-46518D01*
X56229Y-46531D01*
X56189Y-46547D01*
X56151Y-46567D01*
X56114Y-46591D01*
X56079Y-46617D01*
X56047Y-46647D01*
X56017Y-46679D01*
X55991Y-46714D01*
X55967Y-46751D01*
X55947Y-46789D01*
X55931Y-46829D01*
X55918Y-46871D01*
X55908Y-46914D01*
X55902Y-46957D01*
X55900Y-47000D01*
X62300Y-47500D02*
X62343Y-47498D01*
X62386Y-47492D01*
X62429Y-47482D01*
X62471Y-47469D01*
X62511Y-47453D01*
X62550Y-47433D01*
X62586Y-47409D01*
X62621Y-47383D01*
X62653Y-47353D01*
X62683Y-47321D01*
X62709Y-47286D01*
X62733Y-47249D01*
X62753Y-47211D01*
X62769Y-47171D01*
X62782Y-47129D01*
X62792Y-47086D01*
X62798Y-47043D01*
X62800Y-47000D01*
X62800Y-47000D02*
X62798Y-46957D01*
X62792Y-46914D01*
X62782Y-46871D01*
X62769Y-46829D01*
X62753Y-46789D01*
X62733Y-46751D01*
X62709Y-46714D01*
X62683Y-46679D01*
X62653Y-46647D01*
X62621Y-46617D01*
X62586Y-46591D01*
X62550Y-46567D01*
X62511Y-46547D01*
X62471Y-46531D01*
X62429Y-46518D01*
X62386Y-46508D01*
X62343Y-46502D01*
X62300Y-46500D01*
X31600Y-47500D02*
X37600Y-47500D01*
X37600Y-46500D02*
X31600Y-46500D01*
X39800Y-47500D02*
X45800Y-47500D01*
X45800Y-46500D02*
X39800Y-46500D01*
X54000Y-46500D02*
X48000Y-46500D01*
X56400Y-46500D02*
X62300Y-46500D01*
X62300Y-47500D02*
X56400Y-47500D01*
X21000Y-43250D02*
X21000Y-55000D01*
G54D13*
X28250Y-46875D03*
X28250Y-47625D03*
X27250Y-46875D03*
X28250Y-47250D03*
X27250Y-47625D03*
G54D14*
X23750Y-52375D03*
X23750Y-51625D03*
G54D15*
X26125Y-50750D03*
X26875Y-50750D03*
G54D14*
X27500Y-44125D03*
X27500Y-44875D03*
M02*
