G04 (created by PCBNEW-RS274X (20100406 SVN-R2508)-final) date 6/3/2010 10:02:15 PM*
G01*
G70*
G90*
%MOIN*%
G04 Gerber Fmt 3.4, Leading zero omitted, Abs format*
%FSLAX34Y34*%
G04 APERTURE LIST*
%ADD10C,0.006000*%
%ADD11C,0.012000*%
%ADD12C,0.015000*%
%ADD13C,0.090000*%
%ADD14R,0.090000X0.090000*%
%ADD15C,0.080000*%
%ADD16C,0.150000*%
%ADD17R,0.095000X0.090000*%
%ADD18R,0.050000X0.040000*%
%ADD19R,0.075000X0.055000*%
%ADD20R,0.055000X0.075000*%
%ADD21R,0.075000X0.075000*%
%ADD22C,0.075000*%
G04 APERTURE END LIST*
G54D10*
G54D11*
X39500Y-43250D02*
X21000Y-43250D01*
X39500Y-55250D02*
X39500Y-43250D01*
X21000Y-55250D02*
X39500Y-55250D01*
G54D12*
X21000Y-55200D02*
X21000Y-55000D01*
X31600Y-46500D02*
X31557Y-46502D01*
X31514Y-46508D01*
X31471Y-46518D01*
X31429Y-46531D01*
X31389Y-46547D01*
X31351Y-46567D01*
X31314Y-46591D01*
X31279Y-46617D01*
X31247Y-46647D01*
X31217Y-46679D01*
X31191Y-46714D01*
X31167Y-46751D01*
X31147Y-46789D01*
X31131Y-46829D01*
X31118Y-46871D01*
X31108Y-46914D01*
X31102Y-46957D01*
X31100Y-47000D01*
X31100Y-47000D02*
X31102Y-47043D01*
X31108Y-47086D01*
X31118Y-47129D01*
X31131Y-47171D01*
X31147Y-47211D01*
X31167Y-47249D01*
X31191Y-47286D01*
X31217Y-47321D01*
X31247Y-47353D01*
X31279Y-47383D01*
X31314Y-47409D01*
X31351Y-47433D01*
X31389Y-47453D01*
X31429Y-47469D01*
X31471Y-47482D01*
X31514Y-47492D01*
X31557Y-47498D01*
X31600Y-47500D01*
X37600Y-47500D02*
X37643Y-47498D01*
X37686Y-47492D01*
X37729Y-47482D01*
X37771Y-47469D01*
X37811Y-47453D01*
X37850Y-47433D01*
X37886Y-47409D01*
X37921Y-47383D01*
X37953Y-47353D01*
X37983Y-47321D01*
X38009Y-47286D01*
X38033Y-47249D01*
X38053Y-47211D01*
X38069Y-47171D01*
X38082Y-47129D01*
X38092Y-47086D01*
X38098Y-47043D01*
X38100Y-47000D01*
X38100Y-47000D02*
X38098Y-46957D01*
X38092Y-46914D01*
X38082Y-46871D01*
X38069Y-46829D01*
X38053Y-46789D01*
X38033Y-46751D01*
X38009Y-46714D01*
X37983Y-46679D01*
X37953Y-46647D01*
X37921Y-46617D01*
X37886Y-46591D01*
X37850Y-46567D01*
X37811Y-46547D01*
X37771Y-46531D01*
X37729Y-46518D01*
X37686Y-46508D01*
X37643Y-46502D01*
X37600Y-46500D01*
X31600Y-47500D02*
X37600Y-47500D01*
X37600Y-46500D02*
X31600Y-46500D01*
X21000Y-43250D02*
X21000Y-55000D01*
G54D13*
X24750Y-53250D03*
G54D14*
X24750Y-49250D03*
G54D13*
X30000Y-53000D03*
G54D14*
X34000Y-53000D03*
G54D13*
X30000Y-54400D03*
G54D14*
X34000Y-54400D03*
G54D15*
X23750Y-54250D03*
X27750Y-54250D03*
X23750Y-45750D03*
X23750Y-49750D03*
X22750Y-43750D03*
X26750Y-43750D03*
X37300Y-52375D03*
X36452Y-52905D03*
X35604Y-53435D03*
X38148Y-51845D03*
G54D16*
X38361Y-44637D03*
X30729Y-49407D03*
G54D15*
X29050Y-52375D03*
X28202Y-52905D03*
X27354Y-53435D03*
X29898Y-51845D03*
G54D16*
X30111Y-44637D03*
X22479Y-49407D03*
G54D15*
X36770Y-51527D03*
X35922Y-52057D03*
X35074Y-52587D03*
X37618Y-50997D03*
G54D16*
X38361Y-44637D03*
X30729Y-49407D03*
G54D15*
X29250Y-51250D03*
X29250Y-50250D03*
X32550Y-51550D03*
X33550Y-51550D03*
X31700Y-51000D03*
X30700Y-51000D03*
X35300Y-51050D03*
X34300Y-51050D03*
G54D17*
X21750Y-43750D03*
G54D13*
X21750Y-44750D03*
X21750Y-45740D03*
X21750Y-46760D03*
X21750Y-47750D03*
G54D18*
X28250Y-46875D03*
X28250Y-47625D03*
X27250Y-46875D03*
X28250Y-47250D03*
X27250Y-47625D03*
G54D15*
X26250Y-51750D03*
X26250Y-52750D03*
G54D19*
X23750Y-52375D03*
X23750Y-51625D03*
G54D15*
X23250Y-52500D03*
X23250Y-51500D03*
X23750Y-44500D03*
X22750Y-44500D03*
G54D20*
X26125Y-50750D03*
X26875Y-50750D03*
G54D15*
X26000Y-50250D03*
X27000Y-50250D03*
X26000Y-50250D03*
X27000Y-50250D03*
G54D19*
X27500Y-44125D03*
X27500Y-44875D03*
G54D15*
X28000Y-44000D03*
X28000Y-45000D03*
X28000Y-44000D03*
X28000Y-45000D03*
X27500Y-51000D03*
X27500Y-52000D03*
G54D21*
X26250Y-45750D03*
G54D22*
X26250Y-46750D03*
X26250Y-47750D03*
X26250Y-48750D03*
X29250Y-48750D03*
X29250Y-47750D03*
X29250Y-46750D03*
X29250Y-45750D03*
G54D13*
X22000Y-51500D03*
X22000Y-52500D03*
G54D14*
X22000Y-53500D03*
G54D21*
X31150Y-43800D03*
G54D22*
X32150Y-43800D03*
G54D21*
X29100Y-53700D03*
G54D22*
X29100Y-54700D03*
M02*
