G04 (created by PCBNEW-RS274X (20100406 SVN-R2508)-final) date 6/3/2010 10:01:36 PM*
G01*
G70*
G90*
%MOIN*%
G04 Gerber Fmt 3.4, Leading zero omitted, Abs format*
%FSLAX34Y34*%
G04 APERTURE LIST*
%ADD10C,0.006000*%
%ADD11C,0.012000*%
%ADD12C,0.015000*%
%ADD13C,0.003300*%
%ADD14C,0.005000*%
%ADD15C,0.010000*%
%ADD16C,0.004000*%
%ADD17C,0.004200*%
%ADD18C,0.002000*%
%ADD19C,0.002500*%
G04 APERTURE END LIST*
G54D10*
G54D11*
X47750Y-43250D02*
X21000Y-43250D01*
X47750Y-55250D02*
X47750Y-43250D01*
X21000Y-55250D02*
X47750Y-55250D01*
X28200Y-46200D02*
X29500Y-46200D01*
G54D12*
X21000Y-55200D02*
X21000Y-55000D01*
X31600Y-46500D02*
X31557Y-46502D01*
X31514Y-46508D01*
X31471Y-46518D01*
X31429Y-46531D01*
X31389Y-46547D01*
X31351Y-46567D01*
X31314Y-46591D01*
X31279Y-46617D01*
X31247Y-46647D01*
X31217Y-46679D01*
X31191Y-46714D01*
X31167Y-46751D01*
X31147Y-46789D01*
X31131Y-46829D01*
X31118Y-46871D01*
X31108Y-46914D01*
X31102Y-46957D01*
X31100Y-47000D01*
X31100Y-47000D02*
X31102Y-47043D01*
X31108Y-47086D01*
X31118Y-47129D01*
X31131Y-47171D01*
X31147Y-47211D01*
X31167Y-47249D01*
X31191Y-47286D01*
X31217Y-47321D01*
X31247Y-47353D01*
X31279Y-47383D01*
X31314Y-47409D01*
X31351Y-47433D01*
X31389Y-47453D01*
X31429Y-47469D01*
X31471Y-47482D01*
X31514Y-47492D01*
X31557Y-47498D01*
X31600Y-47500D01*
X37600Y-47500D02*
X37643Y-47498D01*
X37686Y-47492D01*
X37729Y-47482D01*
X37771Y-47469D01*
X37811Y-47453D01*
X37850Y-47433D01*
X37886Y-47409D01*
X37921Y-47383D01*
X37953Y-47353D01*
X37983Y-47321D01*
X38009Y-47286D01*
X38033Y-47249D01*
X38053Y-47211D01*
X38069Y-47171D01*
X38082Y-47129D01*
X38092Y-47086D01*
X38098Y-47043D01*
X38100Y-47000D01*
X38100Y-47000D02*
X38098Y-46957D01*
X38092Y-46914D01*
X38082Y-46871D01*
X38069Y-46829D01*
X38053Y-46789D01*
X38033Y-46751D01*
X38009Y-46714D01*
X37983Y-46679D01*
X37953Y-46647D01*
X37921Y-46617D01*
X37886Y-46591D01*
X37850Y-46567D01*
X37811Y-46547D01*
X37771Y-46531D01*
X37729Y-46518D01*
X37686Y-46508D01*
X37643Y-46502D01*
X37600Y-46500D01*
X39800Y-46500D02*
X39757Y-46502D01*
X39714Y-46508D01*
X39671Y-46518D01*
X39629Y-46531D01*
X39589Y-46547D01*
X39551Y-46567D01*
X39514Y-46591D01*
X39479Y-46617D01*
X39447Y-46647D01*
X39417Y-46679D01*
X39391Y-46714D01*
X39367Y-46751D01*
X39347Y-46789D01*
X39331Y-46829D01*
X39318Y-46871D01*
X39308Y-46914D01*
X39302Y-46957D01*
X39300Y-47000D01*
X39300Y-47000D02*
X39302Y-47043D01*
X39308Y-47086D01*
X39318Y-47129D01*
X39331Y-47171D01*
X39347Y-47211D01*
X39367Y-47249D01*
X39391Y-47286D01*
X39417Y-47321D01*
X39447Y-47353D01*
X39479Y-47383D01*
X39514Y-47409D01*
X39551Y-47433D01*
X39589Y-47453D01*
X39629Y-47469D01*
X39671Y-47482D01*
X39714Y-47492D01*
X39757Y-47498D01*
X39800Y-47500D01*
X45800Y-47500D02*
X45843Y-47498D01*
X45886Y-47492D01*
X45929Y-47482D01*
X45971Y-47469D01*
X46011Y-47453D01*
X46050Y-47433D01*
X46086Y-47409D01*
X46121Y-47383D01*
X46153Y-47353D01*
X46183Y-47321D01*
X46209Y-47286D01*
X46233Y-47249D01*
X46253Y-47211D01*
X46269Y-47171D01*
X46282Y-47129D01*
X46292Y-47086D01*
X46298Y-47043D01*
X46300Y-47000D01*
X46300Y-47000D02*
X46298Y-46957D01*
X46292Y-46914D01*
X46282Y-46871D01*
X46269Y-46829D01*
X46253Y-46789D01*
X46233Y-46751D01*
X46209Y-46714D01*
X46183Y-46679D01*
X46153Y-46647D01*
X46121Y-46617D01*
X46086Y-46591D01*
X46050Y-46567D01*
X46011Y-46547D01*
X45971Y-46531D01*
X45929Y-46518D01*
X45886Y-46508D01*
X45843Y-46502D01*
X45800Y-46500D01*
X31600Y-47500D02*
X37600Y-47500D01*
X37600Y-46500D02*
X31600Y-46500D01*
X39800Y-47500D02*
X45800Y-47500D01*
X45800Y-46500D02*
X39800Y-46500D01*
X21000Y-43250D02*
X21000Y-55000D01*
G54D13*
X22447Y-45390D02*
X22428Y-45381D01*
X22400Y-45381D01*
X22371Y-45390D01*
X22352Y-45410D01*
X22343Y-45429D01*
X22333Y-45467D01*
X22333Y-45495D01*
X22343Y-45533D01*
X22352Y-45552D01*
X22371Y-45571D01*
X22400Y-45581D01*
X22419Y-45581D01*
X22447Y-45571D01*
X22457Y-45562D01*
X22457Y-45495D01*
X22419Y-45495D01*
X22543Y-45581D02*
X22543Y-45381D01*
X22657Y-45581D01*
X22657Y-45381D01*
X22753Y-45581D02*
X22753Y-45381D01*
X22800Y-45381D01*
X22829Y-45390D01*
X22848Y-45410D01*
X22857Y-45429D01*
X22867Y-45467D01*
X22867Y-45495D01*
X22857Y-45533D01*
X22848Y-45552D01*
X22829Y-45571D01*
X22800Y-45581D01*
X22753Y-45581D01*
G54D11*
X25250Y-50000D02*
X25450Y-50000D01*
X25250Y-50250D02*
X25450Y-50250D01*
X24250Y-50250D02*
X24050Y-50250D01*
X24250Y-50000D02*
X24050Y-50000D01*
X24250Y-49750D02*
X24050Y-49750D01*
X25250Y-49750D02*
X25450Y-49750D01*
X25250Y-52750D02*
X25450Y-52750D01*
X24250Y-52750D02*
X24050Y-52750D01*
X24050Y-52750D02*
X24050Y-49750D01*
X24250Y-49750D02*
X25250Y-49750D01*
X25450Y-49750D02*
X25450Y-52750D01*
X25250Y-52750D02*
X24250Y-52750D01*
X24250Y-50000D02*
X25250Y-50000D01*
X25250Y-50250D02*
X24250Y-50250D01*
X24750Y-52750D02*
X24750Y-53250D01*
X24750Y-49750D02*
X24750Y-49250D01*
X41750Y-53500D02*
X41750Y-53700D01*
X41500Y-53500D02*
X41500Y-53700D01*
X41500Y-52500D02*
X41500Y-52300D01*
X41750Y-52500D02*
X41750Y-52300D01*
X42000Y-52500D02*
X42000Y-52300D01*
X42000Y-53500D02*
X42000Y-53700D01*
X39000Y-53500D02*
X39000Y-53700D01*
X39000Y-52500D02*
X39000Y-52300D01*
X39000Y-52300D02*
X42000Y-52300D01*
X42000Y-52500D02*
X42000Y-53500D01*
X42000Y-53700D02*
X39000Y-53700D01*
X39000Y-53500D02*
X39000Y-52500D01*
X41750Y-52500D02*
X41750Y-53500D01*
X41500Y-53500D02*
X41500Y-52500D01*
X39000Y-53000D02*
X38500Y-53000D01*
X42000Y-53000D02*
X42500Y-53000D01*
X41750Y-54900D02*
X41750Y-55100D01*
X41500Y-54900D02*
X41500Y-55100D01*
X41500Y-53900D02*
X41500Y-53700D01*
X41750Y-53900D02*
X41750Y-53700D01*
X42000Y-53900D02*
X42000Y-53700D01*
X42000Y-54900D02*
X42000Y-55100D01*
X39000Y-54900D02*
X39000Y-55100D01*
X39000Y-53900D02*
X39000Y-53700D01*
X39000Y-53700D02*
X42000Y-53700D01*
X42000Y-53900D02*
X42000Y-54900D01*
X42000Y-55100D02*
X39000Y-55100D01*
X39000Y-54900D02*
X39000Y-53900D01*
X41750Y-53900D02*
X41750Y-54900D01*
X41500Y-54900D02*
X41500Y-53900D01*
X39000Y-54400D02*
X38500Y-54400D01*
X42000Y-54400D02*
X42500Y-54400D01*
X33250Y-53500D02*
X33250Y-53700D01*
X33000Y-53500D02*
X33000Y-53700D01*
X33000Y-52500D02*
X33000Y-52300D01*
X33250Y-52500D02*
X33250Y-52300D01*
X33500Y-52500D02*
X33500Y-52300D01*
X33500Y-53500D02*
X33500Y-53700D01*
X30500Y-53500D02*
X30500Y-53700D01*
X30500Y-52500D02*
X30500Y-52300D01*
X30500Y-52300D02*
X33500Y-52300D01*
X33500Y-52500D02*
X33500Y-53500D01*
X33500Y-53700D02*
X30500Y-53700D01*
X30500Y-53500D02*
X30500Y-52500D01*
X33250Y-52500D02*
X33250Y-53500D01*
X33000Y-53500D02*
X33000Y-52500D01*
X30500Y-53000D02*
X30000Y-53000D01*
X33500Y-53000D02*
X34000Y-53000D01*
X33250Y-54900D02*
X33250Y-55100D01*
X33000Y-54900D02*
X33000Y-55100D01*
X33000Y-53900D02*
X33000Y-53700D01*
X33250Y-53900D02*
X33250Y-53700D01*
X33500Y-53900D02*
X33500Y-53700D01*
X33500Y-54900D02*
X33500Y-55100D01*
X30500Y-54900D02*
X30500Y-55100D01*
X30500Y-53900D02*
X30500Y-53700D01*
X30500Y-53700D02*
X33500Y-53700D01*
X33500Y-53900D02*
X33500Y-54900D01*
X33500Y-55100D02*
X30500Y-55100D01*
X30500Y-54900D02*
X30500Y-53900D01*
X33250Y-53900D02*
X33250Y-54900D01*
X33000Y-54900D02*
X33000Y-53900D01*
X30500Y-54400D02*
X30000Y-54400D01*
X33500Y-54400D02*
X34000Y-54400D01*
X23750Y-54250D02*
X24150Y-54250D01*
X24150Y-54250D02*
X24150Y-53850D01*
X24150Y-53850D02*
X27350Y-53850D01*
X27350Y-53850D02*
X27350Y-54650D01*
X27350Y-54650D02*
X24150Y-54650D01*
X24150Y-54650D02*
X24150Y-54250D01*
X24150Y-54050D02*
X24350Y-53850D01*
X27750Y-54250D02*
X27350Y-54250D01*
X23750Y-45750D02*
X23750Y-46150D01*
X23750Y-46150D02*
X24150Y-46150D01*
X24150Y-46150D02*
X24150Y-49350D01*
X24150Y-49350D02*
X23350Y-49350D01*
X23350Y-49350D02*
X23350Y-46150D01*
X23350Y-46150D02*
X23750Y-46150D01*
X23950Y-46150D02*
X24150Y-46350D01*
X23750Y-49750D02*
X23750Y-49350D01*
X22750Y-43750D02*
X23150Y-43750D01*
X23150Y-43750D02*
X23150Y-43350D01*
X23150Y-43350D02*
X26350Y-43350D01*
X26350Y-43350D02*
X26350Y-44150D01*
X26350Y-44150D02*
X23150Y-44150D01*
X23150Y-44150D02*
X23150Y-43750D01*
X23150Y-43550D02*
X23350Y-43350D01*
X26750Y-43750D02*
X26350Y-43750D01*
G54D12*
X33326Y-43656D02*
X32664Y-42596D01*
X32664Y-42596D02*
X33512Y-42066D01*
X33512Y-42066D02*
X34439Y-43551D01*
X29987Y-48691D02*
X31763Y-44928D01*
X34651Y-50494D02*
X31047Y-50387D01*
X37619Y-48639D02*
X39103Y-45353D01*
X34439Y-43551D02*
X38043Y-43657D01*
X39360Y-44637D02*
X39340Y-44831D01*
X39284Y-45017D01*
X39193Y-45189D01*
X39069Y-45340D01*
X38919Y-45465D01*
X38748Y-45557D01*
X38561Y-45615D01*
X38367Y-45635D01*
X38174Y-45618D01*
X37987Y-45563D01*
X37814Y-45472D01*
X37663Y-45350D01*
X37537Y-45201D01*
X37443Y-45030D01*
X37384Y-44844D01*
X37363Y-44650D01*
X37379Y-44457D01*
X37433Y-44270D01*
X37522Y-44096D01*
X37643Y-43944D01*
X37791Y-43817D01*
X37962Y-43722D01*
X38147Y-43662D01*
X38341Y-43639D01*
X38534Y-43654D01*
X38722Y-43706D01*
X38896Y-43794D01*
X39049Y-43914D01*
X39177Y-44062D01*
X39273Y-44231D01*
X39335Y-44416D01*
X39359Y-44610D01*
X39360Y-44637D01*
X31729Y-49407D02*
X31709Y-49601D01*
X31653Y-49788D01*
X31561Y-49960D01*
X31438Y-50111D01*
X31288Y-50236D01*
X31116Y-50328D01*
X30930Y-50386D01*
X30735Y-50406D01*
X30542Y-50389D01*
X30355Y-50334D01*
X30182Y-50243D01*
X30030Y-50121D01*
X29904Y-49971D01*
X29810Y-49800D01*
X29751Y-49614D01*
X29730Y-49420D01*
X29746Y-49227D01*
X29800Y-49039D01*
X29889Y-48866D01*
X30010Y-48713D01*
X30159Y-48586D01*
X30329Y-48491D01*
X30515Y-48431D01*
X30709Y-48408D01*
X30902Y-48423D01*
X31090Y-48475D01*
X31264Y-48563D01*
X31418Y-48683D01*
X31546Y-48831D01*
X31642Y-49001D01*
X31704Y-49186D01*
X31728Y-49380D01*
X31729Y-49407D01*
X38045Y-47022D02*
X37978Y-47701D01*
X37780Y-48355D01*
X37460Y-48958D01*
X37028Y-49488D01*
X36502Y-49923D01*
X35901Y-50248D01*
X35248Y-50450D01*
X34569Y-50521D01*
X33890Y-50460D01*
X33234Y-50267D01*
X32629Y-49950D01*
X32097Y-49522D01*
X31658Y-48999D01*
X31329Y-48400D01*
X31122Y-47749D01*
X31046Y-47070D01*
X31103Y-46391D01*
X31291Y-45734D01*
X31604Y-45127D01*
X32028Y-44591D01*
X32548Y-44148D01*
X33144Y-43815D01*
X33794Y-43604D01*
X34472Y-43523D01*
X35152Y-43576D01*
X35810Y-43759D01*
X36420Y-44067D01*
X36958Y-44488D01*
X37405Y-45005D01*
X37742Y-45599D01*
X37958Y-46247D01*
X38043Y-46925D01*
X38045Y-47022D01*
X41576Y-43656D02*
X40914Y-42596D01*
X40914Y-42596D02*
X41762Y-42066D01*
X41762Y-42066D02*
X42689Y-43551D01*
X38237Y-48691D02*
X40013Y-44928D01*
X42901Y-50494D02*
X39297Y-50387D01*
X45869Y-48639D02*
X47353Y-45353D01*
X42689Y-43551D02*
X46293Y-43657D01*
X47610Y-44637D02*
X47590Y-44831D01*
X47534Y-45017D01*
X47443Y-45189D01*
X47319Y-45340D01*
X47169Y-45465D01*
X46998Y-45557D01*
X46811Y-45615D01*
X46617Y-45635D01*
X46424Y-45618D01*
X46237Y-45563D01*
X46064Y-45472D01*
X45913Y-45350D01*
X45787Y-45201D01*
X45693Y-45030D01*
X45634Y-44844D01*
X45613Y-44650D01*
X45629Y-44457D01*
X45683Y-44270D01*
X45772Y-44096D01*
X45893Y-43944D01*
X46041Y-43817D01*
X46212Y-43722D01*
X46397Y-43662D01*
X46591Y-43639D01*
X46784Y-43654D01*
X46972Y-43706D01*
X47146Y-43794D01*
X47299Y-43914D01*
X47427Y-44062D01*
X47523Y-44231D01*
X47585Y-44416D01*
X47609Y-44610D01*
X47610Y-44637D01*
X39979Y-49407D02*
X39959Y-49601D01*
X39903Y-49788D01*
X39811Y-49960D01*
X39688Y-50111D01*
X39538Y-50236D01*
X39366Y-50328D01*
X39180Y-50386D01*
X38985Y-50406D01*
X38792Y-50389D01*
X38605Y-50334D01*
X38432Y-50243D01*
X38280Y-50121D01*
X38154Y-49971D01*
X38060Y-49800D01*
X38001Y-49614D01*
X37980Y-49420D01*
X37996Y-49227D01*
X38050Y-49039D01*
X38139Y-48866D01*
X38260Y-48713D01*
X38409Y-48586D01*
X38579Y-48491D01*
X38765Y-48431D01*
X38959Y-48408D01*
X39152Y-48423D01*
X39340Y-48475D01*
X39514Y-48563D01*
X39668Y-48683D01*
X39796Y-48831D01*
X39892Y-49001D01*
X39954Y-49186D01*
X39978Y-49380D01*
X39979Y-49407D01*
X46295Y-47022D02*
X46228Y-47701D01*
X46030Y-48355D01*
X45710Y-48958D01*
X45278Y-49488D01*
X44752Y-49923D01*
X44151Y-50248D01*
X43498Y-50450D01*
X42819Y-50521D01*
X42140Y-50460D01*
X41484Y-50267D01*
X40879Y-49950D01*
X40347Y-49522D01*
X39908Y-48999D01*
X39579Y-48400D01*
X39372Y-47749D01*
X39296Y-47070D01*
X39353Y-46391D01*
X39541Y-45734D01*
X39854Y-45127D01*
X40278Y-44591D01*
X40798Y-44148D01*
X41394Y-43815D01*
X42044Y-43604D01*
X42722Y-43523D01*
X43402Y-43576D01*
X44060Y-43759D01*
X44670Y-44067D01*
X45208Y-44488D01*
X45655Y-45005D01*
X45992Y-45599D01*
X46208Y-46247D01*
X46293Y-46925D01*
X46295Y-47022D01*
X25076Y-43656D02*
X24414Y-42596D01*
X24414Y-42596D02*
X25262Y-42066D01*
X25262Y-42066D02*
X26189Y-43551D01*
X21737Y-48691D02*
X23513Y-44928D01*
X26401Y-50494D02*
X22797Y-50387D01*
X29369Y-48639D02*
X30853Y-45353D01*
X26189Y-43551D02*
X29793Y-43657D01*
X31110Y-44637D02*
X31090Y-44831D01*
X31034Y-45017D01*
X30943Y-45189D01*
X30819Y-45340D01*
X30669Y-45465D01*
X30498Y-45557D01*
X30311Y-45615D01*
X30117Y-45635D01*
X29924Y-45618D01*
X29737Y-45563D01*
X29564Y-45472D01*
X29413Y-45350D01*
X29287Y-45201D01*
X29193Y-45030D01*
X29134Y-44844D01*
X29113Y-44650D01*
X29129Y-44457D01*
X29183Y-44270D01*
X29272Y-44096D01*
X29393Y-43944D01*
X29541Y-43817D01*
X29712Y-43722D01*
X29897Y-43662D01*
X30091Y-43639D01*
X30284Y-43654D01*
X30472Y-43706D01*
X30646Y-43794D01*
X30799Y-43914D01*
X30927Y-44062D01*
X31023Y-44231D01*
X31085Y-44416D01*
X31109Y-44610D01*
X31110Y-44637D01*
X23479Y-49407D02*
X23459Y-49601D01*
X23403Y-49788D01*
X23311Y-49960D01*
X23188Y-50111D01*
X23038Y-50236D01*
X22866Y-50328D01*
X22680Y-50386D01*
X22485Y-50406D01*
X22292Y-50389D01*
X22105Y-50334D01*
X21932Y-50243D01*
X21780Y-50121D01*
X21654Y-49971D01*
X21560Y-49800D01*
X21501Y-49614D01*
X21480Y-49420D01*
X21496Y-49227D01*
X21550Y-49039D01*
X21639Y-48866D01*
X21760Y-48713D01*
X21909Y-48586D01*
X22079Y-48491D01*
X22265Y-48431D01*
X22459Y-48408D01*
X22652Y-48423D01*
X22840Y-48475D01*
X23014Y-48563D01*
X23168Y-48683D01*
X23296Y-48831D01*
X23392Y-49001D01*
X23454Y-49186D01*
X23478Y-49380D01*
X23479Y-49407D01*
X29795Y-47022D02*
X29728Y-47701D01*
X29530Y-48355D01*
X29210Y-48958D01*
X28778Y-49488D01*
X28252Y-49923D01*
X27651Y-50248D01*
X26998Y-50450D01*
X26319Y-50521D01*
X25640Y-50460D01*
X24984Y-50267D01*
X24379Y-49950D01*
X23847Y-49522D01*
X23408Y-48999D01*
X23079Y-48400D01*
X22872Y-47749D01*
X22796Y-47070D01*
X22853Y-46391D01*
X23041Y-45734D01*
X23354Y-45127D01*
X23778Y-44591D01*
X24298Y-44148D01*
X24894Y-43815D01*
X25544Y-43604D01*
X26222Y-43523D01*
X26902Y-43576D01*
X27560Y-43759D01*
X28170Y-44067D01*
X28708Y-44488D01*
X29155Y-45005D01*
X29492Y-45599D01*
X29708Y-46247D01*
X29793Y-46925D01*
X29795Y-47022D01*
X41576Y-43656D02*
X40914Y-42596D01*
X40914Y-42596D02*
X41762Y-42066D01*
X41762Y-42066D02*
X42689Y-43551D01*
X38237Y-48691D02*
X40013Y-44928D01*
X42901Y-50494D02*
X39297Y-50387D01*
X45869Y-48639D02*
X47353Y-45353D01*
X42689Y-43551D02*
X46293Y-43657D01*
X47610Y-44637D02*
X47590Y-44831D01*
X47534Y-45017D01*
X47443Y-45189D01*
X47319Y-45340D01*
X47169Y-45465D01*
X46998Y-45557D01*
X46811Y-45615D01*
X46617Y-45635D01*
X46424Y-45618D01*
X46237Y-45563D01*
X46064Y-45472D01*
X45913Y-45350D01*
X45787Y-45201D01*
X45693Y-45030D01*
X45634Y-44844D01*
X45613Y-44650D01*
X45629Y-44457D01*
X45683Y-44270D01*
X45772Y-44096D01*
X45893Y-43944D01*
X46041Y-43817D01*
X46212Y-43722D01*
X46397Y-43662D01*
X46591Y-43639D01*
X46784Y-43654D01*
X46972Y-43706D01*
X47146Y-43794D01*
X47299Y-43914D01*
X47427Y-44062D01*
X47523Y-44231D01*
X47585Y-44416D01*
X47609Y-44610D01*
X47610Y-44637D01*
X39979Y-49407D02*
X39959Y-49601D01*
X39903Y-49788D01*
X39811Y-49960D01*
X39688Y-50111D01*
X39538Y-50236D01*
X39366Y-50328D01*
X39180Y-50386D01*
X38985Y-50406D01*
X38792Y-50389D01*
X38605Y-50334D01*
X38432Y-50243D01*
X38280Y-50121D01*
X38154Y-49971D01*
X38060Y-49800D01*
X38001Y-49614D01*
X37980Y-49420D01*
X37996Y-49227D01*
X38050Y-49039D01*
X38139Y-48866D01*
X38260Y-48713D01*
X38409Y-48586D01*
X38579Y-48491D01*
X38765Y-48431D01*
X38959Y-48408D01*
X39152Y-48423D01*
X39340Y-48475D01*
X39514Y-48563D01*
X39668Y-48683D01*
X39796Y-48831D01*
X39892Y-49001D01*
X39954Y-49186D01*
X39978Y-49380D01*
X39979Y-49407D01*
X46295Y-47022D02*
X46228Y-47701D01*
X46030Y-48355D01*
X45710Y-48958D01*
X45278Y-49488D01*
X44752Y-49923D01*
X44151Y-50248D01*
X43498Y-50450D01*
X42819Y-50521D01*
X42140Y-50460D01*
X41484Y-50267D01*
X40879Y-49950D01*
X40347Y-49522D01*
X39908Y-48999D01*
X39579Y-48400D01*
X39372Y-47749D01*
X39296Y-47070D01*
X39353Y-46391D01*
X39541Y-45734D01*
X39854Y-45127D01*
X40278Y-44591D01*
X40798Y-44148D01*
X41394Y-43815D01*
X42044Y-43604D01*
X42722Y-43523D01*
X43402Y-43576D01*
X44060Y-43759D01*
X44670Y-44067D01*
X45208Y-44488D01*
X45655Y-45005D01*
X45992Y-45599D01*
X46208Y-46247D01*
X46293Y-46925D01*
X46295Y-47022D01*
X33326Y-43656D02*
X32664Y-42596D01*
X32664Y-42596D02*
X33512Y-42066D01*
X33512Y-42066D02*
X34439Y-43551D01*
X29987Y-48691D02*
X31763Y-44928D01*
X34651Y-50494D02*
X31047Y-50387D01*
X37619Y-48639D02*
X39103Y-45353D01*
X34439Y-43551D02*
X38043Y-43657D01*
X39360Y-44637D02*
X39340Y-44831D01*
X39284Y-45017D01*
X39193Y-45189D01*
X39069Y-45340D01*
X38919Y-45465D01*
X38748Y-45557D01*
X38561Y-45615D01*
X38367Y-45635D01*
X38174Y-45618D01*
X37987Y-45563D01*
X37814Y-45472D01*
X37663Y-45350D01*
X37537Y-45201D01*
X37443Y-45030D01*
X37384Y-44844D01*
X37363Y-44650D01*
X37379Y-44457D01*
X37433Y-44270D01*
X37522Y-44096D01*
X37643Y-43944D01*
X37791Y-43817D01*
X37962Y-43722D01*
X38147Y-43662D01*
X38341Y-43639D01*
X38534Y-43654D01*
X38722Y-43706D01*
X38896Y-43794D01*
X39049Y-43914D01*
X39177Y-44062D01*
X39273Y-44231D01*
X39335Y-44416D01*
X39359Y-44610D01*
X39360Y-44637D01*
X31729Y-49407D02*
X31709Y-49601D01*
X31653Y-49788D01*
X31561Y-49960D01*
X31438Y-50111D01*
X31288Y-50236D01*
X31116Y-50328D01*
X30930Y-50386D01*
X30735Y-50406D01*
X30542Y-50389D01*
X30355Y-50334D01*
X30182Y-50243D01*
X30030Y-50121D01*
X29904Y-49971D01*
X29810Y-49800D01*
X29751Y-49614D01*
X29730Y-49420D01*
X29746Y-49227D01*
X29800Y-49039D01*
X29889Y-48866D01*
X30010Y-48713D01*
X30159Y-48586D01*
X30329Y-48491D01*
X30515Y-48431D01*
X30709Y-48408D01*
X30902Y-48423D01*
X31090Y-48475D01*
X31264Y-48563D01*
X31418Y-48683D01*
X31546Y-48831D01*
X31642Y-49001D01*
X31704Y-49186D01*
X31728Y-49380D01*
X31729Y-49407D01*
X38045Y-47022D02*
X37978Y-47701D01*
X37780Y-48355D01*
X37460Y-48958D01*
X37028Y-49488D01*
X36502Y-49923D01*
X35901Y-50248D01*
X35248Y-50450D01*
X34569Y-50521D01*
X33890Y-50460D01*
X33234Y-50267D01*
X32629Y-49950D01*
X32097Y-49522D01*
X31658Y-48999D01*
X31329Y-48400D01*
X31122Y-47749D01*
X31046Y-47070D01*
X31103Y-46391D01*
X31291Y-45734D01*
X31604Y-45127D01*
X32028Y-44591D01*
X32548Y-44148D01*
X33144Y-43815D01*
X33794Y-43604D01*
X34472Y-43523D01*
X35152Y-43576D01*
X35810Y-43759D01*
X36420Y-44067D01*
X36958Y-44488D01*
X37405Y-45005D01*
X37742Y-45599D01*
X37958Y-46247D01*
X38043Y-46925D01*
X38045Y-47022D01*
G54D14*
X29100Y-51400D02*
X29099Y-51409D01*
X29096Y-51419D01*
X29091Y-51427D01*
X29085Y-51435D01*
X29077Y-51441D01*
X29069Y-51446D01*
X29060Y-51448D01*
X29050Y-51449D01*
X29041Y-51449D01*
X29032Y-51446D01*
X29023Y-51441D01*
X29016Y-51435D01*
X29009Y-51428D01*
X29005Y-51419D01*
X29002Y-51410D01*
X29001Y-51400D01*
X29001Y-51391D01*
X29004Y-51382D01*
X29008Y-51373D01*
X29015Y-51366D01*
X29022Y-51359D01*
X29030Y-51355D01*
X29040Y-51352D01*
X29049Y-51351D01*
X29058Y-51351D01*
X29068Y-51354D01*
X29076Y-51358D01*
X29084Y-51364D01*
X29090Y-51372D01*
X29095Y-51380D01*
X29098Y-51389D01*
X29099Y-51399D01*
X29100Y-51400D01*
X29050Y-50950D02*
X29050Y-51350D01*
X29050Y-51350D02*
X28450Y-51350D01*
X28450Y-51350D02*
X28450Y-50950D01*
X28450Y-50550D02*
X28450Y-50150D01*
X28450Y-50150D02*
X29050Y-50150D01*
X29050Y-50150D02*
X29050Y-50550D01*
X32450Y-51350D02*
X32449Y-51359D01*
X32446Y-51369D01*
X32441Y-51377D01*
X32435Y-51385D01*
X32427Y-51391D01*
X32419Y-51396D01*
X32410Y-51398D01*
X32400Y-51399D01*
X32391Y-51399D01*
X32382Y-51396D01*
X32373Y-51391D01*
X32366Y-51385D01*
X32359Y-51378D01*
X32355Y-51369D01*
X32352Y-51360D01*
X32351Y-51350D01*
X32351Y-51341D01*
X32354Y-51332D01*
X32358Y-51323D01*
X32365Y-51316D01*
X32372Y-51309D01*
X32380Y-51305D01*
X32390Y-51302D01*
X32399Y-51301D01*
X32408Y-51301D01*
X32418Y-51304D01*
X32426Y-51308D01*
X32434Y-51314D01*
X32440Y-51322D01*
X32445Y-51330D01*
X32448Y-51339D01*
X32449Y-51349D01*
X32450Y-51350D01*
X32850Y-51350D02*
X32450Y-51350D01*
X32450Y-51350D02*
X32450Y-50750D01*
X32450Y-50750D02*
X32850Y-50750D01*
X33250Y-50750D02*
X33650Y-50750D01*
X33650Y-50750D02*
X33650Y-51350D01*
X33650Y-51350D02*
X33250Y-51350D01*
X40050Y-51200D02*
X40049Y-51209D01*
X40046Y-51219D01*
X40041Y-51227D01*
X40035Y-51235D01*
X40027Y-51241D01*
X40019Y-51246D01*
X40010Y-51248D01*
X40000Y-51249D01*
X39991Y-51249D01*
X39982Y-51246D01*
X39973Y-51241D01*
X39966Y-51235D01*
X39959Y-51228D01*
X39955Y-51219D01*
X39952Y-51210D01*
X39951Y-51200D01*
X39951Y-51191D01*
X39954Y-51182D01*
X39958Y-51173D01*
X39965Y-51166D01*
X39972Y-51159D01*
X39980Y-51155D01*
X39990Y-51152D01*
X39999Y-51151D01*
X40008Y-51151D01*
X40018Y-51154D01*
X40026Y-51158D01*
X40034Y-51164D01*
X40040Y-51172D01*
X40045Y-51180D01*
X40048Y-51189D01*
X40049Y-51199D01*
X40050Y-51200D01*
X39550Y-51200D02*
X39950Y-51200D01*
X39950Y-51200D02*
X39950Y-51800D01*
X39950Y-51800D02*
X39550Y-51800D01*
X39150Y-51800D02*
X38750Y-51800D01*
X38750Y-51800D02*
X38750Y-51200D01*
X38750Y-51200D02*
X39150Y-51200D01*
X31900Y-51200D02*
X31899Y-51209D01*
X31896Y-51219D01*
X31891Y-51227D01*
X31885Y-51235D01*
X31877Y-51241D01*
X31869Y-51246D01*
X31860Y-51248D01*
X31850Y-51249D01*
X31841Y-51249D01*
X31832Y-51246D01*
X31823Y-51241D01*
X31816Y-51235D01*
X31809Y-51228D01*
X31805Y-51219D01*
X31802Y-51210D01*
X31801Y-51200D01*
X31801Y-51191D01*
X31804Y-51182D01*
X31808Y-51173D01*
X31815Y-51166D01*
X31822Y-51159D01*
X31830Y-51155D01*
X31840Y-51152D01*
X31849Y-51151D01*
X31858Y-51151D01*
X31868Y-51154D01*
X31876Y-51158D01*
X31884Y-51164D01*
X31890Y-51172D01*
X31895Y-51180D01*
X31898Y-51189D01*
X31899Y-51199D01*
X31900Y-51200D01*
X31400Y-51200D02*
X31800Y-51200D01*
X31800Y-51200D02*
X31800Y-51800D01*
X31800Y-51800D02*
X31400Y-51800D01*
X31000Y-51800D02*
X30600Y-51800D01*
X30600Y-51800D02*
X30600Y-51200D01*
X30600Y-51200D02*
X31000Y-51200D01*
X40650Y-51350D02*
X40649Y-51359D01*
X40646Y-51369D01*
X40641Y-51377D01*
X40635Y-51385D01*
X40627Y-51391D01*
X40619Y-51396D01*
X40610Y-51398D01*
X40600Y-51399D01*
X40591Y-51399D01*
X40582Y-51396D01*
X40573Y-51391D01*
X40566Y-51385D01*
X40559Y-51378D01*
X40555Y-51369D01*
X40552Y-51360D01*
X40551Y-51350D01*
X40551Y-51341D01*
X40554Y-51332D01*
X40558Y-51323D01*
X40565Y-51316D01*
X40572Y-51309D01*
X40580Y-51305D01*
X40590Y-51302D01*
X40599Y-51301D01*
X40608Y-51301D01*
X40618Y-51304D01*
X40626Y-51308D01*
X40634Y-51314D01*
X40640Y-51322D01*
X40645Y-51330D01*
X40648Y-51339D01*
X40649Y-51349D01*
X40650Y-51350D01*
X41050Y-51350D02*
X40650Y-51350D01*
X40650Y-51350D02*
X40650Y-50750D01*
X40650Y-50750D02*
X41050Y-50750D01*
X41450Y-50750D02*
X41850Y-50750D01*
X41850Y-50750D02*
X41850Y-51350D01*
X41850Y-51350D02*
X41450Y-51350D01*
X43750Y-51250D02*
X43749Y-51259D01*
X43746Y-51269D01*
X43741Y-51277D01*
X43735Y-51285D01*
X43727Y-51291D01*
X43719Y-51296D01*
X43710Y-51298D01*
X43700Y-51299D01*
X43691Y-51299D01*
X43682Y-51296D01*
X43673Y-51291D01*
X43666Y-51285D01*
X43659Y-51278D01*
X43655Y-51269D01*
X43652Y-51260D01*
X43651Y-51250D01*
X43651Y-51241D01*
X43654Y-51232D01*
X43658Y-51223D01*
X43665Y-51216D01*
X43672Y-51209D01*
X43680Y-51205D01*
X43690Y-51202D01*
X43699Y-51201D01*
X43708Y-51201D01*
X43718Y-51204D01*
X43726Y-51208D01*
X43734Y-51214D01*
X43740Y-51222D01*
X43745Y-51230D01*
X43748Y-51239D01*
X43749Y-51249D01*
X43750Y-51250D01*
X43250Y-51250D02*
X43650Y-51250D01*
X43650Y-51250D02*
X43650Y-51850D01*
X43650Y-51850D02*
X43250Y-51850D01*
X42850Y-51850D02*
X42450Y-51850D01*
X42450Y-51850D02*
X42450Y-51250D01*
X42450Y-51250D02*
X42850Y-51250D01*
X35500Y-51250D02*
X35499Y-51259D01*
X35496Y-51269D01*
X35491Y-51277D01*
X35485Y-51285D01*
X35477Y-51291D01*
X35469Y-51296D01*
X35460Y-51298D01*
X35450Y-51299D01*
X35441Y-51299D01*
X35432Y-51296D01*
X35423Y-51291D01*
X35416Y-51285D01*
X35409Y-51278D01*
X35405Y-51269D01*
X35402Y-51260D01*
X35401Y-51250D01*
X35401Y-51241D01*
X35404Y-51232D01*
X35408Y-51223D01*
X35415Y-51216D01*
X35422Y-51209D01*
X35430Y-51205D01*
X35440Y-51202D01*
X35449Y-51201D01*
X35458Y-51201D01*
X35468Y-51204D01*
X35476Y-51208D01*
X35484Y-51214D01*
X35490Y-51222D01*
X35495Y-51230D01*
X35498Y-51239D01*
X35499Y-51249D01*
X35500Y-51250D01*
X35000Y-51250D02*
X35400Y-51250D01*
X35400Y-51250D02*
X35400Y-51850D01*
X35400Y-51850D02*
X35000Y-51850D01*
X34600Y-51850D02*
X34200Y-51850D01*
X34200Y-51850D02*
X34200Y-51250D01*
X34200Y-51250D02*
X34600Y-51250D01*
G54D11*
X21250Y-43250D02*
X22250Y-43250D01*
X22250Y-43250D02*
X22250Y-48250D01*
X22250Y-48250D02*
X21250Y-48250D01*
X21250Y-48250D02*
X21250Y-43250D01*
X21250Y-44250D02*
X22250Y-44250D01*
G54D14*
X26500Y-51600D02*
X26499Y-51609D01*
X26496Y-51619D01*
X26491Y-51627D01*
X26485Y-51635D01*
X26477Y-51641D01*
X26469Y-51646D01*
X26460Y-51648D01*
X26450Y-51649D01*
X26441Y-51649D01*
X26432Y-51646D01*
X26423Y-51641D01*
X26416Y-51635D01*
X26409Y-51628D01*
X26405Y-51619D01*
X26402Y-51610D01*
X26401Y-51600D01*
X26401Y-51591D01*
X26404Y-51582D01*
X26408Y-51573D01*
X26415Y-51566D01*
X26422Y-51559D01*
X26430Y-51555D01*
X26440Y-51552D01*
X26449Y-51551D01*
X26458Y-51551D01*
X26468Y-51554D01*
X26476Y-51558D01*
X26484Y-51564D01*
X26490Y-51572D01*
X26495Y-51580D01*
X26498Y-51589D01*
X26499Y-51599D01*
X26500Y-51600D01*
X26450Y-52050D02*
X26450Y-51650D01*
X26450Y-51650D02*
X27050Y-51650D01*
X27050Y-51650D02*
X27050Y-52050D01*
X27050Y-52450D02*
X27050Y-52850D01*
X27050Y-52850D02*
X26450Y-52850D01*
X26450Y-52850D02*
X26450Y-52450D01*
X23950Y-44700D02*
X23949Y-44709D01*
X23946Y-44719D01*
X23941Y-44727D01*
X23935Y-44735D01*
X23927Y-44741D01*
X23919Y-44746D01*
X23910Y-44748D01*
X23900Y-44749D01*
X23891Y-44749D01*
X23882Y-44746D01*
X23873Y-44741D01*
X23866Y-44735D01*
X23859Y-44728D01*
X23855Y-44719D01*
X23852Y-44710D01*
X23851Y-44700D01*
X23851Y-44691D01*
X23854Y-44682D01*
X23858Y-44673D01*
X23865Y-44666D01*
X23872Y-44659D01*
X23880Y-44655D01*
X23890Y-44652D01*
X23899Y-44651D01*
X23908Y-44651D01*
X23918Y-44654D01*
X23926Y-44658D01*
X23934Y-44664D01*
X23940Y-44672D01*
X23945Y-44680D01*
X23948Y-44689D01*
X23949Y-44699D01*
X23950Y-44700D01*
X23450Y-44700D02*
X23850Y-44700D01*
X23850Y-44700D02*
X23850Y-45300D01*
X23850Y-45300D02*
X23450Y-45300D01*
X23050Y-45300D02*
X22650Y-45300D01*
X22650Y-45300D02*
X22650Y-44700D01*
X22650Y-44700D02*
X23050Y-44700D01*
X25900Y-50050D02*
X25899Y-50059D01*
X25896Y-50069D01*
X25891Y-50077D01*
X25885Y-50085D01*
X25877Y-50091D01*
X25869Y-50096D01*
X25860Y-50098D01*
X25850Y-50099D01*
X25841Y-50099D01*
X25832Y-50096D01*
X25823Y-50091D01*
X25816Y-50085D01*
X25809Y-50078D01*
X25805Y-50069D01*
X25802Y-50060D01*
X25801Y-50050D01*
X25801Y-50041D01*
X25804Y-50032D01*
X25808Y-50023D01*
X25815Y-50016D01*
X25822Y-50009D01*
X25830Y-50005D01*
X25840Y-50002D01*
X25849Y-50001D01*
X25858Y-50001D01*
X25868Y-50004D01*
X25876Y-50008D01*
X25884Y-50014D01*
X25890Y-50022D01*
X25895Y-50030D01*
X25898Y-50039D01*
X25899Y-50049D01*
X25900Y-50050D01*
X26300Y-50050D02*
X25900Y-50050D01*
X25900Y-50050D02*
X25900Y-49450D01*
X25900Y-49450D02*
X26300Y-49450D01*
X26700Y-49450D02*
X27100Y-49450D01*
X27100Y-49450D02*
X27100Y-50050D01*
X27100Y-50050D02*
X26700Y-50050D01*
X28250Y-43850D02*
X28249Y-43859D01*
X28246Y-43869D01*
X28241Y-43877D01*
X28235Y-43885D01*
X28227Y-43891D01*
X28219Y-43896D01*
X28210Y-43898D01*
X28200Y-43899D01*
X28191Y-43899D01*
X28182Y-43896D01*
X28173Y-43891D01*
X28166Y-43885D01*
X28159Y-43878D01*
X28155Y-43869D01*
X28152Y-43860D01*
X28151Y-43850D01*
X28151Y-43841D01*
X28154Y-43832D01*
X28158Y-43823D01*
X28165Y-43816D01*
X28172Y-43809D01*
X28180Y-43805D01*
X28190Y-43802D01*
X28199Y-43801D01*
X28208Y-43801D01*
X28218Y-43804D01*
X28226Y-43808D01*
X28234Y-43814D01*
X28240Y-43822D01*
X28245Y-43830D01*
X28248Y-43839D01*
X28249Y-43849D01*
X28250Y-43850D01*
X28200Y-44300D02*
X28200Y-43900D01*
X28200Y-43900D02*
X28800Y-43900D01*
X28800Y-43900D02*
X28800Y-44300D01*
X28800Y-44700D02*
X28800Y-45100D01*
X28800Y-45100D02*
X28200Y-45100D01*
X28200Y-45100D02*
X28200Y-44700D01*
X27750Y-50850D02*
X27749Y-50859D01*
X27746Y-50869D01*
X27741Y-50877D01*
X27735Y-50885D01*
X27727Y-50891D01*
X27719Y-50896D01*
X27710Y-50898D01*
X27700Y-50899D01*
X27691Y-50899D01*
X27682Y-50896D01*
X27673Y-50891D01*
X27666Y-50885D01*
X27659Y-50878D01*
X27655Y-50869D01*
X27652Y-50860D01*
X27651Y-50850D01*
X27651Y-50841D01*
X27654Y-50832D01*
X27658Y-50823D01*
X27665Y-50816D01*
X27672Y-50809D01*
X27680Y-50805D01*
X27690Y-50802D01*
X27699Y-50801D01*
X27708Y-50801D01*
X27718Y-50804D01*
X27726Y-50808D01*
X27734Y-50814D01*
X27740Y-50822D01*
X27745Y-50830D01*
X27748Y-50839D01*
X27749Y-50849D01*
X27750Y-50850D01*
X27700Y-51300D02*
X27700Y-50900D01*
X27700Y-50900D02*
X28300Y-50900D01*
X28300Y-50900D02*
X28300Y-51300D01*
X28300Y-51700D02*
X28300Y-52100D01*
X28300Y-52100D02*
X27700Y-52100D01*
X27700Y-52100D02*
X27700Y-51700D01*
G54D15*
X28250Y-45250D02*
X28250Y-45750D01*
X28250Y-45750D02*
X27250Y-45750D01*
X27250Y-45750D02*
X27250Y-45250D01*
X28750Y-45250D02*
X28750Y-49250D01*
X28750Y-49250D02*
X26750Y-49250D01*
X26750Y-49250D02*
X26750Y-45250D01*
X26750Y-45250D02*
X28750Y-45250D01*
G54D12*
X22750Y-50500D02*
X23000Y-50500D01*
X23000Y-50500D02*
X23000Y-54500D01*
X23000Y-54500D02*
X22750Y-54500D01*
X21250Y-50500D02*
X22750Y-50500D01*
X22750Y-50500D02*
X22750Y-54500D01*
X22750Y-54500D02*
X21250Y-54500D01*
X21250Y-54500D02*
X21250Y-50500D01*
G54D14*
X28150Y-46100D02*
X28100Y-46100D01*
X28100Y-46100D02*
X28100Y-48200D01*
X29600Y-48200D02*
X29600Y-46100D01*
X29600Y-46100D02*
X28150Y-46100D01*
X29050Y-46100D02*
X29050Y-46300D01*
X29050Y-46300D02*
X28650Y-46300D01*
X28650Y-46300D02*
X28650Y-46100D01*
X29600Y-48200D02*
X28100Y-48200D01*
G54D11*
X30650Y-44300D02*
X30650Y-43300D01*
X30650Y-43300D02*
X32650Y-43300D01*
X32650Y-43300D02*
X32650Y-44300D01*
X32650Y-44300D02*
X30650Y-44300D01*
X28600Y-53200D02*
X29600Y-53200D01*
X29600Y-53200D02*
X29600Y-55200D01*
X29600Y-55200D02*
X28600Y-55200D01*
X28600Y-55200D02*
X28600Y-53200D01*
G54D13*
X24508Y-51851D02*
X24508Y-51601D01*
X24555Y-51601D01*
X24584Y-51613D01*
X24603Y-51637D01*
X24612Y-51661D01*
X24622Y-51708D01*
X24622Y-51744D01*
X24612Y-51792D01*
X24603Y-51815D01*
X24584Y-51839D01*
X24555Y-51851D01*
X24508Y-51851D01*
X24812Y-51851D02*
X24698Y-51851D01*
X24755Y-51851D02*
X24755Y-51601D01*
X24736Y-51637D01*
X24717Y-51661D01*
X24698Y-51673D01*
X24879Y-51601D02*
X25002Y-51601D01*
X24936Y-51696D01*
X24964Y-51696D01*
X24983Y-51708D01*
X24993Y-51720D01*
X25002Y-51744D01*
X25002Y-51804D01*
X24993Y-51827D01*
X24983Y-51839D01*
X24964Y-51851D01*
X24907Y-51851D01*
X24888Y-51839D01*
X24879Y-51827D01*
X40101Y-53147D02*
X39851Y-53147D01*
X39851Y-53100D01*
X39863Y-53071D01*
X39887Y-53052D01*
X39911Y-53043D01*
X39958Y-53033D01*
X39994Y-53033D01*
X40042Y-53043D01*
X40065Y-53052D01*
X40089Y-53071D01*
X40101Y-53100D01*
X40101Y-53147D01*
X39935Y-52862D02*
X40101Y-52862D01*
X39839Y-52909D02*
X40018Y-52957D01*
X40018Y-52833D01*
X40101Y-54547D02*
X39851Y-54547D01*
X39851Y-54500D01*
X39863Y-54471D01*
X39887Y-54452D01*
X39911Y-54443D01*
X39958Y-54433D01*
X39994Y-54433D01*
X40042Y-54443D01*
X40065Y-54452D01*
X40089Y-54471D01*
X40101Y-54500D01*
X40101Y-54547D01*
X39851Y-54366D02*
X39851Y-54243D01*
X39946Y-54309D01*
X39946Y-54281D01*
X39958Y-54262D01*
X39970Y-54252D01*
X39994Y-54243D01*
X40054Y-54243D01*
X40077Y-54252D01*
X40089Y-54262D01*
X40101Y-54281D01*
X40101Y-54338D01*
X40089Y-54357D01*
X40077Y-54366D01*
X31601Y-53147D02*
X31351Y-53147D01*
X31351Y-53100D01*
X31363Y-53071D01*
X31387Y-53052D01*
X31411Y-53043D01*
X31458Y-53033D01*
X31494Y-53033D01*
X31542Y-53043D01*
X31565Y-53052D01*
X31589Y-53071D01*
X31601Y-53100D01*
X31601Y-53147D01*
X31375Y-52957D02*
X31363Y-52947D01*
X31351Y-52928D01*
X31351Y-52881D01*
X31363Y-52862D01*
X31375Y-52852D01*
X31399Y-52843D01*
X31423Y-52843D01*
X31458Y-52852D01*
X31601Y-52966D01*
X31601Y-52843D01*
X31601Y-54547D02*
X31351Y-54547D01*
X31351Y-54500D01*
X31363Y-54471D01*
X31387Y-54452D01*
X31411Y-54443D01*
X31458Y-54433D01*
X31494Y-54433D01*
X31542Y-54443D01*
X31565Y-54452D01*
X31589Y-54471D01*
X31601Y-54500D01*
X31601Y-54547D01*
X31601Y-54243D02*
X31601Y-54357D01*
X31601Y-54300D02*
X31351Y-54300D01*
X31387Y-54319D01*
X31411Y-54338D01*
X31423Y-54357D01*
G54D16*
X25958Y-54303D02*
X25875Y-54181D01*
X25816Y-54303D02*
X25816Y-54048D01*
X25911Y-54048D01*
X25935Y-54060D01*
X25946Y-54072D01*
X25958Y-54096D01*
X25958Y-54133D01*
X25946Y-54157D01*
X25935Y-54169D01*
X25911Y-54181D01*
X25816Y-54181D01*
X26196Y-54303D02*
X26054Y-54303D01*
X26125Y-54303D02*
X26125Y-54048D01*
X26101Y-54084D01*
X26077Y-54108D01*
X26054Y-54121D01*
X26328Y-54248D02*
X26482Y-54248D01*
X26399Y-54345D01*
X26435Y-54345D01*
X26459Y-54357D01*
X26471Y-54369D01*
X26482Y-54393D01*
X26482Y-54454D01*
X26471Y-54478D01*
X26459Y-54491D01*
X26435Y-54503D01*
X26363Y-54503D01*
X26340Y-54491D01*
X26328Y-54478D01*
X26625Y-54357D02*
X26601Y-54345D01*
X26590Y-54333D01*
X26578Y-54308D01*
X26578Y-54296D01*
X26590Y-54272D01*
X26601Y-54260D01*
X26625Y-54248D01*
X26673Y-54248D01*
X26697Y-54260D01*
X26709Y-54272D01*
X26720Y-54296D01*
X26720Y-54308D01*
X26709Y-54333D01*
X26697Y-54345D01*
X26673Y-54357D01*
X26625Y-54357D01*
X26601Y-54369D01*
X26590Y-54381D01*
X26578Y-54406D01*
X26578Y-54454D01*
X26590Y-54478D01*
X26601Y-54491D01*
X26625Y-54503D01*
X26673Y-54503D01*
X26697Y-54491D01*
X26709Y-54478D01*
X26720Y-54454D01*
X26720Y-54406D01*
X26709Y-54381D01*
X26697Y-54369D01*
X26673Y-54357D01*
X26804Y-54248D02*
X26958Y-54248D01*
X26875Y-54345D01*
X26911Y-54345D01*
X26935Y-54357D01*
X26947Y-54369D01*
X26958Y-54393D01*
X26958Y-54454D01*
X26947Y-54478D01*
X26935Y-54491D01*
X26911Y-54503D01*
X26839Y-54503D01*
X26816Y-54491D01*
X26804Y-54478D01*
X27066Y-54503D02*
X27066Y-54248D01*
X27089Y-54406D02*
X27161Y-54503D01*
X27161Y-54333D02*
X27066Y-54430D01*
X23703Y-47942D02*
X23581Y-48025D01*
X23703Y-48084D02*
X23448Y-48084D01*
X23448Y-47989D01*
X23460Y-47965D01*
X23472Y-47954D01*
X23496Y-47942D01*
X23533Y-47942D01*
X23557Y-47954D01*
X23569Y-47965D01*
X23581Y-47989D01*
X23581Y-48084D01*
X23472Y-47846D02*
X23460Y-47834D01*
X23448Y-47811D01*
X23448Y-47751D01*
X23460Y-47727D01*
X23472Y-47715D01*
X23496Y-47704D01*
X23521Y-47704D01*
X23557Y-47715D01*
X23703Y-47858D01*
X23703Y-47704D01*
X23698Y-48941D02*
X23698Y-48989D01*
X23710Y-49013D01*
X23722Y-49025D01*
X23758Y-49048D01*
X23807Y-49060D01*
X23904Y-49060D01*
X23928Y-49048D01*
X23941Y-49037D01*
X23953Y-49013D01*
X23953Y-48965D01*
X23941Y-48941D01*
X23928Y-48929D01*
X23904Y-48918D01*
X23843Y-48918D01*
X23819Y-48929D01*
X23807Y-48941D01*
X23795Y-48965D01*
X23795Y-49013D01*
X23807Y-49037D01*
X23819Y-49048D01*
X23843Y-49060D01*
X23698Y-48763D02*
X23698Y-48739D01*
X23710Y-48715D01*
X23722Y-48703D01*
X23746Y-48691D01*
X23795Y-48680D01*
X23856Y-48680D01*
X23904Y-48691D01*
X23928Y-48703D01*
X23941Y-48715D01*
X23953Y-48739D01*
X23953Y-48763D01*
X23941Y-48787D01*
X23928Y-48799D01*
X23904Y-48810D01*
X23856Y-48822D01*
X23795Y-48822D01*
X23746Y-48810D01*
X23722Y-48799D01*
X23710Y-48787D01*
X23698Y-48763D01*
X23783Y-48465D02*
X23953Y-48465D01*
X23686Y-48525D02*
X23868Y-48584D01*
X23868Y-48430D01*
X23953Y-48334D02*
X23698Y-48334D01*
X23856Y-48311D02*
X23953Y-48239D01*
X23783Y-48239D02*
X23880Y-48334D01*
X26008Y-43953D02*
X25925Y-43831D01*
X25866Y-43953D02*
X25866Y-43698D01*
X25961Y-43698D01*
X25985Y-43710D01*
X25996Y-43722D01*
X26008Y-43746D01*
X26008Y-43783D01*
X25996Y-43807D01*
X25985Y-43819D01*
X25961Y-43831D01*
X25866Y-43831D01*
X26092Y-43698D02*
X26246Y-43698D01*
X26163Y-43795D01*
X26199Y-43795D01*
X26223Y-43807D01*
X26235Y-43819D01*
X26246Y-43843D01*
X26246Y-43904D01*
X26235Y-43928D01*
X26223Y-43941D01*
X26199Y-43953D01*
X26127Y-43953D01*
X26104Y-43941D01*
X26092Y-43928D01*
X25328Y-43772D02*
X25340Y-43760D01*
X25363Y-43748D01*
X25423Y-43748D01*
X25447Y-43760D01*
X25459Y-43772D01*
X25470Y-43796D01*
X25470Y-43821D01*
X25459Y-43857D01*
X25316Y-44003D01*
X25470Y-44003D01*
X25578Y-44003D02*
X25578Y-43748D01*
X25601Y-43906D02*
X25673Y-44003D01*
X25673Y-43833D02*
X25578Y-43930D01*
G54D15*
X31823Y-48290D02*
X32081Y-48703D01*
X32135Y-48736D01*
X32174Y-48744D01*
X32238Y-48739D01*
X32335Y-48678D01*
X32368Y-48623D01*
X32377Y-48585D01*
X32372Y-48521D01*
X32114Y-48109D01*
X32941Y-48300D02*
X32650Y-48481D01*
X32796Y-48390D02*
X32478Y-47881D01*
X32475Y-47984D01*
X32456Y-48064D01*
X32423Y-48117D01*
X33339Y-49241D02*
X33021Y-48733D01*
X33417Y-48990D01*
X33360Y-48521D01*
X33678Y-49029D01*
X33921Y-48878D02*
X33603Y-48369D01*
X33796Y-48248D01*
X33860Y-48241D01*
X33899Y-48251D01*
X33954Y-48284D01*
X34000Y-48357D01*
X34005Y-48421D01*
X33997Y-48460D01*
X33962Y-48514D01*
X33769Y-48635D01*
X34063Y-48081D02*
X34720Y-48378D01*
X34402Y-47869D02*
X34381Y-48590D01*
X34920Y-47782D02*
X35132Y-48121D01*
X34677Y-47663D02*
X34783Y-48103D01*
X35099Y-47906D01*
X35307Y-48079D02*
X35694Y-47837D01*
X35786Y-47713D02*
X35468Y-47204D01*
X35864Y-47461D01*
X35807Y-46992D01*
X36125Y-47501D01*
X36252Y-47219D02*
X36494Y-47067D01*
X36294Y-47395D02*
X36146Y-46780D01*
X36634Y-47183D01*
X36803Y-47077D02*
X36485Y-46568D01*
X36679Y-46447D01*
X36743Y-46440D01*
X36782Y-46450D01*
X36837Y-46483D01*
X36882Y-46556D01*
X36888Y-46619D01*
X36879Y-46659D01*
X36845Y-46713D01*
X36652Y-46834D01*
X40123Y-48289D02*
X40381Y-48702D01*
X40435Y-48735D01*
X40474Y-48743D01*
X40538Y-48738D01*
X40635Y-48677D01*
X40668Y-48622D01*
X40677Y-48584D01*
X40672Y-48520D01*
X40414Y-48108D01*
X40608Y-47986D02*
X40923Y-47790D01*
X40874Y-48089D01*
X40947Y-48043D01*
X41011Y-48038D01*
X41051Y-48047D01*
X41105Y-48081D01*
X41181Y-48202D01*
X41187Y-48265D01*
X41177Y-48304D01*
X41144Y-48359D01*
X40998Y-48450D01*
X40935Y-48456D01*
X40896Y-48447D01*
X41589Y-49241D02*
X41271Y-48733D01*
X41667Y-48990D01*
X41610Y-48521D01*
X41928Y-49029D01*
X42171Y-48878D02*
X41853Y-48369D01*
X42046Y-48248D01*
X42110Y-48241D01*
X42149Y-48251D01*
X42204Y-48284D01*
X42250Y-48357D01*
X42255Y-48421D01*
X42247Y-48460D01*
X42212Y-48514D01*
X42019Y-48635D01*
X42313Y-48081D02*
X42970Y-48378D01*
X42652Y-47869D02*
X42631Y-48590D01*
X43170Y-47782D02*
X43382Y-48121D01*
X42927Y-47663D02*
X43033Y-48103D01*
X43349Y-47906D01*
X43557Y-48079D02*
X43944Y-47837D01*
X44036Y-47713D02*
X43718Y-47204D01*
X44114Y-47461D01*
X44057Y-46992D01*
X44375Y-47501D01*
X44502Y-47219D02*
X44744Y-47067D01*
X44544Y-47395D02*
X44396Y-46780D01*
X44884Y-47183D01*
X45053Y-47077D02*
X44735Y-46568D01*
X44929Y-46447D01*
X44993Y-46440D01*
X45032Y-46450D01*
X45087Y-46483D01*
X45132Y-46556D01*
X45138Y-46619D01*
X45129Y-46659D01*
X45095Y-46713D01*
X44902Y-46834D01*
G54D14*
X24613Y-47862D02*
X24741Y-48068D01*
X24770Y-48085D01*
X24789Y-48090D01*
X24821Y-48086D01*
X24869Y-48056D01*
X24885Y-48029D01*
X24891Y-48009D01*
X24887Y-47977D01*
X24759Y-47771D01*
X25172Y-47867D02*
X25026Y-47958D01*
X25099Y-47912D02*
X24940Y-47658D01*
X24938Y-47710D01*
X24930Y-47749D01*
X24913Y-47776D01*
X25098Y-47559D02*
X25255Y-47461D01*
X25232Y-47611D01*
X25267Y-47589D01*
X25299Y-47585D01*
X25319Y-47590D01*
X25347Y-47607D01*
X25384Y-47667D01*
X25387Y-47699D01*
X25382Y-47719D01*
X25365Y-47746D01*
X25293Y-47791D01*
X25261Y-47794D01*
X25242Y-47790D01*
G54D15*
X44424Y-45539D02*
X44682Y-45952D01*
X44736Y-45985D01*
X44775Y-45993D01*
X44839Y-45988D01*
X44936Y-45927D01*
X44969Y-45872D01*
X44978Y-45834D01*
X44973Y-45770D01*
X44715Y-45358D01*
X45282Y-45240D02*
X45494Y-45579D01*
X45039Y-45121D02*
X45145Y-45561D01*
X45461Y-45364D01*
X41589Y-49241D02*
X41271Y-48733D01*
X41667Y-48990D01*
X41610Y-48521D01*
X41928Y-49029D01*
X42171Y-48878D02*
X41853Y-48369D01*
X42046Y-48248D01*
X42110Y-48241D01*
X42149Y-48251D01*
X42204Y-48284D01*
X42250Y-48357D01*
X42255Y-48421D01*
X42247Y-48460D01*
X42212Y-48514D01*
X42019Y-48635D01*
X42313Y-48081D02*
X42970Y-48378D01*
X42652Y-47869D02*
X42631Y-48590D01*
X43170Y-47782D02*
X43382Y-48121D01*
X42927Y-47663D02*
X43033Y-48103D01*
X43349Y-47906D01*
X43557Y-48079D02*
X43944Y-47837D01*
X44036Y-47713D02*
X43718Y-47204D01*
X44114Y-47461D01*
X44057Y-46992D01*
X44375Y-47501D01*
X44502Y-47219D02*
X44744Y-47067D01*
X44544Y-47395D02*
X44396Y-46780D01*
X44884Y-47183D01*
X45053Y-47077D02*
X44735Y-46568D01*
X44929Y-46447D01*
X44993Y-46440D01*
X45032Y-46450D01*
X45087Y-46483D01*
X45132Y-46556D01*
X45138Y-46619D01*
X45129Y-46659D01*
X45095Y-46713D01*
X44902Y-46834D01*
X35923Y-45539D02*
X36181Y-45952D01*
X36235Y-45985D01*
X36274Y-45993D01*
X36338Y-45988D01*
X36435Y-45927D01*
X36468Y-45872D01*
X36477Y-45834D01*
X36472Y-45770D01*
X36214Y-45358D01*
X36462Y-45270D02*
X36472Y-45230D01*
X36505Y-45176D01*
X36626Y-45100D01*
X36689Y-45094D01*
X36729Y-45103D01*
X36783Y-45136D01*
X36814Y-45185D01*
X36835Y-45272D01*
X36726Y-45745D01*
X37041Y-45549D01*
X33339Y-49241D02*
X33021Y-48733D01*
X33417Y-48990D01*
X33360Y-48521D01*
X33678Y-49029D01*
X33921Y-48878D02*
X33603Y-48369D01*
X33796Y-48248D01*
X33860Y-48241D01*
X33899Y-48251D01*
X33954Y-48284D01*
X34000Y-48357D01*
X34005Y-48421D01*
X33997Y-48460D01*
X33962Y-48514D01*
X33769Y-48635D01*
X34063Y-48081D02*
X34720Y-48378D01*
X34402Y-47869D02*
X34381Y-48590D01*
X34920Y-47782D02*
X35132Y-48121D01*
X34677Y-47663D02*
X34783Y-48103D01*
X35099Y-47906D01*
X35307Y-48079D02*
X35694Y-47837D01*
X35786Y-47713D02*
X35468Y-47204D01*
X35864Y-47461D01*
X35807Y-46992D01*
X36125Y-47501D01*
X36252Y-47219D02*
X36494Y-47067D01*
X36294Y-47395D02*
X36146Y-46780D01*
X36634Y-47183D01*
X36803Y-47077D02*
X36485Y-46568D01*
X36679Y-46447D01*
X36743Y-46440D01*
X36782Y-46450D01*
X36837Y-46483D01*
X36882Y-46556D01*
X36888Y-46619D01*
X36879Y-46659D01*
X36845Y-46713D01*
X36652Y-46834D01*
G54D17*
X28589Y-51827D02*
X28577Y-51839D01*
X28542Y-51851D01*
X28518Y-51851D01*
X28482Y-51839D01*
X28458Y-51815D01*
X28447Y-51792D01*
X28435Y-51744D01*
X28435Y-51708D01*
X28447Y-51661D01*
X28458Y-51637D01*
X28482Y-51613D01*
X28518Y-51601D01*
X28542Y-51601D01*
X28577Y-51613D01*
X28589Y-51625D01*
X28685Y-51625D02*
X28697Y-51613D01*
X28720Y-51601D01*
X28780Y-51601D01*
X28804Y-51613D01*
X28816Y-51625D01*
X28827Y-51649D01*
X28827Y-51673D01*
X28816Y-51708D01*
X28673Y-51851D01*
X28827Y-51851D01*
X29054Y-51601D02*
X28935Y-51601D01*
X28923Y-51720D01*
X28935Y-51708D01*
X28958Y-51696D01*
X29018Y-51696D01*
X29042Y-51708D01*
X29054Y-51720D01*
X29065Y-51744D01*
X29065Y-51804D01*
X29054Y-51827D01*
X29042Y-51839D01*
X29018Y-51851D01*
X28958Y-51851D01*
X28935Y-51839D01*
X28923Y-51827D01*
X28128Y-50777D02*
X28139Y-50789D01*
X28128Y-50801D01*
X28116Y-50789D01*
X28128Y-50777D01*
X28128Y-50801D01*
X28294Y-50551D02*
X28318Y-50551D01*
X28342Y-50563D01*
X28354Y-50575D01*
X28366Y-50599D01*
X28377Y-50646D01*
X28377Y-50706D01*
X28366Y-50754D01*
X28354Y-50777D01*
X28342Y-50789D01*
X28318Y-50801D01*
X28294Y-50801D01*
X28270Y-50789D01*
X28258Y-50777D01*
X28247Y-50754D01*
X28235Y-50706D01*
X28235Y-50646D01*
X28247Y-50599D01*
X28258Y-50575D01*
X28270Y-50563D01*
X28294Y-50551D01*
X28473Y-50575D02*
X28485Y-50563D01*
X28508Y-50551D01*
X28568Y-50551D01*
X28592Y-50563D01*
X28604Y-50575D01*
X28615Y-50599D01*
X28615Y-50623D01*
X28604Y-50658D01*
X28461Y-50801D01*
X28615Y-50801D01*
X28830Y-50635D02*
X28830Y-50801D01*
X28723Y-50635D02*
X28723Y-50765D01*
X28734Y-50789D01*
X28758Y-50801D01*
X28794Y-50801D01*
X28818Y-50789D01*
X28830Y-50777D01*
X28913Y-50635D02*
X29008Y-50635D01*
X28949Y-50801D02*
X28949Y-50587D01*
X28960Y-50563D01*
X28984Y-50551D01*
X29008Y-50551D01*
X33058Y-52177D02*
X33046Y-52189D01*
X33011Y-52201D01*
X32987Y-52201D01*
X32951Y-52189D01*
X32927Y-52165D01*
X32916Y-52142D01*
X32904Y-52094D01*
X32904Y-52058D01*
X32916Y-52011D01*
X32927Y-51987D01*
X32951Y-51963D01*
X32987Y-51951D01*
X33011Y-51951D01*
X33046Y-51963D01*
X33058Y-51975D01*
X33273Y-52035D02*
X33273Y-52201D01*
X33213Y-51939D02*
X33154Y-52118D01*
X33308Y-52118D01*
X32626Y-50485D02*
X32626Y-50651D01*
X32566Y-50389D02*
X32507Y-50568D01*
X32661Y-50568D01*
X32733Y-50401D02*
X32899Y-50401D01*
X32792Y-50651D01*
X33042Y-50401D02*
X33066Y-50401D01*
X33090Y-50413D01*
X33102Y-50425D01*
X33114Y-50449D01*
X33125Y-50496D01*
X33125Y-50556D01*
X33114Y-50604D01*
X33102Y-50627D01*
X33090Y-50639D01*
X33066Y-50651D01*
X33042Y-50651D01*
X33018Y-50639D01*
X33006Y-50627D01*
X32995Y-50604D01*
X32983Y-50556D01*
X32983Y-50496D01*
X32995Y-50449D01*
X33006Y-50425D01*
X33018Y-50413D01*
X33042Y-50401D01*
X33233Y-50485D02*
X33233Y-50735D01*
X33233Y-50496D02*
X33256Y-50485D01*
X33304Y-50485D01*
X33328Y-50496D01*
X33340Y-50508D01*
X33352Y-50532D01*
X33352Y-50604D01*
X33340Y-50627D01*
X33328Y-50639D01*
X33304Y-50651D01*
X33256Y-50651D01*
X33233Y-50639D01*
X33423Y-50485D02*
X33518Y-50485D01*
X33459Y-50651D02*
X33459Y-50437D01*
X33470Y-50413D01*
X33494Y-50401D01*
X33518Y-50401D01*
X39308Y-52177D02*
X39296Y-52189D01*
X39261Y-52201D01*
X39237Y-52201D01*
X39201Y-52189D01*
X39177Y-52165D01*
X39166Y-52142D01*
X39154Y-52094D01*
X39154Y-52058D01*
X39166Y-52011D01*
X39177Y-51987D01*
X39201Y-51963D01*
X39237Y-51951D01*
X39261Y-51951D01*
X39296Y-51963D01*
X39308Y-51975D01*
X39523Y-51951D02*
X39475Y-51951D01*
X39451Y-51963D01*
X39439Y-51975D01*
X39416Y-52011D01*
X39404Y-52058D01*
X39404Y-52154D01*
X39416Y-52177D01*
X39427Y-52189D01*
X39451Y-52201D01*
X39499Y-52201D01*
X39523Y-52189D01*
X39535Y-52177D01*
X39546Y-52154D01*
X39546Y-52094D01*
X39535Y-52070D01*
X39523Y-52058D01*
X39499Y-52046D01*
X39451Y-52046D01*
X39427Y-52058D01*
X39416Y-52070D01*
X39404Y-52094D01*
X38185Y-51074D02*
X38351Y-51074D01*
X38089Y-51134D02*
X38268Y-51193D01*
X38268Y-51039D01*
X38101Y-50967D02*
X38101Y-50801D01*
X38351Y-50908D01*
X38101Y-50658D02*
X38101Y-50634D01*
X38113Y-50610D01*
X38125Y-50598D01*
X38149Y-50586D01*
X38196Y-50575D01*
X38256Y-50575D01*
X38304Y-50586D01*
X38327Y-50598D01*
X38339Y-50610D01*
X38351Y-50634D01*
X38351Y-50658D01*
X38339Y-50682D01*
X38327Y-50694D01*
X38304Y-50705D01*
X38256Y-50717D01*
X38196Y-50717D01*
X38149Y-50705D01*
X38125Y-50694D01*
X38113Y-50682D01*
X38101Y-50658D01*
X38185Y-50467D02*
X38435Y-50467D01*
X38196Y-50467D02*
X38185Y-50444D01*
X38185Y-50396D01*
X38196Y-50372D01*
X38208Y-50360D01*
X38232Y-50348D01*
X38304Y-50348D01*
X38327Y-50360D01*
X38339Y-50372D01*
X38351Y-50396D01*
X38351Y-50444D01*
X38339Y-50467D01*
X38185Y-50277D02*
X38185Y-50182D01*
X38351Y-50241D02*
X38137Y-50241D01*
X38113Y-50230D01*
X38101Y-50206D01*
X38101Y-50182D01*
X31158Y-52177D02*
X31146Y-52189D01*
X31111Y-52201D01*
X31087Y-52201D01*
X31051Y-52189D01*
X31027Y-52165D01*
X31016Y-52142D01*
X31004Y-52094D01*
X31004Y-52058D01*
X31016Y-52011D01*
X31027Y-51987D01*
X31051Y-51963D01*
X31087Y-51951D01*
X31111Y-51951D01*
X31146Y-51963D01*
X31158Y-51975D01*
X31254Y-51975D02*
X31266Y-51963D01*
X31289Y-51951D01*
X31349Y-51951D01*
X31373Y-51963D01*
X31385Y-51975D01*
X31396Y-51999D01*
X31396Y-52023D01*
X31385Y-52058D01*
X31242Y-52201D01*
X31396Y-52201D01*
X29935Y-51124D02*
X30101Y-51124D01*
X29839Y-51184D02*
X30018Y-51243D01*
X30018Y-51089D01*
X29851Y-51017D02*
X29851Y-50851D01*
X30101Y-50958D01*
X29851Y-50708D02*
X29851Y-50684D01*
X29863Y-50660D01*
X29875Y-50648D01*
X29899Y-50636D01*
X29946Y-50625D01*
X30006Y-50625D01*
X30054Y-50636D01*
X30077Y-50648D01*
X30089Y-50660D01*
X30101Y-50684D01*
X30101Y-50708D01*
X30089Y-50732D01*
X30077Y-50744D01*
X30054Y-50755D01*
X30006Y-50767D01*
X29946Y-50767D01*
X29899Y-50755D01*
X29875Y-50744D01*
X29863Y-50732D01*
X29851Y-50708D01*
X29935Y-50517D02*
X30185Y-50517D01*
X29946Y-50517D02*
X29935Y-50494D01*
X29935Y-50446D01*
X29946Y-50422D01*
X29958Y-50410D01*
X29982Y-50398D01*
X30054Y-50398D01*
X30077Y-50410D01*
X30089Y-50422D01*
X30101Y-50446D01*
X30101Y-50494D01*
X30089Y-50517D01*
X29935Y-50327D02*
X29935Y-50232D01*
X30101Y-50291D02*
X29887Y-50291D01*
X29863Y-50280D01*
X29851Y-50256D01*
X29851Y-50232D01*
X41258Y-52177D02*
X41246Y-52189D01*
X41211Y-52201D01*
X41187Y-52201D01*
X41151Y-52189D01*
X41127Y-52165D01*
X41116Y-52142D01*
X41104Y-52094D01*
X41104Y-52058D01*
X41116Y-52011D01*
X41127Y-51987D01*
X41151Y-51963D01*
X41187Y-51951D01*
X41211Y-51951D01*
X41246Y-51963D01*
X41258Y-51975D01*
X41401Y-52058D02*
X41377Y-52046D01*
X41366Y-52035D01*
X41354Y-52011D01*
X41354Y-51999D01*
X41366Y-51975D01*
X41377Y-51963D01*
X41401Y-51951D01*
X41449Y-51951D01*
X41473Y-51963D01*
X41485Y-51975D01*
X41496Y-51999D01*
X41496Y-52011D01*
X41485Y-52035D01*
X41473Y-52046D01*
X41449Y-52058D01*
X41401Y-52058D01*
X41377Y-52070D01*
X41366Y-52082D01*
X41354Y-52106D01*
X41354Y-52154D01*
X41366Y-52177D01*
X41377Y-52189D01*
X41401Y-52201D01*
X41449Y-52201D01*
X41473Y-52189D01*
X41485Y-52177D01*
X41496Y-52154D01*
X41496Y-52106D01*
X41485Y-52082D01*
X41473Y-52070D01*
X41449Y-52058D01*
X40826Y-50485D02*
X40826Y-50651D01*
X40766Y-50389D02*
X40707Y-50568D01*
X40861Y-50568D01*
X40933Y-50401D02*
X41099Y-50401D01*
X40992Y-50651D01*
X41242Y-50401D02*
X41266Y-50401D01*
X41290Y-50413D01*
X41302Y-50425D01*
X41314Y-50449D01*
X41325Y-50496D01*
X41325Y-50556D01*
X41314Y-50604D01*
X41302Y-50627D01*
X41290Y-50639D01*
X41266Y-50651D01*
X41242Y-50651D01*
X41218Y-50639D01*
X41206Y-50627D01*
X41195Y-50604D01*
X41183Y-50556D01*
X41183Y-50496D01*
X41195Y-50449D01*
X41206Y-50425D01*
X41218Y-50413D01*
X41242Y-50401D01*
X41433Y-50485D02*
X41433Y-50735D01*
X41433Y-50496D02*
X41456Y-50485D01*
X41504Y-50485D01*
X41528Y-50496D01*
X41540Y-50508D01*
X41552Y-50532D01*
X41552Y-50604D01*
X41540Y-50627D01*
X41528Y-50639D01*
X41504Y-50651D01*
X41456Y-50651D01*
X41433Y-50639D01*
X41623Y-50485D02*
X41718Y-50485D01*
X41659Y-50651D02*
X41659Y-50437D01*
X41670Y-50413D01*
X41694Y-50401D01*
X41718Y-50401D01*
X42608Y-52177D02*
X42596Y-52189D01*
X42561Y-52201D01*
X42537Y-52201D01*
X42501Y-52189D01*
X42477Y-52165D01*
X42466Y-52142D01*
X42454Y-52094D01*
X42454Y-52058D01*
X42466Y-52011D01*
X42477Y-51987D01*
X42501Y-51963D01*
X42537Y-51951D01*
X42561Y-51951D01*
X42596Y-51963D01*
X42608Y-51975D01*
X42835Y-51951D02*
X42716Y-51951D01*
X42704Y-52070D01*
X42716Y-52058D01*
X42739Y-52046D01*
X42799Y-52046D01*
X42823Y-52058D01*
X42835Y-52070D01*
X42846Y-52094D01*
X42846Y-52154D01*
X42835Y-52177D01*
X42823Y-52189D01*
X42799Y-52201D01*
X42739Y-52201D01*
X42716Y-52189D01*
X42704Y-52177D01*
X44327Y-51422D02*
X44339Y-51411D01*
X44351Y-51422D01*
X44339Y-51434D01*
X44327Y-51422D01*
X44351Y-51422D01*
X44101Y-51256D02*
X44101Y-51232D01*
X44113Y-51208D01*
X44125Y-51196D01*
X44149Y-51184D01*
X44196Y-51173D01*
X44256Y-51173D01*
X44304Y-51184D01*
X44327Y-51196D01*
X44339Y-51208D01*
X44351Y-51232D01*
X44351Y-51256D01*
X44339Y-51280D01*
X44327Y-51292D01*
X44304Y-51303D01*
X44256Y-51315D01*
X44196Y-51315D01*
X44149Y-51303D01*
X44125Y-51292D01*
X44113Y-51280D01*
X44101Y-51256D01*
X44125Y-51077D02*
X44113Y-51065D01*
X44101Y-51042D01*
X44101Y-50982D01*
X44113Y-50958D01*
X44125Y-50946D01*
X44149Y-50935D01*
X44173Y-50935D01*
X44208Y-50946D01*
X44351Y-51089D01*
X44351Y-50935D01*
X44185Y-50720D02*
X44351Y-50720D01*
X44185Y-50827D02*
X44315Y-50827D01*
X44339Y-50816D01*
X44351Y-50792D01*
X44351Y-50756D01*
X44339Y-50732D01*
X44327Y-50720D01*
X44185Y-50637D02*
X44185Y-50542D01*
X44351Y-50601D02*
X44137Y-50601D01*
X44113Y-50590D01*
X44101Y-50566D01*
X44101Y-50542D01*
X34408Y-52227D02*
X34396Y-52239D01*
X34361Y-52251D01*
X34337Y-52251D01*
X34301Y-52239D01*
X34277Y-52215D01*
X34266Y-52192D01*
X34254Y-52144D01*
X34254Y-52108D01*
X34266Y-52061D01*
X34277Y-52037D01*
X34301Y-52013D01*
X34337Y-52001D01*
X34361Y-52001D01*
X34396Y-52013D01*
X34408Y-52025D01*
X34646Y-52251D02*
X34504Y-52251D01*
X34575Y-52251D02*
X34575Y-52001D01*
X34551Y-52037D01*
X34527Y-52061D01*
X34504Y-52073D01*
X36077Y-51522D02*
X36089Y-51511D01*
X36101Y-51522D01*
X36089Y-51534D01*
X36077Y-51522D01*
X36101Y-51522D01*
X35851Y-51356D02*
X35851Y-51332D01*
X35863Y-51308D01*
X35875Y-51296D01*
X35899Y-51284D01*
X35946Y-51273D01*
X36006Y-51273D01*
X36054Y-51284D01*
X36077Y-51296D01*
X36089Y-51308D01*
X36101Y-51332D01*
X36101Y-51356D01*
X36089Y-51380D01*
X36077Y-51392D01*
X36054Y-51403D01*
X36006Y-51415D01*
X35946Y-51415D01*
X35899Y-51403D01*
X35875Y-51392D01*
X35863Y-51380D01*
X35851Y-51356D01*
X35875Y-51177D02*
X35863Y-51165D01*
X35851Y-51142D01*
X35851Y-51082D01*
X35863Y-51058D01*
X35875Y-51046D01*
X35899Y-51035D01*
X35923Y-51035D01*
X35958Y-51046D01*
X36101Y-51189D01*
X36101Y-51035D01*
X35935Y-50820D02*
X36101Y-50820D01*
X35935Y-50927D02*
X36065Y-50927D01*
X36089Y-50916D01*
X36101Y-50892D01*
X36101Y-50856D01*
X36089Y-50832D01*
X36077Y-50820D01*
X35935Y-50737D02*
X35935Y-50642D01*
X36101Y-50701D02*
X35887Y-50701D01*
X35863Y-50690D01*
X35851Y-50666D01*
X35851Y-50642D01*
X26239Y-53377D02*
X26227Y-53389D01*
X26192Y-53401D01*
X26168Y-53401D01*
X26132Y-53389D01*
X26108Y-53365D01*
X26097Y-53342D01*
X26085Y-53294D01*
X26085Y-53258D01*
X26097Y-53211D01*
X26108Y-53187D01*
X26132Y-53163D01*
X26168Y-53151D01*
X26192Y-53151D01*
X26227Y-53163D01*
X26239Y-53175D01*
X26335Y-53175D02*
X26347Y-53163D01*
X26370Y-53151D01*
X26430Y-53151D01*
X26454Y-53163D01*
X26466Y-53175D01*
X26477Y-53199D01*
X26477Y-53223D01*
X26466Y-53258D01*
X26323Y-53401D01*
X26477Y-53401D01*
X26561Y-53151D02*
X26727Y-53151D01*
X26620Y-53401D01*
X25887Y-52351D02*
X25745Y-52351D01*
X25816Y-52351D02*
X25816Y-52101D01*
X25792Y-52137D01*
X25768Y-52161D01*
X25745Y-52173D01*
X26102Y-52185D02*
X26102Y-52351D01*
X25995Y-52185D02*
X25995Y-52315D01*
X26006Y-52339D01*
X26030Y-52351D01*
X26066Y-52351D01*
X26090Y-52339D01*
X26102Y-52327D01*
X26185Y-52185D02*
X26280Y-52185D01*
X26221Y-52351D02*
X26221Y-52137D01*
X26232Y-52113D01*
X26256Y-52101D01*
X26280Y-52101D01*
X24327Y-45161D02*
X24339Y-45173D01*
X24351Y-45208D01*
X24351Y-45232D01*
X24339Y-45268D01*
X24315Y-45292D01*
X24292Y-45303D01*
X24244Y-45315D01*
X24208Y-45315D01*
X24161Y-45303D01*
X24137Y-45292D01*
X24113Y-45268D01*
X24101Y-45232D01*
X24101Y-45208D01*
X24113Y-45173D01*
X24125Y-45161D01*
X24101Y-45077D02*
X24101Y-44923D01*
X24196Y-45006D01*
X24196Y-44970D01*
X24208Y-44946D01*
X24220Y-44934D01*
X24244Y-44923D01*
X24304Y-44923D01*
X24327Y-44934D01*
X24339Y-44946D01*
X24351Y-44970D01*
X24351Y-45042D01*
X24339Y-45065D01*
X24327Y-45077D01*
X24351Y-44685D02*
X24351Y-44827D01*
X24351Y-44756D02*
X24101Y-44756D01*
X24137Y-44780D01*
X24161Y-44804D01*
X24173Y-44827D01*
X24751Y-45351D02*
X24751Y-45493D01*
X24751Y-45422D02*
X24501Y-45422D01*
X24537Y-45446D01*
X24561Y-45470D01*
X24573Y-45493D01*
X24501Y-45196D02*
X24501Y-45172D01*
X24513Y-45148D01*
X24525Y-45136D01*
X24549Y-45124D01*
X24596Y-45113D01*
X24656Y-45113D01*
X24704Y-45124D01*
X24727Y-45136D01*
X24739Y-45148D01*
X24751Y-45172D01*
X24751Y-45196D01*
X24739Y-45220D01*
X24727Y-45232D01*
X24704Y-45243D01*
X24656Y-45255D01*
X24596Y-45255D01*
X24549Y-45243D01*
X24525Y-45232D01*
X24513Y-45220D01*
X24501Y-45196D01*
X24501Y-44958D02*
X24501Y-44934D01*
X24513Y-44910D01*
X24525Y-44898D01*
X24549Y-44886D01*
X24596Y-44875D01*
X24656Y-44875D01*
X24704Y-44886D01*
X24727Y-44898D01*
X24739Y-44910D01*
X24751Y-44934D01*
X24751Y-44958D01*
X24739Y-44982D01*
X24727Y-44994D01*
X24704Y-45005D01*
X24656Y-45017D01*
X24596Y-45017D01*
X24549Y-45005D01*
X24525Y-44994D01*
X24513Y-44982D01*
X24501Y-44958D01*
X24585Y-44767D02*
X24835Y-44767D01*
X24596Y-44767D02*
X24585Y-44744D01*
X24585Y-44696D01*
X24596Y-44672D01*
X24608Y-44660D01*
X24632Y-44648D01*
X24704Y-44648D01*
X24727Y-44660D01*
X24739Y-44672D01*
X24751Y-44696D01*
X24751Y-44744D01*
X24739Y-44767D01*
X24585Y-44577D02*
X24585Y-44482D01*
X24751Y-44541D02*
X24537Y-44541D01*
X24513Y-44530D01*
X24501Y-44506D01*
X24501Y-44482D01*
X25727Y-49561D02*
X25739Y-49573D01*
X25751Y-49608D01*
X25751Y-49632D01*
X25739Y-49668D01*
X25715Y-49692D01*
X25692Y-49703D01*
X25644Y-49715D01*
X25608Y-49715D01*
X25561Y-49703D01*
X25537Y-49692D01*
X25513Y-49668D01*
X25501Y-49632D01*
X25501Y-49608D01*
X25513Y-49573D01*
X25525Y-49561D01*
X25501Y-49477D02*
X25501Y-49323D01*
X25596Y-49406D01*
X25596Y-49370D01*
X25608Y-49346D01*
X25620Y-49334D01*
X25644Y-49323D01*
X25704Y-49323D01*
X25727Y-49334D01*
X25739Y-49346D01*
X25751Y-49370D01*
X25751Y-49442D01*
X25739Y-49465D01*
X25727Y-49477D01*
X25501Y-49239D02*
X25501Y-49085D01*
X25596Y-49168D01*
X25596Y-49132D01*
X25608Y-49108D01*
X25620Y-49096D01*
X25644Y-49085D01*
X25704Y-49085D01*
X25727Y-49096D01*
X25739Y-49108D01*
X25751Y-49132D01*
X25751Y-49204D01*
X25739Y-49227D01*
X25727Y-49239D01*
X26601Y-49832D02*
X26601Y-49974D01*
X26601Y-49903D02*
X26351Y-49903D01*
X26387Y-49927D01*
X26411Y-49951D01*
X26423Y-49974D01*
X26351Y-49677D02*
X26351Y-49653D01*
X26363Y-49629D01*
X26375Y-49617D01*
X26399Y-49605D01*
X26446Y-49594D01*
X26506Y-49594D01*
X26554Y-49605D01*
X26577Y-49617D01*
X26589Y-49629D01*
X26601Y-49653D01*
X26601Y-49677D01*
X26589Y-49701D01*
X26577Y-49713D01*
X26554Y-49724D01*
X26506Y-49736D01*
X26446Y-49736D01*
X26399Y-49724D01*
X26375Y-49713D01*
X26363Y-49701D01*
X26351Y-49677D01*
X26435Y-49379D02*
X26601Y-49379D01*
X26435Y-49486D02*
X26565Y-49486D01*
X26589Y-49475D01*
X26601Y-49451D01*
X26601Y-49415D01*
X26589Y-49391D01*
X26577Y-49379D01*
X26435Y-49296D02*
X26435Y-49201D01*
X26601Y-49260D02*
X26387Y-49260D01*
X26363Y-49249D01*
X26351Y-49225D01*
X26351Y-49201D01*
X27039Y-44377D02*
X27027Y-44389D01*
X26992Y-44401D01*
X26968Y-44401D01*
X26932Y-44389D01*
X26908Y-44365D01*
X26897Y-44342D01*
X26885Y-44294D01*
X26885Y-44258D01*
X26897Y-44211D01*
X26908Y-44187D01*
X26932Y-44163D01*
X26968Y-44151D01*
X26992Y-44151D01*
X27027Y-44163D01*
X27039Y-44175D01*
X27135Y-44175D02*
X27147Y-44163D01*
X27170Y-44151D01*
X27230Y-44151D01*
X27254Y-44163D01*
X27266Y-44175D01*
X27277Y-44199D01*
X27277Y-44223D01*
X27266Y-44258D01*
X27123Y-44401D01*
X27277Y-44401D01*
X27420Y-44258D02*
X27396Y-44246D01*
X27385Y-44235D01*
X27373Y-44211D01*
X27373Y-44199D01*
X27385Y-44175D01*
X27396Y-44163D01*
X27420Y-44151D01*
X27468Y-44151D01*
X27492Y-44163D01*
X27504Y-44175D01*
X27515Y-44199D01*
X27515Y-44211D01*
X27504Y-44235D01*
X27492Y-44246D01*
X27468Y-44258D01*
X27420Y-44258D01*
X27396Y-44270D01*
X27385Y-44282D01*
X27373Y-44306D01*
X27373Y-44354D01*
X27385Y-44377D01*
X27396Y-44389D01*
X27420Y-44401D01*
X27468Y-44401D01*
X27492Y-44389D01*
X27504Y-44377D01*
X27515Y-44354D01*
X27515Y-44306D01*
X27504Y-44282D01*
X27492Y-44270D01*
X27468Y-44258D01*
X27018Y-44751D02*
X26876Y-44751D01*
X26947Y-44751D02*
X26947Y-44501D01*
X26923Y-44537D01*
X26899Y-44561D01*
X26876Y-44573D01*
X27173Y-44501D02*
X27197Y-44501D01*
X27221Y-44513D01*
X27233Y-44525D01*
X27245Y-44549D01*
X27256Y-44596D01*
X27256Y-44656D01*
X27245Y-44704D01*
X27233Y-44727D01*
X27221Y-44739D01*
X27197Y-44751D01*
X27173Y-44751D01*
X27149Y-44739D01*
X27137Y-44727D01*
X27126Y-44704D01*
X27114Y-44656D01*
X27114Y-44596D01*
X27126Y-44549D01*
X27137Y-44525D01*
X27149Y-44513D01*
X27173Y-44501D01*
X27471Y-44585D02*
X27471Y-44751D01*
X27364Y-44585D02*
X27364Y-44715D01*
X27375Y-44739D01*
X27399Y-44751D01*
X27435Y-44751D01*
X27459Y-44739D01*
X27471Y-44727D01*
X27554Y-44585D02*
X27649Y-44585D01*
X27590Y-44751D02*
X27590Y-44537D01*
X27601Y-44513D01*
X27625Y-44501D01*
X27649Y-44501D01*
X27989Y-52427D02*
X27977Y-52439D01*
X27942Y-52451D01*
X27918Y-52451D01*
X27882Y-52439D01*
X27858Y-52415D01*
X27847Y-52392D01*
X27835Y-52344D01*
X27835Y-52308D01*
X27847Y-52261D01*
X27858Y-52237D01*
X27882Y-52213D01*
X27918Y-52201D01*
X27942Y-52201D01*
X27977Y-52213D01*
X27989Y-52225D01*
X28085Y-52225D02*
X28097Y-52213D01*
X28120Y-52201D01*
X28180Y-52201D01*
X28204Y-52213D01*
X28216Y-52225D01*
X28227Y-52249D01*
X28227Y-52273D01*
X28216Y-52308D01*
X28073Y-52451D01*
X28227Y-52451D01*
X28442Y-52201D02*
X28394Y-52201D01*
X28370Y-52213D01*
X28358Y-52225D01*
X28335Y-52261D01*
X28323Y-52308D01*
X28323Y-52404D01*
X28335Y-52427D01*
X28346Y-52439D01*
X28370Y-52451D01*
X28418Y-52451D01*
X28442Y-52439D01*
X28454Y-52427D01*
X28465Y-52404D01*
X28465Y-52344D01*
X28454Y-52320D01*
X28442Y-52308D01*
X28418Y-52296D01*
X28370Y-52296D01*
X28346Y-52308D01*
X28335Y-52320D01*
X28323Y-52344D01*
X27126Y-51435D02*
X27126Y-51601D01*
X27066Y-51339D02*
X27007Y-51518D01*
X27161Y-51518D01*
X27233Y-51351D02*
X27399Y-51351D01*
X27292Y-51601D01*
X27542Y-51351D02*
X27566Y-51351D01*
X27590Y-51363D01*
X27602Y-51375D01*
X27614Y-51399D01*
X27625Y-51446D01*
X27625Y-51506D01*
X27614Y-51554D01*
X27602Y-51577D01*
X27590Y-51589D01*
X27566Y-51601D01*
X27542Y-51601D01*
X27518Y-51589D01*
X27506Y-51577D01*
X27495Y-51554D01*
X27483Y-51506D01*
X27483Y-51446D01*
X27495Y-51399D01*
X27506Y-51375D01*
X27518Y-51363D01*
X27542Y-51351D01*
X27733Y-51435D02*
X27733Y-51685D01*
X27733Y-51446D02*
X27756Y-51435D01*
X27804Y-51435D01*
X27828Y-51446D01*
X27840Y-51458D01*
X27852Y-51482D01*
X27852Y-51554D01*
X27840Y-51577D01*
X27828Y-51589D01*
X27804Y-51601D01*
X27756Y-51601D01*
X27733Y-51589D01*
X27923Y-51435D02*
X28018Y-51435D01*
X27959Y-51601D02*
X27959Y-51387D01*
X27970Y-51363D01*
X27994Y-51351D01*
X28018Y-51351D01*
G54D13*
X26503Y-44901D02*
X26503Y-45104D01*
X26512Y-45127D01*
X26522Y-45139D01*
X26541Y-45151D01*
X26579Y-45151D01*
X26598Y-45139D01*
X26607Y-45127D01*
X26617Y-45104D01*
X26617Y-44901D01*
X26817Y-45151D02*
X26703Y-45151D01*
X26760Y-45151D02*
X26760Y-44901D01*
X26741Y-44937D01*
X26722Y-44961D01*
X26703Y-44973D01*
X26988Y-44985D02*
X26988Y-45151D01*
X26941Y-44889D02*
X26893Y-45068D01*
X27017Y-45068D01*
X21353Y-54621D02*
X21353Y-54864D01*
X21362Y-54893D01*
X21372Y-54907D01*
X21391Y-54921D01*
X21429Y-54921D01*
X21448Y-54907D01*
X21457Y-54893D01*
X21467Y-54864D01*
X21467Y-54621D01*
X21667Y-54921D02*
X21553Y-54921D01*
X21610Y-54921D02*
X21610Y-54621D01*
X21591Y-54664D01*
X21572Y-54693D01*
X21553Y-54707D01*
X21848Y-54621D02*
X21753Y-54621D01*
X21743Y-54764D01*
X21753Y-54750D01*
X21772Y-54736D01*
X21819Y-54736D01*
X21838Y-54750D01*
X21848Y-54764D01*
X21857Y-54793D01*
X21857Y-54864D01*
X21848Y-54893D01*
X21838Y-54907D01*
X21819Y-54921D01*
X21772Y-54921D01*
X21753Y-54907D01*
X21743Y-54893D01*
G54D18*
X21468Y-54021D02*
X21601Y-54021D01*
X21515Y-54321D01*
X21705Y-54150D02*
X21686Y-54136D01*
X21677Y-54121D01*
X21667Y-54093D01*
X21667Y-54079D01*
X21677Y-54050D01*
X21686Y-54036D01*
X21705Y-54021D01*
X21743Y-54021D01*
X21762Y-54036D01*
X21772Y-54050D01*
X21781Y-54079D01*
X21781Y-54093D01*
X21772Y-54121D01*
X21762Y-54136D01*
X21743Y-54150D01*
X21705Y-54150D01*
X21686Y-54164D01*
X21677Y-54179D01*
X21667Y-54207D01*
X21667Y-54264D01*
X21677Y-54293D01*
X21686Y-54307D01*
X21705Y-54321D01*
X21743Y-54321D01*
X21762Y-54307D01*
X21772Y-54293D01*
X21781Y-54264D01*
X21781Y-54207D01*
X21772Y-54179D01*
X21762Y-54164D01*
X21743Y-54150D01*
X21962Y-54321D02*
X21867Y-54321D01*
X21867Y-54021D01*
X22067Y-54021D02*
X22086Y-54021D01*
X22105Y-54036D01*
X22114Y-54050D01*
X22124Y-54079D01*
X22133Y-54136D01*
X22133Y-54207D01*
X22124Y-54264D01*
X22114Y-54293D01*
X22105Y-54307D01*
X22086Y-54321D01*
X22067Y-54321D01*
X22048Y-54307D01*
X22038Y-54293D01*
X22029Y-54264D01*
X22019Y-54207D01*
X22019Y-54136D01*
X22029Y-54079D01*
X22038Y-54050D01*
X22048Y-54036D01*
X22067Y-54021D01*
X22314Y-54021D02*
X22219Y-54021D01*
X22209Y-54164D01*
X22219Y-54150D01*
X22238Y-54136D01*
X22285Y-54136D01*
X22304Y-54150D01*
X22314Y-54164D01*
X22323Y-54193D01*
X22323Y-54264D01*
X22314Y-54293D01*
X22304Y-54307D01*
X22285Y-54321D01*
X22238Y-54321D01*
X22219Y-54307D01*
X22209Y-54293D01*
X29053Y-47131D02*
X29053Y-47293D01*
X29062Y-47312D01*
X29072Y-47321D01*
X29091Y-47331D01*
X29129Y-47331D01*
X29148Y-47321D01*
X29157Y-47312D01*
X29167Y-47293D01*
X29167Y-47131D01*
X29367Y-47331D02*
X29253Y-47331D01*
X29310Y-47331D02*
X29310Y-47131D01*
X29291Y-47160D01*
X29272Y-47179D01*
X29253Y-47188D01*
X29434Y-47131D02*
X29567Y-47131D01*
X29481Y-47331D01*
G54D19*
X28511Y-47921D02*
X28511Y-47835D01*
X28661Y-47878D02*
X28511Y-47878D01*
X28661Y-47714D02*
X28661Y-47785D01*
X28511Y-47785D01*
X28511Y-47636D02*
X28511Y-47621D01*
X28518Y-47607D01*
X28525Y-47600D01*
X28539Y-47593D01*
X28568Y-47586D01*
X28604Y-47586D01*
X28632Y-47593D01*
X28646Y-47600D01*
X28654Y-47607D01*
X28661Y-47621D01*
X28661Y-47636D01*
X28654Y-47650D01*
X28646Y-47657D01*
X28632Y-47664D01*
X28604Y-47671D01*
X28568Y-47671D01*
X28539Y-47664D01*
X28525Y-47657D01*
X28518Y-47650D01*
X28511Y-47636D01*
X28575Y-47500D02*
X28568Y-47514D01*
X28561Y-47521D01*
X28546Y-47528D01*
X28539Y-47528D01*
X28525Y-47521D01*
X28518Y-47514D01*
X28511Y-47500D01*
X28511Y-47471D01*
X28518Y-47457D01*
X28525Y-47450D01*
X28539Y-47443D01*
X28546Y-47443D01*
X28561Y-47450D01*
X28568Y-47457D01*
X28575Y-47471D01*
X28575Y-47500D01*
X28582Y-47514D01*
X28589Y-47521D01*
X28604Y-47528D01*
X28632Y-47528D01*
X28646Y-47521D01*
X28654Y-47514D01*
X28661Y-47500D01*
X28661Y-47471D01*
X28654Y-47457D01*
X28646Y-47450D01*
X28632Y-47443D01*
X28604Y-47443D01*
X28589Y-47450D01*
X28582Y-47457D01*
X28575Y-47471D01*
X28525Y-47385D02*
X28518Y-47378D01*
X28511Y-47364D01*
X28511Y-47328D01*
X28518Y-47314D01*
X28525Y-47307D01*
X28539Y-47300D01*
X28554Y-47300D01*
X28575Y-47307D01*
X28661Y-47393D01*
X28661Y-47300D01*
X28646Y-47150D02*
X28654Y-47157D01*
X28661Y-47178D01*
X28661Y-47192D01*
X28654Y-47214D01*
X28639Y-47228D01*
X28625Y-47235D01*
X28596Y-47242D01*
X28575Y-47242D01*
X28546Y-47235D01*
X28532Y-47228D01*
X28518Y-47214D01*
X28511Y-47192D01*
X28511Y-47178D01*
X28518Y-47157D01*
X28525Y-47150D01*
X28661Y-47085D02*
X28511Y-47085D01*
X28661Y-47000D01*
X28511Y-47000D01*
G54D13*
X31403Y-44631D02*
X31403Y-44431D01*
X31479Y-44431D01*
X31498Y-44440D01*
X31507Y-44450D01*
X31517Y-44469D01*
X31517Y-44498D01*
X31507Y-44517D01*
X31498Y-44526D01*
X31479Y-44536D01*
X31403Y-44536D01*
X31593Y-44450D02*
X31603Y-44440D01*
X31622Y-44431D01*
X31669Y-44431D01*
X31688Y-44440D01*
X31698Y-44450D01*
X31707Y-44469D01*
X31707Y-44488D01*
X31698Y-44517D01*
X31584Y-44631D01*
X31707Y-44631D01*
X28481Y-54847D02*
X28281Y-54847D01*
X28281Y-54771D01*
X28290Y-54752D01*
X28300Y-54743D01*
X28319Y-54733D01*
X28348Y-54733D01*
X28367Y-54743D01*
X28376Y-54752D01*
X28386Y-54771D01*
X28386Y-54847D01*
X28281Y-54666D02*
X28281Y-54543D01*
X28357Y-54609D01*
X28357Y-54581D01*
X28367Y-54562D01*
X28376Y-54552D01*
X28395Y-54543D01*
X28443Y-54543D01*
X28462Y-54552D01*
X28471Y-54562D01*
X28481Y-54581D01*
X28481Y-54638D01*
X28471Y-54657D01*
X28462Y-54666D01*
M02*
