G04 (Genere par PCBNEW (2007-07-09)) le 4/5/2010-01:40:50*
G01*
G70*
G90*
%MOIN*%
G04 Gerber Fmt 3.4, Leading zero omitted, Abs format*
%FSLAX34Y34*%
G04 APERTURE LIST*
%ADD10C,0.015000*%
%ADD11C,0.070000*%
%ADD12R,0.070000X0.070000*%
%ADD13C,0.060000*%
%ADD14C,0.130000*%
%ADD15R,0.075000X0.070000*%
%ADD16R,0.030000X0.020000*%
%ADD17R,0.055000X0.035000*%
%ADD18R,0.035000X0.055000*%
%ADD19R,0.055000X0.055000*%
%ADD20C,0.055000*%
%ADD21C,0.045000*%
%ADD22C,0.010000*%
%ADD23C,0.025000*%
%ADD24R,0.098400X0.090600*%
%ADD25R,0.090000X0.006000*%
%ADD26R,0.090600X0.098400*%
%ADD27R,0.006000X0.090000*%
%ADD28R,0.230000X0.006000*%
%ADD29R,0.060000X0.060000*%
%ADD30R,0.006000X0.230000*%
%ADD31R,0.045000X0.020000*%
%ADD32C,0.012000*%
%ADD33C,0.005000*%
%ADD34C,0.001000*%
%ADD35C,0.015000*%
%ADD36C,0.004000*%
%ADD37C,0.008000*%
%ADD38C,0.002000*%
%ADD39C,0.006000*%
%ADD40C,0.080000*%
%ADD41C,0.090000*%
%ADD42R,0.090000X0.090000*%
%ADD43C,0.080000*%
%ADD44C,0.150000*%
%ADD45R,0.095000X0.090000*%
%ADD46R,0.050000X0.040000*%
%ADD47R,0.075000X0.055000*%
%ADD48R,0.055000X0.075000*%
%ADD49R,0.075000X0.075000*%
%ADD50C,0.075000*%
G04 APERTURE END LIST*
G54D10*
X21000Y-55200D02*
X21000Y-55000D01*
X81000Y-43450D02*
X81000Y-43250D01*
X54000Y-47500D02*
X48000Y-47500D01*
X31600Y-46500D02*
X31496Y-46511D01*
X31496Y-46511D02*
X31397Y-46543D01*
X31397Y-46543D02*
X31306Y-46595D01*
X31306Y-46595D02*
X31228Y-46665D01*
X31228Y-46665D02*
X31167Y-46750D01*
X31167Y-46750D02*
X31124Y-46845D01*
X31124Y-46845D02*
X31103Y-46948D01*
X31103Y-46948D02*
X31100Y-47000D01*
X31100Y-47000D02*
X31111Y-47104D01*
X31111Y-47104D02*
X31143Y-47203D01*
X31143Y-47203D02*
X31195Y-47294D01*
X31195Y-47294D02*
X31265Y-47372D01*
X31265Y-47372D02*
X31350Y-47433D01*
X31350Y-47433D02*
X31445Y-47476D01*
X31445Y-47476D02*
X31548Y-47497D01*
X31548Y-47497D02*
X31600Y-47500D01*
X37600Y-47500D02*
X37704Y-47489D01*
X37704Y-47489D02*
X37803Y-47457D01*
X37803Y-47457D02*
X37894Y-47405D01*
X37894Y-47405D02*
X37972Y-47335D01*
X37972Y-47335D02*
X38033Y-47250D01*
X38033Y-47250D02*
X38076Y-47155D01*
X38076Y-47155D02*
X38097Y-47052D01*
X38097Y-47052D02*
X38100Y-47000D01*
X38100Y-47000D02*
X38089Y-46896D01*
X38089Y-46896D02*
X38057Y-46797D01*
X38057Y-46797D02*
X38005Y-46706D01*
X38005Y-46706D02*
X37935Y-46628D01*
X37935Y-46628D02*
X37850Y-46567D01*
X37850Y-46567D02*
X37755Y-46524D01*
X37755Y-46524D02*
X37652Y-46503D01*
X37652Y-46503D02*
X37600Y-46500D01*
X39800Y-46500D02*
X39696Y-46511D01*
X39696Y-46511D02*
X39597Y-46543D01*
X39597Y-46543D02*
X39506Y-46595D01*
X39506Y-46595D02*
X39428Y-46665D01*
X39428Y-46665D02*
X39367Y-46750D01*
X39367Y-46750D02*
X39324Y-46845D01*
X39324Y-46845D02*
X39303Y-46948D01*
X39303Y-46948D02*
X39300Y-47000D01*
X39300Y-47000D02*
X39311Y-47104D01*
X39311Y-47104D02*
X39343Y-47203D01*
X39343Y-47203D02*
X39395Y-47294D01*
X39395Y-47294D02*
X39465Y-47372D01*
X39465Y-47372D02*
X39550Y-47433D01*
X39550Y-47433D02*
X39645Y-47476D01*
X39645Y-47476D02*
X39748Y-47497D01*
X39748Y-47497D02*
X39800Y-47500D01*
X45800Y-47500D02*
X45904Y-47489D01*
X45904Y-47489D02*
X46003Y-47457D01*
X46003Y-47457D02*
X46094Y-47405D01*
X46094Y-47405D02*
X46172Y-47335D01*
X46172Y-47335D02*
X46233Y-47250D01*
X46233Y-47250D02*
X46276Y-47155D01*
X46276Y-47155D02*
X46297Y-47052D01*
X46297Y-47052D02*
X46300Y-47000D01*
X46300Y-47000D02*
X46289Y-46896D01*
X46289Y-46896D02*
X46257Y-46797D01*
X46257Y-46797D02*
X46205Y-46706D01*
X46205Y-46706D02*
X46135Y-46628D01*
X46135Y-46628D02*
X46050Y-46567D01*
X46050Y-46567D02*
X45955Y-46524D01*
X45955Y-46524D02*
X45852Y-46503D01*
X45852Y-46503D02*
X45800Y-46500D01*
X48000Y-46500D02*
X47896Y-46511D01*
X47896Y-46511D02*
X47797Y-46543D01*
X47797Y-46543D02*
X47706Y-46595D01*
X47706Y-46595D02*
X47628Y-46665D01*
X47628Y-46665D02*
X47567Y-46750D01*
X47567Y-46750D02*
X47524Y-46845D01*
X47524Y-46845D02*
X47503Y-46948D01*
X47503Y-46948D02*
X47500Y-47000D01*
X47500Y-47000D02*
X47511Y-47104D01*
X47511Y-47104D02*
X47543Y-47203D01*
X47543Y-47203D02*
X47595Y-47294D01*
X47595Y-47294D02*
X47665Y-47372D01*
X47665Y-47372D02*
X47750Y-47433D01*
X47750Y-47433D02*
X47845Y-47476D01*
X47845Y-47476D02*
X47948Y-47497D01*
X47948Y-47497D02*
X48000Y-47500D01*
X54000Y-47500D02*
X54104Y-47489D01*
X54104Y-47489D02*
X54203Y-47457D01*
X54203Y-47457D02*
X54294Y-47405D01*
X54294Y-47405D02*
X54372Y-47335D01*
X54372Y-47335D02*
X54433Y-47250D01*
X54433Y-47250D02*
X54476Y-47155D01*
X54476Y-47155D02*
X54497Y-47052D01*
X54497Y-47052D02*
X54500Y-47000D01*
X54500Y-47000D02*
X54489Y-46896D01*
X54489Y-46896D02*
X54457Y-46797D01*
X54457Y-46797D02*
X54405Y-46706D01*
X54405Y-46706D02*
X54335Y-46628D01*
X54335Y-46628D02*
X54250Y-46567D01*
X54250Y-46567D02*
X54155Y-46524D01*
X54155Y-46524D02*
X54052Y-46503D01*
X54052Y-46503D02*
X54000Y-46500D01*
X55900Y-47000D02*
X55911Y-47104D01*
X55911Y-47104D02*
X55943Y-47203D01*
X55943Y-47203D02*
X55995Y-47294D01*
X55995Y-47294D02*
X56065Y-47372D01*
X56065Y-47372D02*
X56150Y-47433D01*
X56150Y-47433D02*
X56245Y-47476D01*
X56245Y-47476D02*
X56348Y-47497D01*
X56348Y-47497D02*
X56400Y-47500D01*
X56400Y-46500D02*
X56296Y-46511D01*
X56296Y-46511D02*
X56197Y-46543D01*
X56197Y-46543D02*
X56106Y-46595D01*
X56106Y-46595D02*
X56028Y-46665D01*
X56028Y-46665D02*
X55967Y-46750D01*
X55967Y-46750D02*
X55924Y-46845D01*
X55924Y-46845D02*
X55903Y-46948D01*
X55903Y-46948D02*
X55900Y-47000D01*
X62300Y-47500D02*
X62404Y-47489D01*
X62404Y-47489D02*
X62503Y-47457D01*
X62503Y-47457D02*
X62594Y-47405D01*
X62594Y-47405D02*
X62672Y-47335D01*
X62672Y-47335D02*
X62733Y-47250D01*
X62733Y-47250D02*
X62776Y-47155D01*
X62776Y-47155D02*
X62797Y-47052D01*
X62797Y-47052D02*
X62800Y-47000D01*
X62800Y-47000D02*
X62789Y-46896D01*
X62789Y-46896D02*
X62757Y-46797D01*
X62757Y-46797D02*
X62705Y-46706D01*
X62705Y-46706D02*
X62635Y-46628D01*
X62635Y-46628D02*
X62550Y-46567D01*
X62550Y-46567D02*
X62455Y-46524D01*
X62455Y-46524D02*
X62352Y-46503D01*
X62352Y-46503D02*
X62300Y-46500D01*
X31600Y-47500D02*
X37600Y-47500D01*
X37600Y-46500D02*
X31600Y-46500D01*
X39800Y-47500D02*
X45800Y-47500D01*
X45800Y-46500D02*
X39800Y-46500D01*
X54000Y-46500D02*
X48000Y-46500D01*
X56400Y-46500D02*
X62300Y-46500D01*
X62300Y-47500D02*
X56400Y-47500D01*
X70500Y-47500D02*
X70604Y-47489D01*
X70604Y-47489D02*
X70703Y-47457D01*
X70703Y-47457D02*
X70794Y-47405D01*
X70794Y-47405D02*
X70872Y-47335D01*
X70872Y-47335D02*
X70933Y-47250D01*
X70933Y-47250D02*
X70976Y-47155D01*
X70976Y-47155D02*
X70997Y-47052D01*
X70997Y-47052D02*
X71000Y-47000D01*
X71000Y-47000D02*
X70989Y-46896D01*
X70989Y-46896D02*
X70957Y-46797D01*
X70957Y-46797D02*
X70905Y-46706D01*
X70905Y-46706D02*
X70835Y-46628D01*
X70835Y-46628D02*
X70750Y-46567D01*
X70750Y-46567D02*
X70655Y-46524D01*
X70655Y-46524D02*
X70552Y-46503D01*
X70552Y-46503D02*
X70500Y-46500D01*
X64100Y-47000D02*
X64111Y-47104D01*
X64111Y-47104D02*
X64143Y-47203D01*
X64143Y-47203D02*
X64195Y-47294D01*
X64195Y-47294D02*
X64265Y-47372D01*
X64265Y-47372D02*
X64350Y-47433D01*
X64350Y-47433D02*
X64445Y-47476D01*
X64445Y-47476D02*
X64548Y-47497D01*
X64548Y-47497D02*
X64600Y-47500D01*
X64600Y-46500D02*
X64496Y-46511D01*
X64496Y-46511D02*
X64397Y-46543D01*
X64397Y-46543D02*
X64306Y-46595D01*
X64306Y-46595D02*
X64228Y-46665D01*
X64228Y-46665D02*
X64167Y-46750D01*
X64167Y-46750D02*
X64124Y-46845D01*
X64124Y-46845D02*
X64103Y-46948D01*
X64103Y-46948D02*
X64100Y-47000D01*
X64600Y-47500D02*
X70500Y-47500D01*
X70500Y-46500D02*
X64600Y-46500D01*
X72400Y-47000D02*
X72411Y-47104D01*
X72411Y-47104D02*
X72443Y-47203D01*
X72443Y-47203D02*
X72495Y-47294D01*
X72495Y-47294D02*
X72565Y-47372D01*
X72565Y-47372D02*
X72650Y-47433D01*
X72650Y-47433D02*
X72745Y-47476D01*
X72745Y-47476D02*
X72848Y-47497D01*
X72848Y-47497D02*
X72900Y-47500D01*
X72900Y-46500D02*
X72796Y-46511D01*
X72796Y-46511D02*
X72697Y-46543D01*
X72697Y-46543D02*
X72606Y-46595D01*
X72606Y-46595D02*
X72528Y-46665D01*
X72528Y-46665D02*
X72467Y-46750D01*
X72467Y-46750D02*
X72424Y-46845D01*
X72424Y-46845D02*
X72403Y-46948D01*
X72403Y-46948D02*
X72400Y-47000D01*
X78800Y-47500D02*
X78904Y-47489D01*
X78904Y-47489D02*
X79003Y-47457D01*
X79003Y-47457D02*
X79094Y-47405D01*
X79094Y-47405D02*
X79172Y-47335D01*
X79172Y-47335D02*
X79233Y-47250D01*
X79233Y-47250D02*
X79276Y-47155D01*
X79276Y-47155D02*
X79297Y-47052D01*
X79297Y-47052D02*
X79300Y-47000D01*
X79300Y-47000D02*
X79289Y-46896D01*
X79289Y-46896D02*
X79257Y-46797D01*
X79257Y-46797D02*
X79205Y-46706D01*
X79205Y-46706D02*
X79135Y-46628D01*
X79135Y-46628D02*
X79050Y-46567D01*
X79050Y-46567D02*
X78955Y-46524D01*
X78955Y-46524D02*
X78852Y-46503D01*
X78852Y-46503D02*
X78800Y-46500D01*
X72900Y-47500D02*
X78800Y-47500D01*
X78800Y-46500D02*
X72900Y-46500D01*
X81000Y-55200D02*
X81000Y-43450D01*
X21000Y-55200D02*
X81000Y-55200D01*
X21000Y-43250D02*
X21000Y-55000D01*
X21000Y-43250D02*
X81000Y-43250D01*
G54D41*
X71500Y-53000D03*
G54D42*
X75500Y-53000D03*
G54D41*
X24750Y-53250D03*
G54D42*
X24750Y-49250D03*
G54D41*
X71500Y-54400D03*
G54D42*
X75500Y-54400D03*
G54D41*
X63250Y-53000D03*
G54D42*
X67250Y-53000D03*
G54D41*
X63250Y-54400D03*
G54D42*
X67250Y-54400D03*
G54D41*
X55000Y-53000D03*
G54D42*
X59000Y-53000D03*
G54D41*
X55000Y-54400D03*
G54D42*
X59000Y-54400D03*
G54D41*
X46750Y-53000D03*
G54D42*
X50750Y-53000D03*
G54D41*
X46750Y-54400D03*
G54D42*
X50750Y-54400D03*
G54D41*
X38500Y-53000D03*
G54D42*
X42500Y-53000D03*
G54D41*
X38500Y-54400D03*
G54D42*
X42500Y-54400D03*
G54D41*
X30000Y-53000D03*
G54D42*
X34000Y-53000D03*
G54D41*
X30000Y-54400D03*
G54D42*
X34000Y-54400D03*
G54D43*
X23750Y-54250D03*
X27750Y-54250D03*
X23750Y-45750D03*
X23750Y-49750D03*
X22750Y-43750D03*
X26750Y-43750D03*
X37300Y-52375D03*
X36452Y-52905D03*
X35604Y-53435D03*
X38148Y-51845D03*
G54D44*
X38361Y-44637D03*
X30729Y-49407D03*
G54D43*
X45550Y-52375D03*
X44702Y-52905D03*
X43854Y-53435D03*
X46398Y-51845D03*
G54D44*
X46611Y-44637D03*
X38979Y-49407D03*
G54D43*
X53800Y-52375D03*
X52952Y-52905D03*
X52104Y-53435D03*
X54648Y-51845D03*
G54D44*
X54861Y-44637D03*
X47229Y-49407D03*
G54D43*
X62050Y-52375D03*
X61202Y-52905D03*
X60354Y-53435D03*
X62898Y-51845D03*
G54D44*
X63111Y-44637D03*
X55479Y-49407D03*
G54D43*
X70300Y-52375D03*
X69452Y-52905D03*
X68604Y-53435D03*
X71148Y-51845D03*
G54D44*
X71361Y-44637D03*
X63729Y-49407D03*
G54D43*
X78550Y-52375D03*
X77702Y-52905D03*
X76854Y-53435D03*
X79398Y-51845D03*
G54D44*
X79611Y-44637D03*
X71979Y-49407D03*
G54D43*
X29050Y-52375D03*
X28202Y-52905D03*
X27354Y-53435D03*
X29898Y-51845D03*
G54D44*
X30111Y-44637D03*
X22479Y-49407D03*
G54D43*
X78020Y-51527D03*
X77172Y-52057D03*
X76324Y-52587D03*
X78868Y-50997D03*
G54D44*
X79611Y-44637D03*
X71979Y-49407D03*
G54D43*
X69770Y-51527D03*
X68922Y-52057D03*
X68074Y-52587D03*
X70618Y-50997D03*
G54D44*
X71361Y-44637D03*
X63729Y-49407D03*
G54D43*
X61520Y-51527D03*
X60672Y-52057D03*
X59824Y-52587D03*
X62368Y-50997D03*
G54D44*
X63111Y-44637D03*
X55479Y-49407D03*
G54D43*
X53270Y-51527D03*
X52422Y-52057D03*
X51574Y-52587D03*
X54118Y-50997D03*
G54D44*
X54861Y-44637D03*
X47229Y-49407D03*
G54D43*
X45020Y-51527D03*
X44172Y-52057D03*
X43324Y-52587D03*
X45868Y-50997D03*
G54D44*
X46611Y-44637D03*
X38979Y-49407D03*
G54D43*
X36770Y-51527D03*
X35922Y-52057D03*
X35074Y-52587D03*
X37618Y-50997D03*
G54D44*
X38361Y-44637D03*
X30729Y-49407D03*
G54D43*
X29250Y-51250D03*
X29250Y-50250D03*
X51800Y-51050D03*
X50800Y-51050D03*
X32550Y-51550D03*
X33550Y-51550D03*
X39850Y-51000D03*
X38850Y-51000D03*
X31700Y-51000D03*
X30700Y-51000D03*
X40750Y-51550D03*
X41750Y-51550D03*
X43550Y-51050D03*
X42550Y-51050D03*
X35300Y-51050D03*
X34300Y-51050D03*
G54D45*
X21750Y-43750D03*
G54D41*
X21750Y-44750D03*
X21750Y-45740D03*
X21750Y-46760D03*
X21750Y-47750D03*
G54D46*
X28250Y-46875D03*
X28250Y-47625D03*
X27250Y-46875D03*
X28250Y-47250D03*
X27250Y-47625D03*
G54D43*
X48100Y-51000D03*
X47100Y-51000D03*
X26250Y-51750D03*
X26250Y-52750D03*
G54D47*
X23750Y-52375D03*
X23750Y-51625D03*
G54D43*
X23250Y-52500D03*
X23250Y-51500D03*
X23750Y-44500D03*
X22750Y-44500D03*
G54D48*
X26125Y-50750D03*
X26875Y-50750D03*
G54D43*
X26000Y-50250D03*
X27000Y-50250D03*
X26000Y-50250D03*
X27000Y-50250D03*
G54D47*
X27500Y-44125D03*
X27500Y-44875D03*
G54D43*
X28000Y-44000D03*
X28000Y-45000D03*
X28000Y-44000D03*
X28000Y-45000D03*
X68350Y-51050D03*
X67350Y-51050D03*
X76600Y-51050D03*
X75600Y-51050D03*
X56400Y-51000D03*
X55400Y-51000D03*
X57300Y-51550D03*
X58300Y-51550D03*
X64600Y-51000D03*
X63600Y-51000D03*
X65500Y-51550D03*
X66500Y-51550D03*
X72900Y-51050D03*
X71900Y-51050D03*
X73700Y-51550D03*
X74700Y-51550D03*
X27500Y-51000D03*
X27500Y-52000D03*
X49000Y-51550D03*
X50000Y-51550D03*
X60100Y-51050D03*
X59100Y-51050D03*
G54D49*
X26250Y-45750D03*
G54D50*
X26250Y-46750D03*
X26250Y-47750D03*
X26250Y-48750D03*
X29250Y-48750D03*
X29250Y-47750D03*
X29250Y-46750D03*
X29250Y-45750D03*
G54D41*
X22000Y-51500D03*
X22000Y-52500D03*
G54D42*
X22000Y-53500D03*
G54D49*
X31150Y-43800D03*
G54D50*
X32150Y-43800D03*
G54D49*
X29100Y-53700D03*
G54D50*
X29100Y-54700D03*
M02*
