M48
;DRILL file {PCBNEW (2007-07-09)} date 26/3/2010-10:09:32
;FORMAT={2:4 / absolute / inches / decimal format}
R,T
VER,1
FMAT,2
INCH,TZ
TCST,OFF
ICI,OFF
ATC,ON
T1C0.025
T2C0.032
T3C0.040
T4C0.120
%
M47
G05
M72
T1
X2.235Y4.630
X2.210Y5.070
T2
X2.375Y5.425
X2.775Y5.425
X2.375Y4.575
X2.375Y4.975
X2.275Y4.375
X2.675Y4.375
X3.730Y5.237
X3.645Y5.290
X3.560Y5.343
X3.815Y5.184
X4.555Y5.237
X4.470Y5.290
X4.385Y5.343
X4.640Y5.184
X2.905Y5.237
X2.820Y5.290
X2.735Y5.343
X2.990Y5.184
X4.502Y5.153
X4.417Y5.206
X4.332Y5.259
X4.587Y5.100
X3.677Y5.153
X3.592Y5.206
X3.507Y5.259
X3.762Y5.100
X2.925Y5.125
X2.925Y5.025
X3.325Y5.175
X3.325Y5.075
X3.975Y5.175
X3.975Y5.075
X3.150Y5.175
X3.150Y5.075
X4.150Y5.175
X4.150Y5.075
X4.275Y5.075
X4.275Y5.175
X3.450Y5.075
X3.450Y5.175
X2.175Y4.375
X2.175Y4.475
X2.175Y4.575
X2.175Y4.675
X2.175Y4.775
X2.625Y5.175
X2.625Y5.275
X2.325Y5.250
X2.325Y5.150
X2.375Y4.450
X2.275Y4.450
X2.600Y5.025
X2.700Y5.025
X2.600Y5.025
X2.700Y5.025
X2.800Y4.400
X2.800Y4.500
X2.800Y4.400
X2.800Y4.500
X2.750Y5.100
X2.750Y5.200
X2.625Y4.575
X2.625Y4.675
X2.625Y4.775
X2.625Y4.875
X2.925Y4.875
X2.925Y4.775
X2.925Y4.675
X2.925Y4.575
T3
X3.000Y5.425
X3.400Y5.425
X3.000Y5.300
X3.400Y5.300
X3.850Y5.425
X4.250Y5.425
X3.850Y5.300
X4.250Y5.300
X2.475Y5.325
X2.475Y4.925
X2.200Y5.150
X2.200Y5.250
X2.200Y5.350
T4
X3.836Y4.464
X3.073Y4.941
X4.661Y4.464
X3.898Y4.941
X3.011Y4.464
X2.248Y4.941
X4.661Y4.464
X3.898Y4.941
X3.836Y4.464
X3.073Y4.941
T0
M30
