G04 (Genere par PCBNEW (2007-07-09)) le 26/3/2010-09:49:07*
G01*
G70*
G90*
%MOIN*%
G04 Gerber Fmt 3.4, Leading zero omitted, Abs format*
%FSLAX34Y34*%
G04 APERTURE LIST*
%ADD10C,0.015000*%
%ADD11C,0.060000*%
%ADD12C,0.070000*%
%ADD13R,0.070000X0.070000*%
%ADD14C,0.130000*%
%ADD15R,0.055000X0.055000*%
%ADD16C,0.055000*%
%ADD17R,0.030000X0.020000*%
%ADD18R,0.055000X0.035000*%
%ADD19R,0.035000X0.055000*%
%ADD20C,0.045000*%
%ADD21C,0.010000*%
%ADD22C,0.025000*%
%ADD23R,0.230000X0.006000*%
%ADD24R,0.060000X0.060000*%
%ADD25R,0.006000X0.230000*%
%ADD26R,0.098400X0.090600*%
%ADD27R,0.090000X0.006000*%
%ADD28R,0.090600X0.098400*%
%ADD29R,0.006000X0.090000*%
%ADD30R,0.045000X0.020000*%
%ADD31C,0.012000*%
%ADD32C,0.005000*%
%ADD33C,0.001000*%
%ADD34C,0.008000*%
%ADD35C,0.006000*%
%ADD36C,0.080000*%
%ADD37C,0.090000*%
%ADD38R,0.090000X0.090000*%
%ADD39C,0.150000*%
%ADD40R,0.075000X0.075000*%
%ADD41C,0.075000*%
%ADD42R,0.050000X0.040000*%
%ADD43R,0.075000X0.055000*%
%ADD44R,0.055000X0.075000*%
%ADD45R,0.080000X0.080000*%
%ADD46R,0.118400X0.110600*%
%ADD47R,0.110600X0.118400*%
%ADD48R,0.065000X0.040000*%
G04 APERTURE END LIST*
G54D10*
X21000Y-55000D02*
X72500Y-55000D01*
X72500Y-43250D02*
X21000Y-43250D01*
X72500Y-43250D02*
X72500Y-55000D01*
X54000Y-47500D02*
X48000Y-47500D01*
X31600Y-46500D02*
X31496Y-46511D01*
X31496Y-46511D02*
X31397Y-46543D01*
X31397Y-46543D02*
X31306Y-46595D01*
X31306Y-46595D02*
X31228Y-46665D01*
X31228Y-46665D02*
X31167Y-46750D01*
X31167Y-46750D02*
X31124Y-46845D01*
X31124Y-46845D02*
X31103Y-46948D01*
X31103Y-46948D02*
X31100Y-47000D01*
X31100Y-47000D02*
X31111Y-47104D01*
X31111Y-47104D02*
X31143Y-47203D01*
X31143Y-47203D02*
X31195Y-47294D01*
X31195Y-47294D02*
X31265Y-47372D01*
X31265Y-47372D02*
X31350Y-47433D01*
X31350Y-47433D02*
X31445Y-47476D01*
X31445Y-47476D02*
X31548Y-47497D01*
X31548Y-47497D02*
X31600Y-47500D01*
X37600Y-47500D02*
X37704Y-47489D01*
X37704Y-47489D02*
X37803Y-47457D01*
X37803Y-47457D02*
X37894Y-47405D01*
X37894Y-47405D02*
X37972Y-47335D01*
X37972Y-47335D02*
X38033Y-47250D01*
X38033Y-47250D02*
X38076Y-47155D01*
X38076Y-47155D02*
X38097Y-47052D01*
X38097Y-47052D02*
X38100Y-47000D01*
X38100Y-47000D02*
X38089Y-46896D01*
X38089Y-46896D02*
X38057Y-46797D01*
X38057Y-46797D02*
X38005Y-46706D01*
X38005Y-46706D02*
X37935Y-46628D01*
X37935Y-46628D02*
X37850Y-46567D01*
X37850Y-46567D02*
X37755Y-46524D01*
X37755Y-46524D02*
X37652Y-46503D01*
X37652Y-46503D02*
X37600Y-46500D01*
X39800Y-46500D02*
X39696Y-46511D01*
X39696Y-46511D02*
X39597Y-46543D01*
X39597Y-46543D02*
X39506Y-46595D01*
X39506Y-46595D02*
X39428Y-46665D01*
X39428Y-46665D02*
X39367Y-46750D01*
X39367Y-46750D02*
X39324Y-46845D01*
X39324Y-46845D02*
X39303Y-46948D01*
X39303Y-46948D02*
X39300Y-47000D01*
X39300Y-47000D02*
X39311Y-47104D01*
X39311Y-47104D02*
X39343Y-47203D01*
X39343Y-47203D02*
X39395Y-47294D01*
X39395Y-47294D02*
X39465Y-47372D01*
X39465Y-47372D02*
X39550Y-47433D01*
X39550Y-47433D02*
X39645Y-47476D01*
X39645Y-47476D02*
X39748Y-47497D01*
X39748Y-47497D02*
X39800Y-47500D01*
X45800Y-47500D02*
X45904Y-47489D01*
X45904Y-47489D02*
X46003Y-47457D01*
X46003Y-47457D02*
X46094Y-47405D01*
X46094Y-47405D02*
X46172Y-47335D01*
X46172Y-47335D02*
X46233Y-47250D01*
X46233Y-47250D02*
X46276Y-47155D01*
X46276Y-47155D02*
X46297Y-47052D01*
X46297Y-47052D02*
X46300Y-47000D01*
X46300Y-47000D02*
X46289Y-46896D01*
X46289Y-46896D02*
X46257Y-46797D01*
X46257Y-46797D02*
X46205Y-46706D01*
X46205Y-46706D02*
X46135Y-46628D01*
X46135Y-46628D02*
X46050Y-46567D01*
X46050Y-46567D02*
X45955Y-46524D01*
X45955Y-46524D02*
X45852Y-46503D01*
X45852Y-46503D02*
X45800Y-46500D01*
X48000Y-46500D02*
X47896Y-46511D01*
X47896Y-46511D02*
X47797Y-46543D01*
X47797Y-46543D02*
X47706Y-46595D01*
X47706Y-46595D02*
X47628Y-46665D01*
X47628Y-46665D02*
X47567Y-46750D01*
X47567Y-46750D02*
X47524Y-46845D01*
X47524Y-46845D02*
X47503Y-46948D01*
X47503Y-46948D02*
X47500Y-47000D01*
X47500Y-47000D02*
X47511Y-47104D01*
X47511Y-47104D02*
X47543Y-47203D01*
X47543Y-47203D02*
X47595Y-47294D01*
X47595Y-47294D02*
X47665Y-47372D01*
X47665Y-47372D02*
X47750Y-47433D01*
X47750Y-47433D02*
X47845Y-47476D01*
X47845Y-47476D02*
X47948Y-47497D01*
X47948Y-47497D02*
X48000Y-47500D01*
X54000Y-47500D02*
X54104Y-47489D01*
X54104Y-47489D02*
X54203Y-47457D01*
X54203Y-47457D02*
X54294Y-47405D01*
X54294Y-47405D02*
X54372Y-47335D01*
X54372Y-47335D02*
X54433Y-47250D01*
X54433Y-47250D02*
X54476Y-47155D01*
X54476Y-47155D02*
X54497Y-47052D01*
X54497Y-47052D02*
X54500Y-47000D01*
X54500Y-47000D02*
X54489Y-46896D01*
X54489Y-46896D02*
X54457Y-46797D01*
X54457Y-46797D02*
X54405Y-46706D01*
X54405Y-46706D02*
X54335Y-46628D01*
X54335Y-46628D02*
X54250Y-46567D01*
X54250Y-46567D02*
X54155Y-46524D01*
X54155Y-46524D02*
X54052Y-46503D01*
X54052Y-46503D02*
X54000Y-46500D01*
X55900Y-47000D02*
X55911Y-47104D01*
X55911Y-47104D02*
X55943Y-47203D01*
X55943Y-47203D02*
X55995Y-47294D01*
X55995Y-47294D02*
X56065Y-47372D01*
X56065Y-47372D02*
X56150Y-47433D01*
X56150Y-47433D02*
X56245Y-47476D01*
X56245Y-47476D02*
X56348Y-47497D01*
X56348Y-47497D02*
X56400Y-47500D01*
X56400Y-46500D02*
X56296Y-46511D01*
X56296Y-46511D02*
X56197Y-46543D01*
X56197Y-46543D02*
X56106Y-46595D01*
X56106Y-46595D02*
X56028Y-46665D01*
X56028Y-46665D02*
X55967Y-46750D01*
X55967Y-46750D02*
X55924Y-46845D01*
X55924Y-46845D02*
X55903Y-46948D01*
X55903Y-46948D02*
X55900Y-47000D01*
X62300Y-47500D02*
X62404Y-47489D01*
X62404Y-47489D02*
X62503Y-47457D01*
X62503Y-47457D02*
X62594Y-47405D01*
X62594Y-47405D02*
X62672Y-47335D01*
X62672Y-47335D02*
X62733Y-47250D01*
X62733Y-47250D02*
X62776Y-47155D01*
X62776Y-47155D02*
X62797Y-47052D01*
X62797Y-47052D02*
X62800Y-47000D01*
X62800Y-47000D02*
X62789Y-46896D01*
X62789Y-46896D02*
X62757Y-46797D01*
X62757Y-46797D02*
X62705Y-46706D01*
X62705Y-46706D02*
X62635Y-46628D01*
X62635Y-46628D02*
X62550Y-46567D01*
X62550Y-46567D02*
X62455Y-46524D01*
X62455Y-46524D02*
X62352Y-46503D01*
X62352Y-46503D02*
X62300Y-46500D01*
X31600Y-47500D02*
X37600Y-47500D01*
X37600Y-46500D02*
X31600Y-46500D01*
X39800Y-47500D02*
X45800Y-47500D01*
X45800Y-46500D02*
X39800Y-46500D01*
X54000Y-46500D02*
X48000Y-46500D01*
X56400Y-46500D02*
X62300Y-46500D01*
X62300Y-47500D02*
X56400Y-47500D01*
X70500Y-47500D02*
X70604Y-47489D01*
X70604Y-47489D02*
X70703Y-47457D01*
X70703Y-47457D02*
X70794Y-47405D01*
X70794Y-47405D02*
X70872Y-47335D01*
X70872Y-47335D02*
X70933Y-47250D01*
X70933Y-47250D02*
X70976Y-47155D01*
X70976Y-47155D02*
X70997Y-47052D01*
X70997Y-47052D02*
X71000Y-47000D01*
X71000Y-47000D02*
X70989Y-46896D01*
X70989Y-46896D02*
X70957Y-46797D01*
X70957Y-46797D02*
X70905Y-46706D01*
X70905Y-46706D02*
X70835Y-46628D01*
X70835Y-46628D02*
X70750Y-46567D01*
X70750Y-46567D02*
X70655Y-46524D01*
X70655Y-46524D02*
X70552Y-46503D01*
X70552Y-46503D02*
X70500Y-46500D01*
X64100Y-47000D02*
X64111Y-47104D01*
X64111Y-47104D02*
X64143Y-47203D01*
X64143Y-47203D02*
X64195Y-47294D01*
X64195Y-47294D02*
X64265Y-47372D01*
X64265Y-47372D02*
X64350Y-47433D01*
X64350Y-47433D02*
X64445Y-47476D01*
X64445Y-47476D02*
X64548Y-47497D01*
X64548Y-47497D02*
X64600Y-47500D01*
X64600Y-46500D02*
X64496Y-46511D01*
X64496Y-46511D02*
X64397Y-46543D01*
X64397Y-46543D02*
X64306Y-46595D01*
X64306Y-46595D02*
X64228Y-46665D01*
X64228Y-46665D02*
X64167Y-46750D01*
X64167Y-46750D02*
X64124Y-46845D01*
X64124Y-46845D02*
X64103Y-46948D01*
X64103Y-46948D02*
X64100Y-47000D01*
X64600Y-47500D02*
X70500Y-47500D01*
X70500Y-46500D02*
X64600Y-46500D01*
X21000Y-43250D02*
X21000Y-55000D01*
G54D36*
X23750Y-54250D03*
X27750Y-54250D03*
G54D45*
X25250Y-54250D03*
X24250Y-54250D03*
G54D36*
X23750Y-45750D03*
X23750Y-49750D03*
G54D45*
X23750Y-47250D03*
X23750Y-46250D03*
G54D36*
X22750Y-43750D03*
X26750Y-43750D03*
G54D45*
X24250Y-43750D03*
X23250Y-43750D03*
G54D37*
X30000Y-54250D03*
G54D38*
X34000Y-54250D03*
G54D46*
X32400Y-54250D03*
X30700Y-54250D03*
G54D37*
X30000Y-53000D03*
G54D38*
X34000Y-53000D03*
G54D46*
X32400Y-53000D03*
X30700Y-53000D03*
G54D37*
X38500Y-54250D03*
G54D38*
X42500Y-54250D03*
G54D46*
X40900Y-54250D03*
X39200Y-54250D03*
G54D37*
X38500Y-53000D03*
G54D38*
X42500Y-53000D03*
G54D46*
X40900Y-53000D03*
X39200Y-53000D03*
G54D37*
X46750Y-54250D03*
G54D38*
X50750Y-54250D03*
G54D46*
X49150Y-54250D03*
X47450Y-54250D03*
G54D37*
X46750Y-53000D03*
G54D38*
X50750Y-53000D03*
G54D46*
X49150Y-53000D03*
X47450Y-53000D03*
G54D37*
X55000Y-54250D03*
G54D38*
X59000Y-54250D03*
G54D46*
X57400Y-54250D03*
X55700Y-54250D03*
G54D37*
X55000Y-53000D03*
G54D38*
X59000Y-53000D03*
G54D46*
X57400Y-53000D03*
X55700Y-53000D03*
G54D37*
X63250Y-54250D03*
G54D38*
X67250Y-54250D03*
G54D46*
X65650Y-54250D03*
X63950Y-54250D03*
G54D37*
X63250Y-53000D03*
G54D38*
X67250Y-53000D03*
G54D46*
X65650Y-53000D03*
X63950Y-53000D03*
G54D37*
X24750Y-53250D03*
G54D38*
X24750Y-49250D03*
G54D47*
X24750Y-50850D03*
X24750Y-52550D03*
G54D36*
X37300Y-52375D03*
X36452Y-52905D03*
X35604Y-53435D03*
X38148Y-51845D03*
G54D39*
X38361Y-44637D03*
X30729Y-49407D03*
G54D36*
X45550Y-52375D03*
X44702Y-52905D03*
X43854Y-53435D03*
X46398Y-51845D03*
G54D39*
X46611Y-44637D03*
X38979Y-49407D03*
G54D36*
X53800Y-52375D03*
X52952Y-52905D03*
X52104Y-53435D03*
X54648Y-51845D03*
G54D39*
X54861Y-44637D03*
X47229Y-49407D03*
G54D36*
X62050Y-52375D03*
X61202Y-52905D03*
X60354Y-53435D03*
X62898Y-51845D03*
G54D39*
X63111Y-44637D03*
X55479Y-49407D03*
G54D36*
X70300Y-52375D03*
X69452Y-52905D03*
X68604Y-53435D03*
X71148Y-51845D03*
G54D39*
X71361Y-44637D03*
X63729Y-49407D03*
G54D36*
X29050Y-52375D03*
X28202Y-52905D03*
X27354Y-53435D03*
X29898Y-51845D03*
G54D39*
X30111Y-44637D03*
X22479Y-49407D03*
G54D36*
X69770Y-51527D03*
X68922Y-52057D03*
X68074Y-52587D03*
X70618Y-50997D03*
G54D39*
X71361Y-44637D03*
X63729Y-49407D03*
G54D36*
X61520Y-51527D03*
X60672Y-52057D03*
X59824Y-52587D03*
X62368Y-50997D03*
G54D39*
X63111Y-44637D03*
X55479Y-49407D03*
G54D36*
X53270Y-51527D03*
X52422Y-52057D03*
X51574Y-52587D03*
X54118Y-50997D03*
G54D39*
X54861Y-44637D03*
X47229Y-49407D03*
G54D36*
X45020Y-51527D03*
X44172Y-52057D03*
X43324Y-52587D03*
X45868Y-50997D03*
G54D39*
X46611Y-44637D03*
X38979Y-49407D03*
G54D36*
X36770Y-51527D03*
X35922Y-52057D03*
X35074Y-52587D03*
X37618Y-50997D03*
G54D39*
X38361Y-44637D03*
X30729Y-49407D03*
G54D43*
X28750Y-51125D03*
X28750Y-50375D03*
G54D36*
X29250Y-51250D03*
X29250Y-50250D03*
G54D43*
X51500Y-50875D03*
X51500Y-51625D03*
G54D36*
X51000Y-50750D03*
X51000Y-51750D03*
G54D43*
X32750Y-51625D03*
X32750Y-50875D03*
G54D36*
X33250Y-51750D03*
X33250Y-50750D03*
G54D43*
X39250Y-51625D03*
X39250Y-50875D03*
G54D36*
X39750Y-51750D03*
X39750Y-50750D03*
G54D43*
X31000Y-51625D03*
X31000Y-50875D03*
G54D36*
X31500Y-51750D03*
X31500Y-50750D03*
G54D43*
X41000Y-51625D03*
X41000Y-50875D03*
G54D36*
X41500Y-51750D03*
X41500Y-50750D03*
G54D43*
X43250Y-50875D03*
X43250Y-51625D03*
G54D36*
X42750Y-50750D03*
X42750Y-51750D03*
G54D43*
X35000Y-50875D03*
X35000Y-51625D03*
G54D36*
X34500Y-50750D03*
X34500Y-51750D03*
G54D40*
X21750Y-43750D03*
G54D41*
X21750Y-44750D03*
X21750Y-45750D03*
X21750Y-46750D03*
X21750Y-47750D03*
G54D43*
X47500Y-51625D03*
X47500Y-50875D03*
G54D36*
X48000Y-51750D03*
X48000Y-50750D03*
G54D43*
X26750Y-51875D03*
X26750Y-52625D03*
G54D36*
X26250Y-51750D03*
X26250Y-52750D03*
X23250Y-52500D03*
X23250Y-51500D03*
G54D44*
X23625Y-45000D03*
X22875Y-45000D03*
G54D36*
X23750Y-44500D03*
X22750Y-44500D03*
X26000Y-50250D03*
X27000Y-50250D03*
G54D44*
X26125Y-49750D03*
X26875Y-49750D03*
G54D36*
X26000Y-50250D03*
X27000Y-50250D03*
X28000Y-44000D03*
X28000Y-45000D03*
G54D43*
X28500Y-44125D03*
X28500Y-44875D03*
G54D36*
X28000Y-44000D03*
X28000Y-45000D03*
G54D43*
X68000Y-50875D03*
X68000Y-51625D03*
G54D36*
X67500Y-50750D03*
X67500Y-51750D03*
G54D43*
X55750Y-51625D03*
X55750Y-50875D03*
G54D36*
X56250Y-51750D03*
X56250Y-50750D03*
G54D43*
X57500Y-51625D03*
X57500Y-50875D03*
G54D36*
X58000Y-51750D03*
X58000Y-50750D03*
G54D43*
X64000Y-51625D03*
X64000Y-50875D03*
G54D36*
X64500Y-51750D03*
X64500Y-50750D03*
G54D43*
X65750Y-51625D03*
X65750Y-50875D03*
G54D36*
X66250Y-51750D03*
X66250Y-50750D03*
G54D43*
X28000Y-51125D03*
X28000Y-51875D03*
G54D36*
X27500Y-51000D03*
X27500Y-52000D03*
G54D43*
X49250Y-51625D03*
X49250Y-50875D03*
G54D36*
X49750Y-51750D03*
X49750Y-50750D03*
G54D43*
X59750Y-50875D03*
X59750Y-51625D03*
G54D36*
X59250Y-50750D03*
X59250Y-51750D03*
G54D40*
X26250Y-45750D03*
G54D41*
X26250Y-46750D03*
X26250Y-47750D03*
X26250Y-48750D03*
X29250Y-48750D03*
X29250Y-47750D03*
X29250Y-46750D03*
X29250Y-45750D03*
G54D37*
X22000Y-51500D03*
X22000Y-52500D03*
G54D38*
X22000Y-53500D03*
G54D48*
X29900Y-46400D03*
X27800Y-46400D03*
X29900Y-46900D03*
X29900Y-47400D03*
X29900Y-47900D03*
X27800Y-46900D03*
X27800Y-47400D03*
X27800Y-47900D03*
M02*
