G04 (Genere par PCBNEW (2007-07-09)) le 26/3/2010-10:00:47*
G01*
G70*
G90*
%MOIN*%
G04 Gerber Fmt 3.4, Leading zero omitted, Abs format*
%FSLAX34Y34*%
G04 APERTURE LIST*
%ADD10C,0.015000*%
%ADD11C,0.060000*%
%ADD12C,0.070000*%
%ADD13R,0.070000X0.070000*%
%ADD14C,0.130000*%
%ADD15R,0.055000X0.055000*%
%ADD16C,0.055000*%
%ADD17R,0.030000X0.020000*%
%ADD18R,0.055000X0.035000*%
%ADD19R,0.035000X0.055000*%
%ADD20C,0.045000*%
%ADD21C,0.010000*%
%ADD22C,0.025000*%
%ADD23R,0.230000X0.006000*%
%ADD24R,0.060000X0.060000*%
%ADD25R,0.006000X0.230000*%
%ADD26R,0.098400X0.090600*%
%ADD27R,0.090000X0.006000*%
%ADD28R,0.090600X0.098400*%
%ADD29R,0.006000X0.090000*%
%ADD30R,0.045000X0.020000*%
%ADD31C,0.012000*%
%ADD32C,0.005000*%
%ADD33C,0.001000*%
%ADD34C,0.008000*%
%ADD35C,0.006000*%
%ADD36C,0.080000*%
%ADD37C,0.090000*%
%ADD38R,0.090000X0.090000*%
%ADD39C,0.150000*%
%ADD40R,0.075000X0.075000*%
%ADD41C,0.075000*%
%ADD42R,0.050000X0.040000*%
%ADD43R,0.075000X0.055000*%
%ADD44R,0.055000X0.075000*%
%ADD45R,0.080000X0.080000*%
%ADD46R,0.118400X0.110600*%
%ADD47R,0.110600X0.118400*%
%ADD48R,0.065000X0.040000*%
G04 APERTURE END LIST*
G54D10*
X21000Y-55000D02*
X56000Y-55000D01*
X56000Y-43250D02*
X21000Y-43250D01*
X56000Y-43250D02*
X56000Y-55000D01*
X54000Y-47500D02*
X48000Y-47500D01*
X31600Y-46500D02*
X31496Y-46511D01*
X31496Y-46511D02*
X31397Y-46543D01*
X31397Y-46543D02*
X31306Y-46595D01*
X31306Y-46595D02*
X31228Y-46665D01*
X31228Y-46665D02*
X31167Y-46750D01*
X31167Y-46750D02*
X31124Y-46845D01*
X31124Y-46845D02*
X31103Y-46948D01*
X31103Y-46948D02*
X31100Y-47000D01*
X31100Y-47000D02*
X31111Y-47104D01*
X31111Y-47104D02*
X31143Y-47203D01*
X31143Y-47203D02*
X31195Y-47294D01*
X31195Y-47294D02*
X31265Y-47372D01*
X31265Y-47372D02*
X31350Y-47433D01*
X31350Y-47433D02*
X31445Y-47476D01*
X31445Y-47476D02*
X31548Y-47497D01*
X31548Y-47497D02*
X31600Y-47500D01*
X37600Y-47500D02*
X37704Y-47489D01*
X37704Y-47489D02*
X37803Y-47457D01*
X37803Y-47457D02*
X37894Y-47405D01*
X37894Y-47405D02*
X37972Y-47335D01*
X37972Y-47335D02*
X38033Y-47250D01*
X38033Y-47250D02*
X38076Y-47155D01*
X38076Y-47155D02*
X38097Y-47052D01*
X38097Y-47052D02*
X38100Y-47000D01*
X38100Y-47000D02*
X38089Y-46896D01*
X38089Y-46896D02*
X38057Y-46797D01*
X38057Y-46797D02*
X38005Y-46706D01*
X38005Y-46706D02*
X37935Y-46628D01*
X37935Y-46628D02*
X37850Y-46567D01*
X37850Y-46567D02*
X37755Y-46524D01*
X37755Y-46524D02*
X37652Y-46503D01*
X37652Y-46503D02*
X37600Y-46500D01*
X39800Y-46500D02*
X39696Y-46511D01*
X39696Y-46511D02*
X39597Y-46543D01*
X39597Y-46543D02*
X39506Y-46595D01*
X39506Y-46595D02*
X39428Y-46665D01*
X39428Y-46665D02*
X39367Y-46750D01*
X39367Y-46750D02*
X39324Y-46845D01*
X39324Y-46845D02*
X39303Y-46948D01*
X39303Y-46948D02*
X39300Y-47000D01*
X39300Y-47000D02*
X39311Y-47104D01*
X39311Y-47104D02*
X39343Y-47203D01*
X39343Y-47203D02*
X39395Y-47294D01*
X39395Y-47294D02*
X39465Y-47372D01*
X39465Y-47372D02*
X39550Y-47433D01*
X39550Y-47433D02*
X39645Y-47476D01*
X39645Y-47476D02*
X39748Y-47497D01*
X39748Y-47497D02*
X39800Y-47500D01*
X45800Y-47500D02*
X45904Y-47489D01*
X45904Y-47489D02*
X46003Y-47457D01*
X46003Y-47457D02*
X46094Y-47405D01*
X46094Y-47405D02*
X46172Y-47335D01*
X46172Y-47335D02*
X46233Y-47250D01*
X46233Y-47250D02*
X46276Y-47155D01*
X46276Y-47155D02*
X46297Y-47052D01*
X46297Y-47052D02*
X46300Y-47000D01*
X46300Y-47000D02*
X46289Y-46896D01*
X46289Y-46896D02*
X46257Y-46797D01*
X46257Y-46797D02*
X46205Y-46706D01*
X46205Y-46706D02*
X46135Y-46628D01*
X46135Y-46628D02*
X46050Y-46567D01*
X46050Y-46567D02*
X45955Y-46524D01*
X45955Y-46524D02*
X45852Y-46503D01*
X45852Y-46503D02*
X45800Y-46500D01*
X48000Y-46500D02*
X47896Y-46511D01*
X47896Y-46511D02*
X47797Y-46543D01*
X47797Y-46543D02*
X47706Y-46595D01*
X47706Y-46595D02*
X47628Y-46665D01*
X47628Y-46665D02*
X47567Y-46750D01*
X47567Y-46750D02*
X47524Y-46845D01*
X47524Y-46845D02*
X47503Y-46948D01*
X47503Y-46948D02*
X47500Y-47000D01*
X47500Y-47000D02*
X47511Y-47104D01*
X47511Y-47104D02*
X47543Y-47203D01*
X47543Y-47203D02*
X47595Y-47294D01*
X47595Y-47294D02*
X47665Y-47372D01*
X47665Y-47372D02*
X47750Y-47433D01*
X47750Y-47433D02*
X47845Y-47476D01*
X47845Y-47476D02*
X47948Y-47497D01*
X47948Y-47497D02*
X48000Y-47500D01*
X54000Y-47500D02*
X54104Y-47489D01*
X54104Y-47489D02*
X54203Y-47457D01*
X54203Y-47457D02*
X54294Y-47405D01*
X54294Y-47405D02*
X54372Y-47335D01*
X54372Y-47335D02*
X54433Y-47250D01*
X54433Y-47250D02*
X54476Y-47155D01*
X54476Y-47155D02*
X54497Y-47052D01*
X54497Y-47052D02*
X54500Y-47000D01*
X54500Y-47000D02*
X54489Y-46896D01*
X54489Y-46896D02*
X54457Y-46797D01*
X54457Y-46797D02*
X54405Y-46706D01*
X54405Y-46706D02*
X54335Y-46628D01*
X54335Y-46628D02*
X54250Y-46567D01*
X54250Y-46567D02*
X54155Y-46524D01*
X54155Y-46524D02*
X54052Y-46503D01*
X54052Y-46503D02*
X54000Y-46500D01*
X31600Y-47500D02*
X37600Y-47500D01*
X37600Y-46500D02*
X31600Y-46500D01*
X39800Y-47500D02*
X45800Y-47500D01*
X45800Y-46500D02*
X39800Y-46500D01*
X54000Y-46500D02*
X48000Y-46500D01*
X21000Y-43250D02*
X21000Y-55000D01*
G54D11*
X23750Y-54250D03*
X27750Y-54250D03*
X23750Y-45750D03*
X23750Y-49750D03*
X22750Y-43750D03*
X26750Y-43750D03*
G54D12*
X30000Y-54250D03*
G54D13*
X34000Y-54250D03*
G54D12*
X30000Y-53000D03*
G54D13*
X34000Y-53000D03*
G54D12*
X38500Y-54250D03*
G54D13*
X42500Y-54250D03*
G54D12*
X38500Y-53000D03*
G54D13*
X42500Y-53000D03*
G54D12*
X46750Y-54250D03*
G54D13*
X50750Y-54250D03*
G54D12*
X46750Y-53000D03*
G54D13*
X50750Y-53000D03*
G54D12*
X24750Y-53250D03*
G54D13*
X24750Y-49250D03*
G54D11*
X37300Y-52375D03*
X36452Y-52905D03*
X35604Y-53435D03*
X38148Y-51845D03*
G54D14*
X38361Y-44637D03*
X30729Y-49407D03*
G54D11*
X45550Y-52375D03*
X44702Y-52905D03*
X43854Y-53435D03*
X46398Y-51845D03*
G54D14*
X46611Y-44637D03*
X38979Y-49407D03*
G54D11*
X53800Y-52375D03*
X52952Y-52905D03*
X52104Y-53435D03*
X54648Y-51845D03*
G54D14*
X54861Y-44637D03*
X47229Y-49407D03*
G54D11*
X29050Y-52375D03*
X28202Y-52905D03*
X27354Y-53435D03*
X29898Y-51845D03*
G54D14*
X30111Y-44637D03*
X22479Y-49407D03*
G54D11*
X53270Y-51527D03*
X52422Y-52057D03*
X51574Y-52587D03*
X54118Y-50997D03*
G54D14*
X54861Y-44637D03*
X47229Y-49407D03*
G54D11*
X45020Y-51527D03*
X44172Y-52057D03*
X43324Y-52587D03*
X45868Y-50997D03*
G54D14*
X46611Y-44637D03*
X38979Y-49407D03*
G54D11*
X36770Y-51527D03*
X35922Y-52057D03*
X35074Y-52587D03*
X37618Y-50997D03*
G54D14*
X38361Y-44637D03*
X30729Y-49407D03*
G54D11*
X29250Y-51250D03*
X29250Y-50250D03*
X51000Y-50750D03*
X51000Y-51750D03*
X33250Y-51750D03*
X33250Y-50750D03*
X39750Y-51750D03*
X39750Y-50750D03*
X31500Y-51750D03*
X31500Y-50750D03*
X41500Y-51750D03*
X41500Y-50750D03*
X42750Y-50750D03*
X42750Y-51750D03*
X34500Y-50750D03*
X34500Y-51750D03*
G54D15*
X21750Y-43750D03*
G54D16*
X21750Y-44750D03*
X21750Y-45750D03*
X21750Y-46750D03*
X21750Y-47750D03*
G54D17*
X28250Y-46875D03*
X28250Y-47625D03*
X27250Y-46875D03*
X28250Y-47250D03*
X27250Y-47625D03*
G54D11*
X48000Y-51750D03*
X48000Y-50750D03*
X26250Y-51750D03*
X26250Y-52750D03*
G54D18*
X23750Y-52375D03*
X23750Y-51625D03*
G54D11*
X23250Y-52500D03*
X23250Y-51500D03*
X23750Y-44500D03*
X22750Y-44500D03*
G54D19*
X26125Y-50750D03*
X26875Y-50750D03*
G54D11*
X26000Y-50250D03*
X27000Y-50250D03*
X26000Y-50250D03*
X27000Y-50250D03*
G54D18*
X27500Y-44125D03*
X27500Y-44875D03*
G54D11*
X28000Y-44000D03*
X28000Y-45000D03*
X28000Y-44000D03*
X28000Y-45000D03*
X27500Y-51000D03*
X27500Y-52000D03*
X49750Y-51750D03*
X49750Y-50750D03*
G54D15*
X26250Y-45750D03*
G54D16*
X26250Y-46750D03*
X26250Y-47750D03*
X26250Y-48750D03*
X29250Y-48750D03*
X29250Y-47750D03*
X29250Y-46750D03*
X29250Y-45750D03*
G54D12*
X22000Y-51500D03*
X22000Y-52500D03*
G54D13*
X22000Y-53500D03*
G54D20*
X22350Y-46300D03*
X22100Y-50700D03*
G54D21*
X46750Y-54250D02*
X43650Y-54250D01*
X43650Y-54250D02*
X43050Y-53650D01*
X43050Y-53650D02*
X39100Y-53650D01*
X39100Y-53650D02*
X38500Y-54250D01*
X38500Y-54250D02*
X35250Y-54250D01*
X35250Y-54250D02*
X34650Y-53650D01*
X34650Y-53650D02*
X30600Y-53650D01*
X30600Y-53650D02*
X30000Y-54250D01*
X28250Y-47250D02*
X28650Y-47250D01*
X28800Y-46200D02*
X29250Y-45750D01*
X28800Y-47100D02*
X28800Y-46200D01*
X28650Y-47250D02*
X28800Y-47100D01*
X27225Y-44400D02*
X27500Y-44125D01*
X26550Y-44400D02*
X27225Y-44400D01*
X24200Y-46750D02*
X26550Y-44400D01*
X22800Y-46750D02*
X24200Y-46750D01*
X22350Y-46300D02*
X22800Y-46750D01*
X28250Y-46875D02*
X28250Y-45250D01*
X28250Y-45250D02*
X28000Y-45000D01*
X29250Y-50250D02*
X28600Y-50900D01*
X29295Y-52905D02*
X28202Y-52905D01*
X29600Y-52600D02*
X29295Y-52905D01*
X29600Y-52200D02*
X29600Y-52600D01*
X29200Y-51800D02*
X29600Y-52200D01*
X28900Y-51800D02*
X29200Y-51800D01*
X28600Y-51500D02*
X28900Y-51800D01*
X28600Y-50900D02*
X28600Y-51500D01*
X28000Y-45000D02*
X26800Y-46200D01*
X26250Y-48400D02*
X26250Y-48750D01*
X26750Y-47900D02*
X26250Y-48400D01*
X26750Y-47800D02*
X26750Y-47900D01*
X26800Y-47750D02*
X26750Y-47800D01*
X26800Y-46200D02*
X26800Y-47750D01*
X21750Y-44750D02*
X22000Y-45000D01*
X23250Y-45000D02*
X23750Y-44500D01*
X22000Y-45000D02*
X23250Y-45000D01*
X53270Y-51527D02*
X53270Y-51470D01*
X53270Y-51470D02*
X49800Y-48000D01*
X45020Y-51527D02*
X45020Y-51520D01*
X45020Y-51520D02*
X41500Y-48000D01*
X36770Y-51527D02*
X36770Y-51470D01*
X36770Y-51470D02*
X33400Y-48100D01*
X23250Y-52500D02*
X24400Y-52500D01*
X28175Y-51500D02*
X29050Y-52375D01*
X27100Y-51500D02*
X28175Y-51500D01*
X26800Y-51200D02*
X27100Y-51500D01*
X25700Y-51200D02*
X26800Y-51200D01*
X24400Y-52500D02*
X25700Y-51200D01*
X29250Y-51250D02*
X29250Y-51150D01*
X31300Y-50300D02*
X33400Y-48200D01*
X30100Y-50300D02*
X31300Y-50300D01*
X29250Y-51150D02*
X30100Y-50300D01*
X22000Y-52500D02*
X22070Y-52500D01*
X22530Y-51130D02*
X22100Y-50700D01*
X22530Y-52040D02*
X22530Y-51130D01*
X22070Y-52500D02*
X22530Y-52040D01*
X49800Y-48000D02*
X41500Y-48000D01*
X41500Y-48000D02*
X41400Y-48100D01*
X41400Y-48100D02*
X33400Y-48100D01*
X21750Y-43750D02*
X21700Y-43750D01*
X26939Y-53850D02*
X27354Y-53435D01*
X24300Y-53850D02*
X26939Y-53850D01*
X24200Y-53750D02*
X24300Y-53850D01*
X22950Y-53750D02*
X24200Y-53750D01*
X22600Y-54100D02*
X22950Y-53750D01*
X21600Y-54100D02*
X22600Y-54100D01*
X21300Y-53800D02*
X21600Y-54100D01*
X21300Y-44150D02*
X21300Y-53800D01*
X21700Y-43750D02*
X21300Y-44150D01*
X22000Y-53500D02*
X23700Y-53500D01*
X25450Y-51750D02*
X26250Y-51750D01*
X23700Y-53500D02*
X25450Y-51750D01*
X21750Y-46750D02*
X23300Y-48300D01*
X22750Y-50950D02*
X23250Y-50450D01*
X22750Y-52750D02*
X22750Y-50950D01*
X22700Y-52800D02*
X22750Y-52750D01*
X23300Y-48300D02*
X23300Y-49650D01*
X23300Y-49650D02*
X23250Y-49700D01*
X23250Y-49700D02*
X23250Y-50450D01*
X22700Y-52800D02*
X22000Y-53500D01*
X28250Y-47625D02*
X28250Y-49000D01*
X28250Y-49000D02*
X27000Y-50250D01*
X26000Y-50250D02*
X26950Y-49300D01*
X26950Y-47925D02*
X27250Y-47625D01*
X26950Y-49300D02*
X26950Y-47925D01*
X34500Y-50750D02*
X34500Y-50050D01*
X34500Y-50750D02*
X35200Y-50750D01*
X42750Y-50750D02*
X42750Y-50050D01*
X42750Y-50750D02*
X43450Y-50750D01*
X51000Y-50750D02*
X51000Y-50050D01*
X51000Y-50750D02*
X51700Y-50750D01*
X29250Y-51250D02*
X29950Y-51250D01*
X36770Y-51527D02*
X36399Y-50933D01*
X45020Y-51527D02*
X44649Y-50933D01*
X53270Y-51527D02*
X52899Y-50933D01*
X53800Y-52375D02*
X54171Y-52969D01*
X45550Y-52375D02*
X45921Y-52969D01*
G54D22*
X55500Y-45500D02*
X55500Y-54500D01*
X55250Y-45500D02*
X55250Y-54500D01*
X55000Y-52500D02*
X55000Y-54500D01*
X55000Y-45750D02*
X55000Y-51250D01*
X54750Y-52500D02*
X54750Y-54500D01*
X54750Y-47500D02*
X54750Y-51250D01*
X54750Y-45750D02*
X54750Y-46500D01*
X54500Y-52500D02*
X54500Y-54500D01*
X54500Y-47750D02*
X54500Y-50500D01*
X54500Y-45500D02*
X54500Y-46250D01*
X54250Y-52750D02*
X54250Y-54500D01*
X54250Y-48000D02*
X54250Y-50250D01*
X54250Y-45500D02*
X54250Y-46000D01*
X54000Y-53000D02*
X54000Y-54500D01*
X54000Y-48000D02*
X54000Y-50250D01*
X54000Y-45000D02*
X54000Y-46000D01*
X54000Y-43750D02*
X54000Y-44250D01*
X53750Y-53000D02*
X53750Y-54500D01*
X53750Y-48000D02*
X53750Y-50500D01*
X53750Y-43750D02*
X53750Y-46000D01*
X53500Y-53250D02*
X53500Y-54500D01*
X53500Y-48000D02*
X53500Y-51000D01*
X53500Y-43750D02*
X53500Y-46000D01*
X53250Y-53500D02*
X53250Y-54500D01*
X53250Y-48000D02*
X53250Y-50750D01*
X53250Y-43750D02*
X53250Y-46000D01*
X53000Y-53500D02*
X53000Y-54500D01*
X53000Y-48000D02*
X53000Y-51000D01*
X53000Y-43750D02*
X53000Y-46000D01*
X52750Y-53500D02*
X52750Y-54500D01*
X52750Y-48000D02*
X52750Y-51250D01*
X52750Y-43750D02*
X52750Y-46000D01*
X52500Y-54000D02*
X52500Y-54500D01*
X52500Y-48000D02*
X52500Y-51250D01*
X52500Y-43750D02*
X52500Y-46000D01*
X52250Y-54000D02*
X52250Y-54500D01*
X52250Y-48000D02*
X52250Y-51500D01*
X52250Y-43750D02*
X52250Y-46000D01*
X52000Y-54250D02*
X52000Y-54500D01*
X52000Y-48000D02*
X52000Y-51500D01*
X52000Y-43750D02*
X52000Y-46000D01*
X51750Y-54000D02*
X51750Y-54500D01*
X51750Y-48000D02*
X51750Y-52000D01*
X51750Y-43750D02*
X51750Y-46000D01*
X51500Y-53250D02*
X51500Y-54500D01*
X51500Y-48000D02*
X51500Y-50250D01*
X51500Y-43750D02*
X51500Y-46000D01*
X51250Y-48000D02*
X51250Y-50000D01*
X51250Y-43750D02*
X51250Y-46000D01*
X51000Y-48000D02*
X51000Y-50000D01*
X51000Y-43750D02*
X51000Y-46000D01*
X50750Y-48000D02*
X50750Y-50000D01*
X50750Y-43750D02*
X50750Y-46000D01*
X50500Y-48000D02*
X50500Y-50250D01*
X50500Y-43750D02*
X50500Y-46000D01*
X50250Y-48000D02*
X50250Y-50250D01*
X50250Y-43750D02*
X50250Y-46000D01*
X50000Y-52500D02*
X50000Y-54500D01*
X50000Y-48000D02*
X50000Y-50000D01*
X50000Y-43750D02*
X50000Y-46000D01*
X49750Y-52500D02*
X49750Y-54500D01*
X49750Y-48000D02*
X49750Y-50000D01*
X49750Y-43750D02*
X49750Y-46000D01*
X49500Y-52500D02*
X49500Y-54500D01*
X49500Y-48000D02*
X49500Y-50000D01*
X49500Y-43750D02*
X49500Y-46000D01*
X49250Y-52250D02*
X49250Y-54500D01*
X49250Y-48000D02*
X49250Y-50250D01*
X49250Y-43750D02*
X49250Y-46000D01*
X49000Y-48000D02*
X49000Y-54500D01*
X49000Y-43750D02*
X49000Y-46000D01*
X48750Y-48000D02*
X48750Y-54500D01*
X48750Y-43750D02*
X48750Y-46000D01*
X48500Y-52250D02*
X48500Y-54500D01*
X48500Y-48000D02*
X48500Y-50250D01*
X48500Y-43750D02*
X48500Y-46000D01*
X48250Y-52500D02*
X48250Y-54500D01*
X48250Y-48000D02*
X48250Y-50000D01*
X48250Y-43750D02*
X48250Y-46000D01*
X48000Y-52500D02*
X48000Y-54500D01*
X48000Y-48000D02*
X48000Y-48750D01*
X48000Y-43750D02*
X48000Y-46000D01*
X47750Y-52500D02*
X47750Y-54500D01*
X47750Y-48000D02*
X47750Y-48500D01*
X47750Y-43750D02*
X47750Y-46000D01*
X47500Y-52250D02*
X47500Y-54500D01*
X47500Y-47750D02*
X47500Y-48500D01*
X47500Y-45000D02*
X47500Y-46250D01*
X47500Y-43750D02*
X47500Y-44250D01*
X47250Y-53500D02*
X47250Y-53750D01*
X47250Y-50500D02*
X47250Y-52500D01*
X47250Y-47500D02*
X47250Y-48250D01*
X47250Y-45500D02*
X47250Y-46500D01*
X47000Y-50500D02*
X47000Y-52250D01*
X47000Y-45500D02*
X47000Y-48500D01*
X46750Y-50250D02*
X46750Y-51250D01*
X46750Y-45750D02*
X46750Y-48500D01*
X46500Y-50000D02*
X46500Y-51250D01*
X46500Y-47500D02*
X46500Y-48750D01*
X46500Y-45750D02*
X46500Y-46500D01*
X46250Y-53500D02*
X46250Y-53750D01*
X46250Y-47750D02*
X46250Y-50500D01*
X46250Y-45500D02*
X46250Y-46250D01*
X46000Y-52750D02*
X46000Y-53750D01*
X46000Y-48000D02*
X46000Y-50250D01*
X46000Y-45500D02*
X46000Y-46000D01*
X45750Y-53000D02*
X45750Y-53750D01*
X45750Y-48000D02*
X45750Y-50250D01*
X45750Y-45000D02*
X45750Y-46000D01*
X45750Y-43750D02*
X45750Y-44250D01*
X45500Y-53000D02*
X45500Y-53750D01*
X45500Y-48000D02*
X45500Y-50500D01*
X45500Y-43750D02*
X45500Y-46000D01*
X45250Y-53250D02*
X45250Y-53750D01*
X45250Y-48000D02*
X45250Y-51000D01*
X45250Y-43750D02*
X45250Y-46000D01*
X45000Y-53500D02*
X45000Y-53750D01*
X45000Y-48000D02*
X45000Y-50750D01*
X45000Y-43750D02*
X45000Y-46000D01*
X44750Y-53500D02*
X44750Y-53750D01*
X44750Y-48000D02*
X44750Y-51000D01*
X44750Y-43750D02*
X44750Y-46000D01*
X44500Y-53500D02*
X44500Y-53750D01*
X44500Y-48000D02*
X44500Y-51250D01*
X44500Y-43750D02*
X44500Y-46000D01*
X44250Y-48000D02*
X44250Y-51250D01*
X44250Y-43750D02*
X44250Y-46000D01*
X44000Y-48000D02*
X44000Y-51500D01*
X44000Y-43750D02*
X44000Y-46000D01*
X43750Y-48000D02*
X43750Y-51500D01*
X43750Y-43750D02*
X43750Y-46000D01*
X43500Y-48000D02*
X43500Y-52000D01*
X43500Y-43750D02*
X43500Y-46000D01*
X43250Y-48000D02*
X43250Y-50250D01*
X43250Y-43750D02*
X43250Y-46000D01*
X43000Y-48000D02*
X43000Y-50000D01*
X43000Y-43750D02*
X43000Y-46000D01*
X42750Y-48000D02*
X42750Y-50000D01*
X42750Y-43750D02*
X42750Y-46000D01*
X42500Y-48000D02*
X42500Y-50000D01*
X42500Y-43750D02*
X42500Y-46000D01*
X42250Y-48000D02*
X42250Y-50250D01*
X42250Y-43750D02*
X42250Y-46000D01*
X42000Y-48000D02*
X42000Y-50250D01*
X42000Y-43750D02*
X42000Y-46000D01*
X41750Y-52500D02*
X41750Y-53250D01*
X41750Y-48000D02*
X41750Y-50000D01*
X41750Y-43750D02*
X41750Y-46000D01*
X41500Y-52500D02*
X41500Y-53250D01*
X41500Y-48000D02*
X41500Y-50000D01*
X41500Y-43750D02*
X41500Y-46000D01*
X41250Y-52500D02*
X41250Y-53250D01*
X41250Y-48000D02*
X41250Y-50000D01*
X41250Y-43750D02*
X41250Y-46000D01*
X41000Y-52250D02*
X41000Y-53250D01*
X41000Y-48000D02*
X41000Y-50250D01*
X41000Y-43750D02*
X41000Y-46000D01*
X40750Y-48000D02*
X40750Y-53250D01*
X40750Y-43750D02*
X40750Y-46000D01*
X40500Y-48000D02*
X40500Y-53250D01*
X40500Y-43750D02*
X40500Y-46000D01*
X40250Y-52250D02*
X40250Y-53250D01*
X40250Y-48000D02*
X40250Y-50250D01*
X40250Y-43750D02*
X40250Y-46000D01*
X40000Y-52500D02*
X40000Y-53250D01*
X40000Y-48000D02*
X40000Y-50000D01*
X40000Y-43750D02*
X40000Y-46000D01*
X39750Y-52500D02*
X39750Y-53250D01*
X39750Y-48000D02*
X39750Y-48750D01*
X39750Y-43750D02*
X39750Y-46000D01*
X39500Y-52500D02*
X39500Y-53250D01*
X39500Y-48000D02*
X39500Y-48500D01*
X39500Y-43750D02*
X39500Y-46000D01*
X39250Y-52250D02*
X39250Y-53250D01*
X39250Y-47750D02*
X39250Y-48500D01*
X39250Y-45000D02*
X39250Y-46250D01*
X39250Y-43750D02*
X39250Y-44250D01*
X39000Y-50500D02*
X39000Y-52500D01*
X39000Y-47500D02*
X39000Y-48250D01*
X39000Y-45500D02*
X39000Y-46500D01*
X38750Y-50500D02*
X38750Y-52250D01*
X38750Y-45500D02*
X38750Y-48500D01*
X38500Y-50250D02*
X38500Y-51250D01*
X38500Y-45750D02*
X38500Y-48500D01*
X38250Y-50000D02*
X38250Y-51250D01*
X38250Y-47750D02*
X38250Y-48750D01*
X38250Y-45750D02*
X38250Y-46250D01*
X38000Y-47750D02*
X38000Y-50500D01*
X38000Y-45500D02*
X38000Y-46250D01*
X37750Y-48000D02*
X37750Y-50250D01*
X37750Y-45500D02*
X37750Y-46000D01*
X37500Y-48000D02*
X37500Y-50250D01*
X37500Y-45000D02*
X37500Y-46000D01*
X37500Y-43750D02*
X37500Y-44250D01*
X37250Y-48000D02*
X37250Y-50500D01*
X37250Y-43750D02*
X37250Y-46000D01*
X37000Y-48000D02*
X37000Y-51000D01*
X37000Y-43750D02*
X37000Y-46000D01*
X36750Y-48000D02*
X36750Y-50750D01*
X36750Y-43750D02*
X36750Y-46000D01*
X36500Y-48000D02*
X36500Y-51000D01*
X36500Y-43750D02*
X36500Y-46000D01*
X36250Y-48000D02*
X36250Y-51250D01*
X36250Y-43750D02*
X36250Y-46000D01*
X36000Y-48000D02*
X36000Y-51250D01*
X36000Y-43750D02*
X36000Y-46000D01*
X35750Y-48000D02*
X35750Y-51500D01*
X35750Y-43750D02*
X35750Y-46000D01*
X35500Y-48000D02*
X35500Y-51500D01*
X35500Y-43750D02*
X35500Y-46000D01*
X35250Y-48000D02*
X35250Y-52000D01*
X35250Y-43750D02*
X35250Y-46000D01*
X35000Y-48000D02*
X35000Y-50250D01*
X35000Y-43750D02*
X35000Y-46000D01*
X34750Y-48000D02*
X34750Y-50000D01*
X34750Y-43750D02*
X34750Y-46000D01*
X34500Y-48000D02*
X34500Y-50000D01*
X34500Y-43750D02*
X34500Y-46000D01*
X34250Y-48000D02*
X34250Y-50000D01*
X34250Y-43750D02*
X34250Y-46000D01*
X34000Y-48000D02*
X34000Y-50250D01*
X34000Y-43750D02*
X34000Y-46000D01*
X33750Y-48000D02*
X33750Y-50250D01*
X33750Y-43750D02*
X33750Y-46000D01*
X33500Y-48000D02*
X33500Y-50000D01*
X33500Y-43750D02*
X33500Y-46000D01*
X33250Y-52500D02*
X33250Y-53250D01*
X33250Y-48000D02*
X33250Y-50000D01*
X33250Y-43750D02*
X33250Y-46000D01*
X33000Y-52500D02*
X33000Y-53250D01*
X33000Y-48000D02*
X33000Y-50000D01*
X33000Y-43750D02*
X33000Y-46000D01*
X32750Y-52250D02*
X32750Y-53250D01*
X32750Y-48000D02*
X32750Y-50250D01*
X32750Y-43750D02*
X32750Y-46000D01*
X32500Y-48000D02*
X32500Y-53250D01*
X32500Y-43750D02*
X32500Y-46000D01*
X32250Y-48000D02*
X32250Y-53250D01*
X32250Y-43750D02*
X32250Y-46000D01*
X32000Y-52250D02*
X32000Y-53250D01*
X32000Y-48000D02*
X32000Y-50250D01*
X32000Y-43750D02*
X32000Y-46000D01*
X31750Y-52500D02*
X31750Y-53250D01*
X31750Y-48000D02*
X31750Y-50000D01*
X31750Y-43750D02*
X31750Y-46000D01*
X31500Y-52500D02*
X31500Y-53250D01*
X31500Y-48000D02*
X31500Y-48750D01*
X31500Y-43750D02*
X31500Y-46000D01*
X31250Y-52500D02*
X31250Y-53250D01*
X31250Y-48000D02*
X31250Y-48500D01*
X31250Y-43750D02*
X31250Y-46000D01*
X31000Y-52250D02*
X31000Y-53250D01*
X31000Y-47750D02*
X31000Y-48500D01*
X31000Y-45000D02*
X31000Y-46250D01*
X31000Y-43750D02*
X31000Y-44250D01*
X30750Y-50500D02*
X30750Y-53250D01*
X30750Y-47250D02*
X30750Y-48250D01*
X30750Y-45500D02*
X30750Y-46750D01*
X30500Y-50500D02*
X30500Y-52500D01*
X30500Y-45500D02*
X30500Y-48500D01*
X30250Y-50250D02*
X30250Y-51250D01*
X30250Y-45750D02*
X30250Y-48500D01*
X30000Y-50000D02*
X30000Y-51250D01*
X30000Y-45750D02*
X30000Y-48750D01*
X29750Y-49000D02*
X29750Y-49750D01*
X29750Y-48000D02*
X29750Y-48500D01*
X29750Y-47000D02*
X29750Y-47500D01*
X29750Y-46000D02*
X29750Y-46500D01*
X29500Y-49250D02*
X29500Y-49500D01*
X29000Y-49250D02*
X29000Y-49500D01*
X28750Y-49000D02*
X28750Y-49750D01*
X28500Y-49250D02*
X28500Y-50500D01*
X28250Y-49500D02*
X28250Y-52250D01*
X28000Y-49750D02*
X28000Y-50500D01*
X27750Y-50000D02*
X27750Y-50250D01*
X51500Y-54500D02*
X55500Y-54500D01*
X47500Y-54500D02*
X50000Y-54500D01*
X51500Y-54250D02*
X55500Y-54250D01*
X47500Y-54250D02*
X50000Y-54250D01*
X52250Y-54000D02*
X55500Y-54000D01*
X51500Y-54000D02*
X51750Y-54000D01*
X47500Y-54000D02*
X50000Y-54000D01*
X52750Y-53750D02*
X55500Y-53750D01*
X47250Y-53750D02*
X50000Y-53750D01*
X44500Y-53750D02*
X46250Y-53750D01*
X52750Y-53500D02*
X55500Y-53500D01*
X47250Y-53500D02*
X50000Y-53500D01*
X44500Y-53500D02*
X46250Y-53500D01*
X53500Y-53250D02*
X55500Y-53250D01*
X47500Y-53250D02*
X50000Y-53250D01*
X45250Y-53250D02*
X46000Y-53250D01*
X39250Y-53250D02*
X41750Y-53250D01*
X30750Y-53250D02*
X33250Y-53250D01*
X53750Y-53000D02*
X55500Y-53000D01*
X47500Y-53000D02*
X50000Y-53000D01*
X45500Y-53000D02*
X46000Y-53000D01*
X39250Y-53000D02*
X41750Y-53000D01*
X30750Y-53000D02*
X33250Y-53000D01*
X54250Y-52750D02*
X55500Y-52750D01*
X47500Y-52750D02*
X50000Y-52750D01*
X39250Y-52750D02*
X41750Y-52750D01*
X30750Y-52750D02*
X33250Y-52750D01*
X54500Y-52500D02*
X55500Y-52500D01*
X47250Y-52500D02*
X50000Y-52500D01*
X39000Y-52500D02*
X41750Y-52500D01*
X30500Y-52500D02*
X33250Y-52500D01*
X55250Y-52250D02*
X55500Y-52250D01*
X48500Y-52250D02*
X49250Y-52250D01*
X47000Y-52250D02*
X47500Y-52250D01*
X40250Y-52250D02*
X41000Y-52250D01*
X38750Y-52250D02*
X39250Y-52250D01*
X32000Y-52250D02*
X32750Y-52250D01*
X30500Y-52250D02*
X31000Y-52250D01*
X55250Y-52000D02*
X55500Y-52000D01*
X48750Y-52000D02*
X49000Y-52000D01*
X47000Y-52000D02*
X47250Y-52000D01*
X40500Y-52000D02*
X40750Y-52000D01*
X38750Y-52000D02*
X39000Y-52000D01*
X32250Y-52000D02*
X32500Y-52000D01*
X30500Y-52000D02*
X30750Y-52000D01*
X28250Y-52000D02*
X28500Y-52000D01*
X55250Y-51750D02*
X55500Y-51750D01*
X48750Y-51750D02*
X49000Y-51750D01*
X47000Y-51750D02*
X47250Y-51750D01*
X40500Y-51750D02*
X40750Y-51750D01*
X38750Y-51750D02*
X39000Y-51750D01*
X32250Y-51750D02*
X32500Y-51750D01*
X30500Y-51750D02*
X30750Y-51750D01*
X55250Y-51500D02*
X55500Y-51500D01*
X51750Y-51500D02*
X52250Y-51500D01*
X48750Y-51500D02*
X49000Y-51500D01*
X47000Y-51500D02*
X47250Y-51500D01*
X43500Y-51500D02*
X44000Y-51500D01*
X40500Y-51500D02*
X40750Y-51500D01*
X38750Y-51500D02*
X39000Y-51500D01*
X35250Y-51500D02*
X35750Y-51500D01*
X32250Y-51500D02*
X32500Y-51500D01*
X30500Y-51500D02*
X30750Y-51500D01*
X28000Y-51500D02*
X28250Y-51500D01*
X54750Y-51250D02*
X55500Y-51250D01*
X51500Y-51250D02*
X52750Y-51250D01*
X48500Y-51250D02*
X49250Y-51250D01*
X46500Y-51250D02*
X47500Y-51250D01*
X43250Y-51250D02*
X44500Y-51250D01*
X40250Y-51250D02*
X41000Y-51250D01*
X38250Y-51250D02*
X39250Y-51250D01*
X35000Y-51250D02*
X36250Y-51250D01*
X32000Y-51250D02*
X32750Y-51250D01*
X30000Y-51250D02*
X31000Y-51250D01*
X54750Y-51000D02*
X55500Y-51000D01*
X51750Y-51000D02*
X53000Y-51000D01*
X48750Y-51000D02*
X49000Y-51000D01*
X46500Y-51000D02*
X47250Y-51000D01*
X43500Y-51000D02*
X44750Y-51000D01*
X40500Y-51000D02*
X40750Y-51000D01*
X38250Y-51000D02*
X39000Y-51000D01*
X35250Y-51000D02*
X36500Y-51000D01*
X32250Y-51000D02*
X32500Y-51000D01*
X30000Y-51000D02*
X30750Y-51000D01*
X54750Y-50750D02*
X55500Y-50750D01*
X51750Y-50750D02*
X53500Y-50750D01*
X48750Y-50750D02*
X49000Y-50750D01*
X46500Y-50750D02*
X47250Y-50750D01*
X43500Y-50750D02*
X45250Y-50750D01*
X40500Y-50750D02*
X40750Y-50750D01*
X38250Y-50750D02*
X39000Y-50750D01*
X35250Y-50750D02*
X37000Y-50750D01*
X32250Y-50750D02*
X32500Y-50750D01*
X29750Y-50750D02*
X30750Y-50750D01*
X54500Y-50500D02*
X55500Y-50500D01*
X51750Y-50500D02*
X53750Y-50500D01*
X48750Y-50500D02*
X49000Y-50500D01*
X46250Y-50500D02*
X47250Y-50500D01*
X43500Y-50500D02*
X45500Y-50500D01*
X40500Y-50500D02*
X40750Y-50500D01*
X38000Y-50500D02*
X39000Y-50500D01*
X35250Y-50500D02*
X37250Y-50500D01*
X32250Y-50500D02*
X32500Y-50500D01*
X30000Y-50500D02*
X30750Y-50500D01*
X28000Y-50500D02*
X28500Y-50500D01*
X51500Y-50250D02*
X55500Y-50250D01*
X50250Y-50250D02*
X50500Y-50250D01*
X48500Y-50250D02*
X49250Y-50250D01*
X43250Y-50250D02*
X46750Y-50250D01*
X42000Y-50250D02*
X42250Y-50250D01*
X40250Y-50250D02*
X41000Y-50250D01*
X35000Y-50250D02*
X38500Y-50250D01*
X33750Y-50250D02*
X34000Y-50250D01*
X32000Y-50250D02*
X32750Y-50250D01*
X30000Y-50250D02*
X30250Y-50250D01*
X27750Y-50250D02*
X28500Y-50250D01*
X48000Y-50000D02*
X55500Y-50000D01*
X39750Y-50000D02*
X46500Y-50000D01*
X31500Y-50000D02*
X38250Y-50000D01*
X27750Y-50000D02*
X28500Y-50000D01*
X48250Y-49750D02*
X55500Y-49750D01*
X40000Y-49750D02*
X46250Y-49750D01*
X31750Y-49750D02*
X38000Y-49750D01*
X28000Y-49750D02*
X28750Y-49750D01*
X48250Y-49500D02*
X55500Y-49500D01*
X40000Y-49500D02*
X46250Y-49500D01*
X31750Y-49500D02*
X38000Y-49500D01*
X28250Y-49500D02*
X29750Y-49500D01*
X48250Y-49250D02*
X55500Y-49250D01*
X40000Y-49250D02*
X46250Y-49250D01*
X31750Y-49250D02*
X38000Y-49250D01*
X29500Y-49250D02*
X29750Y-49250D01*
X28500Y-49250D02*
X29000Y-49250D01*
X48250Y-49000D02*
X55500Y-49000D01*
X40000Y-49000D02*
X46250Y-49000D01*
X31750Y-49000D02*
X38000Y-49000D01*
X48000Y-48750D02*
X55500Y-48750D01*
X39750Y-48750D02*
X46500Y-48750D01*
X31500Y-48750D02*
X38250Y-48750D01*
X47500Y-48500D02*
X55500Y-48500D01*
X39250Y-48500D02*
X47000Y-48500D01*
X31000Y-48500D02*
X38750Y-48500D01*
X29750Y-48500D02*
X30500Y-48500D01*
X29500Y-48250D02*
X55500Y-48250D01*
X29750Y-48000D02*
X55500Y-48000D01*
X54500Y-47750D02*
X55500Y-47750D01*
X46250Y-47750D02*
X47500Y-47750D01*
X38000Y-47750D02*
X39250Y-47750D01*
X30000Y-47750D02*
X31000Y-47750D01*
X54750Y-47500D02*
X55500Y-47500D01*
X46500Y-47500D02*
X47250Y-47500D01*
X38500Y-47500D02*
X39000Y-47500D01*
X29750Y-47500D02*
X30750Y-47500D01*
X55000Y-47250D02*
X55500Y-47250D01*
X46750Y-47250D02*
X47000Y-47250D01*
X38500Y-47250D02*
X38750Y-47250D01*
X29500Y-47250D02*
X30750Y-47250D01*
X55000Y-47000D02*
X55500Y-47000D01*
X46750Y-47000D02*
X47000Y-47000D01*
X38500Y-47000D02*
X38750Y-47000D01*
X29750Y-47000D02*
X30500Y-47000D01*
X55000Y-46750D02*
X55500Y-46750D01*
X46750Y-46750D02*
X47000Y-46750D01*
X38500Y-46750D02*
X38750Y-46750D01*
X30000Y-46750D02*
X30750Y-46750D01*
X54750Y-46500D02*
X55500Y-46500D01*
X46500Y-46500D02*
X47250Y-46500D01*
X38500Y-46500D02*
X39000Y-46500D01*
X29750Y-46500D02*
X30750Y-46500D01*
X54500Y-46250D02*
X55500Y-46250D01*
X46250Y-46250D02*
X47500Y-46250D01*
X38000Y-46250D02*
X39250Y-46250D01*
X29500Y-46250D02*
X31000Y-46250D01*
X29750Y-46000D02*
X55500Y-46000D01*
X30000Y-45750D02*
X55500Y-45750D01*
X55250Y-45500D02*
X55500Y-45500D01*
X47000Y-45500D02*
X54500Y-45500D01*
X38750Y-45500D02*
X46250Y-45500D01*
X30500Y-45500D02*
X38000Y-45500D01*
X47500Y-45250D02*
X54000Y-45250D01*
X39250Y-45250D02*
X45750Y-45250D01*
X31000Y-45250D02*
X37500Y-45250D01*
X47500Y-45000D02*
X54000Y-45000D01*
X39250Y-45000D02*
X45750Y-45000D01*
X31000Y-45000D02*
X37500Y-45000D01*
X47750Y-44750D02*
X53750Y-44750D01*
X39500Y-44750D02*
X45500Y-44750D01*
X31250Y-44750D02*
X37250Y-44750D01*
X47750Y-44500D02*
X53750Y-44500D01*
X39500Y-44500D02*
X45500Y-44500D01*
X31250Y-44500D02*
X37250Y-44500D01*
X47500Y-44250D02*
X54000Y-44250D01*
X39250Y-44250D02*
X45750Y-44250D01*
X31000Y-44250D02*
X37500Y-44250D01*
X47500Y-44000D02*
X54000Y-44000D01*
X39250Y-44000D02*
X45750Y-44000D01*
X31000Y-44000D02*
X37500Y-44000D01*
X47000Y-43750D02*
X54500Y-43750D01*
X38750Y-43750D02*
X46250Y-43750D01*
X30500Y-43750D02*
X38000Y-43750D01*
G54D21*
X34500Y-50750D02*
X34500Y-50050D01*
X34500Y-50750D02*
X35200Y-50750D01*
X42750Y-50750D02*
X42750Y-50050D01*
X42750Y-50750D02*
X43450Y-50750D01*
X51000Y-50750D02*
X51000Y-50050D01*
X51000Y-50750D02*
X51700Y-50750D01*
X29250Y-51250D02*
X29950Y-51250D01*
X36770Y-51527D02*
X36399Y-50933D01*
X45020Y-51527D02*
X44649Y-50933D01*
X53270Y-51527D02*
X52899Y-50933D01*
X53800Y-52375D02*
X54171Y-52969D01*
X37300Y-52375D02*
X37671Y-52969D01*
G54D22*
X55500Y-45500D02*
X55500Y-54500D01*
X55250Y-45500D02*
X55250Y-54500D01*
X55000Y-52500D02*
X55000Y-54500D01*
X55000Y-45750D02*
X55000Y-51250D01*
X54750Y-52500D02*
X54750Y-54500D01*
X54750Y-47500D02*
X54750Y-51250D01*
X54750Y-45750D02*
X54750Y-46500D01*
X54500Y-52500D02*
X54500Y-54500D01*
X54500Y-47750D02*
X54500Y-50500D01*
X54500Y-45500D02*
X54500Y-46250D01*
X54250Y-52750D02*
X54250Y-54500D01*
X54250Y-48000D02*
X54250Y-50250D01*
X54250Y-45500D02*
X54250Y-46000D01*
X54000Y-53000D02*
X54000Y-54500D01*
X54000Y-48000D02*
X54000Y-50250D01*
X54000Y-45000D02*
X54000Y-46000D01*
X54000Y-43750D02*
X54000Y-44250D01*
X53750Y-53000D02*
X53750Y-54500D01*
X53750Y-48000D02*
X53750Y-50500D01*
X53750Y-43750D02*
X53750Y-46000D01*
X53500Y-53250D02*
X53500Y-54500D01*
X53500Y-48000D02*
X53500Y-51000D01*
X53500Y-43750D02*
X53500Y-46000D01*
X53250Y-53500D02*
X53250Y-54500D01*
X53250Y-48000D02*
X53250Y-50750D01*
X53250Y-43750D02*
X53250Y-46000D01*
X53000Y-53500D02*
X53000Y-54500D01*
X53000Y-48000D02*
X53000Y-51000D01*
X53000Y-43750D02*
X53000Y-46000D01*
X52750Y-53500D02*
X52750Y-54500D01*
X52750Y-48000D02*
X52750Y-51250D01*
X52750Y-43750D02*
X52750Y-46000D01*
X52500Y-54000D02*
X52500Y-54500D01*
X52500Y-48000D02*
X52500Y-51250D01*
X52500Y-43750D02*
X52500Y-46000D01*
X52250Y-54000D02*
X52250Y-54500D01*
X52250Y-48000D02*
X52250Y-51500D01*
X52250Y-43750D02*
X52250Y-46000D01*
X52000Y-54250D02*
X52000Y-54500D01*
X52000Y-48000D02*
X52000Y-51500D01*
X52000Y-43750D02*
X52000Y-46000D01*
X51750Y-54000D02*
X51750Y-54500D01*
X51750Y-48000D02*
X51750Y-52000D01*
X51750Y-43750D02*
X51750Y-46000D01*
X51500Y-53250D02*
X51500Y-54500D01*
X51500Y-48000D02*
X51500Y-50250D01*
X51500Y-43750D02*
X51500Y-46000D01*
X51250Y-48000D02*
X51250Y-50000D01*
X51250Y-43750D02*
X51250Y-46000D01*
X51000Y-48000D02*
X51000Y-50000D01*
X51000Y-43750D02*
X51000Y-46000D01*
X50750Y-48000D02*
X50750Y-50000D01*
X50750Y-43750D02*
X50750Y-46000D01*
X50500Y-48000D02*
X50500Y-50250D01*
X50500Y-43750D02*
X50500Y-46000D01*
X50250Y-48000D02*
X50250Y-50250D01*
X50250Y-43750D02*
X50250Y-46000D01*
X50000Y-52500D02*
X50000Y-54500D01*
X50000Y-48000D02*
X50000Y-50000D01*
X50000Y-43750D02*
X50000Y-46000D01*
X49750Y-52500D02*
X49750Y-54500D01*
X49750Y-48000D02*
X49750Y-50000D01*
X49750Y-43750D02*
X49750Y-46000D01*
X49500Y-52500D02*
X49500Y-54500D01*
X49500Y-48000D02*
X49500Y-50000D01*
X49500Y-43750D02*
X49500Y-46000D01*
X49250Y-52250D02*
X49250Y-54500D01*
X49250Y-48000D02*
X49250Y-50250D01*
X49250Y-43750D02*
X49250Y-46000D01*
X49000Y-48000D02*
X49000Y-54500D01*
X49000Y-43750D02*
X49000Y-46000D01*
X48750Y-48000D02*
X48750Y-54500D01*
X48750Y-43750D02*
X48750Y-46000D01*
X48500Y-52250D02*
X48500Y-54500D01*
X48500Y-48000D02*
X48500Y-50250D01*
X48500Y-43750D02*
X48500Y-46000D01*
X48250Y-52500D02*
X48250Y-54500D01*
X48250Y-48000D02*
X48250Y-50000D01*
X48250Y-43750D02*
X48250Y-46000D01*
X48000Y-52500D02*
X48000Y-54500D01*
X48000Y-48000D02*
X48000Y-48750D01*
X48000Y-43750D02*
X48000Y-46000D01*
X47750Y-52500D02*
X47750Y-54500D01*
X47750Y-48000D02*
X47750Y-48500D01*
X47750Y-43750D02*
X47750Y-46000D01*
X47500Y-52250D02*
X47500Y-54500D01*
X47500Y-47750D02*
X47500Y-48500D01*
X47500Y-45000D02*
X47500Y-46250D01*
X47500Y-43750D02*
X47500Y-44250D01*
X47250Y-53500D02*
X47250Y-53750D01*
X47250Y-50500D02*
X47250Y-52500D01*
X47250Y-47500D02*
X47250Y-48250D01*
X47250Y-45500D02*
X47250Y-46500D01*
X47000Y-50500D02*
X47000Y-52250D01*
X47000Y-45500D02*
X47000Y-48500D01*
X46750Y-50250D02*
X46750Y-51250D01*
X46750Y-45750D02*
X46750Y-48500D01*
X46500Y-50000D02*
X46500Y-51250D01*
X46500Y-47500D02*
X46500Y-48750D01*
X46500Y-45750D02*
X46500Y-46500D01*
X46250Y-47750D02*
X46250Y-50500D01*
X46250Y-45500D02*
X46250Y-46250D01*
X46000Y-48000D02*
X46000Y-50250D01*
X46000Y-45500D02*
X46000Y-46000D01*
X45750Y-48000D02*
X45750Y-50250D01*
X45750Y-45000D02*
X45750Y-46000D01*
X45750Y-43750D02*
X45750Y-44250D01*
X45500Y-48000D02*
X45500Y-50500D01*
X45500Y-43750D02*
X45500Y-46000D01*
X45250Y-48000D02*
X45250Y-51000D01*
X45250Y-43750D02*
X45250Y-46000D01*
X45000Y-48000D02*
X45000Y-50750D01*
X45000Y-43750D02*
X45000Y-46000D01*
X44750Y-48000D02*
X44750Y-51000D01*
X44750Y-43750D02*
X44750Y-46000D01*
X44500Y-48000D02*
X44500Y-51250D01*
X44500Y-43750D02*
X44500Y-46000D01*
X44250Y-48000D02*
X44250Y-51250D01*
X44250Y-43750D02*
X44250Y-46000D01*
X44000Y-48000D02*
X44000Y-51500D01*
X44000Y-43750D02*
X44000Y-46000D01*
X43750Y-48000D02*
X43750Y-51500D01*
X43750Y-43750D02*
X43750Y-46000D01*
X43500Y-48000D02*
X43500Y-52000D01*
X43500Y-43750D02*
X43500Y-46000D01*
X43250Y-48000D02*
X43250Y-50250D01*
X43250Y-43750D02*
X43250Y-46000D01*
X43000Y-48000D02*
X43000Y-50000D01*
X43000Y-43750D02*
X43000Y-46000D01*
X42750Y-48000D02*
X42750Y-50000D01*
X42750Y-43750D02*
X42750Y-46000D01*
X42500Y-48000D02*
X42500Y-50000D01*
X42500Y-43750D02*
X42500Y-46000D01*
X42250Y-48000D02*
X42250Y-50250D01*
X42250Y-43750D02*
X42250Y-46000D01*
X42000Y-48000D02*
X42000Y-50250D01*
X42000Y-43750D02*
X42000Y-46000D01*
X41750Y-52500D02*
X41750Y-53250D01*
X41750Y-48000D02*
X41750Y-50000D01*
X41750Y-43750D02*
X41750Y-46000D01*
X41500Y-52500D02*
X41500Y-53250D01*
X41500Y-48000D02*
X41500Y-50000D01*
X41500Y-43750D02*
X41500Y-46000D01*
X41250Y-52500D02*
X41250Y-53250D01*
X41250Y-48000D02*
X41250Y-50000D01*
X41250Y-43750D02*
X41250Y-46000D01*
X41000Y-52250D02*
X41000Y-53250D01*
X41000Y-48000D02*
X41000Y-50250D01*
X41000Y-43750D02*
X41000Y-46000D01*
X40750Y-48000D02*
X40750Y-53250D01*
X40750Y-43750D02*
X40750Y-46000D01*
X40500Y-48000D02*
X40500Y-53250D01*
X40500Y-43750D02*
X40500Y-46000D01*
X40250Y-52250D02*
X40250Y-53250D01*
X40250Y-48000D02*
X40250Y-50250D01*
X40250Y-43750D02*
X40250Y-46000D01*
X40000Y-52500D02*
X40000Y-53250D01*
X40000Y-48000D02*
X40000Y-50000D01*
X40000Y-43750D02*
X40000Y-46000D01*
X39750Y-52500D02*
X39750Y-53250D01*
X39750Y-48000D02*
X39750Y-48750D01*
X39750Y-43750D02*
X39750Y-46000D01*
X39500Y-52500D02*
X39500Y-53250D01*
X39500Y-48000D02*
X39500Y-48500D01*
X39500Y-43750D02*
X39500Y-46000D01*
X39250Y-52250D02*
X39250Y-53250D01*
X39250Y-47750D02*
X39250Y-48500D01*
X39250Y-45000D02*
X39250Y-46250D01*
X39250Y-43750D02*
X39250Y-44250D01*
X39000Y-50500D02*
X39000Y-52500D01*
X39000Y-47500D02*
X39000Y-48250D01*
X39000Y-45500D02*
X39000Y-46500D01*
X38750Y-50500D02*
X38750Y-52250D01*
X38750Y-45500D02*
X38750Y-48500D01*
X38500Y-50250D02*
X38500Y-51250D01*
X38500Y-45750D02*
X38500Y-48500D01*
X38250Y-50000D02*
X38250Y-51250D01*
X38250Y-47750D02*
X38250Y-48750D01*
X38250Y-45750D02*
X38250Y-46250D01*
X38000Y-53500D02*
X38000Y-53750D01*
X38000Y-47750D02*
X38000Y-50500D01*
X38000Y-45500D02*
X38000Y-46250D01*
X37750Y-52750D02*
X37750Y-53750D01*
X37750Y-48000D02*
X37750Y-50250D01*
X37750Y-45500D02*
X37750Y-46000D01*
X37500Y-53000D02*
X37500Y-53750D01*
X37500Y-48000D02*
X37500Y-50250D01*
X37500Y-45000D02*
X37500Y-46000D01*
X37500Y-43750D02*
X37500Y-44250D01*
X37250Y-53000D02*
X37250Y-53750D01*
X37250Y-48000D02*
X37250Y-50500D01*
X37250Y-43750D02*
X37250Y-46000D01*
X37000Y-53250D02*
X37000Y-53750D01*
X37000Y-48000D02*
X37000Y-51000D01*
X37000Y-43750D02*
X37000Y-46000D01*
X36750Y-53500D02*
X36750Y-53750D01*
X36750Y-48000D02*
X36750Y-50750D01*
X36750Y-43750D02*
X36750Y-46000D01*
X36500Y-53500D02*
X36500Y-53750D01*
X36500Y-48000D02*
X36500Y-51000D01*
X36500Y-43750D02*
X36500Y-46000D01*
X36250Y-53500D02*
X36250Y-53750D01*
X36250Y-48000D02*
X36250Y-51250D01*
X36250Y-43750D02*
X36250Y-46000D01*
X36000Y-48000D02*
X36000Y-51250D01*
X36000Y-43750D02*
X36000Y-46000D01*
X35750Y-48000D02*
X35750Y-51500D01*
X35750Y-43750D02*
X35750Y-46000D01*
X35500Y-48000D02*
X35500Y-51500D01*
X35500Y-43750D02*
X35500Y-46000D01*
X35250Y-48000D02*
X35250Y-52000D01*
X35250Y-43750D02*
X35250Y-46000D01*
X35000Y-48000D02*
X35000Y-50250D01*
X35000Y-43750D02*
X35000Y-46000D01*
X34750Y-48000D02*
X34750Y-50000D01*
X34750Y-43750D02*
X34750Y-46000D01*
X34500Y-48000D02*
X34500Y-50000D01*
X34500Y-43750D02*
X34500Y-46000D01*
X34250Y-48000D02*
X34250Y-50000D01*
X34250Y-43750D02*
X34250Y-46000D01*
X34000Y-48000D02*
X34000Y-50250D01*
X34000Y-43750D02*
X34000Y-46000D01*
X33750Y-48000D02*
X33750Y-50250D01*
X33750Y-43750D02*
X33750Y-46000D01*
X33500Y-48000D02*
X33500Y-50000D01*
X33500Y-43750D02*
X33500Y-46000D01*
X33250Y-52500D02*
X33250Y-53250D01*
X33250Y-48000D02*
X33250Y-50000D01*
X33250Y-43750D02*
X33250Y-46000D01*
X33000Y-52500D02*
X33000Y-53250D01*
X33000Y-48000D02*
X33000Y-50000D01*
X33000Y-43750D02*
X33000Y-46000D01*
X32750Y-52250D02*
X32750Y-53250D01*
X32750Y-48000D02*
X32750Y-50250D01*
X32750Y-43750D02*
X32750Y-46000D01*
X32500Y-48000D02*
X32500Y-53250D01*
X32500Y-43750D02*
X32500Y-46000D01*
X32250Y-48000D02*
X32250Y-53250D01*
X32250Y-43750D02*
X32250Y-46000D01*
X32000Y-52250D02*
X32000Y-53250D01*
X32000Y-48000D02*
X32000Y-50250D01*
X32000Y-43750D02*
X32000Y-46000D01*
X31750Y-52500D02*
X31750Y-53250D01*
X31750Y-48000D02*
X31750Y-50000D01*
X31750Y-43750D02*
X31750Y-46000D01*
X31500Y-52500D02*
X31500Y-53250D01*
X31500Y-48000D02*
X31500Y-48750D01*
X31500Y-43750D02*
X31500Y-46000D01*
X31250Y-52500D02*
X31250Y-53250D01*
X31250Y-48000D02*
X31250Y-48500D01*
X31250Y-43750D02*
X31250Y-46000D01*
X31000Y-52250D02*
X31000Y-53250D01*
X31000Y-47750D02*
X31000Y-48500D01*
X31000Y-45000D02*
X31000Y-46250D01*
X31000Y-43750D02*
X31000Y-44250D01*
X30750Y-50500D02*
X30750Y-53250D01*
X30750Y-47250D02*
X30750Y-48250D01*
X30750Y-45500D02*
X30750Y-46750D01*
X30500Y-50500D02*
X30500Y-52500D01*
X30500Y-45500D02*
X30500Y-48500D01*
X30250Y-50250D02*
X30250Y-51250D01*
X30250Y-45750D02*
X30250Y-48500D01*
X30000Y-50000D02*
X30000Y-51250D01*
X30000Y-45750D02*
X30000Y-48750D01*
X29750Y-49000D02*
X29750Y-49750D01*
X29750Y-48000D02*
X29750Y-48500D01*
X29750Y-47000D02*
X29750Y-47500D01*
X29750Y-46000D02*
X29750Y-46500D01*
X29500Y-49250D02*
X29500Y-49500D01*
X29000Y-49250D02*
X29000Y-49500D01*
X28750Y-49000D02*
X28750Y-49750D01*
X28500Y-49250D02*
X28500Y-50500D01*
X28250Y-49500D02*
X28250Y-52250D01*
X28000Y-49750D02*
X28000Y-50500D01*
X27750Y-50000D02*
X27750Y-50250D01*
X51500Y-54500D02*
X55500Y-54500D01*
X47500Y-54500D02*
X50000Y-54500D01*
X51500Y-54250D02*
X55500Y-54250D01*
X47500Y-54250D02*
X50000Y-54250D01*
X52250Y-54000D02*
X55500Y-54000D01*
X51500Y-54000D02*
X51750Y-54000D01*
X47500Y-54000D02*
X50000Y-54000D01*
X52750Y-53750D02*
X55500Y-53750D01*
X47250Y-53750D02*
X50000Y-53750D01*
X36250Y-53750D02*
X38000Y-53750D01*
X52750Y-53500D02*
X55500Y-53500D01*
X47250Y-53500D02*
X50000Y-53500D01*
X36250Y-53500D02*
X38000Y-53500D01*
X53500Y-53250D02*
X55500Y-53250D01*
X47500Y-53250D02*
X50000Y-53250D01*
X39250Y-53250D02*
X41750Y-53250D01*
X37000Y-53250D02*
X37750Y-53250D01*
X30750Y-53250D02*
X33250Y-53250D01*
X53750Y-53000D02*
X55500Y-53000D01*
X47500Y-53000D02*
X50000Y-53000D01*
X39250Y-53000D02*
X41750Y-53000D01*
X37250Y-53000D02*
X37750Y-53000D01*
X30750Y-53000D02*
X33250Y-53000D01*
X54250Y-52750D02*
X55500Y-52750D01*
X47500Y-52750D02*
X50000Y-52750D01*
X39250Y-52750D02*
X41750Y-52750D01*
X30750Y-52750D02*
X33250Y-52750D01*
X54500Y-52500D02*
X55500Y-52500D01*
X47250Y-52500D02*
X50000Y-52500D01*
X39000Y-52500D02*
X41750Y-52500D01*
X30500Y-52500D02*
X33250Y-52500D01*
X55250Y-52250D02*
X55500Y-52250D01*
X48500Y-52250D02*
X49250Y-52250D01*
X47000Y-52250D02*
X47500Y-52250D01*
X40250Y-52250D02*
X41000Y-52250D01*
X38750Y-52250D02*
X39250Y-52250D01*
X32000Y-52250D02*
X32750Y-52250D01*
X30500Y-52250D02*
X31000Y-52250D01*
X55250Y-52000D02*
X55500Y-52000D01*
X48750Y-52000D02*
X49000Y-52000D01*
X47000Y-52000D02*
X47250Y-52000D01*
X40500Y-52000D02*
X40750Y-52000D01*
X38750Y-52000D02*
X39000Y-52000D01*
X32250Y-52000D02*
X32500Y-52000D01*
X30500Y-52000D02*
X30750Y-52000D01*
X28250Y-52000D02*
X28500Y-52000D01*
X55250Y-51750D02*
X55500Y-51750D01*
X48750Y-51750D02*
X49000Y-51750D01*
X47000Y-51750D02*
X47250Y-51750D01*
X40500Y-51750D02*
X40750Y-51750D01*
X38750Y-51750D02*
X39000Y-51750D01*
X32250Y-51750D02*
X32500Y-51750D01*
X30500Y-51750D02*
X30750Y-51750D01*
X55250Y-51500D02*
X55500Y-51500D01*
X51750Y-51500D02*
X52250Y-51500D01*
X48750Y-51500D02*
X49000Y-51500D01*
X47000Y-51500D02*
X47250Y-51500D01*
X43500Y-51500D02*
X44000Y-51500D01*
X40500Y-51500D02*
X40750Y-51500D01*
X38750Y-51500D02*
X39000Y-51500D01*
X35250Y-51500D02*
X35750Y-51500D01*
X32250Y-51500D02*
X32500Y-51500D01*
X30500Y-51500D02*
X30750Y-51500D01*
X28000Y-51500D02*
X28250Y-51500D01*
X54750Y-51250D02*
X55500Y-51250D01*
X51500Y-51250D02*
X52750Y-51250D01*
X48500Y-51250D02*
X49250Y-51250D01*
X46500Y-51250D02*
X47500Y-51250D01*
X43250Y-51250D02*
X44500Y-51250D01*
X40250Y-51250D02*
X41000Y-51250D01*
X38250Y-51250D02*
X39250Y-51250D01*
X35000Y-51250D02*
X36250Y-51250D01*
X32000Y-51250D02*
X32750Y-51250D01*
X30000Y-51250D02*
X31000Y-51250D01*
X54750Y-51000D02*
X55500Y-51000D01*
X51750Y-51000D02*
X53000Y-51000D01*
X48750Y-51000D02*
X49000Y-51000D01*
X46500Y-51000D02*
X47250Y-51000D01*
X43500Y-51000D02*
X44750Y-51000D01*
X40500Y-51000D02*
X40750Y-51000D01*
X38250Y-51000D02*
X39000Y-51000D01*
X35250Y-51000D02*
X36500Y-51000D01*
X32250Y-51000D02*
X32500Y-51000D01*
X30000Y-51000D02*
X30750Y-51000D01*
X54750Y-50750D02*
X55500Y-50750D01*
X51750Y-50750D02*
X53500Y-50750D01*
X48750Y-50750D02*
X49000Y-50750D01*
X46500Y-50750D02*
X47250Y-50750D01*
X43500Y-50750D02*
X45250Y-50750D01*
X40500Y-50750D02*
X40750Y-50750D01*
X38250Y-50750D02*
X39000Y-50750D01*
X35250Y-50750D02*
X37000Y-50750D01*
X32250Y-50750D02*
X32500Y-50750D01*
X29750Y-50750D02*
X30750Y-50750D01*
X54500Y-50500D02*
X55500Y-50500D01*
X51750Y-50500D02*
X53750Y-50500D01*
X48750Y-50500D02*
X49000Y-50500D01*
X46250Y-50500D02*
X47250Y-50500D01*
X43500Y-50500D02*
X45500Y-50500D01*
X40500Y-50500D02*
X40750Y-50500D01*
X38000Y-50500D02*
X39000Y-50500D01*
X35250Y-50500D02*
X37250Y-50500D01*
X32250Y-50500D02*
X32500Y-50500D01*
X30000Y-50500D02*
X30750Y-50500D01*
X28000Y-50500D02*
X28500Y-50500D01*
X51500Y-50250D02*
X55500Y-50250D01*
X50250Y-50250D02*
X50500Y-50250D01*
X48500Y-50250D02*
X49250Y-50250D01*
X43250Y-50250D02*
X46750Y-50250D01*
X42000Y-50250D02*
X42250Y-50250D01*
X40250Y-50250D02*
X41000Y-50250D01*
X35000Y-50250D02*
X38500Y-50250D01*
X33750Y-50250D02*
X34000Y-50250D01*
X32000Y-50250D02*
X32750Y-50250D01*
X30000Y-50250D02*
X30250Y-50250D01*
X27750Y-50250D02*
X28500Y-50250D01*
X48000Y-50000D02*
X55500Y-50000D01*
X39750Y-50000D02*
X46500Y-50000D01*
X31500Y-50000D02*
X38250Y-50000D01*
X27750Y-50000D02*
X28500Y-50000D01*
X48250Y-49750D02*
X55500Y-49750D01*
X40000Y-49750D02*
X46250Y-49750D01*
X31750Y-49750D02*
X38000Y-49750D01*
X28000Y-49750D02*
X28750Y-49750D01*
X48250Y-49500D02*
X55500Y-49500D01*
X40000Y-49500D02*
X46250Y-49500D01*
X31750Y-49500D02*
X38000Y-49500D01*
X28250Y-49500D02*
X29750Y-49500D01*
X48250Y-49250D02*
X55500Y-49250D01*
X40000Y-49250D02*
X46250Y-49250D01*
X31750Y-49250D02*
X38000Y-49250D01*
X29500Y-49250D02*
X29750Y-49250D01*
X28500Y-49250D02*
X29000Y-49250D01*
X48250Y-49000D02*
X55500Y-49000D01*
X40000Y-49000D02*
X46250Y-49000D01*
X31750Y-49000D02*
X38000Y-49000D01*
X48000Y-48750D02*
X55500Y-48750D01*
X39750Y-48750D02*
X46500Y-48750D01*
X31500Y-48750D02*
X38250Y-48750D01*
X47500Y-48500D02*
X55500Y-48500D01*
X39250Y-48500D02*
X47000Y-48500D01*
X31000Y-48500D02*
X38750Y-48500D01*
X29750Y-48500D02*
X30500Y-48500D01*
X29500Y-48250D02*
X55500Y-48250D01*
X29750Y-48000D02*
X55500Y-48000D01*
X54500Y-47750D02*
X55500Y-47750D01*
X46250Y-47750D02*
X47500Y-47750D01*
X38000Y-47750D02*
X39250Y-47750D01*
X30000Y-47750D02*
X31000Y-47750D01*
X54750Y-47500D02*
X55500Y-47500D01*
X46500Y-47500D02*
X47250Y-47500D01*
X38500Y-47500D02*
X39000Y-47500D01*
X29750Y-47500D02*
X30750Y-47500D01*
X55000Y-47250D02*
X55500Y-47250D01*
X46750Y-47250D02*
X47000Y-47250D01*
X38500Y-47250D02*
X38750Y-47250D01*
X29500Y-47250D02*
X30750Y-47250D01*
X55000Y-47000D02*
X55500Y-47000D01*
X46750Y-47000D02*
X47000Y-47000D01*
X38500Y-47000D02*
X38750Y-47000D01*
X29750Y-47000D02*
X30500Y-47000D01*
X55000Y-46750D02*
X55500Y-46750D01*
X46750Y-46750D02*
X47000Y-46750D01*
X38500Y-46750D02*
X38750Y-46750D01*
X30000Y-46750D02*
X30750Y-46750D01*
X54750Y-46500D02*
X55500Y-46500D01*
X46500Y-46500D02*
X47250Y-46500D01*
X38500Y-46500D02*
X39000Y-46500D01*
X29750Y-46500D02*
X30750Y-46500D01*
X54500Y-46250D02*
X55500Y-46250D01*
X46250Y-46250D02*
X47500Y-46250D01*
X38000Y-46250D02*
X39250Y-46250D01*
X29500Y-46250D02*
X31000Y-46250D01*
X29750Y-46000D02*
X55500Y-46000D01*
X30000Y-45750D02*
X55500Y-45750D01*
X55250Y-45500D02*
X55500Y-45500D01*
X47000Y-45500D02*
X54500Y-45500D01*
X38750Y-45500D02*
X46250Y-45500D01*
X30500Y-45500D02*
X38000Y-45500D01*
X47500Y-45250D02*
X54000Y-45250D01*
X39250Y-45250D02*
X45750Y-45250D01*
X31000Y-45250D02*
X37500Y-45250D01*
X47500Y-45000D02*
X54000Y-45000D01*
X39250Y-45000D02*
X45750Y-45000D01*
X31000Y-45000D02*
X37500Y-45000D01*
X47750Y-44750D02*
X53750Y-44750D01*
X39500Y-44750D02*
X45500Y-44750D01*
X31250Y-44750D02*
X37250Y-44750D01*
X47750Y-44500D02*
X53750Y-44500D01*
X39500Y-44500D02*
X45500Y-44500D01*
X31250Y-44500D02*
X37250Y-44500D01*
X47500Y-44250D02*
X54000Y-44250D01*
X39250Y-44250D02*
X45750Y-44250D01*
X31000Y-44250D02*
X37500Y-44250D01*
X47500Y-44000D02*
X54000Y-44000D01*
X39250Y-44000D02*
X45750Y-44000D01*
X31000Y-44000D02*
X37500Y-44000D01*
X47000Y-43750D02*
X54500Y-43750D01*
X38750Y-43750D02*
X46250Y-43750D01*
X30500Y-43750D02*
X38000Y-43750D01*
G54D21*
X34500Y-50750D02*
X34500Y-50050D01*
X34500Y-50750D02*
X35200Y-50750D01*
X42750Y-50750D02*
X42750Y-50050D01*
X42750Y-50750D02*
X43450Y-50750D01*
X51000Y-50750D02*
X51000Y-50050D01*
X51000Y-50750D02*
X51700Y-50750D01*
X29250Y-51250D02*
X29950Y-51250D01*
X36770Y-51527D02*
X36399Y-50933D01*
X45020Y-51527D02*
X44649Y-50933D01*
X53270Y-51527D02*
X52899Y-50933D01*
X53800Y-52375D02*
X54171Y-52969D01*
G54D22*
X55500Y-45500D02*
X55500Y-54500D01*
X55250Y-45500D02*
X55250Y-54500D01*
X55000Y-52500D02*
X55000Y-54500D01*
X55000Y-45750D02*
X55000Y-51250D01*
X54750Y-52500D02*
X54750Y-54500D01*
X54750Y-47500D02*
X54750Y-51250D01*
X54750Y-45750D02*
X54750Y-46500D01*
X54500Y-52500D02*
X54500Y-54500D01*
X54500Y-47750D02*
X54500Y-50500D01*
X54500Y-45500D02*
X54500Y-46250D01*
X54250Y-52750D02*
X54250Y-54500D01*
X54250Y-48000D02*
X54250Y-50250D01*
X54250Y-45500D02*
X54250Y-46000D01*
X54000Y-53000D02*
X54000Y-54500D01*
X54000Y-48000D02*
X54000Y-50250D01*
X54000Y-45000D02*
X54000Y-46000D01*
X54000Y-43750D02*
X54000Y-44250D01*
X53750Y-53000D02*
X53750Y-54500D01*
X53750Y-48000D02*
X53750Y-50500D01*
X53750Y-43750D02*
X53750Y-46000D01*
X53500Y-53250D02*
X53500Y-54500D01*
X53500Y-48000D02*
X53500Y-51000D01*
X53500Y-43750D02*
X53500Y-46000D01*
X53250Y-53500D02*
X53250Y-54500D01*
X53250Y-48000D02*
X53250Y-50750D01*
X53250Y-43750D02*
X53250Y-46000D01*
X53000Y-53500D02*
X53000Y-54500D01*
X53000Y-48000D02*
X53000Y-51000D01*
X53000Y-43750D02*
X53000Y-46000D01*
X52750Y-53500D02*
X52750Y-54500D01*
X52750Y-48000D02*
X52750Y-51250D01*
X52750Y-43750D02*
X52750Y-46000D01*
X52500Y-54000D02*
X52500Y-54500D01*
X52500Y-48000D02*
X52500Y-51250D01*
X52500Y-43750D02*
X52500Y-46000D01*
X52250Y-54000D02*
X52250Y-54500D01*
X52250Y-48000D02*
X52250Y-51500D01*
X52250Y-43750D02*
X52250Y-46000D01*
X52000Y-54250D02*
X52000Y-54500D01*
X52000Y-48000D02*
X52000Y-51500D01*
X52000Y-43750D02*
X52000Y-46000D01*
X51750Y-54000D02*
X51750Y-54500D01*
X51750Y-48000D02*
X51750Y-52000D01*
X51750Y-43750D02*
X51750Y-46000D01*
X51500Y-53250D02*
X51500Y-54500D01*
X51500Y-48000D02*
X51500Y-50250D01*
X51500Y-43750D02*
X51500Y-46000D01*
X51250Y-48000D02*
X51250Y-50000D01*
X51250Y-43750D02*
X51250Y-46000D01*
X51000Y-48000D02*
X51000Y-50000D01*
X51000Y-43750D02*
X51000Y-46000D01*
X50750Y-48000D02*
X50750Y-50000D01*
X50750Y-43750D02*
X50750Y-46000D01*
X50500Y-48000D02*
X50500Y-50250D01*
X50500Y-43750D02*
X50500Y-46000D01*
X50250Y-48000D02*
X50250Y-50250D01*
X50250Y-43750D02*
X50250Y-46000D01*
X50000Y-52500D02*
X50000Y-54500D01*
X50000Y-48000D02*
X50000Y-50000D01*
X50000Y-43750D02*
X50000Y-46000D01*
X49750Y-52500D02*
X49750Y-54500D01*
X49750Y-48000D02*
X49750Y-50000D01*
X49750Y-43750D02*
X49750Y-46000D01*
X49500Y-52500D02*
X49500Y-54500D01*
X49500Y-48000D02*
X49500Y-50000D01*
X49500Y-43750D02*
X49500Y-46000D01*
X49250Y-52250D02*
X49250Y-54500D01*
X49250Y-48000D02*
X49250Y-50250D01*
X49250Y-43750D02*
X49250Y-46000D01*
X49000Y-48000D02*
X49000Y-54500D01*
X49000Y-43750D02*
X49000Y-46000D01*
X48750Y-48000D02*
X48750Y-54500D01*
X48750Y-43750D02*
X48750Y-46000D01*
X48500Y-52250D02*
X48500Y-54500D01*
X48500Y-48000D02*
X48500Y-50250D01*
X48500Y-43750D02*
X48500Y-46000D01*
X48250Y-52500D02*
X48250Y-54500D01*
X48250Y-48000D02*
X48250Y-50000D01*
X48250Y-43750D02*
X48250Y-46000D01*
X48000Y-52500D02*
X48000Y-54500D01*
X48000Y-48000D02*
X48000Y-48750D01*
X48000Y-43750D02*
X48000Y-46000D01*
X47750Y-52500D02*
X47750Y-54500D01*
X47750Y-48000D02*
X47750Y-48500D01*
X47750Y-43750D02*
X47750Y-46000D01*
X47500Y-52250D02*
X47500Y-54500D01*
X47500Y-47750D02*
X47500Y-48500D01*
X47500Y-45000D02*
X47500Y-46250D01*
X47500Y-43750D02*
X47500Y-44250D01*
X47250Y-53500D02*
X47250Y-53750D01*
X47250Y-50500D02*
X47250Y-52500D01*
X47250Y-47500D02*
X47250Y-48250D01*
X47250Y-45500D02*
X47250Y-46500D01*
X47000Y-50500D02*
X47000Y-52250D01*
X47000Y-45500D02*
X47000Y-48500D01*
X46750Y-50250D02*
X46750Y-51250D01*
X46750Y-45750D02*
X46750Y-48500D01*
X46500Y-50000D02*
X46500Y-51250D01*
X46500Y-47500D02*
X46500Y-48750D01*
X46500Y-45750D02*
X46500Y-46500D01*
X46250Y-47750D02*
X46250Y-50500D01*
X46250Y-45500D02*
X46250Y-46250D01*
X46000Y-48000D02*
X46000Y-50250D01*
X46000Y-45500D02*
X46000Y-46000D01*
X45750Y-48000D02*
X45750Y-50250D01*
X45750Y-45000D02*
X45750Y-46000D01*
X45750Y-43750D02*
X45750Y-44250D01*
X45500Y-48000D02*
X45500Y-50500D01*
X45500Y-43750D02*
X45500Y-46000D01*
X45250Y-48000D02*
X45250Y-51000D01*
X45250Y-43750D02*
X45250Y-46000D01*
X45000Y-48000D02*
X45000Y-50750D01*
X45000Y-43750D02*
X45000Y-46000D01*
X44750Y-48000D02*
X44750Y-51000D01*
X44750Y-43750D02*
X44750Y-46000D01*
X44500Y-48000D02*
X44500Y-51250D01*
X44500Y-43750D02*
X44500Y-46000D01*
X44250Y-48000D02*
X44250Y-51250D01*
X44250Y-43750D02*
X44250Y-46000D01*
X44000Y-48000D02*
X44000Y-51500D01*
X44000Y-43750D02*
X44000Y-46000D01*
X43750Y-48000D02*
X43750Y-51500D01*
X43750Y-43750D02*
X43750Y-46000D01*
X43500Y-48000D02*
X43500Y-52000D01*
X43500Y-43750D02*
X43500Y-46000D01*
X43250Y-48000D02*
X43250Y-50250D01*
X43250Y-43750D02*
X43250Y-46000D01*
X43000Y-48000D02*
X43000Y-50000D01*
X43000Y-43750D02*
X43000Y-46000D01*
X42750Y-48000D02*
X42750Y-50000D01*
X42750Y-43750D02*
X42750Y-46000D01*
X42500Y-48000D02*
X42500Y-50000D01*
X42500Y-43750D02*
X42500Y-46000D01*
X42250Y-48000D02*
X42250Y-50250D01*
X42250Y-43750D02*
X42250Y-46000D01*
X42000Y-48000D02*
X42000Y-50250D01*
X42000Y-43750D02*
X42000Y-46000D01*
X41750Y-52500D02*
X41750Y-53250D01*
X41750Y-48000D02*
X41750Y-50000D01*
X41750Y-43750D02*
X41750Y-46000D01*
X41500Y-52500D02*
X41500Y-53250D01*
X41500Y-48000D02*
X41500Y-50000D01*
X41500Y-43750D02*
X41500Y-46000D01*
X41250Y-52500D02*
X41250Y-53250D01*
X41250Y-48000D02*
X41250Y-50000D01*
X41250Y-43750D02*
X41250Y-46000D01*
X41000Y-52250D02*
X41000Y-53250D01*
X41000Y-48000D02*
X41000Y-50250D01*
X41000Y-43750D02*
X41000Y-46000D01*
X40750Y-48000D02*
X40750Y-53250D01*
X40750Y-43750D02*
X40750Y-46000D01*
X40500Y-48000D02*
X40500Y-53250D01*
X40500Y-43750D02*
X40500Y-46000D01*
X40250Y-52250D02*
X40250Y-53250D01*
X40250Y-48000D02*
X40250Y-50250D01*
X40250Y-43750D02*
X40250Y-46000D01*
X40000Y-52500D02*
X40000Y-53250D01*
X40000Y-48000D02*
X40000Y-50000D01*
X40000Y-43750D02*
X40000Y-46000D01*
X39750Y-52500D02*
X39750Y-53250D01*
X39750Y-48000D02*
X39750Y-48750D01*
X39750Y-43750D02*
X39750Y-46000D01*
X39500Y-52500D02*
X39500Y-53250D01*
X39500Y-48000D02*
X39500Y-48500D01*
X39500Y-43750D02*
X39500Y-46000D01*
X39250Y-52250D02*
X39250Y-53250D01*
X39250Y-47750D02*
X39250Y-48500D01*
X39250Y-45000D02*
X39250Y-46250D01*
X39250Y-43750D02*
X39250Y-44250D01*
X39000Y-50500D02*
X39000Y-52500D01*
X39000Y-47500D02*
X39000Y-48250D01*
X39000Y-45500D02*
X39000Y-46500D01*
X38750Y-50500D02*
X38750Y-52250D01*
X38750Y-45500D02*
X38750Y-48500D01*
X38500Y-50250D02*
X38500Y-51250D01*
X38500Y-45750D02*
X38500Y-48500D01*
X38250Y-50000D02*
X38250Y-51250D01*
X38250Y-47750D02*
X38250Y-48750D01*
X38250Y-45750D02*
X38250Y-46250D01*
X38000Y-47750D02*
X38000Y-50500D01*
X38000Y-45500D02*
X38000Y-46250D01*
X37750Y-48000D02*
X37750Y-50250D01*
X37750Y-45500D02*
X37750Y-46000D01*
X37500Y-48000D02*
X37500Y-50250D01*
X37500Y-45000D02*
X37500Y-46000D01*
X37500Y-43750D02*
X37500Y-44250D01*
X37250Y-48000D02*
X37250Y-50500D01*
X37250Y-43750D02*
X37250Y-46000D01*
X37000Y-48000D02*
X37000Y-51000D01*
X37000Y-43750D02*
X37000Y-46000D01*
X36750Y-48000D02*
X36750Y-50750D01*
X36750Y-43750D02*
X36750Y-46000D01*
X36500Y-48000D02*
X36500Y-51000D01*
X36500Y-43750D02*
X36500Y-46000D01*
X36250Y-48000D02*
X36250Y-51250D01*
X36250Y-43750D02*
X36250Y-46000D01*
X36000Y-48000D02*
X36000Y-51250D01*
X36000Y-43750D02*
X36000Y-46000D01*
X35750Y-48000D02*
X35750Y-51500D01*
X35750Y-43750D02*
X35750Y-46000D01*
X35500Y-48000D02*
X35500Y-51500D01*
X35500Y-43750D02*
X35500Y-46000D01*
X35250Y-48000D02*
X35250Y-52000D01*
X35250Y-43750D02*
X35250Y-46000D01*
X35000Y-48000D02*
X35000Y-50250D01*
X35000Y-43750D02*
X35000Y-46000D01*
X34750Y-48000D02*
X34750Y-50000D01*
X34750Y-43750D02*
X34750Y-46000D01*
X34500Y-48000D02*
X34500Y-50000D01*
X34500Y-43750D02*
X34500Y-46000D01*
X34250Y-48000D02*
X34250Y-50000D01*
X34250Y-43750D02*
X34250Y-46000D01*
X34000Y-48000D02*
X34000Y-50250D01*
X34000Y-43750D02*
X34000Y-46000D01*
X33750Y-48000D02*
X33750Y-50250D01*
X33750Y-43750D02*
X33750Y-46000D01*
X33500Y-48000D02*
X33500Y-50000D01*
X33500Y-43750D02*
X33500Y-46000D01*
X33250Y-52500D02*
X33250Y-53250D01*
X33250Y-48000D02*
X33250Y-50000D01*
X33250Y-43750D02*
X33250Y-46000D01*
X33000Y-52500D02*
X33000Y-53250D01*
X33000Y-48000D02*
X33000Y-50000D01*
X33000Y-43750D02*
X33000Y-46000D01*
X32750Y-52250D02*
X32750Y-53250D01*
X32750Y-48000D02*
X32750Y-50250D01*
X32750Y-43750D02*
X32750Y-46000D01*
X32500Y-48000D02*
X32500Y-53250D01*
X32500Y-43750D02*
X32500Y-46000D01*
X32250Y-48000D02*
X32250Y-53250D01*
X32250Y-43750D02*
X32250Y-46000D01*
X32000Y-52250D02*
X32000Y-53250D01*
X32000Y-48000D02*
X32000Y-50250D01*
X32000Y-43750D02*
X32000Y-46000D01*
X31750Y-52500D02*
X31750Y-53250D01*
X31750Y-48000D02*
X31750Y-50000D01*
X31750Y-43750D02*
X31750Y-46000D01*
X31500Y-52500D02*
X31500Y-53250D01*
X31500Y-48000D02*
X31500Y-48750D01*
X31500Y-43750D02*
X31500Y-46000D01*
X31250Y-52500D02*
X31250Y-53250D01*
X31250Y-48000D02*
X31250Y-48500D01*
X31250Y-43750D02*
X31250Y-46000D01*
X31000Y-52250D02*
X31000Y-53250D01*
X31000Y-47750D02*
X31000Y-48500D01*
X31000Y-45000D02*
X31000Y-46250D01*
X31000Y-43750D02*
X31000Y-44250D01*
X30750Y-50500D02*
X30750Y-53250D01*
X30750Y-47250D02*
X30750Y-48250D01*
X30750Y-45500D02*
X30750Y-46750D01*
X30500Y-50500D02*
X30500Y-52500D01*
X30500Y-45500D02*
X30500Y-48500D01*
X30250Y-50250D02*
X30250Y-51250D01*
X30250Y-45750D02*
X30250Y-48500D01*
X30000Y-50000D02*
X30000Y-51250D01*
X30000Y-45750D02*
X30000Y-48750D01*
X29750Y-49000D02*
X29750Y-49750D01*
X29750Y-48000D02*
X29750Y-48500D01*
X29750Y-47000D02*
X29750Y-47500D01*
X29750Y-46000D02*
X29750Y-46500D01*
X29500Y-53500D02*
X29500Y-53750D01*
X29500Y-49250D02*
X29500Y-49500D01*
X29250Y-53250D02*
X29250Y-54500D01*
X29000Y-53250D02*
X29000Y-54500D01*
X29000Y-49250D02*
X29000Y-49500D01*
X28750Y-53250D02*
X28750Y-54500D01*
X28750Y-49000D02*
X28750Y-49750D01*
X28500Y-53500D02*
X28500Y-54500D01*
X28500Y-49250D02*
X28500Y-50500D01*
X28250Y-53500D02*
X28250Y-53750D01*
X28250Y-49500D02*
X28250Y-52250D01*
X28000Y-49750D02*
X28000Y-50500D01*
X27750Y-50000D02*
X27750Y-50250D01*
X51500Y-54500D02*
X55500Y-54500D01*
X47500Y-54500D02*
X50000Y-54500D01*
X28500Y-54500D02*
X29250Y-54500D01*
X51500Y-54250D02*
X55500Y-54250D01*
X47500Y-54250D02*
X50000Y-54250D01*
X28500Y-54250D02*
X29250Y-54250D01*
X52250Y-54000D02*
X55500Y-54000D01*
X51500Y-54000D02*
X51750Y-54000D01*
X47500Y-54000D02*
X50000Y-54000D01*
X28500Y-54000D02*
X29250Y-54000D01*
X52750Y-53750D02*
X55500Y-53750D01*
X47250Y-53750D02*
X50000Y-53750D01*
X28250Y-53750D02*
X29500Y-53750D01*
X52750Y-53500D02*
X55500Y-53500D01*
X47250Y-53500D02*
X50000Y-53500D01*
X28000Y-53500D02*
X29500Y-53500D01*
X53500Y-53250D02*
X55500Y-53250D01*
X47500Y-53250D02*
X50000Y-53250D01*
X39250Y-53250D02*
X41750Y-53250D01*
X30750Y-53250D02*
X33250Y-53250D01*
X28750Y-53250D02*
X29250Y-53250D01*
X53750Y-53000D02*
X55500Y-53000D01*
X47500Y-53000D02*
X50000Y-53000D01*
X39250Y-53000D02*
X41750Y-53000D01*
X30750Y-53000D02*
X33250Y-53000D01*
X54250Y-52750D02*
X55500Y-52750D01*
X47500Y-52750D02*
X50000Y-52750D01*
X39250Y-52750D02*
X41750Y-52750D01*
X30750Y-52750D02*
X33250Y-52750D01*
X54500Y-52500D02*
X55500Y-52500D01*
X47250Y-52500D02*
X50000Y-52500D01*
X39000Y-52500D02*
X41750Y-52500D01*
X30500Y-52500D02*
X33250Y-52500D01*
X55250Y-52250D02*
X55500Y-52250D01*
X48500Y-52250D02*
X49250Y-52250D01*
X47000Y-52250D02*
X47500Y-52250D01*
X40250Y-52250D02*
X41000Y-52250D01*
X38750Y-52250D02*
X39250Y-52250D01*
X32000Y-52250D02*
X32750Y-52250D01*
X30500Y-52250D02*
X31000Y-52250D01*
X55250Y-52000D02*
X55500Y-52000D01*
X48750Y-52000D02*
X49000Y-52000D01*
X47000Y-52000D02*
X47250Y-52000D01*
X40500Y-52000D02*
X40750Y-52000D01*
X38750Y-52000D02*
X39000Y-52000D01*
X32250Y-52000D02*
X32500Y-52000D01*
X30500Y-52000D02*
X30750Y-52000D01*
X28250Y-52000D02*
X28500Y-52000D01*
X55250Y-51750D02*
X55500Y-51750D01*
X48750Y-51750D02*
X49000Y-51750D01*
X47000Y-51750D02*
X47250Y-51750D01*
X40500Y-51750D02*
X40750Y-51750D01*
X38750Y-51750D02*
X39000Y-51750D01*
X32250Y-51750D02*
X32500Y-51750D01*
X30500Y-51750D02*
X30750Y-51750D01*
X55250Y-51500D02*
X55500Y-51500D01*
X51750Y-51500D02*
X52250Y-51500D01*
X48750Y-51500D02*
X49000Y-51500D01*
X47000Y-51500D02*
X47250Y-51500D01*
X43500Y-51500D02*
X44000Y-51500D01*
X40500Y-51500D02*
X40750Y-51500D01*
X38750Y-51500D02*
X39000Y-51500D01*
X35250Y-51500D02*
X35750Y-51500D01*
X32250Y-51500D02*
X32500Y-51500D01*
X30500Y-51500D02*
X30750Y-51500D01*
X28000Y-51500D02*
X28250Y-51500D01*
X54750Y-51250D02*
X55500Y-51250D01*
X51500Y-51250D02*
X52750Y-51250D01*
X48500Y-51250D02*
X49250Y-51250D01*
X46500Y-51250D02*
X47500Y-51250D01*
X43250Y-51250D02*
X44500Y-51250D01*
X40250Y-51250D02*
X41000Y-51250D01*
X38250Y-51250D02*
X39250Y-51250D01*
X35000Y-51250D02*
X36250Y-51250D01*
X32000Y-51250D02*
X32750Y-51250D01*
X30000Y-51250D02*
X31000Y-51250D01*
X54750Y-51000D02*
X55500Y-51000D01*
X51750Y-51000D02*
X53000Y-51000D01*
X48750Y-51000D02*
X49000Y-51000D01*
X46500Y-51000D02*
X47250Y-51000D01*
X43500Y-51000D02*
X44750Y-51000D01*
X40500Y-51000D02*
X40750Y-51000D01*
X38250Y-51000D02*
X39000Y-51000D01*
X35250Y-51000D02*
X36500Y-51000D01*
X32250Y-51000D02*
X32500Y-51000D01*
X30000Y-51000D02*
X30750Y-51000D01*
X54750Y-50750D02*
X55500Y-50750D01*
X51750Y-50750D02*
X53500Y-50750D01*
X48750Y-50750D02*
X49000Y-50750D01*
X46500Y-50750D02*
X47250Y-50750D01*
X43500Y-50750D02*
X45250Y-50750D01*
X40500Y-50750D02*
X40750Y-50750D01*
X38250Y-50750D02*
X39000Y-50750D01*
X35250Y-50750D02*
X37000Y-50750D01*
X32250Y-50750D02*
X32500Y-50750D01*
X29750Y-50750D02*
X30750Y-50750D01*
X54500Y-50500D02*
X55500Y-50500D01*
X51750Y-50500D02*
X53750Y-50500D01*
X48750Y-50500D02*
X49000Y-50500D01*
X46250Y-50500D02*
X47250Y-50500D01*
X43500Y-50500D02*
X45500Y-50500D01*
X40500Y-50500D02*
X40750Y-50500D01*
X38000Y-50500D02*
X39000Y-50500D01*
X35250Y-50500D02*
X37250Y-50500D01*
X32250Y-50500D02*
X32500Y-50500D01*
X30000Y-50500D02*
X30750Y-50500D01*
X28000Y-50500D02*
X28500Y-50500D01*
X51500Y-50250D02*
X55500Y-50250D01*
X50250Y-50250D02*
X50500Y-50250D01*
X48500Y-50250D02*
X49250Y-50250D01*
X43250Y-50250D02*
X46750Y-50250D01*
X42000Y-50250D02*
X42250Y-50250D01*
X40250Y-50250D02*
X41000Y-50250D01*
X35000Y-50250D02*
X38500Y-50250D01*
X33750Y-50250D02*
X34000Y-50250D01*
X32000Y-50250D02*
X32750Y-50250D01*
X30000Y-50250D02*
X30250Y-50250D01*
X27750Y-50250D02*
X28500Y-50250D01*
X48000Y-50000D02*
X55500Y-50000D01*
X39750Y-50000D02*
X46500Y-50000D01*
X31500Y-50000D02*
X38250Y-50000D01*
X27750Y-50000D02*
X28500Y-50000D01*
X48250Y-49750D02*
X55500Y-49750D01*
X40000Y-49750D02*
X46250Y-49750D01*
X31750Y-49750D02*
X38000Y-49750D01*
X28000Y-49750D02*
X28750Y-49750D01*
X48250Y-49500D02*
X55500Y-49500D01*
X40000Y-49500D02*
X46250Y-49500D01*
X31750Y-49500D02*
X38000Y-49500D01*
X28250Y-49500D02*
X29750Y-49500D01*
X48250Y-49250D02*
X55500Y-49250D01*
X40000Y-49250D02*
X46250Y-49250D01*
X31750Y-49250D02*
X38000Y-49250D01*
X29500Y-49250D02*
X29750Y-49250D01*
X28500Y-49250D02*
X29000Y-49250D01*
X48250Y-49000D02*
X55500Y-49000D01*
X40000Y-49000D02*
X46250Y-49000D01*
X31750Y-49000D02*
X38000Y-49000D01*
X48000Y-48750D02*
X55500Y-48750D01*
X39750Y-48750D02*
X46500Y-48750D01*
X31500Y-48750D02*
X38250Y-48750D01*
X47500Y-48500D02*
X55500Y-48500D01*
X39250Y-48500D02*
X47000Y-48500D01*
X31000Y-48500D02*
X38750Y-48500D01*
X29750Y-48500D02*
X30500Y-48500D01*
X29500Y-48250D02*
X55500Y-48250D01*
X29750Y-48000D02*
X55500Y-48000D01*
X54500Y-47750D02*
X55500Y-47750D01*
X46250Y-47750D02*
X47500Y-47750D01*
X38000Y-47750D02*
X39250Y-47750D01*
X30000Y-47750D02*
X31000Y-47750D01*
X54750Y-47500D02*
X55500Y-47500D01*
X46500Y-47500D02*
X47250Y-47500D01*
X38500Y-47500D02*
X39000Y-47500D01*
X29750Y-47500D02*
X30750Y-47500D01*
X55000Y-47250D02*
X55500Y-47250D01*
X46750Y-47250D02*
X47000Y-47250D01*
X38500Y-47250D02*
X38750Y-47250D01*
X29500Y-47250D02*
X30750Y-47250D01*
X55000Y-47000D02*
X55500Y-47000D01*
X46750Y-47000D02*
X47000Y-47000D01*
X38500Y-47000D02*
X38750Y-47000D01*
X29750Y-47000D02*
X30500Y-47000D01*
X55000Y-46750D02*
X55500Y-46750D01*
X46750Y-46750D02*
X47000Y-46750D01*
X38500Y-46750D02*
X38750Y-46750D01*
X30000Y-46750D02*
X30750Y-46750D01*
X54750Y-46500D02*
X55500Y-46500D01*
X46500Y-46500D02*
X47250Y-46500D01*
X38500Y-46500D02*
X39000Y-46500D01*
X29750Y-46500D02*
X30750Y-46500D01*
X54500Y-46250D02*
X55500Y-46250D01*
X46250Y-46250D02*
X47500Y-46250D01*
X38000Y-46250D02*
X39250Y-46250D01*
X29500Y-46250D02*
X31000Y-46250D01*
X29750Y-46000D02*
X55500Y-46000D01*
X30000Y-45750D02*
X55500Y-45750D01*
X55250Y-45500D02*
X55500Y-45500D01*
X47000Y-45500D02*
X54500Y-45500D01*
X38750Y-45500D02*
X46250Y-45500D01*
X30500Y-45500D02*
X38000Y-45500D01*
X47500Y-45250D02*
X54000Y-45250D01*
X39250Y-45250D02*
X45750Y-45250D01*
X31000Y-45250D02*
X37500Y-45250D01*
X47500Y-45000D02*
X54000Y-45000D01*
X39250Y-45000D02*
X45750Y-45000D01*
X31000Y-45000D02*
X37500Y-45000D01*
X47750Y-44750D02*
X53750Y-44750D01*
X39500Y-44750D02*
X45500Y-44750D01*
X31250Y-44750D02*
X37250Y-44750D01*
X47750Y-44500D02*
X53750Y-44500D01*
X39500Y-44500D02*
X45500Y-44500D01*
X31250Y-44500D02*
X37250Y-44500D01*
X47500Y-44250D02*
X54000Y-44250D01*
X39250Y-44250D02*
X45750Y-44250D01*
X31000Y-44250D02*
X37500Y-44250D01*
X47500Y-44000D02*
X54000Y-44000D01*
X39250Y-44000D02*
X45750Y-44000D01*
X31000Y-44000D02*
X37500Y-44000D01*
X47000Y-43750D02*
X54500Y-43750D01*
X38750Y-43750D02*
X46250Y-43750D01*
X30500Y-43750D02*
X38000Y-43750D01*
X25250Y-50250D02*
X25250Y-51000D01*
X25000Y-50000D02*
X25000Y-51250D01*
X24750Y-50000D02*
X24750Y-51500D01*
X24500Y-50000D02*
X24500Y-51750D01*
X24250Y-50250D02*
X24250Y-51000D01*
X24000Y-50500D02*
X24000Y-51000D01*
X23750Y-50500D02*
X23750Y-51000D01*
X24500Y-51500D02*
X24750Y-51500D01*
X24500Y-51250D02*
X25000Y-51250D01*
X23750Y-51000D02*
X25250Y-51000D01*
X23500Y-50750D02*
X25500Y-50750D01*
X23750Y-50500D02*
X25250Y-50500D01*
X24250Y-50250D02*
X25250Y-50250D01*
X24500Y-50000D02*
X25000Y-50000D01*
X26750Y-53250D02*
X26750Y-53500D01*
X25750Y-53250D02*
X25750Y-53500D01*
X25500Y-52250D02*
X25500Y-53500D01*
X25250Y-52500D02*
X25250Y-52750D01*
X25500Y-53500D02*
X26750Y-53500D01*
X25500Y-53250D02*
X25750Y-53250D01*
X25250Y-52750D02*
X25500Y-52750D01*
X25250Y-52500D02*
X25500Y-52500D01*
X25500Y-52250D02*
X25750Y-52250D01*
X26000Y-43750D02*
X26000Y-44250D01*
X25750Y-43750D02*
X25750Y-44500D01*
X25500Y-43750D02*
X25500Y-44750D01*
X25250Y-43750D02*
X25250Y-45000D01*
X25000Y-43750D02*
X25000Y-45250D01*
X24750Y-43750D02*
X24750Y-45500D01*
X24500Y-43750D02*
X24500Y-45750D01*
X24250Y-45000D02*
X24250Y-45250D01*
X24250Y-43750D02*
X24250Y-44000D01*
X24500Y-45500D02*
X24750Y-45500D01*
X24250Y-45250D02*
X25000Y-45250D01*
X24250Y-45000D02*
X25250Y-45000D01*
X24500Y-44750D02*
X25500Y-44750D01*
X24500Y-44500D02*
X25750Y-44500D01*
X24500Y-44250D02*
X26000Y-44250D01*
X24250Y-44000D02*
X26000Y-44000D01*
X23500Y-43750D02*
X26000Y-43750D01*
X26000Y-49250D02*
X26000Y-49500D01*
X25750Y-49000D02*
X25750Y-49500D01*
X25750Y-48000D02*
X25750Y-48500D01*
X25750Y-47000D02*
X25750Y-47500D01*
X25500Y-46000D02*
X25500Y-49750D01*
X25250Y-46250D02*
X25250Y-48500D01*
X25000Y-46500D02*
X25000Y-48500D01*
X24750Y-46750D02*
X24750Y-48500D01*
X24500Y-47000D02*
X24500Y-48500D01*
X24250Y-47250D02*
X24250Y-48500D01*
X24000Y-47250D02*
X24000Y-49000D01*
X23750Y-47250D02*
X23750Y-49000D01*
X23500Y-47250D02*
X23500Y-48000D01*
X23250Y-47250D02*
X23250Y-47750D01*
X23000Y-47250D02*
X23000Y-47500D01*
X25500Y-49500D02*
X26250Y-49500D01*
X25500Y-49250D02*
X26000Y-49250D01*
X25500Y-49000D02*
X25750Y-49000D01*
X23750Y-49000D02*
X24000Y-49000D01*
X23750Y-48750D02*
X24000Y-48750D01*
X23750Y-48500D02*
X25750Y-48500D01*
X23750Y-48250D02*
X25750Y-48250D01*
X23500Y-48000D02*
X25750Y-48000D01*
X23250Y-47750D02*
X25500Y-47750D01*
X23000Y-47500D02*
X25750Y-47500D01*
X22750Y-47250D02*
X26000Y-47250D01*
X24500Y-47000D02*
X25750Y-47000D01*
X24750Y-46750D02*
X25500Y-46750D01*
X25000Y-46500D02*
X25750Y-46500D01*
X25250Y-46250D02*
X25500Y-46250D01*
M02*
